ply
format ascii 1.0
comment Generated by MaSIF
element vertex 200
property float x
property float y
property float z
property float nx
property float ny
property float nz
property float charge
element face 339
property list uchar int vertex_indices
end_header
-13.98 132.59 27.07 -0.99 -0.12 -0.10 0.02
-14.02 133.55 26.62 -0.99 0.06 0.10 -0.10
-14.22 132.46 25.99 -0.96 -0.27 -0.05 -0.02
-13.95 133.48 27.79 -0.92 0.01 -0.38 0.15
-13.89 131.26 27.16 -0.79 -0.17 -0.59 0.02
-14.48 132.24 28.52 -0.81 0.13 -0.57 -0.26
-13.17 131.57 25.46 -0.80 -0.48 -0.37 -0.04
-13.93 132.87 24.98 -0.76 -0.39 -0.52 -0.12
-13.87 134.53 27.45 -0.97 -0.08 -0.21 -0.07
-14.41 134.49 28.16 -0.64 -0.18 -0.75 0.49
-13.07 130.62 26.73 -0.86 -0.23 -0.46 0.00
-14.85 133.70 28.71 -0.58 -0.31 -0.75 0.56
-14.07 134.38 25.28 -0.97 -0.24 -0.06 -0.38
-13.55 129.98 27.42 -0.57 0.07 -0.82 -0.25
-13.98 135.11 26.12 -0.93 -0.25 0.27 -0.38
-14.87 131.01 28.01 -0.44 0.38 -0.81 -0.02
-15.53 132.03 29.64 -0.84 0.44 -0.33 -0.74
-12.74 130.35 25.68 -0.95 0.01 -0.31 0.07
-12.81 132.56 24.35 -0.73 -0.52 -0.44 -0.53
-15.53 133.15 29.65 -0.86 -0.41 -0.30 0.14
-15.28 130.14 27.66 -0.22 0.34 -0.92 0.08
-15.98 134.06 28.81 -0.56 -0.42 -0.72 0.14
-15.82 130.91 28.44 -0.44 0.66 -0.61 0.02
-13.79 129.03 27.17 -0.47 0.51 -0.72 0.06
-14.47 129.52 27.48 -0.16 0.25 -0.95 0.10
-13.13 133.40 23.59 -0.84 -0.52 -0.15 -1.08
-14.84 135.26 24.87 -0.80 -0.55 0.26 0.16
-14.45 136.04 27.99 -0.57 -0.37 -0.73 0.34
-12.19 129.90 24.77 -0.80 0.12 -0.59 0.22
-13.13 129.09 26.52 -0.83 0.44 -0.35 0.37
-14.14 136.30 27.15 -0.89 -0.44 -0.13 -0.06
-14.83 136.41 26.11 -0.81 -0.50 0.29 0.17
-15.85 135.66 28.60 -0.40 -0.26 -0.88 0.81
-15.40 131.88 31.09 -0.87 0.31 0.38 -1.28
-13.98 134.76 23.32 -0.80 -0.52 -0.29 -1.13
-12.53 132.56 23.30 -0.87 -0.47 0.10 -1.44
-15.43 133.11 30.98 -0.94 -0.26 0.23 -0.17
-11.82 131.54 24.20 -0.78 -0.48 -0.39 -0.36
-16.89 130.66 28.95 -0.75 0.53 -0.39 0.03
-16.84 131.04 30.23 -0.74 0.64 0.22 -0.02
-16.69 134.77 29.77 -0.76 -0.60 -0.27 0.34
-13.29 128.88 25.44 -0.73 0.63 -0.26 1.03
-16.60 129.50 27.88 -0.58 0.25 -0.78 0.06
-15.48 135.67 23.73 -0.88 -0.39 -0.27 0.05
-15.16 128.15 27.38 -0.48 0.06 -0.87 0.12
-14.44 128.01 26.15 -0.84 0.41 -0.36 0.43
-16.81 136.06 28.63 -0.39 -0.40 -0.83 0.83
-15.49 136.78 24.60 -1.00 0.02 -0.00 0.33
-12.78 128.80 24.31 -0.70 0.62 -0.35 1.26
-11.39 130.81 23.98 -0.92 0.02 -0.39 -0.06
-15.44 137.59 25.71 -0.99 -0.01 -0.11 0.68
-12.03 129.29 23.53 -0.80 0.56 -0.21 0.77
-16.11 136.81 28.27 -0.33 -0.37 -0.87 1.40
-13.98 134.52 22.30 -0.98 -0.15 -0.16 -1.19
-16.43 134.69 31.21 -0.78 -0.58 0.24 0.41
-14.97 132.25 32.31 -0.97 0.13 0.22 -0.14
-15.99 130.63 31.25 -0.68 0.37 0.64 -0.01
-13.69 135.87 22.31 -0.86 0.03 -0.51 -1.22
-13.41 133.39 21.56 -0.98 -0.18 -0.09 -2.65
-17.38 129.96 30.07 -0.96 0.20 0.19 0.01
-15.60 137.61 27.42 -0.73 -0.47 -0.49 0.52
-15.16 130.82 32.23 -0.94 0.24 0.23 0.46
-15.81 134.34 31.95 -0.76 -0.54 0.37 0.24
-14.80 136.58 22.92 -0.74 0.05 -0.67 0.12
-17.46 129.08 29.32 -1.00 -0.06 -0.05 0.02
-11.59 130.65 22.59 -0.93 -0.26 0.25 -0.14
-17.06 128.15 28.35 -0.78 -0.36 -0.51 -0.01
-11.32 130.02 23.55 -0.92 0.38 -0.02 0.12
-15.35 138.55 26.24 -0.76 0.52 -0.38 0.66
-14.17 127.93 24.52 -0.81 0.41 -0.43 0.59
-16.63 129.54 31.26 -0.78 0.20 0.59 0.01
-15.20 134.06 32.79 -0.69 -0.25 0.68 0.07
-17.95 136.03 29.62 -0.88 -0.40 -0.27 0.48
-17.34 135.77 31.12 -0.80 -0.50 0.33 0.73
-13.48 135.22 21.33 -0.87 0.17 -0.46 -1.76
-17.33 137.46 28.60 -0.69 -0.29 -0.66 1.09
-16.21 127.21 28.44 -0.75 -0.34 -0.57 -0.39
-14.70 138.53 24.56 -0.83 0.48 -0.29 0.02
-13.29 127.33 23.46 -0.82 -0.03 -0.57 0.53
-15.16 126.19 27.69 -0.76 -0.37 -0.53 -0.61
-14.62 126.09 26.35 -0.90 -0.20 -0.40 0.33
-12.91 131.25 21.27 -0.71 -0.21 0.68 -1.06
-12.69 128.29 22.17 -0.98 -0.08 -0.17 0.22
-11.61 129.65 22.07 -0.86 0.23 0.45 0.17
-15.88 129.43 32.05 -0.78 0.34 0.53 -0.10
-12.85 136.63 21.47 -0.89 -0.04 -0.46 -1.15
-14.23 133.28 33.44 -0.52 0.42 0.74 -0.06
-14.71 132.62 33.86 -0.71 0.66 0.23 0.03
-12.85 133.68 20.16 -0.94 0.33 -0.10 -0.83
-13.62 132.57 20.54 -0.76 0.50 0.41 -0.36
-15.44 129.61 32.99 -0.93 0.24 0.28 0.32
-15.34 131.53 33.71 -0.97 0.22 0.01 0.08
-13.98 126.01 25.07 -0.81 -0.38 -0.45 0.97
-15.63 139.36 27.08 -0.15 0.37 -0.92 0.55
-14.70 139.21 26.86 -0.27 0.81 -0.52 0.45
-16.35 135.74 32.90 -0.55 -0.32 0.77 0.21
-16.95 138.70 27.56 -0.45 -0.22 -0.87 1.13
-15.29 129.91 33.95 -0.98 -0.04 0.20 0.23
-16.77 127.64 29.90 -0.91 -0.42 -0.00 -0.02
-13.89 137.77 22.51 -0.91 -0.08 -0.40 -0.74
-18.11 137.58 29.70 -0.97 -0.09 -0.22 0.65
-12.88 135.26 20.28 -0.98 0.11 -0.17 -0.70
-17.93 137.15 31.17 -0.90 -0.25 0.35 1.03
-16.41 126.11 29.14 -0.92 -0.34 -0.22 -1.41
-16.76 127.71 31.45 -0.86 -0.34 0.37 -0.06
-17.06 136.93 32.38 -0.57 -0.19 0.80 0.73
-14.16 135.65 32.82 -0.20 0.05 0.98 0.32
-14.20 124.86 26.86 -0.65 -0.72 -0.22 0.02
-14.40 132.11 20.26 -0.36 0.62 0.69 0.13
-14.50 132.38 35.04 -0.45 0.65 0.62 -0.00
-15.55 125.10 28.61 -0.48 -0.78 -0.39 -0.89
-13.13 125.88 23.98 -0.69 -0.52 -0.50 0.53
-12.83 134.00 19.16 -0.94 0.05 0.34 -0.08
-13.49 139.42 25.15 -0.64 0.75 -0.13 -0.28
-16.01 128.04 32.58 -0.88 -0.15 0.45 -0.34
-13.42 128.42 21.33 -0.33 -0.47 0.82 0.20
-14.54 124.86 28.65 -0.40 -0.84 -0.36 -0.62
-17.94 139.26 28.17 -0.86 -0.19 -0.47 -0.00
-12.31 126.03 22.86 -0.69 -0.42 -0.60 0.16
-15.15 131.38 35.06 -0.85 0.29 0.44 0.00
-13.21 137.73 20.80 -0.86 -0.47 -0.18 -0.44
-13.20 129.86 20.93 -0.37 0.21 0.91 0.30
-14.16 130.77 20.75 -0.18 0.22 0.96 0.87
-13.91 124.85 27.86 -0.42 -0.89 -0.18 -0.14
-13.31 133.12 19.08 -0.82 0.53 0.22 -0.13
-14.74 140.04 27.84 0.07 0.67 -0.74 0.46
-16.33 140.32 27.26 -0.05 0.18 -0.98 0.76
-14.16 132.66 19.19 -0.47 0.88 0.04 0.06
-12.46 136.32 20.16 -0.99 0.01 0.15 -0.25
-12.83 133.45 34.06 -0.50 0.51 0.70 -0.74
-13.66 139.90 27.27 -0.63 0.59 -0.50 0.40
-11.46 128.36 20.61 -0.16 -0.81 -0.56 0.22
-13.37 134.76 33.20 -0.44 0.23 0.87 0.03
-13.12 124.75 25.96 -0.47 -0.85 -0.22 0.39
-13.97 139.34 22.95 -0.93 0.32 0.20 -0.09
-12.93 137.08 19.72 -0.89 -0.29 0.35 -0.06
-13.19 135.33 19.23 -0.84 -0.11 0.53 0.13
-15.08 130.20 35.43 -0.63 -0.30 0.72 -0.07
-14.09 138.60 21.60 -0.93 -0.35 -0.08 -0.21
-14.74 136.83 33.02 -0.06 0.18 0.98 0.31
-14.29 128.86 34.82 -0.41 -0.33 0.85 -0.21
-17.62 140.34 27.72 -0.66 0.07 -0.75 0.53
-15.76 125.08 30.00 -0.59 -0.74 0.32 -1.22
-15.92 137.63 32.77 0.01 0.15 0.99 1.01
-12.88 128.22 20.02 0.19 -0.98 0.06 0.52
-11.07 126.44 21.68 -0.45 -0.40 -0.80 0.21
-15.52 127.40 33.75 -0.87 -0.19 0.45 -0.97
-17.03 138.27 32.88 -0.38 -0.11 0.92 1.66
-15.93 126.31 30.84 -0.72 -0.55 0.42 -0.58
-12.52 132.68 35.21 -0.12 0.68 0.72 -0.13
-14.41 124.73 29.85 -0.30 -0.91 0.30 -0.84
-13.54 134.36 18.28 -0.89 -0.23 0.40 -0.02
-13.21 132.13 35.73 0.10 0.37 0.92 -0.06
-15.43 141.43 28.32 0.40 0.75 -0.53 0.59
-17.04 141.34 27.56 -0.30 0.61 -0.74 0.66
-13.41 124.23 28.78 -0.43 -0.89 -0.13 -0.05
-15.18 126.77 32.20 -0.60 -0.70 0.38 -0.40
-15.91 131.72 20.28 -0.29 0.78 0.56 1.21
-12.71 135.42 33.53 -0.65 0.05 0.76 0.71
-12.99 136.91 33.11 -0.54 0.29 0.79 0.23
-14.44 141.02 28.76 -0.11 0.78 -0.62 0.33
-12.99 140.04 23.91 -0.78 0.58 0.24 -0.06
-11.75 134.09 34.54 -0.20 -0.05 0.98 -0.19
-11.29 124.91 22.51 -0.61 -0.57 -0.55 -0.29
-14.90 129.54 21.08 0.03 0.07 1.00 1.85
-13.59 130.88 35.99 -0.10 0.04 0.99 -0.06
-13.45 138.47 19.36 -0.94 0.13 -0.30 -0.14
-18.21 140.96 29.45 -0.92 0.22 -0.32 0.24
-18.30 139.34 31.54 -0.94 -0.19 0.27 0.49
-14.37 139.39 20.93 -0.98 -0.17 -0.06 -0.10
-11.59 124.63 23.63 -0.63 -0.68 -0.39 0.17
-14.07 140.38 22.18 -0.84 0.44 0.31 -0.05
-13.99 132.61 17.49 -0.75 0.65 -0.14 0.06
-15.04 128.08 34.55 -0.62 -0.07 0.78 -0.91
-12.29 140.81 25.14 -0.88 0.43 -0.21 0.12
-10.36 128.83 19.79 -0.05 -0.94 -0.33 0.54
-12.06 124.29 26.85 -0.62 -0.78 -0.02 0.06
-15.08 127.98 20.60 -0.03 -0.85 0.53 0.97
-12.67 140.82 26.01 -0.85 0.32 -0.41 0.23
-15.75 131.86 18.95 -0.39 0.86 -0.31 1.19
-10.13 127.73 20.80 -0.38 -0.48 -0.79 0.32
-14.61 126.43 33.24 -0.40 -0.88 0.26 -0.99
-13.88 137.07 18.81 -0.87 0.09 0.48 -0.02
-13.28 129.58 35.48 0.03 -0.35 0.94 -0.03
-14.10 135.73 18.17 -0.86 -0.19 0.47 0.14
-13.67 133.53 17.15 -0.98 -0.07 0.19 -0.77
-16.14 130.16 21.04 -0.26 0.21 0.94 3.12
-13.82 134.58 17.26 -0.87 -0.38 0.33 -0.09
-13.55 137.74 32.48 -0.21 0.38 0.90 -0.06
-11.55 123.91 25.71 -0.70 -0.69 -0.20 -0.22
-14.02 127.49 19.42 0.20 -0.97 0.12 1.17
-15.18 138.85 32.13 0.22 0.12 0.97 0.52
-14.05 127.05 34.37 0.06 -0.67 0.74 -2.15
-12.89 141.04 23.04 -0.66 0.63 0.39 -0.04
-13.47 124.72 30.67 -0.70 -0.55 0.47 0.05
-9.72 126.05 21.22 -0.44 -0.43 -0.79 -0.32
-14.32 126.15 31.77 -0.23 -0.84 0.49 0.05
-16.61 142.06 28.75 -0.04 0.91 -0.41 0.62
-12.87 128.15 18.34 0.30 -0.92 -0.26 0.83
-15.08 141.29 29.65 0.21 0.94 -0.29 0.18
3 159 188 139
3 158 132 162
3 132 158 106
3 143 191 147
3 143 147 105
3 139 143 105
3 139 105 95
3 102 105 147
3 105 73 95
3 100 167 75
3 75 167 117
3 96 126 93
3 126 153 93
3 91 97 119
3 97 61 90
3 87 149 86
3 71 86 106
3 86 71 55
3 87 86 55
3 36 71 62
3 71 106 95
3 95 106 139
3 72 40 73
3 46 40 72
3 46 32 40
3 96 60 75
3 96 93 60
3 60 93 68
3 68 93 94
3 50 31 60
3 50 47 31
3 47 50 77
3 113 178 174
3 134 161 193
3 161 134 113
3 113 134 77
3 77 134 99
3 196 181 156
3 156 148 196
3 146 114 181
3 156 181 114
3 114 104 156
3 173 140 146
3 97 146 140
3 140 137 97
3 192 140 173
3 137 140 183
3 114 90 84
3 114 84 70
3 16 39 33
3 56 33 39
3 33 36 16
3 19 16 36
3 36 54 19
3 21 11 19
3 5 19 11
3 52 32 46
3 31 26 14
3 14 26 12
3 14 12 1
3 120 99 138
3 63 77 99
3 99 134 138
3 135 166 182
3 148 104 98
3 148 98 103
3 98 104 64
3 104 70 64
3 59 38 64
3 38 39 22
3 1 2 0
3 5 0 4
3 2 6 0
3 0 6 4
3 17 6 28
3 25 34 53
3 34 63 57
3 34 57 53
3 57 74 53
3 25 58 35
3 127 108 89
3 58 74 101
3 133 123 107
3 116 155 150
3 116 110 79
3 116 79 123
3 123 79 107
3 107 79 80
3 103 76 79
3 76 103 98
3 98 66 76
3 42 44 66
3 79 44 45
3 44 20 24
3 20 22 15
3 4 15 5
3 15 4 13
3 13 24 15
3 20 15 24
3 17 10 6
3 23 29 45
3 41 17 28
3 48 41 28
3 81 89 122
3 122 89 108
3 122 108 157
3 108 127 157
3 157 127 179
3 127 124 172
3 45 69 92
3 45 41 69
3 41 48 69
3 48 51 82
3 48 82 78
3 144 115 177
3 164 122 186
3 144 175 131
3 145 131 180
3 170 111 118
3 111 133 92
3 111 78 118
3 145 118 82
3 23 45 44
3 23 44 24
3 160 125 153
3 129 149 162
3 106 158 159
3 106 159 139
3 86 149 129
3 106 86 132
3 132 86 129
3 132 129 162
3 102 73 105
3 130 94 125
3 153 125 93
3 93 125 94
3 130 125 160
3 55 36 33
3 36 55 71
3 54 36 62
3 54 73 40
3 60 68 50
3 75 60 52
3 32 52 27
3 30 27 60
3 30 60 31
3 60 27 52
3 161 113 174
3 104 148 156
3 90 114 146
3 97 90 146
3 61 84 90
3 55 33 61
3 55 61 91
3 61 33 56
3 5 16 19
3 11 9 3
3 8 1 3
3 8 3 9
3 14 8 30
3 31 14 30
3 27 9 32
3 9 27 30
3 9 30 8
3 1 8 14
3 85 74 57
3 85 99 120
3 99 85 63
3 63 85 57
3 135 120 166
3 150 155 194
3 84 56 70
3 56 84 61
3 16 22 39
3 15 22 16
3 15 16 5
3 0 5 3
3 0 3 1
3 3 5 11
3 10 4 6
3 37 18 65
3 65 18 35
3 6 18 28
3 37 28 18
3 25 35 18
3 43 34 26
3 26 34 12
3 12 34 25
3 12 25 7
3 7 25 18
3 81 58 89
3 112 124 88
3 124 89 88
3 112 88 101
3 124 112 151
3 151 112 136
3 136 112 101
3 101 88 58
3 58 88 89
3 127 89 124
3 128 101 85
3 135 128 85
3 135 85 120
3 85 101 74
3 101 128 136
3 136 128 135
3 176 123 133
3 116 123 155
3 44 76 66
3 76 44 79
3 24 13 23
3 29 23 13
3 29 13 10
3 29 10 17
3 4 10 13
3 45 29 41
3 41 29 17
3 51 48 28
3 65 67 49
3 51 67 65
3 37 65 49
3 28 37 49
3 28 49 51
3 51 49 67
3 121 82 83
3 115 82 121
3 81 121 83
3 81 83 65
3 65 83 51
3 82 51 83
3 122 121 81
3 172 124 185
3 187 185 151
3 151 185 124
3 176 133 189
3 131 145 82
3 115 144 82
3 82 144 131
3 198 144 190
3 131 175 180
3 82 118 78
3 102 147 168
3 168 167 100
3 141 126 96
3 141 96 117
3 141 117 167
3 75 117 96
3 154 126 141
3 154 141 167
3 154 167 197
3 197 153 154
3 153 126 154
3 152 149 109
3 87 109 149
3 109 165 152
3 165 109 119
3 119 109 87
3 119 87 91
3 97 91 61
3 95 73 54
3 100 102 168
3 72 100 75
3 72 75 46
3 72 73 102
3 72 102 100
3 68 113 77
3 68 77 50
3 178 113 130
3 193 171 134
3 146 181 192
3 146 192 173
3 137 165 119
3 137 119 97
3 137 183 165
3 87 55 91
3 40 19 54
3 19 40 21
3 11 21 9
3 9 21 32
3 32 21 40
3 75 52 46
3 47 26 31
3 47 77 63
3 171 169 134
3 169 138 134
3 169 120 138
3 120 169 166
3 104 114 70
3 59 70 39
3 39 70 56
3 39 38 59
3 6 2 7
3 7 2 12
3 7 18 6
3 2 1 12
3 43 47 63
3 63 34 43
3 43 26 47
3 53 74 58
3 25 53 58
3 110 142 103
3 142 148 103
3 103 79 110
3 110 116 150
3 110 150 142
3 142 150 196
3 142 196 148
3 66 64 42
3 64 66 98
3 38 22 42
3 38 42 64
3 70 59 64
3 42 20 44
3 22 20 42
3 35 58 81
3 35 81 65
3 184 151 136
3 182 184 136
3 182 136 135
3 107 80 92
3 107 92 133
3 79 45 80
3 92 80 45
3 122 164 121
3 115 121 164
3 115 164 177
3 190 144 177
3 157 186 122
3 133 111 170
3 69 78 92
3 78 69 48
3 92 78 111
3 180 195 145
3 163 170 118
3 118 145 163
3 95 54 62
3 95 62 71
3 113 68 94
3 113 94 130
