ply
format ascii 1.0
comment Generated by MaSIF
element vertex 200
property float x
property float y
property float z
property float nx
property float ny
property float nz
property float charge
element face 336
property list uchar int vertex_indices
end_header
-14.11 131.01 27.31 -0.82 -0.19 -0.55 0.02
-13.33 130.30 26.92 -0.88 -0.23 -0.41 0.00
-14.14 132.32 27.08 -0.99 -0.09 -0.06 0.02
-13.82 129.74 27.68 -0.59 0.02 -0.81 -0.25
-15.07 130.89 28.20 -0.45 0.32 -0.83 -0.02
-14.62 132.15 28.58 -0.82 0.11 -0.56 -0.26
-13.43 131.11 25.56 -0.83 -0.47 -0.30 -0.04
-13.05 129.90 25.89 -0.96 0.03 -0.28 0.07
-14.15 133.24 26.54 -0.99 0.12 0.12 -0.10
-14.42 132.10 26.02 -0.97 -0.23 0.00 -0.02
-15.53 130.01 27.95 -0.23 0.25 -0.94 0.08
-16.01 130.88 28.67 -0.43 0.61 -0.67 0.02
-14.05 133.28 27.71 -0.93 0.01 -0.36 0.15
-14.10 128.79 27.54 -0.47 0.45 -0.76 0.06
-14.76 129.34 27.81 -0.18 0.16 -0.97 0.10
-13.46 128.76 26.87 -0.82 0.44 -0.37 0.37
-15.64 132.10 29.73 -0.83 0.44 -0.35 -0.74
-14.92 133.64 28.63 -0.62 -0.35 -0.70 0.56
-12.54 129.34 25.03 -0.81 0.10 -0.58 0.22
-13.06 131.98 24.35 -0.77 -0.53 -0.37 -0.53
-14.14 132.39 24.98 -0.79 -0.41 -0.46 -0.12
-15.59 133.21 29.63 -0.89 -0.40 -0.24 0.14
-17.07 130.73 29.22 -0.74 0.52 -0.43 0.03
-13.94 134.28 27.26 -0.98 -0.05 -0.18 -0.07
-14.46 134.35 27.99 -0.67 -0.22 -0.71 0.49
-16.87 129.46 28.27 -0.59 0.20 -0.78 0.06
-14.21 133.93 25.12 -0.98 -0.20 -0.01 -0.38
-13.67 128.44 25.82 -0.71 0.63 -0.30 1.03
-15.51 128.00 27.87 -0.51 -0.00 -0.86 0.12
-14.06 134.74 25.88 -0.93 -0.18 0.32 -0.38
-14.83 127.71 26.64 -0.83 0.41 -0.38 0.43
-16.97 131.24 30.45 -0.70 0.69 0.17 -0.02
-15.47 132.09 31.19 -0.84 0.38 0.37 -1.28
-16.02 134.05 28.72 -0.60 -0.46 -0.66 0.14
-13.36 132.74 23.52 -0.87 -0.49 -0.08 -1.08
-12.81 131.85 23.30 -0.89 -0.42 0.17 -1.44
-15.45 133.30 30.96 -0.94 -0.19 0.28 -0.17
-17.56 130.17 30.42 -0.94 0.27 0.19 0.01
-13.20 128.23 24.69 -0.68 0.62 -0.39 1.26
-12.12 130.90 24.28 -0.82 -0.48 -0.32 -0.36
-11.73 130.13 24.12 -0.93 0.02 -0.37 -0.06
-12.45 128.61 23.85 -0.78 0.57 -0.24 0.77
-17.70 129.22 29.76 -1.00 -0.02 -0.01 0.02
-17.38 128.19 28.88 -0.81 -0.37 -0.45 -0.01
-14.95 134.81 24.65 -0.81 -0.48 0.34 0.16
-14.43 135.87 27.67 -0.61 -0.41 -0.68 0.34
-14.61 127.45 25.02 -0.80 0.40 -0.45 0.59
-14.13 136.03 26.79 -0.91 -0.41 -0.06 -0.06
-16.67 134.89 29.62 -0.79 -0.59 -0.19 0.34
-16.11 130.89 31.49 -0.64 0.46 0.61 -0.01
-16.57 127.22 29.04 -0.78 -0.36 -0.51 -0.39
-14.85 136.07 25.77 -0.83 -0.43 0.36 0.17
-15.83 135.62 28.34 -0.44 -0.33 -0.84 0.81
-16.37 134.94 31.06 -0.80 -0.51 0.32 0.41
-15.59 126.08 28.38 -0.79 -0.39 -0.47 -0.61
-15.09 125.83 27.04 -0.92 -0.19 -0.35 0.33
-14.16 134.11 23.14 -0.83 -0.51 -0.22 -1.13
-14.99 132.56 32.36 -0.95 0.20 0.23 -0.14
-11.70 129.30 23.77 -0.91 0.42 -0.04 0.12
-16.79 129.83 31.63 -0.75 0.29 0.59 0.01
-15.24 131.13 32.42 -0.92 0.31 0.23 0.46
-14.49 125.59 25.76 -0.84 -0.38 -0.39 0.97
-15.75 134.63 31.81 -0.77 -0.46 0.44 0.24
-11.98 129.84 22.77 -0.93 -0.19 0.30 -0.14
-13.79 126.71 24.00 -0.84 -0.05 -0.54 0.53
-14.20 133.78 22.14 -0.99 -0.12 -0.12 -1.19
-15.61 135.13 23.49 -0.90 -0.38 -0.20 0.05
-13.20 127.51 22.61 -0.99 -0.05 -0.13 0.22
-12.05 128.80 22.35 -0.84 0.31 0.45 0.17
-15.12 134.41 32.66 -0.68 -0.14 0.72 0.07
-13.71 132.55 21.51 -0.99 -0.14 -0.04 -2.65
-17.06 127.81 30.47 -0.92 -0.38 0.06 -0.02
-16.77 136.07 28.36 -0.44 -0.46 -0.77 0.83
-15.54 136.32 24.24 -1.00 0.07 0.02 0.33
-16.80 126.21 29.85 -0.94 -0.31 -0.16 -1.41
-15.42 137.23 25.26 -1.00 0.03 -0.08 0.68
-16.05 136.74 27.90 -0.37 -0.44 -0.82 1.40
-16.03 129.77 32.40 -0.74 0.43 0.51 -0.10
-14.71 124.63 27.66 -0.69 -0.71 -0.13 0.02
-17.24 136.05 30.87 -0.81 -0.43 0.40 0.73
-15.99 125.11 29.41 -0.53 -0.80 -0.30 -0.89
-13.31 130.37 21.42 -0.69 -0.11 0.71 -1.06
-13.85 135.10 22.01 -0.87 0.02 -0.49 -1.22
-17.88 136.19 29.37 -0.90 -0.38 -0.20 0.48
-15.52 137.43 26.97 -0.77 -0.48 -0.43 0.52
-14.17 133.66 33.36 -0.48 0.52 0.71 -0.06
-14.99 124.82 29.45 -0.45 -0.85 -0.27 -0.62
-14.66 133.06 33.85 -0.68 0.71 0.18 0.03
-14.39 124.71 28.65 -0.47 -0.88 -0.08 -0.14
-15.56 130.02 33.31 -0.91 0.31 0.27 0.32
-15.34 132.00 33.82 -0.96 0.27 0.02 0.08
-13.68 125.31 24.66 -0.73 -0.54 -0.43 0.53
-17.00 128.04 32.01 -0.87 -0.27 0.43 -0.06
-13.70 134.34 21.10 -0.88 0.16 -0.45 -1.76
-16.19 136.15 32.62 -0.54 -0.22 0.81 0.21
-14.91 135.92 22.58 -0.76 0.02 -0.65 0.12
-13.66 124.38 26.75 -0.52 -0.85 -0.13 0.39
-15.27 138.23 25.69 -0.75 0.52 -0.41 0.66
-15.36 130.40 34.23 -0.97 0.03 0.22 0.23
-13.94 127.59 21.78 -0.33 -0.38 0.87 0.20
-16.21 128.44 33.07 -0.87 -0.07 0.49 -0.34
-12.89 125.31 23.51 -0.72 -0.44 -0.53 0.16
-16.17 125.24 30.80 -0.61 -0.68 0.41 -1.22
-13.18 132.67 20.07 -0.93 0.36 -0.11 -0.83
-17.23 137.48 28.20 -0.72 -0.32 -0.61 1.09
-13.98 131.64 20.58 -0.72 0.57 0.38 -0.36
-12.01 127.37 21.02 -0.21 -0.86 -0.47 0.22
-16.26 126.55 31.52 -0.73 -0.48 0.49 -0.58
-14.02 135.95 32.50 -0.17 0.15 0.97 0.32
-14.68 138.02 24.01 -0.81 0.49 -0.32 0.02
-14.84 124.81 30.65 -0.33 -0.86 0.40 -0.84
-14.43 132.93 35.05 -0.40 0.73 0.56 -0.00
-17.76 137.45 30.80 -0.90 -0.17 0.40 1.03
-13.00 135.74 21.07 -0.90 -0.05 -0.43 -1.15
-13.89 124.16 29.61 -0.48 -0.88 -0.02 -0.05
-17.97 137.75 29.30 -0.98 -0.07 -0.19 0.65
-13.67 128.97 21.23 -0.33 0.32 0.89 0.30
-16.87 137.31 32.01 -0.55 -0.08 0.83 0.73
-15.13 131.97 35.19 -0.82 0.37 0.43 0.00
-14.59 129.90 20.99 -0.14 0.32 0.94 0.87
-13.45 127.23 20.48 0.15 -0.98 0.15 0.52
-15.49 139.13 26.46 -0.16 0.28 -0.95 0.55
-13.13 134.25 20.04 -0.98 0.14 -0.16 -0.70
-12.75 133.82 33.92 -0.46 0.60 0.66 -0.74
-14.58 138.92 26.23 -0.25 0.77 -0.59 0.45
-11.67 125.55 22.27 -0.49 -0.45 -0.75 0.21
-16.82 138.59 27.04 -0.48 -0.29 -0.83 1.13
-13.26 135.06 32.95 -0.40 0.33 0.85 0.03
-14.78 131.20 20.37 -0.32 0.70 0.64 0.13
-12.60 123.96 27.65 -0.66 -0.75 0.07 0.06
-13.17 132.89 19.05 -0.92 0.13 0.36 -0.08
-13.96 137.02 22.03 -0.93 -0.08 -0.36 -0.74
-15.10 130.83 35.67 -0.62 -0.20 0.76 -0.07
-14.54 137.17 32.60 -0.02 0.28 0.96 0.31
-15.71 127.91 34.28 -0.87 -0.10 0.49 -0.97
-15.45 127.10 32.80 -0.62 -0.63 0.46 -0.40
-14.39 129.41 35.18 -0.40 -0.23 0.89 -0.21
-12.21 123.96 24.40 -0.67 -0.68 -0.30 0.17
-13.69 132.03 19.06 -0.79 0.59 0.19 -0.13
-11.93 124.12 23.25 -0.65 -0.60 -0.47 -0.29
-14.55 131.62 19.25 -0.43 0.90 -0.04 0.06
-12.14 123.45 26.54 -0.73 -0.67 -0.12 -0.22
-13.88 124.83 31.44 -0.70 -0.46 0.54 0.05
-12.44 133.16 35.13 -0.07 0.76 0.65 -0.13
-10.91 127.70 20.12 -0.10 -0.97 -0.23 0.54
-13.13 132.69 35.73 0.14 0.46 0.88 -0.06
-15.38 128.75 21.46 0.06 0.17 0.98 1.85
-15.64 127.15 21.14 -0.05 -0.79 0.61 0.97
-13.34 123.81 30.55 -0.70 -0.70 -0.12 0.87
-12.18 123.72 28.91 -0.56 -0.82 -0.14 0.09
-13.41 138.90 24.48 -0.61 0.77 -0.18 -0.28
-10.70 126.69 21.24 -0.42 -0.54 -0.73 0.32
-15.68 137.99 32.29 0.05 0.25 0.97 1.01
-14.86 126.84 33.85 -0.43 -0.83 0.36 -0.99
-17.77 139.26 27.61 -0.88 -0.19 -0.43 -0.00
-12.66 135.28 19.80 -0.98 0.08 0.17 -0.25
-13.34 136.78 20.31 -0.89 -0.44 -0.11 -0.44
-14.63 126.41 32.42 -0.25 -0.78 0.58 0.05
-12.55 135.72 33.20 -0.62 0.15 0.77 0.71
-14.55 139.85 27.12 0.08 0.59 -0.80 0.46
-16.14 140.14 26.55 -0.07 0.09 -0.99 0.76
-12.78 137.17 32.63 -0.51 0.39 0.77 0.23
-16.76 138.69 32.37 -0.36 -0.00 0.93 1.66
-13.47 134.24 18.99 -0.83 -0.02 0.56 0.13
-11.63 134.46 34.31 -0.17 0.06 0.98 -0.19
-13.88 125.91 31.92 -0.37 -0.53 0.76 0.08
-13.49 139.60 26.54 -0.62 0.57 -0.54 0.40
-14.64 126.50 19.98 0.17 -0.96 0.21 1.17
-13.56 131.49 36.12 -0.07 0.15 0.99 -0.06
-10.35 125.05 21.81 -0.48 -0.48 -0.73 -0.32
-13.49 127.00 18.81 0.25 -0.95 -0.17 0.83
-15.17 128.64 35.01 -0.60 0.04 0.80 -0.91
-13.96 138.63 22.31 -0.91 0.38 0.19 -0.09
-13.89 133.20 18.15 -0.89 -0.15 0.44 -0.02
-13.12 136.01 19.30 -0.89 -0.21 0.40 -0.06
-14.15 137.76 21.05 -0.95 -0.31 -0.02 -0.21
-16.32 130.88 20.47 -0.24 0.84 0.48 1.21
-13.32 130.13 35.73 0.04 -0.25 0.97 -0.03
-17.41 140.26 27.05 -0.67 0.02 -0.74 0.53
-14.24 127.55 34.90 0.05 -0.59 0.80 -2.15
-11.47 123.11 25.17 -0.67 -0.71 -0.24 -0.02
-18.03 139.68 30.96 -0.94 -0.12 0.31 0.49
-11.95 127.31 19.09 0.25 -0.97 0.01 0.25
-16.59 129.41 21.39 -0.22 0.32 0.92 3.12
-13.32 137.96 31.94 -0.16 0.48 0.86 -0.06
-12.91 125.15 32.27 -0.64 -0.00 0.77 0.19
-10.56 123.65 22.63 -0.18 -0.72 -0.67 0.22
-11.02 122.99 23.77 -0.40 -0.79 -0.47 0.16
-11.62 122.29 27.14 -0.82 -0.57 -0.06 -1.06
-9.88 126.02 20.87 -0.52 -0.42 -0.74 -0.91
-16.64 127.95 21.73 -0.09 -0.13 0.99 1.14
-15.16 141.31 27.48 0.42 0.67 -0.61 0.59
-11.90 123.17 29.91 -0.72 -0.60 -0.35 0.61
-10.70 127.76 18.82 0.15 -0.99 -0.01 0.05
-14.44 131.39 17.55 -0.72 0.67 -0.18 0.06
-15.77 126.59 19.74 -0.27 -0.96 0.10 1.68
-16.80 141.21 26.77 -0.29 0.55 -0.79 0.66
-13.31 123.89 32.36 -0.93 0.01 0.38 0.31
-12.71 128.28 34.74 0.23 -0.60 0.77 -0.32
-16.19 130.88 19.12 -0.36 0.85 -0.39 1.19
3 161 184 133
3 158 127 164
3 127 158 108
3 152 162 117
3 133 152 117
3 133 117 94
3 112 117 162
3 117 79 94
3 126 160 121
3 160 191 121
3 198 136 179
3 90 98 118
3 98 60 89
3 87 143 85
3 69 85 108
3 85 69 57
3 87 85 57
3 36 69 62
3 69 108 94
3 94 108 133
3 83 48 79
3 72 48 83
3 72 52 48
3 126 84 104
3 126 121 84
3 84 121 97
3 97 121 124
3 75 51 84
3 75 73 51
3 73 75 109
3 150 172 109
3 109 172 131
3 157 153 135
3 135 107 157
3 134 100 153
3 135 153 100
3 100 92 135
3 171 136 134
3 98 134 136
3 136 132 98
3 179 136 171
3 132 136 177
3 100 89 77
3 100 77 59
3 16 31 32
3 49 32 31
3 32 36 16
3 21 16 36
3 36 53 21
3 33 17 21
3 5 21 17
3 76 52 72
3 51 44 29
3 29 44 26
3 29 26 8
3 156 131 175
3 95 109 131
3 131 172 175
3 149 148 114
3 148 197 142
3 197 185 142
3 142 185 165
3 107 92 71
3 107 71 74
3 71 92 42
3 92 59 42
3 37 22 42
3 22 31 11
3 8 9 2
3 5 2 0
3 9 6 2
3 2 6 0
3 7 6 18
3 34 56 65
3 56 95 82
3 56 82 65
3 82 93 65
3 34 70 35
3 140 128 105
3 70 93 122
3 96 88 78
3 86 114 110
3 86 80 54
3 86 54 88
3 88 54 78
3 78 54 55
3 74 50 54
3 50 74 71
3 71 43 50
3 25 28 43
3 54 28 30
3 28 10 14
3 10 11 4
3 0 4 5
3 4 0 3
3 3 14 4
3 10 4 14
3 7 1 6
3 13 15 30
3 27 7 18
3 38 27 18
3 81 105 119
3 119 105 128
3 119 128 176
3 128 140 176
3 176 140 199
3 140 138 194
3 180 141 96
3 30 46 61
3 30 27 46
3 27 38 46
3 38 41 67
3 38 67 64
3 120 99 147
3 147 146 190
3 190 146 183
3 146 119 183
3 120 144 106
3 125 106 151
3 151 189 169
3 187 180 139
3 180 96 137
3 137 91 101
3 91 96 61
3 91 64 101
3 125 101 67
3 13 30 28
3 13 28 14
3 123 143 164
3 108 158 161
3 108 161 133
3 85 143 123
3 108 85 127
3 127 85 123
3 127 123 164
3 112 79 117
3 166 124 159
3 191 159 121
3 121 159 124
3 57 36 32
3 36 57 69
3 53 36 62
3 53 79 48
3 84 97 75
3 104 84 76
3 52 76 45
3 47 45 84
3 47 84 51
3 84 45 76
3 92 107 135
3 89 100 134
3 98 89 134
3 60 77 89
3 57 32 60
3 57 60 90
3 60 32 49
3 5 16 21
3 17 24 12
3 23 8 12
3 23 12 24
3 29 23 47
3 51 29 47
3 45 24 52
3 24 45 47
3 24 47 23
3 8 23 29
3 113 93 82
3 113 131 156
3 131 113 95
3 95 113 82
3 149 192 148
3 110 114 142
3 142 114 148
3 157 110 165
3 165 110 142
3 77 49 59
3 49 77 60
3 16 11 31
3 4 11 16
3 4 16 5
3 2 5 12
3 2 12 8
3 12 5 17
3 1 0 6
3 39 19 63
3 63 19 35
3 6 19 18
3 39 18 19
3 34 35 19
3 66 56 44
3 44 56 26
3 26 56 34
3 26 34 20
3 20 34 19
3 81 70 105
3 130 138 103
3 138 105 103
3 130 103 122
3 138 130 173
3 173 130 163
3 163 130 122
3 122 103 70
3 70 103 105
3 140 105 138
3 155 122 113
3 174 155 113
3 174 113 156
3 113 122 93
3 122 155 163
3 163 155 174
3 129 88 96
3 88 129 149
3 86 88 114
3 28 50 43
3 50 28 54
3 14 3 13
3 15 13 3
3 15 3 1
3 15 1 7
3 0 1 3
3 30 15 27
3 27 15 7
3 41 38 18
3 63 58 40
3 41 58 63
3 39 63 40
3 18 39 40
3 18 40 41
3 41 40 58
3 116 67 68
3 99 67 116
3 81 116 68
3 81 68 63
3 63 68 41
3 67 41 68
3 119 116 81
3 182 193 144
3 129 96 141
3 106 125 67
3 99 120 67
3 67 120 106
3 170 182 120
3 170 120 167
3 106 144 151
3 137 139 180
3 67 101 64
3 112 162 181
3 178 160 126
3 178 126 154
3 104 154 126
3 196 160 178
3 191 160 196
3 145 143 111
3 87 111 143
3 111 168 145
3 168 111 118
3 118 111 87
3 118 87 90
3 98 90 60
3 94 79 53
3 115 112 181
3 83 115 104
3 83 104 72
3 83 79 112
3 83 112 115
3 97 150 109
3 97 109 75
3 134 153 179
3 134 179 171
3 132 168 118
3 132 118 98
3 132 177 168
3 87 57 90
3 48 21 53
3 21 48 33
3 17 33 24
3 24 33 52
3 52 33 48
3 104 76 72
3 73 44 51
3 73 109 95
3 92 100 59
3 37 59 31
3 31 59 49
3 31 22 37
3 6 9 20
3 20 9 26
3 20 19 6
3 9 8 26
3 66 73 95
3 95 56 66
3 66 44 73
3 65 93 70
3 34 65 70
3 80 102 74
3 102 107 74
3 74 54 80
3 80 86 110
3 80 110 102
3 102 110 157
3 102 157 107
3 43 42 25
3 42 43 71
3 22 11 25
3 22 25 42
3 59 37 42
3 25 10 28
3 11 10 25
3 35 70 81
3 35 81 63
3 188 129 141
3 78 55 61
3 78 61 96
3 54 30 55
3 61 55 30
3 119 146 116
3 99 116 146
3 99 146 147
3 167 120 147
3 176 183 119
3 195 167 147
3 182 144 120
3 96 91 137
3 46 64 61
3 64 46 38
3 61 64 91
3 151 169 125
3 187 139 186
3 186 139 125
3 139 137 101
3 101 125 139
3 94 53 62
3 94 62 69
3 150 97 124
3 150 124 166
3 114 88 149
