ply
format ascii 1.0
comment Generated by MaSIF
element vertex 200
property float x
property float y
property float z
property float nx
property float ny
property float nz
property float pb
element face 0
property list uchar int vertex_indices
end_header
-13.29 133.39 27.44 -0.95 0.11 -0.29 0.15
-13.09 134.35 26.94 -0.99 0.06 -0.11 -0.07
-13.54 132.43 26.86 -1.00 0.03 0.01 0.02
-13.55 134.50 27.69 -0.74 -0.17 -0.65 0.49
-13.48 133.31 26.28 -0.95 0.24 0.18 -0.10
-14.04 133.88 28.39 -0.70 -0.31 -0.64 0.56
-13.92 132.36 28.39 -0.84 0.19 -0.50 -0.26
-13.91 132.19 25.84 -0.99 -0.11 0.08 -0.02
-13.64 131.13 27.14 -0.87 -0.11 -0.48 0.02
-14.68 133.57 29.46 -0.94 -0.30 -0.16 0.14
-15.08 134.42 28.54 -0.69 -0.41 -0.59 0.14
-13.26 134.76 25.55 -0.92 -0.06 0.39 -0.38
-13.37 136.00 27.30 -0.70 -0.36 -0.61 0.34
-13.56 133.96 24.84 -0.99 -0.08 0.06 -0.38
-14.54 131.15 28.10 -0.47 0.34 -0.82 -0.02
-13.12 136.09 26.41 -0.95 -0.30 0.02 -0.06
-14.86 132.48 29.61 -0.79 0.52 -0.31 -0.74
-13.08 131.08 25.35 -0.90 -0.38 -0.22 -0.04
-14.74 135.94 28.08 -0.53 -0.30 -0.79 0.81
-13.68 132.42 24.76 -0.86 -0.33 -0.39 -0.12
-12.98 130.31 26.73 -0.93 -0.14 -0.34 0.00
-14.44 133.69 30.77 -0.93 -0.07 0.35 -0.17
-13.47 129.85 27.55 -0.64 0.06 -0.76 -0.25
-15.57 135.36 29.45 -0.86 -0.50 -0.11 0.34
-15.12 130.32 27.92 -0.27 0.24 -0.93 0.08
-15.44 131.27 28.63 -0.40 0.63 -0.66 0.02
-14.23 134.89 24.38 -0.83 -0.37 0.41 0.16
-15.61 136.50 28.14 -0.54 -0.44 -0.72 0.83
-13.90 136.18 25.43 -0.84 -0.32 0.44 0.17
-14.59 132.50 31.06 -0.77 0.50 0.41 -1.28
-14.86 137.06 27.61 -0.48 -0.43 -0.77 1.40
-12.81 129.85 25.71 -0.97 0.13 -0.22 0.07
-14.44 129.57 27.76 -0.23 0.15 -0.96 0.10
-12.70 131.85 24.08 -0.85 -0.45 -0.29 -0.53
-13.64 134.05 22.85 -0.90 -0.42 -0.14 -1.13
-16.23 131.81 30.46 -0.61 0.77 0.19 -0.02
-15.16 135.43 30.85 -0.83 -0.40 0.39 0.41
-14.33 137.65 26.61 -0.85 -0.40 -0.35 0.52
-12.97 132.62 23.24 -0.92 -0.39 0.00 -1.08
-13.87 128.93 27.47 -0.47 0.48 -0.74 0.06
-16.47 131.27 29.26 -0.71 0.59 -0.40 0.03
-12.44 129.20 24.84 -0.83 0.17 -0.53 0.22
-13.29 128.80 26.76 -0.79 0.52 -0.33 0.37
-14.52 135.08 31.57 -0.79 -0.35 0.51 0.24
-16.48 129.95 28.35 -0.62 0.24 -0.75 0.06
-14.92 135.25 23.25 -0.95 -0.27 -0.12 0.05
-13.97 132.95 32.16 -0.91 0.32 0.28 -0.14
-14.37 137.38 24.91 -0.99 0.14 -0.02 0.68
-16.63 136.78 29.22 -0.95 -0.28 -0.12 0.48
-15.90 136.63 30.68 -0.82 -0.31 0.47 0.73
-15.92 137.95 27.95 -0.80 -0.26 -0.55 1.09
-14.66 136.45 23.94 -0.98 0.19 0.09 0.33
-13.87 134.82 32.39 -0.64 -0.04 0.77 0.07
-15.34 131.40 31.45 -0.54 0.56 0.63 -0.01
-12.54 131.66 23.02 -0.92 -0.30 0.25 -1.44
-13.78 133.69 21.88 -1.00 -0.01 -0.04 -1.19
-16.93 130.81 30.51 -0.89 0.38 0.24 0.01
-14.38 131.57 32.31 -0.86 0.42 0.28 0.46
-15.33 128.33 27.93 -0.56 0.02 -0.83 0.12
-11.89 130.67 24.00 -0.89 -0.39 -0.24 -0.36
-13.29 134.96 21.66 -0.90 0.11 -0.43 -1.22
-13.60 128.47 25.75 -0.66 0.70 -0.28 1.03
-14.08 138.37 25.29 -0.71 0.59 -0.38 0.66
-14.13 139.32 26.02 -0.19 0.26 -0.95 0.55
-16.12 130.43 31.68 -0.67 0.40 0.62 0.01
-14.78 127.91 26.67 -0.80 0.49 -0.34 0.43
-15.48 138.96 26.71 -0.57 -0.26 -0.78 1.13
-14.21 135.92 22.26 -0.80 0.08 -0.60 0.12
-17.23 129.87 29.91 -0.99 0.10 0.05 0.02
-14.73 136.67 32.35 -0.50 -0.12 0.86 0.21
-13.24 128.16 24.60 -0.63 0.68 -0.37 1.26
-17.09 128.77 29.05 -0.88 -0.29 -0.37 -0.01
-11.61 129.85 23.85 -0.95 0.12 -0.30 -0.06
-12.52 128.42 23.69 -0.73 0.65 -0.22 0.77
-16.54 138.34 29.08 -0.99 0.04 -0.12 0.65
-12.96 133.99 33.06 -0.37 0.60 0.71 -0.06
-13.48 132.39 21.26 -1.00 -0.03 0.03 -2.65
-16.26 138.08 30.58 -0.88 -0.05 0.47 1.03
-13.48 133.47 33.61 -0.58 0.79 0.20 0.03
-13.30 134.16 20.78 -0.88 0.25 -0.39 -1.76
-13.63 138.02 23.57 -0.77 0.57 -0.29 0.02
-14.28 132.50 33.68 -0.92 0.38 0.07 0.08
-15.31 137.88 31.73 -0.50 0.02 0.87 0.73
-15.32 130.31 32.40 -0.65 0.53 0.54 -0.10
-13.27 138.99 25.74 -0.20 0.77 -0.60 0.45
-14.76 130.54 33.26 -0.85 0.43 0.32 0.32
-12.61 136.21 32.09 -0.08 0.21 0.97 0.32
-16.39 127.72 29.21 -0.85 -0.28 -0.44 -0.39
-16.29 139.75 27.32 -0.93 -0.11 -0.36 -0.00
-12.45 135.45 20.64 -0.93 0.04 -0.36 -1.15
-11.99 129.54 22.53 -0.93 -0.07 0.37 -0.14
-13.07 139.94 26.59 0.09 0.55 -0.83 0.46
-14.66 140.40 26.11 -0.13 0.06 -0.99 0.76
-11.70 129.01 23.54 -0.85 0.52 0.00 0.12
-14.71 127.57 25.06 -0.78 0.47 -0.41 0.59
-15.59 126.45 28.53 -0.86 -0.31 -0.40 -0.61
-14.45 130.93 34.16 -0.95 0.15 0.29 0.23
-13.19 133.36 34.80 -0.27 0.79 0.55 -0.00
-16.51 128.69 32.15 -0.86 -0.15 0.49 -0.06
-16.70 128.42 30.64 -0.95 -0.26 0.14 -0.02
-13.18 136.88 21.60 -0.95 0.02 -0.30 -0.74
-14.06 126.70 24.02 -0.88 0.03 -0.48 0.53
-15.87 140.69 26.69 -0.72 0.07 -0.69 0.53
-12.82 133.96 19.69 -0.96 0.25 -0.10 -0.70
-15.23 126.09 27.18 -0.96 -0.10 -0.28 0.33
-14.04 138.43 31.90 0.14 0.28 0.95 1.01
-13.97 132.49 35.02 -0.74 0.48 0.47 0.00
-13.34 130.18 21.26 -0.65 0.00 0.76 -1.06
-12.97 137.49 32.17 0.08 0.32 0.94 0.31
-13.47 127.37 22.56 -1.00 0.06 -0.06 0.22
-12.21 128.50 22.16 -0.76 0.43 0.49 0.17
-13.04 132.39 19.79 -0.88 0.46 -0.06 -0.83
-11.49 134.00 33.52 -0.34 0.67 0.66 -0.74
-13.92 131.48 20.40 -0.62 0.67 0.40 -0.36
-15.60 129.04 33.15 -0.84 0.05 0.55 -0.34
-15.02 139.25 32.02 -0.29 0.07 0.95 1.66
-12.24 138.77 23.92 -0.53 0.83 -0.18 -0.28
-14.75 125.74 25.87 -0.90 -0.30 -0.32 0.97
-13.49 141.47 26.91 0.45 0.59 -0.67 0.59
-12.10 139.54 25.95 -0.59 0.62 -0.52 0.40
-11.92 135.25 32.53 -0.30 0.41 0.86 0.03
-15.17 141.55 26.33 -0.28 0.55 -0.79 0.66
-16.67 126.77 30.08 -0.97 -0.21 -0.08 -1.41
-12.53 140.96 27.32 -0.06 0.70 -0.71 0.33
-12.71 136.50 19.85 -0.94 -0.34 -0.03 -0.44
-12.98 138.48 21.80 -0.84 0.49 0.23 -0.09
-12.25 134.91 19.37 -0.95 0.20 0.23 -0.25
-16.03 125.57 29.63 -0.64 -0.74 -0.22 -0.89
-11.13 135.83 32.69 -0.55 0.25 0.80 0.71
-16.16 141.62 28.35 -0.91 0.33 -0.27 0.24
-16.26 140.33 30.65 -0.93 0.01 0.38 0.49
-11.23 137.28 32.08 -0.40 0.47 0.78 0.23
-14.04 131.38 35.55 -0.58 -0.09 0.81 -0.07
-13.54 129.86 35.08 -0.36 -0.15 0.92 -0.21
-11.18 133.35 34.74 0.06 0.78 0.62 -0.13
-15.07 125.17 29.62 -0.56 -0.81 -0.20 -0.62
-11.87 132.99 35.40 0.25 0.47 0.85 -0.06
-14.54 124.96 28.78 -0.57 -0.82 -0.01 -0.14
-15.08 128.49 34.35 -0.84 0.02 0.55 -0.97
-14.78 131.13 20.26 -0.19 0.76 0.62 0.13
-14.94 124.88 27.82 -0.78 -0.63 -0.05 0.02
-12.66 135.67 18.87 -0.88 -0.09 0.47 -0.06
-13.23 133.95 18.67 -0.78 0.10 0.62 0.13
-13.35 137.60 20.60 -0.98 -0.20 0.06 -0.21
-13.08 132.57 18.76 -0.87 0.25 0.42 -0.08
-14.06 125.32 24.74 -0.81 -0.46 -0.36 0.53
-10.28 134.52 33.80 -0.09 0.12 0.99 -0.19
-15.98 127.11 31.68 -0.74 -0.37 0.56 -0.58
-14.26 127.50 21.78 -0.30 -0.30 0.90 0.20
-13.70 131.78 18.85 -0.70 0.68 0.22 -0.13
-13.20 139.41 31.02 0.34 0.21 0.92 0.52
-14.59 131.48 19.11 -0.33 0.94 -0.05 0.06
-12.41 131.87 35.87 0.02 0.19 0.98 -0.06
-13.36 125.18 23.53 -0.80 -0.37 -0.46 0.16
-15.02 127.61 32.88 -0.65 -0.54 0.53 -0.40
-14.51 142.34 27.35 0.05 0.84 -0.54 0.62
-13.87 128.82 21.15 -0.23 0.39 0.89 0.30
-14.69 129.85 20.93 -0.03 0.37 0.93 0.87
-13.01 141.45 28.21 0.31 0.84 -0.44 0.18
-11.73 138.10 31.39 -0.05 0.53 0.85 -0.06
-16.09 125.77 31.03 -0.65 -0.59 0.48 -1.22
-11.79 139.13 22.56 -0.65 0.73 0.22 -0.06
-15.19 140.86 31.77 -0.07 0.09 0.99 0.61
-12.10 141.50 28.37 -0.25 0.85 -0.46 0.38
-12.43 127.03 20.91 -0.34 -0.84 -0.42 0.22
-14.00 124.47 26.86 -0.62 -0.78 -0.05 0.39
-13.00 139.41 20.90 -0.73 0.61 0.31 -0.05
-14.41 129.19 35.00 -0.53 0.14 0.84 -0.91
-14.84 125.18 30.81 -0.40 -0.80 0.46 -0.84
-10.85 139.93 23.59 -0.82 0.54 -0.19 0.12
-11.44 141.56 26.96 -0.86 0.43 -0.26 0.31
-11.13 140.12 24.48 -0.84 0.40 -0.38 0.23
-14.39 127.32 33.91 -0.50 -0.76 0.42 -0.99
-13.00 137.08 18.35 -0.94 0.24 -0.23 -0.14
-12.36 130.48 35.53 0.08 -0.22 0.97 -0.03
-13.58 138.33 19.84 -1.00 -0.01 0.06 -0.10
-12.11 139.16 30.92 0.04 0.25 0.97 0.10
-10.39 138.37 31.67 -0.53 0.37 0.76 -0.29
-14.05 124.39 29.74 -0.57 -0.82 0.05 -0.05
-13.91 127.04 20.46 0.04 -0.98 0.18 0.52
-12.21 125.23 22.20 -0.59 -0.42 -0.69 0.21
-15.81 142.96 29.39 -0.58 0.81 -0.10 0.91
-16.32 142.04 30.59 -0.87 0.32 0.37 0.47
-13.83 132.93 17.90 -0.86 -0.02 0.50 -0.02
-11.20 141.16 25.02 -0.94 0.03 -0.35 0.26
-10.29 137.11 33.49 -0.67 0.39 0.63 -0.16
-13.69 135.70 18.06 -0.79 0.30 0.53 -0.02
-13.62 127.99 34.88 0.04 -0.56 0.82 -2.15
-13.32 142.45 29.02 0.50 0.72 -0.48 0.28
-14.75 143.05 28.39 -0.07 0.87 -0.49 1.45
-14.32 126.81 32.48 -0.29 -0.72 0.63 0.05
-11.64 139.98 21.55 -0.51 0.78 0.35 -0.04
-14.18 134.34 17.64 -0.82 0.02 0.57 0.14
-10.60 131.49 34.79 0.64 0.08 0.77 -0.08
-9.13 133.83 33.19 0.33 -0.34 0.88 -0.55
-13.93 140.37 31.22 0.39 0.05 0.92 0.59
-16.33 131.00 20.48 -0.11 0.88 0.46 1.21
-12.03 128.52 34.58 0.21 -0.59 0.78 -0.32
-12.45 142.09 29.06 -0.20 0.62 -0.76 0.34
-8.71 134.80 33.73 0.13 -0.52 0.84 -0.35
