ply
format ascii 1.0
comment Generated by MaSIF
element vertex 200
property float x
property float y
property float z
property float nx
property float ny
property float nz
property float charge
element face 347
property list uchar int vertex_indices
end_header
-15.53 132.09 29.86 -0.83 0.46 -0.33 -0.74
-15.34 132.04 31.31 -0.83 0.38 0.40 -1.28
-15.47 133.20 29.78 -0.89 -0.38 -0.24 0.14
-14.52 132.16 28.69 -0.83 0.13 -0.54 -0.26
-15.93 130.90 28.76 -0.43 0.63 -0.64 0.02
-15.30 133.25 31.11 -0.94 -0.19 0.29 -0.17
-16.86 131.22 30.58 -0.69 0.69 0.20 -0.02
-14.99 130.92 28.28 -0.46 0.34 -0.82 -0.02
-14.81 133.65 28.78 -0.63 -0.33 -0.70 0.56
-15.91 134.07 28.90 -0.61 -0.44 -0.66 0.14
-14.83 132.47 32.48 -0.95 0.20 0.25 -0.14
-15.98 130.84 31.59 -0.63 0.45 0.64 -0.01
-16.98 130.75 29.33 -0.74 0.54 -0.40 0.03
-15.47 130.05 28.01 -0.24 0.28 -0.93 0.08
-17.46 130.16 30.52 -0.94 0.27 0.22 0.01
-15.10 131.05 32.51 -0.92 0.31 0.25 0.46
-13.96 133.31 27.84 -0.94 0.03 -0.34 0.15
-14.07 132.37 27.19 -1.00 -0.08 -0.05 0.02
-14.04 131.05 27.38 -0.83 -0.17 -0.54 0.02
-16.81 129.50 28.34 -0.60 0.23 -0.77 0.06
-16.54 134.89 29.84 -0.80 -0.57 -0.19 0.34
-15.58 134.57 32.00 -0.77 -0.47 0.44 0.24
-16.67 129.78 31.71 -0.74 0.28 0.61 0.01
-14.70 129.38 27.84 -0.19 0.19 -0.96 0.10
-14.35 134.37 28.15 -0.68 -0.20 -0.71 0.49
-16.21 134.90 31.26 -0.80 -0.51 0.32 0.41
-13.76 129.77 27.71 -0.60 0.05 -0.80 -0.25
-14.94 134.32 32.83 -0.67 -0.16 0.73 0.07
-17.62 129.23 29.84 -1.00 -0.01 0.00 0.02
-15.89 129.69 32.47 -0.73 0.42 0.54 -0.10
-15.71 135.65 28.56 -0.46 -0.30 -0.84 0.81
-13.99 133.54 33.50 -0.47 0.50 0.73 -0.06
-13.84 134.32 27.42 -0.99 -0.04 -0.17 -0.07
-14.48 132.93 33.98 -0.67 0.71 0.21 0.03
-14.08 133.30 26.67 -0.98 0.12 0.14 -0.10
-15.41 129.92 33.37 -0.90 0.31 0.30 0.32
-14.36 132.18 26.13 -0.97 -0.22 0.01 -0.02
-15.17 131.88 33.94 -0.96 0.28 0.04 0.08
-13.28 130.34 26.96 -0.89 -0.21 -0.40 0.00
-14.06 128.82 27.55 -0.48 0.48 -0.74 0.06
-17.32 128.22 28.92 -0.82 -0.35 -0.44 -0.01
-15.47 128.04 27.88 -0.52 0.02 -0.85 0.12
-15.20 130.27 34.30 -0.97 0.03 0.24 0.23
-16.64 136.10 28.61 -0.45 -0.44 -0.78 0.83
-17.07 136.02 31.13 -0.81 -0.43 0.40 0.73
-16.00 136.06 32.86 -0.53 -0.24 0.81 0.21
-17.73 136.20 29.64 -0.91 -0.37 -0.20 0.48
-14.32 135.91 27.87 -0.62 -0.39 -0.68 0.34
-13.43 128.81 26.87 -0.82 0.46 -0.35 0.37
-16.89 127.98 32.04 -0.86 -0.27 0.43 -0.06
-13.40 131.19 25.62 -0.84 -0.46 -0.30 -0.04
-14.10 132.50 25.08 -0.80 -0.39 -0.46 -0.12
-14.23 132.77 35.17 -0.38 0.72 0.58 -0.00
-15.93 136.78 28.16 -0.39 -0.42 -0.82 1.40
-13.83 135.85 32.70 -0.15 0.13 0.98 0.32
-16.08 128.35 33.11 -0.86 -0.07 0.50 -0.34
-16.98 127.80 30.50 -0.93 -0.37 0.07 -0.02
-13.02 129.97 25.92 -0.96 0.04 -0.27 0.07
-14.93 131.81 35.30 -0.81 0.37 0.45 0.00
-14.03 136.08 27.00 -0.92 -0.40 -0.06 -0.06
-12.55 133.67 34.04 -0.44 0.58 0.68 -0.74
-13.99 134.81 26.05 -0.93 -0.18 0.33 -0.38
-14.16 134.03 25.27 -0.98 -0.19 -0.00 -0.38
-16.51 127.24 29.05 -0.79 -0.34 -0.51 -0.39
-13.07 134.94 33.11 -0.39 0.31 0.87 0.03
-14.81 127.78 26.63 -0.83 0.43 -0.36 0.43
-14.91 130.66 35.75 -0.61 -0.21 0.77 -0.07
-14.22 129.24 35.21 -0.39 -0.25 0.89 -0.21
-13.65 128.52 25.82 -0.71 0.65 -0.27 1.03
-17.09 137.52 28.49 -0.74 -0.30 -0.61 1.09
-17.58 137.43 31.10 -0.90 -0.17 0.41 1.03
-16.67 137.25 32.29 -0.54 -0.10 0.84 0.73
-15.57 127.78 34.29 -0.86 -0.10 0.50 -0.97
-17.81 137.76 29.61 -0.98 -0.05 -0.17 0.65
-15.55 126.11 28.34 -0.80 -0.37 -0.47 -0.61
-12.23 132.98 35.23 -0.05 0.74 0.67 -0.13
-12.53 129.43 25.03 -0.82 0.12 -0.56 0.22
-13.03 132.09 24.43 -0.78 -0.51 -0.37 -0.53
-12.92 132.50 35.82 0.16 0.43 0.89 -0.06
-14.33 137.07 32.84 -0.00 0.26 0.97 0.31
-15.41 137.49 27.24 -0.78 -0.46 -0.43 0.52
-16.17 126.50 31.50 -0.73 -0.48 0.49 -0.58
-15.33 127.01 32.78 -0.62 -0.64 0.46 -0.40
-12.36 135.59 33.36 -0.61 0.14 0.78 0.71
-11.42 134.29 34.43 -0.15 0.04 0.99 -0.19
-14.77 136.16 25.99 -0.82 -0.43 0.37 0.17
-16.74 126.21 29.84 -0.94 -0.30 -0.15 -1.41
-13.34 132.88 23.62 -0.87 -0.48 -0.08 -1.08
-13.36 131.29 36.19 -0.05 0.12 0.99 -0.06
-14.90 134.93 24.84 -0.81 -0.48 0.34 0.16
-12.58 137.06 32.84 -0.49 0.37 0.79 0.23
-15.01 128.49 35.03 -0.58 0.02 0.81 -0.91
-13.20 128.33 24.68 -0.68 0.63 -0.36 1.26
-14.73 126.72 33.82 -0.44 -0.83 0.34 -0.99
-13.14 129.94 35.76 0.05 -0.28 0.96 -0.03
-14.62 127.56 25.01 -0.80 0.42 -0.42 0.59
-15.48 137.91 32.57 0.06 0.22 0.97 1.01
-14.14 134.26 23.30 -0.84 -0.50 -0.22 -1.13
-15.08 125.89 26.99 -0.92 -0.18 -0.34 0.33
-12.80 131.99 23.37 -0.89 -0.42 0.17 -1.44
-14.09 127.39 34.88 0.06 -0.61 0.79 -2.15
-16.55 138.62 32.68 -0.34 -0.02 0.94 1.66
-14.53 126.32 32.37 -0.25 -0.79 0.56 0.05
-15.95 125.12 29.35 -0.54 -0.78 -0.31 -0.89
-16.70 138.66 27.35 -0.50 -0.26 -0.83 1.13
-12.10 131.01 24.32 -0.83 -0.47 -0.32 -0.36
-11.73 130.23 24.13 -0.94 0.04 -0.35 -0.06
-12.55 128.11 34.71 0.24 -0.62 0.75 -0.32
-12.47 128.73 23.83 -0.78 0.58 -0.22 0.77
-14.95 124.82 29.37 -0.46 -0.84 -0.28 -0.62
-14.50 125.68 25.69 -0.85 -0.36 -0.39 0.97
-15.17 138.32 25.98 -0.75 0.54 -0.38 0.66
-14.36 124.72 28.55 -0.48 -0.87 -0.10 -0.14
-16.10 125.21 30.75 -0.61 -0.68 0.40 -1.22
-15.34 137.34 25.52 -1.00 0.04 -0.07 0.68
-17.62 139.32 27.96 -0.89 -0.18 -0.42 -0.00
-13.13 137.87 32.18 -0.15 0.46 0.88 -0.06
-11.47 131.18 35.20 0.59 0.09 0.80 -0.08
-15.37 139.21 26.77 -0.17 0.31 -0.94 0.55
-14.70 124.67 27.57 -0.70 -0.70 -0.14 0.02
-11.96 129.35 35.58 0.31 -0.32 0.90 -0.16
-10.18 133.78 33.84 0.32 -0.37 0.87 -0.55
-15.57 135.28 23.69 -0.91 -0.36 -0.20 0.05
-9.89 134.74 34.47 0.15 -0.57 0.81 -0.35
-15.47 136.45 24.48 -1.00 0.08 0.04 0.33
-11.84 138.25 32.55 -0.60 0.26 0.75 -0.29
-17.83 139.65 31.32 -0.94 -0.12 0.32 0.49
-11.70 136.88 34.29 -0.74 0.27 0.62 -0.16
-14.19 133.95 22.29 -0.99 -0.11 -0.10 -1.19
-10.73 132.57 33.87 0.60 0.02 0.80 -0.96
-13.59 138.91 31.75 -0.04 0.18 0.98 0.10
-13.80 125.83 31.85 -0.37 -0.54 0.76 0.08
-13.82 126.84 23.95 -0.85 -0.03 -0.53 0.53
-10.86 135.99 35.35 -0.33 -0.12 0.94 -0.20
-11.71 129.42 23.76 -0.90 0.43 -0.01 0.12
-13.83 135.28 22.19 -0.88 0.04 -0.47 -1.22
-13.72 132.74 21.61 -0.99 -0.13 -0.03 -2.65
-14.78 124.77 30.57 -0.33 -0.86 0.38 -0.84
-14.46 138.99 26.52 -0.25 0.79 -0.56 0.45
-14.71 139.04 31.81 0.27 0.18 0.95 0.52
-17.27 140.34 27.42 -0.69 0.05 -0.73 0.53
-13.02 126.54 32.73 -0.08 -0.55 0.83 -0.20
-13.86 124.15 29.50 -0.48 -0.87 -0.04 -0.05
-13.72 125.42 24.57 -0.74 -0.52 -0.43 0.53
-11.94 127.62 33.53 0.15 -0.70 0.70 -0.55
-16.88 140.22 32.53 -0.13 0.01 0.99 0.61
-14.41 139.89 27.43 0.07 0.61 -0.79 0.46
-16.01 140.21 26.90 -0.09 0.11 -0.99 0.76
-14.88 136.10 22.80 -0.77 0.04 -0.64 0.12
-13.24 127.67 22.58 -0.99 -0.04 -0.12 0.22
-12.00 129.98 22.77 -0.93 -0.19 0.31 -0.14
-13.67 124.44 26.63 -0.53 -0.84 -0.14 0.39
-14.60 138.15 24.27 -0.81 0.51 -0.29 0.02
-9.88 132.51 33.39 0.31 0.00 0.95 -0.37
-17.75 141.11 29.12 -0.92 0.25 -0.30 0.24
-10.87 139.00 33.33 -0.68 0.29 0.67 -0.39
-12.09 128.96 22.33 -0.83 0.31 0.47 0.17
-12.46 139.09 31.87 -0.40 -0.06 0.92 -0.08
-13.71 134.55 21.26 -0.88 0.18 -0.43 -1.76
-10.70 128.50 34.18 0.26 -0.41 0.87 -0.54
-8.48 134.22 33.60 0.44 -0.60 0.66 -0.57
-10.54 137.22 35.11 -0.56 0.30 0.77 -0.75
-13.81 124.77 31.34 -0.70 -0.47 0.54 0.05
-8.67 135.67 35.09 0.10 -0.59 0.80 -1.13
-18.07 141.36 31.37 -0.92 0.20 0.34 0.47
-8.48 133.06 33.00 0.54 0.02 0.84 -0.30
-10.68 138.29 34.14 -0.71 0.49 0.51 -1.53
-16.65 141.29 27.16 -0.30 0.57 -0.77 0.66
-12.82 125.05 32.16 -0.63 -0.02 0.78 0.19
-13.35 130.56 21.47 -0.68 -0.12 0.72 -1.06
-11.61 139.89 32.94 -0.55 -0.30 0.78 0.02
-12.60 123.99 27.51 -0.66 -0.75 0.06 0.06
-13.32 139.01 24.75 -0.61 0.78 -0.15 -0.28
-15.54 139.90 32.02 0.33 0.03 0.94 0.59
-10.21 129.85 34.04 0.37 0.10 0.93 -0.08
-9.53 136.57 35.53 -0.20 -0.26 0.94 -0.70
-13.00 135.93 21.26 -0.91 -0.03 -0.41 -1.15
-15.01 141.35 27.84 0.42 0.68 -0.60 0.59
-13.37 139.65 26.83 -0.62 0.59 -0.52 0.40
-13.29 123.76 30.41 -0.71 -0.69 -0.13 0.87
-13.21 132.90 20.18 -0.93 0.37 -0.08 -0.83
-12.16 123.70 28.75 -0.57 -0.81 -0.15 0.09
-14.23 140.38 31.67 -0.16 -0.25 0.95 0.27
-14.01 131.86 20.67 -0.71 0.57 0.41 -0.36
-12.94 125.44 23.41 -0.73 -0.42 -0.53 0.16
-9.79 131.14 33.48 0.31 0.25 0.92 0.50
-16.93 141.62 32.51 -0.22 0.34 0.91 0.88
-14.02 140.91 28.26 -0.10 0.74 -0.67 0.33
-13.99 127.78 21.76 -0.32 -0.40 0.86 0.20
-10.29 140.15 33.68 0.26 0.09 0.96 -0.16
-15.34 140.87 32.01 0.17 -0.06 0.98 0.38
-13.92 137.20 22.26 -0.93 -0.06 -0.35 -0.74
-13.15 134.48 20.18 -0.98 0.15 -0.14 -0.70
-17.30 142.32 31.44 -0.43 0.79 0.43 0.49
-11.04 126.48 32.77 -0.27 -0.18 0.95 -0.69
-12.96 140.80 32.69 -0.45 -0.45 0.77 0.30
-7.59 135.28 34.62 0.44 -0.73 0.51 -1.69
-7.51 134.79 32.77 0.63 -0.67 0.38 -1.10
-17.60 142.41 30.27 -0.66 0.75 -0.09 0.91
-12.08 127.56 20.97 -0.23 -0.84 -0.49 0.22
3 161 166 127
3 123 163 175
3 123 175 133
3 133 175 161
3 129 121 84
3 127 83 84
3 90 116 79
3 79 116 130
3 127 155 90
3 125 90 155
3 155 170 125
3 170 195 157
3 173 190 145
3 139 173 145
3 139 145 101
3 126 101 145
3 84 117 129
3 84 75 117
3 83 64 84
3 64 83 54
3 79 130 96
3 96 130 139
3 96 139 101
3 130 195 182
3 96 101 71
3 79 96 71
3 79 71 45
3 70 71 101
3 71 44 45
3 73 154 69
3 69 154 115
3 104 147 118
3 147 177 118
3 174 185 117
3 107 144 159
3 144 107 100
3 107 120 67
3 107 67 100
3 94 120 117
3 37 42 58
3 42 15 35
3 33 75 31
3 27 31 54
3 31 27 10
3 33 31 10
3 5 27 21
3 27 54 45
3 45 54 79
3 46 20 44
3 43 20 46
3 43 30 20
3 104 80 69
3 104 118 80
3 80 118 111
3 111 118 138
3 114 85 80
3 114 124 85
3 124 114 152
3 102 141 93
3 102 93 82
3 82 81 102
3 72 55 93
3 82 93 55
3 55 49 82
3 91 67 72
3 42 72 67
3 67 66 42
3 100 67 91
3 66 67 94
3 55 35 29
3 55 29 22
3 0 6 1
3 11 1 6
3 1 5 0
3 2 0 5
3 5 25 2
3 9 8 2
3 3 2 8
3 53 30 43
3 85 89 61
3 61 89 62
3 61 62 34
3 148 152 191
3 181 179 142
3 162 168 131
3 81 49 56
3 81 56 86
3 56 49 28
3 49 22 28
3 14 12 28
3 12 6 4
3 34 36 17
3 3 17 18
3 36 50 17
3 17 50 18
3 57 50 76
3 87 97 128
3 97 148 135
3 97 135 128
3 135 158 128
3 87 136 99
3 136 158 192
3 151 112 119
3 109 142 137
3 109 103 74
3 109 74 112
3 112 74 119
3 119 74 98
3 86 63 74
3 63 86 56
3 56 40 63
3 19 41 40
3 74 41 65
3 41 13 23
3 13 4 7
3 18 7 3
3 7 18 26
3 26 23 7
3 13 7 23
3 57 38 50
3 39 48 65
3 68 57 76
3 92 68 76
3 65 95 110
3 65 68 95
3 68 92 95
3 92 108 149
3 92 149 132
3 143 151 110
3 143 132 184
3 39 65 41
3 39 41 23
3 187 146 177
3 166 155 127
3 155 189 170
3 160 196 163
3 123 160 163
3 121 123 84
3 60 75 84
3 54 83 90
3 54 90 79
3 90 83 127
3 90 125 116
3 157 116 125
3 157 125 170
3 182 190 139
3 139 190 173
3 153 165 121
3 153 121 129
3 121 165 160
3 123 121 160
3 185 153 129
3 117 185 129
3 31 75 60
3 54 31 64
3 64 31 60
3 64 60 84
3 130 182 139
3 157 195 130
3 116 157 130
3 70 44 71
3 178 138 146
3 177 146 118
3 118 146 138
3 178 146 187
3 94 67 120
3 10 5 1
3 5 10 27
3 25 5 21
3 25 44 20
3 80 111 114
3 69 80 53
3 30 53 47
3 59 47 80
3 59 80 85
3 80 47 53
3 144 141 194
3 168 141 131
3 102 131 141
3 49 81 82
3 35 55 72
3 42 35 72
3 15 29 35
3 10 1 15
3 10 15 37
3 15 1 11
3 3 0 2
3 8 24 16
3 32 34 16
3 32 16 24
3 61 32 59
3 85 61 59
3 47 24 30
3 24 47 59
3 24 59 32
3 34 32 61
3 176 158 135
3 191 176 148
3 148 176 135
3 137 142 162
3 162 142 179
3 102 137 131
3 131 137 162
3 29 11 22
3 11 29 15
3 0 4 6
3 7 4 0
3 7 0 3
3 17 3 16
3 17 16 34
3 16 3 8
3 38 18 50
3 105 77 150
3 150 77 99
3 50 77 76
3 105 76 77
3 87 99 77
3 122 97 89
3 89 97 62
3 62 97 87
3 62 87 51
3 51 87 77
3 169 136 183
3 192 180 136
3 136 180 183
3 176 192 158
3 171 112 151
3 112 171 181
3 109 112 142
3 41 63 40
3 63 41 74
3 23 26 39
3 48 39 26
3 48 26 38
3 48 38 57
3 18 38 26
3 65 48 68
3 68 48 57
3 108 92 76
3 150 134 106
3 108 134 150
3 105 150 106
3 76 105 106
3 76 106 108
3 108 106 134
3 169 156 150
3 150 156 108
3 149 108 156
3 149 184 132
3 133 127 84
3 133 161 127
3 133 84 123
3 186 193 164
3 186 164 145
3 145 164 126
3 190 186 145
3 154 164 198
3 198 164 193
3 164 154 126
3 78 117 75
3 78 88 117
3 70 101 126
3 126 154 73
3 140 147 104
3 140 104 115
3 140 115 154
3 69 115 104
3 167 147 140
3 167 140 154
3 177 147 167
3 120 107 159
3 120 159 174
3 120 174 117
3 78 75 52
3 33 52 75
3 52 88 78
3 94 117 88
3 88 52 58
3 58 52 33
3 58 33 37
3 42 37 15
3 45 44 25
3 73 70 126
3 46 73 69
3 46 69 43
3 46 44 70
3 46 70 73
3 111 172 152
3 111 152 114
3 72 93 100
3 72 100 91
3 144 100 141
3 93 141 100
3 66 88 58
3 66 58 42
3 66 94 88
3 33 10 37
3 20 2 25
3 2 20 9
3 8 9 24
3 24 9 30
3 30 9 20
3 69 53 43
3 124 89 85
3 124 152 148
3 49 55 22
3 14 22 6
3 6 22 11
3 6 12 14
3 50 36 51
3 51 36 62
3 51 77 50
3 36 34 62
3 122 124 148
3 148 97 122
3 122 89 124
3 128 158 136
3 87 128 136
3 103 113 86
3 113 81 86
3 86 74 103
3 103 109 137
3 103 137 113
3 113 137 102
3 113 102 81
3 40 28 19
3 28 40 56
3 12 4 19
3 12 19 28
3 22 14 28
3 19 13 41
3 4 13 19
3 99 136 169
3 99 169 150
3 119 98 110
3 119 110 151
3 74 65 98
3 110 98 65
3 95 132 110
3 132 95 92
3 110 132 143
3 45 25 21
3 45 21 27
3 196 160 197
3 172 111 138
3 172 138 178
3 142 112 181
