ply
format ascii 1.0
comment Generated by MaSIF
element vertex 200
property float x
property float y
property float z
property float nx
property float ny
property float nz
property float charge
element face 342
property list uchar int vertex_indices
end_header
-14.92 131.14 28.35 -0.45 0.33 -0.83 -0.02
-15.44 130.28 28.12 -0.23 0.26 -0.94 0.08
-15.86 131.18 28.84 -0.41 0.63 -0.66 0.02
-13.97 131.20 27.44 -0.84 -0.15 -0.53 0.02
-14.40 132.37 28.71 -0.83 0.15 -0.54 -0.26
-14.70 129.57 27.97 -0.19 0.16 -0.97 0.10
-13.75 129.92 27.82 -0.61 0.04 -0.79 -0.25
-15.40 132.39 29.88 -0.81 0.48 -0.34 -0.74
-16.91 131.10 29.41 -0.72 0.55 -0.42 0.03
-16.80 129.80 28.47 -0.59 0.22 -0.77 0.06
-14.09 128.98 27.69 -0.46 0.47 -0.75 0.06
-13.25 130.44 27.04 -0.90 -0.19 -0.39 0.00
-13.94 132.51 27.20 -1.00 -0.03 -0.04 0.02
-16.76 131.61 30.64 -0.66 0.73 0.18 -0.02
-15.53 128.27 28.06 -0.52 0.01 -0.85 0.12
-13.79 133.47 27.82 -0.94 0.06 -0.34 0.15
-14.61 133.88 28.75 -0.65 -0.33 -0.68 0.56
-15.20 132.39 31.34 -0.81 0.43 0.39 -1.28
-15.29 133.50 29.77 -0.91 -0.35 -0.22 0.14
-13.46 128.91 27.01 -0.80 0.48 -0.36 0.37
-17.41 130.57 30.63 -0.92 0.32 0.21 0.01
-13.33 131.25 25.68 -0.86 -0.43 -0.28 -0.04
-15.11 133.59 31.09 -0.94 -0.14 0.30 -0.17
-17.61 129.63 29.98 -1.00 0.03 0.01 0.02
-17.36 128.57 29.10 -0.84 -0.33 -0.43 -0.01
-13.00 130.02 26.02 -0.96 0.08 -0.26 0.07
-13.92 133.42 26.65 -0.98 0.17 0.14 -0.10
-14.25 132.29 26.15 -0.98 -0.18 0.03 -0.02
-14.13 134.56 28.09 -0.69 -0.19 -0.70 0.49
-14.89 127.93 26.82 -0.81 0.45 -0.37 0.43
-15.90 131.23 31.66 -0.60 0.50 0.62 -0.01
-13.63 134.46 27.36 -0.99 -0.00 -0.16 -0.07
-15.69 134.35 28.86 -0.64 -0.43 -0.64 0.14
-13.70 128.60 25.97 -0.68 0.67 -0.29 1.03
-16.63 130.21 31.83 -0.73 0.34 0.60 0.01
-14.67 132.84 32.49 -0.94 0.25 0.24 -0.14
-16.60 127.56 29.26 -0.81 -0.32 -0.49 -0.39
-15.00 131.43 32.57 -0.90 0.36 0.24 0.46
-15.70 126.36 28.59 -0.82 -0.35 -0.45 -0.61
-12.55 129.42 25.14 -0.82 0.14 -0.56 0.22
-12.93 132.07 24.45 -0.80 -0.49 -0.35 -0.53
-13.98 132.56 25.10 -0.82 -0.37 -0.44 -0.12
-16.28 135.23 29.77 -0.82 -0.54 -0.16 0.34
-17.03 128.20 30.69 -0.94 -0.33 0.09 -0.02
-15.32 134.95 31.93 -0.79 -0.42 0.46 0.24
-13.96 134.10 25.23 -0.99 -0.15 0.01 -0.38
-15.95 135.27 31.19 -0.82 -0.46 0.34 0.41
-13.75 134.90 25.97 -0.93 -0.13 0.34 -0.38
-14.69 134.70 32.77 -0.67 -0.10 0.74 0.07
-13.27 128.35 24.84 -0.66 0.65 -0.38 1.26
-15.85 130.11 32.58 -0.71 0.47 0.52 -0.10
-14.03 136.07 27.75 -0.65 -0.38 -0.66 0.34
-14.72 127.65 25.21 -0.79 0.44 -0.44 0.59
-16.87 126.57 30.09 -0.95 -0.26 -0.14 -1.41
-15.42 135.90 28.46 -0.47 -0.31 -0.82 0.81
-15.25 126.07 27.24 -0.93 -0.15 -0.33 0.33
-13.74 136.21 26.87 -0.93 -0.36 -0.04 -0.06
-13.78 133.91 33.46 -0.44 0.55 0.71 -0.06
-13.21 132.85 23.62 -0.89 -0.44 -0.06 -1.08
-12.72 131.93 23.40 -0.91 -0.37 0.19 -1.44
-14.29 133.34 33.97 -0.63 0.75 0.19 0.03
-16.93 128.43 32.23 -0.87 -0.21 0.45 -0.06
-15.35 130.35 33.48 -0.89 0.36 0.29 0.32
-16.13 125.43 29.64 -0.58 -0.77 -0.28 -0.89
-15.02 132.31 33.97 -0.95 0.32 0.03 0.08
-14.68 125.79 25.96 -0.86 -0.34 -0.37 0.97
-12.06 130.95 24.38 -0.85 -0.44 -0.30 -0.36
-11.71 130.16 24.22 -0.93 0.07 -0.35 -0.06
-12.52 128.68 23.97 -0.76 0.61 -0.24 0.77
-15.15 125.09 29.66 -0.50 -0.83 -0.25 -0.62
-14.57 124.93 28.85 -0.52 -0.85 -0.06 -0.14
-16.09 128.80 33.27 -0.86 -0.01 0.50 -0.34
-14.92 124.87 27.87 -0.73 -0.67 -0.11 0.02
-15.12 130.73 34.40 -0.97 0.08 0.24 0.23
-14.67 135.01 24.76 -0.83 -0.43 0.36 0.16
-16.33 136.40 28.49 -0.48 -0.44 -0.76 0.83
-16.75 136.43 31.01 -0.83 -0.38 0.42 0.73
-15.67 136.49 32.74 -0.54 -0.18 0.82 0.21
-17.42 136.59 29.52 -0.93 -0.33 -0.18 0.48
-16.28 126.90 31.74 -0.75 -0.43 0.51 -0.58
-15.59 137.03 28.01 -0.41 -0.43 -0.80 1.40
-16.27 125.58 31.04 -0.64 -0.64 0.43 -1.22
-14.47 136.28 25.86 -0.84 -0.38 0.38 0.17
-13.96 126.85 24.17 -0.85 -0.01 -0.52 0.53
-14.04 133.21 35.17 -0.35 0.75 0.56 -0.00
-13.95 134.25 23.24 -0.86 -0.47 -0.19 -1.13
-13.51 136.17 32.58 -0.14 0.17 0.98 0.32
-11.74 129.33 23.88 -0.88 0.47 -0.02 0.12
-14.97 125.07 30.86 -0.37 -0.83 0.41 -0.84
-14.78 132.28 35.33 -0.79 0.42 0.44 0.00
-12.33 133.99 34.00 -0.41 0.63 0.66 -0.74
-13.91 125.46 24.85 -0.76 -0.50 -0.41 0.53
-14.08 124.37 29.81 -0.52 -0.85 -0.01 -0.05
-15.05 137.68 27.06 -0.80 -0.44 -0.41 0.52
-13.35 127.61 22.77 -0.99 0.00 -0.11 0.22
-12.79 135.25 33.02 -0.37 0.36 0.86 0.03
-13.90 124.55 26.94 -0.57 -0.82 -0.11 0.39
-12.00 129.87 22.87 -0.94 -0.14 0.32 -0.14
-14.02 133.91 22.25 -0.99 -0.07 -0.09 -1.19
-15.33 135.35 23.61 -0.93 -0.33 -0.18 0.05
-15.60 128.25 34.48 -0.86 -0.05 0.51 -0.97
-15.41 127.42 33.00 -0.64 -0.59 0.48 -0.40
-14.81 131.15 35.82 -0.61 -0.15 0.77 -0.07
-12.14 128.83 22.46 -0.81 0.36 0.46 0.17
-13.61 132.65 21.61 -1.00 -0.09 -0.02 -2.65
-14.18 129.69 35.33 -0.40 -0.20 0.90 -0.21
-15.18 136.54 24.35 -0.99 0.12 0.04 0.33
-16.72 137.84 28.32 -0.75 -0.29 -0.59 1.09
-17.20 137.86 30.94 -0.90 -0.12 0.42 1.03
-14.99 137.46 25.36 -0.99 0.08 -0.06 0.68
-16.30 137.69 32.13 -0.54 -0.04 0.84 0.73
-17.42 138.15 29.44 -0.99 -0.02 -0.17 0.65
-12.03 133.33 35.21 -0.02 0.77 0.64 -0.13
-12.74 132.90 35.82 0.18 0.46 0.87 -0.06
-13.96 137.42 32.67 0.01 0.29 0.96 0.31
-14.82 127.14 34.04 -0.47 -0.80 0.38 -0.99
-13.33 130.46 21.55 -0.68 -0.06 0.73 -1.06
-13.60 135.22 22.09 -0.88 0.07 -0.47 -1.22
-14.64 126.68 32.61 -0.28 -0.76 0.59 0.05
-12.84 124.08 27.82 -0.69 -0.71 0.09 0.06
-14.00 125.06 31.63 -0.72 -0.42 0.56 0.05
-13.14 125.40 23.68 -0.76 -0.41 -0.51 0.16
-12.05 135.87 33.25 -0.60 0.19 0.78 0.71
-13.53 123.99 30.74 -0.74 -0.66 -0.10 0.87
-11.17 134.57 34.35 -0.15 0.08 0.99 -0.19
-12.41 123.82 29.08 -0.60 -0.79 -0.12 0.09
-13.23 131.73 36.23 -0.04 0.16 0.99 -0.06
-15.01 128.96 35.18 -0.58 0.08 0.81 -0.91
-12.21 137.33 32.67 -0.47 0.42 0.78 0.23
-13.52 134.44 21.19 -0.88 0.21 -0.43 -1.76
-14.78 138.45 25.77 -0.73 0.56 -0.40 0.66
-14.10 127.72 21.95 -0.33 -0.35 0.88 0.20
-14.61 136.10 22.68 -0.77 0.05 -0.64 0.12
-13.94 126.13 32.10 -0.39 -0.50 0.78 0.08
-14.93 139.37 26.53 -0.16 0.28 -0.95 0.55
-14.14 127.82 35.07 0.04 -0.59 0.81 -2.15
-13.07 130.36 35.86 0.05 -0.25 0.97 -0.03
-16.28 138.91 27.14 -0.51 -0.27 -0.82 1.13
-12.21 127.38 21.16 -0.27 -0.85 -0.46 0.22
-12.52 124.03 24.57 -0.71 -0.65 -0.28 0.17
-15.07 138.30 32.38 0.08 0.26 0.96 1.01
-13.10 132.74 20.17 -0.91 0.41 -0.09 -0.83
-13.95 131.75 20.71 -0.68 0.62 0.39 -0.36
-12.44 123.53 26.72 -0.77 -0.63 -0.09 -0.22
-16.10 139.06 32.47 -0.34 0.03 0.94 1.66
-14.23 138.19 24.08 -0.79 0.53 -0.31 0.02
-13.00 125.32 32.44 -0.63 0.04 0.78 0.19
-13.77 129.08 21.37 -0.29 0.34 0.89 0.30
-12.58 128.46 34.87 0.21 -0.61 0.77 -0.32
-13.66 127.32 20.64 0.10 -0.98 0.16 0.52
-11.94 125.56 22.41 -0.53 -0.43 -0.73 0.21
-12.74 135.80 21.14 -0.91 -0.00 -0.41 -1.15
-14.04 139.11 26.29 -0.22 0.78 -0.59 0.45
-12.14 123.27 30.08 -0.75 -0.57 -0.33 0.61
-17.18 139.63 27.73 -0.90 -0.15 -0.41 -0.00
-12.72 138.14 31.98 -0.12 0.50 0.86 -0.06
-13.12 126.84 32.95 -0.10 -0.52 0.85 -0.20
-11.35 131.50 35.24 0.59 0.09 0.80 -0.08
-11.92 129.71 35.70 0.30 -0.30 0.91 -0.16
-9.95 133.98 33.78 0.31 -0.35 0.88 -0.55
-14.64 130.05 21.14 -0.10 0.34 0.94 0.87
-13.46 124.09 32.55 -0.92 0.06 0.40 0.31
-12.26 124.15 23.41 -0.69 -0.56 -0.45 -0.29
-12.97 134.31 20.12 -0.97 0.19 -0.14 -0.70
-13.24 123.09 31.83 -0.87 -0.43 -0.22 0.58
-9.62 134.96 34.37 0.12 -0.54 0.83 -0.35
-11.42 138.47 32.33 -0.59 0.32 0.75 -0.29
-13.94 140.04 27.17 0.09 0.58 -0.81 0.46
-15.53 140.42 26.63 -0.09 0.08 -0.99 0.76
-17.35 140.10 31.07 -0.94 -0.06 0.33 0.49
-11.33 137.17 34.12 -0.72 0.33 0.61 -0.16
-14.78 131.35 20.51 -0.26 0.73 0.63 0.13
-11.97 122.35 27.32 -0.85 -0.53 -0.04 -1.06
-10.55 132.80 33.86 0.60 0.02 0.80 -0.96
-13.10 132.95 19.15 -0.91 0.18 0.38 -0.08
-13.61 137.14 22.10 -0.94 -0.03 -0.35 -0.74
-11.48 122.32 28.81 -0.85 -0.53 0.04 -0.11
-11.81 123.14 25.34 -0.71 -0.67 -0.22 -0.02
-13.15 139.19 31.52 -0.03 0.22 0.97 0.10
-10.53 136.28 35.21 -0.33 -0.07 0.94 -0.20
-13.67 132.12 19.18 -0.75 0.63 0.20 -0.13
-11.11 127.65 20.23 -0.16 -0.96 -0.22 0.54
-14.55 131.75 19.38 -0.39 0.92 -0.04 0.06
-15.48 128.95 21.64 0.09 0.17 0.98 1.85
-15.84 127.37 21.35 -0.08 -0.78 0.62 0.97
-10.93 126.64 21.35 -0.47 -0.52 -0.71 0.32
-14.26 139.36 31.58 0.28 0.20 0.94 0.52
-16.78 140.61 27.15 -0.69 0.05 -0.73 0.53
-12.46 124.62 33.27 -0.51 0.59 0.63 -0.00
-12.90 139.01 24.51 -0.58 0.80 -0.18 -0.28
-11.99 127.91 33.70 0.12 -0.68 0.73 -0.55
-16.36 140.66 32.26 -0.13 0.05 0.99 0.61
-12.19 122.41 30.92 -0.70 -0.48 -0.53 0.26
-14.90 126.65 20.18 0.12 -0.97 0.22 1.17
-12.85 122.06 31.94 -0.92 -0.24 -0.30 -0.06
-12.45 135.31 19.86 -0.97 0.13 0.19 -0.25
-14.47 141.54 27.52 0.44 0.64 -0.63 0.59
-10.66 124.99 21.94 -0.52 -0.46 -0.72 -0.32
-12.91 139.73 26.57 -0.60 0.60 -0.53 0.40
-13.04 136.85 20.37 -0.91 -0.40 -0.09 -0.44
3 173 159 124
3 170 122 124
3 128 155 114
3 114 155 178
3 186 191 144
3 169 144 191
3 124 157 173
3 124 112 157
3 122 95 124
3 95 122 86
3 114 178 140
3 140 178 186
3 140 186 144
3 140 144 110
3 114 140 110
3 114 110 77
3 108 110 144
3 110 76 77
3 137 168 134
3 168 196 134
3 190 148 135
3 148 158 105
3 148 105 135
3 136 158 157
3 64 73 89
3 73 37 62
3 60 112 57
3 48 57 86
3 57 48 35
3 60 57 35
3 22 48 44
3 48 86 77
3 77 86 114
3 78 42 76
3 75 42 78
3 75 54 42
3 137 93 107
3 137 134 93
3 93 134 130
3 130 134 152
3 109 82 93
3 109 106 82
3 106 109 145
3 118 156 115
3 118 115 101
3 101 79 118
3 100 71 115
3 101 115 71
3 71 61 101
3 127 105 100
3 73 100 105
3 105 102 73
3 135 105 127
3 102 105 136
3 71 62 50
3 71 50 34
3 7 13 17
3 30 17 13
3 17 22 7
3 18 7 22
3 22 46 18
3 32 16 18
3 4 18 16
3 80 54 75
3 82 74 47
3 47 74 45
3 47 45 26
3 132 145 175
3 146 161 188
3 153 192 164
3 194 164 192
3 125 123 92
3 123 161 120
3 161 146 120
3 120 146 133
3 79 61 43
3 79 43 53
3 43 61 23
3 61 34 23
3 20 8 23
3 8 13 2
3 26 27 12
3 4 12 3
3 27 21 12
3 12 21 3
3 25 21 39
3 58 85 98
3 85 132 117
3 85 117 98
3 117 129 98
3 58 104 59
3 182 171 142
3 104 129 163
3 172 176 119
3 96 70 72
3 69 92 88
3 69 63 38
3 69 38 70
3 70 38 72
3 72 38 55
3 53 36 38
3 36 53 43
3 43 24 36
3 9 14 24
3 38 14 29
3 14 1 5
3 1 2 0
3 3 0 4
3 0 3 6
3 6 5 0
3 1 0 5
3 25 11 21
3 10 19 29
3 33 25 39
3 49 33 39
3 116 142 160
3 160 142 171
3 177 143 96
3 29 52 65
3 29 33 52
3 33 49 52
3 49 68 94
3 49 94 83
3 149 131 184
3 149 181 138
3 150 138 185
3 177 96 139
3 139 91 121
3 91 96 65
3 91 83 121
3 150 121 94
3 10 29 14
3 10 14 5
3 159 165 124
3 90 112 124
3 86 122 128
3 86 128 114
3 128 122 170
3 128 166 155
3 57 112 90
3 86 57 95
3 95 57 90
3 95 90 124
3 108 76 110
3 198 152 167
3 196 167 134
3 134 167 152
3 136 105 158
3 35 22 17
3 22 35 48
3 46 22 44
3 46 76 42
3 93 130 109
3 107 93 80
3 54 80 51
3 56 51 93
3 56 93 82
3 93 51 80
3 146 156 133
3 118 133 156
3 61 79 101
3 62 71 100
3 73 62 100
3 37 50 62
3 35 17 37
3 35 37 64
3 37 17 30
3 4 7 18
3 16 28 15
3 31 26 15
3 31 15 28
3 47 31 56
3 82 47 56
3 51 28 54
3 28 51 56
3 28 56 31
3 26 31 47
3 151 129 117
3 151 175 199
3 175 151 132
3 132 151 117
3 192 153 176
3 125 153 123
3 88 92 120
3 120 92 123
3 118 88 133
3 133 88 120
3 50 30 34
3 30 50 37
3 7 2 13
3 0 2 7
3 0 7 4
3 12 4 15
3 12 15 26
3 15 4 16
3 11 3 21
3 66 40 97
3 97 40 59
3 21 40 39
3 66 39 40
3 58 59 40
3 99 85 74
3 74 85 45
3 45 85 58
3 45 58 41
3 41 58 40
3 116 104 142
3 174 180 141
3 180 142 141
3 174 141 163
3 163 141 104
3 104 141 142
3 182 142 180
3 195 163 151
3 151 163 129
3 153 125 176
3 176 125 119
3 119 70 96
3 70 119 125
3 69 70 92
3 14 36 24
3 36 14 38
3 5 6 10
3 19 10 6
3 19 6 11
3 19 11 25
3 3 11 6
3 29 19 33
3 33 19 25
3 68 49 39
3 97 87 67
3 68 87 97
3 66 97 67
3 39 66 67
3 39 67 68
3 68 67 87
3 147 94 103
3 131 94 147
3 116 147 103
3 116 103 97
3 97 103 68
3 94 68 103
3 160 147 116
3 119 96 143
3 138 150 94
3 131 149 94
3 94 149 138
3 138 181 185
3 139 162 177
3 94 121 83
3 179 170 124
3 179 124 165
3 113 157 112
3 113 126 157
3 108 144 169
3 187 168 137
3 187 137 154
3 107 154 137
3 113 112 84
3 60 84 112
3 84 126 113
3 136 157 126
3 126 84 89
3 89 84 60
3 89 60 64
3 73 64 37
3 77 76 46
3 111 108 169
3 78 111 107
3 78 107 75
3 78 76 108
3 78 108 111
3 130 189 145
3 130 145 109
3 100 115 135
3 100 135 127
3 190 135 156
3 115 156 135
3 102 126 89
3 102 89 73
3 102 136 126
3 60 35 64
3 42 18 46
3 18 42 32
3 16 32 28
3 28 32 54
3 54 32 42
3 107 80 75
3 106 74 82
3 106 145 132
3 161 123 164
3 164 123 153
3 61 71 34
3 20 34 13
3 13 34 30
3 13 8 20
3 21 27 41
3 41 27 45
3 41 40 21
3 27 26 45
3 99 106 132
3 132 85 99
3 99 74 106
3 98 129 104
3 58 98 104
3 63 81 53
3 81 79 53
3 53 38 63
3 63 69 88
3 63 88 81
3 81 88 118
3 81 118 79
3 24 23 9
3 23 24 43
3 8 2 9
3 8 9 23
3 34 20 23
3 9 1 14
3 2 1 9
3 59 104 116
3 59 116 97
3 172 119 143
3 72 55 65
3 72 65 96
3 38 29 55
3 65 55 29
3 160 183 147
3 131 147 183
3 131 183 184
3 193 149 184
3 96 91 139
3 52 83 65
3 83 52 49
3 65 83 91
3 185 197 150
3 162 139 121
3 121 150 162
3 77 46 44
3 77 44 48
3 189 130 152
3 189 152 198
3 92 70 125
