ply
format ascii 1.0
comment Generated by MaSIF
element vertex 200
property float x
property float y
property float z
property float nx
property float ny
property float nz
property float charge
element face 340
property list uchar int vertex_indices
end_header
-14.91 130.70 27.67 -0.30 0.38 -0.87 0.10
-15.60 131.35 28.06 -0.34 0.46 -0.82 0.08
-14.34 130.19 27.19 -0.54 0.63 -0.56 0.06
-13.97 131.07 27.49 -0.69 0.22 -0.68 -0.25
-15.75 129.41 27.56 -0.62 0.21 -0.76 0.12
-15.04 132.13 28.42 -0.54 0.51 -0.67 -0.02
-13.80 130.28 26.44 -0.83 0.55 -0.14 0.37
-15.91 132.06 29.02 -0.47 0.76 -0.45 0.02
-13.55 131.76 26.80 -0.94 -0.10 -0.31 0.00
-16.92 130.80 28.46 -0.68 0.40 -0.62 0.06
-14.21 132.41 27.44 -0.90 -0.03 -0.44 0.02
-15.27 129.37 26.20 -0.84 0.52 -0.15 0.43
-14.45 133.25 28.99 -0.88 0.27 -0.39 -0.26
-16.69 128.44 28.68 -0.87 -0.20 -0.45 -0.39
-16.89 131.84 29.68 -0.75 0.63 -0.19 0.03
-14.17 130.21 25.39 -0.70 0.72 -0.04 1.03
-15.90 127.43 27.65 -0.88 -0.24 -0.42 -0.61
-15.30 133.00 30.25 -0.83 0.54 -0.12 -0.74
-17.44 129.45 28.86 -0.89 -0.23 -0.39 -0.01
-13.44 131.59 25.68 -0.98 0.13 -0.12 0.07
-14.17 133.74 27.51 -1.00 -0.03 0.07 0.02
-17.55 130.28 29.98 -0.99 0.03 0.13 0.02
-16.58 132.05 30.97 -0.62 0.66 0.42 -0.02
-13.78 132.86 25.67 -0.90 -0.36 -0.26 -0.04
-15.30 129.47 24.56 -0.82 0.52 -0.22 0.59
-16.87 127.28 29.29 -0.97 -0.23 -0.08 -1.41
-15.62 127.46 26.23 -0.97 -0.07 -0.24 0.33
-13.88 130.24 24.19 -0.68 0.72 -0.14 1.26
-17.25 131.05 30.79 -0.88 0.26 0.39 0.01
-16.92 128.72 30.26 -0.93 -0.34 0.12 -0.02
-13.92 134.52 28.31 -0.97 0.13 -0.20 0.15
-13.11 131.21 24.64 -0.87 0.26 -0.41 0.22
-14.62 134.71 29.40 -0.74 -0.16 -0.66 0.56
-16.23 126.28 28.50 -0.62 -0.69 -0.38 -0.89
-15.22 127.49 24.85 -0.91 -0.25 -0.33 0.97
-14.93 132.65 31.63 -0.75 0.33 0.57 -1.28
-15.17 134.10 30.38 -0.94 -0.29 -0.18 0.14
-14.19 134.75 27.18 -0.95 0.13 0.29 -0.10
-15.26 125.94 28.32 -0.54 -0.75 -0.37 -0.62
-14.61 133.76 26.48 -0.98 -0.18 0.10 -0.02
-14.78 125.98 27.44 -0.54 -0.82 -0.20 -0.14
-15.24 126.14 26.51 -0.76 -0.63 -0.17 0.02
-14.84 133.88 31.66 -0.90 -0.21 0.37 -0.17
-15.61 131.45 31.76 -0.51 0.34 0.79 -0.01
-13.51 133.95 24.63 -0.85 -0.40 -0.35 -0.53
-14.46 134.27 25.49 -0.88 -0.26 -0.41 -0.12
-16.35 130.42 31.77 -0.64 0.19 0.74 0.01
-16.20 126.10 29.90 -0.60 -0.73 0.35 -1.22
-13.24 130.76 23.34 -0.76 0.65 0.01 0.77
-14.69 128.94 23.29 -0.91 0.11 -0.40 0.53
-14.20 135.52 28.86 -0.77 -0.03 -0.63 0.49
-13.79 135.60 28.07 -1.00 0.03 -0.04 -0.07
-15.67 135.14 29.75 -0.72 -0.28 -0.64 0.14
-16.09 127.22 30.88 -0.69 -0.54 0.48 -0.58
-14.94 125.65 29.46 -0.34 -0.91 0.25 -0.84
-16.63 128.59 31.78 -0.82 -0.31 0.49 -0.06
-14.60 127.42 23.61 -0.82 -0.39 -0.42 0.53
-12.37 132.15 23.82 -0.97 0.14 -0.21 -0.06
-14.25 132.83 32.78 -0.89 0.19 0.41 -0.14
-14.20 125.21 28.18 -0.54 -0.83 -0.14 -0.05
-14.61 131.44 32.58 -0.86 0.29 0.43 0.46
-14.35 126.05 25.42 -0.59 -0.77 -0.22 0.39
-14.39 135.74 25.97 -0.98 -0.15 0.09 -0.38
-12.67 132.88 24.19 -0.89 -0.36 -0.28 -0.36
-14.23 130.00 22.03 -1.00 0.02 0.01 0.22
-14.07 136.35 26.85 -0.89 -0.21 0.41 -0.38
-15.49 130.15 32.39 -0.63 0.34 0.70 -0.10
-13.86 134.90 24.04 -0.91 -0.42 -0.05 -1.08
-13.42 134.06 23.55 -0.89 -0.41 0.21 -1.44
-12.46 131.42 23.30 -0.87 0.46 0.19 0.12
-16.12 135.78 30.90 -0.85 -0.49 -0.18 0.34
-14.92 135.01 32.81 -0.74 -0.51 0.44 0.24
-15.62 135.50 32.24 -0.78 -0.53 0.32 0.41
-14.20 134.57 33.49 -0.58 -0.27 0.77 0.07
-13.21 125.40 26.04 -0.70 -0.72 0.01 0.06
-13.88 125.46 30.08 -0.66 -0.54 0.53 0.05
-14.10 137.08 28.87 -0.73 -0.22 -0.65 0.34
-13.97 127.64 22.37 -0.82 -0.28 -0.50 0.16
-15.67 128.72 32.78 -0.80 -0.13 0.59 -0.34
-13.04 131.26 21.87 -0.74 0.24 0.63 0.17
-13.54 124.63 28.92 -0.77 -0.62 -0.16 0.87
-15.41 136.74 29.69 -0.58 -0.11 -0.81 0.81
-12.64 124.86 27.13 -0.63 -0.74 -0.22 0.09
-15.06 127.44 32.11 -0.59 -0.69 0.41 -0.40
-12.83 132.18 22.49 -0.89 -0.21 0.39 -0.14
-13.92 137.41 28.02 -0.94 -0.34 -0.00 -0.06
-13.23 133.65 33.86 -0.34 0.37 0.87 -0.06
-14.36 126.81 31.47 -0.22 -0.87 0.43 0.05
-13.69 132.97 34.28 -0.59 0.68 0.43 0.03
-14.88 130.17 33.24 -0.84 0.28 0.47 0.32
-13.73 126.40 30.77 -0.30 -0.67 0.68 0.08
-14.44 131.97 34.13 -0.93 0.30 0.22 0.08
-15.12 136.73 25.82 -0.79 -0.51 0.35 0.16
-15.07 130.29 21.35 -0.23 -0.54 0.81 0.20
-13.28 126.10 22.84 -0.75 -0.57 -0.33 0.17
-12.95 125.12 24.79 -0.79 -0.60 -0.14 -0.22
-14.77 137.71 27.15 -0.80 -0.46 0.39 0.17
-14.53 130.33 34.19 -0.93 0.02 0.37 0.23
-14.61 136.35 24.09 -0.89 -0.41 -0.19 -1.13
-13.29 130.16 20.28 -0.34 -0.72 -0.61 0.22
-16.30 137.21 29.94 -0.57 -0.26 -0.78 0.83
-16.41 136.66 32.44 -0.78 -0.47 0.42 0.73
-12.78 125.54 30.80 -0.53 -0.15 0.84 0.19
-14.81 136.25 23.06 -1.00 -0.05 0.01 -1.19
-15.13 136.32 33.99 -0.44 -0.37 0.82 0.21
-17.24 137.15 31.11 -0.95 -0.29 -0.14 0.48
-15.60 137.94 29.54 -0.52 -0.23 -0.82 1.40
-12.26 124.09 27.94 -0.80 -0.48 -0.36 0.61
-14.50 135.17 22.11 -0.99 -0.09 0.08 -2.65
-15.06 127.90 33.76 -0.80 -0.17 0.58 -0.97
-14.36 126.92 32.98 -0.44 -0.87 0.24 -0.99
-13.15 126.49 21.72 -0.76 -0.45 -0.48 -0.29
-13.26 124.31 30.68 -0.86 -0.04 0.51 0.31
-13.30 132.57 35.37 -0.26 0.60 0.76 -0.00
-14.78 131.75 21.07 -0.18 0.13 0.98 0.30
-14.80 130.21 19.95 0.09 -0.99 -0.09 0.52
-13.01 136.06 33.49 -0.02 -0.06 1.00 0.32
-13.15 123.50 29.73 -0.90 -0.37 -0.21 0.58
-12.92 128.09 21.04 -0.62 -0.25 -0.74 0.21
-14.04 131.63 35.41 -0.72 0.30 0.62 0.00
-15.90 137.33 24.86 -0.95 -0.28 -0.14 0.05
-12.81 126.89 31.66 -0.01 -0.70 0.71 -0.20
-11.73 133.61 34.22 -0.31 0.46 0.83 -0.74
-12.44 123.84 25.04 -0.86 -0.51 -0.05 -1.06
-14.29 133.05 21.51 -0.59 -0.23 0.77 -1.06
-15.16 138.79 28.70 -0.85 -0.34 -0.40 0.52
-11.78 123.47 26.42 -0.85 -0.53 0.02 -0.11
-15.64 138.32 25.84 -0.98 0.10 0.19 0.33
-12.50 125.06 23.29 -0.75 -0.61 -0.28 -0.02
-12.27 135.06 33.62 -0.25 0.15 0.95 0.03
-15.31 138.98 27.00 -0.99 0.09 0.08 0.68
-14.03 130.42 35.63 -0.52 -0.33 0.79 -0.07
-14.42 137.01 22.10 -0.92 0.30 -0.26 -1.76
-14.38 137.55 23.16 -0.93 0.17 -0.33 -1.22
-13.51 129.11 34.74 -0.29 -0.40 0.87 -0.21
-12.17 124.67 31.38 -0.42 0.42 0.81 -0.00
-14.36 128.43 34.53 -0.47 -0.11 0.87 -0.91
-16.67 138.65 30.16 -0.82 -0.15 -0.55 1.09
-12.30 130.64 19.32 -0.20 -0.89 -0.41 0.54
-16.83 138.06 32.74 -0.85 -0.21 0.49 1.03
-16.45 131.56 21.51 0.21 -0.06 0.97 1.85
-16.87 130.08 20.90 -0.03 -0.90 0.43 0.97
-12.23 123.06 28.56 -0.77 -0.35 -0.53 0.26
-15.79 137.62 33.75 -0.44 -0.24 0.87 0.73
-12.02 129.39 20.15 -0.56 -0.34 -0.75 0.32
-17.22 138.69 31.39 -1.00 0.02 -0.05 0.65
-13.54 127.35 34.05 0.12 -0.76 0.64 -2.15
-12.77 122.48 29.54 -0.96 -0.16 -0.23 -0.06
-11.30 132.68 35.20 0.08 0.60 0.80 -0.13
-11.94 132.13 35.78 0.30 0.24 0.92 -0.06
-15.65 132.75 21.18 0.02 0.11 0.99 0.87
-13.42 137.25 33.93 0.13 0.06 0.99 0.31
-15.29 138.28 24.05 -0.84 0.19 -0.51 0.12
-14.17 135.59 20.67 -0.90 0.42 0.11 -0.83
-11.92 126.11 20.82 -0.32 -0.55 -0.77 0.22
-12.27 125.25 21.85 -0.52 -0.64 -0.56 0.16
-14.97 134.50 21.07 -0.62 0.51 0.60 -0.36
-16.10 129.66 19.50 0.12 -0.99 -0.02 1.17
-12.72 123.55 31.93 -0.79 0.15 0.60 -0.21
-11.72 127.65 20.29 -0.62 -0.28 -0.73 -0.32
-11.49 135.61 33.89 -0.50 0.00 0.87 0.71
-15.09 130.35 18.30 0.15 -0.90 -0.41 0.83
-11.15 124.81 31.72 -0.29 0.25 0.92 -0.21
-15.03 139.85 27.60 -0.76 0.63 -0.17 0.66
-10.52 134.10 34.55 -0.02 -0.15 0.99 -0.19
-11.83 123.84 23.07 -0.69 -0.55 -0.46 -2.01
-12.41 130.89 35.96 0.08 -0.07 0.99 -0.06
-11.72 122.90 24.23 -0.76 -0.60 -0.25 -0.59
-11.68 137.16 33.69 -0.36 0.23 0.90 0.23
-11.01 122.28 27.22 -0.53 -0.83 0.18 0.28
-11.57 127.76 32.49 0.19 -0.83 0.53 -0.55
-15.07 140.56 28.57 -0.27 0.49 -0.83 0.55
-13.51 130.53 18.40 0.17 -0.96 -0.24 0.25
-14.01 137.13 20.97 -0.98 0.22 0.03 -0.70
-14.69 139.99 25.84 -0.81 0.58 -0.08 0.02
-12.32 129.64 35.26 0.16 -0.46 0.87 -0.03
-11.32 124.31 22.07 -0.39 -0.56 -0.73 -1.07
-16.35 139.97 29.21 -0.61 -0.07 -0.79 1.13
-10.84 126.75 31.41 -0.16 -0.35 0.92 -0.69
-13.62 138.34 22.27 -0.95 0.09 -0.28 -1.15
-12.09 121.63 28.94 -0.57 -0.46 -0.68 -0.17
-11.31 128.79 19.52 -0.65 -0.22 -0.73 -0.91
-17.72 130.77 21.79 0.04 -0.35 0.94 1.14
-14.53 138.17 33.98 0.20 0.03 0.98 1.01
-17.61 132.27 21.77 -0.07 0.11 0.99 3.12
-12.27 130.97 18.04 0.07 -0.97 -0.24 0.05
-17.24 129.86 19.45 -0.33 -0.94 -0.07 1.68
-15.83 134.16 20.89 -0.17 0.56 0.81 0.13
-15.53 138.88 34.37 -0.22 -0.19 0.96 1.66
-14.29 136.03 19.73 -0.85 0.09 0.52 -0.08
-10.95 126.62 20.22 -0.44 -0.52 -0.73 0.17
-10.89 122.11 28.23 -0.35 -0.83 -0.44 0.31
-14.22 140.37 28.16 -0.27 0.89 -0.37 0.45
-10.71 125.73 31.48 -0.08 0.16 0.98 -0.32
-10.95 121.49 25.59 -0.60 -0.80 0.03 -0.17
-12.00 128.03 33.82 0.29 -0.77 0.58 -0.32
-14.87 135.21 19.64 -0.71 0.56 0.43 -0.13
-10.80 125.33 21.52 -0.10 -0.57 -0.82 0.09
-10.94 129.73 18.98 -0.61 -0.49 -0.63 0.16
-12.66 122.27 31.98 -0.89 0.15 0.42 -0.71
3 160 129 164
3 129 160 116
3 183 188 143
3 151 183 143
3 151 143 104
3 139 143 188
3 143 101 104
3 170 195 146
3 195 134 146
3 91 97 119
3 97 60 89
3 88 148 86
3 73 86 116
3 86 73 58
3 88 86 58
3 42 73 71
3 73 116 104
3 104 116 151
3 105 70 101
3 100 70 105
3 100 81 70
3 177 125 137
3 177 171 125
3 125 171 163
3 163 171 192
3 130 96 125
3 130 127 96
3 127 130 174
3 102 162 121
3 87 121 110
3 87 110 83
3 83 53 87
3 109 78 110
3 83 110 78
3 78 55 83
3 136 134 109
3 97 109 134
3 134 131 97
3 146 134 136
3 131 134 175
3 78 89 66
3 78 66 46
3 17 22 35
3 43 35 22
3 35 42 17
3 36 17 42
3 42 72 36
3 52 32 36
3 12 36 32
3 106 81 100
3 96 92 65
3 65 92 62
3 65 62 37
3 162 102 135
3 102 112 135
3 135 112 158
3 112 117 158
3 158 117 147
3 107 142 117
3 147 117 142
3 82 80 59
3 80 112 75
3 112 102 75
3 75 102 90
3 53 55 29
3 53 29 25
3 29 55 21
3 55 46 21
3 28 14 21
3 14 22 7
3 37 39 20
3 12 20 10
3 39 23 20
3 20 23 10
3 19 23 31
3 67 98 103
3 98 152 133
3 98 133 103
3 133 132 103
3 67 108 68
3 108 132 173
3 191 180 142
3 169 191 126
3 142 126 191
3 194 169 126
3 123 126 74
3 61 40 41
3 38 59 54
3 38 33 16
3 38 16 40
3 40 16 41
3 41 16 26
3 25 13 16
3 13 25 29
3 29 18 13
3 9 4 18
3 16 4 11
3 4 1 0
3 1 7 5
3 10 5 12
3 5 10 3
3 3 0 5
3 1 5 0
3 19 8 23
3 2 6 11
3 15 19 31
3 27 15 31
3 124 156 150
3 150 156 187
3 126 167 194
3 126 123 167
3 165 123 95
3 128 95 61
3 11 24 34
3 11 15 24
3 15 27 24
3 27 48 64
3 27 64 49
3 115 93 141
3 141 140 182
3 182 140 184
3 140 150 184
3 115 138 99
3 118 99 144
3 144 181 159
3 118 159 190
3 197 176 155
3 155 176 128
3 165 128 176
3 155 128 111
3 128 61 94
3 94 56 77
3 56 61 34
3 56 49 77
3 118 77 64
3 2 11 4
3 2 4 0
3 122 148 164
3 116 160 168
3 116 168 151
3 86 148 122
3 116 86 129
3 129 86 122
3 129 122 164
3 139 101 143
3 58 42 35
3 42 58 73
3 72 42 71
3 72 101 70
3 125 163 130
3 137 125 106
3 81 106 76
3 85 76 125
3 85 125 96
3 125 76 106
3 170 121 178
3 102 121 90
3 87 90 121
3 55 53 83
3 89 78 109
3 97 89 109
3 60 66 89
3 58 35 60
3 58 60 91
3 60 35 43
3 12 17 36
3 32 50 30
3 51 37 30
3 51 30 50
3 65 51 85
3 96 65 85
3 76 50 81
3 50 76 85
3 50 85 51
3 37 51 65
3 179 132 133
3 152 179 133
3 142 107 126
3 82 107 80
3 54 59 75
3 75 59 80
3 87 54 90
3 90 54 75
3 66 43 46
3 43 66 60
3 17 7 22
3 5 7 17
3 5 17 12
3 20 12 30
3 20 30 37
3 30 12 32
3 8 10 23
3 63 44 84
3 84 44 68
3 23 44 31
3 63 31 44
3 67 68 44
3 120 98 92
3 92 98 62
3 62 98 67
3 62 67 45
3 45 67 44
3 124 108 156
3 189 196 153
3 196 156 153
3 189 153 173
3 173 153 108
3 108 153 156
3 179 173 132
3 107 82 126
3 126 82 74
3 74 40 61
3 40 74 82
3 38 40 59
3 4 13 18
3 13 4 16
3 0 3 2
3 6 2 3
3 6 3 8
3 6 8 19
3 10 8 3
3 11 6 15
3 15 6 19
3 48 27 31
3 84 69 57
3 48 69 84
3 63 84 57
3 31 63 57
3 31 57 48
3 48 57 69
3 114 64 79
3 93 64 114
3 124 114 79
3 124 79 84
3 84 79 48
3 64 48 79
3 150 114 124
3 172 185 138
3 138 198 144
3 144 198 181
3 95 128 165
3 74 61 95
3 99 118 64
3 93 115 64
3 64 115 99
3 161 172 115
3 161 115 157
3 99 138 144
3 94 111 128
3 64 77 49
3 149 148 113
3 88 113 148
3 113 166 149
3 166 113 119
3 119 113 88
3 119 88 91
3 97 91 60
3 104 101 72
3 105 145 137
3 105 137 100
3 105 101 139
3 105 139 145
3 163 174 130
3 109 110 146
3 109 146 136
3 170 146 121
3 110 121 146
3 131 166 119
3 131 119 97
3 131 175 166
3 88 58 91
3 70 36 72
3 36 70 52
3 32 52 50
3 50 52 81
3 81 52 70
3 137 106 100
3 127 92 96
3 127 174 152
3 112 80 117
3 117 80 107
3 55 78 46
3 28 46 22
3 22 46 43
3 22 14 28
3 23 39 45
3 45 39 62
3 45 44 23
3 39 37 62
3 120 127 152
3 152 98 120
3 120 92 127
3 103 132 108
3 67 103 108
3 199 158 147
3 142 180 147
3 33 47 25
3 47 53 25
3 25 16 33
3 33 38 54
3 33 54 47
3 47 54 87
3 47 87 53
3 18 21 9
3 21 18 29
3 14 7 9
3 14 9 21
3 46 28 21
3 9 1 4
3 7 1 9
3 68 108 124
3 68 124 84
3 123 165 167
3 123 74 95
3 41 26 34
3 41 34 61
3 16 11 26
3 34 26 11
3 150 140 114
3 93 114 140
3 93 140 141
3 157 115 141
3 186 157 141
3 172 138 115
3 61 56 94
3 24 49 34
3 49 24 27
3 34 49 56
3 144 159 118
3 190 154 118
3 155 111 154
3 155 154 197
3 154 111 118
3 111 94 77
3 77 118 111
3 104 72 71
3 104 71 73
3 59 40 82
3 121 162 193
3 121 193 178
