ply
format ascii 1.0
comment Generated by MaSIF
element vertex 200
property float x
property float y
property float z
property float nx
property float ny
property float nz
property float charge
element face 344
property list uchar int vertex_indices
end_header
-14.92 133.62 28.50 -0.61 -0.37 -0.70 0.56
-14.47 134.34 27.86 -0.66 -0.24 -0.71 0.49
-15.59 133.19 29.50 -0.88 -0.41 -0.24 0.14
-16.04 134.02 28.58 -0.59 -0.48 -0.66 0.14
-14.05 133.28 27.59 -0.93 -0.01 -0.36 0.15
-14.60 132.14 28.46 -0.82 0.09 -0.56 -0.26
-13.95 134.28 27.14 -0.98 -0.07 -0.19 -0.07
-15.46 133.29 30.83 -0.94 -0.21 0.28 -0.17
-15.63 132.08 29.61 -0.83 0.42 -0.36 -0.74
-16.71 134.85 29.47 -0.78 -0.60 -0.19 0.34
-14.12 132.31 26.97 -0.99 -0.11 -0.07 0.02
-14.47 135.86 27.52 -0.60 -0.43 -0.68 0.34
-14.14 133.23 26.42 -0.99 0.10 0.11 -0.10
-15.87 135.59 28.19 -0.43 -0.34 -0.84 0.81
-15.03 130.87 28.09 -0.45 0.30 -0.84 -0.02
-14.17 136.02 26.65 -0.90 -0.42 -0.06 -0.06
-14.06 131.00 27.21 -0.81 -0.21 -0.55 0.02
-16.42 134.91 30.91 -0.79 -0.52 0.32 0.41
-14.07 134.72 25.75 -0.93 -0.20 0.32 -0.38
-15.47 132.09 31.07 -0.85 0.37 0.36 -1.28
-14.38 132.08 25.91 -0.97 -0.25 -0.00 -0.02
-16.81 136.02 28.20 -0.42 -0.47 -0.77 0.83
-15.79 134.63 31.66 -0.77 -0.47 0.44 0.24
-16.11 136.70 27.75 -0.36 -0.46 -0.81 1.40
-15.00 132.57 32.24 -0.96 0.18 0.22 -0.14
-15.47 129.98 27.84 -0.23 0.24 -0.94 0.08
-15.97 130.85 28.55 -0.43 0.60 -0.67 0.02
-17.30 136.01 30.71 -0.81 -0.44 0.40 0.73
-16.95 131.20 30.33 -0.72 0.68 0.16 -0.02
-17.93 136.12 29.20 -0.89 -0.40 -0.21 0.48
-15.17 134.42 32.52 -0.68 -0.15 0.72 0.07
-14.20 133.91 25.00 -0.98 -0.22 -0.02 -0.38
-13.27 130.30 26.82 -0.87 -0.25 -0.42 0.00
-13.37 131.10 25.46 -0.82 -0.49 -0.30 -0.04
-14.88 136.04 25.63 -0.82 -0.44 0.36 0.17
-14.68 129.33 27.71 -0.17 0.15 -0.97 0.10
-15.59 137.39 26.81 -0.76 -0.50 -0.43 0.52
-14.10 132.37 24.86 -0.78 -0.42 -0.46 -0.12
-13.75 129.74 27.59 -0.59 0.00 -0.81 -0.25
-16.09 130.88 31.37 -0.65 0.45 0.61 -0.01
-14.95 134.76 24.51 -0.80 -0.49 0.34 0.16
-17.03 130.69 29.10 -0.75 0.50 -0.43 0.03
-17.30 137.42 28.03 -0.71 -0.34 -0.61 1.09
-16.27 136.14 32.47 -0.54 -0.22 0.81 0.21
-15.23 131.14 32.31 -0.93 0.29 0.22 0.46
-17.52 130.12 30.30 -0.95 0.25 0.19 0.01
-16.80 129.41 28.15 -0.59 0.18 -0.79 0.06
-14.22 133.70 33.23 -0.50 0.51 0.70 -0.06
-17.85 137.40 30.62 -0.90 -0.18 0.39 1.03
-14.70 133.09 33.73 -0.69 0.70 0.17 0.03
-14.02 128.78 27.45 -0.47 0.44 -0.76 0.06
-12.97 129.90 25.80 -0.96 0.01 -0.29 0.07
-15.36 132.02 33.70 -0.97 0.25 0.01 0.08
-18.05 137.68 29.12 -0.98 -0.09 -0.19 0.65
-16.97 137.29 31.84 -0.56 -0.08 0.83 0.73
-15.47 137.18 25.11 -1.00 0.01 -0.09 0.68
-16.75 129.81 31.52 -0.76 0.28 0.58 0.01
-15.41 127.97 27.78 -0.50 -0.02 -0.87 0.12
-13.00 131.96 24.25 -0.75 -0.54 -0.37 -0.53
-14.09 135.98 32.36 -0.18 0.16 0.97 0.32
-15.34 138.19 25.53 -0.76 0.50 -0.42 0.66
-15.56 136.26 24.09 -1.00 0.05 0.01 0.33
-13.37 128.76 26.78 -0.82 0.42 -0.38 0.37
-15.58 139.09 26.29 -0.16 0.27 -0.95 0.55
-14.14 134.07 23.01 -0.82 -0.53 -0.22 -1.13
-17.64 129.17 29.65 -1.00 -0.04 -0.02 0.02
-13.31 132.72 23.41 -0.86 -0.51 -0.08 -1.08
-16.91 138.53 26.86 -0.47 -0.30 -0.83 1.13
-15.60 135.07 23.34 -0.90 -0.39 -0.21 0.05
-15.99 129.76 32.29 -0.75 0.42 0.51 -0.10
-12.45 129.34 24.94 -0.81 0.08 -0.58 0.22
-14.47 132.97 34.93 -0.41 0.72 0.55 -0.00
-15.53 130.03 33.20 -0.92 0.30 0.26 0.32
-17.29 128.14 28.77 -0.80 -0.39 -0.45 -0.01
-15.79 137.99 32.13 0.04 0.26 0.97 1.01
-15.15 132.00 35.07 -0.83 0.36 0.42 0.00
-14.63 137.19 32.45 -0.03 0.29 0.96 0.31
-12.79 133.88 33.81 -0.47 0.59 0.65 -0.74
-14.66 138.89 26.06 -0.26 0.76 -0.60 0.45
-16.88 138.67 32.19 -0.36 -0.00 0.93 1.66
-17.87 139.18 27.42 -0.88 -0.21 -0.43 -0.00
-15.35 130.42 34.13 -0.98 0.01 0.22 0.23
-14.72 127.68 26.55 -0.83 0.39 -0.39 0.43
-12.75 131.84 23.20 -0.88 -0.43 0.17 -1.44
-13.32 135.11 32.82 -0.42 0.33 0.85 0.03
-13.56 128.43 25.74 -0.72 0.62 -0.31 1.03
-14.16 133.73 22.02 -0.98 -0.14 -0.12 -1.19
-14.73 137.97 23.85 -0.82 0.47 -0.33 0.02
-14.66 139.83 26.95 0.07 0.59 -0.81 0.46
-16.25 140.09 26.37 -0.07 0.08 -0.99 0.76
-12.05 130.91 24.19 -0.81 -0.50 -0.32 -0.36
-16.93 128.01 31.90 -0.86 -0.28 0.42 -0.06
-13.83 135.06 21.88 -0.87 0.00 -0.49 -1.22
-16.47 127.18 28.95 -0.77 -0.37 -0.51 -0.39
-14.92 135.87 22.44 -0.75 -0.00 -0.66 0.12
-12.63 135.78 33.07 -0.63 0.15 0.76 0.71
-18.16 139.62 30.76 -0.94 -0.13 0.30 0.49
-12.88 137.22 32.49 -0.52 0.39 0.76 0.23
-15.46 126.05 28.30 -0.78 -0.41 -0.47 -0.61
-16.15 128.44 32.98 -0.87 -0.08 0.48 -0.34
-16.97 127.78 30.37 -0.92 -0.39 0.06 -0.02
-12.48 133.24 35.03 -0.09 0.76 0.64 -0.13
-15.11 130.87 35.56 -0.62 -0.20 0.76 -0.07
-13.17 132.76 35.62 0.13 0.47 0.88 -0.06
-17.53 140.19 26.85 -0.67 0.01 -0.74 0.53
-13.08 128.22 24.62 -0.69 0.60 -0.40 1.26
-11.64 130.14 24.04 -0.93 0.00 -0.37 -0.06
-12.34 128.61 23.77 -0.79 0.56 -0.25 0.77
-13.48 138.88 24.32 -0.63 0.75 -0.19 -0.28
-11.69 134.54 34.19 -0.18 0.06 0.98 -0.19
-13.64 132.50 21.39 -0.99 -0.16 -0.05 -2.65
-15.30 141.28 27.29 0.41 0.67 -0.61 0.59
-15.04 139.11 31.35 0.24 0.22 0.94 0.52
-13.59 139.59 26.38 -0.63 0.55 -0.55 0.40
-13.59 131.56 36.01 -0.07 0.15 0.99 -0.06
-13.67 134.30 20.98 -0.88 0.14 -0.45 -1.76
-16.93 141.15 26.58 -0.29 0.54 -0.79 0.66
-13.43 138.00 31.79 -0.18 0.48 0.86 -0.06
-14.37 129.45 35.08 -0.40 -0.23 0.89 -0.21
-17.25 140.25 31.98 -0.15 0.04 0.99 0.61
-18.07 141.01 28.52 -0.92 0.22 -0.33 0.24
-14.31 140.89 27.75 -0.10 0.71 -0.70 0.33
-14.48 127.42 24.94 -0.80 0.38 -0.46 0.59
-16.68 126.17 29.76 -0.93 -0.33 -0.16 -1.41
-15.66 127.92 34.19 -0.87 -0.11 0.48 -0.97
-14.95 125.80 26.97 -0.91 -0.21 -0.36 0.33
-13.00 135.70 20.94 -0.90 -0.07 -0.43 -1.15
-11.88 129.84 22.69 -0.93 -0.21 0.30 -0.14
-11.60 129.31 23.70 -0.91 0.40 -0.05 0.12
-13.92 139.01 31.32 -0.07 0.21 0.97 0.10
-16.16 126.53 31.43 -0.73 -0.49 0.49 -0.58
-12.16 138.43 32.18 -0.63 0.27 0.73 -0.29
-13.98 136.98 21.88 -0.92 -0.10 -0.37 -0.74
-15.85 125.09 29.34 -0.51 -0.81 -0.30 -0.89
-15.37 127.11 32.71 -0.61 -0.64 0.47 -0.40
-14.34 125.57 25.69 -0.83 -0.40 -0.39 0.97
-14.01 138.59 22.15 -0.91 0.36 0.18 -0.09
-18.45 141.32 30.75 -0.93 0.18 0.31 0.47
-14.85 124.82 29.38 -0.43 -0.86 -0.26 -0.62
-12.03 137.12 33.96 -0.76 0.27 0.59 -0.16
-14.24 124.71 28.59 -0.45 -0.89 -0.08 -0.14
-14.55 124.62 27.60 -0.68 -0.72 -0.13 0.02
-11.67 131.47 35.08 0.56 0.13 0.81 -0.08
-10.42 134.05 33.66 0.31 -0.33 0.89 -0.55
-15.90 139.96 31.51 0.31 0.07 0.95 0.59
-13.64 126.69 23.93 -0.83 -0.07 -0.55 0.53
-16.45 141.99 27.67 -0.03 0.86 -0.51 0.62
-13.32 130.20 35.64 0.04 -0.25 0.97 -0.03
-13.09 134.21 19.92 -0.98 0.12 -0.17 -0.70
-15.13 128.67 34.91 -0.60 0.04 0.80 -0.91
-14.92 141.27 28.62 0.23 0.89 -0.39 0.18
-13.21 130.34 21.33 -0.70 -0.11 0.71 -1.06
-13.05 127.48 22.54 -0.99 -0.07 -0.14 0.22
-12.99 139.36 23.02 -0.76 0.62 0.19 -0.06
-11.93 128.79 22.27 -0.85 0.30 0.44 0.17
-13.11 132.63 19.96 -0.93 0.34 -0.12 -0.83
-14.78 126.87 33.77 -0.42 -0.83 0.36 -0.99
-13.89 131.59 20.48 -0.74 0.56 0.37 -0.36
-10.17 135.04 34.26 0.14 -0.53 0.83 -0.35
-14.04 141.43 28.85 -0.33 0.83 -0.46 0.38
-14.59 140.46 31.17 -0.18 -0.23 0.96 0.27
-17.34 141.66 31.90 -0.25 0.37 0.90 0.88
-12.79 139.22 31.45 -0.42 -0.04 0.91 -0.08
-16.04 125.22 30.73 -0.60 -0.69 0.41 -1.22
-10.93 132.83 33.72 0.58 0.06 0.81 -0.96
-12.24 140.23 24.14 -0.87 0.43 -0.24 0.12
-14.18 127.60 34.82 0.06 -0.59 0.81 -2.15
-13.29 141.64 27.50 -0.89 0.32 -0.31 0.31
-12.60 140.35 25.01 -0.85 0.30 -0.43 0.23
-17.98 142.35 29.62 -0.68 0.73 -0.13 0.91
-14.53 126.43 32.34 -0.24 -0.78 0.58 0.05
-15.72 140.93 31.47 0.15 -0.02 0.99 0.38
-11.19 136.29 35.08 -0.34 -0.10 0.93 -0.20
-11.24 139.23 32.96 -0.71 0.29 0.64 -0.39
-17.70 142.31 30.81 -0.46 0.79 0.39 0.49
-13.34 136.73 20.17 -0.88 -0.46 -0.12 -0.44
-16.87 142.61 28.71 -0.15 0.87 -0.47 1.45
-14.70 124.81 30.59 -0.32 -0.86 0.40 -0.84
-12.66 128.35 34.67 0.23 -0.59 0.77 -0.32
-12.64 135.24 19.68 -0.99 0.06 0.16 -0.25
-14.18 137.71 20.89 -0.94 -0.33 -0.03 -0.21
-14.10 139.54 21.27 -0.82 0.50 0.27 -0.05
-13.51 125.29 24.60 -0.71 -0.55 -0.43 0.53
-12.86 141.35 25.58 -0.90 -0.08 -0.42 0.26
-15.42 142.18 29.43 0.43 0.80 -0.42 0.28
-13.74 124.18 29.56 -0.46 -0.89 -0.02 -0.05
-12.12 129.64 35.51 0.29 -0.28 0.91 -0.16
-10.90 137.52 34.80 -0.59 0.31 0.75 -0.75
-13.49 124.38 26.69 -0.50 -0.86 -0.12 0.39
-14.69 131.13 20.26 -0.33 0.70 0.63 0.13
-14.52 141.94 29.52 -0.23 0.62 -0.75 0.34
-13.10 135.96 19.17 -0.89 -0.23 0.40 -0.06
-13.42 134.18 18.87 -0.83 -0.03 0.56 0.13
-11.99 140.08 32.51 -0.56 -0.29 0.77 0.02
-13.09 132.84 18.94 -0.93 0.11 0.35 -0.08
-10.07 132.77 33.26 0.29 0.04 0.96 -0.37
-11.04 138.56 33.79 -0.74 0.48 0.48 -1.53
-12.88 140.26 22.04 -0.64 0.69 0.34 -0.04
-16.23 142.22 31.49 0.02 0.47 0.88 0.41
-13.79 127.54 21.70 -0.32 -0.37 0.87 0.20
3 187 196 139
3 174 161 198
3 164 143 109
3 139 95 109
3 97 117 76
3 76 117 129
3 139 173 97
3 131 97 173
3 173 193 131
3 171 198 161
3 144 171 119
3 112 144 119
3 112 119 79
3 96 79 119
3 120 176 146
3 146 176 184
3 146 184 111
3 109 142 164
3 109 101 142
3 95 84 109
3 84 95 59
3 76 129 74
3 74 129 112
3 74 112 79
3 74 79 54
3 76 74 54
3 76 54 43
3 48 54 79
3 54 27 43
3 53 120 42
3 42 120 80
3 67 89 63
3 89 111 63
3 113 183 168
3 178 186 118
3 178 118 166
3 147 186 142
3 52 81 75
3 81 44 72
3 49 101 47
3 30 47 59
3 47 30 24
3 49 47 24
3 7 30 22
3 30 59 43
3 43 59 76
3 29 9 27
3 21 9 29
3 21 13 9
3 67 36 42
3 67 63 36
3 36 63 60
3 60 63 78
3 55 34 36
3 55 61 34
3 61 55 87
3 108 168 165
3 136 153 197
3 153 136 108
3 108 136 87
3 87 136 132
3 170 156 134
3 134 130 170
3 124 99 156
3 134 156 99
3 99 91 134
3 149 118 124
3 81 124 118
3 118 102 81
3 166 118 149
3 102 118 147
3 99 72 69
3 99 69 56
3 8 28 19
3 39 19 28
3 19 7 8
3 2 8 7
3 7 17 2
3 3 0 2
3 5 2 0
3 23 13 21
3 34 40 18
3 18 40 31
3 18 31 12
3 175 132 180
3 94 87 132
3 132 136 180
3 130 91 100
3 130 100 123
3 100 91 65
3 91 56 65
3 45 41 65
3 41 28 26
3 12 20 10
3 5 10 16
3 20 33 10
3 10 33 16
3 51 33 70
3 66 64 86
3 64 94 92
3 64 92 86
3 92 115 86
3 66 110 83
3 110 115 148
3 188 140 141
3 138 185 177
3 138 133 98
3 138 98 140
3 140 98 141
3 141 98 125
3 123 93 98
3 93 123 100
3 100 73 93
3 46 57 73
3 98 57 82
3 57 25 35
3 25 26 14
3 16 14 5
3 14 16 38
3 38 35 14
3 25 14 35
3 51 32 33
3 50 62 82
3 85 51 70
3 105 85 70
3 82 122 135
3 82 85 122
3 85 105 122
3 105 107 152
3 105 152 145
3 182 188 135
3 50 82 57
3 50 57 35
3 121 88 111
3 196 173 139
3 143 158 109
3 77 101 109
3 59 95 97
3 59 97 76
3 97 95 139
3 97 131 117
3 162 117 131
3 162 131 193
3 160 171 112
3 112 171 144
3 150 111 184
3 150 190 159
3 190 150 184
3 150 159 111
3 121 111 159
3 159 167 121
3 195 143 164
3 47 101 77
3 59 47 84
3 84 47 77
3 84 77 109
3 129 160 112
3 117 162 129
3 48 27 54
3 113 78 88
3 111 88 63
3 63 88 78
3 113 88 121
3 113 121 167
3 183 113 167
3 147 118 186
3 24 7 19
3 7 24 30
3 17 7 22
3 17 27 9
3 36 60 55
3 42 36 23
3 13 23 11
3 15 11 36
3 15 36 34
3 36 11 23
3 153 108 165
3 91 130 134
3 72 99 124
3 81 72 124
3 44 69 72
3 24 19 44
3 24 44 52
3 44 19 39
3 5 8 2
3 0 1 4
3 6 12 4
3 6 4 1
3 18 6 15
3 34 18 15
3 11 1 13
3 1 11 15
3 1 15 6
3 12 6 18
3 126 115 92
3 126 132 175
3 132 126 94
3 94 126 92
3 69 39 56
3 39 69 44
3 8 26 28
3 14 26 8
3 14 8 5
3 10 5 4
3 10 4 12
3 4 5 0
3 32 16 33
3 90 58 127
3 127 58 83
3 33 58 70
3 90 70 58
3 66 83 58
3 68 64 40
3 40 64 31
3 31 64 66
3 31 66 37
3 37 66 58
3 151 110 157
3 194 155 148
3 192 194 148
3 148 155 110
3 110 155 157
3 179 148 126
3 191 179 126
3 191 126 175
3 126 148 115
3 148 179 192
3 192 179 191
3 138 140 185
3 57 93 73
3 93 57 98
3 35 38 50
3 62 50 38
3 62 38 32
3 62 32 51
3 16 32 38
3 82 62 85
3 85 62 51
3 107 105 70
3 127 128 106
3 107 128 127
3 90 127 106
3 70 90 106
3 70 106 107
3 107 106 128
3 151 154 127
3 127 154 107
3 152 107 154
3 172 139 109
3 172 187 139
3 172 109 158
3 161 174 137
3 161 137 119
3 119 137 96
3 171 161 119
3 120 137 169
3 169 137 174
3 137 120 96
3 169 176 120
3 103 142 101
3 103 114 142
3 48 79 96
3 96 120 53
3 104 89 67
3 104 67 80
3 104 80 120
3 42 80 67
3 116 89 104
3 116 104 120
3 116 120 146
3 146 111 116
3 111 89 116
3 103 101 71
3 49 71 101
3 71 114 103
3 147 142 114
3 114 71 75
3 75 71 49
3 75 49 52
3 81 52 44
3 43 27 17
3 53 48 96
3 29 53 42
3 29 42 21
3 29 27 48
3 29 48 53
3 60 108 87
3 60 87 55
3 168 108 113
3 197 181 136
3 124 156 166
3 124 166 149
3 102 114 75
3 102 75 81
3 102 147 114
3 49 24 52
3 9 2 17
3 2 9 3
3 0 3 1
3 1 3 13
3 13 3 9
3 42 23 21
3 61 40 34
3 61 87 94
3 91 99 56
3 45 56 28
3 28 56 39
3 28 41 45
3 33 20 37
3 37 20 31
3 37 58 33
3 20 12 31
3 68 61 94
3 94 64 68
3 68 40 61
3 86 115 110
3 66 86 110
3 133 163 123
3 163 130 123
3 123 98 133
3 133 138 177
3 133 177 163
3 163 177 170
3 163 170 130
3 73 65 46
3 65 73 100
3 41 26 46
3 41 46 65
3 56 45 65
3 46 25 57
3 26 25 46
3 83 110 151
3 83 151 127
3 141 125 135
3 141 135 188
3 98 82 125
3 135 125 82
3 122 145 135
3 145 122 105
3 135 145 182
3 43 17 22
3 43 22 30
3 108 60 78
3 108 78 113
