ply
format ascii 1.0
comment Generated by MaSIF
element vertex 200
property float x
property float y
property float z
property float nx
property float ny
property float nz
property float charge
element face 347
property list uchar int vertex_indices
end_header
-14.48 132.13 28.56 -0.81 0.15 -0.56 -0.26
-14.95 130.89 28.13 -0.43 0.36 -0.83 -0.02
-15.53 132.05 29.70 -0.81 0.47 -0.34 -0.74
-13.89 133.28 27.75 -0.93 0.04 -0.37 0.15
-14.76 133.61 28.67 -0.61 -0.32 -0.72 0.56
-13.99 132.35 27.08 -0.99 -0.07 -0.08 0.02
-13.97 131.03 27.25 -0.81 -0.15 -0.57 0.02
-15.46 133.16 29.64 -0.89 -0.37 -0.27 0.14
-15.42 130.03 27.83 -0.21 0.29 -0.93 0.08
-15.90 130.87 28.58 -0.41 0.64 -0.65 0.02
-14.28 134.34 28.07 -0.66 -0.18 -0.73 0.49
-13.76 134.30 27.35 -0.98 -0.03 -0.20 -0.07
-13.98 133.29 26.58 -0.99 0.13 0.11 -0.10
-15.38 131.97 31.16 -0.84 0.38 0.38 -1.28
-14.25 132.18 26.01 -0.98 -0.22 -0.02 -0.02
-15.86 134.04 28.76 -0.60 -0.42 -0.68 0.14
-13.20 130.32 26.84 -0.88 -0.20 -0.43 0.00
-15.33 133.19 30.98 -0.95 -0.19 0.26 -0.17
-14.65 129.36 27.68 -0.16 0.21 -0.97 0.10
-13.71 129.75 27.58 -0.58 0.06 -0.81 -0.25
-16.88 131.17 30.37 -0.70 0.69 0.19 -0.02
-16.97 130.72 29.11 -0.73 0.55 -0.41 0.03
-13.27 131.20 25.52 -0.83 -0.45 -0.33 -0.04
-16.52 134.85 29.69 -0.79 -0.57 -0.22 0.34
-13.95 132.51 24.98 -0.79 -0.37 -0.49 -0.12
-16.77 129.48 28.11 -0.58 0.24 -0.78 0.06
-14.00 128.80 27.39 -0.45 0.49 -0.74 0.06
-12.91 129.97 25.81 -0.95 0.05 -0.30 0.07
-16.24 134.83 31.13 -0.81 -0.51 0.28 0.41
-14.90 132.38 32.35 -0.95 0.20 0.22 -0.14
-16.04 130.77 31.40 -0.64 0.45 0.62 -0.01
-14.23 135.88 27.81 -0.61 -0.37 -0.70 0.34
-13.85 134.81 25.98 -0.94 -0.18 0.30 -0.38
-14.00 134.04 25.19 -0.98 -0.18 -0.04 -0.38
-17.48 130.11 30.28 -0.94 0.27 0.19 0.01
-15.18 130.96 32.35 -0.92 0.31 0.23 0.46
-15.64 135.62 28.45 -0.43 -0.28 -0.86 0.81
-15.43 128.02 27.67 -0.49 0.04 -0.87 0.12
-13.35 128.79 26.73 -0.81 0.47 -0.36 0.37
-13.92 136.07 26.95 -0.92 -0.39 -0.09 -0.06
-15.63 134.49 31.87 -0.78 -0.47 0.41 0.24
-16.74 129.72 31.49 -0.76 0.28 0.59 0.01
-15.02 134.22 32.73 -0.69 -0.16 0.70 0.07
-17.63 129.20 29.58 -1.00 -0.01 -0.03 0.02
-12.40 129.43 24.93 -0.80 0.14 -0.58 0.22
-12.87 132.10 24.35 -0.77 -0.50 -0.40 -0.53
-17.31 128.20 28.66 -0.81 -0.34 -0.47 -0.01
-16.58 136.08 28.48 -0.43 -0.42 -0.80 0.83
-17.08 135.97 30.98 -0.82 -0.43 0.37 0.73
-17.70 136.17 29.48 -0.90 -0.36 -0.23 0.48
-14.73 127.77 26.44 -0.82 0.44 -0.37 0.43
-13.14 132.91 23.55 -0.87 -0.47 -0.11 -1.08
-15.84 136.76 28.06 -0.37 -0.40 -0.84 1.40
-15.98 129.61 32.26 -0.74 0.42 0.52 -0.10
-14.73 134.95 24.74 -0.82 -0.48 0.31 0.16
-14.09 133.43 33.41 -0.48 0.49 0.72 -0.06
-13.55 128.52 25.67 -0.70 0.66 -0.28 1.03
-14.60 132.82 33.87 -0.67 0.71 0.20 0.03
-15.52 129.82 33.18 -0.91 0.31 0.27 0.32
-15.29 131.77 33.79 -0.96 0.28 0.01 0.08
-14.62 136.16 25.92 -0.84 -0.43 0.33 0.17
-16.06 135.98 32.75 -0.56 -0.24 0.79 0.21
-16.51 127.21 28.79 -0.78 -0.32 -0.54 -0.39
-13.93 134.30 23.22 -0.84 -0.49 -0.25 -1.13
-15.54 126.08 28.10 -0.79 -0.36 -0.50 -0.61
-15.34 130.16 34.13 -0.98 0.03 0.21 0.23
-15.29 137.48 27.16 -0.77 -0.45 -0.46 0.52
-12.61 132.02 23.30 -0.90 -0.41 0.14 -1.44
-11.94 131.02 24.25 -0.82 -0.46 -0.35 -0.36
-13.06 128.35 24.54 -0.67 0.64 -0.37 1.26
-11.56 130.25 24.07 -0.92 0.05 -0.38 -0.06
-12.30 128.75 23.72 -0.77 0.59 -0.23 0.77
-16.97 127.91 31.78 -0.87 -0.27 0.40 -0.06
-13.89 135.75 32.64 -0.18 0.12 0.98 0.32
-17.01 127.75 30.24 -0.93 -0.37 0.03 -0.02
-14.39 132.64 35.06 -0.40 0.71 0.58 -0.00
-17.02 137.50 28.37 -0.72 -0.29 -0.63 1.09
-15.36 135.32 23.59 -0.91 -0.35 -0.23 0.05
-17.58 137.38 30.96 -0.91 -0.17 0.38 1.03
-16.19 128.26 32.88 -0.88 -0.07 0.47 -0.34
-17.76 137.73 29.47 -0.98 -0.04 -0.21 0.65
-16.71 137.18 32.17 -0.57 -0.10 0.82 0.73
-15.09 131.68 35.15 -0.82 0.37 0.43 0.00
-15.17 137.35 25.45 -0.99 0.04 -0.10 0.68
-15.28 136.48 24.39 -1.00 0.08 0.01 0.33
-14.49 127.58 24.82 -0.79 0.43 -0.44 0.59
-12.67 133.54 34.00 -0.46 0.58 0.68 -0.74
-16.77 126.17 29.56 -0.94 -0.29 -0.19 -1.41
-13.95 134.01 22.21 -0.99 -0.10 -0.13 -1.19
-15.03 125.88 26.76 -0.91 -0.17 -0.37 0.33
-13.15 134.83 33.07 -0.41 0.30 0.86 0.03
-11.54 129.43 23.69 -0.90 0.44 -0.03 0.12
-13.58 135.33 22.13 -0.87 0.06 -0.50 -1.22
-15.97 125.08 29.09 -0.53 -0.77 -0.34 -0.89
-13.47 132.80 21.53 -0.99 -0.13 -0.06 -2.65
-15.09 130.52 35.59 -0.63 -0.22 0.74 -0.07
-14.39 136.98 32.79 -0.03 0.24 0.97 0.31
-15.01 138.33 25.92 -0.74 0.55 -0.40 0.66
-14.41 125.69 25.48 -0.84 -0.35 -0.42 0.97
-14.39 129.11 35.05 -0.42 -0.26 0.87 -0.21
-15.23 139.20 26.72 -0.14 0.32 -0.94 0.55
-14.98 124.78 29.12 -0.45 -0.84 -0.31 -0.62
-14.36 124.69 28.33 -0.48 -0.87 -0.13 -0.14
-15.72 127.67 34.07 -0.88 -0.11 0.47 -0.97
-14.67 124.65 27.33 -0.70 -0.69 -0.17 0.02
-16.58 138.66 27.26 -0.47 -0.24 -0.85 1.13
-12.39 132.83 35.18 -0.07 0.73 0.68 -0.13
-14.64 136.15 22.72 -0.75 0.05 -0.66 0.12
-11.79 130.02 22.70 -0.94 -0.19 0.28 -0.14
-13.10 132.35 35.75 0.13 0.42 0.90 -0.06
-13.67 126.87 23.78 -0.83 -0.01 -0.55 0.53
-15.52 137.83 32.50 0.04 0.21 0.98 1.01
-16.25 126.43 31.24 -0.75 -0.49 0.46 -0.58
-13.04 127.71 22.43 -0.99 -0.03 -0.15 0.22
-11.88 129.00 22.23 -0.84 0.31 0.45 0.17
-15.45 126.92 32.56 -0.63 -0.64 0.43 -0.40
-12.44 135.47 33.35 -0.63 0.13 0.76 0.71
-12.64 136.95 32.84 -0.51 0.36 0.78 0.23
-16.59 138.54 32.59 -0.37 -0.04 0.93 1.66
-13.43 134.61 21.20 -0.87 0.19 -0.45 -1.76
-11.55 134.15 34.42 -0.18 0.02 0.98 -0.19
-16.16 125.15 30.48 -0.62 -0.69 0.38 -1.22
-13.55 131.14 36.08 -0.08 0.11 0.99 -0.06
-14.39 138.17 24.24 -0.80 0.51 -0.31 0.02
-14.32 138.98 26.50 -0.23 0.80 -0.56 0.45
-17.52 139.31 27.85 -0.88 -0.16 -0.45 -0.00
-15.18 128.36 34.83 -0.61 0.02 0.79 -0.91
-14.84 124.71 30.33 -0.35 -0.87 0.36 -0.84
-13.10 130.62 21.36 -0.70 -0.12 0.70 -1.06
-14.88 126.61 33.61 -0.45 -0.83 0.32 -0.99
-13.32 129.80 35.64 0.02 -0.29 0.96 -0.03
-13.59 125.44 24.38 -0.73 -0.51 -0.46 0.53
-12.71 135.99 21.24 -0.90 -0.02 -0.44 -1.15
-14.29 139.87 27.43 0.10 0.62 -0.78 0.46
-15.87 140.21 26.85 -0.05 0.13 -0.99 0.76
-17.83 139.60 31.20 -0.95 -0.12 0.29 0.49
-13.89 124.09 29.28 -0.49 -0.87 -0.07 -0.05
-12.91 132.97 20.11 -0.92 0.38 -0.11 -0.83
-13.73 131.93 20.56 -0.72 0.57 0.39 -0.36
-13.16 137.77 32.17 -0.17 0.45 0.88 -0.06
-13.61 124.42 26.43 -0.53 -0.83 -0.17 0.39
-14.26 127.27 34.69 0.03 -0.63 0.78 -2.15
-14.63 126.23 32.16 -0.27 -0.80 0.54 0.05
-12.72 127.97 34.59 0.21 -0.64 0.74 -0.32
-17.14 140.34 27.33 -0.66 0.06 -0.75 0.53
-13.66 137.25 22.23 -0.92 -0.05 -0.38 -0.74
-13.77 127.83 21.59 -0.34 -0.41 0.85 0.20
-12.84 134.55 20.14 -0.97 0.16 -0.17 -0.70
-12.78 125.47 23.24 -0.72 -0.41 -0.56 0.16
-14.73 138.96 31.78 0.24 0.17 0.96 0.52
-11.63 131.04 35.15 0.56 0.07 0.82 -0.08
-12.14 129.20 35.49 0.28 -0.33 0.90 -0.16
-10.29 133.64 33.87 0.29 -0.38 0.88 -0.55
-11.88 138.14 32.59 -0.62 0.25 0.74 -0.29
-13.61 138.83 31.75 -0.07 0.17 0.98 0.10
-13.12 139.02 24.76 -0.60 0.78 -0.16 -0.28
-16.91 140.14 32.45 -0.16 -0.01 0.99 0.61
-10.02 134.59 34.52 0.12 -0.58 0.81 -0.35
-14.89 141.33 27.83 0.44 0.69 -0.58 0.59
-13.23 139.63 26.85 -0.60 0.60 -0.53 0.40
-11.84 127.62 20.85 -0.22 -0.83 -0.51 0.22
-11.80 136.75 34.32 -0.75 0.27 0.60 -0.16
-12.57 123.96 27.32 -0.67 -0.74 0.03 0.06
-13.89 124.69 31.13 -0.72 -0.47 0.51 0.05
-16.51 141.29 27.10 -0.27 0.58 -0.77 0.66
-14.54 131.51 20.32 -0.31 0.68 0.66 0.13
-17.67 141.09 29.03 -0.91 0.26 -0.32 0.24
-12.89 133.24 19.09 -0.93 0.13 0.35 -0.08
-13.35 123.69 30.21 -0.71 -0.68 -0.16 0.87
-12.17 123.65 28.58 -0.57 -0.80 -0.18 0.09
-10.84 132.44 33.87 0.57 0.01 0.82 -0.96
-13.92 140.88 28.28 -0.07 0.75 -0.66 0.33
-13.47 129.23 21.10 -0.34 0.29 0.90 0.30
-13.02 137.07 20.51 -0.89 -0.43 -0.15 -0.44
-13.89 125.74 31.65 -0.39 -0.55 0.74 0.08
-14.38 130.19 20.89 -0.15 0.28 0.95 0.87
-13.42 132.38 19.06 -0.78 0.59 0.20 -0.13
-14.29 131.98 19.22 -0.42 0.91 -0.01 0.06
-11.00 135.83 35.39 -0.35 -0.13 0.93 -0.20
-13.27 127.53 20.28 0.13 -0.99 0.11 0.52
-12.36 135.59 19.95 -0.98 0.08 0.16 -0.25
-11.54 125.74 22.03 -0.48 -0.41 -0.77 0.21
-13.65 138.85 22.57 -0.90 0.38 0.19 -0.09
-18.06 141.30 31.27 -0.93 0.20 0.31 0.47
-12.48 138.99 31.91 -0.42 -0.07 0.90 -0.08
-13.14 126.43 32.57 -0.10 -0.57 0.82 -0.20
-12.08 127.50 33.41 0.13 -0.71 0.70 -0.55
-12.13 124.08 24.08 -0.67 -0.66 -0.34 0.17
-15.56 139.83 31.98 0.30 0.01 0.95 0.59
-12.80 136.34 19.47 -0.90 -0.22 0.38 -0.06
-13.17 134.59 19.09 -0.83 -0.03 0.55 0.13
-13.83 138.03 21.27 -0.95 -0.30 -0.05 -0.21
-10.94 138.87 33.42 -0.70 0.28 0.65 -0.39
-12.10 123.48 26.21 -0.74 -0.66 -0.15 -0.22
-11.83 124.28 22.94 -0.65 -0.57 -0.50 -0.29
-9.98 132.38 33.41 0.28 -0.01 0.96 -0.37
-14.23 140.30 31.68 -0.19 -0.27 0.94 0.27
-16.02 142.05 28.24 0.00 0.89 -0.46 0.62
-16.95 141.55 32.45 -0.25 0.33 0.91 0.88
-12.93 124.95 31.98 -0.65 -0.03 0.76 0.19
3 170 152 120
3 161 116 120
3 117 139 96
3 96 139 154
3 161 192 117
3 153 117 192
3 149 188 156
3 149 156 118
3 135 118 156
3 120 150 170
3 120 106 150
3 116 90 120
3 90 116 73
3 96 154 111
3 111 154 149
3 111 149 118
3 111 118 81
3 96 111 81
3 96 81 61
3 78 81 118
3 81 48 61
3 80 166 76
3 76 166 125
3 105 134 100
3 134 158 100
3 186 143 141
3 143 151 99
3 143 99 141
3 130 151 150
3 59 65 82
3 65 35 58
3 57 106 55
3 42 55 73
3 55 42 29
3 57 55 29
3 17 42 40
3 42 73 61
3 61 73 96
3 49 23 48
3 47 23 49
3 47 36 23
3 105 66 76
3 105 100 66
3 66 100 97
3 97 100 124
3 83 60 66
3 83 84 60
3 84 83 123
3 155 182 123
3 123 182 145
3 142 185 129
3 142 129 115
3 115 112 142
3 103 79 129
3 115 129 79
3 79 72 115
3 126 99 103
3 65 103 99
3 99 95 65
3 141 99 126
3 95 99 130
3 79 58 53
3 79 53 41
3 2 20 13
3 30 13 20
3 13 17 2
3 7 2 17
3 17 28 7
3 15 4 7
3 0 7 4
3 52 36 47
3 60 54 32
3 32 54 33
3 32 33 12
3 173 145 191
3 107 123 145
3 145 182 191
3 169 168 136
3 163 199 174
3 112 72 74
3 112 74 87
3 74 72 43
3 72 41 43
3 34 21 43
3 21 20 9
3 12 14 5
3 0 5 6
3 14 22 5
3 5 22 6
3 27 22 44
3 51 63 88
3 63 107 92
3 63 92 88
3 92 119 88
3 51 94 67
3 177 165 138
3 94 119 147
3 140 102 104
3 101 136 127
3 101 93 64
3 101 64 102
3 102 64 104
3 104 64 89
3 87 62 64
3 62 87 74
3 74 46 62
3 25 37 46
3 64 37 50
3 37 8 18
3 8 9 1
3 6 1 0
3 1 6 19
3 19 18 1
3 8 1 18
3 27 16 22
3 26 38 50
3 56 27 44
3 69 56 44
3 128 138 175
3 175 138 165
3 50 85 98
3 50 56 85
3 56 69 85
3 69 71 113
3 69 113 110
3 187 131 148
3 131 140 98
3 131 110 148
3 181 148 113
3 26 50 37
3 26 37 18
3 171 133 158
3 152 157 120
3 86 106 120
3 73 116 117
3 73 117 96
3 117 116 161
3 117 153 139
3 184 139 153
3 195 152 170
3 55 106 86
3 73 55 90
3 90 55 86
3 90 86 120
3 154 196 149
3 139 184 154
3 78 48 81
3 159 124 133
3 158 133 100
3 100 133 124
3 159 133 171
3 130 99 151
3 29 17 13
3 17 29 42
3 28 17 40
3 28 48 23
3 66 97 83
3 76 66 52
3 36 52 31
3 39 31 66
3 39 66 60
3 66 31 52
3 199 185 174
3 142 174 185
3 72 112 115
3 58 79 103
3 65 58 103
3 35 53 58
3 29 13 35
3 29 35 59
3 35 13 30
3 0 2 7
3 4 10 3
3 11 12 3
3 11 3 10
3 32 11 39
3 60 32 39
3 31 10 36
3 10 31 39
3 10 39 11
3 12 11 32
3 132 119 92
3 132 145 173
3 145 132 107
3 107 132 92
3 127 136 163
3 163 136 168
3 142 127 174
3 174 127 163
3 53 30 41
3 30 53 35
3 2 9 20
3 1 9 2
3 1 2 0
3 5 0 3
3 5 3 12
3 3 0 4
3 16 6 22
3 68 45 108
3 108 45 67
3 22 45 44
3 68 44 45
3 51 67 45
3 77 63 54
3 54 63 33
3 33 63 51
3 33 51 24
3 24 51 45
3 128 94 138
3 167 176 137
3 176 138 137
3 167 137 147
3 190 167 147
3 147 137 94
3 94 137 138
3 177 138 176
3 180 147 132
3 189 180 132
3 189 132 173
3 132 147 119
3 147 180 190
3 190 180 189
3 162 102 140
3 102 162 169
3 101 102 136
3 37 62 46
3 62 37 64
3 18 19 26
3 38 26 19
3 38 19 16
3 38 16 27
3 6 16 19
3 50 38 56
3 56 38 27
3 71 69 44
3 108 91 70
3 71 91 108
3 68 108 70
3 44 68 70
3 44 70 71
3 71 70 91
3 172 113 114
3 146 113 172
3 128 172 114
3 128 114 108
3 108 114 71
3 113 71 114
3 175 172 128
3 162 140 193
3 160 181 113
3 146 179 113
3 113 179 160
3 113 148 110
3 178 161 120
3 178 120 157
3 198 183 156
3 156 183 135
3 183 166 135
3 109 150 106
3 109 122 150
3 78 118 135
3 135 166 80
3 144 134 105
3 144 105 125
3 144 125 166
3 76 125 105
3 164 134 144
3 164 144 166
3 164 166 197
3 197 158 164
3 158 134 164
3 109 106 75
3 57 75 106
3 75 122 109
3 130 150 122
3 122 75 82
3 82 75 57
3 82 57 59
3 65 59 35
3 61 48 28
3 80 78 135
3 49 80 76
3 49 76 47
3 49 48 78
3 49 78 80
3 97 155 123
3 97 123 83
3 103 129 141
3 103 141 126
3 186 141 185
3 129 185 141
3 95 122 82
3 95 82 65
3 95 130 122
3 57 29 59
3 23 7 28
3 7 23 15
3 4 15 10
3 10 15 36
3 36 15 23
3 76 52 47
3 84 54 60
3 84 123 107
3 72 79 41
3 34 41 20
3 20 41 30
3 20 21 34
3 22 14 24
3 24 14 33
3 24 45 22
3 14 12 33
3 77 84 107
3 107 63 77
3 77 54 84
3 88 119 94
3 51 88 94
3 93 121 87
3 121 112 87
3 87 64 93
3 93 101 127
3 93 127 121
3 121 127 142
3 121 142 112
3 46 43 25
3 43 46 74
3 21 9 25
3 21 25 43
3 41 34 43
3 25 8 37
3 9 8 25
3 67 94 128
3 67 128 108
3 104 89 98
3 104 98 140
3 64 50 89
3 98 89 50
3 140 131 187
3 85 110 98
3 110 85 69
3 98 110 131
3 194 187 148
3 148 181 194
3 61 28 40
3 61 40 42
3 155 97 124
3 155 124 159
3 136 102 169
