ply
format ascii 1.0
comment Generated by MaSIF
element vertex 200
property float x
property float y
property float z
property float nx
property float ny
property float nz
property float charge
element face 351
property list uchar int vertex_indices
end_header
44.18 133.29 17.04 -0.04 -0.99 0.16 0.01
43.03 133.69 17.09 -0.21 -0.97 0.15 0.29
45.16 133.68 17.84 0.34 -0.90 0.28 0.14
43.86 133.18 15.52 -0.01 -0.94 -0.35 -0.01
45.60 133.48 16.13 0.33 -0.94 -0.11 -0.52
43.10 133.75 18.51 0.02 -1.00 0.04 0.03
42.07 133.76 16.84 0.17 -0.97 0.18 0.44
42.68 133.47 15.96 0.01 -1.00 0.07 -0.20
46.27 134.59 18.21 0.62 -0.61 0.50 0.73
45.27 134.15 14.93 0.28 -0.46 -0.84 -0.64
45.64 134.61 19.17 0.70 -0.70 0.15 0.10
42.69 133.87 14.69 0.51 -0.70 -0.49 -0.58
47.01 134.31 15.74 0.68 -0.61 -0.40 -0.55
47.00 134.28 17.21 0.67 -0.68 0.29 0.41
41.69 133.64 17.66 0.44 -0.88 -0.14 0.68
44.44 133.68 19.72 0.20 -0.97 -0.10 0.04
41.85 133.42 18.78 0.48 -0.87 0.10 0.33
42.02 133.16 15.39 0.42 -0.90 0.15 -0.81
41.09 133.29 16.67 0.55 -0.83 -0.02 -0.35
42.54 133.88 20.15 -0.11 -0.95 0.28 -0.39
46.71 135.50 18.59 0.91 -0.28 0.29 0.37
43.99 135.29 14.38 0.40 -0.31 -0.86 -0.03
45.60 134.39 20.10 0.61 -0.67 -0.42 0.10
47.41 135.64 17.61 0.91 -0.05 0.41 1.04
47.53 135.22 16.54 1.00 -0.03 -0.09 0.18
47.07 135.55 15.30 0.70 0.15 -0.70 -0.61
46.29 135.32 20.04 0.74 -0.60 -0.31 -0.21
40.74 132.89 15.81 0.53 -0.77 0.37 -0.30
42.86 135.00 13.89 0.59 -0.57 -0.57 -0.07
45.49 136.02 14.77 0.42 0.33 -0.85 -0.51
41.66 132.79 14.32 0.82 -0.57 0.01 0.12
41.50 133.68 20.14 0.31 -0.70 0.64 0.10
44.61 133.22 20.92 0.03 -0.90 -0.43 0.11
42.93 133.73 21.11 -0.54 -0.84 -0.07 -0.07
43.63 136.00 13.55 0.83 -0.10 -0.55 0.07
40.03 132.48 16.42 0.69 -0.72 0.06 -0.27
40.78 132.34 18.94 0.56 -0.83 0.01 -0.07
47.02 136.30 19.54 0.98 -0.19 -0.08 -0.77
42.34 134.64 21.53 -0.53 -0.83 0.18 -0.62
40.58 132.89 20.20 0.39 -0.65 0.65 -0.00
47.01 137.20 18.79 0.98 0.18 -0.07 -1.01
39.91 132.25 17.55 0.65 -0.75 -0.09 -1.30
46.87 136.72 16.91 0.82 0.52 -0.25 0.76
41.31 133.52 12.93 0.83 -0.16 -0.54 0.74
44.11 137.21 14.78 0.61 0.14 -0.78 -0.07
45.74 133.29 21.34 0.51 -0.76 -0.42 0.15
41.09 134.91 21.24 0.09 -0.86 0.50 -0.46
39.92 131.79 15.33 0.34 -0.80 0.49 0.12
46.77 134.50 21.35 0.59 -0.61 -0.53 0.26
43.59 133.22 21.86 -0.54 -0.84 0.04 0.11
47.42 136.40 20.58 0.61 -0.01 -0.79 0.18
39.78 132.11 19.41 0.38 -0.83 0.41 -0.27
44.77 132.72 22.17 -0.10 -0.99 -0.04 0.10
41.54 131.61 13.75 0.83 -0.53 0.18 0.10
45.47 137.21 15.73 0.67 0.37 -0.64 0.16
41.78 134.89 12.73 0.57 -0.47 -0.67 0.17
42.44 135.61 12.44 0.51 -0.45 -0.74 0.16
43.20 136.72 12.67 0.79 0.09 -0.61 0.15
46.81 137.45 19.85 0.95 0.31 -0.01 -0.64
39.00 131.61 15.99 0.07 -0.99 -0.12 -0.46
39.90 133.82 20.70 0.31 -0.65 0.69 -0.02
39.42 131.39 18.20 0.65 -0.74 0.17 -1.83
40.58 134.21 12.16 0.58 -0.09 -0.81 0.91
46.23 137.88 17.56 0.84 0.35 -0.41 0.21
43.29 137.93 14.18 0.69 0.10 -0.72 -0.81
46.63 138.59 18.37 0.97 0.05 -0.22 0.10
45.01 138.04 15.44 0.72 -0.15 -0.68 0.18
47.02 137.36 21.21 0.72 0.47 -0.52 0.49
41.14 135.11 22.51 0.15 -0.99 0.08 0.16
38.79 131.90 19.64 0.31 -0.70 0.64 -0.95
42.39 134.56 23.34 -0.48 -0.88 0.01 0.38
48.15 136.78 21.27 0.06 0.59 -0.80 0.28
40.97 135.08 12.07 0.44 -0.33 -0.83 0.53
38.73 132.95 20.50 0.19 -0.63 0.76 -0.40
38.42 131.54 14.98 -0.40 -0.83 0.39 0.12
43.81 133.41 23.12 -0.53 -0.79 0.31 0.23
41.25 131.87 12.51 0.80 -0.29 -0.53 0.18
45.93 132.96 22.88 0.40 -0.91 0.14 0.06
37.93 131.83 16.01 -0.18 -0.79 -0.58 -1.38
47.91 134.84 21.71 -0.13 -0.68 -0.72 0.08
46.32 138.52 20.02 0.99 0.17 -0.02 0.14
42.32 137.30 12.05 0.54 0.13 -0.83 0.33
38.52 130.74 17.23 0.23 -0.94 -0.27 -1.94
39.76 130.76 14.15 0.20 -0.92 0.35 0.14
42.72 138.29 13.40 0.83 0.22 -0.51 0.31
40.36 132.65 11.46 0.44 -0.27 -0.86 0.27
44.08 138.85 14.47 0.44 -0.32 -0.84 -0.16
40.54 130.89 12.89 0.43 -0.83 -0.36 0.16
45.55 138.18 16.58 0.89 -0.03 -0.45 0.46
44.88 133.16 23.63 -0.02 -0.82 0.58 0.10
39.84 134.41 21.42 0.29 -0.89 0.34 0.01
47.00 133.96 23.28 0.21 -0.98 0.04 -0.04
38.40 130.90 14.15 -0.34 -0.85 0.41 0.19
37.65 132.43 15.28 -0.49 -0.87 -0.07 -0.06
37.88 130.90 18.95 0.03 -0.93 0.37 -1.06
40.57 136.11 11.68 0.45 -0.15 -0.88 1.09
43.08 139.12 14.01 0.56 -0.24 -0.79 -0.51
38.68 134.06 21.81 0.30 -0.92 0.24 -0.01
37.59 131.93 14.27 -0.66 -0.64 0.39 0.38
46.56 139.91 19.15 0.99 0.11 -0.01 0.10
40.00 134.50 22.37 0.40 -0.91 -0.04 0.12
37.61 132.32 20.35 0.13 -0.56 0.81 -0.73
39.61 135.33 11.31 0.65 -0.21 -0.73 0.66
45.35 139.25 14.85 0.64 -0.43 -0.64 0.08
45.35 133.95 24.20 0.16 -0.68 0.71 0.28
39.38 130.64 12.84 0.02 -0.90 -0.43 0.19
46.35 139.53 17.12 0.99 -0.02 -0.10 0.19
48.56 134.12 22.58 -0.28 -0.89 -0.36 -0.28
43.70 134.23 24.37 -0.23 -0.91 0.35 0.50
47.81 138.33 21.92 0.13 0.51 -0.85 0.54
44.09 139.85 13.81 0.43 -0.48 -0.77 0.02
49.94 136.38 20.67 0.16 0.26 -0.95 0.94
46.54 139.59 20.74 0.99 -0.02 -0.12 -1.04
37.38 133.42 21.00 0.10 -0.79 0.60 -0.38
49.56 137.55 21.28 0.24 0.62 -0.74 0.65
38.85 132.32 11.55 -0.16 -0.54 -0.83 0.45
46.73 138.92 21.75 0.83 0.25 -0.49 0.60
40.26 134.43 23.71 0.43 -0.89 -0.17 0.26
36.98 131.17 17.14 -0.27 -0.85 -0.46 -1.48
41.75 138.76 12.34 0.70 0.02 -0.71 0.35
37.77 131.06 13.09 -0.65 -0.74 -0.17 0.29
41.14 134.90 24.30 0.08 -0.94 -0.33 1.11
46.47 134.38 24.43 -0.02 -0.90 0.44 -0.01
42.39 134.36 25.12 0.01 -0.95 -0.31 4.33
49.50 135.00 20.83 -0.02 -0.34 -0.94 0.25
38.60 133.37 10.89 0.22 -0.57 -0.79 0.31
40.70 137.97 11.48 0.54 -0.12 -0.84 0.41
49.49 133.77 21.67 -0.21 -0.88 -0.43 0.35
48.17 133.52 23.86 -0.15 -0.99 -0.09 -1.18
36.45 133.07 15.19 -0.13 -0.97 -0.22 0.96
42.72 140.16 13.25 0.60 -0.39 -0.70 0.01
47.82 133.92 24.92 -0.25 -0.84 0.48 -1.52
37.43 133.79 22.22 0.18 -0.98 -0.05 -0.00
49.62 133.73 22.89 0.28 -0.96 0.03 0.17
38.75 133.93 23.08 0.38 -0.90 -0.22 0.31
38.56 131.29 12.13 -0.33 -0.57 -0.75 0.30
36.61 132.63 13.84 -0.36 -0.93 -0.10 0.61
46.43 140.10 15.83 0.92 -0.21 -0.32 0.12
48.85 138.81 22.20 0.25 0.77 -0.58 0.35
36.55 131.51 19.96 -0.01 -0.82 0.57 -1.54
50.84 135.58 21.15 0.74 -0.04 -0.67 0.27
46.25 140.72 17.95 0.99 0.14 -0.03 0.21
45.73 140.66 14.62 0.74 -0.11 -0.66 0.08
50.06 138.01 22.44 0.63 0.71 -0.30 0.53
46.60 140.53 21.62 0.96 -0.17 -0.21 -0.18
38.90 134.94 10.11 0.91 -0.26 -0.33 0.27
36.18 133.02 20.67 0.11 -0.58 0.81 -1.25
46.08 141.42 19.56 0.98 0.04 -0.17 -0.14
41.06 139.32 11.57 0.69 -0.19 -0.70 0.36
50.86 137.33 22.10 0.81 0.51 -0.30 0.57
43.98 134.37 25.86 0.32 -0.95 0.04 0.88
50.69 134.06 21.66 0.57 -0.69 -0.44 0.50
39.11 133.84 24.24 0.48 -0.83 -0.30 0.47
47.68 139.57 23.00 0.49 0.58 -0.65 0.73
42.00 139.99 12.54 0.65 -0.49 -0.58 0.14
44.45 141.46 13.08 0.63 0.26 -0.73 0.09
37.47 132.92 12.28 -0.59 -0.55 -0.59 1.19
38.02 133.51 10.10 0.42 -0.90 0.13 0.08
49.31 133.69 24.56 0.39 -0.82 0.41 -1.45
39.67 137.87 10.93 0.73 -0.24 -0.64 0.49
35.78 132.72 15.89 0.27 -0.91 -0.30 0.80
47.00 135.12 25.72 0.09 -0.67 0.74 -0.29
43.05 133.84 26.30 0.41 -0.84 -0.35 3.50
40.57 134.12 25.37 0.35 -0.77 -0.54 0.93
45.40 134.32 25.42 0.18 -0.91 0.37 -1.11
39.14 137.04 10.35 0.85 -0.15 -0.50 0.75
46.14 141.61 17.23 0.95 0.32 -0.07 0.14
45.27 141.60 14.09 0.82 0.20 -0.53 0.08
37.11 133.85 11.34 -0.37 -0.92 -0.09 0.75
36.45 133.73 22.64 0.16 -0.98 -0.12 -0.22
46.80 141.41 20.93 0.84 -0.41 -0.36 0.35
46.96 140.45 22.63 0.86 -0.00 -0.52 0.56
41.81 133.43 26.20 0.27 -0.74 -0.61 1.89
35.48 131.97 16.69 0.17 -0.96 -0.22 0.66
35.48 133.36 21.45 0.36 -0.81 0.46 -0.32
43.24 141.11 12.33 0.61 -0.34 -0.71 0.15
50.32 134.51 23.82 0.79 -0.52 0.32 -0.34
46.23 141.48 15.78 0.91 0.36 -0.19 0.10
48.84 134.77 25.77 0.25 -0.35 0.90 -1.10
37.66 133.11 23.48 0.15 -0.90 -0.40 1.11
35.35 131.35 19.83 0.29 -0.88 0.37 0.10
49.85 138.80 23.41 0.65 0.71 -0.27 0.35
41.04 140.47 11.17 0.61 -0.21 -0.76 0.48
51.27 134.98 22.48 0.91 -0.38 0.14 0.20
46.32 142.31 19.83 0.80 -0.41 -0.45 0.25
51.34 136.16 22.51 0.99 0.15 -0.04 -0.15
39.81 139.22 10.21 0.76 -0.21 -0.62 0.49
50.60 137.55 23.77 0.91 0.37 0.19 0.42
38.33 133.61 9.05 0.91 -0.41 -0.01 -1.04
36.43 133.67 12.33 -0.36 -0.81 -0.47 1.02
39.36 133.47 25.24 0.51 -0.60 -0.62 0.29
46.12 142.41 18.43 0.95 0.13 -0.29 0.16
36.71 133.34 9.93 -0.26 -0.84 0.47 -0.55
35.50 133.70 12.63 -0.28 -0.77 -0.57 1.03
43.50 142.33 13.10 0.69 0.45 -0.56 0.36
48.90 139.43 23.95 0.58 0.71 -0.41 0.22
47.34 141.43 22.53 0.73 -0.55 -0.42 1.19
34.80 132.47 14.18 -0.03 -0.79 -0.62 0.64
44.54 135.35 27.08 0.58 -0.37 0.73 0.38
47.82 140.58 23.84 0.84 0.09 -0.54 0.47
3 98 136 120
3 136 197 193
3 193 189 136
3 189 168 156
3 152 179 134
3 132 113 97
3 139 173 94
3 94 173 118
3 94 61 69
3 51 61 41
3 41 36 51
3 61 82 35
3 35 82 59
3 35 59 47
3 59 82 78
3 47 59 74
3 47 74 92
3 82 118 78
3 59 78 93
3 59 93 74
3 98 92 74
3 93 136 98
3 74 93 98
3 156 120 136
3 55 62 72
3 97 73 60
3 60 73 39
3 101 73 113
3 73 101 69
3 73 69 51
3 39 73 51
3 46 31 19
3 31 39 16
3 19 31 16
3 18 36 41
3 6 18 27
3 85 43 76
3 55 72 56
3 72 95 56
3 95 72 102
3 165 102 145
3 150 164 198
3 123 162 172
3 123 70 108
3 108 75 89
3 75 108 49
3 108 70 49
3 46 19 38
3 38 19 33
3 33 49 70
3 32 33 15
3 19 16 5
3 17 7 6
3 1 7 3
3 7 17 11
3 11 3 7
3 3 11 21
3 43 11 30
3 11 17 30
3 17 27 30
3 30 27 53
3 53 27 47
3 53 43 30
3 43 55 28
3 28 55 56
3 56 34 28
3 28 34 21
3 21 34 44
3 34 57 84
3 84 57 81
3 57 56 81
3 84 81 119
3 148 119 126
3 126 186 148
3 161 164 122
3 122 131 161
3 122 164 108
3 122 108 104
3 164 150 108
3 104 108 89
3 89 77 91
3 131 91 128
3 77 45 91
3 128 91 107
3 52 75 49
3 22 32 15
3 22 15 10
3 10 2 8
3 29 44 54
3 54 44 66
3 29 54 42
3 103 86 110
3 103 110 142
3 167 142 110
3 142 167 177
3 194 155 175
3 155 110 175
3 175 110 130
3 175 130 154
3 178 161 131
3 176 158 133
3 176 133 183
3 158 128 133
3 128 107 133
3 133 107 127
3 124 127 79
3 37 26 10
3 111 79 50
3 114 111 71
3 58 40 80
3 37 20 40
3 42 40 20
3 42 20 23
3 10 20 37
3 23 20 8
3 13 8 2
3 88 137 106
3 106 141 99
3 106 177 166
3 140 124 111
3 187 149 143
3 143 181 187
3 143 149 114
3 181 143 114
3 181 114 138
3 138 114 109
3 144 112 170
3 191 141 166
3 180 139 146
3 132 179 169
3 113 132 174
3 113 174 146
3 169 174 132
3 180 146 174
3 136 160 197
3 136 129 160
3 129 136 93
3 156 168 125
3 156 125 115
3 125 168 157
3 168 192 157
3 97 134 132
3 132 134 179
3 139 101 146
3 146 101 113
3 51 69 61
3 35 41 61
3 160 129 118
3 78 118 93
3 93 118 129
3 173 160 118
3 160 173 197
3 62 43 85
3 102 72 62
3 102 125 145
3 85 125 62
3 62 125 102
3 157 188 145
3 157 145 125
3 152 117 163
3 152 163 190
3 123 172 121
3 123 121 70
3 68 70 121
3 68 121 117
3 117 121 163
3 163 121 172
3 68 117 100
3 46 38 68
3 70 68 38
3 60 46 68
3 31 46 60
3 31 60 39
3 90 60 68
3 90 68 100
3 97 60 90
3 97 90 100
3 14 5 16
3 14 16 36
3 14 36 18
3 6 5 14
3 6 14 18
3 27 18 35
3 27 35 47
3 35 18 41
3 55 43 62
3 126 95 159
3 159 95 165
3 102 165 95
3 123 150 162
3 150 123 108
3 70 38 33
3 19 5 15
3 19 15 33
3 5 1 0
3 7 1 6
3 6 1 5
3 21 11 28
3 43 28 11
3 66 44 86
3 86 44 64
3 64 44 34
3 84 64 34
3 96 110 86
3 84 96 64
3 64 96 86
3 154 130 119
3 119 130 84
3 84 130 96
3 110 96 130
3 182 119 148
3 119 182 154
3 186 126 159
3 122 91 131
3 91 122 104
3 91 104 89
3 107 79 127
3 79 107 91
3 79 91 48
3 48 91 45
3 26 48 22
3 10 26 22
3 20 10 8
3 5 0 2
3 42 54 88
3 66 88 54
3 37 50 26
3 26 50 48
3 48 50 79
3 71 111 50
3 114 71 109
3 109 71 67
3 67 50 37
3 67 37 58
3 50 67 71
3 116 109 67
3 116 67 80
3 112 116 80
3 58 80 67
3 99 112 80
3 99 80 65
3 65 80 40
3 63 65 40
3 42 63 40
3 106 65 88
3 88 65 63
3 88 63 42
3 166 141 106
3 199 195 153
3 171 196 199
3 171 199 153
3 144 171 116
3 112 144 116
3 116 153 109
3 109 153 138
3 153 116 171
3 196 171 144
3 196 144 170
3 184 170 147
3 184 147 191
3 112 147 170
3 141 191 147
3 141 147 99
3 112 99 147
3 139 180 173
3 82 61 94
3 82 94 118
3 105 92 120
3 135 120 156
3 120 135 105
3 105 83 92
3 98 120 92
3 189 156 136
3 125 85 115
3 100 117 97
3 113 73 97
3 139 94 101
3 101 94 69
3 51 36 39
3 39 36 16
3 135 156 115
3 135 115 105
3 105 87 83
3 92 83 47
3 85 87 105
3 85 76 87
3 85 105 115
3 33 32 49
3 6 27 17
3 53 87 76
3 76 43 53
3 53 47 83
3 53 83 87
3 34 56 57
3 95 81 56
3 95 126 81
3 119 81 126
3 77 89 52
3 89 75 52
3 52 45 77
3 32 45 52
3 32 52 49
3 48 45 22
3 22 45 32
3 2 15 5
3 15 2 10
3 3 21 9
3 3 0 1
3 4 0 3
3 3 9 4
3 21 29 9
3 44 29 21
3 86 103 66
3 66 103 88
3 167 110 155
3 186 182 148
3 158 178 131
3 158 131 128
3 151 127 124
3 151 124 140
3 151 140 183
3 151 183 133
3 151 133 127
3 37 40 58
3 42 23 24
3 24 23 13
3 8 13 23
3 25 42 24
3 25 24 12
3 12 24 13
3 12 13 4
3 2 4 13
3 12 4 9
3 25 12 9
3 25 9 29
3 42 25 29
3 0 4 2
3 103 142 137
3 103 137 88
3 137 177 106
3 137 142 177
3 124 79 111
3 140 185 183
3 149 111 114
3 149 185 140
3 149 140 111
3 181 138 195
3 195 138 153
3 99 65 106
3 117 152 134
3 117 134 97
