ply
format ascii 1.0
comment Generated by MaSIF
element vertex 199
property float x
property float y
property float z
property float nx
property float ny
property float nz
property float charge
element face 346
property list uchar int vertex_indices
end_header
45.39 134.77 14.65 0.29 -0.31 -0.90 -0.64
45.76 133.93 15.73 0.36 -0.89 -0.26 -0.52
44.02 133.67 15.07 0.02 -0.87 -0.50 -0.01
45.54 136.65 14.80 0.40 0.47 -0.79 -0.51
47.13 134.86 15.47 0.70 -0.51 -0.50 -0.55
44.06 135.94 14.30 0.40 -0.15 -0.90 -0.03
47.14 136.15 15.24 0.68 0.29 -0.67 -0.61
44.35 133.54 16.60 -0.00 -1.00 -0.00 0.01
45.32 133.83 17.45 0.37 -0.92 0.13 0.14
42.84 133.84 15.56 0.05 -0.99 -0.09 -0.20
47.62 135.65 16.41 1.00 0.02 -0.10 0.18
47.13 134.59 16.92 0.70 -0.69 0.18 0.41
43.68 136.76 13.59 0.83 0.02 -0.56 0.07
42.94 135.70 13.77 0.61 -0.44 -0.66 -0.07
45.49 137.67 15.94 0.65 0.50 -0.58 0.16
42.82 134.45 14.38 0.53 -0.60 -0.60 -0.58
43.19 133.89 16.72 -0.17 -0.98 -0.01 0.29
44.12 137.77 15.00 0.60 0.28 -0.75 -0.07
42.18 133.61 14.95 0.45 -0.89 0.00 -0.81
47.50 135.88 17.53 0.92 -0.08 0.39 1.04
46.91 137.04 17.02 0.80 0.58 -0.16 0.76
42.22 133.96 16.48 0.20 -0.98 0.02 0.44
43.22 137.60 12.85 0.78 0.21 -0.59 0.15
46.40 134.71 17.96 0.64 -0.66 0.39 0.73
45.00 138.52 15.79 0.72 -0.01 -0.69 0.18
45.54 138.49 16.93 0.89 0.07 -0.45 0.46
45.78 134.54 18.91 0.73 -0.69 0.03 0.10
42.49 136.51 12.44 0.52 -0.30 -0.80 0.16
41.86 135.74 12.61 0.58 -0.33 -0.74 0.17
43.26 133.71 18.12 0.05 -0.99 -0.12 0.03
43.27 138.55 14.53 0.68 0.24 -0.69 -0.81
41.82 133.40 13.84 0.84 -0.54 -0.08 0.12
44.62 133.50 19.30 0.23 -0.94 -0.26 0.04
41.85 133.70 17.27 0.47 -0.83 -0.29 0.68
46.81 135.56 18.48 0.92 -0.30 0.24 0.37
41.25 133.49 16.24 0.58 -0.80 -0.15 -0.35
40.92 133.22 15.32 0.56 -0.80 0.24 -0.30
42.31 138.25 12.34 0.53 0.28 -0.80 0.33
44.03 139.44 14.97 0.45 -0.16 -0.88 -0.16
42.69 139.01 13.83 0.82 0.33 -0.47 0.31
46.24 138.05 17.85 0.83 0.44 -0.35 0.21
41.44 134.34 12.59 0.83 -0.04 -0.56 0.74
45.75 134.18 19.79 0.63 -0.57 -0.52 0.10
41.04 136.00 11.99 0.45 -0.17 -0.88 0.53
45.29 139.81 15.40 0.65 -0.29 -0.71 0.08
46.41 135.13 19.88 0.76 -0.51 -0.41 -0.21
47.06 137.21 18.95 0.97 0.22 -0.04 -1.01
42.03 133.31 18.33 0.51 -0.86 -0.04 0.33
46.30 139.76 17.69 0.99 0.03 -0.10 0.19
43.02 139.75 14.56 0.56 -0.09 -0.82 -0.51
40.68 135.12 11.94 0.58 0.06 -0.81 0.91
41.74 132.33 13.08 0.84 -0.53 0.09 0.10
44.82 132.86 20.41 0.06 -0.82 -0.57 0.11
42.72 133.55 19.76 -0.08 -0.99 0.12 -0.39
40.23 132.70 15.86 0.72 -0.69 -0.06 -0.27
47.10 136.20 19.54 0.98 -0.14 -0.12 -0.77
46.63 138.64 18.77 0.97 0.12 -0.21 0.10
44.00 140.53 14.48 0.44 -0.33 -0.84 0.02
40.60 137.07 11.77 0.45 0.01 -0.89 1.09
40.12 132.19 14.67 0.37 -0.86 0.35 0.12
46.35 140.53 16.51 0.93 -0.12 -0.35 0.12
41.70 139.61 12.86 0.70 0.16 -0.70 0.35
43.11 133.27 20.68 -0.51 -0.83 -0.20 -0.07
46.85 137.28 20.04 0.94 0.34 0.04 -0.64
40.12 132.28 16.94 0.68 -0.71 -0.21 -1.30
40.99 132.17 18.32 0.59 -0.80 -0.13 -0.07
45.62 141.26 15.41 0.74 0.02 -0.67 0.08
40.66 138.95 11.88 0.53 0.04 -0.84 0.41
41.43 132.78 11.90 0.80 -0.17 -0.57 0.18
45.94 132.89 20.83 0.53 -0.66 -0.53 0.15
39.67 136.32 11.29 0.65 -0.06 -0.76 0.66
46.93 134.12 21.03 0.61 -0.49 -0.62 0.26
41.68 133.32 19.72 0.34 -0.79 0.52 0.10
40.51 133.68 11.00 0.44 -0.11 -0.89 0.27
42.62 140.88 13.99 0.60 -0.25 -0.76 0.01
47.51 136.15 20.59 0.61 0.14 -0.78 0.18
46.17 140.79 18.70 0.98 0.18 -0.01 0.21
43.80 132.67 21.34 -0.51 -0.85 -0.10 0.11
45.00 132.17 21.56 -0.06 -0.98 -0.20 0.10
40.76 131.72 12.11 0.45 -0.74 -0.49 0.16
39.22 131.87 15.30 0.10 -0.95 -0.28 -0.46
46.33 138.29 20.38 0.98 0.21 0.00 0.14
42.50 134.07 21.25 -0.50 -0.87 0.04 -0.62
40.79 132.50 19.65 0.42 -0.73 0.54 -0.00
46.10 141.90 16.69 0.90 0.42 -0.13 0.10
46.51 139.81 19.76 0.99 0.15 0.01 0.10
40.98 140.27 12.19 0.69 -0.04 -0.72 0.36
40.00 131.36 13.34 0.23 -0.95 0.19 0.14
38.63 131.94 14.29 -0.37 -0.90 0.25 0.12
40.01 131.84 18.75 0.41 -0.87 0.27 -0.27
46.02 141.78 18.14 0.93 0.36 -0.02 0.14
39.67 131.31 17.44 0.67 -0.74 0.05 -1.83
44.30 142.25 14.03 0.62 0.39 -0.68 0.09
45.12 142.25 15.04 0.81 0.31 -0.49 0.08
41.90 140.81 13.25 0.66 -0.37 -0.65 0.14
39.64 138.90 11.33 0.73 -0.11 -0.68 0.49
41.24 134.34 21.01 0.13 -0.93 0.35 -0.46
47.08 136.97 21.37 0.70 0.57 -0.43 0.49
38.72 134.43 10.55 0.24 -0.42 -0.88 0.31
48.22 136.43 21.33 0.04 0.72 -0.70 0.28
39.61 131.44 12.03 0.04 -0.82 -0.58 0.19
38.15 132.04 15.36 -0.16 -0.69 -0.70 -1.38
43.10 141.99 13.23 0.62 -0.19 -0.76 0.15
38.63 131.45 13.36 -0.30 -0.92 0.26 0.19
46.16 132.32 22.30 0.43 -0.90 -0.02 0.06
44.02 132.65 22.61 -0.50 -0.85 0.18 0.23
38.79 130.79 16.38 0.26 -0.87 -0.42 -1.94
39.01 133.30 11.03 -0.15 -0.40 -0.91 0.45
48.06 134.43 21.44 -0.12 -0.56 -0.82 0.08
38.96 136.12 10.04 0.91 -0.17 -0.37 0.27
39.13 138.15 10.62 0.85 -0.04 -0.52 0.75
45.11 132.36 23.07 0.02 -0.90 0.44 0.10
40.08 133.31 20.30 0.34 -0.74 0.58 -0.02
40.92 141.47 11.99 0.61 -0.06 -0.79 0.48
39.03 131.56 18.94 0.34 -0.79 0.52 -0.95
46.52 139.23 21.27 0.99 0.04 -0.12 -1.04
37.79 132.42 13.65 -0.63 -0.72 0.28 0.38
47.20 133.28 22.86 0.24 -0.96 -0.12 -0.04
39.72 140.35 10.84 0.76 -0.08 -0.65 0.49
37.84 132.75 14.73 -0.46 -0.86 -0.21 -0.06
42.56 133.70 23.02 -0.44 -0.89 -0.13 0.38
45.98 142.38 19.45 0.94 0.21 -0.27 0.16
45.98 141.21 20.40 0.98 0.10 -0.16 -0.14
43.32 143.08 14.19 0.67 0.56 -0.48 0.36
44.94 142.89 16.94 0.80 0.60 -0.09 0.08
39.25 139.28 10.20 0.86 -0.11 -0.50 1.32
41.29 134.34 22.30 0.18 -0.98 -0.08 0.16
42.13 141.97 12.30 0.49 -0.20 -0.85 0.22
38.94 132.44 19.96 0.21 -0.74 0.64 -0.40
46.74 138.41 22.16 0.82 0.36 -0.45 0.60
37.99 131.76 12.35 -0.62 -0.73 -0.28 0.29
38.15 130.65 18.10 0.06 -0.97 0.21 -1.06
38.76 132.18 11.44 -0.32 -0.45 -0.83 0.30
38.13 134.67 9.80 0.45 -0.89 -0.02 0.08
45.55 133.06 23.77 0.19 -0.79 0.59 0.28
48.74 133.61 22.18 -0.25 -0.83 -0.50 -0.28
47.84 137.84 22.23 0.11 0.65 -0.75 0.54
37.22 134.77 11.08 -0.34 -0.91 -0.24 0.75
40.00 133.77 21.11 0.32 -0.93 0.19 0.01
50.03 136.20 20.67 0.14 0.41 -0.90 0.94
43.89 133.26 23.98 -0.20 -0.96 0.20 0.50
49.61 137.24 21.47 0.21 0.74 -0.63 0.65
37.22 131.18 16.36 -0.25 -0.77 -0.59 -1.48
42.24 143.23 12.54 0.63 0.35 -0.69 0.57
37.62 133.71 11.86 -0.58 -0.46 -0.67 1.19
43.17 143.75 15.18 0.62 0.56 -0.55 0.17
46.19 142.06 20.82 0.81 -0.30 -0.51 0.25
46.65 133.49 24.06 0.01 -0.96 0.29 -0.01
39.97 142.09 11.32 0.84 -0.04 -0.54 0.61
37.85 131.81 19.72 0.16 -0.69 0.71 -0.73
46.55 140.02 22.30 0.97 -0.10 -0.24 -0.18
36.78 133.14 13.35 -0.32 -0.91 -0.25 0.61
49.64 134.80 20.60 -0.01 -0.18 -0.98 0.25
38.49 138.80 9.10 0.90 0.05 -0.43 0.70
44.45 144.07 16.50 0.82 0.35 -0.45 0.07
38.42 134.96 8.78 0.93 -0.37 -0.08 -1.04
49.67 133.45 21.23 -0.19 -0.80 -0.57 0.35
48.38 132.80 23.35 -0.11 -0.96 -0.24 -1.18
45.33 143.65 19.38 0.79 0.27 -0.55 0.08
36.62 133.35 14.75 -0.10 -0.92 -0.38 0.96
44.83 143.23 18.04 0.94 0.23 -0.24 0.07
38.51 137.25 8.48 0.95 0.10 -0.30 -0.12
38.86 133.32 21.44 0.34 -0.94 0.09 -0.01
38.54 139.87 9.34 0.82 -0.04 -0.57 1.03
46.72 141.00 21.76 0.85 -0.31 -0.43 0.35
36.83 134.49 9.61 -0.23 -0.92 0.33 -0.55
42.38 144.25 13.96 0.74 0.58 -0.34 0.79
46.67 143.44 20.34 0.57 -0.09 -0.81 0.32
48.03 133.01 24.46 -0.21 -0.92 0.34 -1.52
49.82 133.21 22.42 0.31 -0.94 -0.13 0.17
40.18 133.72 22.06 0.43 -0.88 -0.19 0.12
41.31 133.84 24.03 0.11 -0.87 -0.48 1.11
38.90 141.11 9.40 0.82 -0.28 -0.49 0.36
40.57 143.57 12.06 0.56 0.17 -0.81 0.34
42.59 133.21 24.74 0.04 -0.89 -0.46 4.33
48.87 138.30 22.57 0.22 0.87 -0.45 0.35
37.58 132.78 20.54 0.14 -0.88 0.46 -0.38
50.96 135.37 21.01 0.74 0.10 -0.67 0.27
36.55 134.41 12.03 -0.33 -0.74 -0.59 1.02
50.11 137.53 22.68 0.60 0.78 -0.19 0.53
40.44 133.44 23.37 0.46 -0.83 -0.31 0.26
41.63 144.23 12.75 0.55 0.46 -0.70 0.56
47.67 138.89 23.50 0.46 0.70 -0.55 0.73
36.81 131.04 19.20 0.02 -0.90 0.43 -1.54
35.77 135.12 11.30 -0.41 -0.80 -0.43 0.98
50.93 136.93 22.23 0.79 0.58 -0.21 0.57
46.92 139.79 23.27 0.85 0.11 -0.51 0.56
39.91 143.25 11.07 0.94 -0.01 -0.33 -0.17
38.50 135.53 7.88 0.94 -0.18 -0.30 -1.68
50.87 133.78 21.27 0.59 -0.59 -0.55 0.50
44.18 133.16 25.47 0.35 -0.93 -0.11 0.88
44.83 144.89 17.06 0.92 0.01 -0.40 0.19
42.42 144.90 15.39 0.60 0.37 -0.71 0.08
35.97 132.87 15.39 0.30 -0.84 -0.44 0.80
49.52 132.89 24.07 0.43 -0.86 0.27 -1.45
47.18 134.03 25.45 0.12 -0.78 0.62 -0.29
37.48 133.85 7.91 0.40 -0.91 -0.09 -1.91
45.60 133.23 25.03 0.22 -0.95 0.21 -1.11
47.49 142.34 21.54 0.74 -0.45 -0.51 0.86
3 116 151 130
3 178 137 144
3 131 91 114
3 89 91 64
3 64 65 89
3 91 106 54
3 54 106 80
3 54 80 59
3 80 106 101
3 59 80 88
3 59 88 103
3 106 142 101
3 80 101 119
3 80 119 88
3 116 103 88
3 119 151 116
3 88 119 116
3 144 130 151
3 28 50 43
3 155 188 161
3 109 155 161
3 162 128 112
3 112 128 83
3 149 128 176
3 128 149 114
3 128 114 89
3 83 128 89
3 96 72 53
3 72 83 47
3 53 72 47
3 35 65 64
3 21 35 36
3 73 41 68
3 28 43 27
3 43 58 27
3 58 43 70
3 110 70 109
3 174 120 140
3 140 105 111
3 105 140 77
3 140 120 77
3 96 53 82
3 82 53 62
3 62 77 120
3 52 62 32
3 53 47 29
3 18 9 21
3 16 9 2
3 9 18 15
3 15 2 9
3 2 15 5
3 41 15 31
3 15 18 31
3 18 36 31
3 31 36 51
3 51 36 59
3 51 41 31
3 41 28 13
3 13 28 27
3 27 12 13
3 13 12 5
3 5 12 17
3 12 22 39
3 39 22 37
3 22 27 37
3 39 37 61
3 86 61 67
3 67 118 86
3 125 95 110
3 163 118 125
3 163 172 118
3 148 113 118
3 195 197 147
3 147 168 195
3 147 197 140
3 147 140 134
3 197 190 140
3 134 140 111
3 111 104 117
3 168 117 157
3 104 69 117
3 157 117 135
3 78 105 77
3 42 52 32
3 42 32 26
3 26 8 23
3 3 17 14
3 14 17 24
3 3 14 20
3 44 38 57
3 44 57 66
3 93 66 57
3 66 93 84
3 166 123 143
3 123 92 102
3 123 102 143
3 92 57 102
3 102 57 74
3 102 74 94
3 143 127 173
3 127 94 113
3 194 157 169
3 157 135 169
3 169 135 156
3 152 156 108
3 55 45 26
3 139 108 75
3 141 139 99
3 63 46 81
3 55 34 46
3 20 46 34
3 20 34 19
3 26 34 55
3 19 34 23
3 11 23 8
3 25 60 48
3 48 76 85
3 48 84 90
3 90 84 124
3 90 124 121
3 121 124 160
3 84 93 124
3 154 92 145
3 177 152 139
3 179 185 141
3 175 141 136
3 150 115 164
3 121 76 90
3 121 158 167
3 121 160 158
3 151 159 193
3 159 151 119
3 137 178 184
3 144 137 98
3 144 98 107
3 98 137 133
3 137 165 133
3 89 114 91
3 54 64 91
3 193 159 142
3 101 142 119
3 119 142 159
3 50 41 73
3 70 43 50
3 70 98 109
3 73 98 50
3 50 98 70
3 133 155 109
3 133 109 98
3 174 171 120
3 126 120 171
3 126 171 180
3 126 180 170
3 96 82 126
3 120 126 82
3 112 96 126
3 72 96 112
3 72 112 83
3 138 112 126
3 138 126 170
3 162 112 138
3 162 138 170
3 33 29 47
3 33 47 65
3 33 65 35
3 21 29 33
3 21 33 35
3 36 35 54
3 36 54 59
3 54 35 64
3 28 41 50
3 67 58 95
3 95 58 110
3 70 110 58
3 161 153 110
3 190 174 140
3 120 82 62
3 53 29 32
3 53 32 62
3 29 16 7
3 9 16 21
3 21 16 29
3 5 15 13
3 41 13 15
3 24 17 38
3 38 17 30
3 30 17 12
3 39 30 12
3 49 57 38
3 39 49 30
3 30 49 38
3 94 74 61
3 61 74 39
3 39 74 49
3 57 49 74
3 113 61 86
3 61 113 94
3 118 95 125
3 118 67 95
3 147 117 168
3 117 147 134
3 117 134 111
3 135 108 156
3 108 135 117
3 108 117 71
3 71 117 69
3 45 71 42
3 26 45 42
3 34 26 23
3 29 7 8
3 20 14 25
3 24 25 14
3 113 173 127
3 173 113 148
3 173 148 187
3 145 92 123
3 145 123 166
3 55 75 45
3 45 75 71
3 71 75 108
3 99 139 75
3 141 99 136
3 136 99 97
3 97 75 55
3 97 55 63
3 75 97 99
3 129 136 97
3 129 97 81
3 115 129 81
3 63 81 97
3 85 115 81
3 85 81 56
3 56 81 46
3 40 56 46
3 20 40 46
3 48 56 25
3 25 56 40
3 25 40 20
3 90 76 48
3 192 145 166
3 150 186 129
3 115 150 129
3 129 182 136
3 136 182 175
3 182 129 186
3 198 164 146
3 146 164 122
3 146 122 121
3 115 122 164
3 76 121 122
3 76 122 85
3 115 85 122
3 167 146 121
3 167 198 146
3 160 154 191
3 124 154 160
3 106 91 131
3 106 131 142
3 100 103 130
3 132 130 144
3 130 132 100
3 100 87 103
3 116 130 103
3 178 144 151
3 98 73 107
3 188 155 196
3 155 133 196
3 133 165 196
3 170 180 162
3 176 128 162
3 183 131 149
3 149 131 114
3 89 65 83
3 83 65 47
3 132 144 107
3 132 107 100
3 100 79 87
3 103 87 59
3 73 79 100
3 73 68 79
3 73 100 107
3 109 161 110
3 62 52 77
3 21 36 18
3 51 79 68
3 68 41 51
3 51 59 87
3 51 87 79
3 12 27 22
3 58 37 27
3 58 67 37
3 61 37 67
3 125 153 163
3 153 125 110
3 148 118 172
3 104 111 78
3 111 105 78
3 78 69 104
3 52 69 78
3 52 78 77
3 71 69 42
3 42 69 52
3 8 32 29
3 32 8 26
3 2 5 0
3 2 7 16
3 1 7 2
3 2 0 1
3 5 3 0
3 17 3 5
3 38 44 24
3 24 44 25
3 93 57 92
3 102 94 127
3 102 127 143
3 118 113 86
3 181 166 143
3 181 143 173
3 194 168 157
3 189 156 152
3 189 152 177
3 189 169 156
3 55 46 63
3 20 19 10
3 10 19 11
3 23 11 19
3 6 20 10
3 6 10 4
3 4 10 11
3 4 11 1
3 8 1 11
3 4 1 0
3 6 4 0
3 6 0 3
3 20 6 3
3 7 1 8
3 44 66 60
3 44 60 25
3 60 84 48
3 60 66 84
3 92 154 93
3 124 93 154
3 152 108 139
3 185 139 141
3 185 177 139
3 85 56 48
