ply
format ascii 1.0
comment Generated by MaSIF
element vertex 200
property float x
property float y
property float z
property float nx
property float ny
property float nz
property float charge
element face 351
property list uchar int vertex_indices
end_header
43.15 135.49 14.26 0.64 -0.49 -0.59 -0.07
43.89 136.54 14.04 0.85 -0.02 -0.52 0.07
44.25 135.78 14.82 0.45 -0.22 -0.87 -0.03
42.99 134.28 14.96 0.56 -0.64 -0.53 -0.58
42.12 135.44 13.06 0.61 -0.39 -0.69 0.17
42.76 136.20 12.85 0.55 -0.36 -0.75 0.16
43.47 137.31 13.21 0.80 0.17 -0.57 0.15
42.33 133.50 15.56 0.45 -0.89 0.09 -0.81
41.70 134.04 13.12 0.86 -0.08 -0.51 0.74
42.96 133.77 16.18 0.05 -1.00 -0.01 -0.20
41.34 135.64 12.37 0.49 -0.24 -0.84 0.53
45.70 136.52 15.34 0.44 0.41 -0.80 -0.51
44.27 137.65 15.39 0.64 0.23 -0.74 -0.07
42.03 133.20 14.46 0.84 -0.54 0.00 0.12
44.16 133.57 15.77 0.05 -0.90 -0.43 -0.01
40.98 134.76 12.37 0.62 0.00 -0.79 0.91
45.55 134.64 15.33 0.34 -0.38 -0.86 -0.64
42.59 137.92 12.61 0.57 0.22 -0.79 0.33
43.45 138.39 14.82 0.71 0.19 -0.68 -0.81
42.90 138.79 14.05 0.84 0.29 -0.45 0.31
40.91 136.70 12.06 0.49 -0.06 -0.87 1.09
42.30 133.96 17.06 0.20 -0.97 0.11 0.44
43.25 133.91 17.35 -0.17 -0.98 0.05 0.29
41.05 133.14 15.90 0.54 -0.77 0.32 -0.30
41.73 132.43 12.55 0.83 -0.22 -0.52 0.18
40.00 135.91 11.59 0.68 -0.12 -0.72 0.66
40.85 133.25 11.54 0.48 -0.18 -0.86 0.27
45.87 133.88 16.48 0.38 -0.91 -0.17 -0.52
41.98 132.07 13.78 0.84 -0.52 0.17 0.10
45.11 138.46 16.15 0.75 -0.06 -0.66 0.18
44.41 133.56 17.32 -0.00 -1.00 0.07 0.01
45.59 137.63 16.39 0.68 0.45 -0.58 0.16
43.20 139.59 14.74 0.60 -0.15 -0.78 -0.51
44.19 139.31 15.22 0.49 -0.23 -0.84 -0.16
47.28 136.07 15.89 0.72 0.24 -0.66 -0.61
41.89 133.76 17.85 0.49 -0.85 -0.20 0.68
41.95 139.32 12.99 0.73 0.11 -0.67 0.35
41.34 133.47 16.81 0.59 -0.81 -0.06 -0.35
40.33 132.65 16.45 0.72 -0.69 0.03 -0.27
47.25 134.79 16.22 0.72 -0.54 -0.42 -0.55
40.97 138.57 12.02 0.57 -0.02 -0.82 0.41
43.26 133.85 18.76 0.06 -1.00 -0.04 0.03
41.04 131.39 12.82 0.48 -0.78 -0.41 0.16
40.29 132.06 15.30 0.36 -0.83 0.43 0.12
46.96 137.09 17.59 0.81 0.57 -0.17 0.76
39.08 133.96 10.95 0.28 -0.49 -0.83 0.31
45.60 138.52 17.32 0.91 0.04 -0.41 0.46
42.83 140.67 14.06 0.64 -0.31 -0.70 0.01
45.35 133.91 18.18 0.36 -0.91 0.22 0.14
39.35 132.87 11.53 -0.10 -0.47 -0.88 0.45
42.02 133.45 18.95 0.51 -0.86 0.05 0.33
39.35 135.60 10.32 0.93 -0.20 -0.31 0.27
39.97 138.48 11.43 0.76 -0.16 -0.63 0.49
47.70 135.65 17.12 1.00 0.02 -0.05 0.18
44.18 140.36 14.65 0.48 -0.40 -0.79 0.02
45.42 139.72 15.68 0.68 -0.35 -0.65 0.08
39.50 137.68 10.75 0.88 -0.07 -0.48 0.75
41.27 139.91 12.24 0.73 -0.10 -0.68 0.36
40.17 132.32 17.55 0.68 -0.72 -0.13 -1.30
47.18 134.64 17.69 0.69 -0.67 0.27 0.41
39.36 131.78 15.90 0.12 -0.97 -0.20 -0.46
40.22 131.12 14.03 0.22 -0.93 0.28 0.14
42.14 140.54 13.30 0.69 -0.42 -0.59 0.14
39.90 131.10 12.70 0.07 -0.86 -0.51 0.19
38.82 131.77 14.87 -0.38 -0.87 0.30 0.12
47.52 135.97 18.21 0.90 -0.05 0.44 1.04
38.53 134.14 10.16 0.45 -0.89 0.07 0.08
40.98 132.32 18.98 0.59 -0.80 -0.04 -0.07
42.63 133.81 20.39 -0.08 -0.98 0.19 -0.39
46.25 138.16 18.30 0.84 0.42 -0.34 0.21
39.08 131.78 12.01 -0.28 -0.51 -0.81 0.30
37.57 134.34 11.38 -0.33 -0.93 -0.18 0.75
44.56 133.73 20.02 0.25 -0.95 -0.17 0.04
43.34 141.72 13.24 0.65 -0.25 -0.71 0.15
41.22 141.10 11.94 0.65 -0.12 -0.75 0.48
41.60 133.58 20.31 0.31 -0.74 0.59 0.10
46.40 134.83 18.68 0.62 -0.63 0.47 0.73
39.70 131.39 18.10 0.67 -0.73 0.14 -1.83
39.64 138.77 10.25 0.88 -0.15 -0.45 1.32
40.08 139.88 10.82 0.79 -0.13 -0.60 0.49
37.92 133.35 12.26 -0.55 -0.52 -0.66 1.19
38.28 131.95 15.90 -0.13 -0.74 -0.66 -1.38
46.32 139.84 18.01 1.00 0.03 -0.06 0.19
38.86 131.21 13.98 -0.32 -0.89 0.32 0.19
45.76 141.16 15.60 0.77 -0.03 -0.63 0.08
38.87 130.79 17.04 0.27 -0.90 -0.34 -1.94
46.79 135.73 19.15 0.91 -0.27 0.31 0.37
47.02 137.40 19.50 0.98 0.22 -0.01 -1.01
45.74 134.74 19.60 0.72 -0.68 0.12 0.10
46.43 140.52 16.78 0.94 -0.15 -0.29 0.12
44.51 142.04 14.07 0.65 0.34 -0.68 0.09
38.88 134.35 9.14 0.93 -0.37 -0.01 -1.04
40.72 132.75 20.27 0.39 -0.69 0.61 -0.00
42.42 141.62 12.27 0.53 -0.27 -0.81 0.22
46.59 138.82 19.19 0.98 0.10 -0.17 0.10
38.93 138.20 9.16 0.92 0.01 -0.39 0.70
38.00 132.19 14.15 -0.65 -0.70 0.31 0.38
38.98 136.61 8.66 0.96 0.08 -0.26 -0.12
45.27 142.12 15.12 0.84 0.27 -0.48 0.08
39.97 132.02 19.39 0.40 -0.85 0.35 -0.27
38.00 132.61 15.20 -0.46 -0.87 -0.17 -0.06
38.27 131.43 12.91 -0.61 -0.75 -0.26 0.29
37.24 133.94 9.92 -0.24 -0.89 0.39 -0.55
42.98 133.60 21.34 -0.50 -0.85 -0.16 -0.07
36.85 134.05 12.32 -0.30 -0.78 -0.55 1.02
43.52 142.88 14.13 0.70 0.53 -0.49 0.36
45.67 134.45 20.51 0.66 -0.61 -0.44 0.10
38.98 139.29 9.31 0.84 -0.09 -0.53 1.03
44.70 133.18 21.18 0.09 -0.86 -0.50 0.11
40.30 141.66 11.19 0.87 -0.08 -0.49 0.61
46.76 137.56 20.58 0.94 0.34 0.06 -0.64
42.34 134.44 21.81 -0.50 -0.86 0.08 -0.62
47.03 136.45 20.17 0.99 -0.15 -0.06 -0.77
36.11 134.70 11.50 -0.39 -0.83 -0.39 0.98
38.99 131.75 19.55 0.31 -0.74 0.59 -0.95
39.00 134.85 8.20 0.95 -0.20 -0.24 -1.68
46.17 141.90 16.84 0.90 0.41 -0.12 0.10
42.52 142.90 12.42 0.66 0.30 -0.69 0.57
46.14 140.96 18.93 0.98 0.18 0.03 0.21
38.15 130.78 18.74 0.05 -0.95 0.29 -1.06
46.32 135.40 20.56 0.78 -0.54 -0.33 -0.21
39.97 133.61 20.81 0.31 -0.70 0.65 -0.02
37.31 131.17 16.92 -0.22 -0.81 -0.54 -1.48
41.10 134.69 21.49 0.11 -0.90 0.43 -0.46
37.97 133.17 8.31 0.40 -0.91 -0.00 -1.91
37.01 132.89 13.75 -0.31 -0.93 -0.20 0.61
39.32 140.53 9.29 0.85 -0.32 -0.43 0.36
40.87 143.20 11.84 0.60 0.10 -0.79 0.34
43.64 133.05 22.07 -0.51 -0.86 -0.06 0.11
38.60 136.14 7.31 0.84 0.12 -0.53 -0.45
46.43 140.06 20.08 0.99 0.15 0.04 0.10
35.92 134.83 9.89 -0.73 -0.66 0.17 0.16
46.03 141.90 18.29 0.93 0.36 -0.00 0.14
36.78 133.21 15.12 -0.08 -0.95 -0.31 0.96
35.91 134.02 12.58 -0.23 -0.73 -0.64 1.03
46.22 138.59 20.81 0.98 0.21 0.03 0.14
38.85 132.71 20.49 0.18 -0.68 0.71 -0.40
38.43 138.64 7.55 0.95 -0.10 -0.31 0.22
45.80 133.25 21.66 0.55 -0.70 -0.46 0.15
43.32 143.63 15.06 0.65 0.52 -0.56 0.17
38.11 137.23 7.06 0.80 0.08 -0.60 -0.17
40.26 142.80 10.84 0.96 -0.03 -0.28 -0.17
35.34 135.64 11.06 -0.81 -0.47 -0.34 1.47
44.83 132.58 22.39 -0.06 -0.99 -0.12 0.10
45.00 142.91 16.96 0.80 0.59 -0.10 0.08
36.06 133.77 8.52 -0.59 -0.77 0.26 -0.93
38.43 139.90 8.22 0.96 -0.09 -0.26 0.44
41.89 143.91 12.52 0.59 0.40 -0.70 0.56
47.38 136.48 21.23 0.65 0.08 -0.76 0.18
39.86 134.13 21.58 0.31 -0.91 0.28 0.01
42.59 144.03 13.76 0.75 0.56 -0.35 0.79
40.03 141.71 9.80 0.97 -0.23 -0.06 -0.37
37.77 132.06 20.24 0.12 -0.63 0.77 -0.73
34.81 134.83 12.26 -0.62 -0.45 -0.65 1.44
46.92 137.36 21.93 0.72 0.54 -0.44 0.49
38.29 134.59 6.88 0.64 -0.41 -0.65 -1.03
36.97 133.32 7.52 -0.13 -0.93 -0.35 -0.88
46.78 134.49 21.81 0.64 -0.54 -0.55 0.26
44.53 144.04 16.41 0.84 0.32 -0.44 0.07
41.08 134.79 22.78 0.18 -0.98 0.00 0.16
42.33 134.21 23.61 -0.44 -0.90 -0.08 0.38
36.10 132.77 15.76 0.32 -0.87 -0.36 0.80
43.80 133.14 23.36 -0.51 -0.83 0.22 0.23
36.75 131.25 19.73 -0.00 -0.87 0.50 -1.54
45.92 142.59 19.55 0.95 0.19 -0.24 0.16
45.87 141.50 20.59 0.99 0.09 -0.12 -0.14
38.70 133.70 21.89 0.33 -0.93 0.18 -0.01
46.37 139.60 21.63 1.00 0.03 -0.08 -1.04
35.80 131.95 16.48 0.22 -0.93 -0.30 0.66
35.65 134.09 7.52 -0.66 -0.75 -0.00 -1.24
34.84 136.60 11.37 -0.84 -0.33 -0.42 1.39
38.60 139.60 6.71 0.98 -0.16 -0.14 0.17
39.99 134.15 22.54 0.44 -0.89 -0.10 0.12
35.18 136.55 10.31 -0.92 -0.39 -0.07 1.04
35.20 132.63 13.99 0.03 -0.73 -0.68 0.64
44.84 143.33 18.02 0.95 0.21 -0.21 0.07
37.56 138.14 6.41 0.73 -0.49 -0.48 0.08
45.95 132.79 23.18 0.43 -0.90 0.07 0.06
48.06 136.82 21.99 0.07 0.66 -0.75 0.28
37.47 133.09 20.97 0.11 -0.84 0.53 -0.38
35.04 135.87 8.79 -0.91 -0.35 0.22 0.09
42.56 144.78 15.14 0.63 0.32 -0.71 0.08
37.41 135.25 6.08 0.56 -0.07 -0.82 -1.15
44.86 132.88 23.89 -0.01 -0.86 0.51 0.10
38.68 141.75 7.73 0.86 -0.25 -0.44 0.46
34.04 135.71 12.75 -0.68 -0.18 -0.71 1.31
41.40 145.12 12.80 0.90 0.11 -0.42 -0.30
46.54 138.85 22.59 0.84 0.32 -0.43 0.60
40.40 142.59 8.79 0.91 -0.22 -0.35 -1.13
44.89 144.92 16.91 0.94 -0.02 -0.35 0.19
40.22 145.08 11.04 0.89 -0.06 -0.45 -0.39
40.23 144.16 9.76 0.99 0.12 -0.10 -1.00
43.80 145.10 15.79 0.63 0.07 -0.77 0.20
47.90 134.84 22.25 -0.08 -0.62 -0.78 0.08
41.66 145.15 14.40 0.81 0.28 -0.52 0.19
47.64 138.29 22.75 0.14 0.59 -0.80 0.54
46.07 142.38 20.94 0.83 -0.34 -0.44 0.25
36.30 132.68 20.56 0.11 -0.64 0.76 -1.25
33.68 134.28 13.43 -0.58 -0.39 -0.71 1.05
35.57 131.05 19.54 0.31 -0.90 0.31 0.10
3 153 198 185
3 153 134 198
3 113 153 142
3 113 142 131
3 153 170 142
3 96 125 101
3 125 174 134
3 134 104 125
3 104 71 80
3 163 168 119
3 119 168 122
3 119 77 114
3 99 77 58
3 58 67 99
3 77 85 38
3 38 85 60
3 38 60 43
3 60 85 81
3 43 60 64
3 43 64 83
3 85 122 81
3 60 81 100
3 60 100 64
3 96 83 64
3 100 125 96
3 64 100 96
3 80 101 125
3 4 15 10
3 91 115 97
3 51 91 97
3 115 155 129
3 97 129 140
3 166 136 121
3 121 136 92
3 152 136 179
3 136 152 114
3 136 114 99
3 92 136 99
3 123 75 68
3 75 92 50
3 68 75 50
3 37 67 58
3 21 37 23
3 26 8 24
3 4 10 5
3 10 20 5
3 20 10 25
3 56 25 51
3 140 137 95
3 146 137 171
3 137 140 176
3 176 171 137
3 123 68 111
3 111 68 103
3 103 128 160
3 108 103 72
3 68 50 41
3 7 9 21
3 22 9 14
3 9 7 3
3 3 14 9
3 14 3 2
3 8 3 13
3 3 7 13
3 7 23 13
3 13 23 28
3 28 23 43
3 28 8 13
3 8 4 0
3 0 4 5
3 5 1 0
3 0 1 2
3 2 1 12
3 1 6 19
3 19 6 17
3 6 5 17
3 19 17 36
3 57 36 40
3 40 79 57
3 78 52 56
3 107 79 78
3 107 126 79
3 109 74 79
3 109 126 151
3 188 151 126
3 151 191 141
3 143 162 128
3 106 108 72
3 106 72 88
3 88 48 76
3 11 12 31
3 31 12 29
3 11 31 44
3 55 33 54
3 55 54 84
3 98 84 54
3 84 98 116
3 150 105 117
3 105 90 73
3 105 73 117
3 90 54 73
3 73 54 47
3 73 47 62
3 117 93 127
3 93 62 74
3 186 150 147
3 186 147 127
3 112 120 88
3 110 87 135
3 112 86 87
3 44 87 86
3 44 86 65
3 88 86 112
3 65 86 76
3 59 76 48
3 46 89 82
3 82 118 130
3 82 116 132
3 132 116 144
3 132 144 164
3 164 144 175
3 116 98 144
3 189 158 192
3 158 90 139
3 164 118 132
3 156 145 169
3 199 163 197
3 134 153 113
3 173 131 142
3 173 142 170
3 125 161 174
3 125 133 161
3 133 125 100
3 71 104 113
3 71 113 131
3 113 104 134
3 80 71 45
3 80 45 49
3 45 71 66
3 71 102 66
3 180 131 173
3 163 152 197
3 197 152 179
3 99 114 77
3 38 58 77
3 161 133 122
3 81 122 100
3 100 122 133
3 168 161 122
3 161 168 174
3 15 8 26
3 25 10 15
3 25 45 51
3 26 45 15
3 15 45 25
3 66 91 51
3 66 51 45
3 129 97 115
3 123 111 159
3 160 159 111
3 121 123 159
3 75 123 121
3 75 121 92
3 149 121 159
3 149 159 172
3 166 121 149
3 166 149 172
3 35 41 50
3 35 50 67
3 35 67 37
3 21 41 35
3 21 35 37
3 23 37 38
3 23 38 43
3 38 37 58
3 4 8 15
3 40 20 52
3 52 20 56
3 25 56 20
3 97 95 56
3 107 95 146
3 146 95 137
3 126 107 146
3 184 126 146
3 184 146 171
3 160 111 103
3 68 41 72
3 68 72 103
3 41 22 30
3 9 22 21
3 21 22 41
3 2 3 0
3 8 0 3
3 29 12 33
3 33 12 18
3 18 12 1
3 19 18 1
3 32 54 33
3 19 32 18
3 18 32 33
3 62 47 36
3 36 47 19
3 19 47 32
3 54 32 47
3 74 36 57
3 36 74 62
3 79 52 78
3 79 40 52
3 109 151 141
3 190 127 141
3 186 127 190
3 190 141 191
3 120 157 106
3 88 120 106
3 86 88 76
3 41 30 48
3 44 31 46
3 29 46 31
3 74 127 93
3 127 74 109
3 127 109 141
3 139 90 105
3 139 105 150
3 181 150 194
3 186 194 150
3 112 148 120
3 120 148 157
3 157 148 193
3 195 178 154
3 154 148 112
3 154 112 110
3 148 154 178
3 187 195 154
3 187 154 135
3 167 187 135
3 110 135 154
3 130 167 135
3 130 135 94
3 94 135 87
3 69 94 87
3 44 69 87
3 82 94 46
3 46 94 69
3 46 69 44
3 132 118 82
3 181 192 139
3 181 139 150
3 158 139 192
3 196 165 164
3 118 164 165
3 118 165 130
3 167 130 165
3 175 158 189
3 144 158 175
3 198 134 174
3 131 102 71
3 163 199 168
3 85 77 119
3 85 119 122
3 63 83 101
3 70 101 80
3 101 70 63
3 63 61 83
3 96 101 83
3 104 80 125
3 45 26 49
3 115 91 124
3 115 124 155
3 124 145 156
3 156 155 124
3 91 66 124
3 66 102 124
3 124 102 145
3 145 102 131
3 180 145 131
3 169 145 180
3 129 182 140
3 182 129 155
3 179 136 166
3 163 119 152
3 152 119 114
3 99 67 92
3 92 67 50
3 70 80 49
3 70 49 63
3 63 42 61
3 83 61 43
3 26 42 63
3 26 24 42
3 26 63 49
3 51 97 56
3 97 140 95
3 103 108 128
3 21 23 7
3 28 42 24
3 24 8 28
3 28 43 61
3 28 61 42
3 1 5 6
3 20 17 5
3 20 40 17
3 36 17 40
3 78 95 107
3 95 78 56
3 109 79 126
3 188 191 151
3 184 188 126
3 177 183 143
3 183 162 143
3 143 138 177
3 108 138 143
3 108 143 128
3 157 138 106
3 106 138 108
3 48 72 41
3 72 48 88
3 14 2 16
3 14 30 22
3 27 30 14
3 14 16 27
3 2 11 16
3 12 11 2
3 33 55 29
3 29 55 46
3 98 54 90
3 73 62 93
3 73 93 117
3 79 74 57
3 147 150 117
3 147 117 127
3 112 87 110
3 44 65 53
3 53 65 59
3 76 59 65
3 34 44 53
3 34 53 39
3 39 53 59
3 39 59 27
3 48 27 59
3 39 27 16
3 34 39 16
3 34 16 11
3 44 34 11
3 30 27 48
3 55 84 89
3 55 89 46
3 89 116 82
3 89 84 116
3 90 158 98
3 144 98 158
3 130 94 82
