ply
format ascii 1.0
comment Generated by MaSIF
element vertex 200
property float x
property float y
property float z
property float nx
property float ny
property float nz
property float charge
element face 351
property list uchar int vertex_indices
end_header
44.13 133.62 15.99 0.05 -0.90 -0.43 -0.01
42.92 133.83 16.37 0.04 -1.00 -0.02 -0.20
44.34 133.60 17.54 -0.02 -1.00 0.07 0.01
43.00 134.36 15.15 0.57 -0.64 -0.52 -0.58
45.55 134.67 15.60 0.36 -0.38 -0.86 -0.64
43.19 133.96 17.54 -0.19 -0.98 0.04 0.29
45.82 133.91 16.76 0.37 -0.91 -0.17 -0.52
44.28 135.83 15.06 0.47 -0.22 -0.86 -0.03
42.31 133.57 15.73 0.44 -0.89 0.10 -0.81
42.24 134.03 17.23 0.19 -0.98 0.11 0.44
45.26 133.93 18.44 0.35 -0.91 0.22 0.14
43.19 135.56 14.47 0.65 -0.50 -0.58 -0.07
43.15 133.89 18.96 0.05 -1.00 -0.05 0.03
42.04 133.29 14.61 0.83 -0.55 0.02 0.12
47.23 134.80 16.54 0.73 -0.55 -0.41 -0.55
45.73 136.56 15.63 0.46 0.41 -0.78 -0.51
41.81 133.83 18.01 0.48 -0.86 -0.19 0.68
43.96 136.60 14.27 0.87 -0.02 -0.50 0.07
47.12 134.63 18.00 0.67 -0.68 0.28 0.41
41.29 133.55 16.95 0.58 -0.81 -0.05 -0.35
41.01 133.23 16.03 0.52 -0.78 0.33 -0.30
47.28 136.07 16.22 0.74 0.23 -0.63 -0.61
41.76 134.14 13.27 0.87 -0.09 -0.49 0.74
44.31 137.70 15.64 0.66 0.22 -0.72 -0.07
46.31 134.83 18.97 0.60 -0.64 0.48 0.73
45.62 134.74 19.88 0.71 -0.69 0.14 0.10
47.66 135.65 17.46 1.00 0.01 -0.02 0.18
41.90 133.51 19.11 0.49 -0.87 0.06 0.33
42.20 135.53 13.23 0.63 -0.39 -0.67 0.17
42.86 136.29 13.06 0.57 -0.36 -0.74 0.16
43.57 137.39 13.44 0.82 0.16 -0.55 0.15
41.99 132.16 13.93 0.83 -0.53 0.19 0.10
44.41 133.74 20.25 0.24 -0.96 -0.17 0.04
40.28 132.75 16.56 0.71 -0.70 0.05 -0.27
45.60 137.65 16.69 0.70 0.45 -0.56 0.16
42.48 133.85 20.56 -0.10 -0.98 0.18 -0.39
47.45 135.96 18.55 0.88 -0.07 0.47 1.04
46.70 135.72 19.46 0.90 -0.29 0.33 0.37
40.26 132.16 15.40 0.33 -0.84 0.44 0.12
41.07 134.88 12.51 0.64 0.00 -0.77 0.91
43.51 138.46 15.05 0.73 0.19 -0.66 -0.81
40.08 132.41 17.64 0.68 -0.73 -0.11 -1.30
45.52 134.44 20.78 0.66 -0.62 -0.43 0.10
40.85 132.39 19.10 0.58 -0.81 -0.03 -0.07
45.14 138.50 16.44 0.77 -0.07 -0.64 0.18
41.44 135.76 12.53 0.51 -0.24 -0.83 0.53
46.93 137.09 17.92 0.82 0.56 -0.14 0.76
41.78 132.53 12.70 0.84 -0.22 -0.49 0.18
46.18 135.39 20.85 0.78 -0.55 -0.31 -0.21
42.72 138.01 12.82 0.59 0.22 -0.78 0.33
41.45 133.63 20.46 0.29 -0.75 0.59 0.10
42.99 138.87 14.28 0.86 0.29 -0.42 0.31
40.94 133.38 11.67 0.51 -0.18 -0.84 0.27
44.25 139.36 15.48 0.51 -0.23 -0.83 -0.16
41.07 131.50 12.93 0.48 -0.78 -0.40 0.16
42.80 133.63 21.53 -0.51 -0.84 -0.18 -0.07
39.30 131.89 15.97 0.11 -0.97 -0.21 -0.46
44.51 133.18 21.41 0.09 -0.86 -0.51 0.11
45.59 138.54 17.62 0.92 0.03 -0.38 0.46
40.55 132.81 20.38 0.37 -0.70 0.62 -0.00
46.91 136.43 20.50 0.99 -0.16 -0.03 -0.77
42.16 134.48 21.99 -0.51 -0.86 0.06 -0.62
40.22 131.24 14.12 0.20 -0.94 0.28 0.14
38.80 131.90 14.92 -0.40 -0.87 0.29 0.12
39.83 132.10 19.47 0.38 -0.85 0.36 -0.27
39.58 131.49 18.17 0.66 -0.74 0.15 -1.83
41.03 136.82 12.21 0.52 -0.06 -0.85 1.09
43.28 139.66 14.98 0.62 -0.15 -0.77 -0.51
46.93 137.39 19.83 0.98 0.21 0.02 -1.01
40.13 136.04 11.71 0.70 -0.12 -0.70 0.66
45.48 139.75 15.99 0.69 -0.35 -0.63 0.08
40.93 134.74 21.63 0.08 -0.90 0.42 -0.46
39.93 131.23 12.78 0.07 -0.86 -0.51 0.19
38.23 132.08 15.94 -0.12 -0.74 -0.66 -1.38
44.28 140.42 14.92 0.49 -0.40 -0.77 0.02
45.61 133.23 21.92 0.56 -0.70 -0.45 0.15
38.85 131.34 14.03 -0.34 -0.89 0.30 0.19
43.43 133.07 22.27 -0.51 -0.85 -0.08 0.11
38.77 130.90 17.09 0.27 -0.90 -0.34 -1.94
46.22 138.16 18.62 0.86 0.41 -0.31 0.21
46.59 134.46 22.11 0.65 -0.54 -0.54 0.26
39.44 133.02 11.61 -0.08 -0.46 -0.88 0.45
42.08 139.42 13.19 0.75 0.11 -0.65 0.35
47.24 136.44 21.57 0.67 0.08 -0.74 0.18
44.60 132.57 22.62 -0.06 -0.99 -0.13 0.10
39.81 133.68 20.91 0.28 -0.70 0.65 -0.02
46.65 137.54 20.90 0.94 0.33 0.09 -0.64
38.83 131.84 19.60 0.28 -0.75 0.60 -0.95
39.20 134.11 11.04 0.29 -0.48 -0.82 0.31
38.01 132.34 14.19 -0.66 -0.69 0.28 0.38
41.12 138.69 12.19 0.60 -0.02 -0.80 0.41
37.99 132.74 15.24 -0.46 -0.87 -0.19 -0.06
46.32 139.85 18.34 1.00 0.01 -0.03 0.19
42.95 140.75 14.30 0.65 -0.31 -0.69 0.01
38.68 132.80 20.55 0.15 -0.69 0.71 -0.40
38.30 131.58 12.95 -0.61 -0.74 -0.28 0.29
38.01 130.89 18.77 0.03 -0.96 0.29 -1.06
39.14 131.93 12.07 -0.26 -0.50 -0.82 0.30
40.88 134.83 22.92 0.17 -0.99 -0.00 0.16
46.54 138.81 19.52 0.99 0.09 -0.14 0.10
42.09 134.23 23.78 -0.45 -0.89 -0.10 0.38
45.83 141.19 15.92 0.79 -0.03 -0.61 0.08
43.55 133.14 23.56 -0.53 -0.82 0.20 0.23
46.76 137.32 22.26 0.74 0.53 -0.42 0.49
46.46 140.54 17.12 0.95 -0.16 -0.27 0.12
39.51 135.76 10.42 0.94 -0.21 -0.28 0.27
47.90 136.77 22.34 0.10 0.66 -0.74 0.28
41.43 140.03 12.43 0.74 -0.10 -0.66 0.36
39.68 134.19 21.68 0.29 -0.91 0.28 0.01
45.70 132.77 23.44 0.41 -0.91 0.08 0.06
47.70 134.79 22.58 -0.06 -0.61 -0.79 0.08
46.12 138.58 21.12 0.98 0.19 0.06 0.14
37.22 131.31 16.93 -0.22 -0.81 -0.55 -1.48
42.28 140.63 13.52 0.70 -0.42 -0.57 0.14
44.64 142.10 14.37 0.67 0.34 -0.66 0.09
37.99 133.51 12.30 -0.54 -0.50 -0.68 1.19
38.68 134.31 10.22 0.44 -0.89 0.08 0.08
44.59 132.87 24.12 -0.03 -0.87 0.50 0.10
40.14 138.62 11.57 0.78 -0.16 -0.61 0.49
37.60 132.16 20.27 0.09 -0.63 0.77 -0.73
39.67 137.83 10.87 0.89 -0.08 -0.45 0.75
37.04 133.05 13.76 -0.32 -0.92 -0.21 0.61
45.38 142.16 15.44 0.85 0.27 -0.45 0.08
37.68 134.51 11.42 -0.34 -0.92 -0.20 0.75
46.71 133.75 24.00 0.23 -0.97 -0.03 -0.04
36.78 133.36 15.13 -0.09 -0.94 -0.32 0.96
43.50 141.80 13.51 0.67 -0.25 -0.70 0.15
46.13 140.96 19.26 0.98 0.17 0.06 0.21
38.50 133.78 21.95 0.31 -0.93 0.18 -0.01
41.40 141.21 12.14 0.67 -0.13 -0.73 0.48
39.78 134.20 22.65 0.43 -0.90 -0.10 0.12
37.29 133.20 21.00 0.09 -0.84 0.53 -0.38
46.22 141.92 17.18 0.91 0.40 -0.09 0.10
40.28 140.02 10.98 0.81 -0.13 -0.58 0.49
46.37 140.05 20.41 0.99 0.14 0.07 0.10
43.33 133.84 24.87 -0.23 -0.94 0.25 0.50
46.04 141.91 18.63 0.94 0.34 0.02 0.14
39.05 134.52 9.21 0.92 -0.39 0.02 -1.04
45.00 133.61 24.80 0.13 -0.74 0.66 0.28
48.30 134.01 23.43 -0.23 -0.86 -0.46 -0.28
36.59 131.37 19.72 -0.03 -0.87 0.49 -1.54
39.94 134.02 23.99 0.47 -0.86 -0.21 0.26
47.48 138.25 23.10 0.17 0.59 -0.79 0.54
37.39 134.13 9.94 -0.27 -0.89 0.37 -0.55
43.66 142.95 14.40 0.72 0.52 -0.47 0.36
49.74 136.47 21.84 0.22 0.35 -0.91 0.94
46.25 139.58 21.96 1.00 0.02 -0.05 -1.04
49.29 137.57 22.53 0.27 0.70 -0.67 0.65
40.77 134.45 24.68 0.13 -0.90 -0.41 1.11
39.85 138.92 10.39 0.89 -0.16 -0.42 1.32
46.39 138.82 22.91 0.86 0.32 -0.41 0.60
36.93 134.22 12.34 -0.30 -0.77 -0.56 1.02
42.60 141.72 12.50 0.55 -0.27 -0.79 0.22
41.97 133.86 25.53 0.06 -0.92 -0.40 4.33
36.07 132.93 15.74 0.32 -0.88 -0.36 0.80
46.08 134.05 25.14 -0.03 -0.94 0.35 -0.01
49.34 135.08 21.84 0.06 -0.25 -0.97 0.25
39.20 136.79 8.76 0.97 0.07 -0.23 -0.12
36.13 132.80 20.54 0.08 -0.65 0.76 -1.25
49.30 133.77 22.56 -0.16 -0.84 -0.53 0.35
35.73 132.11 16.45 0.21 -0.93 -0.30 0.66
47.84 133.29 24.62 -0.11 -0.98 -0.18 -1.18
36.22 134.89 11.51 -0.39 -0.83 -0.41 0.98
37.24 133.45 22.25 0.21 -0.97 -0.13 -0.00
38.50 133.55 23.20 0.42 -0.86 -0.28 0.31
39.16 138.37 9.27 0.93 0.00 -0.37 0.70
42.71 143.00 12.67 0.69 0.29 -0.66 0.57
39.21 135.02 8.28 0.95 -0.21 -0.21 -1.68
35.98 134.20 12.57 -0.22 -0.72 -0.65 1.03
47.41 133.58 25.68 -0.25 -0.89 0.39 -1.52
49.36 133.62 23.78 0.30 -0.95 -0.04 0.17
43.45 143.69 15.33 0.67 0.51 -0.54 0.17
35.21 132.81 13.95 0.04 -0.73 -0.69 0.64
45.06 142.94 17.27 0.81 0.58 -0.07 0.08
40.52 141.79 11.36 0.88 -0.09 -0.47 0.61
38.15 133.36 8.36 0.39 -0.92 0.00 -1.91
45.91 142.59 19.89 0.96 0.18 -0.21 0.16
45.81 141.50 20.91 0.99 0.08 -0.09 -0.14
48.48 138.72 23.50 0.27 0.83 -0.49 0.35
50.63 135.66 22.31 0.79 0.04 -0.61 0.27
35.41 131.19 19.50 0.29 -0.91 0.31 0.10
49.69 137.94 23.76 0.63 0.75 -0.19 0.53
36.09 135.04 9.89 -0.74 -0.66 0.15 0.16
46.22 140.44 22.92 0.98 -0.13 -0.15 -0.18
43.50 133.85 26.38 0.34 -0.94 -0.02 0.88
39.21 139.46 9.43 0.86 -0.09 -0.50 1.03
38.77 133.35 24.37 0.52 -0.78 -0.34 0.47
44.63 144.08 16.72 0.86 0.31 -0.41 0.07
50.54 137.30 23.41 0.81 0.56 -0.19 0.57
42.77 144.11 14.01 0.77 0.55 -0.33 0.79
50.50 134.09 22.67 0.62 -0.63 -0.46 0.50
39.58 140.69 9.43 0.85 -0.32 -0.41 0.36
47.23 139.38 24.28 0.51 0.65 -0.56 0.73
42.56 133.25 26.70 0.46 -0.80 -0.39 3.50
41.08 143.32 12.04 0.63 0.10 -0.77 0.34
40.14 133.56 25.63 0.41 -0.70 -0.58 0.93
36.23 133.32 22.59 0.20 -0.96 -0.20 -0.22
35.36 133.04 21.30 0.35 -0.84 0.41 -0.32
44.95 133.87 26.04 0.18 -0.94 0.30 -1.11
48.93 133.42 25.41 0.39 -0.85 0.36 -1.45
3 89 121 95
3 121 172 168
3 168 151 121
3 151 123 115
3 163 131 128
3 140 160 96
3 96 160 112
3 96 65 87
3 64 65 41
3 41 43 64
3 65 78 33
3 33 78 56
3 33 56 38
3 56 78 73
3 38 56 63
3 38 63 76
3 78 112 73
3 56 73 91
3 56 91 63
3 89 76 63
3 91 121 89
3 63 91 89
3 115 95 121
3 28 39 45
3 137 167 157
3 105 137 157
3 128 94 85
3 85 94 59
3 119 94 131
3 94 119 87
3 94 87 64
3 59 94 64
3 71 50 35
3 50 59 27
3 35 50 27
3 19 43 41
3 9 19 20
3 52 22 47
3 28 45 29
3 45 66 29
3 66 45 69
3 120 69 105
3 153 100 135
3 135 102 117
3 102 135 77
3 135 100 77
3 71 35 61
3 61 35 55
3 55 77 100
3 57 55 32
3 35 27 12
3 8 1 9
3 5 1 0
3 1 8 3
3 3 0 1
3 0 3 7
3 22 3 13
3 3 8 13
3 8 20 13
3 13 20 31
3 31 20 38
3 31 22 13
3 22 28 11
3 11 28 29
3 29 17 11
3 11 17 7
3 7 17 23
3 17 30 51
3 51 30 49
3 30 29 49
3 51 49 82
3 107 82 90
3 90 133 107
3 149 118 120
3 185 133 149
3 185 191 133
3 174 129 133
3 155 198 135
3 155 135 138
3 198 184 135
3 138 135 117
3 117 109 124
3 169 124 161
3 109 75 124
3 161 124 139
3 84 102 77
3 42 57 32
3 42 32 25
3 25 10 24
3 15 23 34
3 34 23 44
3 15 34 46
3 70 53 74
3 70 74 101
3 122 101 74
3 101 122 132
3 189 144 166
3 144 114 126
3 144 126 166
3 114 74 126
3 126 74 93
3 126 93 113
3 166 152 194
3 152 113 129
3 199 161 170
3 161 139 170
3 170 139 159
3 156 159 110
3 60 48 25
3 145 110 83
3 147 145 106
3 86 68 111
3 60 37 68
3 46 68 37
3 46 37 36
3 25 37 60
3 36 37 24
3 18 24 10
3 58 104 92
3 92 127 134
3 92 132 136
3 136 132 173
3 136 173 176
3 132 122 173
3 187 114 171
3 179 156 145
3 181 188 147
3 178 147 142
3 176 127 136
3 180 140 158
3 131 163 197
3 131 197 158
3 196 197 163
3 180 158 197
3 121 154 172
3 121 125 154
3 125 121 91
3 123 151 162
3 123 162 182
3 162 151 168
3 115 123 88
3 115 88 81
3 88 123 116
3 123 143 116
3 128 164 163
3 140 119 158
3 158 119 131
3 64 87 65
3 33 41 65
3 154 125 112
3 73 112 91
3 91 112 125
3 160 154 112
3 154 160 172
3 39 22 52
3 69 45 39
3 69 88 105
3 52 88 39
3 39 88 69
3 116 137 105
3 116 105 88
3 186 141 195
3 153 148 100
3 98 100 148
3 98 148 141
3 141 148 195
3 98 141 130
3 71 61 98
3 100 98 61
3 85 71 98
3 50 71 85
3 50 85 59
3 108 85 98
3 108 98 130
3 128 85 108
3 128 108 130
3 16 12 27
3 16 27 43
3 16 43 19
3 9 12 16
3 9 16 19
3 20 19 33
3 20 33 38
3 33 19 41
3 28 22 39
3 90 66 118
3 118 66 120
3 69 120 66
3 157 165 120
3 153 184 193
3 184 153 135
3 100 61 55
3 35 12 32
3 35 32 55
3 12 5 2
3 1 5 9
3 9 5 12
3 7 3 11
3 22 11 3
3 44 23 53
3 53 23 40
3 40 23 17
3 51 40 17
3 67 74 53
3 51 67 40
3 40 67 53
3 113 93 82
3 82 93 51
3 51 93 67
3 74 67 93
3 129 82 107
3 82 129 113
3 133 118 149
3 133 90 118
3 155 124 169
3 124 155 138
3 124 138 117
3 139 110 159
3 110 139 124
3 110 124 80
3 80 124 75
3 48 80 42
3 25 48 42
3 37 25 24
3 12 2 10
3 46 34 58
3 44 58 34
3 129 194 152
3 194 129 174
3 171 114 144
3 171 144 189
3 60 83 48
3 48 83 80
3 80 83 110
3 106 145 83
3 147 106 142
3 142 106 103
3 103 83 60
3 103 60 86
3 83 103 106
3 150 142 103
3 150 103 111
3 146 150 111
3 86 111 103
3 134 146 111
3 134 111 99
3 99 111 68
3 79 99 68
3 46 79 68
3 92 99 58
3 58 99 79
3 58 79 46
3 136 127 92
3 146 183 150
3 150 192 142
3 142 192 178
3 127 176 177
3 127 177 134
3 146 134 177
3 182 143 123
3 140 180 160
3 78 65 96
3 78 96 112
3 72 76 95
3 97 95 115
3 95 97 72
3 72 62 76
3 89 95 76
3 151 115 121
3 88 52 81
3 167 137 175
3 137 116 175
3 116 143 175
3 130 141 128
3 131 94 128
3 140 96 119
3 119 96 87
3 64 43 59
3 59 43 27
3 97 115 81
3 97 81 72
3 72 54 62
3 76 62 38
3 52 54 72
3 52 47 54
3 52 72 81
3 105 157 120
3 55 57 77
3 9 20 8
3 31 54 47
3 47 22 31
3 31 38 62
3 31 62 54
3 17 29 30
3 66 49 29
3 66 90 49
3 82 49 90
3 149 165 185
3 165 149 120
3 174 133 191
3 109 117 84
3 117 102 84
3 84 75 109
3 57 75 84
3 57 84 77
3 80 75 42
3 42 75 57
3 10 32 12
3 32 10 25
3 0 7 4
3 0 2 5
3 6 2 0
3 0 4 6
3 7 15 4
3 23 15 7
3 53 70 44
3 44 70 58
3 122 74 114
3 126 113 152
3 126 152 166
3 133 129 107
3 199 169 161
3 190 159 156
3 190 156 179
3 190 170 159
3 60 68 86
3 46 36 26
3 26 36 18
3 24 18 36
3 21 46 26
3 21 26 14
3 14 26 18
3 14 18 6
3 10 6 18
3 14 6 4
3 21 14 4
3 21 4 15
3 46 21 15
3 2 6 10
3 70 101 104
3 70 104 58
3 104 132 92
3 104 101 132
3 114 187 122
3 173 122 187
3 156 110 145
3 188 145 147
3 188 179 145
3 134 99 92
3 141 186 164
3 141 164 128
