ply
format ascii 1.0
comment Generated by MaSIF
element vertex 200
property float x
property float y
property float z
property float nx
property float ny
property float nz
property float charge
element face 340
property list uchar int vertex_indices
end_header
-14.41 131.90 27.27 -0.83 -0.48 -0.28 -0.81
-14.23 132.18 26.01 -0.61 -0.63 -0.48 -0.31
-14.93 132.82 28.36 -0.99 0.11 -0.05 -0.26
-13.51 131.19 26.34 -0.67 -0.29 -0.69 -0.93
-14.59 130.82 28.02 -0.88 0.13 -0.46 -0.92
-15.41 133.15 26.45 -0.86 -0.49 -0.14 -0.19
-14.48 133.75 29.00 -0.61 0.72 0.33 -0.17
-13.77 130.21 26.31 -0.63 0.52 -0.58 -0.61
-12.60 131.93 25.60 -0.55 -0.32 -0.77 -0.30
-15.39 130.62 29.07 -0.73 0.05 -0.68 0.05
-15.36 133.95 27.46 -0.92 0.11 0.39 -0.15
-14.95 129.50 27.61 -0.88 0.44 -0.17 -0.16
-15.18 133.34 29.91 -0.52 0.83 -0.20 -0.02
-14.64 133.59 24.95 -0.58 -0.66 -0.47 -0.15
-12.81 132.42 24.86 -0.60 -0.65 -0.46 -0.23
-15.81 134.46 26.06 -0.98 -0.18 0.10 -0.13
-15.46 129.51 28.71 -0.87 0.37 -0.33 -0.01
-15.98 132.53 29.70 -0.77 0.37 -0.52 -0.03
-12.66 129.86 25.36 -0.50 0.47 -0.73 -0.66
-14.71 135.01 27.96 -0.67 0.45 0.59 -0.13
-13.51 134.54 28.98 -0.50 0.52 0.70 -0.17
-13.72 129.62 25.32 -0.52 0.60 -0.61 -0.47
-16.08 130.17 29.88 -0.88 -0.05 -0.48 -0.08
-15.23 128.85 26.67 -0.78 0.43 -0.45 -0.79
-13.97 133.68 24.14 -0.46 -0.71 -0.54 -0.17
-14.09 133.61 30.63 -0.26 0.94 -0.22 0.20
-16.46 131.19 29.79 -0.83 -0.10 -0.54 -0.13
-12.04 130.73 25.37 -0.93 0.18 -0.32 -0.64
-12.84 134.12 29.89 -0.68 0.68 0.28 -0.42
-15.07 135.59 26.66 -0.76 0.35 0.55 -0.09
-16.05 128.76 29.62 -0.93 0.05 -0.36 0.27
-15.61 133.59 31.35 -0.67 0.70 -0.26 -0.89
-14.62 134.32 23.59 -0.38 -0.84 -0.39 -0.13
-15.65 134.75 24.35 -0.77 -0.63 -0.12 -0.08
-12.99 133.39 23.43 -0.71 -0.41 -0.57 -0.21
-16.35 128.30 28.29 -0.95 0.30 -0.04 -1.13
-16.90 131.87 31.14 -0.98 0.21 0.06 -0.14
-15.93 136.23 25.64 -0.85 0.15 0.50 -0.07
-12.90 135.63 28.76 -0.74 0.40 0.54 -0.17
-14.31 128.33 25.30 -0.78 0.02 -0.63 -0.44
-11.88 131.05 24.04 -0.97 -0.06 0.22 -0.43
-13.52 128.48 24.39 -0.88 0.31 -0.36 -1.28
-14.74 127.63 26.06 -0.67 -0.14 -0.73 -0.55
-16.66 130.48 31.31 -1.00 -0.05 -0.08 -0.33
-14.41 136.47 26.78 -0.53 0.50 0.69 -0.08
-15.90 127.39 26.71 -0.69 -0.27 -0.67 -1.63
-16.03 127.16 29.05 -0.96 -0.27 0.02 -0.67
-13.38 134.50 23.03 -0.14 -0.87 -0.47 -0.16
-13.22 136.46 27.68 -0.56 0.59 0.58 -0.11
-14.97 134.48 31.87 -0.32 0.87 -0.37 -1.09
-13.02 134.21 31.49 -0.39 0.81 -0.44 -0.08
-14.57 134.73 22.59 -0.26 -0.96 -0.12 -0.08
-16.52 128.33 30.89 -0.95 -0.26 -0.15 -0.36
-12.22 135.61 29.75 -0.96 0.10 0.24 -0.51
-16.18 127.23 30.41 -0.94 -0.32 0.07 -0.12
-12.68 132.62 22.62 -0.93 0.34 -0.11 -0.24
-16.26 132.30 32.42 -0.95 0.12 0.27 -0.42
-16.28 126.83 27.68 -0.81 -0.57 -0.10 -1.07
-15.98 133.75 33.04 -0.80 0.54 0.27 -1.52
-16.61 135.63 23.91 -0.64 -0.59 0.49 0.08
-14.06 127.16 25.46 -0.78 -0.20 -0.60 -0.59
-14.67 126.55 26.43 -0.72 -0.55 -0.42 -0.39
-15.61 135.16 22.54 -0.22 -0.97 0.07 0.28
-13.59 128.59 23.41 -0.84 0.25 0.48 -0.77
-11.70 133.74 22.47 -0.91 -0.18 -0.37 -0.86
-15.99 137.13 24.42 -0.80 0.20 0.56 0.11
-12.65 129.50 23.72 -0.73 0.55 0.40 -0.81
-12.17 137.18 28.28 -0.71 0.70 0.06 -0.10
-12.78 135.10 22.47 -0.33 -0.84 -0.43 -0.13
-14.88 126.24 28.80 -0.52 -0.82 -0.23 -0.44
-12.72 130.24 23.03 -0.69 0.28 0.67 -0.25
-12.85 131.58 22.82 -0.85 0.18 0.49 -0.29
-12.89 137.48 26.86 -0.29 0.74 0.61 -0.09
-15.71 126.19 30.13 -0.72 -0.69 -0.07 -0.17
-15.17 138.08 25.42 -0.65 0.21 0.73 -0.05
-13.39 126.86 23.56 -0.83 -0.51 0.20 -1.24
-16.95 129.09 32.04 -0.94 0.01 0.35 -1.01
-13.55 126.64 24.79 -0.89 -0.21 -0.40 -1.25
-12.29 135.29 32.06 -0.88 0.31 -0.35 0.06
-12.44 137.27 29.90 -0.96 0.27 0.02 -0.12
-14.11 134.78 33.11 -0.47 0.86 0.20 -0.46
-15.73 130.97 33.08 -0.79 -0.09 0.61 -0.10
-11.91 133.02 21.95 -0.81 0.57 0.11 0.06
-14.88 134.79 21.24 -0.24 -0.97 0.05 0.10
-12.89 132.19 21.70 -0.87 0.49 0.05 -0.19
-16.89 136.88 23.75 -0.21 0.26 0.94 0.39
-17.08 135.29 22.93 -0.04 -0.94 0.34 0.68
-15.69 132.58 33.80 -0.80 0.05 0.60 -0.96
-16.12 134.86 21.64 -0.07 -0.99 0.09 0.38
-13.95 138.26 25.90 -0.34 0.23 0.91 -0.07
-14.34 128.28 22.57 -0.82 0.08 0.57 -0.59
-15.55 127.36 32.35 -0.68 -0.48 0.56 -0.79
-11.72 133.86 21.47 -0.85 -0.18 0.50 -0.12
-15.18 126.21 31.42 -0.81 -0.51 0.28 -0.00
-13.40 135.47 32.97 -0.91 0.30 -0.28 -0.23
-16.29 128.48 33.06 -0.67 -0.37 0.64 -1.59
-13.92 125.36 25.89 -0.70 -0.64 -0.32 -0.34
-18.02 136.25 23.89 -0.01 -0.36 0.93 0.78
-13.87 125.71 27.59 -0.57 -0.82 0.00 0.03
-13.35 130.74 22.37 -0.69 0.46 0.56 -0.42
-14.71 133.39 34.31 -0.58 0.53 0.61 -0.87
-15.73 138.60 24.75 -0.82 -0.08 0.57 -0.01
-11.18 137.54 27.41 -0.60 0.80 -0.07 -0.06
-13.19 134.24 20.75 -0.35 -0.91 0.22 -0.21
-12.23 136.38 31.42 -0.91 -0.19 -0.36 0.03
-14.66 139.02 25.76 -0.43 -0.08 0.90 -0.11
-12.80 138.34 26.26 -0.06 0.33 0.94 -0.08
-11.37 138.22 28.76 -0.74 0.61 -0.27 0.30
-14.32 125.45 29.59 -0.54 -0.76 -0.36 -0.07
-12.99 125.53 24.67 -0.56 -0.70 -0.44 -0.81
-12.33 137.74 30.75 -0.83 0.31 -0.47 -0.07
-15.47 129.96 33.34 -0.58 0.06 0.81 -0.77
-13.74 134.16 34.09 -0.70 0.55 0.45 -0.39
-14.27 129.87 22.18 -0.72 0.39 0.57 -1.04
-13.25 126.05 22.25 -0.20 -0.97 0.13 -0.19
-14.44 126.71 22.56 -0.77 -0.44 0.46 0.12
-14.57 134.63 19.91 -0.36 -0.92 -0.16 -0.10
-12.49 133.43 20.92 -0.94 -0.05 0.35 -0.22
-14.54 130.81 33.99 -0.75 -0.19 0.64 -0.07
-17.27 138.17 23.15 -0.10 0.60 0.80 0.22
-11.84 125.86 22.66 0.14 -0.98 -0.17 -0.50
-13.69 131.22 20.99 -0.70 0.71 0.03 -1.04
-18.52 135.04 22.88 -0.12 -0.96 0.26 0.26
-12.54 132.36 20.14 -0.94 0.11 -0.31 -0.23
-14.82 128.89 21.64 -0.94 0.06 0.34 -0.90
-14.72 132.37 34.81 -0.76 -0.06 0.65 -0.25
-18.01 135.16 21.56 -0.26 -0.94 -0.19 0.31
-16.57 139.04 23.00 -0.76 0.46 0.46 0.25
-13.51 139.43 26.08 -0.18 -0.12 0.98 -0.11
-15.80 135.10 19.77 -0.23 -0.91 -0.34 0.52
-11.04 137.86 26.22 -0.32 0.63 0.71 0.07
-12.95 124.91 26.66 -0.18 -0.98 0.12 -0.36
-13.00 136.39 32.44 -0.90 -0.13 -0.42 -0.13
-19.18 135.81 23.74 -0.20 -0.56 0.81 0.48
-14.93 127.53 21.26 -0.95 -0.22 -0.21 0.31
-17.17 135.06 20.38 -0.30 -0.88 -0.38 0.38
-11.24 138.76 30.54 -0.71 0.63 -0.32 -0.28
-11.50 125.58 23.52 -0.16 -0.82 -0.55 -1.65
-10.75 138.73 28.27 -0.91 0.35 -0.21 0.35
-14.39 125.73 32.46 -0.74 -0.41 0.53 0.00
-18.78 137.50 23.89 -0.04 0.36 0.93 0.04
-12.82 131.35 19.75 -0.49 0.31 -0.81 -0.39
-15.34 139.92 25.54 -0.58 0.05 0.81 -0.12
-13.38 136.43 33.98 -0.94 -0.30 -0.16 -0.20
-14.84 128.81 33.58 -0.44 -0.37 0.82 -0.59
-12.12 124.89 25.49 -0.20 -0.97 -0.10 -1.25
-13.27 134.13 19.38 -0.67 -0.70 -0.22 -0.53
-14.35 126.88 33.52 -0.66 -0.29 0.69 -0.20
-11.86 138.81 31.19 -0.44 0.51 -0.74 -0.05
-12.72 125.33 28.71 -0.18 -0.91 -0.37 0.31
-14.22 124.80 31.97 -0.78 -0.52 0.35 0.07
-14.44 124.37 30.59 -0.72 -0.67 -0.18 -0.11
-10.47 138.50 26.59 -0.95 0.23 0.22 0.01
-10.78 139.33 29.63 -0.87 0.49 -0.08 0.09
-13.07 134.08 35.42 -0.46 0.41 0.79 -1.16
-14.48 126.31 21.19 -0.60 -0.77 -0.22 0.19
-13.40 137.84 31.86 -0.81 -0.21 -0.55 -0.09
-10.82 126.35 22.93 0.60 -0.46 -0.66 -1.14
-14.26 140.67 25.99 -0.49 -0.08 0.87 -0.17
-11.85 132.10 19.20 -0.53 -0.39 -0.75 -0.27
-13.72 132.59 35.85 -0.50 0.22 0.84 -0.13
-13.39 126.29 20.69 -0.21 -0.72 -0.67 -0.18
-13.84 128.15 33.69 -0.37 -0.27 0.89 -0.09
-11.36 124.70 24.84 -0.23 -0.96 -0.18 -1.88
-12.87 135.41 35.27 -0.69 -0.14 0.71 -0.51
-14.81 135.41 18.75 -0.34 -0.75 -0.57 0.12
-11.88 126.17 21.35 0.37 -0.82 -0.44 0.10
-12.59 139.68 26.37 -0.15 -0.47 0.87 -0.12
-17.51 139.04 22.16 -0.04 0.89 0.45 0.16
-11.01 126.70 21.98 0.74 -0.62 -0.26 -0.17
-15.03 130.08 20.63 -0.92 0.39 -0.02 -1.48
-14.89 128.78 20.26 -0.83 -0.18 -0.53 -1.33
-16.09 140.66 24.76 -0.81 0.18 0.56 -0.15
-16.12 139.71 22.03 -0.92 0.37 -0.13 0.15
-12.40 132.97 19.14 -0.79 -0.53 -0.30 -0.72
-17.79 135.80 19.93 -0.44 -0.75 -0.49 0.42
-14.13 130.94 35.32 -0.80 -0.12 0.59 -0.10
-18.58 138.53 22.88 -0.00 0.73 0.68 -0.27
-11.09 139.11 25.90 -0.36 -0.28 0.89 -0.09
-16.50 140.48 23.56 -0.99 0.11 0.07 -0.11
-20.29 136.52 23.75 -0.57 -0.05 0.82 0.32
-12.28 130.31 19.52 0.03 0.11 -0.99 -0.50
-16.87 135.88 19.27 -0.38 -0.72 -0.59 0.98
-12.77 123.88 30.17 -0.38 -0.75 -0.54 0.22
-14.00 130.22 19.46 -0.46 0.34 -0.82 -1.45
-10.07 125.56 23.52 0.22 -0.46 -0.86 -1.79
-10.53 139.34 27.31 -0.93 -0.25 0.26 -0.11
-20.19 135.70 22.44 -0.68 -0.72 0.12 0.51
-13.98 127.96 20.03 -0.46 -0.45 -0.77 -0.69
-19.60 138.27 22.99 -0.19 0.61 0.77 0.08
-10.50 140.03 28.17 -0.99 0.07 0.14 0.21
-13.84 129.13 34.63 -0.76 -0.48 0.44 -0.13
-16.68 139.29 21.11 -0.33 0.92 0.20 0.30
-13.66 136.36 35.52 -0.64 -0.70 0.31 -0.18
-14.00 137.72 33.78 -0.86 -0.40 -0.31 -0.06
-11.09 125.06 26.66 0.10 -0.96 0.25 -1.11
-11.45 125.35 28.28 0.23 -0.97 -0.01 -0.09
-12.72 133.08 35.87 -0.28 0.26 0.92 -0.33
-13.44 124.02 32.57 -0.78 -0.52 0.36 0.10
-19.80 135.93 21.07 -0.46 -0.82 -0.33 -0.42
3 182 165 129
3 165 146 116
3 116 146 103
3 123 174 159
3 159 141 123
3 172 101 142
3 101 179 127
3 140 119 177
3 179 173 127
3 126 175 135
3 175 182 135
3 126 135 88
3 126 88 86
3 32 62 51
3 88 129 83
3 83 129 116
3 116 129 165
3 83 103 51
3 51 103 47
3 123 141 84
3 121 141 184
3 141 181 184
3 106 89 72
3 158 105 128
3 158 142 105
3 105 101 74
3 44 74 37
3 74 101 65
3 74 65 37
3 97 133 122
3 85 97 59
3 97 86 59
3 37 59 33
3 33 59 32
3 33 32 13
3 24 32 47
3 47 34 24
3 70 71 99
3 70 99 66
3 66 99 113
3 99 71 84
3 99 84 121
3 121 113 99
3 90 124 134
3 124 171 134
3 134 171 188
3 153 190 138
3 186 138 190
3 72 48 67
3 48 44 19
3 29 37 15
3 37 33 15
3 15 33 13
3 14 13 24
3 13 14 1
3 14 3 1
3 21 23 7
3 3 7 4
3 23 39 42
3 42 45 23
3 75 41 63
3 75 63 90
3 39 21 41
3 63 41 66
3 113 63 66
3 113 124 90
3 90 115 75
3 115 114 75
3 77 75 109
3 75 114 120
3 120 137 75
3 109 75 137
3 120 169 157
3 120 157 137
3 137 157 185
3 136 153 107
3 138 107 153
3 136 79 110
3 148 110 156
3 110 79 104
3 110 104 156
3 156 104 132
3 78 53 28
3 79 67 38
3 20 38 19
3 19 6 20
3 25 6 12
3 10 2 19
3 6 19 2
3 6 2 12
3 12 2 17
3 5 2 10
3 5 1 0
3 0 1 3
3 0 3 4
3 17 4 9
3 23 35 16
3 9 16 22
3 16 35 46
3 46 30 16
3 54 46 73
3 69 73 46
3 45 61 69
3 98 69 61
3 61 96 98
3 96 61 60
3 96 109 145
3 96 145 131
3 145 163 195
3 78 28 50
3 80 50 49
3 25 12 31
3 31 49 25
3 17 31 12
3 22 26 9
3 52 43 22
3 22 43 26
3 52 54 91
3 93 91 54
3 147 93 139
3 93 73 108
3 150 93 151
3 108 151 93
3 183 108 149
3 131 195 196
3 193 194 143
3 143 132 94
3 164 112 154
3 87 125 100
3 58 31 56
3 56 31 36
3 36 31 17
3 76 43 52
3 76 111 81
3 118 144 191
3 118 191 176
3 95 91 144
3 162 144 91
3 91 147 162
3 197 154 160
3 160 154 100
3 118 125 81
3 117 146 174
3 117 174 123
3 85 65 127
3 85 127 119
3 85 119 140
3 101 127 65
3 177 119 168
3 168 119 127
3 192 168 127
3 192 127 173
3 62 59 86
3 59 62 32
3 62 86 88
3 62 83 51
3 88 83 62
3 64 34 68
3 34 47 68
3 64 68 103
3 103 68 47
3 103 92 64
3 92 103 117
3 82 117 84
3 82 84 55
3 92 117 82
3 123 84 117
3 117 103 146
3 121 84 141
3 152 186 178
3 152 178 130
3 130 178 106
3 130 106 72
3 128 106 178
3 128 178 167
3 89 128 105
3 106 128 89
3 72 89 44
3 44 89 74
3 74 89 105
3 97 85 140
3 59 37 65
3 59 65 85
3 24 13 32
3 82 55 64
3 82 64 92
3 34 64 55
3 27 14 40
3 34 40 14
3 34 55 40
3 40 55 71
3 66 27 40
3 41 18 27
3 41 27 66
3 66 40 70
3 70 40 71
3 41 21 18
3 67 102 72
3 138 102 107
3 107 102 67
3 72 102 130
3 186 152 138
3 138 152 102
3 102 152 130
3 38 67 48
3 38 48 19
3 29 19 44
3 29 44 37
3 8 14 27
3 3 14 8
3 3 8 18
3 18 8 27
3 3 18 7
3 7 18 21
3 4 7 23
3 4 23 11
3 60 42 39
3 77 41 75
3 77 60 41
3 39 41 60
3 113 90 63
3 110 148 136
3 104 53 78
3 53 104 79
3 28 53 38
3 28 38 20
3 38 53 79
3 25 28 6
3 6 28 20
3 4 17 2
3 4 2 0
3 0 2 5
3 16 11 23
3 4 11 16
3 4 16 9
3 30 22 16
3 54 52 30
3 54 30 46
3 108 73 69
3 108 69 98
3 60 61 42
3 42 61 45
3 94 78 50
3 94 50 80
3 104 78 94
3 104 94 132
3 25 49 50
3 28 25 50
3 91 93 147
3 150 139 93
3 108 98 149
3 149 98 131
3 196 149 131
3 112 164 94
3 112 94 80
3 143 94 164
3 143 164 193
3 154 112 100
3 100 112 80
3 81 125 87
3 81 56 36
3 81 36 43
3 81 43 76
3 118 81 111
3 144 118 111
3 150 198 139
3 118 176 125
3 179 101 172
3 129 135 182
3 135 129 88
3 116 103 83
3 128 167 158
3 142 101 105
3 189 140 177
3 97 140 133
3 133 187 122
3 199 122 187
3 122 199 126
3 180 187 133
3 180 133 140
3 189 180 140
3 86 122 126
3 97 122 86
3 51 47 32
3 55 84 71
3 171 170 184
3 170 171 124
3 170 124 113
3 113 121 170
3 170 121 184
3 48 72 44
3 15 13 5
3 15 5 10
3 15 10 29
3 14 24 34
3 23 21 39
3 115 134 155
3 155 134 161
3 155 161 114
3 155 114 115
3 134 115 90
3 134 188 161
3 161 166 114
3 169 120 166
3 166 120 114
3 107 67 136
3 79 136 67
3 19 29 10
3 13 1 5
3 35 23 45
3 57 35 45
3 69 57 45
3 69 46 57
3 46 35 57
3 109 163 145
3 109 137 163
3 156 132 143
3 156 143 194
3 9 26 17
3 22 30 52
3 93 54 73
3 183 151 108
3 131 98 96
3 96 60 77
3 96 77 109
3 145 195 131
3 87 58 56
3 87 100 58
3 100 80 58
3 49 58 80
3 31 58 49
3 43 36 26
3 36 17 26
3 95 76 52
3 91 95 52
3 111 95 144
3 95 111 76
3 125 176 160
3 125 160 100
3 56 81 87
