ply
format ascii 1.0
comment Generated by MaSIF
element vertex 200
property float x
property float y
property float z
property float nx
property float ny
property float nz
property float charge
element face 347
property list uchar int vertex_indices
end_header
-13.77 130.16 25.79 -0.61 0.58 -0.54 -0.61
-13.67 129.70 24.74 -0.50 0.66 -0.55 -0.47
-13.53 131.13 25.96 -0.63 -0.21 -0.75 -0.93
-12.61 129.95 24.86 -0.47 0.55 -0.69 -0.66
-15.23 128.75 25.91 -0.77 0.48 -0.43 -0.79
-14.67 130.54 27.53 -0.86 0.17 -0.48 -0.92
-14.23 128.43 24.53 -0.75 0.09 -0.65 -0.44
-14.25 132.15 25.73 -0.58 -0.57 -0.59 -0.31
-12.60 131.97 25.36 -0.51 -0.23 -0.83 -0.30
-14.48 131.71 26.93 -0.81 -0.45 -0.38 -0.81
-12.01 130.82 25.01 -0.92 0.21 -0.34 -0.64
-13.41 128.69 23.68 -0.87 0.35 -0.36 -1.28
-14.99 129.29 26.94 -0.88 0.45 -0.15 -0.16
-14.69 127.63 25.18 -0.63 -0.05 -0.78 -0.55
-12.79 132.55 24.69 -0.57 -0.60 -0.56 -0.23
-15.52 130.20 28.51 -0.70 0.13 -0.71 0.05
-15.87 127.29 25.73 -0.65 -0.19 -0.73 -1.63
-13.97 127.25 24.55 -0.74 -0.13 -0.65 -0.59
-15.55 129.14 28.01 -0.86 0.40 -0.32 -0.01
-13.43 128.93 22.72 -0.87 0.18 0.47 -0.77
-16.40 127.99 27.40 -0.96 0.29 -0.04 -1.13
-15.06 132.48 28.10 -0.99 0.10 -0.08 -0.26
-15.47 133.04 26.23 -0.85 -0.47 -0.24 -0.19
-11.79 131.30 23.74 -0.98 -0.10 0.17 -0.43
-12.52 129.81 23.20 -0.76 0.49 0.43 -0.81
-14.62 126.51 25.41 -0.69 -0.50 -0.52 -0.39
-13.21 127.20 22.66 -0.83 -0.54 0.10 -1.24
-13.43 126.82 23.85 -0.87 -0.16 -0.47 -1.25
-14.63 133.68 24.84 -0.55 -0.61 -0.57 -0.15
-16.23 129.64 29.22 -0.85 0.00 -0.52 -0.08
-16.28 126.61 26.61 -0.80 -0.57 -0.21 -1.07
-16.16 132.01 29.35 -0.75 0.42 -0.51 -0.03
-16.63 130.66 29.24 -0.81 -0.04 -0.59 -0.13
-16.17 128.28 28.79 -0.92 0.08 -0.39 0.27
-14.14 128.72 21.82 -0.84 -0.00 0.54 -0.59
-14.65 133.32 28.88 -0.64 0.66 0.39 -0.17
-12.92 133.69 23.38 -0.68 -0.34 -0.65 -0.21
-15.48 133.71 27.34 -0.93 0.05 0.35 -0.15
-16.10 126.77 28.02 -0.96 -0.28 -0.06 -0.67
-13.93 133.88 24.08 -0.42 -0.64 -0.64 -0.17
-12.57 130.62 22.60 -0.72 0.19 0.66 -0.25
-13.82 125.40 24.76 -0.67 -0.60 -0.43 -0.34
-15.87 134.39 26.00 -0.98 -0.21 0.03 -0.13
-12.84 125.74 23.61 -0.53 -0.65 -0.55 -0.81
-15.39 132.80 29.70 -0.52 0.84 -0.12 -0.02
-14.08 130.35 21.64 -0.76 0.31 0.58 -1.04
-13.85 125.54 26.49 -0.55 -0.82 -0.13 0.03
-13.01 126.56 21.27 -0.19 -0.98 -0.01 -0.19
-12.72 131.98 22.55 -0.88 0.10 0.47 -0.29
-14.92 125.90 27.71 -0.49 -0.79 -0.36 -0.44
-14.22 127.16 21.60 -0.78 -0.51 0.37 0.12
-16.88 129.77 30.65 -0.99 -0.05 -0.13 -0.33
-14.57 134.58 23.58 -0.35 -0.78 -0.51 -0.13
-15.64 134.90 24.34 -0.75 -0.62 -0.23 -0.08
-11.61 126.34 21.72 0.16 -0.95 -0.28 -0.50
-17.14 131.16 30.65 -0.98 0.19 0.04 -0.14
-14.59 129.44 20.96 -0.95 0.01 0.30 -0.90
-14.86 134.71 27.99 -0.71 0.36 0.61 -0.13
-13.18 131.20 21.97 -0.72 0.38 0.58 -0.42
-13.70 134.13 29.01 -0.54 0.42 0.73 -0.17
-12.55 133.04 22.49 -0.93 0.34 -0.11 -0.24
-16.68 127.69 29.97 -0.94 -0.25 -0.23 -0.36
-12.88 124.87 25.51 -0.17 -0.98 -0.01 -0.36
-14.66 128.13 20.39 -0.94 -0.20 -0.28 0.31
-13.31 134.84 23.11 -0.10 -0.80 -0.59 -0.16
-11.30 125.95 22.55 -0.13 -0.74 -0.66 -1.65
-16.31 126.66 29.37 -0.94 -0.34 -0.01 -0.12
-15.89 132.85 31.13 -0.67 0.72 -0.20 -0.89
-15.81 125.67 28.99 -0.70 -0.69 -0.19 -0.17
-12.00 125.01 24.39 -0.18 -0.95 -0.23 -1.25
-11.60 134.18 22.54 -0.89 -0.14 -0.44 -0.86
-15.18 135.44 26.76 -0.79 0.27 0.55 -0.09
-14.34 132.98 30.49 -0.27 0.96 -0.11 0.20
-13.07 133.59 29.88 -0.70 0.63 0.33 -0.42
-12.72 132.72 21.52 -0.88 0.47 0.08 -0.19
-12.69 135.52 22.66 -0.30 -0.78 -0.55 -0.13
-14.18 126.94 20.20 -0.58 -0.74 -0.34 0.19
-14.48 135.12 22.65 -0.24 -0.94 -0.26 -0.08
-14.38 125.02 28.42 -0.51 -0.71 -0.48 -0.07
-10.61 126.80 22.09 0.63 -0.37 -0.68 -1.14
-13.08 127.00 19.75 -0.17 -0.63 -0.76 -0.18
-16.00 136.20 25.80 -0.88 0.07 0.47 -0.07
-11.21 124.91 23.75 -0.21 -0.93 -0.31 -1.88
-11.60 126.81 20.46 0.40 -0.75 -0.52 0.10
-10.77 127.26 21.19 0.76 -0.57 -0.31 -0.17
-14.78 130.75 20.09 -0.93 0.38 -0.01 -1.48
-14.59 129.51 19.57 -0.80 -0.12 -0.59 -1.33
-11.77 133.53 21.92 -0.83 0.55 0.15 0.06
-12.74 125.03 27.61 -0.14 -0.86 -0.49 0.31
-13.47 131.84 20.65 -0.72 0.69 0.09 -1.04
-16.60 135.81 23.97 -0.65 -0.66 0.38 0.08
-17.18 128.28 31.19 -0.95 -0.05 0.31 -1.01
-13.10 135.24 28.95 -0.77 0.32 0.56 -0.17
-16.56 131.43 32.00 -0.97 0.08 0.24 -0.42
-15.53 135.54 22.60 -0.21 -0.98 -0.06 0.28
-15.28 133.67 31.79 -0.32 0.91 -0.27 -1.09
-14.54 136.30 27.02 -0.56 0.40 0.72 -0.08
-9.88 125.95 22.62 0.27 -0.34 -0.90 -1.79
-16.04 130.03 32.51 -0.81 -0.17 0.55 -0.10
-13.66 128.73 19.28 -0.41 -0.35 -0.84 -0.69
-15.34 125.53 30.28 -0.81 -0.56 0.18 -0.00
-11.57 134.42 21.56 -0.87 -0.26 0.43 -0.12
-11.02 125.04 25.61 0.11 -0.99 0.13 -1.11
-15.76 126.55 31.34 -0.70 -0.55 0.46 -0.79
-16.33 132.80 32.81 -0.82 0.49 0.30 -1.52
-13.39 136.20 27.97 -0.60 0.50 0.63 -0.11
-16.55 127.57 32.15 -0.69 -0.46 0.56 -1.59
-10.36 128.01 21.79 0.74 -0.60 -0.29 -1.06
-13.32 133.48 31.47 -0.39 0.85 -0.35 -0.08
-9.94 124.85 23.57 0.08 -0.87 -0.48 -2.06
-12.31 133.09 20.01 -0.93 0.14 -0.34 -0.23
-14.73 135.34 21.30 -0.23 -0.97 -0.08 0.10
-9.90 127.77 22.77 0.61 -0.37 -0.70 -2.17
-12.25 128.09 19.17 0.12 -0.41 -0.90 -0.58
-14.53 123.82 29.27 -0.70 -0.65 -0.30 -0.11
-11.46 125.11 27.24 0.25 -0.96 -0.12 -0.09
-16.88 137.07 23.96 -0.25 0.14 0.96 0.39
-17.02 135.59 22.94 -0.04 -0.97 0.22 0.68
-13.70 131.05 19.00 -0.42 0.44 -0.79 -1.45
-12.31 134.06 20.92 -0.95 -0.10 0.30 -0.22
-10.30 128.27 20.44 0.65 -0.65 -0.39 -0.29
-12.47 135.10 29.96 -0.98 0.06 0.21 -0.51
-16.02 137.24 24.70 -0.83 0.11 0.54 0.11
-12.55 132.14 19.48 -0.46 0.41 -0.79 -0.39
-15.99 135.35 21.65 -0.06 -1.00 -0.04 0.38
-13.12 129.78 18.69 -0.15 -0.08 -0.98 -0.91
-13.02 134.88 20.83 -0.35 -0.93 0.09 -0.21
-15.77 129.00 32.65 -0.62 -0.05 0.79 -0.77
-16.06 131.55 33.43 -0.83 -0.04 0.56 -0.96
-11.19 128.43 19.51 0.39 -0.52 -0.76 -0.25
-18.01 136.41 23.97 -0.05 -0.47 0.88 0.78
-15.26 138.07 25.84 -0.68 0.11 0.72 -0.05
-14.48 133.82 33.10 -0.49 0.82 0.29 -0.46
-12.38 136.84 28.70 -0.72 0.68 0.12 -0.10
-14.59 124.93 31.30 -0.76 -0.48 0.44 0.00
-14.89 129.77 33.45 -0.77 -0.27 0.58 -0.07
-8.51 125.95 23.11 -0.14 -0.26 -0.96 -1.18
-12.84 123.41 28.86 -0.34 -0.68 -0.65 0.22
-10.90 124.71 28.42 0.29 -0.56 -0.78 -0.04
-13.04 137.32 27.30 -0.33 0.65 0.69 -0.09
-11.57 132.96 19.07 -0.49 -0.30 -0.82 -0.27
-8.79 127.49 23.42 0.17 -0.01 -0.99 -1.02
-12.63 134.48 32.21 -0.87 0.34 -0.35 0.06
-14.38 124.07 30.69 -0.78 -0.57 0.24 0.07
-12.72 136.72 30.31 -0.97 0.25 0.01 -0.12
-12.13 133.83 19.10 -0.77 -0.50 -0.40 -0.72
-9.79 125.54 26.46 -0.28 -0.96 -0.02 -0.59
-15.14 127.84 32.78 -0.47 -0.47 0.74 -0.59
-10.44 125.68 27.66 0.19 -0.95 -0.25 -0.14
-14.36 135.36 19.97 -0.33 -0.90 -0.29 -0.10
-14.61 125.94 32.49 -0.69 -0.38 0.62 -0.20
-14.06 138.20 26.40 -0.38 0.11 0.92 -0.07
-11.99 131.15 19.15 0.07 0.24 -0.97 -0.50
-11.51 123.18 28.49 -0.07 -0.47 -0.88 0.66
-8.58 124.94 24.17 -0.26 -0.96 -0.13 -0.77
-15.12 132.29 34.08 -0.62 0.44 0.65 -0.87
-8.89 128.56 22.71 0.07 -0.78 -0.62 -0.84
-17.26 138.42 23.52 -0.15 0.49 0.86 0.22
-11.92 129.54 18.84 0.17 -0.11 -0.98 -0.12
-13.45 123.03 29.96 -0.59 -0.79 -0.15 0.16
-18.45 135.34 22.79 -0.12 -0.98 0.13 0.26
-10.49 129.15 19.17 0.30 -0.44 -0.84 -0.26
-17.88 135.63 21.52 -0.24 -0.92 -0.32 0.31
-13.03 134.94 19.45 -0.65 -0.68 -0.34 -0.53
-15.80 138.66 25.22 -0.84 -0.16 0.52 -0.01
-15.59 135.83 19.84 -0.20 -0.87 -0.46 0.52
-15.13 131.22 34.45 -0.79 -0.15 0.60 -0.25
-8.94 128.99 21.26 0.21 -0.93 -0.30 -1.04
-14.78 138.96 26.33 -0.47 -0.20 0.86 -0.11
-19.16 135.98 23.71 -0.22 -0.66 0.72 0.48
-14.13 127.18 32.84 -0.40 -0.38 0.83 -0.09
-14.15 133.10 34.01 -0.73 0.48 0.48 -0.39
-16.98 135.69 20.38 -0.27 -0.82 -0.50 0.38
-13.79 134.54 33.08 -0.90 0.32 -0.29 -0.23
-18.79 137.65 24.09 -0.09 0.24 0.97 0.04
-11.35 137.32 27.93 -0.61 0.79 0.01 -0.06
-12.93 138.25 26.82 -0.11 0.20 0.97 -0.08
-12.56 135.65 31.71 -0.89 -0.16 -0.42 0.03
-11.62 137.83 29.34 -0.74 0.63 -0.22 0.30
-14.54 129.73 34.80 -0.82 -0.21 0.53 -0.10
-10.69 131.24 19.18 0.01 0.06 -1.00 -0.16
-9.49 124.83 28.74 0.43 -0.89 0.10 -0.23
-12.65 137.09 31.21 -0.81 0.36 -0.46 -0.07
-10.21 132.61 19.11 -0.08 -0.36 -0.93 0.32
-16.57 139.31 23.51 -0.79 0.39 0.48 0.25
-10.97 133.80 18.26 -0.15 -0.59 -0.79 -1.04
-7.50 125.05 22.40 -0.45 -0.33 -0.83 -2.10
-8.32 124.83 25.17 -0.28 -0.96 -0.03 -0.53
-13.62 123.24 31.23 -0.78 -0.57 0.25 0.10
-7.54 127.65 23.15 -0.38 -0.22 -0.90 -0.30
-11.07 130.14 19.00 0.13 0.08 -0.99 -0.08
-7.06 126.73 22.56 -0.38 0.17 -0.91 -1.36
-13.47 125.22 32.90 -0.63 -0.14 0.77 -0.85
-10.52 122.33 28.78 0.36 -0.58 -0.73 0.07
-9.79 123.53 29.15 0.76 -0.23 -0.61 0.08
-14.19 128.04 33.90 -0.77 -0.54 0.34 -0.13
-14.57 136.27 18.92 -0.30 -0.68 -0.67 0.12
-13.66 139.34 26.75 -0.22 -0.25 0.94 -0.11
-17.47 139.41 22.63 -0.08 0.83 0.55 0.16
-12.45 122.17 30.43 -0.51 -0.85 -0.12 -0.33
3 196 163 149
3 149 163 126
3 110 145 140
3 140 123 110
3 145 185 140
3 123 140 183
3 162 172 124
3 162 124 117
3 52 94 77
3 124 165 111
3 111 165 149
3 149 165 196
3 111 126 77
3 77 126 64
3 110 123 74
3 89 123 118
3 123 152 118
3 123 180 152
3 118 152 125
3 176 151 139
3 168 164 131
3 96 131 81
3 131 164 122
3 131 122 81
3 130 169 160
3 116 130 90
3 130 117 90
3 81 90 53
3 53 90 52
3 53 52 28
3 39 52 64
3 64 36 39
3 40 48 58
3 40 58 24
3 24 58 45
3 58 48 74
3 58 74 89
3 89 45 58
3 34 56 63
3 56 86 63
3 63 86 99
3 86 125 99
3 158 161 129
3 161 158 190
3 129 161 120
3 83 120 84
3 139 105 133
3 105 96 57
3 71 81 42
3 81 53 42
3 42 53 28
3 14 28 39
3 28 14 7
3 14 2 7
3 1 4 0
3 2 0 5
3 4 6 13
3 13 16 4
3 26 11 19
3 26 19 34
3 6 1 11
3 19 11 24
3 45 19 24
3 45 56 34
3 34 50 26
3 50 47 26
3 27 26 43
3 26 47 54
3 54 65 26
3 43 26 65
3 54 84 79
3 54 79 65
3 65 79 97
3 97 79 141
3 107 84 120
3 107 120 167
3 182 144 177
3 142 121 73
3 144 133 92
3 59 92 57
3 57 35 59
3 72 35 44
3 37 21 57
3 35 57 21
3 35 21 44
3 44 21 31
3 22 21 37
3 22 7 9
3 9 7 2
3 9 2 5
3 31 5 15
3 4 20 18
3 15 18 29
3 18 20 38
3 38 33 18
3 66 38 68
3 49 68 38
3 16 25 49
3 46 49 25
3 25 41 46
3 41 25 17
3 41 43 69
3 41 69 62
3 69 82 102
3 146 102 154
3 109 154 102
3 154 187 146
3 154 109 136
3 136 186 154
3 97 136 109
3 141 136 97
3 142 73 108
3 132 108 95
3 72 44 67
3 67 95 72
3 31 67 44
3 29 32 15
3 61 51 29
3 29 51 32
3 61 66 103
3 100 103 66
3 150 100 134
3 100 68 78
3 143 100 114
3 78 114 100
3 159 188 143
3 159 137 199
3 199 137 153
3 137 78 88
3 62 102 115
3 128 166 155
3 104 67 93
3 93 67 55
3 55 67 31
3 91 51 61
3 91 127 98
3 135 147 195
3 135 195 179
3 106 103 147
3 170 147 103
3 103 150 170
3 150 192 170
3 192 150 134
3 135 166 98
3 153 137 88
3 119 163 145
3 119 145 110
3 185 183 140
3 116 122 184
3 116 184 157
3 116 157 174
3 164 184 122
3 198 157 184
3 94 90 117
3 90 94 52
3 94 117 124
3 94 111 77
3 124 111 94
3 70 36 75
3 36 64 75
3 70 75 126
3 126 75 64
3 126 101 70
3 101 126 119
3 87 119 74
3 87 74 60
3 101 119 87
3 110 74 119
3 119 126 163
3 89 74 123
3 158 125 152
3 190 158 152
3 190 152 180
3 151 197 168
3 176 197 151
3 139 151 96
3 96 151 131
3 131 151 168
3 130 116 174
3 90 81 122
3 90 122 116
3 39 28 52
3 87 60 70
3 87 70 101
3 36 70 60
3 10 14 23
3 36 23 14
3 36 60 23
3 23 60 48
3 24 10 23
3 11 3 10
3 11 10 24
3 24 23 40
3 40 23 48
3 11 1 3
3 83 129 120
3 133 175 139
3 178 175 133
3 92 133 105
3 92 105 57
3 71 57 96
3 71 96 81
3 8 14 10
3 2 14 8
3 2 8 3
3 3 8 10
3 2 3 0
3 0 3 1
3 5 0 4
3 5 4 12
3 17 13 6
3 27 11 26
3 27 17 11
3 6 11 17
3 45 34 19
3 112 141 79
3 112 79 107
3 84 107 79
3 107 156 112
3 156 141 112
3 167 156 107
3 141 156 189
3 177 121 142
3 121 177 144
3 73 121 92
3 73 92 59
3 92 121 144
3 72 73 35
3 35 73 59
3 5 31 21
3 5 21 9
3 9 21 22
3 18 12 4
3 5 12 18
3 5 18 15
3 33 29 18
3 66 61 33
3 66 33 38
3 78 68 49
3 78 49 46
3 17 25 13
3 13 25 16
3 191 136 141
3 191 141 189
3 173 142 108
3 173 108 132
3 177 142 173
3 72 95 108
3 73 72 108
3 103 100 150
3 143 134 100
3 78 46 88
3 88 46 62
3 115 88 62
3 153 88 138
3 138 88 115
3 148 138 115
3 194 138 181
3 181 138 148
3 146 181 148
3 146 148 102
3 102 148 115
3 194 153 138
3 171 173 132
3 155 171 132
3 98 166 128
3 98 93 55
3 98 55 51
3 98 51 91
3 135 98 127
3 147 135 127
3 188 192 134
3 143 188 134
3 135 179 166
3 172 165 124
3 149 126 111
3 183 180 123
3 130 174 169
3 117 160 162
3 130 160 117
3 77 64 52
3 60 74 48
3 86 85 118
3 86 118 125
3 85 86 56
3 85 56 45
3 45 89 85
3 85 89 118
3 125 158 113
3 125 113 99
3 113 158 129
3 161 167 120
3 105 139 96
3 42 28 22
3 42 22 37
3 42 37 71
3 14 39 36
3 4 1 6
3 50 63 76
3 76 63 80
3 76 80 47
3 76 47 50
3 63 50 34
3 63 99 80
3 129 83 113
3 113 80 99
3 113 83 80
3 80 83 47
3 84 54 83
3 83 54 47
3 57 71 37
3 28 7 22
3 20 4 16
3 30 20 16
3 49 30 16
3 49 38 30
3 38 20 30
3 43 82 69
3 43 65 82
3 102 82 109
3 82 65 109
3 97 109 65
3 186 136 191
3 15 32 31
3 29 33 61
3 100 66 68
3 143 114 159
3 159 114 137
3 137 114 78
3 62 46 41
3 41 17 27
3 41 27 43
3 69 102 62
3 128 104 93
3 128 155 104
3 155 132 104
3 95 104 132
3 67 104 95
3 51 55 32
3 55 31 32
3 106 91 61
3 103 106 61
3 127 106 147
3 106 127 91
3 199 188 159
3 193 153 194
3 93 98 128
