ply
format ascii 1.0
comment Generated by MaSIF
element vertex 200
property float x
property float y
property float z
property float nx
property float ny
property float nz
property float pb
element face 0
property list uchar int vertex_indices
end_header
-14.84 128.96 27.21 -0.89 0.46 -0.10 -0.16
-15.13 128.45 26.19 -0.79 0.48 -0.38 -0.79
-15.34 128.80 28.31 -0.87 0.41 -0.27 -0.01
-14.48 130.21 27.81 -0.88 0.18 -0.43 -0.92
-14.64 127.33 25.41 -0.67 -0.03 -0.74 -0.55
-15.28 129.85 28.82 -0.73 0.14 -0.67 0.05
-15.93 127.93 29.11 -0.94 0.09 -0.34 0.27
-15.79 126.99 26.02 -0.69 -0.18 -0.70 -1.63
-14.21 128.14 24.76 -0.78 0.11 -0.61 -0.44
-15.96 129.29 29.56 -0.88 0.01 -0.48 -0.08
-16.23 127.66 27.73 -0.96 0.29 0.01 -1.13
-14.32 131.38 27.22 -0.83 -0.44 -0.34 -0.81
-13.67 129.85 26.02 -0.64 0.59 -0.49 -0.61
-13.63 129.41 24.95 -0.53 0.68 -0.51 -0.47
-14.56 126.21 25.62 -0.72 -0.49 -0.49 -0.39
-13.96 126.96 24.74 -0.78 -0.12 -0.62 -0.59
-13.42 130.82 26.19 -0.67 -0.19 -0.72 -0.93
-15.90 126.43 28.31 -0.96 -0.27 -0.01 -0.67
-14.84 132.13 28.43 -0.99 0.11 -0.03 -0.26
-16.16 126.29 26.90 -0.81 -0.56 -0.18 -1.07
-16.38 127.32 30.31 -0.95 -0.25 -0.18 -0.36
-16.35 130.30 29.62 -0.84 -0.02 -0.55 -0.13
-13.43 128.42 23.87 -0.88 0.35 -0.31 -1.28
-16.04 126.30 29.67 -0.94 -0.34 0.03 -0.12
-14.15 131.84 26.01 -0.61 -0.56 -0.56 -0.31
-15.87 131.64 29.72 -0.78 0.43 -0.46 -0.03
-16.53 129.38 31.03 -1.00 -0.05 -0.08 -0.33
-12.57 129.65 25.02 -0.50 0.56 -0.65 -0.66
-13.45 126.54 24.00 -0.89 -0.15 -0.42 -1.25
-14.38 132.97 29.20 -0.61 0.66 0.44 -0.17
-15.34 132.73 26.59 -0.86 -0.47 -0.20 -0.19
-14.74 125.56 27.92 -0.51 -0.79 -0.34 -0.44
-12.52 131.66 25.56 -0.55 -0.21 -0.81 -0.30
-13.80 125.11 24.91 -0.70 -0.59 -0.40 -0.34
-13.74 125.22 26.64 -0.56 -0.82 -0.11 0.03
-15.56 125.31 29.24 -0.71 -0.68 -0.16 -0.17
-15.28 133.38 27.71 -0.91 0.05 0.40 -0.15
-16.80 127.90 31.55 -0.93 -0.05 0.36 -1.01
-15.08 132.43 30.05 -0.52 0.85 -0.08 -0.02
-13.51 128.67 22.91 -0.84 0.17 0.51 -0.77
-16.78 130.78 31.06 -0.98 0.19 0.10 -0.14
-11.96 130.51 25.16 -0.93 0.21 -0.28 -0.64
-12.57 129.54 23.35 -0.73 0.49 0.48 -0.81
-12.88 125.47 23.72 -0.56 -0.64 -0.53 -0.81
-12.74 132.26 24.90 -0.60 -0.58 -0.54 -0.23
-15.39 126.15 31.61 -0.67 -0.56 0.49 -0.79
-14.63 134.36 28.35 -0.67 0.35 0.65 -0.13
-13.30 126.94 22.81 -0.83 -0.54 0.13 -1.24
-15.03 125.15 30.51 -0.80 -0.56 0.21 -0.00
-13.42 133.76 29.29 -0.49 0.41 0.77 -0.17
-16.13 127.16 32.47 -0.66 -0.46 0.59 -1.59
-12.82 124.56 25.60 -0.18 -0.98 -0.02 -0.36
-14.57 133.39 25.17 -0.58 -0.59 -0.55 -0.15
-14.17 124.67 28.59 -0.54 -0.70 -0.47 -0.07
-15.50 132.46 31.51 -0.67 0.72 -0.16 -0.89
-15.59 129.62 32.85 -0.78 -0.18 0.59 -0.10
-15.74 134.08 26.40 -0.98 -0.20 0.08 -0.13
-13.98 132.59 30.79 -0.27 0.96 -0.08 0.20
-14.26 128.47 22.05 -0.81 -0.01 0.58 -0.59
-12.74 133.21 30.12 -0.68 0.63 0.38 -0.42
-12.58 124.69 27.69 -0.17 -0.85 -0.49 0.31
-12.65 130.36 22.77 -0.69 0.18 0.70 -0.25
-12.00 124.72 24.44 -0.20 -0.95 -0.24 -1.25
-16.12 131.03 32.39 -0.95 0.08 0.29 -0.42
-15.01 135.12 27.15 -0.76 0.26 0.60 -0.09
-11.81 131.02 23.89 -0.97 -0.10 0.22 -0.43
-13.92 133.59 24.37 -0.46 -0.63 -0.63 -0.17
-14.22 124.54 31.47 -0.73 -0.49 0.47 0.00
-12.81 134.88 29.22 -0.74 0.31 0.60 -0.17
-14.21 130.11 21.89 -0.72 0.30 0.62 -1.04
-15.31 128.58 32.95 -0.57 -0.06 0.82 -0.77
-13.17 126.32 21.40 -0.20 -0.98 -0.01 -0.19
-14.36 126.92 21.81 -0.76 -0.51 0.40 0.12
-14.85 133.27 32.14 -0.33 0.91 -0.24 -1.09
-12.94 133.42 23.62 -0.71 -0.33 -0.62 -0.21
-11.25 124.63 23.76 -0.23 -0.92 -0.32 -1.88
-14.68 127.42 33.03 -0.44 -0.48 0.76 -0.59
-11.40 125.69 22.58 -0.16 -0.73 -0.66 -1.65
-14.18 125.52 32.68 -0.65 -0.39 0.65 -0.20
-11.75 126.09 21.77 0.14 -0.94 -0.31 -0.50
-14.05 123.68 30.84 -0.77 -0.57 0.27 0.07
-14.28 123.45 29.42 -0.72 -0.64 -0.27 -0.11
-14.76 129.21 21.22 -0.94 0.01 0.35 -0.90
-13.29 130.95 22.19 -0.69 0.38 0.62 -0.42
-14.35 135.97 27.39 -0.52 0.39 0.76 -0.08
-14.57 134.31 23.93 -0.38 -0.77 -0.50 -0.13
-14.39 129.34 33.72 -0.74 -0.28 0.61 -0.07
-15.60 134.62 24.75 -0.77 -0.61 -0.20 -0.08
-15.85 132.38 33.21 -0.80 0.49 0.35 -1.52
-13.15 135.85 28.27 -0.56 0.49 0.67 -0.11
-10.97 124.72 25.61 0.11 -0.99 0.11 -1.11
-14.86 127.92 20.64 -0.95 -0.19 -0.23 0.31
-13.68 126.75 33.03 -0.36 -0.39 0.85 -0.09
-11.31 124.77 27.26 0.24 -0.96 -0.15 -0.09
-15.55 131.12 33.79 -0.80 -0.04 0.60 -0.96
-12.91 133.07 31.72 -0.40 0.86 -0.31 -0.08
-15.88 135.90 26.24 -0.85 0.07 0.52 -0.07
-12.79 131.72 22.75 -0.85 0.10 0.52 -0.29
-12.13 134.71 30.19 -0.96 0.06 0.26 -0.51
-12.61 123.04 28.92 -0.38 -0.67 -0.64 0.22
-10.73 126.54 22.10 0.60 -0.36 -0.72 -1.14
-14.40 126.72 20.40 -0.60 -0.73 -0.32 0.19
-9.99 124.57 23.50 0.05 -0.87 -0.50 -2.06
-10.69 124.34 28.40 0.25 -0.55 -0.80 -0.04
-13.34 134.57 23.39 -0.13 -0.79 -0.59 -0.16
-14.57 130.77 34.75 -0.76 -0.16 0.64 -0.25
-13.32 126.78 19.90 -0.21 -0.61 -0.76 -0.18
-11.81 126.59 20.52 0.37 -0.75 -0.55 0.10
-12.62 132.78 22.71 -0.94 0.35 -0.05 -0.24
-9.98 125.68 22.57 0.22 -0.33 -0.92 -1.79
-10.93 127.02 21.22 0.74 -0.57 -0.36 -0.17
-14.98 130.54 20.39 -0.92 0.38 0.04 -1.48
-13.99 133.39 33.41 -0.47 0.82 0.33 -0.46
-14.83 129.30 19.84 -0.83 -0.11 -0.55 -1.33
-14.53 134.86 23.00 -0.26 -0.93 -0.26 -0.08
-13.26 122.84 31.32 -0.77 -0.57 0.28 0.10
-12.10 136.48 28.96 -0.71 0.68 0.17 -0.10
-13.02 124.79 33.02 -0.59 -0.15 0.80 -0.85
-13.64 131.62 20.90 -0.71 0.69 0.13 -1.04
-13.68 127.59 34.10 -0.75 -0.54 0.38 -0.13
-11.66 133.91 22.72 -0.91 -0.13 -0.39 -0.86
-13.17 122.65 30.05 -0.60 -0.79 -0.13 0.16
-13.97 129.28 35.05 -0.79 -0.21 0.57 -0.10
-11.31 122.82 28.48 -0.12 -0.46 -0.88 0.66
-12.84 136.98 27.60 -0.29 0.64 0.71 -0.09
-10.27 125.33 27.63 0.18 -0.94 -0.28 -0.14
-14.58 131.85 34.40 -0.58 0.43 0.69 -0.87
-16.57 135.54 24.44 -0.63 -0.66 0.41 0.08
-12.18 134.06 32.43 -0.89 0.35 -0.30 0.06
-12.84 132.48 21.74 -0.87 0.47 0.13 -0.19
-13.92 128.52 19.49 -0.46 -0.34 -0.82 -0.69
-12.36 136.33 30.58 -0.97 0.25 0.07 -0.12
-12.75 135.25 22.92 -0.33 -0.77 -0.54 -0.13
-15.58 135.28 23.01 -0.21 -0.97 -0.07 0.28
-15.95 136.96 25.16 -0.80 0.11 0.59 0.11
-9.69 125.21 26.40 -0.29 -0.96 -0.02 -0.59
-12.44 126.98 34.04 -0.14 -0.89 0.43 -0.14
-11.82 126.38 33.01 0.30 -0.25 0.92 -0.25
-10.50 127.75 21.81 0.72 -0.60 -0.34 -1.06
-13.90 137.88 26.77 -0.33 0.10 0.94 -0.07
-11.87 133.27 22.10 -0.81 0.55 0.20 0.06
-9.98 127.50 22.76 0.58 -0.36 -0.74 -2.17
-13.60 132.65 34.29 -0.70 0.48 0.53 -0.39
-11.91 124.79 33.55 0.08 0.26 0.96 -1.30
-13.29 134.10 33.37 -0.92 0.33 -0.23 -0.23
-15.13 137.76 26.28 -0.64 0.10 0.76 -0.05
-12.86 122.77 32.44 -0.66 -0.62 0.42 -0.94
-13.56 130.84 35.80 -0.50 0.09 0.86 -0.13
-9.27 124.45 28.64 0.44 -0.90 0.07 -0.23
-12.52 127.89 19.29 0.07 -0.40 -0.91 -0.58
-13.45 127.59 35.23 -0.57 -0.66 0.49 -0.16
-8.60 124.64 24.04 -0.27 -0.95 -0.13 -0.77
-13.96 130.85 19.25 -0.46 0.46 -0.76 -1.45
-10.50 128.04 20.46 0.62 -0.65 -0.44 -0.29
-11.12 136.97 28.14 -0.60 0.80 0.05 -0.06
-11.68 134.17 21.74 -0.84 -0.26 0.47 -0.12
-14.85 135.10 21.67 -0.23 -0.97 -0.09 0.10
-12.78 131.93 19.68 -0.50 0.42 -0.76 -0.39
-12.13 135.24 31.95 -0.91 -0.15 -0.38 0.03
-12.75 137.91 27.14 -0.05 0.19 0.98 -0.08
-11.30 137.45 29.58 -0.75 0.64 -0.17 0.30
-8.58 125.67 23.00 -0.20 -0.24 -0.95 -1.18
-12.15 121.78 30.44 -0.52 -0.85 -0.11 -0.33
-16.85 136.80 24.46 -0.20 0.12 0.97 0.39
-13.40 129.58 18.88 -0.21 -0.06 -0.98 -0.91
-17.04 135.34 23.43 -0.04 -0.98 0.21 0.68
-10.30 121.96 28.70 0.31 -0.57 -0.76 0.07
-9.55 123.15 29.04 0.72 -0.23 -0.65 0.08
-12.24 136.68 31.49 -0.83 0.37 -0.41 -0.07
-12.23 123.45 33.66 -0.31 -0.35 0.88 -1.28
-11.44 128.21 19.58 0.35 -0.51 -0.79 -0.25
-16.09 135.11 22.08 -0.06 -1.00 -0.05 0.38
-11.03 121.48 29.52 -0.18 -0.88 -0.43 0.06
-8.84 127.20 23.34 0.12 0.00 -0.99 -1.02
-12.51 132.87 20.21 -0.95 0.15 -0.29 -0.23
-12.67 130.16 36.05 -0.35 0.03 0.94 -0.01
-17.98 136.15 24.53 -0.00 -0.49 0.87 0.78
-14.62 138.65 26.75 -0.42 -0.21 0.88 -0.11
-12.59 128.60 36.20 -0.34 -0.22 0.91 -0.10
-12.46 133.83 21.14 -0.93 -0.10 0.35 -0.22
-15.70 138.37 25.69 -0.81 -0.16 0.56 -0.01
-12.07 127.38 35.42 0.07 -0.85 0.53 -0.16
-12.56 131.33 35.89 -0.27 0.12 0.95 -0.33
-13.17 134.65 21.10 -0.35 -0.93 0.09 -0.21
-9.76 125.16 29.40 0.93 -0.28 0.23 -0.16
-13.47 139.01 27.12 -0.17 -0.26 0.95 -0.11
-8.29 124.51 25.02 -0.28 -0.96 -0.03 -0.53
-10.99 137.46 27.01 -0.32 0.52 0.79 0.07
-12.89 135.09 32.97 -0.90 -0.07 -0.43 -0.13
-11.58 122.24 32.38 -0.16 -0.80 0.57 -0.83
-12.92 132.38 35.59 -0.46 0.29 0.84 -1.16
-8.97 128.28 22.65 0.04 -0.77 -0.64 -0.84
-11.16 137.72 31.42 -0.72 0.66 -0.22 -0.28
-10.68 138.02 29.16 -0.92 0.37 -0.15 0.35
-10.61 124.99 32.63 0.74 0.20 0.64 -0.99
-12.24 130.94 19.31 0.02 0.25 -0.97 -0.50
-13.26 134.91 34.50 -0.94 -0.28 -0.20 -0.20
-12.20 129.34 18.97 0.11 -0.09 -0.99 -0.12
-10.45 127.73 33.95 0.57 -0.74 0.36 -0.42
-7.96 124.39 26.03 -0.34 -0.93 -0.14 -0.38
