ply
format ascii 1.0
comment Generated by MaSIF
element vertex 200
property float x
property float y
property float z
property float nx
property float ny
property float nz
property float pb
element face 3
property list uchar int vertex_indices
end_header
-13.57 129.15 25.65 -0.69 0.54 -0.49 -0.88
-14.33 128.22 25.40 -0.73 0.31 -0.61 -1.48
-12.79 129.37 24.71 -0.91 0.41 -0.09 -0.11
-12.47 130.05 25.31 -0.94 0.26 -0.23 -0.08
-13.59 130.25 26.70 -0.77 0.14 -0.63 -0.17
-14.24 129.53 27.27 -0.76 0.38 -0.53 0.01
-13.70 127.39 24.67 -0.81 0.10 -0.58 -0.59
-15.05 128.03 26.68 -0.89 0.31 -0.34 -0.56
-15.20 128.35 27.57 -0.82 0.11 -0.57 -0.64
-14.77 126.80 26.07 -0.94 -0.21 -0.28 -0.94
-12.54 130.96 24.82 -1.00 -0.02 0.07 0.02
-12.76 130.37 23.80 -0.98 0.13 0.14 -0.26
-13.21 128.74 23.38 -1.00 0.07 0.07 -0.19
-14.65 130.07 28.02 -0.61 0.23 -0.76 -1.08
-12.61 131.56 25.59 -0.91 -0.10 -0.40 -0.24
-13.41 125.74 24.62 -0.46 -0.57 -0.68 0.01
-14.67 131.53 27.71 -0.73 -0.21 -0.65 -1.89
-12.45 126.53 23.35 -0.09 -0.88 -0.47 0.20
-13.67 132.38 26.63 -0.64 -0.23 -0.74 -1.74
-14.51 126.14 27.18 -0.89 -0.44 0.12 -0.30
-14.22 125.55 25.62 -0.79 -0.44 -0.43 -0.15
-16.10 129.39 28.12 -0.56 0.23 -0.80 -1.70
-14.75 126.77 28.12 -0.78 -0.61 -0.15 -0.98
-15.78 130.48 28.96 -0.85 0.38 -0.37 -1.44
-12.78 131.23 22.29 -0.96 0.28 0.04 -0.44
-16.38 127.60 28.94 -0.73 -0.49 -0.47 -1.34
-12.58 132.63 24.32 -0.92 -0.38 -0.10 0.05
-13.08 124.86 25.58 -0.12 -0.89 -0.44 0.04
-13.22 129.89 21.93 -0.97 0.23 0.06 -0.46
-12.98 132.97 25.64 -0.80 -0.45 -0.41 -0.60
-12.98 127.04 22.08 -0.73 -0.69 -0.01 0.73
-13.44 128.58 21.35 -0.99 -0.12 -0.03 -0.42
-11.28 127.17 23.43 0.41 -0.90 0.16 0.26
-15.28 132.59 27.36 -0.64 -0.42 -0.64 -2.01
-11.78 125.31 25.14 0.24 -0.66 -0.71 0.15
-15.42 131.99 28.94 -0.95 -0.28 -0.16 -1.54
-13.68 125.35 27.85 -0.63 -0.74 0.26 0.23
-14.00 124.76 26.68 -0.56 -0.82 0.07 0.07
-14.12 133.56 26.51 -0.59 -0.46 -0.67 -1.09
-12.55 132.69 23.10 -0.99 -0.11 -0.08 0.22
-17.03 129.04 29.01 -0.95 0.21 -0.24 -1.88
-15.27 126.63 29.16 -0.49 -0.80 -0.35 -1.07
-12.37 132.11 22.13 -1.00 0.08 -0.02 -0.02
-12.96 130.81 21.31 -0.96 0.28 0.00 -0.43
-11.01 126.82 22.16 -0.02 -0.97 0.24 0.51
-10.92 126.36 24.99 0.44 -0.60 -0.67 0.10
-10.43 127.52 23.99 0.26 -0.90 -0.35 -0.08
-16.80 128.31 30.43 -0.99 -0.12 0.09 -1.82
-12.56 132.09 21.07 -0.99 0.08 0.14 -0.11
-13.18 128.17 20.22 -0.90 -0.43 -0.07 -0.01
-12.98 133.56 23.17 -0.66 -0.75 -0.07 -0.14
-12.30 126.62 21.00 -0.43 -0.89 -0.15 1.33
-12.33 124.69 26.98 -0.13 -0.99 -0.03 0.14
-16.17 130.01 30.80 -0.93 0.37 0.03 -1.13
-14.54 134.36 26.20 -0.56 -0.66 -0.50 -0.59
-15.40 132.29 30.06 -0.97 -0.17 -0.16 -0.42
-15.47 133.81 27.07 -0.45 -0.53 -0.72 0.25
-15.80 133.01 29.38 -0.77 -0.64 -0.05 -0.35
-16.11 133.29 28.23 -0.70 -0.65 -0.28 -0.45
-15.98 126.43 30.39 -0.69 -0.68 -0.25 -0.28
-12.77 124.75 28.48 -0.63 -0.74 -0.25 0.50
-10.51 125.00 25.85 0.25 -0.80 -0.54 0.16
-13.29 125.43 29.36 -0.71 -0.67 -0.22 0.81
-13.03 130.44 20.16 -0.97 0.26 0.03 -0.39
-9.94 127.49 22.96 -0.15 -0.92 0.36 0.33
-14.03 134.20 25.01 -0.69 -0.72 -0.10 -0.67
-12.62 133.01 21.84 -0.89 -0.45 0.09 0.31
-15.82 130.87 31.31 -0.95 0.15 -0.26 -0.02
-10.82 126.65 21.05 -0.19 -0.98 -0.09 0.48
-14.41 125.80 30.18 -0.52 -0.76 -0.38 0.17
-12.73 131.48 20.09 -0.99 0.10 0.13 -0.22
-9.88 126.39 25.39 0.29 -0.66 -0.69 -0.12
-14.21 134.16 23.10 -0.60 -0.80 -0.05 -0.45
-11.58 124.63 27.58 -0.26 -0.89 -0.37 0.04
-12.29 127.09 19.92 -0.50 -0.85 -0.14 0.39
-12.83 133.03 20.60 -0.76 -0.57 0.30 0.29
-16.48 134.18 27.21 -0.55 -0.59 -0.59 0.18
-13.14 127.95 18.97 -0.87 -0.45 -0.18 0.28
-9.65 126.32 21.96 -0.62 -0.58 0.53 1.29
-9.17 127.27 24.33 -0.27 -0.91 -0.30 0.13
-9.98 126.31 20.87 -0.57 -0.82 -0.05 1.02
-16.12 132.83 30.92 -0.77 -0.52 -0.38 0.65
-13.43 133.70 21.90 -0.58 -0.80 0.13 0.12
-15.62 135.21 25.91 -0.63 -0.55 -0.55 -0.13
-13.37 129.67 18.71 -0.97 0.02 -0.24 -0.10
-15.98 126.31 31.90 -0.76 -0.56 0.33 0.01
-12.23 123.71 28.95 -0.46 -0.54 -0.70 0.41
-16.13 130.85 32.38 -0.98 -0.12 -0.18 0.20
-15.23 125.50 31.51 -0.48 -0.86 0.18 0.18
-17.29 134.32 28.32 -0.75 -0.56 -0.36 -0.35
-16.94 133.60 30.31 -0.68 -0.72 -0.15 0.09
-16.48 127.66 32.34 -0.85 -0.20 0.49 -0.15
-10.95 127.14 19.60 -0.18 -0.93 -0.31 0.38
-8.80 126.75 22.79 -0.61 -0.51 0.61 0.83
-13.29 124.11 30.15 -0.86 -0.37 -0.35 0.54
-13.09 130.73 18.62 -0.99 -0.10 0.03 -0.18
-9.04 126.70 25.21 -0.19 -0.84 -0.52 -0.00
-9.87 124.34 27.30 0.21 -0.81 -0.55 -0.64
-16.09 129.16 32.80 -0.98 -0.07 0.20 -0.24
-14.30 134.16 21.56 -0.61 -0.78 0.11 -0.11
-12.29 127.16 18.49 -0.30 -0.87 -0.40 0.45
-15.14 134.98 23.37 -0.68 -0.73 0.06 -0.68
-13.01 131.95 18.84 -0.80 -0.36 0.48 0.08
-13.94 125.06 31.68 -0.75 -0.64 0.16 1.58
-8.46 126.14 25.88 -0.18 -0.86 -0.47 0.06
-12.61 128.54 17.66 -0.56 -0.50 -0.66 0.32
-8.19 126.68 23.63 -0.71 -0.65 0.29 0.44
-16.11 136.51 26.45 -0.88 0.40 -0.25 0.26
-16.98 133.05 31.89 -0.87 -0.46 -0.15 0.43
-15.78 135.72 24.68 -0.88 -0.48 0.04 -0.49
-17.10 135.75 26.92 -0.77 0.06 -0.63 0.58
-9.45 126.23 19.51 -0.59 -0.68 -0.44 1.00
-9.19 125.36 26.86 0.21 -0.76 -0.62 -0.12
-9.11 124.89 22.15 -0.85 -0.32 0.42 0.79
-10.83 123.56 28.78 -0.06 -0.76 -0.64 0.40
-17.56 134.29 30.98 -0.74 -0.67 -0.07 0.45
-9.19 125.14 20.63 -0.88 -0.42 -0.23 0.86
-15.59 127.43 33.12 -0.58 -0.44 0.69 -0.09
-16.25 131.11 33.86 -0.95 -0.08 0.31 -0.04
-12.93 122.77 29.90 -0.74 -0.44 -0.50 0.27
-15.55 135.29 22.07 -0.67 -0.74 0.02 -0.48
-16.86 131.94 32.94 -0.94 -0.31 0.17 0.08
-14.78 126.49 32.98 -0.40 -0.61 0.68 0.21
-11.16 122.57 29.37 -0.04 -0.67 -0.74 0.38
-18.15 134.98 29.31 -0.82 -0.54 -0.19 -0.27
-17.81 135.77 28.11 -0.71 -0.02 -0.70 0.42
-13.37 123.86 31.42 -0.96 -0.27 0.02 0.71
-14.24 133.49 19.41 -0.29 -0.68 0.67 0.37
-8.25 125.20 22.92 -0.63 -0.33 0.70 0.53
-9.06 123.80 28.19 0.43 -0.81 -0.39 -1.11
-10.67 127.56 18.16 -0.08 -0.84 -0.54 0.47
-7.53 126.05 24.63 -0.64 -0.77 0.04 0.00
-15.12 135.02 21.16 -0.62 -0.75 0.22 -0.46
-16.03 135.90 23.18 -0.78 -0.61 0.15 -0.64
-13.82 125.90 32.79 -0.44 -0.55 0.71 0.80
-14.79 134.39 20.31 -0.49 -0.73 0.48 -0.28
-17.06 132.99 33.01 -0.93 -0.17 0.32 0.27
-13.94 131.52 17.65 -0.69 -0.65 0.32 0.29
-9.50 127.09 18.59 -0.37 -0.71 -0.60 1.47
-14.12 132.30 18.45 -0.29 -0.82 0.49 0.72
-17.88 134.52 32.00 -0.90 -0.40 0.16 0.38
-15.04 127.93 33.82 -0.59 -0.53 0.62 -0.68
-8.06 125.00 27.94 0.88 -0.45 -0.17 -0.49
-15.97 136.87 25.41 -0.95 0.22 0.22 -0.02
-11.97 129.14 16.76 -0.79 -0.40 -0.47 0.62
-15.69 128.87 34.68 -0.73 -0.49 0.48 -1.38
-12.78 130.78 16.56 -0.63 -0.72 -0.28 0.33
-15.38 137.85 26.93 -0.69 0.68 0.25 0.23
-7.34 125.45 27.10 0.49 -0.73 0.48 -0.07
-12.73 122.02 30.70 -0.76 -0.43 -0.48 0.67
-13.05 124.73 33.21 -0.78 0.03 0.62 0.49
-13.32 123.49 32.50 -1.00 -0.02 0.09 0.65
-8.60 123.87 20.12 -0.70 -0.60 -0.38 0.06
-8.60 123.45 21.92 -0.71 -0.56 0.42 0.91
-15.77 130.05 34.97 -0.72 -0.03 0.69 -1.06
-9.32 123.29 29.57 0.76 -0.61 -0.21 0.07
-11.49 121.84 30.33 -0.07 -0.58 -0.81 1.04
-13.53 126.61 33.62 -0.09 -0.56 0.83 0.38
-17.13 134.30 33.40 -0.83 -0.03 0.55 0.80
-16.21 135.83 21.08 -0.56 -0.75 0.35 -0.89
-16.39 137.15 28.13 -0.08 0.91 -0.41 0.32
-15.25 137.12 28.28 -0.21 0.89 0.40 0.10
-8.32 124.60 29.13 0.92 -0.33 0.21 -1.83
-8.02 125.98 18.36 -0.53 -0.41 -0.74 0.95
-10.66 128.18 17.20 -0.29 -0.91 -0.31 0.45
-16.39 137.69 24.73 -0.88 0.22 0.42 0.54
-17.62 137.37 28.31 -0.29 0.60 -0.75 0.78
-18.70 136.89 28.82 -0.89 0.25 -0.39 0.39
-18.72 136.30 30.26 -0.95 0.20 0.22 0.38
-15.95 135.04 20.44 -0.33 -0.62 0.71 -1.88
-15.14 132.27 34.79 -0.58 0.08 0.81 0.15
-9.76 122.09 30.42 0.64 -0.51 -0.57 0.44
-15.60 134.09 19.81 0.03 -0.53 0.85 -0.25
-6.54 125.17 26.80 -0.28 -0.76 0.58 -0.74
-15.07 132.10 18.66 0.08 -0.83 0.55 0.60
-7.06 124.06 23.03 -0.27 -0.48 0.83 0.45
-6.80 124.77 23.58 -0.47 -0.73 0.49 0.29
-14.60 131.87 16.52 -0.40 -0.91 -0.09 0.38
-9.27 127.94 17.54 -0.18 -0.90 -0.40 0.84
-16.24 133.60 34.10 -0.64 -0.05 0.76 0.51
-16.72 137.61 23.49 -0.80 0.28 0.53 0.49
-13.79 127.50 34.40 0.11 -0.59 0.80 -0.07
-12.29 125.72 33.35 -0.06 0.01 1.00 0.52
-14.40 138.31 26.45 -0.19 0.93 0.31 0.19
-6.25 124.75 24.62 -0.57 -0.79 0.22 -0.22
-12.28 131.20 15.48 -0.63 -0.73 -0.27 0.41
-7.82 124.62 18.56 -0.58 -0.40 -0.71 0.05
-6.87 126.75 26.98 0.28 -0.10 0.95 -0.41
-11.91 124.67 33.89 -0.16 0.52 0.84 0.50
-13.29 122.43 32.09 -0.99 -0.07 -0.11 1.03
-15.22 138.42 24.97 -0.33 0.92 0.21 0.28
-14.19 128.69 35.38 -0.14 -0.40 0.91 -0.81
-17.56 136.41 32.12 -0.63 0.56 0.53 0.63
-17.28 136.87 21.86 -0.49 -0.76 0.42 -0.16
-11.46 129.75 15.47 -0.89 -0.38 -0.24 0.37
-17.00 135.89 20.52 -0.28 -0.65 0.71 -0.46
-7.37 123.13 22.45 -0.07 -0.74 0.67 0.67
-14.20 137.02 28.32 -0.23 0.86 0.46 0.09
-8.74 124.86 30.11 0.93 -0.12 0.35 -0.44
-7.84 127.06 17.62 -0.23 -0.64 -0.74 1.14
3 81 77 166
3 75 179 96
3 139 115 118
