ply
format ascii 1.0
comment Generated by MaSIF
element vertex 200
property float x
property float y
property float z
property float nx
property float ny
property float nz
property float charge
element face 341
property list uchar int vertex_indices
end_header
-15.16 131.65 27.42 -0.60 -0.35 -0.72 -2.01
-15.55 132.85 27.45 -0.40 -0.40 -0.82 0.25
-14.38 130.64 27.48 -0.72 -0.16 -0.67 -1.89
-16.04 131.96 28.44 -0.61 -0.67 -0.42 -0.45
-15.13 130.66 28.80 -0.90 -0.38 -0.21 -1.54
-14.21 132.96 26.82 -0.55 -0.37 -0.75 -1.09
-13.58 131.88 26.64 -0.63 -0.14 -0.76 -1.74
-16.59 133.01 27.69 -0.48 -0.51 -0.71 0.18
-15.64 131.47 29.48 -0.66 -0.72 -0.20 -0.35
-14.76 133.74 26.73 -0.48 -0.59 -0.65 -0.59
-15.09 130.67 29.95 -0.94 -0.28 -0.19 -0.42
-17.36 132.74 28.81 -0.67 -0.57 -0.48 -0.35
-14.12 129.17 27.42 -0.67 0.31 -0.67 -1.08
-15.97 134.45 26.68 -0.57 -0.49 -0.66 -0.13
-13.03 132.80 25.82 -0.74 -0.46 -0.50 -0.60
-15.25 129.16 28.45 -0.91 0.32 -0.25 -1.44
-13.17 129.84 26.17 -0.81 0.16 -0.56 -0.17
-14.29 133.96 25.53 -0.57 -0.77 -0.27 -0.67
-12.46 131.53 25.42 -0.91 -0.14 -0.40 -0.24
-16.80 131.62 30.54 -0.57 -0.76 -0.32 0.09
-17.46 134.48 27.80 -0.80 0.09 -0.59 0.58
-13.67 128.90 26.55 -0.83 0.38 -0.41 0.01
-15.85 130.86 30.93 -0.70 -0.52 -0.49 0.65
-18.26 132.99 29.93 -0.74 -0.60 -0.31 -0.27
-18.10 134.10 28.97 -0.73 0.04 -0.68 0.42
-16.62 135.49 27.53 -0.94 0.30 -0.14 0.26
-15.44 128.26 27.36 -0.63 0.33 -0.71 -1.70
-16.27 135.21 25.61 -0.79 -0.61 -0.08 -0.49
-12.34 131.15 24.52 -0.98 -0.20 0.07 0.02
-17.48 132.01 31.37 -0.63 -0.74 -0.22 0.45
-12.66 132.86 24.45 -0.85 -0.49 -0.18 0.05
-15.23 128.94 30.81 -0.98 0.06 -0.20 -0.02
-14.42 127.55 26.55 -0.85 0.11 -0.51 -0.64
-13.03 129.06 24.88 -0.79 0.52 -0.33 -0.88
-15.47 128.19 30.10 -0.97 0.20 0.13 -1.13
-16.26 127.57 28.15 -0.98 0.10 -0.17 -1.88
-12.10 130.17 24.76 -0.98 0.16 -0.14 -0.08
-16.68 130.70 31.93 -0.80 -0.54 -0.25 0.43
-14.56 134.36 23.68 -0.47 -0.85 -0.24 -0.45
-17.78 131.93 32.42 -0.82 -0.57 0.06 0.38
-16.60 136.11 26.62 -0.96 0.00 0.27 -0.02
-16.91 135.63 29.31 -0.24 0.96 -0.17 0.32
-15.59 134.93 24.16 -0.56 -0.82 -0.12 -0.68
-18.15 135.61 29.57 -0.42 0.71 -0.57 0.78
-14.27 127.49 25.61 -0.94 0.23 -0.24 -0.56
-19.12 134.84 29.95 -0.93 0.19 -0.31 0.39
-18.97 133.92 31.19 -0.96 -0.02 0.28 0.38
-15.48 128.61 31.84 -0.95 -0.22 -0.20 0.20
-16.08 136.76 28.32 -0.77 0.48 0.42 0.23
-12.52 130.81 23.39 -0.98 -0.06 0.18 -0.26
-12.70 133.23 23.29 -0.97 -0.24 -0.09 0.22
-13.65 128.10 24.41 -0.80 0.33 -0.50 -1.48
-16.62 135.72 24.21 -0.67 -0.74 0.01 -0.64
-12.34 129.62 24.02 -0.96 0.26 0.03 -0.11
-15.78 135.76 29.44 -0.33 0.72 0.61 0.10
-16.69 130.35 33.00 -0.88 -0.39 0.28 0.27
-13.71 125.98 26.68 -0.69 -0.67 -0.29 -0.98
-16.34 129.40 32.67 -0.87 -0.49 0.10 0.08
-13.25 133.97 23.58 -0.54 -0.80 -0.25 -0.14
-15.41 126.31 27.71 -0.67 -0.47 -0.57 -1.34
-17.17 136.99 26.16 -0.88 -0.03 0.47 0.54
-15.85 126.55 29.33 -0.95 -0.29 0.07 -1.82
-18.11 135.80 30.77 -0.44 0.88 0.17 0.29
-12.94 127.59 23.49 -0.84 0.10 -0.53 -0.59
-15.21 137.48 27.96 -0.31 0.78 0.54 0.19
-13.84 126.51 24.71 -0.91 -0.28 -0.31 -0.94
-17.55 137.17 24.95 -0.81 0.01 0.59 0.49
-14.73 134.73 22.18 -0.48 -0.87 -0.08 -0.11
-16.93 131.50 33.72 -0.79 -0.30 0.54 0.80
-16.11 135.48 22.98 -0.55 -0.82 -0.16 -0.48
-12.48 132.94 22.21 -1.00 -0.08 0.02 -0.02
-16.12 137.82 26.56 -0.46 0.78 0.44 0.28
-18.21 135.13 31.93 -0.42 0.66 0.63 0.78
-15.56 128.47 33.35 -0.91 -0.30 0.29 -0.04
-15.16 126.90 31.83 -0.94 -0.27 0.19 -0.24
-17.75 133.76 33.01 -0.68 0.30 0.66 0.63
-14.72 135.82 29.44 -0.33 0.67 0.66 0.09
-12.88 133.83 22.14 -0.80 -0.60 -0.02 0.31
-16.71 135.67 31.31 0.16 0.93 0.34 -0.31
-13.43 125.65 25.62 -0.81 -0.59 0.02 -0.30
-14.15 125.50 27.66 -0.38 -0.75 -0.54 -1.07
-12.75 131.99 22.14 -0.99 0.11 0.12 -0.44
-12.73 129.28 22.58 -0.99 -0.11 0.09 -0.19
-15.92 130.80 34.20 -0.59 -0.34 0.73 0.51
-13.79 134.34 22.39 -0.44 -0.89 -0.07 0.12
-15.17 135.13 31.01 0.04 0.92 0.39 0.21
-12.45 124.86 26.06 -0.49 -0.87 0.07 0.23
-15.69 135.52 22.02 -0.48 -0.87 0.03 -0.46
-14.75 124.90 28.81 -0.59 -0.70 -0.41 -0.28
-14.08 137.63 28.33 -0.61 0.62 0.49 -0.15
-14.23 138.03 27.37 -0.54 0.77 0.32 -0.18
-12.72 133.15 21.17 -0.98 -0.12 0.16 -0.11
-15.03 137.93 26.53 -0.46 0.84 0.28 -0.32
-13.13 125.52 23.95 -0.74 -0.44 -0.51 -0.15
-18.07 136.77 23.19 -0.35 -0.91 0.22 -0.16
-12.41 126.08 23.02 -0.41 -0.45 -0.79 0.01
-16.89 136.14 22.16 -0.42 -0.90 0.16 -0.89
-15.32 135.18 21.04 -0.35 -0.89 0.29 -0.28
-13.84 136.66 29.66 -0.66 0.55 0.51 0.03
-15.34 125.51 31.01 -0.78 -0.45 0.43 -0.15
-14.19 135.65 30.57 -0.60 0.62 0.51 0.07
-11.99 124.63 27.54 -0.61 -0.70 -0.37 0.81
-13.15 134.12 20.96 -0.65 -0.74 0.16 0.29
-12.91 131.80 21.08 -0.99 0.12 0.09 -0.43
-14.59 129.53 34.52 -0.55 -0.21 0.81 0.15
-11.64 127.30 21.98 0.02 -0.74 -0.67 0.20
-18.87 137.32 24.18 -0.03 -0.51 0.86 -0.19
-16.42 134.45 33.47 -0.31 0.79 0.54 0.27
-14.87 127.26 34.15 -0.67 -0.31 0.67 -1.06
-16.12 133.12 34.41 -0.39 0.24 0.89 0.83
-16.15 138.70 25.01 -0.32 0.71 0.62 -0.08
-13.88 125.64 32.50 -0.47 -0.75 0.47 -0.68
-12.74 124.54 24.78 -0.43 -0.89 -0.13 0.07
-12.99 130.73 21.46 -0.99 0.04 0.12 -0.46
-18.19 138.72 23.78 -0.10 0.32 0.94 -0.21
-14.62 126.23 33.57 -0.62 -0.70 0.35 -1.38
-15.86 134.73 32.30 0.09 0.90 0.43 0.48
-13.11 124.60 28.43 -0.42 -0.72 -0.55 0.17
-14.66 124.41 30.24 -0.65 -0.74 0.19 0.01
-17.35 139.27 23.92 -0.28 0.41 0.86 -0.77
-14.42 130.76 35.07 -0.11 -0.13 0.99 0.13
-13.97 138.79 26.79 -0.87 0.41 0.28 -0.04
-14.53 138.62 25.30 -0.22 0.89 0.40 -0.65
-15.05 132.07 35.22 -0.22 0.20 0.96 0.19
-16.55 135.58 21.34 -0.19 -0.82 0.54 -1.88
-11.43 124.28 26.50 -0.52 -0.74 -0.42 0.50
-14.68 134.62 19.94 -0.15 -0.86 0.48 0.37
-12.84 132.78 20.07 -0.98 -0.10 0.16 -0.22
-11.89 125.05 23.73 -0.01 -0.76 -0.64 0.04
-17.71 136.20 21.65 -0.14 -0.84 0.52 -0.46
-13.67 138.94 27.83 -0.89 0.27 0.37 0.06
-13.96 134.61 31.88 -0.04 0.77 0.63 0.20
-13.19 138.11 29.17 -0.81 0.36 0.47 -0.00
-12.31 128.01 20.89 -0.61 -0.77 -0.18 0.73
-13.04 129.58 20.57 -0.96 -0.26 -0.05 -0.42
-16.09 134.89 20.49 0.16 -0.71 0.69 -0.25
-11.06 124.66 25.03 0.02 -0.96 -0.28 0.14
-13.82 123.85 29.66 -0.33 -0.94 -0.04 0.18
-14.38 125.25 31.70 -0.47 -0.68 0.56 -0.09
-19.10 136.42 22.49 0.17 -0.95 0.28 -0.10
-12.98 131.72 19.88 -0.99 0.08 0.11 -0.39
-19.63 138.31 24.21 0.21 0.17 0.96 -0.75
-15.29 134.14 34.04 0.18 0.77 0.61 0.40
-10.59 128.07 22.21 0.55 -0.83 -0.08 0.26
-10.71 125.79 23.40 0.31 -0.42 -0.85 0.15
-12.91 137.80 30.17 -0.77 0.59 0.22 -0.03
-14.03 139.10 25.71 -0.86 0.51 -0.03 -0.07
-13.69 127.99 34.75 -0.11 -0.23 0.97 -0.61
-12.55 125.28 32.94 0.24 -0.74 0.62 -0.07
-11.76 123.17 27.97 -0.81 -0.41 -0.42 0.54
-12.94 129.50 35.21 0.02 -0.08 1.00 0.00
-19.86 136.24 23.53 0.38 -0.80 0.46 -1.24
-15.93 139.70 23.97 0.05 0.62 0.78 -0.92
-14.48 134.09 33.09 0.28 0.87 0.41 0.93
-13.49 137.16 31.42 -0.83 0.42 0.38 0.31
-14.28 133.32 34.18 0.21 0.68 0.70 0.76
-12.93 135.10 32.00 -0.62 0.19 0.76 -0.23
-13.08 126.12 34.19 -0.03 -0.62 0.78 -0.81
-18.50 140.25 23.43 -0.24 0.62 0.75 -0.17
-13.28 139.83 28.25 -0.89 0.14 0.43 0.09
-18.77 136.17 21.39 -0.05 -0.81 0.58 0.14
-13.45 124.51 31.32 -0.26 -0.82 0.51 0.21
-10.28 124.58 25.59 -0.14 -0.80 -0.58 0.04
-13.72 132.59 34.85 0.21 0.44 0.87 0.17
-10.33 128.09 20.89 0.14 -0.99 -0.02 0.51
-13.84 140.10 27.08 -0.97 0.21 0.12 0.03
-19.54 139.76 23.62 -0.23 0.58 0.78 -0.05
-10.71 123.25 26.69 -0.41 -0.42 -0.81 0.41
-13.08 134.04 32.35 -0.38 0.67 0.64 -0.15
-13.26 133.49 18.98 -0.71 -0.59 0.38 0.08
-12.47 123.60 29.69 -0.63 -0.77 -0.00 1.58
-12.96 131.37 34.62 0.20 0.10 0.97 0.09
-12.78 129.52 19.38 -0.83 -0.54 -0.16 -0.01
-11.63 127.99 19.73 -0.30 -0.88 -0.36 1.33
-12.20 124.67 31.96 0.04 -0.75 0.66 0.38
-18.02 135.20 20.98 -0.07 -0.43 0.90 0.14
-14.43 133.74 18.70 -0.13 -0.95 0.27 0.72
-13.60 139.24 24.25 -0.66 0.70 0.29 -0.17
-10.03 126.98 23.51 0.49 -0.34 -0.80 0.10
-20.52 138.25 24.78 0.08 0.49 0.87 -0.67
-9.77 128.41 22.82 0.37 -0.73 -0.57 -0.08
-13.16 132.37 18.47 -0.96 -0.26 0.02 -0.18
-16.87 141.01 23.35 -0.14 0.68 0.72 -2.56
-12.34 138.77 30.19 -0.92 0.23 0.32 -0.08
-15.32 133.35 18.87 0.23 -0.92 0.33 0.60
-13.70 140.18 25.77 -0.88 0.44 -0.19 0.06
-20.76 135.79 23.04 0.15 -0.96 0.22 -0.39
-13.37 133.60 33.28 0.03 0.85 0.53 0.27
-17.38 133.73 20.63 0.29 -0.57 0.77 0.02
-9.37 125.52 23.99 0.34 -0.60 -0.73 0.16
-11.73 122.61 29.13 -0.91 -0.42 -0.04 0.71
-13.27 131.29 18.29 -0.97 -0.08 -0.21 -0.10
-11.48 126.13 32.77 0.64 -0.40 0.66 0.10
-14.65 139.56 23.44 -0.11 0.61 0.79 -0.11
-20.48 139.54 23.11 -0.26 0.79 0.56 0.11
-12.42 124.15 30.98 -0.32 -0.77 0.55 0.80
-12.26 127.58 34.26 0.49 -0.42 0.76 -0.47
-9.33 128.71 21.82 0.01 -0.99 0.11 0.33
-11.21 122.01 27.39 -0.69 -0.42 -0.59 0.27
-12.79 136.55 32.47 -0.61 0.16 0.77 0.12
3 171 163 120
3 187 155 163
3 196 150 147
3 150 104 147
3 120 104 150
3 120 150 171
3 120 83 104
3 123 109 83
3 83 109 68
3 109 123 155
3 155 142 109
3 142 155 153
3 107 116 75
3 75 116 72
3 72 116 78
3 199 154 156
3 54 98 64
3 195 174 161
3 111 161 174
3 115 111 157
3 148 157 111
3 157 148 196
3 192 196 148
3 111 115 74
3 138 111 99
3 74 99 111
3 108 73 74
3 147 104 108
3 73 108 104
3 37 57 55
3 55 68 37
3 55 57 83
3 83 68 55
3 57 37 22
3 37 39 19
3 19 39 29
3 29 39 23
3 23 39 46
3 46 39 75
3 39 68 75
3 62 78 41
3 54 48 25
3 54 25 41
3 41 25 20
3 40 48 71
3 60 40 71
3 71 48 64
3 130 89 132
3 89 130 90
3 89 90 64
3 159 165 130
3 86 136 125
3 167 149 125
3 117 149 170
3 149 190 170
3 117 170 137
3 170 195 137
3 117 88 80
3 99 74 61
3 61 74 34
3 59 26 32
3 44 32 33
3 2 15 4
3 15 34 31
3 22 31 47
3 19 8 22
3 8 19 3
3 8 3 4
3 4 3 0
3 3 7 1
3 3 1 0
3 13 20 25
3 13 25 27
3 60 66 27
3 119 110 152
3 71 122 110
3 90 71 64
3 165 185 146
3 105 178 144
3 136 128 189
3 144 189 128
3 79 86 56
3 56 86 101
3 101 80 56
3 101 117 80
3 80 59 56
3 56 59 32
3 56 32 65
3 65 32 44
3 65 51 63
3 33 63 51
3 33 53 63
3 82 63 53
3 49 82 53
3 16 33 21
3 16 2 6
3 6 0 5
3 14 5 17
3 17 13 27
3 42 27 52
3 52 94 69
3 94 106 139
3 106 151 139
3 179 141 194
3 194 141 166
3 166 141 114
3 114 119 158
3 182 158 119
3 164 105 133
3 82 113 134
3 113 82 81
3 81 82 49
3 28 30 49
3 28 18 30
3 16 6 18
3 14 17 30
3 17 38 30
3 30 38 58
3 42 69 38
3 38 69 67
3 87 69 96
3 96 124 87
3 135 124 175
3 175 188 135
3 134 140 191
3 127 140 103
3 140 113 103
3 103 81 91
3 50 81 49
3 67 84 58
3 91 102 127
3 102 67 126
3 126 67 97
3 95 144 128
3 41 20 24
3 41 24 43
3 20 11 24
3 153 187 131
3 131 187 168
3 131 168 156
3 153 155 187
3 85 78 116
3 85 131 100
3 100 131 156
3 100 156 154
3 131 85 153
3 153 85 116
3 100 76 85
3 85 76 54
3 54 76 98
3 98 76 100
3 154 98 100
3 89 64 98
3 132 89 98
3 132 98 145
3 145 98 154
3 183 132 145
3 138 161 111
3 47 74 73
3 47 73 57
3 31 34 47
3 74 47 34
3 37 19 22
3 54 41 85
3 85 41 78
3 25 48 40
3 121 90 130
3 121 130 165
3 162 125 136
3 125 162 167
3 86 125 101
3 101 125 149
3 117 101 149
3 21 12 16
3 12 21 32
3 12 32 26
3 32 21 33
3 15 12 26
3 12 15 2
3 12 2 16
3 10 15 31
3 22 10 31
3 15 10 4
3 10 8 4
3 8 10 22
3 11 3 19
3 9 1 13
3 13 1 7
3 20 13 7
3 40 27 25
3 60 27 40
3 66 106 94
3 141 106 114
3 114 106 66
3 110 119 66
3 66 119 114
3 90 92 71
3 92 90 121
3 71 92 122
3 122 92 146
3 146 92 121
3 146 121 165
3 193 122 177
3 146 177 122
3 56 65 79
3 105 63 82
3 49 53 36
3 49 36 28
3 36 53 33
3 18 28 36
3 18 36 16
3 33 16 36
3 14 6 5
3 9 17 5
3 9 5 1
3 1 5 0
3 17 9 13
3 94 52 66
3 96 69 94
3 124 96 129
3 129 96 94
3 129 94 139
3 175 124 129
3 175 129 160
3 160 129 139
3 193 152 122
3 110 122 152
3 143 164 197
3 143 197 180
3 105 143 180
3 178 105 180
3 164 143 105
3 82 133 105
3 134 133 82
3 103 113 81
3 30 18 14
3 14 18 6
3 87 67 69
3 67 87 97
3 97 87 124
3 97 124 135
3 97 135 126
3 134 172 173
3 181 191 140
3 127 169 181
3 127 181 140
3 102 91 77
3 77 84 102
3 77 91 70
3 70 91 81
3 50 77 70
3 50 70 81
3 50 30 58
3 58 84 77
3 58 77 50
3 126 176 102
3 169 127 102
3 169 102 176
3 184 176 126
3 123 120 163
3 163 155 123
3 123 83 120
3 142 107 109
3 142 153 116
3 142 116 107
3 109 107 75
3 148 174 192
3 174 148 111
3 196 147 157
3 115 157 108
3 147 108 157
3 74 115 108
3 104 57 73
3 104 83 57
3 37 68 39
3 109 75 68
3 72 46 75
3 72 78 62
3 64 48 54
3 149 198 190
3 198 149 167
3 137 118 88
3 88 117 137
3 137 195 161
3 137 161 118
3 138 118 161
3 118 138 99
3 118 99 61
3 118 61 88
3 35 61 34
3 35 34 15
3 35 15 26
3 35 26 59
3 35 59 61
3 57 22 47
3 23 24 11
3 29 23 19
3 11 19 23
3 7 3 11
3 20 7 11
3 43 45 62
3 43 62 41
3 43 24 45
3 45 24 23
3 45 23 46
3 45 46 62
3 72 62 46
3 66 60 71
3 110 66 71
3 93 112 79
3 112 93 128
3 86 112 136
3 112 86 79
3 136 112 128
3 88 61 59
3 88 59 80
3 33 51 44
3 44 51 65
3 4 0 2
3 2 0 6
3 42 17 27
3 66 52 27
3 106 141 151
3 158 166 114
3 119 152 182
3 95 63 105
3 144 95 105
3 128 93 95
3 95 93 63
3 93 65 63
3 65 93 79
3 17 42 38
3 52 69 42
3 173 133 134
3 164 133 173
3 140 134 113
3 103 91 127
3 49 30 50
3 38 67 58
3 84 67 102
3 191 172 134
