ply
format ascii 1.0
comment Generated by MaSIF
element vertex 200
property float x
property float y
property float z
property float nx
property float ny
property float nz
property float pb
element face 3
property list uchar int vertex_indices
end_header
-15.08 132.42 27.36 -0.45 -0.34 -0.83 0.25
-16.10 132.65 27.63 -0.54 -0.44 -0.72 0.18
-15.63 131.54 28.34 -0.67 -0.60 -0.44 -0.45
-14.79 131.19 27.28 -0.64 -0.27 -0.72 -2.01
-14.23 133.26 26.66 -0.54 -0.53 -0.66 -0.59
-13.75 132.44 26.71 -0.59 -0.29 -0.75 -1.09
-15.38 134.07 26.66 -0.62 -0.42 -0.67 -0.13
-16.87 132.41 28.75 -0.72 -0.49 -0.48 -0.35
-15.25 130.97 29.35 -0.72 -0.66 -0.21 -0.35
-16.84 134.18 27.81 -0.80 0.18 -0.57 0.58
-14.10 130.12 27.29 -0.74 -0.07 -0.66 -1.89
-13.21 131.32 26.47 -0.65 -0.06 -0.76 -1.74
-13.77 133.49 25.46 -0.64 -0.71 -0.29 -0.67
-14.82 130.15 28.63 -0.93 -0.29 -0.21 -1.54
-15.93 135.13 27.56 -0.92 0.39 -0.11 0.26
-12.61 132.22 25.68 -0.78 -0.37 -0.50 -0.60
-15.63 134.90 25.62 -0.84 -0.54 -0.08 -0.49
-16.37 131.18 30.43 -0.64 -0.69 -0.33 0.09
-14.76 130.12 29.78 -0.97 -0.19 -0.18 -0.42
-17.73 132.69 29.91 -0.79 -0.52 -0.31 -0.27
-17.49 133.82 28.98 -0.74 0.12 -0.66 0.42
-15.48 130.33 30.78 -0.75 -0.44 -0.49 0.65
-13.96 128.64 27.17 -0.66 0.39 -0.65 -1.08
-15.87 135.78 26.67 -0.95 0.07 0.29 -0.02
-16.17 135.23 29.35 -0.16 0.98 -0.13 0.32
-15.27 136.33 28.38 -0.72 0.53 0.45 0.23
-15.08 128.68 28.22 -0.89 0.40 -0.22 -1.44
-17.01 131.59 31.29 -0.70 -0.68 -0.24 0.45
-12.15 130.92 25.22 -0.92 -0.05 -0.39 -0.24
-12.25 132.30 24.31 -0.89 -0.41 -0.18 0.05
-12.98 129.27 25.93 -0.80 0.25 -0.54 -0.17
-14.04 133.98 23.63 -0.55 -0.79 -0.26 -0.45
-15.97 135.48 24.25 -0.73 -0.68 -0.01 -0.64
-15.00 134.62 24.15 -0.63 -0.77 -0.13 -0.68
-15.03 135.26 29.46 -0.25 0.72 0.64 0.10
-16.37 136.72 26.26 -0.87 0.02 0.49 0.54
-16.31 130.20 31.79 -0.85 -0.47 -0.26 0.43
-17.41 135.30 29.63 -0.36 0.76 -0.53 0.78
-18.43 134.61 30.01 -0.92 0.28 -0.28 0.39
-18.34 133.63 31.21 -0.95 0.05 0.30 0.38
-13.55 128.37 26.28 -0.81 0.46 -0.38 0.01
-17.29 131.50 32.35 -0.86 -0.50 0.06 0.38
-14.35 136.98 28.04 -0.24 0.79 0.57 0.19
-15.03 128.37 30.58 -0.97 0.14 -0.18 -0.02
-16.75 136.98 25.06 -0.79 0.06 0.60 0.49
-12.08 130.57 24.30 -0.99 -0.12 0.09 0.02
-15.36 127.84 27.10 -0.61 0.41 -0.68 -1.70
-12.28 132.72 23.16 -0.98 -0.16 -0.08 0.22
-15.25 137.44 26.67 -0.38 0.79 0.47 0.28
-13.97 135.23 29.45 -0.26 0.68 0.69 0.09
-14.42 127.08 26.26 -0.85 0.20 -0.49 -0.64
-17.32 135.45 30.84 -0.36 0.91 0.21 0.29
-12.77 133.49 23.49 -0.61 -0.74 -0.27 -0.14
-15.49 135.25 23.00 -0.62 -0.77 -0.17 -0.48
-15.93 135.18 31.34 0.24 0.90 0.36 -0.31
-16.33 129.81 32.85 -0.90 -0.33 0.28 0.27
-12.93 128.53 24.61 -0.75 0.60 -0.29 -0.88
-11.91 129.56 24.51 -0.96 0.24 -0.12 -0.08
-16.06 128.85 32.48 -0.90 -0.42 0.10 0.08
-14.20 134.42 22.15 -0.55 -0.83 -0.10 -0.11
-15.34 127.67 29.85 -0.95 0.28 0.16 -1.13
-16.21 127.19 27.89 -0.97 0.19 -0.14 -1.88
-15.29 128.03 31.60 -0.97 -0.14 -0.18 0.20
-17.46 134.74 31.98 -0.35 0.66 0.66 0.78
-14.44 134.53 31.00 0.12 0.90 0.42 0.21
-13.20 137.02 28.38 -0.55 0.65 0.53 -0.15
-13.33 137.47 27.44 -0.47 0.80 0.36 -0.18
-12.31 130.28 23.17 -0.98 0.01 0.20 -0.26
-14.15 137.47 26.62 -0.39 0.87 0.32 -0.32
-16.46 130.95 33.61 -0.80 -0.25 0.54 0.80
-17.34 136.69 23.30 -0.42 -0.89 0.19 -0.16
-12.11 132.45 22.06 -1.00 0.00 0.04 -0.02
-14.29 127.04 25.31 -0.92 0.32 -0.21 -0.56
-13.01 135.99 29.67 -0.60 0.58 0.55 0.03
-17.10 133.30 33.00 -0.64 0.33 0.69 0.63
-12.43 133.37 22.04 -0.85 -0.53 -0.02 0.31
-15.09 135.29 22.04 -0.55 -0.83 0.01 -0.46
-12.22 129.07 23.75 -0.94 0.34 0.06 -0.11
-13.43 134.98 30.55 -0.53 0.65 0.54 0.07
-13.29 133.95 22.33 -0.52 -0.85 -0.09 0.12
-18.07 137.27 24.32 -0.05 -0.54 0.84 -0.19
-13.64 127.64 24.12 -0.78 0.41 -0.47 -1.48
-15.23 138.38 25.14 -0.25 0.71 0.66 -0.08
-16.24 136.00 22.22 -0.49 -0.86 0.14 -0.89
-13.84 125.45 26.32 -0.74 -0.60 -0.30 -0.98
-15.50 130.15 34.04 -0.60 -0.32 0.73 0.51
-15.48 125.88 27.39 -0.72 -0.39 -0.57 -1.34
-12.45 131.53 21.97 -0.97 0.18 0.15 -0.44
-15.35 127.84 33.10 -0.92 -0.24 0.30 -0.04
-17.29 138.62 23.96 -0.06 0.30 0.95 -0.21
-15.15 134.14 32.28 0.17 0.87 0.46 0.48
-14.77 134.96 21.04 -0.42 -0.87 0.26 -0.28
-16.40 139.09 24.11 -0.23 0.40 0.88 -0.77
-15.87 126.10 29.02 -0.97 -0.22 0.07 -1.82
-13.02 138.23 26.88 -0.83 0.47 0.31 -0.04
-13.62 138.16 25.40 -0.13 0.89 0.43 -0.65
-12.99 127.11 23.17 -0.84 0.19 -0.51 -0.59
-12.35 132.71 21.04 -0.98 -0.04 0.18 -0.11
-12.69 138.32 27.92 -0.85 0.33 0.40 0.06
-13.27 133.87 31.82 0.04 0.75 0.66 0.20
-13.96 126.06 24.37 -0.93 -0.19 -0.31 -0.94
-12.26 137.40 29.22 -0.76 0.41 0.50 -0.00
-15.11 126.30 31.52 -0.96 -0.20 0.20 -0.24
-18.41 136.45 22.61 0.09 -0.97 0.24 -0.10
-15.96 135.45 21.37 -0.25 -0.82 0.51 -1.88
-12.70 133.72 20.87 -0.71 -0.69 0.15 0.29
-18.75 138.31 24.41 0.24 0.12 0.96 -0.75
-17.05 136.15 21.73 -0.20 -0.84 0.50 -0.46
-15.70 133.86 33.45 -0.23 0.79 0.57 0.27
-12.66 128.81 22.31 -0.99 -0.03 0.11 -0.19
-14.27 128.77 34.29 -0.55 -0.20 0.81 0.15
-15.51 132.47 34.33 -0.35 0.24 0.90 0.83
-12.65 131.39 20.91 -0.97 0.19 0.11 -0.43
-14.20 134.39 19.91 -0.21 -0.87 0.45 0.37
-11.98 137.03 30.20 -0.72 0.65 0.26 -0.03
-13.08 138.58 25.82 -0.82 0.58 0.00 -0.07
-13.60 125.14 25.23 -0.85 -0.52 0.02 -0.30
-14.30 124.98 27.28 -0.45 -0.70 -0.56 -1.07
-15.57 134.75 20.49 0.11 -0.74 0.66 -0.25
-19.16 136.30 23.66 0.32 -0.85 0.42 -1.24
-14.95 139.40 24.14 0.12 0.58 0.80 -0.92
-13.81 133.36 33.02 0.36 0.82 0.44 0.93
-12.81 130.31 21.25 -0.98 0.12 0.15 -0.46
-12.60 136.39 31.44 -0.78 0.47 0.41 0.31
-13.99 129.96 34.87 -0.10 -0.16 0.98 0.13
-12.20 134.27 31.93 -0.59 0.21 0.78 -0.23
-14.51 131.32 35.09 -0.18 0.18 0.97 0.19
-14.75 126.55 33.85 -0.68 -0.28 0.68 -1.06
-17.47 140.18 23.67 -0.18 0.61 0.77 -0.17
-12.22 139.15 28.37 -0.87 0.20 0.45 0.09
-12.52 132.40 19.93 -0.98 -0.02 0.17 -0.22
-12.68 124.26 25.62 -0.56 -0.83 0.05 0.23
-12.78 139.51 27.22 -0.95 0.29 0.15 0.03
-18.54 139.77 23.86 -0.16 0.56 0.81 -0.05
-12.43 133.21 32.25 -0.32 0.67 0.67 -0.15
-14.93 124.38 28.43 -0.65 -0.63 -0.42 -0.28
-12.66 138.73 24.35 -0.59 0.74 0.33 -0.17
-13.34 125.04 23.56 -0.78 -0.36 -0.51 -0.15
-19.63 138.31 24.99 0.13 0.45 0.88 -0.67
-12.60 125.58 22.63 -0.46 -0.39 -0.80 0.01
-14.60 133.43 33.99 0.25 0.73 0.63 0.40
-18.12 136.22 21.50 -0.10 -0.83 0.55 0.14
-15.78 140.81 23.58 -0.07 0.67 0.74 -2.56
-11.34 137.95 30.24 -0.89 0.30 0.35 -0.08
-15.42 124.96 30.66 -0.81 -0.39 0.44 -0.15
-12.22 123.93 27.08 -0.67 -0.63 -0.38 0.81
-12.66 139.62 25.91 -0.84 0.52 -0.16 0.06
-12.75 131.37 19.71 -0.98 0.16 0.13 -0.39
-11.75 126.77 21.62 -0.05 -0.72 -0.70 0.20
-17.46 135.20 21.04 -0.09 -0.45 0.89 0.14
-20.10 135.94 23.17 0.07 -0.98 0.18 -0.39
-12.74 132.77 33.17 0.11 0.82 0.56 0.27
-13.93 124.91 32.12 -0.52 -0.73 0.45 -0.68
-13.69 139.17 23.58 -0.05 0.59 0.81 -0.11
-14.60 125.52 33.23 -0.67 -0.66 0.34 -1.38
-19.51 139.65 23.37 -0.19 0.79 0.59 0.11
-14.04 133.54 18.63 -0.20 -0.95 0.24 0.72
-13.02 124.01 24.34 -0.50 -0.85 -0.16 0.07
-12.62 128.58 34.94 0.03 -0.11 0.99 0.00
-13.65 132.53 34.08 0.28 0.64 0.72 0.76
-11.93 135.69 32.45 -0.58 0.18 0.79 0.12
-13.33 123.97 28.00 -0.49 -0.66 -0.57 0.17
-14.85 123.84 29.84 -0.70 -0.69 0.18 0.01
-13.50 127.16 34.44 -0.12 -0.25 0.96 -0.61
-11.62 139.38 29.49 -0.93 0.04 0.37 -0.12
-20.08 136.96 25.03 0.05 -0.45 0.89 -1.43
-12.97 129.21 20.32 -0.98 -0.18 -0.04 -0.42
-11.44 136.97 31.93 -0.76 0.40 0.51 -0.02
-20.19 136.13 21.52 -0.02 -1.00 -0.01 0.40
-14.97 133.22 18.81 0.16 -0.94 0.29 0.60
-13.14 131.73 34.71 0.26 0.39 0.88 0.17
-12.37 127.57 20.57 -0.68 -0.71 -0.19 0.73
-12.89 133.18 18.88 -0.75 -0.54 0.38 0.08
-11.71 123.58 26.03 -0.59 -0.68 -0.43 0.50
-12.50 130.46 34.42 0.23 0.05 0.97 0.09
-12.16 124.49 23.29 -0.08 -0.74 -0.67 0.04
-17.11 140.91 22.27 -0.24 0.93 0.27 0.04
-16.95 133.70 20.62 0.25 -0.62 0.74 0.02
-12.14 139.66 24.47 -0.85 0.48 0.21 0.19
-11.89 140.49 28.51 -0.98 -0.10 0.19 -0.09
-18.93 140.43 22.47 -0.27 0.91 0.33 0.13
-11.74 132.97 33.49 -0.48 0.70 0.53 -1.13
-11.34 123.98 24.56 -0.07 -0.95 -0.31 0.14
-12.90 132.08 18.32 -0.98 -0.18 0.03 -0.18
-14.07 123.23 29.21 -0.41 -0.91 -0.07 0.18
-10.91 134.21 33.04 -0.69 0.48 0.54 -0.60
-14.48 124.59 31.31 -0.51 -0.66 0.55 -0.09
-12.25 140.79 26.25 -0.98 -0.05 -0.21 -0.40
-21.01 136.27 23.86 -0.17 -0.85 0.49 -0.46
-13.78 140.81 23.12 0.14 0.50 0.85 -0.07
-12.16 141.04 27.52 -0.98 -0.07 0.17 -0.72
-14.90 141.43 22.60 -0.24 0.87 0.43 -0.43
-11.10 138.92 30.95 -0.97 -0.21 0.07 -0.27
-16.09 133.26 18.86 0.29 -0.88 0.38 0.84
-21.04 138.80 24.21 -0.29 0.62 0.73 -0.54
-10.63 127.44 21.85 0.48 -0.87 -0.12 0.26
-13.06 125.26 33.81 -0.07 -0.65 0.76 -0.81
-10.92 125.13 22.97 0.25 -0.41 -0.88 0.15
-12.63 124.43 32.52 0.19 -0.78 0.59 -0.07
-13.85 133.04 17.64 -0.63 -0.76 0.13 0.29
3 81 77 166
3 75 179 96
3 139 115 118
