ply
format ascii 1.0
comment Generated by MaSIF
element vertex 200
property float x
property float y
property float z
property float nx
property float ny
property float nz
property float pb
element face 3
property list uchar int vertex_indices
end_header
-13.41 131.90 26.47 -0.65 -0.15 -0.75 -1.74
-14.00 133.01 26.63 -0.57 -0.38 -0.73 -1.09
-12.85 132.77 25.61 -0.76 -0.45 -0.47 -0.60
-14.23 130.72 27.38 -0.74 -0.16 -0.65 -1.89
-14.98 131.75 27.29 -0.63 -0.36 -0.69 -2.01
-12.33 131.46 25.25 -0.92 -0.13 -0.38 -0.24
-13.07 129.83 26.08 -0.82 0.17 -0.55 -0.17
-14.53 133.80 26.51 -0.51 -0.60 -0.61 -0.59
-15.33 132.97 27.28 -0.43 -0.42 -0.80 0.25
-12.24 131.05 24.36 -0.98 -0.16 0.10 0.02
-12.50 132.76 24.23 -0.87 -0.47 -0.14 0.05
-14.95 130.83 28.71 -0.92 -0.36 -0.18 -1.54
-14.08 133.95 25.30 -0.60 -0.76 -0.23 -0.67
-15.83 132.14 28.32 -0.64 -0.67 -0.39 -0.45
-14.02 129.25 27.38 -0.68 0.30 -0.67 -1.08
-13.60 128.93 26.51 -0.83 0.39 -0.41 0.01
-12.02 130.07 24.65 -0.97 0.18 -0.13 -0.08
-15.14 129.31 28.42 -0.91 0.34 -0.25 -1.44
-15.71 134.55 26.45 -0.59 -0.50 -0.63 -0.13
-12.99 128.99 24.83 -0.78 0.53 -0.34 -0.88
-16.37 133.17 27.53 -0.51 -0.52 -0.68 0.18
-12.45 130.66 23.25 -0.98 -0.02 0.20 -0.26
-12.55 133.08 23.06 -0.97 -0.22 -0.07 0.22
-14.90 130.88 29.86 -0.95 -0.25 -0.16 -0.42
-15.43 131.67 29.37 -0.69 -0.71 -0.16 -0.35
-12.30 129.50 23.93 -0.95 0.30 0.03 -0.11
-13.08 133.86 23.33 -0.57 -0.79 -0.21 -0.14
-17.12 132.97 28.67 -0.70 -0.57 -0.44 -0.35
-14.39 127.60 26.59 -0.86 0.12 -0.50 -0.64
-15.38 128.38 27.37 -0.63 0.32 -0.71 -1.70
-16.32 135.64 27.27 -0.94 0.33 -0.13 0.26
-13.65 128.04 24.41 -0.80 0.34 -0.50 -1.48
-14.38 134.29 23.43 -0.50 -0.84 -0.20 -0.45
-16.01 135.28 25.36 -0.81 -0.59 -0.04 -0.49
-15.37 134.91 23.91 -0.59 -0.80 -0.07 -0.68
-12.37 132.75 21.98 -1.00 -0.05 0.04 -0.02
-16.56 131.90 30.44 -0.60 -0.75 -0.28 0.09
-17.19 134.67 27.60 -0.81 0.09 -0.58 0.58
-15.35 128.42 30.12 -0.96 0.24 0.14 -1.13
-16.20 127.74 28.21 -0.98 0.13 -0.16 -1.88
-12.74 133.64 21.89 -0.82 -0.57 0.02 0.31
-15.63 131.13 30.85 -0.72 -0.52 -0.45 0.65
-12.97 127.47 23.50 -0.85 0.11 -0.52 -0.59
-12.66 131.80 21.96 -0.98 0.14 0.14 -0.44
-12.73 129.11 22.51 -0.99 -0.07 0.12 -0.19
-14.26 127.50 25.64 -0.94 0.25 -0.23 -0.56
-13.62 134.20 22.13 -0.47 -0.88 -0.02 0.12
-15.07 129.19 30.80 -0.98 0.08 -0.18 -0.02
-17.99 133.30 29.81 -0.76 -0.59 -0.27 -0.27
-17.81 134.36 28.79 -0.75 0.03 -0.67 0.42
-16.29 136.22 26.33 -0.96 0.04 0.29 -0.02
-13.73 126.01 26.77 -0.71 -0.66 -0.25 -0.98
-15.72 136.93 28.00 -0.75 0.52 0.41 0.23
-12.62 132.92 20.95 -0.98 -0.08 0.18 -0.11
-17.22 132.35 31.27 -0.66 -0.73 -0.18 0.45
-13.88 126.47 24.78 -0.92 -0.27 -0.29 -0.94
-16.38 135.73 23.95 -0.69 -0.72 0.05 -0.64
-14.56 134.60 21.93 -0.51 -0.86 -0.04 -0.11
-15.89 135.43 22.72 -0.58 -0.81 -0.11 -0.48
-15.39 126.44 27.81 -0.70 -0.47 -0.54 -1.34
-16.57 135.87 29.05 -0.21 0.96 -0.21 0.32
-15.43 135.96 29.15 -0.29 0.76 0.59 0.10
-16.44 131.04 31.87 -0.82 -0.53 -0.22 0.43
-13.03 133.89 20.70 -0.67 -0.71 0.20 0.29
-12.85 131.57 20.91 -0.98 0.15 0.10 -0.43
-15.80 126.76 29.42 -0.96 -0.26 0.09 -1.82
-16.85 137.10 25.85 -0.87 0.01 0.49 0.54
-15.31 128.91 31.85 -0.96 -0.20 -0.17 0.20
-12.50 125.92 23.08 -0.44 -0.47 -0.77 0.01
-12.96 130.52 21.34 -0.99 0.08 0.14 -0.46
-17.50 132.32 32.33 -0.84 -0.54 0.10 0.38
-14.84 137.60 27.60 -0.28 0.81 0.51 0.19
-17.24 137.24 24.64 -0.80 0.06 0.60 0.49
-17.81 135.89 29.33 -0.40 0.70 -0.59 0.78
-11.71 127.07 21.98 -0.02 -0.77 -0.64 0.20
-18.79 135.18 29.76 -0.93 0.21 -0.30 0.39
-15.04 127.19 31.90 -0.95 -0.23 0.22 -0.24
-18.65 134.30 31.04 -0.96 0.02 0.30 0.38
-13.48 125.63 25.71 -0.82 -0.57 0.06 -0.30
-12.77 132.51 19.86 -0.98 -0.06 0.18 -0.22
-14.16 125.60 27.77 -0.41 -0.76 -0.50 -1.07
-15.76 137.91 26.20 -0.42 0.81 0.41 0.28
-13.21 125.42 24.05 -0.76 -0.44 -0.48 -0.15
-15.50 135.41 21.75 -0.51 -0.86 0.08 -0.46
-16.13 129.76 32.66 -0.88 -0.45 0.13 0.08
-12.38 127.76 20.87 -0.64 -0.76 -0.13 0.73
-16.45 130.73 32.95 -0.88 -0.35 0.31 0.27
-13.06 129.34 20.50 -0.97 -0.23 -0.02 -0.42
-14.37 135.99 29.13 -0.30 0.71 0.64 0.09
-16.67 136.08 21.88 -0.44 -0.87 0.20 -0.89
-15.15 135.02 20.77 -0.37 -0.87 0.33 -0.28
-12.95 131.45 19.72 -0.99 0.12 0.12 -0.39
-12.51 124.83 26.16 -0.52 -0.85 0.11 0.23
-12.00 124.91 23.82 -0.05 -0.79 -0.61 0.04
-15.37 128.84 33.36 -0.91 -0.26 0.32 -0.04
-14.77 125.06 28.96 -0.62 -0.70 -0.36 -0.28
-17.73 136.14 30.52 -0.41 0.90 0.14 0.29
-16.64 131.92 33.62 -0.79 -0.25 0.56 0.80
-14.81 135.38 30.74 0.08 0.93 0.35 0.21
-16.32 135.98 31.04 0.19 0.94 0.29 -0.31
-17.81 136.79 22.91 -0.37 -0.89 0.26 -0.16
-12.04 124.65 27.64 -0.64 -0.69 -0.33 0.81
-13.69 137.73 27.93 -0.58 0.66 0.48 -0.15
-13.85 138.10 26.96 -0.51 0.80 0.30 -0.18
-10.63 127.82 22.15 0.52 -0.85 -0.05 0.26
-14.67 137.99 26.14 -0.43 0.87 0.25 -0.32
-10.80 125.59 23.44 0.28 -0.46 -0.84 0.15
-14.56 134.40 19.69 -0.17 -0.84 0.52 0.37
-12.84 124.47 24.90 -0.46 -0.88 -0.09 0.07
-15.28 125.78 31.14 -0.79 -0.40 0.47 -0.15
-16.37 135.47 21.08 -0.21 -0.79 0.58 -1.88
-17.83 135.51 31.71 -0.39 0.69 0.61 0.78
-13.19 133.19 18.75 -0.72 -0.55 0.42 0.08
-12.83 129.22 19.30 -0.85 -0.52 -0.13 -0.01
-13.46 136.81 29.30 -0.63 0.59 0.50 0.03
-17.40 134.17 32.83 -0.66 0.35 0.66 0.63
-11.72 127.67 19.70 -0.33 -0.89 -0.32 1.33
-17.50 136.15 21.38 -0.16 -0.81 0.56 -0.46
-13.82 135.85 30.25 -0.57 0.66 0.49 0.07
-15.63 131.21 34.12 -0.59 -0.29 0.76 0.51
-13.14 124.69 28.56 -0.45 -0.73 -0.51 0.17
-15.95 134.73 20.25 0.15 -0.68 0.71 -0.25
-13.14 132.05 18.28 -0.97 -0.23 0.05 -0.18
-18.57 137.41 23.89 -0.03 -0.47 0.88 -0.19
-13.79 125.92 32.59 -0.48 -0.71 0.51 -0.68
-15.79 138.73 24.61 -0.29 0.75 0.60 -0.08
-14.50 126.57 33.66 -0.63 -0.67 0.39 -1.38
-11.50 124.24 26.61 -0.55 -0.74 -0.38 0.50
-14.66 124.63 30.41 -0.67 -0.71 0.23 0.01
-14.35 133.46 18.49 -0.16 -0.94 0.31 0.72
-10.39 127.78 20.83 0.11 -0.99 0.02 0.51
-17.86 138.76 23.42 -0.07 0.36 0.93 -0.21
-13.29 130.96 18.15 -0.98 -0.06 -0.19 -0.10
-11.16 124.55 25.12 -0.02 -0.97 -0.24 0.14
-10.08 126.76 23.49 0.47 -0.38 -0.80 0.10
-17.00 139.29 23.52 -0.25 0.46 0.85 -0.77
-9.79 128.16 22.74 0.34 -0.77 -0.54 -0.08
-14.70 127.64 34.19 -0.67 -0.26 0.70 -1.06
-13.57 138.82 26.35 -0.85 0.45 0.28 -0.04
-14.17 138.61 24.87 -0.18 0.91 0.36 -0.65
-13.84 124.02 29.83 -0.36 -0.93 0.01 0.18
-14.33 125.51 31.82 -0.48 -0.64 0.60 -0.09
-13.26 139.01 27.37 -0.87 0.32 0.38 0.06
-18.87 136.45 22.25 0.14 -0.94 0.31 -0.10
-12.78 138.22 28.74 -0.78 0.41 0.47 -0.00
-14.34 129.91 34.47 -0.54 -0.16 0.83 0.15
-15.49 135.06 32.05 0.13 0.91 0.39 0.48
-13.60 134.85 31.61 0.00 0.80 0.60 0.20
-18.56 136.14 21.15 -0.06 -0.79 0.61 0.14
-11.84 128.34 18.75 -0.40 -0.86 -0.30 0.39
-12.84 129.26 18.03 -0.82 -0.51 -0.25 0.28
-9.46 125.31 24.02 0.31 -0.64 -0.71 0.16
-15.76 133.54 34.23 -0.36 0.29 0.88 0.83
-11.84 123.20 28.13 -0.83 -0.40 -0.39 0.54
-9.36 128.40 21.71 -0.02 -0.99 0.16 0.33
-19.30 138.42 23.89 0.23 0.21 0.95 -0.75
-17.85 135.13 20.77 -0.07 -0.39 0.92 0.14
-16.03 134.84 33.24 -0.27 0.82 0.51 0.27
-10.25 127.87 19.70 -0.07 -0.95 -0.29 0.48
-14.14 132.90 17.53 -0.59 -0.78 0.20 0.29
-12.47 125.54 33.02 0.23 -0.72 0.65 -0.07
-15.26 133.11 18.69 0.21 -0.91 0.36 0.60
-12.48 137.94 29.75 -0.75 0.63 0.21 -0.03
-13.65 139.09 25.26 -0.85 0.53 -0.04 -0.07
-14.12 131.15 34.95 -0.10 -0.08 0.99 0.13
-10.37 124.46 25.67 -0.17 -0.82 -0.54 0.04
-10.82 123.20 26.84 -0.44 -0.44 -0.79 0.41
-19.61 136.34 23.30 0.37 -0.79 0.49 -1.24
-14.71 132.50 35.07 -0.19 0.24 0.95 0.19
-12.50 123.72 29.84 -0.66 -0.75 0.04 1.58
-15.57 139.68 23.53 0.09 0.65 0.75 -0.92
-9.03 126.84 23.85 0.32 -0.46 -0.83 -0.12
-12.94 126.45 34.25 -0.04 -0.59 0.81 -0.81
-13.06 137.37 31.03 -0.81 0.46 0.38 0.31
-13.42 124.73 31.45 -0.28 -0.79 0.55 0.21
-17.27 133.63 20.46 0.29 -0.55 0.79 0.02
-10.53 128.63 18.39 -0.09 -0.87 -0.49 0.38
-14.11 134.41 32.84 0.32 0.87 0.37 0.93
-12.55 135.32 31.68 -0.60 0.24 0.77 -0.23
-18.12 140.29 23.01 -0.21 0.66 0.72 -0.17
-12.83 139.90 27.75 -0.88 0.19 0.44 0.09
-13.48 128.36 34.74 -0.10 -0.18 0.98 -0.61
-9.00 127.51 20.47 -0.51 -0.75 0.42 1.29
-12.47 130.18 16.86 -0.54 -0.42 -0.73 0.32
-12.16 124.88 32.06 0.03 -0.72 0.69 0.38
-13.40 140.13 26.58 -0.96 0.25 0.13 0.03
-19.17 139.84 23.24 -0.19 0.62 0.76 -0.05
-8.49 128.00 22.97 -0.18 -0.86 -0.48 0.13
-12.97 132.56 16.27 -0.56 -0.72 -0.41 0.33
-9.39 127.68 19.42 -0.47 -0.86 -0.21 1.02
-11.94 128.71 17.36 -0.22 -0.80 -0.57 0.45
-12.73 134.27 32.08 -0.35 0.70 0.62 -0.15
-16.38 133.09 18.74 0.34 -0.83 0.44 0.84
-14.90 133.39 16.53 -0.29 -0.92 -0.26 0.38
-13.24 139.15 23.78 -0.63 0.73 0.28 -0.17
-20.18 138.41 24.48 0.11 0.52 0.85 -0.67
-14.91 134.51 33.80 0.22 0.79 0.57 0.40
-11.81 122.68 29.32 -0.92 -0.39 -0.00 0.71
-16.47 140.99 22.87 -0.11 0.72 0.69 -2.56
-11.88 138.89 29.71 -0.91 0.27 0.33 -0.08
3 81 77 166
3 75 179 96
3 139 115 118
