ply
format ascii 1.0
comment Generated by MaSIF
element vertex 200
property float x
property float y
property float z
property float nx
property float ny
property float nz
property float charge
element face 343
property list uchar int vertex_indices
end_header
-13.11 129.82 25.93 -0.79 0.20 -0.58 -0.17
-13.69 128.96 26.36 -0.80 0.42 -0.44 0.01
-13.04 128.94 24.70 -0.74 0.57 -0.37 -0.88
-14.12 129.32 27.21 -0.64 0.32 -0.70 -1.08
-12.01 129.96 24.51 -0.96 0.23 -0.16 -0.08
-14.25 130.81 27.18 -0.73 -0.14 -0.67 -1.89
-12.26 131.38 25.07 -0.91 -0.09 -0.40 -0.24
-13.34 131.91 26.26 -0.64 -0.13 -0.76 -1.74
-14.56 127.68 26.45 -0.84 0.15 -0.53 -0.64
-13.74 128.02 24.29 -0.77 0.37 -0.53 -1.48
-12.30 129.39 23.80 -0.94 0.35 0.00 -0.11
-12.16 130.94 24.20 -0.99 -0.10 0.08 0.02
-15.25 129.47 28.23 -0.88 0.38 -0.28 -1.44
-14.94 131.87 27.04 -0.63 -0.34 -0.70 -2.01
-15.52 128.53 27.20 -0.59 0.34 -0.73 -1.70
-14.99 130.98 28.48 -0.93 -0.31 -0.20 -1.54
-13.08 127.39 23.41 -0.83 0.14 -0.54 -0.59
-13.87 133.06 26.37 -0.58 -0.37 -0.73 -1.09
-12.37 130.54 23.10 -0.98 0.03 0.18 -0.26
-12.71 132.73 25.39 -0.77 -0.42 -0.47 -0.60
-14.42 127.54 25.52 -0.92 0.30 -0.26 -0.56
-12.33 132.67 24.02 -0.89 -0.42 -0.15 0.05
-13.99 126.06 26.69 -0.74 -0.62 -0.25 -0.98
-14.07 126.47 24.69 -0.93 -0.22 -0.30 -0.94
-12.71 128.99 22.38 -1.00 -0.01 0.09 -0.19
-16.39 127.96 28.02 -0.97 0.18 -0.18 -1.88
-15.65 126.61 27.68 -0.71 -0.44 -0.55 -1.34
-14.35 133.87 26.22 -0.53 -0.59 -0.61 -0.59
-14.96 131.07 29.63 -0.96 -0.20 -0.17 -0.42
-15.21 133.11 26.99 -0.43 -0.42 -0.80 0.25
-15.43 131.87 29.11 -0.72 -0.67 -0.16 -0.35
-15.79 132.33 28.04 -0.66 -0.64 -0.38 -0.45
-15.56 128.64 29.94 -0.95 0.29 0.11 -1.13
-12.68 125.80 23.04 -0.44 -0.47 -0.77 0.01
-12.33 132.96 22.84 -0.98 -0.16 -0.09 0.22
-12.49 131.66 21.77 -0.97 0.20 0.11 -0.44
-13.86 133.97 25.01 -0.64 -0.73 -0.23 -0.67
-11.80 126.88 21.93 -0.04 -0.78 -0.62 0.20
-13.73 125.64 25.65 -0.85 -0.52 0.05 -0.30
-14.47 125.70 27.69 -0.44 -0.75 -0.49 -1.07
-12.82 133.76 23.08 -0.61 -0.77 -0.20 -0.14
-13.44 125.37 24.00 -0.77 -0.40 -0.49 -0.15
-15.25 129.41 30.61 -0.97 0.13 -0.21 -0.02
-16.25 133.37 27.21 -0.52 -0.51 -0.68 0.18
-15.70 131.38 30.59 -0.74 -0.49 -0.46 0.65
-15.49 134.68 26.11 -0.61 -0.48 -0.63 -0.13
-12.83 124.80 26.15 -0.57 -0.81 0.12 0.23
-16.08 127.00 29.27 -0.98 -0.20 0.08 -1.82
-12.14 132.58 21.78 -1.00 0.01 0.01 -0.02
-12.26 124.79 23.82 -0.08 -0.80 -0.59 0.04
-12.84 130.37 21.17 -0.98 0.14 0.11 -0.46
-17.04 133.25 28.34 -0.72 -0.54 -0.45 -0.35
-16.58 132.19 30.14 -0.63 -0.72 -0.27 0.09
-12.67 131.41 20.73 -0.98 0.21 0.07 -0.43
-15.13 125.22 28.88 -0.65 -0.67 -0.36 -0.28
-12.46 133.50 21.65 -0.85 -0.53 0.01 0.31
-12.40 127.58 20.79 -0.68 -0.72 -0.13 0.73
-12.99 129.18 20.36 -0.98 -0.18 -0.04 -0.42
-14.09 134.27 23.14 -0.55 -0.82 -0.19 -0.45
-12.40 124.63 27.64 -0.67 -0.67 -0.33 0.81
-10.69 127.57 22.11 0.47 -0.88 -0.02 0.26
-11.01 125.39 23.46 0.27 -0.50 -0.82 0.15
-15.54 129.18 31.65 -0.97 -0.15 -0.19 0.20
-13.14 124.42 24.89 -0.51 -0.86 -0.08 0.07
-12.36 132.74 20.73 -0.99 -0.02 0.16 -0.11
-13.32 134.10 21.86 -0.52 -0.85 -0.01 0.12
-13.52 124.76 28.53 -0.48 -0.72 -0.51 0.17
-15.36 127.45 31.76 -0.97 -0.17 0.20 -0.24
-16.05 135.83 26.89 -0.91 0.38 -0.16 0.26
-16.55 131.36 31.60 -0.84 -0.49 -0.22 0.43
-16.98 134.92 27.22 -0.79 0.12 -0.60 0.58
-11.87 124.16 26.64 -0.58 -0.72 -0.37 0.50
-10.42 127.48 20.80 0.05 -1.00 0.05 0.51
-15.72 135.40 24.99 -0.84 -0.54 -0.04 -0.49
-17.23 132.70 30.94 -0.69 -0.70 -0.18 0.45
-15.07 134.96 23.57 -0.63 -0.77 -0.07 -0.68
-11.47 124.41 25.15 -0.07 -0.97 -0.21 0.14
-10.23 126.52 23.49 0.46 -0.43 -0.77 0.10
-12.74 131.26 19.53 -0.98 0.18 0.09 -0.39
-9.85 127.88 22.71 0.31 -0.80 -0.52 -0.08
-12.74 129.02 19.18 -0.87 -0.47 -0.14 -0.01
-14.22 134.55 21.62 -0.55 -0.83 -0.03 -0.11
-17.91 133.65 29.44 -0.79 -0.55 -0.27 -0.27
-17.65 134.67 28.40 -0.73 0.06 -0.68 0.42
-11.73 127.42 19.64 -0.37 -0.88 -0.31 1.33
-12.70 133.73 20.45 -0.72 -0.67 0.20 0.29
-15.09 124.82 30.34 -0.71 -0.67 0.23 0.01
-12.51 132.31 19.65 -0.99 -0.00 0.15 -0.22
-14.29 124.16 29.80 -0.41 -0.91 0.02 0.18
-15.66 126.03 31.03 -0.82 -0.34 0.46 -0.15
-15.63 129.14 33.16 -0.93 -0.20 0.31 -0.04
-16.32 130.09 32.42 -0.91 -0.40 0.12 0.08
-9.70 125.05 24.07 0.29 -0.67 -0.68 0.16
-12.30 123.19 28.17 -0.84 -0.36 -0.40 0.54
-9.38 128.07 21.69 -0.08 -0.98 0.18 0.33
-16.59 131.08 32.69 -0.91 -0.30 0.30 0.27
-17.54 132.71 31.99 -0.87 -0.49 0.09 0.38
-15.97 136.38 25.93 -0.96 0.10 0.27 -0.02
-10.25 127.54 19.67 -0.12 -0.95 -0.27 0.48
-15.53 135.47 22.35 -0.62 -0.78 -0.11 -0.48
-10.70 124.30 25.72 -0.20 -0.82 -0.53 0.04
-11.24 123.09 26.90 -0.44 -0.43 -0.79 0.41
-15.40 137.10 27.60 -0.72 0.57 0.38 0.23
-12.97 123.79 29.86 -0.70 -0.71 0.04 1.58
-9.19 126.55 23.87 0.31 -0.50 -0.81 -0.12
-16.03 135.84 23.56 -0.73 -0.68 0.05 -0.64
-14.20 126.13 32.51 -0.53 -0.67 0.51 -0.68
-11.78 128.07 18.67 -0.44 -0.85 -0.29 0.39
-12.71 129.03 17.90 -0.84 -0.47 -0.25 0.28
-15.11 135.41 21.39 -0.56 -0.82 0.09 -0.46
-16.73 132.30 33.32 -0.81 -0.19 0.55 0.80
-14.89 126.84 33.54 -0.68 -0.62 0.39 -1.38
-9.04 127.13 20.48 -0.56 -0.71 0.43 1.29
-16.34 136.11 28.66 -0.15 0.96 -0.23 0.32
-15.20 136.15 28.78 -0.26 0.79 0.56 0.10
-8.56 127.66 22.98 -0.22 -0.86 -0.46 0.13
-14.74 125.73 31.74 -0.53 -0.60 0.60 -0.09
-14.76 134.98 20.44 -0.43 -0.84 0.34 -0.28
-9.39 127.30 19.42 -0.51 -0.83 -0.20 1.02
-12.86 131.83 18.08 -0.98 -0.18 0.03 -0.18
-13.06 130.75 17.97 -0.98 -0.01 -0.22 -0.10
-17.57 136.21 28.90 -0.35 0.70 -0.62 0.78
-18.61 135.57 29.32 -0.91 0.25 -0.33 0.39
-18.55 134.72 30.62 -0.96 0.08 0.27 0.38
-13.87 124.89 31.41 -0.34 -0.76 0.56 0.21
-12.86 132.98 18.52 -0.76 -0.50 0.42 0.08
-16.46 137.28 25.42 -0.88 0.08 0.46 0.54
-12.33 122.70 29.37 -0.94 -0.34 -0.02 0.71
-15.05 127.94 34.05 -0.70 -0.21 0.69 -1.06
-11.85 121.95 27.67 -0.73 -0.39 -0.57 0.27
-15.78 131.54 33.86 -0.62 -0.24 0.75 0.51
-10.45 128.27 18.34 -0.12 -0.87 -0.47 0.38
-8.20 127.46 21.37 -0.55 -0.66 0.51 0.83
-14.48 137.71 27.20 -0.25 0.84 0.48 0.19
-14.57 130.19 34.27 -0.57 -0.11 0.82 0.15
-12.87 124.42 31.10 -0.39 -0.70 0.60 0.80
-8.36 126.94 23.74 -0.14 -0.74 -0.66 -0.00
-16.82 137.41 24.19 -0.81 0.12 0.58 0.49
-14.18 134.30 19.39 -0.23 -0.81 0.54 0.37
-8.97 124.18 25.37 0.25 -0.67 -0.70 -0.64
-16.25 136.14 21.49 -0.49 -0.84 0.21 -0.89
-9.84 123.08 26.69 -0.02 -0.63 -0.77 0.40
-11.82 128.41 17.27 -0.25 -0.80 -0.55 0.45
-15.34 138.03 25.78 -0.39 0.84 0.38 0.28
-17.35 134.57 32.46 -0.65 0.41 0.64 0.63
-14.13 136.11 28.79 -0.27 0.74 0.61 0.09
-12.92 125.68 32.99 0.17 -0.72 0.67 -0.07
-10.09 121.97 27.08 -0.01 -0.52 -0.85 0.38
-15.96 135.50 20.70 -0.27 -0.76 0.59 -1.88
-17.52 136.49 30.08 -0.36 0.93 0.11 0.29
-15.56 134.72 19.91 0.09 -0.67 0.73 -0.25
-12.26 129.89 16.72 -0.55 -0.40 -0.73 0.32
-7.73 126.31 24.29 -0.13 -0.77 -0.62 0.06
-7.57 127.29 22.17 -0.65 -0.74 0.17 0.44
-12.01 123.25 31.29 -0.77 -0.14 0.62 0.49
-14.00 133.32 18.21 -0.21 -0.92 0.33 0.72
-13.37 126.65 34.17 -0.09 -0.57 0.82 -0.81
-12.22 122.14 30.36 -0.99 -0.11 0.10 0.65
-8.90 127.52 18.07 -0.55 -0.63 -0.55 1.00
-17.68 135.90 31.29 -0.36 0.73 0.58 0.78
-12.62 124.98 32.05 -0.03 -0.70 0.71 0.38
-8.38 125.31 25.11 0.25 -0.61 -0.75 -0.12
-8.40 125.74 20.40 -0.81 -0.45 0.37 0.79
-11.58 121.08 28.31 -0.74 -0.39 -0.54 0.67
-8.54 126.25 18.96 -0.85 -0.43 -0.29 0.86
-15.78 133.88 33.91 -0.37 0.34 0.87 0.83
-13.81 128.60 34.60 -0.14 -0.15 0.98 -0.61
-13.79 132.72 17.28 -0.64 -0.74 0.20 0.29
-16.13 136.26 30.64 0.24 0.93 0.28 -0.31
-14.64 135.58 30.40 0.12 0.94 0.33 0.21
-17.37 136.94 22.46 -0.43 -0.86 0.28 -0.16
-17.06 136.24 20.96 -0.22 -0.79 0.58 -0.46
-13.33 137.78 27.56 -0.56 0.70 0.45 -0.15
-13.45 138.13 26.58 -0.48 0.84 0.26 -0.18
-14.30 131.43 34.73 -0.12 -0.05 0.99 0.13
-7.54 125.96 21.21 -0.59 -0.50 0.64 0.53
-8.11 123.55 26.13 0.47 -0.69 -0.54 -1.11
-14.25 138.05 25.74 -0.39 0.89 0.22 -0.32
-10.24 128.98 17.00 -0.04 -0.73 -0.69 0.47
-12.61 132.27 16.06 -0.58 -0.70 -0.41 0.33
-6.83 126.53 23.03 -0.58 -0.81 -0.09 0.00
-14.81 132.81 34.80 -0.20 0.28 0.94 0.19
-11.33 124.24 31.60 -0.04 -0.17 0.98 0.52
-13.18 136.89 28.96 -0.61 0.64 0.47 0.03
-11.77 126.42 32.77 0.60 -0.41 0.69 0.10
-12.94 130.06 34.97 0.01 -0.01 1.00 0.00
-9.03 128.52 17.31 -0.34 -0.61 -0.72 1.47
-13.62 135.98 29.93 -0.54 0.70 0.46 0.07
-10.34 121.06 27.89 -0.05 -0.42 -0.91 1.04
-8.30 122.77 27.40 0.79 -0.51 -0.34 0.07
-15.96 135.17 32.88 -0.24 0.85 0.48 0.27
-14.93 133.02 18.40 0.15 -0.91 0.39 0.60
-11.69 130.69 15.93 -0.77 -0.36 -0.53 0.62
-18.12 137.63 23.40 -0.07 -0.45 0.89 -0.19
-10.86 123.14 31.93 -0.17 0.34 0.92 0.50
-12.13 121.18 29.76 -0.99 -0.12 -0.10 1.03
-7.21 124.84 26.09 0.90 -0.35 -0.26 -0.49
-15.29 138.81 24.16 -0.26 0.78 0.57 -0.08
-17.45 135.23 20.36 -0.11 -0.36 0.93 0.14
-11.86 121.10 31.09 -0.96 -0.09 0.27 1.18
3 185 134 166
3 174 134 185
3 174 130 134
3 181 165 130
3 130 165 110
3 114 183 133
3 157 195 199
3 127 157 154
3 154 103 127
3 194 182 154
3 154 182 135
3 182 160 135
3 135 160 124
3 106 124 160
3 111 106 156
3 146 156 106
3 106 111 67
3 116 106 89
3 67 89 106
3 128 90 67
3 166 134 128
3 90 128 134
3 69 91 95
3 95 110 69
3 95 91 130
3 130 110 95
3 91 69 44
3 69 96 52
3 52 96 74
3 74 96 82
3 82 96 123
3 123 96 144
3 96 110 144
3 149 168 113
3 114 102 68
3 114 68 113
3 113 68 70
3 97 102 143
3 126 97 143
3 143 102 133
3 172 173 133
3 196 139 161
3 161 139 104
3 104 139 92
3 92 139 76
3 176 189 141
3 147 141 189
3 147 163 129
3 129 163 127
3 147 101 141
3 141 101 100
3 46 76 71
3 101 93 71
3 66 93 103
3 93 127 103
3 66 103 88
3 103 135 88
3 66 54 39
3 89 67 47
3 47 67 32
3 26 14 8
3 20 8 2
3 5 12 15
3 12 32 42
3 44 42 62
3 52 30 44
3 30 52 31
3 30 31 15
3 15 31 13
3 31 43 29
3 31 29 13
3 45 70 68
3 45 68 73
3 126 137 73
3 173 143 133
3 162 112 164
3 112 162 175
3 180 115 153
3 115 104 79
3 92 61 104
3 77 104 61
3 37 77 61
3 76 49 92
3 61 92 49
3 38 46 22
3 22 46 59
3 59 39 22
3 59 66 39
3 39 26 22
3 22 26 8
3 22 8 23
3 23 8 20
3 23 9 16
3 2 16 9
3 2 10 16
3 24 16 10
3 18 24 10
3 0 2 1
3 0 5 7
3 7 13 17
3 19 17 36
3 36 45 73
3 75 73 105
3 105 170 99
3 98 118 72
3 112 72 118
3 72 37 56
3 24 50 57
3 50 24 35
3 35 24 18
3 11 21 18
3 11 6 21
3 0 7 6
3 19 36 21
3 36 58 21
3 21 58 40
3 75 99 58
3 58 99 81
3 109 99 140
3 140 148 109
3 150 148 198
3 131 84 107
3 107 142 131
3 84 80 107
3 142 107 108
3 80 108 107
3 57 78 120
3 87 78 53
3 78 50 53
3 53 35 64
3 34 35 18
3 81 65 40
3 64 85 87
3 85 81 138
3 138 81 117
3 178 186 131
3 158 131 186
3 151 120 192
3 192 120 119
3 179 119 167
3 33 61 49
3 113 70 83
3 113 83 121
3 70 51 83
3 187 145 169
3 169 145 114
3 114 145 183
3 183 145 187
3 172 133 183
3 135 103 154
3 116 124 106
3 62 67 90
3 62 90 91
3 42 32 62
3 67 62 32
3 69 52 44
3 114 113 169
3 169 113 168
3 68 102 97
3 153 175 180
3 136 180 152
3 136 152 104
3 104 152 161
3 100 76 139
3 100 139 141
3 147 188 163
3 157 127 163
3 157 163 195
3 100 71 76
3 71 100 101
3 46 71 59
3 59 71 93
3 66 59 93
3 1 3 0
3 3 1 8
3 3 8 14
3 8 1 2
3 12 3 14
3 3 12 5
3 3 5 0
3 28 12 42
3 44 28 42
3 12 28 15
3 28 30 15
3 30 28 44
3 51 31 52
3 27 29 45
3 45 29 43
3 70 45 43
3 97 73 68
3 126 73 97
3 137 193 170
3 173 177 143
3 132 175 153
3 94 132 153
3 94 153 115
3 104 115 136
3 136 115 180
3 77 79 104
3 22 23 38
3 37 16 24
3 18 10 4
3 18 4 11
3 4 10 2
3 6 11 4
3 6 4 0
3 2 0 4
3 19 7 17
3 27 36 17
3 27 17 29
3 29 17 13
3 36 27 45
3 170 105 137
3 140 99 170
3 148 140 171
3 171 140 170
3 198 148 171
3 60 72 94
3 94 72 112
3 79 94 115
3 132 94 112
3 60 94 79
3 37 60 79
3 77 37 79
3 72 60 37
3 24 56 37
3 57 56 24
3 53 50 35
3 21 6 19
3 19 6 7
3 109 81 99
3 81 109 117
3 117 109 148
3 117 148 150
3 117 150 138
3 131 158 118
3 131 118 98
3 131 98 84
3 57 80 84
3 119 120 78
3 87 125 119
3 87 119 78
3 85 64 55
3 55 65 85
3 55 64 48
3 48 64 35
3 34 55 48
3 34 48 35
3 34 21 40
3 40 65 55
3 40 55 34
3 138 155 85
3 125 87 85
3 125 85 155
3 191 155 138
3 119 125 167
3 167 125 155
3 181 130 174
3 165 190 144
3 146 160 184
3 160 146 106
3 111 156 128
3 166 128 156
3 67 111 128
3 134 91 90
3 134 130 91
3 69 110 96
3 165 144 110
3 159 123 144
3 159 168 149
3 133 102 114
3 176 139 196
3 141 139 176
3 93 129 127
3 147 129 101
3 129 93 101
3 88 86 54
3 54 66 88
3 88 135 124
3 88 124 86
3 116 86 124
3 86 116 89
3 86 89 47
3 86 47 54
3 25 47 32
3 25 32 12
3 25 12 14
3 25 14 26
3 25 26 47
3 91 44 62
3 82 83 51
3 74 82 52
3 51 52 82
3 43 31 51
3 70 43 51
3 121 122 149
3 121 149 113
3 121 83 122
3 122 83 82
3 122 82 123
3 122 123 149
3 159 149 123
3 137 126 143
3 197 137 143
3 41 63 38
3 63 41 49
3 46 63 76
3 63 46 38
3 76 63 49
3 54 47 26
3 54 26 39
3 2 9 20
3 20 9 23
3 15 13 5
3 5 13 7
3 75 36 73
3 137 105 73
3 175 132 112
3 118 164 112
3 33 16 37
3 61 33 37
3 49 41 33
3 33 41 16
3 41 23 16
3 23 41 38
3 36 75 58
3 105 99 75
3 164 118 158
3 84 56 57
3 72 56 84
3 72 84 98
3 78 57 50
3 53 64 87
3 18 21 34
3 58 81 40
3 142 151 178
3 131 142 178
3 142 108 151
3 108 120 151
3 192 119 179
3 65 81 85
3 120 108 80
3 120 80 57
