ply
format ascii 1.0
comment Generated by MaSIF
element vertex 200
property float x
property float y
property float z
property float nx
property float ny
property float nz
property float charge
element face 345
property list uchar int vertex_indices
end_header
-14.28 129.08 27.57 -0.66 0.39 -0.64 -1.08
-14.02 128.62 26.70 -0.77 0.52 -0.37 0.01
-15.24 129.46 28.69 -0.84 0.51 -0.20 -1.44
-14.18 130.57 27.46 -0.82 -0.05 -0.57 -1.89
-15.78 128.53 27.76 -0.62 0.40 -0.68 -1.70
-13.36 129.35 26.15 -0.81 0.30 -0.50 -0.17
-15.06 127.50 26.96 -0.86 0.26 -0.44 -0.64
-16.62 128.14 28.71 -0.94 0.32 -0.08 -1.88
-15.05 127.31 26.03 -0.88 0.43 -0.18 -0.56
-13.58 128.43 24.98 -0.68 0.66 -0.32 -0.88
-14.70 131.72 27.34 -0.75 -0.26 -0.60 -2.01
-14.72 130.91 28.83 -0.98 -0.16 -0.07 -1.54
-15.47 128.76 30.48 -0.87 0.45 0.20 -1.13
-13.22 131.47 26.38 -0.74 -0.06 -0.67 -1.74
-14.73 125.83 27.23 -0.85 -0.50 -0.13 -0.98
-16.15 126.67 28.36 -0.83 -0.34 -0.43 -1.34
-14.54 131.04 29.96 -1.00 -0.05 -0.05 -0.42
-12.44 129.25 24.62 -0.92 0.38 -0.07 -0.08
-14.97 129.49 31.06 -0.95 0.28 -0.11 -0.02
-12.38 130.72 25.11 -0.96 0.05 -0.29 -0.24
-14.98 126.16 25.23 -0.98 -0.08 -0.18 -0.94
-14.46 127.61 24.70 -0.76 0.46 -0.46 -1.48
-14.78 132.98 27.24 -0.58 -0.38 -0.72 0.25
-12.90 128.71 23.98 -0.86 0.50 0.09 -0.11
-14.94 131.89 29.44 -0.83 -0.55 -0.04 -0.35
-16.32 127.19 29.97 -0.98 -0.04 0.20 -1.82
-15.34 132.36 28.39 -0.80 -0.54 -0.27 -0.45
-14.67 125.32 26.20 -0.91 -0.37 0.18 -0.30
-15.14 125.58 28.30 -0.61 -0.69 -0.39 -1.07
-13.55 132.69 26.48 -0.71 -0.30 -0.64 -1.09
-12.58 132.13 25.40 -0.88 -0.31 -0.36 -0.60
-12.47 130.23 24.26 -0.98 0.06 0.20 0.02
-14.02 126.85 23.80 -0.85 0.25 -0.45 -0.59
-15.16 129.35 32.14 -1.00 0.00 -0.07 0.20
-15.10 131.51 30.98 -0.86 -0.38 -0.34 0.65
-13.85 124.37 26.64 -0.67 -0.71 0.23 0.23
-15.72 125.27 29.58 -0.78 -0.57 -0.25 -0.28
-15.73 133.42 27.56 -0.68 -0.45 -0.58 0.18
-12.87 129.83 23.22 -0.94 0.20 0.28 -0.26
-15.25 127.62 32.33 -0.95 -0.00 0.31 -0.24
-14.62 124.94 24.55 -0.88 -0.29 -0.37 -0.15
-12.38 131.95 24.00 -0.96 -0.28 -0.03 0.05
-13.91 133.56 26.34 -0.68 -0.52 -0.51 -0.59
-13.28 124.19 28.09 -0.80 -0.56 -0.21 0.81
-13.53 128.32 22.64 -0.97 0.15 0.20 -0.19
-16.39 133.47 28.77 -0.84 -0.43 -0.33 -0.35
-15.89 132.43 30.58 -0.77 -0.62 -0.16 0.09
-14.37 123.99 25.45 -0.64 -0.77 0.03 0.07
-14.91 134.54 26.31 -0.75 -0.40 -0.53 -0.13
-14.25 124.54 29.08 -0.64 -0.65 -0.41 0.17
-15.85 126.24 31.73 -0.80 -0.19 0.57 -0.15
-15.07 129.40 33.65 -0.91 -0.03 0.42 -0.04
-15.81 131.67 32.07 -0.93 -0.35 -0.10 0.43
-13.92 125.20 23.48 -0.60 -0.42 -0.68 0.01
-15.69 130.41 32.93 -0.94 -0.24 0.25 0.08
-13.56 133.53 25.08 -0.77 -0.63 -0.11 -0.67
-12.95 123.60 27.06 -0.73 -0.63 -0.26 0.50
-13.57 124.16 24.27 -0.27 -0.80 -0.53 0.04
-15.56 124.93 31.05 -0.77 -0.53 0.35 0.01
-13.03 126.08 22.22 -0.24 -0.79 -0.56 0.20
-12.70 123.72 25.52 -0.24 -0.96 -0.15 0.14
-14.95 124.12 30.46 -0.55 -0.83 0.12 0.18
-12.48 132.19 22.81 -1.00 -0.00 0.03 0.22
-16.21 135.06 27.56 -0.83 0.22 -0.51 0.58
-16.35 133.07 31.41 -0.81 -0.58 -0.06 0.45
-12.97 130.89 21.84 -0.91 0.36 0.20 -0.44
-14.23 126.16 33.03 -0.56 -0.56 0.61 -0.68
-12.80 133.08 23.05 -0.74 -0.66 -0.09 -0.14
-14.67 127.03 34.08 -0.72 -0.49 0.50 -1.38
-17.05 134.05 29.94 -0.89 -0.42 -0.15 -0.27
-16.76 134.98 28.82 -0.79 0.15 -0.60 0.42
-15.77 131.45 33.17 -0.90 -0.13 0.41 0.27
-13.35 122.77 28.69 -0.93 -0.24 -0.28 0.54
-15.19 135.79 27.07 -0.85 0.51 -0.08 0.26
-14.91 125.83 32.34 -0.54 -0.48 0.69 -0.09
-15.16 135.24 25.18 -0.91 -0.40 0.08 -0.49
-14.59 128.15 34.54 -0.63 -0.06 0.77 -1.06
-13.59 129.66 21.37 -0.93 0.30 0.21 -0.46
-11.89 123.51 26.01 -0.39 -0.80 -0.45 0.04
-13.64 126.81 21.11 -0.79 -0.61 -0.01 0.73
-12.48 122.46 27.32 -0.60 -0.39 -0.70 0.41
-14.01 128.47 20.66 -1.00 -0.02 0.08 -0.42
-12.30 124.55 23.73 0.09 -0.57 -0.82 0.15
-13.71 123.55 30.39 -0.79 -0.59 0.16 1.58
-11.80 126.58 22.23 0.32 -0.95 -0.02 0.26
-16.52 133.18 32.49 -0.92 -0.33 0.22 0.38
-13.74 130.30 34.57 -0.48 0.02 0.88 0.15
-12.48 131.75 21.76 -0.98 0.17 0.12 -0.02
-15.64 132.69 33.74 -0.76 -0.04 0.65 0.80
-13.30 130.63 20.85 -0.92 0.37 0.17 -0.43
-14.23 124.85 31.97 -0.38 -0.67 0.64 0.21
-12.66 132.69 21.62 -0.91 -0.38 0.14 0.31
-13.97 133.79 23.22 -0.69 -0.72 -0.08 -0.45
-14.76 131.82 34.21 -0.55 -0.10 0.83 0.51
-12.98 125.54 33.38 0.14 -0.71 0.69 -0.07
-13.30 122.35 29.91 -0.98 -0.18 0.11 0.71
-15.14 136.29 26.08 -0.89 0.27 0.36 -0.02
-14.76 134.64 23.72 -0.75 -0.66 0.05 -0.68
-15.21 136.20 28.84 -0.03 0.96 -0.27 0.32
-12.80 131.89 20.74 -0.95 0.15 0.27 -0.11
-13.36 124.20 31.59 -0.42 -0.61 0.68 0.80
-13.38 133.44 21.88 -0.64 -0.76 0.09 0.12
-11.71 126.40 20.90 -0.10 -0.99 0.10 0.51
-13.13 126.61 34.55 -0.08 -0.51 0.86 -0.81
-13.16 121.46 28.22 -0.84 -0.29 -0.46 0.27
-11.00 124.02 24.22 0.10 -0.74 -0.67 0.16
-16.38 136.51 29.21 -0.31 0.73 -0.62 0.78
-17.44 136.06 29.79 -0.89 0.38 -0.24 0.39
-17.36 135.26 31.12 -0.90 0.25 0.37 0.38
-14.27 136.97 27.62 -0.57 0.70 0.42 0.23
-11.35 125.53 23.61 0.30 -0.53 -0.79 0.10
-10.86 126.77 22.72 0.11 -0.86 -0.50 -0.08
-13.20 128.62 34.91 -0.04 -0.09 1.00 -0.61
-13.94 128.22 19.46 -0.94 -0.33 -0.01 -0.01
-12.91 124.75 32.46 -0.05 -0.66 0.75 0.38
-13.14 126.50 19.90 -0.54 -0.81 -0.21 1.33
-11.13 122.21 26.94 -0.22 -0.65 -0.73 0.40
-15.56 135.66 23.77 -0.82 -0.55 0.17 -0.64
-10.27 123.10 25.47 0.05 -0.73 -0.68 -0.64
-14.07 136.05 28.84 -0.07 0.84 0.54 0.10
-13.22 131.50 34.92 -0.01 0.01 1.00 0.13
-13.55 130.45 19.68 -0.92 0.34 0.19 -0.39
-11.50 121.17 27.43 -0.20 -0.55 -0.81 0.38
-14.23 134.02 21.72 -0.68 -0.73 0.08 -0.11
-15.54 137.23 25.57 -0.80 0.24 0.55 0.54
-10.49 126.84 21.64 -0.21 -0.95 0.25 0.33
-13.01 132.91 20.43 -0.78 -0.53 0.32 0.29
-13.14 131.45 19.71 -0.95 0.17 0.26 -0.22
-15.99 134.99 32.82 -0.50 0.53 0.68 0.63
-11.76 126.07 33.00 0.61 -0.47 0.64 0.10
-12.68 122.92 31.75 -0.70 0.01 0.71 0.49
-12.07 129.94 35.09 0.13 0.03 0.99 0.00
-13.17 121.82 30.91 -0.97 0.06 0.22 0.65
-11.67 126.38 19.76 -0.30 -0.93 -0.20 0.48
-16.14 136.81 30.37 -0.20 0.98 0.09 0.29
-14.39 134.12 34.12 -0.20 0.43 0.88 0.83
-12.95 120.59 28.87 -0.85 -0.29 -0.43 0.67
-13.31 137.40 27.10 -0.05 0.89 0.46 0.19
-16.02 137.37 24.39 -0.70 0.27 0.66 0.49
-15.28 135.17 22.54 -0.74 -0.67 0.01 -0.48
-13.50 132.94 34.96 -0.04 0.35 0.94 0.19
-10.28 125.40 23.87 0.13 -0.58 -0.81 -0.12
-14.28 137.81 25.76 -0.20 0.91 0.37 0.28
-11.81 123.80 31.92 0.05 -0.13 0.99 0.52
-16.24 136.31 31.61 -0.17 0.80 0.57 0.78
-13.21 127.11 18.91 -0.60 -0.77 -0.19 0.39
-14.06 128.18 18.19 -0.93 -0.34 -0.13 0.28
-13.04 135.84 28.73 -0.08 0.80 0.59 0.09
-11.98 127.82 34.35 0.47 -0.45 0.76 -0.47
-10.45 125.81 20.46 -0.61 -0.59 0.53 1.29
-9.59 126.36 22.85 -0.40 -0.83 -0.38 0.13
-10.90 125.99 19.43 -0.66 -0.75 -0.09 1.02
-9.42 122.37 26.17 0.29 -0.78 -0.55 -1.11
-14.75 136.39 30.78 0.41 0.89 0.19 -0.31
-9.53 124.11 25.08 0.06 -0.68 -0.73 -0.12
-11.80 120.35 28.32 -0.22 -0.44 -0.87 1.04
-14.13 129.93 18.20 -0.98 0.14 -0.10 -0.10
-9.58 121.68 27.50 0.66 -0.64 -0.39 0.07
-14.99 135.00 21.54 -0.67 -0.72 0.20 -0.46
-11.49 122.65 32.26 -0.01 0.41 0.91 0.50
-13.30 120.84 30.36 -1.00 0.03 0.01 1.03
-11.73 131.68 34.26 0.34 0.15 0.93 0.09
-14.83 134.48 20.58 -0.51 -0.74 0.44 -0.28
-13.75 130.97 18.22 -0.99 -0.01 0.15 -0.18
-13.43 135.46 30.41 0.31 0.92 0.26 0.21
-10.96 125.32 31.95 0.55 -0.24 0.80 0.81
-10.95 126.60 32.07 0.68 -0.31 0.67 0.17
-13.40 134.86 33.54 0.43 0.76 0.48 0.40
-12.89 120.77 31.66 -0.92 0.08 0.38 1.18
-11.91 127.08 18.42 -0.32 -0.86 -0.40 0.38
-8.34 123.49 25.95 0.80 -0.50 -0.34 -0.49
-9.47 126.04 21.23 -0.58 -0.54 0.61 0.83
-10.05 120.42 28.22 0.51 -0.48 -0.72 0.44
-14.48 135.38 33.05 -0.04 0.89 0.45 0.27
-12.34 121.79 32.47 -0.59 0.33 0.73 0.52
-9.43 125.65 23.62 -0.33 -0.73 -0.60 -0.00
-13.51 132.12 18.58 -0.77 -0.35 0.53 0.08
-12.14 133.07 34.40 0.42 0.46 0.78 0.17
-12.13 137.31 27.32 -0.38 0.80 0.46 -0.15
-12.31 137.63 26.33 -0.30 0.92 0.27 -0.18
-13.21 137.65 25.60 -0.21 0.95 0.21 -0.32
-16.83 136.93 22.76 -0.52 -0.77 0.37 -0.16
-12.98 119.20 29.40 -0.82 -0.29 -0.50 0.68
-13.36 127.40 17.51 -0.43 -0.77 -0.47 0.45
-15.98 135.91 21.72 -0.59 -0.74 0.32 -0.89
-10.35 130.03 34.89 -0.16 0.09 0.98 -1.09
-11.96 136.46 28.74 -0.44 0.75 0.50 0.03
-11.02 131.11 34.05 0.10 0.35 0.93 -0.10
-10.54 124.11 31.29 0.50 0.17 0.85 0.25
-12.59 133.84 33.69 0.45 0.68 0.58 0.76
-14.49 133.67 19.51 -0.29 -0.74 0.61 0.37
-12.42 135.67 29.80 -0.37 0.80 0.48 0.07
-14.03 135.39 31.80 0.35 0.89 0.29 0.48
-10.89 128.35 34.14 0.11 -0.63 0.77 -0.19
-8.84 124.95 24.14 -0.32 -0.76 -0.56 0.06
-8.50 122.95 27.11 0.90 -0.44 0.05 -1.83
-13.63 128.90 16.92 -0.69 -0.34 -0.64 0.32
-8.78 125.79 21.96 -0.73 -0.62 0.29 0.44
-17.35 137.76 23.74 -0.04 -0.39 0.92 -0.19
-14.30 138.50 24.11 -0.07 0.83 0.55 -0.08
3 193 185 131
3 131 185 187
3 161 177 120
3 114 165 129
3 129 165 166
3 148 131 112
3 131 86 112
3 120 86 131
3 187 161 131
3 120 131 161
3 120 93 86
3 140 135 93
3 93 135 88
3 135 140 189
3 189 167 135
3 173 192 128
3 128 192 144
3 144 192 153
3 119 186 137
3 132 168 174
3 132 160 168
3 95 132 130
3 130 83 95
3 159 143 130
3 130 143 100
3 143 114 100
3 100 114 90
3 66 90 114
3 68 66 103
3 94 103 66
3 103 94 148
3 129 148 94
3 66 68 39
3 74 66 50
3 39 50 66
3 76 51 39
3 112 86 76
3 51 76 86
3 52 54 71
3 71 88 52
3 71 54 93
3 93 88 71
3 54 52 34
3 52 85 46
3 46 85 64
3 64 85 69
3 69 85 108
3 108 85 128
3 85 88 128
3 134 153 98
3 119 109 73
3 119 73 98
3 98 73 63
3 96 109 142
3 124 96 142
3 142 109 137
3 178 179 137
3 170 118 154
3 154 118 141
3 141 118 105
3 105 118 60
3 152 157 116
3 122 116 157
3 195 157 152
3 182 136 155
3 122 136 104
3 104 136 95
3 122 80 116
3 116 80 78
3 35 60 56
3 80 72 56
3 49 72 83
3 72 95 83
3 49 83 61
3 83 100 61
3 49 36 28
3 50 39 25
3 25 39 12
3 15 4 6
3 8 6 9
3 3 2 11
3 2 12 18
3 34 18 33
3 46 24 34
3 24 46 26
3 24 26 11
3 11 26 10
3 26 37 22
3 26 22 10
3 48 63 73
3 48 73 75
3 124 138 75
3 179 142 137
3 150 141 111
3 105 82 141
3 110 141 82
3 59 110 82
3 60 57 105
3 82 105 57
3 27 35 14
3 14 35 43
3 43 28 14
3 43 49 28
3 28 15 14
3 14 15 6
3 14 6 20
3 20 6 8
3 20 21 32
3 9 32 21
3 9 23 32
3 44 32 23
3 38 44 23
3 5 9 1
3 5 3 13
3 13 10 29
3 30 29 55
3 55 48 75
3 97 75 117
3 117 181 139
3 133 151 102
3 149 102 151
3 102 59 79
3 44 77 81
3 77 44 65
3 65 44 38
3 31 41 38
3 31 19 41
3 5 13 19
3 30 55 41
3 55 92 41
3 41 92 67
3 97 139 92
3 92 139 123
3 158 139 184
3 169 115 145
3 145 183 169
3 115 113 145
3 183 145 146
3 113 146 145
3 81 121 156
3 127 121 89
3 121 77 89
3 89 65 99
3 62 65 38
3 123 101 67
3 99 126 127
3 126 123 190
3 190 123 162
3 53 82 57
3 98 63 70
3 98 70 106
3 63 45 70
3 131 148 193
3 159 188 143
3 114 143 165
3 165 143 188
3 164 153 192
3 191 147 164
3 164 147 119
3 119 147 186
3 186 147 191
3 178 137 186
3 100 83 130
3 74 90 66
3 33 39 51
3 33 51 54
3 18 12 33
3 39 33 12
3 52 46 34
3 119 98 164
3 164 98 153
3 73 109 96
3 175 194 141
3 141 194 154
3 78 60 118
3 78 118 116
3 172 155 122
3 122 155 136
3 132 95 136
3 132 136 160
3 78 56 60
3 56 78 80
3 35 56 43
3 43 56 72
3 49 43 72
3 1 0 5
3 0 1 6
3 0 6 4
3 6 1 9
3 2 0 4
3 0 2 3
3 0 3 5
3 16 2 18
3 34 16 18
3 2 16 11
3 16 24 11
3 24 16 34
3 45 26 46
3 42 22 48
3 48 22 37
3 63 48 37
3 96 75 73
3 124 75 96
3 138 198 181
3 179 180 142
3 125 171 197
3 125 197 150
3 141 150 175
3 110 111 141
3 14 20 27
3 59 32 44
3 38 23 17
3 38 17 31
3 17 23 9
3 19 31 17
3 19 17 5
3 9 5 17
3 30 13 29
3 42 55 29
3 42 29 22
3 22 29 10
3 55 42 48
3 181 117 138
3 184 139 181
3 84 102 125
3 125 102 149
3 111 125 150
3 171 125 149
3 84 125 111
3 59 84 111
3 110 59 111
3 102 84 59
3 44 79 59
3 81 79 44
3 89 77 65
3 41 19 30
3 30 19 13
3 158 123 139
3 123 158 162
3 169 151 133
3 169 133 115
3 81 113 115
3 163 156 121
3 127 176 163
3 127 163 121
3 126 99 91
3 91 101 126
3 91 99 87
3 87 99 65
3 62 91 87
3 62 87 65
3 62 41 67
3 67 101 91
3 67 91 62
3 176 127 126
3 140 120 177
3 177 189 140
3 140 93 120
3 167 173 135
3 167 192 173
3 135 173 128
3 174 159 130
3 174 130 132
3 94 114 129
3 114 94 66
3 148 112 103
3 68 103 76
3 112 76 103
3 39 68 76
3 86 54 51
3 86 93 54
3 52 88 85
3 135 128 88
3 144 108 128
3 144 153 134
3 137 109 119
3 170 195 152
3 152 118 170
3 116 118 152
3 157 172 122
3 136 182 160
3 72 104 95
3 122 104 80
3 104 72 80
3 61 58 36
3 36 49 61
3 61 100 90
3 61 90 58
3 74 58 90
3 58 74 50
3 58 50 25
3 58 25 36
3 7 25 12
3 7 12 2
3 7 2 4
3 7 4 15
3 7 15 25
3 54 34 33
3 69 70 45
3 64 69 46
3 45 46 69
3 37 26 45
3 63 37 45
3 106 107 134
3 106 134 98
3 106 70 107
3 107 70 69
3 107 69 108
3 107 108 134
3 144 134 108
3 138 124 142
3 199 138 142
3 40 47 27
3 47 40 57
3 35 47 60
3 47 35 27
3 60 47 57
3 36 25 15
3 36 15 28
3 9 21 8
3 8 21 20
3 11 10 3
3 3 10 13
3 97 55 75
3 138 117 75
3 53 32 59
3 82 53 59
3 57 40 53
3 53 40 32
3 40 20 32
3 20 40 27
3 55 97 92
3 117 139 97
3 115 79 81
3 102 79 115
3 102 115 133
3 121 81 77
3 89 99 127
3 38 41 62
3 92 123 67
3 183 146 196
3 146 156 196
3 101 123 126
3 156 146 113
3 156 113 81
