ply
format ascii 1.0
comment Generated by MaSIF
element vertex 195
property float x
property float y
property float z
property float nx
property float ny
property float nz
property float charge
element face 338
property list uchar int vertex_indices
end_header
-15.57 130.64 28.09 -0.88 -0.37 -0.29 -1.54
-15.63 130.65 29.24 -0.92 -0.27 -0.27 -0.42
-16.13 131.44 28.72 -0.65 -0.72 -0.26 -0.35
-14.71 130.62 26.84 -0.66 -0.16 -0.73 -1.89
-15.48 131.62 26.71 -0.54 -0.34 -0.77 -2.01
-15.67 129.13 27.72 -0.89 0.32 -0.33 -1.44
-16.44 131.94 27.66 -0.57 -0.67 -0.48 -0.45
-16.47 130.83 30.15 -0.66 -0.52 -0.55 0.65
-17.38 131.59 29.68 -0.54 -0.75 -0.37 0.09
-15.86 132.83 26.71 -0.33 -0.40 -0.86 0.25
-14.45 129.15 26.80 -0.61 0.31 -0.73 -1.08
-13.83 131.85 26.07 -0.56 -0.14 -0.82 -1.74
-16.93 132.99 26.86 -0.42 -0.51 -0.75 0.18
-15.76 128.24 26.62 -0.56 0.33 -0.76 -1.70
-15.85 128.91 30.08 -0.96 0.06 -0.28 -0.02
-17.79 132.72 27.91 -0.63 -0.57 -0.54 -0.35
-14.48 132.94 26.20 -0.48 -0.36 -0.80 -1.09
-13.39 129.81 25.64 -0.76 0.17 -0.63 -0.17
-16.03 128.16 29.35 -0.98 0.20 0.05 -1.13
-16.64 127.55 27.33 -0.96 0.11 -0.25 -1.88
-17.39 130.67 31.08 -0.78 -0.54 -0.32 0.43
-18.13 131.99 30.45 -0.61 -0.74 -0.28 0.45
-13.93 128.88 25.97 -0.79 0.38 -0.48 0.01
-16.19 128.58 31.09 -0.93 -0.22 -0.28 0.20
-15.02 133.71 26.07 -0.42 -0.59 -0.69 -0.59
-13.22 132.77 25.31 -0.69 -0.45 -0.56 -0.60
-14.68 127.53 25.91 -0.80 0.11 -0.59 -0.64
-17.80 134.46 26.90 -0.75 0.09 -0.66 0.58
-18.78 132.97 28.95 -0.71 -0.60 -0.37 -0.27
-18.53 134.08 28.00 -0.67 0.04 -0.74 0.42
-17.11 129.37 31.84 -0.88 -0.48 0.02 0.08
-16.21 134.43 25.91 -0.51 -0.49 -0.71 -0.13
-17.49 130.32 32.14 -0.90 -0.39 0.20 0.27
-15.76 126.28 26.97 -0.62 -0.47 -0.63 -1.34
-12.62 131.50 24.95 -0.87 -0.14 -0.48 -0.24
-18.52 131.90 31.47 -0.83 -0.56 -0.01 0.38
-13.14 129.03 24.37 -0.75 0.53 -0.40 -0.88
-16.35 126.53 28.54 -0.96 -0.29 -0.02 -1.82
-14.44 133.94 24.91 -0.55 -0.77 -0.32 -0.67
-12.20 130.14 24.33 -0.96 0.16 -0.23 -0.08
-17.79 131.47 32.83 -0.83 -0.30 0.47 0.80
-14.45 127.47 24.98 -0.92 0.24 -0.32 -0.56
-16.40 128.44 32.58 -0.93 -0.30 0.21 -0.04
-15.87 126.87 31.10 -0.96 -0.27 0.10 -0.24
-12.42 131.12 24.06 -0.98 -0.19 -0.01 0.02
-16.93 135.47 26.70 -0.93 0.31 -0.22 0.26
-12.73 132.84 23.98 -0.84 -0.49 -0.25 0.05
-13.99 125.95 26.10 -0.66 -0.67 -0.35 -0.98
-16.82 130.77 33.40 -0.65 -0.34 0.68 0.51
-18.64 135.59 28.60 -0.36 0.71 -0.60 0.78
-19.63 134.83 28.90 -0.90 0.19 -0.39 0.39
-13.72 128.08 23.84 -0.75 0.33 -0.57 -1.48
-19.60 133.90 30.14 -0.98 -0.02 0.19 0.38
-16.41 135.20 24.82 -0.78 -0.61 -0.15 -0.49
-14.51 125.48 27.03 -0.33 -0.75 -0.57 -1.07
-12.38 129.60 23.56 -0.96 0.27 -0.05 -0.11
-17.38 135.61 28.46 -0.22 0.96 -0.19 0.32
-18.54 133.73 32.06 -0.74 0.30 0.60 0.63
-15.21 124.87 28.12 -0.55 -0.70 -0.46 -0.28
-13.94 126.49 24.12 -0.88 -0.28 -0.39 -0.94
-12.94 127.57 22.99 -0.79 0.11 -0.60 -0.59
-12.50 130.78 22.92 -0.99 -0.06 0.10 -0.26
-15.98 125.48 30.27 -0.82 -0.44 0.36 -0.15
-14.55 134.34 23.04 -0.45 -0.84 -0.29 -0.45
-15.53 129.50 33.83 -0.62 -0.21 0.76 0.15
-15.78 127.23 33.44 -0.73 -0.31 0.61 -1.06
-18.69 135.78 29.80 -0.45 0.88 0.13 0.29
-16.83 136.09 25.80 -0.98 0.00 0.19 -0.02
-12.66 133.21 22.82 -0.95 -0.24 -0.18 0.22
-15.61 134.91 23.43 -0.55 -0.82 -0.17 -0.68
-17.04 133.09 33.59 -0.46 0.24 0.85 0.83
-13.61 125.62 25.06 -0.81 -0.59 -0.05 -0.30
-14.66 125.61 31.87 -0.51 -0.75 0.43 -0.68
-16.46 136.74 27.54 -0.80 0.48 0.35 0.23
-15.49 126.19 32.88 -0.65 -0.70 0.30 -1.38
-16.26 135.73 28.68 -0.38 0.72 0.58 0.10
-15.25 124.38 29.56 -0.66 -0.74 0.13 0.01
-18.89 135.11 30.95 -0.47 0.66 0.59 0.78
-13.24 133.95 23.06 -0.52 -0.80 -0.30 -0.14
-15.40 130.72 34.39 -0.20 -0.13 0.97 0.13
-16.65 135.70 23.40 -0.67 -0.74 -0.05 -0.64
-16.05 132.04 34.49 -0.30 0.20 0.93 0.19
-13.55 124.57 27.89 -0.37 -0.72 -0.59 0.17
-12.64 129.26 22.09 -0.99 -0.10 0.01 -0.19
-12.67 124.84 25.58 -0.50 -0.87 0.03 0.23
-17.25 134.42 32.64 -0.35 0.79 0.51 0.27
-17.35 136.97 25.29 -0.92 -0.03 0.39 0.54
-15.09 125.22 31.03 -0.51 -0.68 0.52 -0.09
-13.17 125.49 23.43 -0.69 -0.44 -0.58 -0.15
-14.35 123.82 29.05 -0.33 -0.94 -0.07 0.18
-17.34 135.65 30.46 0.13 0.93 0.35 -0.31
-12.36 132.92 21.75 -0.99 -0.08 -0.07 -0.02
-12.37 126.05 22.56 -0.34 -0.45 -0.83 0.01
-16.18 134.11 33.30 0.13 0.77 0.62 0.40
-12.35 124.60 27.09 -0.58 -0.70 -0.43 0.81
-15.56 137.45 27.26 -0.36 0.78 0.51 0.19
-14.66 127.96 34.13 -0.20 -0.23 0.95 -0.61
-16.59 134.71 31.51 0.06 0.90 0.44 0.48
-17.62 137.16 24.05 -0.86 0.01 0.52 0.49
-15.20 135.79 28.78 -0.39 0.67 0.63 0.09
-12.74 133.81 21.66 -0.80 -0.60 -0.09 0.31
-14.59 134.71 21.54 -0.47 -0.87 -0.12 -0.11
-13.38 125.25 32.43 0.18 -0.74 0.64 -0.07
-16.02 135.47 22.21 -0.53 -0.82 -0.20 -0.48
-15.79 135.10 30.30 0.01 0.92 0.39 0.21
-12.61 131.97 21.66 -0.99 0.11 0.04 -0.44
-13.95 129.46 34.66 -0.07 -0.08 0.99 0.00
-16.34 137.80 25.79 -0.49 0.78 0.40 0.28
-11.51 127.27 21.59 0.08 -0.74 -0.67 0.20
-12.85 124.51 24.28 -0.42 -0.89 -0.17 0.07
-15.18 133.29 33.53 0.15 0.68 0.71 0.76
-14.00 126.08 33.63 -0.10 -0.63 0.77 -0.81
-13.67 134.33 21.83 -0.44 -0.89 -0.11 0.12
-14.13 124.48 30.73 -0.31 -0.82 0.49 0.21
-14.68 132.55 34.25 0.13 0.44 0.89 0.17
-11.70 124.25 26.11 -0.48 -0.74 -0.46 0.50
-13.92 131.33 34.07 0.12 0.10 0.99 0.09
-11.92 125.02 23.31 0.04 -0.76 -0.64 0.04
-12.94 124.63 31.48 -0.02 -0.75 0.66 0.38
-11.21 124.63 24.67 0.04 -0.96 -0.28 0.14
-13.01 123.56 29.19 -0.63 -0.77 -0.06 1.58
-12.51 133.13 20.70 -0.99 -0.11 0.08 -0.11
-15.28 134.06 32.42 0.25 0.86 0.44 0.93
-12.80 130.71 20.96 -1.00 0.05 0.04 -0.46
-15.53 135.50 21.29 -0.49 -0.87 -0.01 -0.46
-12.69 131.78 20.59 -0.99 0.12 0.00 -0.43
-14.34 136.63 29.07 -0.70 0.55 0.45 0.03
-14.46 137.60 27.72 -0.65 0.62 0.44 -0.15
-14.53 138.01 26.75 -0.57 0.78 0.27 -0.18
-12.08 127.99 20.45 -0.60 -0.77 -0.23 0.73
-15.25 137.91 25.85 -0.48 0.84 0.24 -0.32
-12.77 129.56 20.07 -0.96 -0.26 -0.14 -0.42
-14.77 135.62 29.94 -0.64 0.62 0.46 0.07
-12.29 126.09 32.35 0.58 -0.40 0.71 0.10
-12.91 134.10 20.45 -0.67 -0.74 0.10 0.29
-17.99 136.77 22.26 -0.37 -0.91 0.19 -0.16
-13.19 127.54 33.77 0.42 -0.42 0.80 -0.47
-12.16 123.14 27.54 -0.77 -0.41 -0.49 0.54
-10.48 128.04 21.91 0.55 -0.83 -0.03 0.26
-10.71 125.76 23.09 0.38 -0.42 -0.83 0.15
-16.73 136.13 21.33 -0.43 -0.89 0.12 -0.89
-13.07 124.11 30.48 -0.37 -0.77 0.52 0.80
-15.07 135.17 20.35 -0.38 -0.89 0.25 -0.28
-14.66 134.57 31.27 -0.09 0.77 0.63 0.20
-14.20 133.57 32.71 -0.01 0.85 0.53 0.27
-13.06 130.98 33.97 -0.17 0.24 0.96 -0.10
-18.87 137.31 23.17 -0.10 -0.51 0.85 -0.19
-16.23 138.68 24.24 -0.38 0.71 0.60 -0.08
-10.48 124.54 25.30 -0.09 -0.80 -0.59 0.04
-12.30 129.98 34.84 -0.36 -0.09 0.93 -1.09
-13.53 132.98 33.85 -0.30 0.41 0.86 -0.36
-11.00 123.22 26.36 -0.34 -0.42 -0.84 0.41
-18.16 138.71 22.84 -0.18 0.32 0.93 -0.21
-12.53 132.76 19.59 -0.99 -0.09 0.07 -0.22
-10.11 128.07 20.62 0.14 -0.99 -0.01 0.51
-12.25 128.34 33.85 0.12 -0.69 0.72 -0.19
-17.33 139.26 23.05 -0.36 0.41 0.84 -0.77
-14.21 138.77 26.20 -0.89 0.41 0.20 -0.04
-14.64 138.60 24.67 -0.25 0.89 0.38 -0.65
-12.24 122.57 28.70 -0.90 -0.42 -0.12 0.71
-11.56 124.04 31.09 -0.10 -0.24 0.97 0.52
-16.32 135.57 20.54 -0.24 -0.82 0.52 -1.88
-10.04 126.95 23.26 0.56 -0.34 -0.76 0.10
-12.66 131.71 19.39 -1.00 0.09 0.02 -0.39
-14.34 134.61 19.31 -0.19 -0.86 0.47 0.37
-9.72 128.38 22.60 0.42 -0.73 -0.54 -0.08
-12.42 129.50 18.90 -0.81 -0.53 -0.24 -0.01
-14.01 138.92 27.26 -0.92 0.27 0.29 0.06
-12.40 132.03 34.18 -0.48 -0.06 0.87 -0.62
-11.30 127.97 19.35 -0.27 -0.88 -0.39 1.33
-17.50 136.19 20.75 -0.19 -0.84 0.51 -0.46
-13.65 138.08 28.64 -0.84 0.36 0.40 -0.00
-11.14 125.70 31.44 0.44 -0.21 0.87 0.81
-11.48 126.92 31.67 0.60 -0.23 0.77 0.17
-15.79 134.88 19.74 0.10 -0.71 0.70 -0.25
-12.13 123.01 30.67 -0.80 -0.25 0.55 0.49
-18.96 136.42 21.47 0.14 -0.95 0.29 -0.10
-13.45 137.77 29.66 -0.79 0.59 0.15 -0.03
-11.56 121.98 27.01 -0.64 -0.41 -0.65 0.27
-13.83 134.00 31.81 -0.44 0.67 0.61 -0.15
-19.64 138.30 23.14 0.12 0.17 0.98 -0.75
-9.43 125.49 23.79 0.40 -0.60 -0.70 0.16
-13.26 133.86 33.12 -0.59 0.68 0.44 -1.13
-13.64 135.06 31.47 -0.68 0.19 0.71 -0.23
-9.19 128.68 21.63 -0.01 -0.99 0.11 0.33
-14.19 139.08 25.12 -0.85 0.51 -0.11 -0.07
-14.15 137.13 30.85 -0.86 0.42 0.31 0.31
-11.52 128.56 34.42 -0.03 -0.79 0.61 -0.80
-12.70 133.47 34.38 -0.75 0.21 0.62 -1.64
-9.85 128.21 19.51 -0.01 -0.94 -0.34 0.48
-9.59 123.35 26.26 0.09 -0.58 -0.81 0.40
-19.81 136.24 22.44 0.34 -0.80 0.49 -1.24
-15.93 139.69 23.22 -0.01 0.62 0.79 -0.92
-8.73 124.60 25.09 0.36 -0.60 -0.71 -0.64
-10.76 129.43 35.03 0.29 -0.38 0.88 -0.82
3 187 149 155
3 155 149 106
3 106 149 145
3 168 188 150
3 168 150 116
3 116 150 114
3 116 114 79
3 150 188 182
3 150 182 144
3 144 114 150
3 144 110 114
3 118 172 133
3 133 172 173
3 136 106 96
3 106 64 96
3 79 64 106
3 145 116 106
3 79 106 116
3 79 48 64
3 81 70 48
3 48 70 40
3 70 81 110
3 110 93 70
3 93 110 122
3 85 97 57
3 57 97 77
3 77 97 90
3 75 126 95
3 175 120 159
3 175 160 141
3 160 118 141
3 141 118 113
3 72 113 118
3 74 72 111
3 102 111 72
3 111 102 136
3 133 136 102
3 72 74 43
3 87 72 62
3 43 62 72
3 65 42 43
3 96 64 65
3 42 65 64
3 20 30 32
3 32 40 20
3 32 30 48
3 48 40 32
3 30 20 7
3 20 35 8
3 8 35 21
3 21 35 28
3 28 35 52
3 52 35 57
3 35 40 57
3 66 90 56
3 75 73 45
3 75 45 56
3 56 45 27
3 67 73 107
3 86 67 107
3 107 73 95
3 167 127 171
3 127 167 128
3 127 128 95
3 181 193 119
3 190 151 148
3 84 119 115
3 151 137 115
3 82 137 120
3 137 159 120
3 82 120 89
3 120 141 89
3 82 58 54
3 62 43 37
3 37 43 18
3 33 13 26
3 41 26 36
3 3 5 0
3 5 18 14
3 7 14 23
3 8 2 7
3 2 8 6
3 2 6 0
3 0 6 4
3 6 12 9
3 6 9 4
3 31 27 45
3 31 45 53
3 86 98 53
3 156 147 192
3 107 158 147
3 128 107 95
3 108 162 139
3 119 117 181
3 139 181 117
3 71 84 47
3 47 84 94
3 94 54 47
3 94 82 54
3 54 33 47
3 47 33 26
3 47 26 59
3 59 26 41
3 59 51 60
3 36 60 51
3 36 55 60
3 83 60 55
3 61 83 55
3 17 36 22
3 17 3 11
3 11 4 16
3 25 16 38
3 38 31 53
3 69 53 80
3 80 135 103
3 135 146 176
3 146 191 176
3 154 108 129
3 83 123 131
3 123 83 105
3 105 83 61
3 44 46 61
3 44 34 46
3 17 11 34
3 25 38 46
3 38 63 46
3 46 63 78
3 69 103 63
3 63 103 101
3 124 103 140
3 140 161 124
3 153 163 125
3 163 123 125
3 125 105 121
3 68 105 61
3 101 112 78
3 121 134 153
3 134 101 164
3 164 101 142
3 92 139 117
3 56 27 29
3 56 29 49
3 27 15 29
3 106 136 155
3 145 149 168
3 145 168 116
3 179 144 182
3 122 144 143
3 143 144 179
3 143 179 183
3 118 160 172
3 122 110 144
3 104 90 97
3 104 143 132
3 132 143 183
3 132 183 186
3 143 104 122
3 122 104 97
3 132 99 104
3 104 99 75
3 75 99 126
3 126 99 132
3 186 126 132
3 127 95 126
3 171 127 126
3 171 126 177
3 177 126 186
3 141 120 175
3 87 113 72
3 23 43 42
3 23 42 30
3 14 18 23
3 43 23 18
3 20 8 7
3 75 56 104
3 104 56 90
3 45 73 67
3 157 128 167
3 148 119 193
3 148 193 190
3 148 115 119
3 115 148 151
3 84 115 94
3 94 115 137
3 82 94 137
3 22 10 17
3 10 22 26
3 10 26 13
3 26 22 36
3 5 10 13
3 10 5 3
3 10 3 17
3 1 5 14
3 7 1 14
3 5 1 0
3 1 2 0
3 2 1 7
3 15 6 8
3 24 9 31
3 31 9 12
3 27 31 12
3 67 53 45
3 86 53 67
3 98 146 135
3 180 146 152
3 152 146 98
3 147 156 98
3 98 156 152
3 128 130 107
3 130 128 157
3 107 130 158
3 158 130 185
3 185 130 157
3 47 59 71
3 108 60 83
3 61 55 39
3 61 39 44
3 39 55 36
3 34 44 39
3 34 39 17
3 36 17 39
3 25 11 16
3 24 38 16
3 24 16 9
3 9 16 4
3 38 24 31
3 135 80 98
3 140 103 135
3 161 140 170
3 170 140 135
3 170 135 176
3 147 158 192
3 138 154 184
3 138 184 165
3 108 138 165
3 162 108 165
3 154 138 108
3 83 129 108
3 131 129 83
3 125 123 105
3 46 34 25
3 25 34 11
3 124 101 103
3 101 124 142
3 142 124 161
3 142 161 174
3 142 174 164
3 131 166 169
3 134 121 100
3 100 112 134
3 100 121 91
3 91 121 105
3 68 100 91
3 68 91 105
3 68 46 78
3 78 112 100
3 78 100 68
3 194 149 187
3 81 79 114
3 114 110 81
3 81 48 79
3 93 85 70
3 93 122 97
3 93 97 85
3 70 85 57
3 102 118 133
3 118 102 72
3 136 96 111
3 74 111 65
3 96 65 111
3 43 74 65
3 64 30 42
3 64 48 30
3 20 40 35
3 70 57 40
3 77 52 57
3 77 90 66
3 95 73 75
3 137 178 159
3 178 137 151
3 89 76 58
3 58 82 89
3 89 141 113
3 89 113 76
3 87 76 113
3 76 87 62
3 76 62 37
3 76 37 58
3 19 37 18
3 19 18 5
3 19 5 13
3 19 13 33
3 19 33 37
3 30 7 23
3 28 29 15
3 21 28 8
3 15 8 28
3 12 6 15
3 27 12 15
3 49 50 66
3 49 66 56
3 49 29 50
3 50 29 28
3 50 28 52
3 50 52 66
3 77 66 52
3 98 86 107
3 147 98 107
3 88 109 71
3 109 88 117
3 84 109 119
3 109 84 71
3 119 109 117
3 58 37 33
3 58 33 54
3 36 51 41
3 41 51 59
3 0 4 3
3 3 4 11
3 69 38 53
3 98 80 53
3 146 180 191
3 92 60 108
3 139 92 108
3 117 88 92
3 92 88 60
3 88 59 60
3 59 88 71
3 38 69 63
3 80 103 69
3 169 129 131
3 154 129 169
3 154 169 189
3 163 131 123
3 125 121 153
3 61 46 68
3 63 101 78
3 112 101 134
