ply
format ascii 1.0
comment Generated by MaSIF
element vertex 200
property float x
property float y
property float z
property float nx
property float ny
property float nz
property float pb
element face 8
property list uchar int vertex_indices
end_header
-13.83 129.55 27.28 -0.69 0.45 -0.56 -0.03
-14.08 130.28 27.95 -0.59 0.24 -0.77 -1.03
-13.08 130.02 26.58 -0.76 0.20 -0.62 -0.16
-15.00 128.67 27.79 -0.81 0.19 -0.56 -0.63
-13.35 128.80 25.73 -0.59 0.59 -0.55 -0.93
-15.04 131.07 28.84 -0.77 0.49 -0.40 -1.51
-14.97 128.19 26.96 -0.83 0.43 -0.36 -0.42
-13.81 131.64 27.40 -0.80 -0.15 -0.59 -1.74
-15.63 129.94 28.19 -0.54 0.22 -0.81 -1.78
-14.30 128.02 25.65 -0.69 0.37 -0.63 -1.60
-14.85 127.12 28.58 -0.87 -0.49 -0.05 -1.02
-12.11 129.37 25.22 -0.87 0.42 -0.24 -0.07
-12.60 128.70 24.74 -0.81 0.57 -0.13 -0.10
-11.92 130.91 25.25 -0.93 0.04 -0.35 -0.23
-12.73 132.08 26.17 -0.71 -0.20 -0.67 -1.49
-16.23 128.42 29.30 -0.86 -0.33 -0.38 -1.35
-14.99 126.85 26.56 -0.97 -0.05 -0.22 -0.85
-13.90 126.98 25.05 -0.80 0.18 -0.57 -0.59
-16.55 129.95 29.15 -0.90 0.36 -0.24 -2.00
-14.21 132.75 26.90 -0.75 -0.36 -0.55 -1.93
-14.37 132.44 28.56 -0.99 -0.09 -0.09 -1.51
-12.03 130.20 24.58 -0.97 0.23 0.09 0.04
-14.81 126.33 27.75 -0.95 -0.21 0.22 -0.28
-15.41 130.97 30.73 -0.83 0.56 -0.01 -0.96
-12.42 129.53 23.69 -0.91 0.39 0.16 -0.24
-13.22 127.98 23.54 -0.95 0.29 0.08 -0.14
-12.93 133.30 25.87 -0.70 -0.42 -0.57 -1.05
-14.23 132.89 29.61 -0.99 0.02 -0.10 -0.43
-11.99 132.35 25.08 -0.90 -0.31 -0.31 -0.56
-14.11 125.49 28.52 -0.75 -0.54 0.39 0.23
-14.86 131.80 31.09 -0.92 0.31 -0.25 0.01
-16.40 129.41 30.66 -0.99 0.11 0.13 -1.65
-16.00 127.54 30.69 -0.83 -0.54 -0.11 -0.41
-11.75 131.76 23.82 -1.00 -0.07 -0.01 0.05
-14.74 125.46 26.30 -0.89 -0.32 -0.33 -0.14
-13.97 125.32 25.26 -0.61 -0.55 -0.56 0.02
-14.15 133.92 26.42 -0.59 -0.53 -0.61 0.27
-14.51 133.57 28.83 -0.89 -0.46 0.07 -0.37
-14.59 126.44 30.76 -0.70 -0.68 -0.23 0.21
-13.63 125.73 29.99 -0.88 -0.47 -0.08 0.81
-14.82 133.73 27.67 -0.84 -0.52 -0.15 -0.41
-12.94 125.68 23.86 -0.30 -0.90 -0.31 0.21
-14.62 124.81 27.46 -0.72 -0.66 0.22 0.08
-13.20 134.11 25.47 -0.73 -0.61 -0.31 -0.56
-12.16 130.50 23.02 -0.95 0.31 0.08 0.03
-12.34 133.01 24.28 -0.83 -0.56 -0.02 -0.61
-15.10 132.02 32.15 -0.99 0.07 -0.14 0.23
-14.77 133.70 30.40 -0.88 -0.39 -0.27 0.68
-13.31 124.82 29.21 -0.78 -0.61 -0.11 0.46
-13.76 124.54 26.35 -0.33 -0.90 -0.28 0.05
-11.77 131.61 22.61 -0.99 0.10 -0.04 0.21
-12.36 130.11 22.05 -0.88 0.47 0.03 -0.45
-12.99 124.43 27.73 -0.34 -0.93 0.13 0.15
-15.06 134.51 26.53 -0.70 -0.54 -0.47 0.20
-15.38 130.45 32.84 -0.96 0.18 0.23 -0.20
-13.08 128.86 21.93 -0.90 0.43 0.05 -0.54
-15.93 127.53 32.42 -0.84 -0.33 0.43 0.02
-12.02 132.55 22.56 -0.82 -0.56 0.12 -0.14
-13.43 126.09 22.53 -0.85 -0.51 0.12 0.79
-13.60 127.55 21.58 -1.00 0.09 0.01 -0.44
-15.38 126.53 32.15 -0.64 -0.70 0.32 0.20
-11.67 126.05 23.80 0.22 -0.93 0.29 0.28
-12.44 124.63 25.81 0.06 -0.80 -0.60 0.17
-16.11 129.01 32.65 -0.84 0.07 0.54 -0.12
-15.76 134.99 27.62 -0.87 -0.44 -0.24 -0.36
-15.44 134.52 29.68 -0.82 -0.57 -0.02 0.10
-13.86 124.57 30.98 -0.94 -0.23 -0.26 0.47
-14.20 125.85 32.35 -0.86 -0.44 0.28 1.51
-14.08 135.12 25.06 -0.77 -0.48 -0.43 -0.11
-13.09 133.94 24.03 -0.79 -0.61 0.10 -0.65
-11.78 130.86 21.75 -0.96 0.29 -0.00 -0.04
-15.08 132.52 33.58 -0.92 0.18 0.35 0.01
-15.51 134.25 31.33 -0.96 -0.28 -0.05 0.55
-12.68 129.60 21.16 -0.88 0.48 -0.02 -0.46
-15.56 133.32 32.55 -0.97 -0.07 0.24 0.11
-12.23 124.31 28.32 -0.46 -0.86 -0.21 0.05
-12.98 123.77 29.84 -0.61 -0.53 -0.59 0.40
-11.54 125.46 22.60 -0.21 -0.90 0.39 0.52
-11.85 131.73 21.31 -0.95 -0.23 0.18 0.26
-11.39 125.44 25.46 0.27 -0.77 -0.57 0.14
-10.73 126.30 24.27 0.04 -0.98 -0.21 -0.09
-12.04 130.71 20.71 -0.94 0.31 0.15 -0.12
-13.51 126.94 20.52 -0.97 -0.23 0.02 0.04
-15.36 136.11 26.00 -0.78 0.13 -0.61 0.44
-12.91 125.37 21.52 -0.61 -0.79 0.01 1.34
-15.24 128.72 33.42 -0.61 -0.20 0.77 -0.08
-13.09 133.37 22.44 -0.74 -0.65 0.17 -0.44
-12.50 132.58 21.29 -0.72 -0.63 0.27 0.11
-14.65 127.62 33.42 -0.47 -0.40 0.78 0.23
-15.87 135.42 30.25 -0.87 -0.50 0.06 0.45
-14.55 129.19 34.02 -0.64 -0.29 0.71 -0.66
-13.91 124.54 32.27 -0.99 -0.05 0.09 0.76
-11.22 124.16 26.52 0.04 -0.91 -0.41 0.17
-13.84 126.81 33.30 -0.51 -0.33 0.80 0.87
-14.94 130.37 34.73 -0.78 -0.24 0.57 -1.27
-14.26 136.57 25.38 -0.79 0.54 -0.29 0.31
-13.79 123.16 30.94 -0.85 -0.34 -0.41 0.29
-16.40 135.96 28.50 -0.93 -0.37 -0.08 -0.18
-15.97 136.47 27.18 -0.74 0.02 -0.67 0.42
-12.89 129.08 20.08 -0.89 0.46 0.02 -0.39
-15.53 134.37 32.45 -0.93 0.08 0.37 0.33
-10.31 126.00 23.25 -0.32 -0.80 0.50 0.34
-14.21 135.46 23.76 -0.95 -0.27 0.14 -0.45
-11.46 125.09 21.52 -0.39 -0.92 0.07 0.48
-14.76 131.57 34.83 -0.67 0.24 0.71 -0.71
-13.30 125.58 33.89 -0.72 0.29 0.63 0.46
-11.65 123.30 29.65 -0.25 -0.82 -0.51 0.48
-13.27 133.16 20.89 -0.75 -0.61 0.25 -0.11
-10.64 123.61 28.04 -0.00 -0.91 -0.42 -0.61
-12.38 130.00 19.84 -0.94 0.32 0.13 -0.32
-12.13 131.60 20.10 -0.85 -0.34 0.41 0.29
-10.34 125.31 25.82 0.10 -0.81 -0.58 -0.03
-13.81 134.41 22.57 -0.82 -0.54 0.19 -0.70
-12.14 122.50 30.40 -0.22 -0.75 -0.62 0.41
-16.07 135.87 31.23 -0.96 -0.17 0.24 0.37
-13.69 133.54 34.27 -0.51 0.33 0.80 0.18
-12.88 125.65 20.38 -0.67 -0.74 0.01 0.36
-15.29 135.72 32.63 -0.79 0.23 0.57 0.75
-13.58 126.52 19.32 -0.96 -0.28 -0.09 0.30
-10.33 124.66 22.44 -0.69 -0.34 0.64 1.18
-9.52 125.84 24.61 -0.47 -0.87 -0.14 0.15
-10.72 124.55 21.38 -0.73 -0.68 0.10 0.97
-13.87 124.33 33.39 -0.97 0.21 0.12 0.67
-14.53 134.96 33.40 -0.59 0.21 0.78 0.52
-13.36 127.56 34.00 -0.15 -0.39 0.91 0.35
-13.39 128.59 34.64 0.03 -0.47 0.88 -0.04
-13.71 122.52 31.84 -0.86 -0.33 -0.39 0.67
-13.47 128.19 18.79 -0.96 0.19 -0.21 -0.04
-14.11 136.72 24.30 -0.87 0.45 0.20 -0.00
-14.30 137.49 26.94 0.09 0.83 -0.55 0.35
-13.47 129.98 35.41 -0.16 -0.21 0.96 -0.93
-13.24 137.77 25.62 -0.51 0.84 0.15 0.22
-15.45 138.00 27.12 -0.20 0.53 -0.83 0.70
-12.36 126.39 33.85 0.00 0.18 0.98 0.53
-16.57 137.85 27.73 -0.84 0.37 -0.41 0.45
-16.63 137.50 29.24 -0.88 0.43 0.21 0.47
-11.57 125.36 20.02 -0.39 -0.91 -0.15 0.38
-9.37 125.02 23.18 -0.66 -0.27 0.70 0.65
-12.17 125.38 34.54 -0.00 0.67 0.75 0.52
-12.98 129.14 18.52 -0.99 0.12 0.08 -0.22
-9.46 125.39 25.57 -0.39 -0.85 -0.37 -0.00
-14.23 134.59 21.25 -0.81 -0.57 0.16 -0.48
-13.35 132.01 35.14 -0.09 0.23 0.97 -0.53
-13.92 134.10 20.38 -0.75 -0.56 0.36 -0.46
-9.90 123.06 28.98 0.23 -0.94 -0.26 -1.11
-9.79 124.38 27.42 0.01 -0.87 -0.49 -0.31
-14.51 135.46 22.26 -0.88 -0.39 0.27 -0.70
-13.19 137.25 27.06 0.00 0.97 0.25 0.12
-13.12 124.71 34.94 -0.58 0.59 0.56 0.53
-12.95 125.51 18.95 -0.49 -0.83 -0.25 0.42
-12.56 122.02 31.47 -0.23 -0.67 -0.71 1.03
-13.78 133.29 19.64 -0.60 -0.52 0.60 -0.26
-10.18 122.83 30.44 0.60 -0.79 -0.13 0.07
-12.64 130.33 18.54 -0.83 -0.10 0.55 0.07
-13.06 134.74 34.28 -0.05 0.32 0.95 0.17
-14.08 123.24 33.16 -0.99 0.12 -0.07 0.97
-14.39 137.50 23.50 -0.79 0.47 0.40 0.76
-8.97 124.83 26.31 -0.38 -0.87 -0.32 0.06
-13.03 126.78 17.92 -0.69 -0.46 -0.56 0.36
-8.74 124.96 23.99 -0.81 -0.43 0.41 0.45
-13.73 123.54 34.45 -0.92 0.27 0.27 1.17
-8.70 123.96 28.52 0.75 -0.65 -0.11 -0.57
-10.81 121.90 31.48 0.48 -0.72 -0.50 0.45
-15.36 137.65 31.03 -0.47 0.76 0.45 0.93
-10.31 124.16 20.04 -0.74 -0.60 -0.31 1.13
-12.11 128.87 34.19 0.53 -0.30 0.79 0.13
-12.09 133.21 34.99 0.09 0.32 0.94 0.03
-10.09 123.20 22.85 -0.87 -0.06 0.49 0.84
-15.22 138.63 28.14 -0.10 0.97 -0.22 0.36
-10.22 123.22 21.32 -0.96 -0.25 -0.13 1.00
-12.22 137.93 25.05 0.03 0.99 0.16 0.21
-13.92 137.08 32.65 -0.19 0.69 0.69 0.77
-14.80 137.30 22.30 -0.69 0.52 0.49 0.41
-13.49 132.17 18.89 -0.39 -0.49 0.78 0.31
-13.90 121.37 32.76 -0.82 -0.36 -0.45 0.72
-13.19 136.14 33.86 -0.04 0.62 0.78 0.23
-13.09 137.99 23.59 -0.12 0.99 0.06 0.24
-11.03 126.38 33.25 0.48 0.38 0.79 0.28
-9.14 123.43 23.54 -0.64 -0.08 0.76 0.55
-15.43 138.54 29.47 -0.11 0.95 0.29 0.82
-12.18 136.93 27.09 -0.01 0.95 0.31 0.12
-8.96 123.82 29.77 0.84 -0.48 0.24 -1.25
-11.35 127.77 33.48 0.49 -0.03 0.87 0.78
-14.77 134.18 19.69 -0.41 -0.42 0.81 -1.83
-10.66 125.10 34.38 0.56 0.52 0.65 0.41
-11.30 125.49 18.52 -0.28 -0.87 -0.40 0.45
-12.20 130.96 34.93 0.39 -0.23 0.89 -0.40
-14.82 135.10 20.20 -0.68 -0.55 0.49 -0.80
-8.16 124.36 25.06 -0.78 -0.60 0.18 -0.13
-14.66 133.10 19.22 -0.02 -0.39 0.92 -0.27
-11.87 124.32 35.62 0.22 0.68 0.70 1.17
-13.90 138.24 28.76 0.50 0.87 -0.06 -0.21
-13.67 130.84 18.13 -0.42 -0.66 0.62 0.69
-13.71 129.94 17.46 -0.79 -0.43 0.44 0.31
-10.23 124.85 18.99 -0.55 -0.70 -0.47 1.45
-13.02 123.91 36.14 -0.58 0.65 0.49 1.10
-12.33 127.08 16.92 -0.88 -0.29 -0.38 0.52
-9.26 124.31 30.70 0.90 -0.26 0.34 -0.40
-7.95 124.11 27.60 0.36 -0.74 0.57 -0.01
-14.17 122.28 34.29 -1.00 0.08 0.01 0.67
3 74 70 157
3 99 22 103
3 22 116 103
3 127 105 106
3 5 148 175
3 145 187 73
3 149 114 15
3 155 94 109
