ply
format ascii 1.0
comment Generated by MaSIF
element vertex 200
property float x
property float y
property float z
property float nx
property float ny
property float nz
property float charge
element face 342
property list uchar int vertex_indices
end_header
-12.36 129.02 24.89 -0.88 0.45 -0.14 -0.07
-12.91 128.38 24.42 -0.80 0.59 -0.03 -0.10
-12.32 129.87 24.29 -0.95 0.24 0.18 0.04
-13.57 128.44 25.47 -0.62 0.63 -0.47 -0.93
-12.14 130.55 24.98 -0.96 0.07 -0.27 -0.23
-12.80 129.26 23.40 -0.88 0.39 0.25 -0.24
-13.20 129.61 26.36 -0.80 0.25 -0.54 -0.16
-13.64 127.74 23.25 -0.94 0.31 0.17 -0.14
-12.57 130.26 22.76 -0.93 0.32 0.17 0.03
-14.54 127.68 25.44 -0.73 0.41 -0.55 -1.60
-12.07 131.47 23.59 -1.00 -0.05 0.07 0.05
-13.91 129.12 27.10 -0.73 0.49 -0.48 -0.03
-14.22 126.67 24.75 -0.84 0.22 -0.49 -0.59
-12.19 132.00 24.89 -0.93 -0.28 -0.25 -0.56
-12.86 129.93 21.80 -0.87 0.48 0.12 -0.45
-12.84 131.68 26.02 -0.77 -0.15 -0.62 -1.49
-15.10 127.80 26.81 -0.84 0.47 -0.27 -0.42
-14.08 129.81 27.82 -0.65 0.29 -0.70 -1.03
-13.83 131.20 27.32 -0.84 -0.10 -0.53 -1.74
-12.20 131.38 22.38 -0.99 0.12 0.05 0.21
-15.04 128.23 27.66 -0.85 0.23 -0.48 -0.63
-15.18 126.48 26.34 -0.99 -0.02 -0.14 -0.85
-13.62 128.70 21.67 -0.88 0.45 0.15 -0.54
-12.59 132.71 24.16 -0.84 -0.55 0.02 -0.61
-12.29 130.68 21.48 -0.95 0.31 0.09 -0.04
-13.26 129.47 20.91 -0.86 0.50 0.08 -0.46
-13.97 125.90 22.16 -0.85 -0.50 0.16 0.79
-14.20 127.42 21.30 -0.99 0.11 0.10 -0.44
-12.42 132.33 22.40 -0.82 -0.55 0.16 -0.14
-13.38 125.42 23.41 -0.34 -0.88 -0.33 0.21
-14.31 125.00 24.88 -0.67 -0.51 -0.54 0.02
-13.04 132.92 25.81 -0.76 -0.38 -0.53 -1.05
-12.64 130.59 20.46 -0.92 0.32 0.24 -0.12
-14.94 130.57 28.82 -0.79 0.53 -0.31 -1.51
-14.98 125.10 25.99 -0.92 -0.28 -0.27 -0.14
-14.24 132.34 26.91 -0.80 -0.32 -0.50 -1.93
-15.61 129.50 28.17 -0.60 0.27 -0.75 -1.78
-14.27 131.95 28.56 -1.00 -0.07 -0.01 -1.51
-12.38 131.57 21.10 -0.94 -0.23 0.25 0.26
-14.91 125.90 27.48 -0.94 -0.21 0.29 -0.28
-13.33 133.66 24.02 -0.79 -0.60 0.13 -0.65
-13.58 129.02 19.83 -0.87 0.48 0.11 -0.39
-14.86 126.64 28.35 -0.88 -0.47 -0.00 -1.02
-14.20 126.86 20.21 -0.97 -0.21 0.10 0.04
-13.56 125.23 21.07 -0.63 -0.78 0.02 1.34
-13.32 133.75 25.47 -0.77 -0.58 -0.28 -0.56
-12.11 125.77 23.27 0.23 -0.95 0.22 0.28
-14.03 124.17 25.90 -0.38 -0.88 -0.30 0.05
-13.07 129.94 19.59 -0.91 0.33 0.23 -0.32
-13.49 133.18 22.41 -0.74 -0.64 0.20 -0.44
-13.01 132.44 21.17 -0.71 -0.63 0.30 0.11
-16.15 127.93 29.25 -0.90 -0.30 -0.33 -1.35
-12.76 131.51 19.91 -0.82 -0.34 0.47 0.29
-12.75 124.26 25.26 -0.01 -0.77 -0.64 0.17
-14.20 133.53 26.49 -0.65 -0.48 -0.58 0.27
-14.78 124.39 27.10 -0.71 -0.66 0.24 0.08
-12.11 125.24 22.04 -0.19 -0.91 0.36 0.52
-16.45 129.47 29.21 -0.91 0.39 -0.15 -2.00
-14.03 132.34 29.62 -1.00 0.05 -0.02 -0.43
-14.36 133.06 28.90 -0.89 -0.45 0.13 -0.37
-14.77 133.29 27.78 -0.86 -0.50 -0.10 -0.41
-14.17 125.01 28.14 -0.73 -0.54 0.42 0.23
-13.80 133.05 20.88 -0.74 -0.61 0.29 -0.11
-11.71 125.07 24.87 0.20 -0.75 -0.63 0.14
-11.14 125.97 23.67 0.00 -0.97 -0.26 -0.09
-15.16 130.38 30.73 -0.81 0.58 0.09 -0.96
-13.62 125.57 19.95 -0.69 -0.73 0.03 0.36
-14.39 126.51 19.00 -0.97 -0.26 -0.02 0.30
-14.22 134.80 25.19 -0.81 -0.44 -0.39 -0.11
-14.17 134.21 22.66 -0.81 -0.54 0.23 -0.70
-12.12 124.92 20.94 -0.40 -0.91 0.06 0.48
-13.80 129.16 18.29 -0.98 0.14 0.16 -0.22
-14.28 128.20 18.55 -0.97 0.22 -0.12 -0.04
-15.08 134.13 26.70 -0.75 -0.51 -0.43 0.20
-13.14 123.97 27.21 -0.35 -0.93 0.11 0.15
-13.43 130.34 18.34 -0.78 -0.11 0.62 0.07
-10.81 125.73 22.61 -0.29 -0.82 0.49 0.34
-14.44 135.21 23.92 -0.95 -0.26 0.20 -0.45
-14.56 131.18 31.09 -0.93 0.34 -0.16 0.01
-16.18 128.84 30.67 -0.97 0.12 0.22 -1.65
-15.83 126.97 30.56 -0.85 -0.52 -0.07 -0.41
-11.48 123.73 25.84 -0.01 -0.89 -0.46 0.17
-12.35 125.28 19.46 -0.42 -0.89 -0.16 0.38
-14.49 133.11 30.49 -0.91 -0.36 -0.21 0.68
-10.64 124.89 25.13 0.03 -0.78 -0.63 -0.03
-13.33 124.28 28.73 -0.80 -0.59 -0.07 0.46
-10.93 124.43 21.73 -0.64 -0.36 0.67 1.18
-14.69 134.47 21.39 -0.80 -0.56 0.20 -0.48
-14.44 125.84 30.47 -0.73 -0.65 -0.21 0.21
-14.47 134.02 20.47 -0.73 -0.56 0.39 -0.46
-13.56 125.16 29.58 -0.89 -0.45 -0.02 0.81
-13.81 125.51 18.53 -0.53 -0.81 -0.25 0.42
-11.41 124.38 20.70 -0.73 -0.67 0.12 0.97
-15.67 134.57 27.87 -0.89 -0.41 -0.19 -0.36
-15.20 133.98 29.88 -0.83 -0.55 0.02 0.10
-14.20 132.17 18.85 -0.33 -0.53 0.78 0.31
-14.41 133.26 19.68 -0.56 -0.54 0.63 -0.26
-9.92 125.47 23.89 -0.50 -0.85 -0.14 0.15
-14.33 136.23 25.60 -0.80 0.56 -0.20 0.31
-13.95 126.83 17.57 -0.75 -0.42 -0.52 0.36
-12.34 123.80 27.72 -0.49 -0.84 -0.22 0.05
-14.87 135.29 22.46 -0.86 -0.39 0.32 -0.70
-14.71 131.35 32.17 -0.99 0.09 -0.05 0.23
-14.27 136.44 24.52 -0.84 0.45 0.30 -0.00
-14.48 130.89 18.04 -0.38 -0.68 0.62 0.69
-15.39 135.76 26.28 -0.82 0.17 -0.54 0.44
-14.59 130.02 17.33 -0.76 -0.44 0.48 0.31
-9.90 124.73 22.40 -0.61 -0.29 0.74 0.65
-9.79 124.98 24.81 -0.43 -0.82 -0.38 -0.00
-14.97 129.75 32.81 -0.93 0.18 0.32 -0.20
-15.13 133.62 31.51 -0.97 -0.26 0.01 0.55
-12.20 125.49 17.96 -0.34 -0.85 -0.41 0.45
-13.79 128.92 16.22 -0.80 -0.59 -0.11 0.31
-15.61 126.87 32.28 -0.81 -0.34 0.48 0.02
-15.37 134.16 19.86 -0.35 -0.45 0.82 -1.83
-12.97 123.19 29.27 -0.67 -0.49 -0.57 0.40
-15.55 134.86 30.52 -0.87 -0.48 0.11 0.45
-14.60 137.26 23.79 -0.74 0.46 0.49 0.76
-15.35 135.05 20.42 -0.65 -0.56 0.51 -0.80
-15.32 133.11 19.32 0.04 -0.43 0.90 -0.27
-15.11 125.87 31.92 -0.62 -0.70 0.34 0.20
-10.79 123.09 27.28 -0.06 -0.88 -0.46 -0.61
-11.12 124.06 19.32 -0.78 -0.57 -0.27 1.13
-11.12 124.80 18.30 -0.60 -0.66 -0.45 1.45
-15.73 128.33 32.60 -0.79 0.05 0.61 -0.12
-16.22 135.50 28.86 -0.94 -0.35 -0.02 -0.18
-9.25 124.37 25.48 -0.42 -0.84 -0.33 0.06
-15.89 136.07 27.53 -0.79 0.07 -0.60 0.42
-10.69 122.94 22.05 -0.83 -0.07 0.56 0.84
-9.21 124.61 23.16 -0.78 -0.44 0.45 0.45
-13.33 127.17 16.53 -0.91 -0.26 -0.32 0.52
-10.94 123.04 20.53 -0.97 -0.23 -0.07 1.00
-13.73 123.95 30.53 -0.96 -0.20 -0.19 0.47
-13.93 125.16 31.98 -0.84 -0.44 0.33 1.51
-15.12 137.14 22.62 -0.64 0.51 0.58 0.41
-9.98 123.88 26.63 -0.05 -0.85 -0.53 -0.31
-15.41 130.94 18.39 -0.02 -0.77 0.64 0.65
-13.27 137.40 25.81 -0.48 0.84 0.24 0.22
-14.55 131.77 33.62 -0.89 0.18 0.43 0.01
-15.10 132.63 32.67 -0.95 -0.06 0.32 0.11
-9.68 123.12 22.66 -0.58 -0.11 0.81 0.55
-15.06 133.69 32.63 -0.89 0.08 0.45 0.33
-13.28 137.73 23.79 -0.09 0.99 0.12 0.24
-15.66 135.26 31.54 -0.94 -0.17 0.31 0.37
-11.67 122.71 28.95 -0.31 -0.79 -0.53 0.48
-15.31 130.39 16.25 -0.59 -0.80 0.08 0.40
-14.23 137.08 27.20 0.06 0.86 -0.51 0.35
-13.11 136.81 27.22 0.04 0.95 0.30 0.12
-12.21 125.99 16.93 -0.52 -0.84 -0.15 0.45
-16.05 136.39 21.18 -0.58 -0.58 0.57 -0.14
-8.55 123.95 24.14 -0.78 -0.59 0.22 -0.13
-16.19 135.23 19.96 -0.31 -0.49 0.81 -0.44
-13.37 129.11 15.04 -0.80 -0.59 -0.09 0.41
-14.81 127.99 33.29 -0.55 -0.23 0.80 -0.08
-9.99 122.48 28.12 0.19 -0.93 -0.33 -1.11
-14.06 128.41 33.85 -0.59 -0.31 0.74 -0.66
-14.25 126.88 33.17 -0.42 -0.43 0.80 0.23
-13.70 122.54 30.41 -0.89 -0.30 -0.35 0.29
-16.46 131.32 18.49 0.14 -0.71 0.69 0.83
-10.86 125.47 17.13 -0.42 -0.87 -0.25 0.76
-12.12 121.88 29.70 -0.29 -0.71 -0.64 0.41
-14.78 135.02 32.86 -0.73 0.21 0.65 0.75
-14.37 129.56 34.65 -0.74 -0.26 0.62 -1.27
-13.67 123.85 31.81 -0.98 -0.04 0.17 0.76
-14.35 129.49 14.86 -0.55 -0.83 0.08 -0.19
-16.92 134.26 19.75 -0.04 -0.03 1.00 0.14
-12.30 137.58 25.17 0.06 0.98 0.21 0.21
-13.47 126.06 32.95 -0.44 -0.36 0.82 0.87
-15.34 137.60 27.50 -0.26 0.57 -0.78 0.70
-16.41 137.43 28.20 -0.86 0.40 -0.31 0.45
-16.35 137.00 29.69 -0.85 0.43 0.31 0.47
-10.71 121.64 20.12 -0.86 -0.45 -0.21 0.12
-10.54 121.41 21.95 -0.75 -0.34 0.57 1.04
-8.14 123.57 26.64 0.39 -0.77 0.50 -0.01
-12.89 127.52 15.12 -0.98 -0.19 -0.08 0.38
-16.87 132.63 19.95 0.23 -0.33 0.91 0.03
-8.81 123.38 27.60 0.72 -0.66 -0.21 -0.57
-14.15 130.75 34.79 -0.60 0.21 0.77 -0.71
-9.96 123.37 18.04 -0.71 -0.35 -0.61 1.05
-12.24 137.41 23.66 -0.11 0.99 -0.04 -0.40
-12.10 136.47 27.15 0.03 0.93 0.36 0.12
-9.66 124.29 17.15 -0.47 -0.64 -0.61 0.96
-12.91 124.80 33.43 -0.66 0.27 0.70 0.46
-13.97 134.20 33.52 -0.52 0.18 0.83 0.52
-16.43 137.50 21.91 -0.03 -0.13 0.99 -0.14
-17.23 135.51 19.79 -0.20 -0.49 0.85 0.13
-8.76 121.75 22.78 -0.25 -0.32 0.92 0.49
-16.22 131.12 15.29 -0.69 -0.45 -0.57 0.20
-16.90 130.62 16.54 0.02 -0.99 -0.12 0.31
-13.31 128.90 14.00 -0.62 -0.76 0.18 0.50
-8.28 122.44 23.20 -0.54 -0.55 0.64 0.29
-13.09 132.73 34.24 -0.43 0.30 0.85 0.18
-13.31 137.96 22.02 0.04 0.95 0.32 -0.07
-12.68 126.12 14.94 -0.85 -0.52 0.10 0.58
-10.16 122.18 29.59 0.57 -0.79 -0.22 0.07
-17.25 136.23 20.72 -0.10 -0.78 0.61 -0.09
-7.47 123.09 26.28 -0.35 -0.61 0.71 -0.77
-13.55 121.85 31.27 -0.90 -0.29 -0.33 0.67
-8.97 123.18 28.87 0.85 -0.51 0.14 -1.25
-15.43 138.32 20.98 0.19 0.64 0.75 -0.18
3 182 133 163
3 155 162 109
3 153 155 124
3 109 124 155
3 177 138 109
3 138 177 191
3 110 139 141
3 141 161 110
3 141 139 183
3 183 161 141
3 139 110 83
3 110 143 94
3 94 143 116
3 116 143 125
3 125 143 170
3 147 137 98
3 147 98 146
3 146 98 105
3 103 137 142
3 117 103 142
3 142 137 166
3 186 190 140
3 150 196 126
3 176 121 135
3 135 121 84
3 84 121 81
3 81 121 74
3 154 194 144
3 160 144 194
3 198 194 154
3 160 197 157
3 157 197 163
3 160 115 144
3 144 115 100
3 61 74 85
3 115 132 85
3 88 132 133
3 132 163 133
3 88 133 120
3 133 167 120
3 124 109 79
3 79 109 65
3 51 36 20
3 16 20 3
3 18 33 37
3 33 65 78
3 83 78 102
3 94 59 83
3 59 94 60
3 59 60 37
3 37 60 35
3 60 73 54
3 60 54 35
3 68 105 98
3 68 98 77
3 117 134 77
3 128 86 131
3 86 128 140
3 150 97 129
3 97 84 64
3 81 53 84
3 63 84 53
3 29 63 53
3 74 47 81
3 53 81 47
3 39 61 42
3 42 61 90
3 90 88 42
3 42 51 20
3 42 20 21
3 21 20 16
3 21 9 12
3 3 12 9
3 3 1 12
3 7 12 1
3 5 7 1
3 6 3 11
3 6 18 15
3 15 35 31
3 13 31 23
3 40 68 77
3 69 77 101
3 101 149 87
3 149 184 195
3 178 131 122
3 178 122 123
3 70 92 56
3 86 56 92
3 56 29 26
3 7 22 27
3 22 7 14
3 14 7 5
3 6 15 4
3 40 49 23
3 23 49 28
3 69 87 49
3 49 87 62
3 89 87 118
3 118 114 89
3 119 114 165
3 165 175 119
3 119 175 158
3 82 44 66
3 66 91 82
3 44 43 66
3 91 66 67
3 43 67 66
3 27 41 72
3 48 41 25
3 41 22 25
3 25 14 32
3 19 14 8
3 8 2 10
3 28 10 23
3 62 50 28
3 32 52 48
3 52 62 95
3 95 62 96
3 136 95 158
3 145 106 104
3 99 148 111
3 111 123 82
3 122 82 123
3 99 72 130
3 130 72 71
3 112 71 106
3 164 112 145
3 130 174 193
3 30 53 47
3 146 105 127
3 146 127 168
3 105 93 127
3 167 133 182
3 153 156 155
3 102 109 138
3 102 138 139
3 78 65 102
3 109 102 65
3 110 94 83
3 98 137 103
3 129 140 150
3 190 150 140
3 108 150 126
3 108 126 84
3 126 173 135
3 176 135 173
3 196 173 126
3 84 126 135
3 100 74 121
3 100 121 144
3 100 85 74
3 85 100 115
3 61 85 90
3 90 85 132
3 88 90 132
3 11 17 6
3 17 11 20
3 17 20 36
3 20 11 3
3 33 17 36
3 17 33 18
3 17 18 6
3 58 33 78
3 83 58 78
3 33 58 37
3 58 59 37
3 59 58 83
3 93 60 94
3 45 54 68
3 68 54 73
3 105 68 73
3 103 77 98
3 117 77 103
3 134 184 149
3 199 184 134
3 107 140 129
3 76 107 129
3 76 129 97
3 84 97 108
3 108 97 150
3 63 64 84
3 42 21 39
3 29 12 7
3 5 1 0
3 5 0 2
3 0 1 3
3 4 2 0
3 4 0 6
3 3 6 0
3 13 15 31
3 45 23 31
3 45 31 54
3 54 31 35
3 40 45 68
3 23 45 40
3 149 101 134
3 118 87 149
3 114 118 151
3 151 118 149
3 151 149 195
3 165 114 151
3 165 151 185
3 185 151 195
3 46 56 76
3 76 56 86
3 64 76 97
3 107 76 86
3 46 76 64
3 29 46 64
3 63 29 64
3 56 46 29
3 7 26 29
3 27 26 7
3 25 22 14
3 13 23 10
3 10 4 13
3 13 4 15
3 10 2 4
3 89 62 87
3 62 89 96
3 96 89 114
3 96 114 119
3 96 119 95
3 95 119 158
3 82 122 92
3 82 92 70
3 82 70 44
3 27 43 44
3 71 72 41
3 48 75 71
3 48 71 41
3 52 32 38
3 38 50 52
3 38 32 24
3 24 32 14
3 19 38 24
3 19 24 14
3 19 10 28
3 10 19 8
3 28 50 38
3 28 38 19
3 95 104 52
3 75 48 52
3 75 52 104
3 136 104 95
3 71 75 106
3 106 75 104
3 145 104 188
3 99 130 148
3 148 130 193
3 111 159 123
3 111 148 159
3 112 164 152
3 188 187 145
3 152 174 112
3 164 189 152
3 130 112 174
3 109 162 177
3 191 139 138
3 191 183 139
3 110 161 143
3 166 137 147
3 176 198 154
3 154 121 176
3 144 121 154
3 132 157 163
3 160 157 115
3 157 132 115
3 120 113 80
3 80 88 120
3 120 167 156
3 120 156 113
3 153 113 156
3 113 153 124
3 113 124 79
3 113 79 80
3 57 79 65
3 57 65 33
3 57 33 36
3 57 36 51
3 57 51 79
3 139 83 102
3 125 127 93
3 116 125 94
3 93 94 125
3 73 60 93
3 105 73 93
3 168 127 169
3 169 127 125
3 169 125 170
3 134 117 142
3 192 134 142
3 172 128 131
3 186 140 172
3 172 140 128
3 34 55 39
3 55 34 47
3 61 55 74
3 55 61 39
3 74 55 47
3 80 79 51
3 88 80 42
3 51 42 80
3 3 9 16
3 16 9 21
3 37 35 18
3 18 35 15
3 69 40 77
3 134 101 77
3 172 131 171
3 140 107 86
3 92 131 86
3 30 12 29
3 53 30 29
3 47 34 30
3 30 34 12
3 34 21 12
3 21 34 39
3 40 69 49
3 101 87 69
3 178 123 181
3 181 123 159
3 131 92 122
3 44 26 27
3 56 26 44
3 56 44 70
3 41 27 22
3 25 32 48
3 14 5 8
3 5 2 8
3 49 62 28
3 91 99 111
3 82 91 111
3 91 67 99
3 67 72 99
3 130 71 112
3 50 62 52
3 106 145 112
3 188 104 136
3 188 136 158
3 72 67 43
3 72 43 27
