ply
format ascii 1.0
comment Generated by MaSIF
element vertex 200
property float x
property float y
property float z
property float nx
property float ny
property float nz
property float charge
element face 346
property list uchar int vertex_indices
end_header
-16.31 131.67 28.23 -0.55 -0.68 -0.48 -0.41
-15.99 131.18 29.30 -0.63 -0.74 -0.26 -0.37
-15.75 132.57 27.28 -0.31 -0.41 -0.86 0.27
-16.82 132.70 27.43 -0.41 -0.52 -0.75 0.20
-15.34 131.37 27.29 -0.53 -0.36 -0.77 -1.93
-17.68 132.41 28.47 -0.61 -0.58 -0.54 -0.36
-15.40 130.39 28.67 -0.87 -0.40 -0.29 -1.51
-17.25 131.30 30.25 -0.52 -0.77 -0.37 0.10
-15.47 130.39 29.82 -0.92 -0.30 -0.27 -0.43
-14.54 130.38 27.42 -0.65 -0.17 -0.74 -1.74
-14.93 133.46 26.65 -0.41 -0.65 -0.64 -0.56
-14.36 132.71 26.78 -0.46 -0.38 -0.81 -1.05
-16.32 130.56 30.73 -0.64 -0.54 -0.55 0.68
-17.73 134.15 27.46 -0.75 0.07 -0.66 0.44
-18.68 132.64 29.51 -0.69 -0.62 -0.37 -0.18
-18.46 133.75 28.56 -0.67 0.02 -0.74 0.42
-13.69 131.64 26.65 -0.56 -0.15 -0.82 -1.49
-16.14 134.16 26.48 -0.50 -0.51 -0.70 -0.11
-18.01 131.67 31.02 -0.59 -0.76 -0.28 0.45
-15.46 128.88 28.30 -0.89 0.30 -0.33 -1.51
-17.23 130.38 31.65 -0.76 -0.56 -0.32 0.55
-16.89 135.18 27.27 -0.93 0.28 -0.22 0.31
-18.40 131.58 32.04 -0.81 -0.59 -0.01 0.37
-14.72 133.93 25.30 -0.48 -0.83 -0.27 -0.65
-14.24 128.92 27.38 -0.62 0.29 -0.73 -1.03
-15.64 128.66 30.67 -0.96 0.03 -0.29 0.01
-18.60 135.26 29.16 -0.38 0.70 -0.60 0.70
-13.10 132.58 25.89 -0.69 -0.46 -0.56 -0.56
-19.58 134.47 29.45 -0.90 0.17 -0.39 0.45
-19.53 133.55 30.70 -0.98 -0.05 0.19 0.47
-16.36 134.92 25.39 -0.77 -0.62 -0.15 -0.45
-17.35 135.31 29.02 -0.24 0.95 -0.19 0.35
-13.67 133.33 25.32 -0.53 -0.76 -0.37 -0.61
-13.19 129.61 26.22 -0.76 0.15 -0.63 -0.16
-15.53 127.98 27.20 -0.57 0.31 -0.76 -1.78
-12.47 131.32 25.54 -0.86 -0.16 -0.48 -0.23
-17.33 130.03 32.72 -0.89 -0.41 0.20 0.33
-16.93 129.09 32.42 -0.86 -0.51 0.02 0.11
-15.80 127.90 29.94 -0.98 0.18 0.05 -0.96
-16.40 127.27 27.92 -0.96 0.08 -0.26 -2.00
-15.98 128.32 31.67 -0.93 -0.25 -0.28 0.23
-13.71 128.67 26.56 -0.80 0.36 -0.48 -0.03
-18.67 135.45 30.35 -0.48 0.87 0.13 0.36
-16.80 135.80 26.36 -0.98 -0.02 0.19 -0.00
-17.66 131.17 33.40 -0.83 -0.32 0.46 0.75
-16.45 136.46 28.10 -0.82 0.46 0.35 0.22
-16.23 135.46 29.24 -0.40 0.71 0.58 0.12
-18.86 134.77 31.50 -0.49 0.64 0.59 0.82
-18.47 133.41 32.62 -0.75 0.29 0.60 0.93
-12.62 132.67 24.57 -0.88 -0.41 -0.22 0.05
-14.47 134.10 23.63 -0.42 -0.88 -0.21 -0.44
-15.55 134.65 24.00 -0.53 -0.83 -0.17 -0.70
-12.25 130.95 24.65 -0.98 -0.20 -0.02 0.04
-14.43 127.30 26.50 -0.80 0.09 -0.59 -0.63
-16.60 135.41 23.96 -0.65 -0.76 -0.05 -0.70
-16.68 130.49 33.98 -0.64 -0.35 0.68 0.52
-12.92 128.84 24.96 -0.77 0.50 -0.40 -0.93
-16.19 128.18 33.16 -0.92 -0.32 0.21 0.01
-13.15 133.75 23.65 -0.53 -0.81 -0.24 -0.14
-17.32 135.35 31.02 0.10 0.93 0.35 -0.21
-17.35 136.67 25.85 -0.92 -0.05 0.39 0.76
-15.49 126.04 27.56 -0.64 -0.44 -0.63 -1.35
-12.01 129.97 24.92 -0.96 0.13 -0.23 -0.07
-15.58 137.20 27.82 -0.38 0.77 0.51 0.21
-16.07 126.26 29.13 -0.95 -0.32 -0.02 -1.65
-15.18 135.55 29.34 -0.41 0.67 0.63 0.12
-15.75 134.85 30.86 -0.02 0.92 0.39 0.23
-17.62 136.84 24.61 -0.86 -0.01 0.51 0.41
-16.36 137.52 26.35 -0.51 0.76 0.39 0.24
-15.62 126.62 31.69 -0.95 -0.29 0.10 -0.20
-14.19 127.24 25.57 -0.92 0.21 -0.32 -0.42
-12.55 133.02 23.40 -0.95 -0.26 -0.18 0.21
-12.32 130.61 23.52 -0.99 -0.07 0.12 -0.24
-17.20 134.14 33.20 -0.37 0.78 0.51 0.32
-15.97 135.19 22.78 -0.51 -0.84 -0.20 -0.48
-15.36 129.26 34.42 -0.61 -0.23 0.76 0.18
-16.96 132.81 34.16 -0.47 0.23 0.85 0.77
-13.48 127.87 24.43 -0.76 0.31 -0.57 -1.60
-12.18 129.42 24.16 -0.97 0.24 -0.06 -0.10
-14.51 134.47 22.11 -0.45 -0.89 -0.12 -0.11
-12.46 131.79 23.30 -0.99 -0.12 0.01 0.03
-13.68 125.73 26.68 -0.60 -0.71 -0.38 -1.02
-13.58 134.11 22.41 -0.41 -0.90 -0.11 0.11
-15.26 130.49 34.97 -0.20 -0.13 0.97 0.17
-16.55 134.43 32.08 0.03 0.90 0.44 0.51
-15.94 131.79 35.07 -0.31 0.19 0.93 0.23
-15.54 126.99 34.02 -0.72 -0.33 0.61 -0.71
-12.64 133.62 22.24 -0.78 -0.62 -0.09 0.26
-14.35 136.41 29.62 -0.75 0.52 0.40 0.06
-14.48 137.38 28.29 -0.66 0.61 0.43 -0.12
-14.56 137.78 27.32 -0.58 0.76 0.28 -0.18
-15.27 137.66 26.41 -0.51 0.83 0.24 -0.40
-14.95 124.82 28.55 -0.54 -0.71 -0.45 -0.41
-14.75 135.39 30.51 -0.67 0.58 0.47 0.10
-12.68 127.38 23.58 -0.79 0.08 -0.60 -0.59
-13.66 126.27 24.72 -0.87 -0.30 -0.39 -0.85
-17.97 136.43 22.81 -0.34 -0.92 0.19 -0.14
-12.23 132.74 22.34 -0.99 -0.10 -0.07 -0.04
-15.47 135.24 21.86 -0.46 -0.89 -0.01 -0.46
-14.61 134.35 31.84 -0.11 0.77 0.63 0.21
-16.12 133.85 33.87 0.11 0.77 0.62 0.39
-12.47 131.78 22.24 -1.00 0.06 0.03 -0.45
-15.69 125.23 30.86 -0.81 -0.46 0.36 -0.12
-18.87 136.96 23.72 -0.09 -0.51 0.86 -0.14
-16.69 135.83 21.89 -0.41 -0.91 0.12 -0.80
-14.37 125.39 32.47 -0.49 -0.76 0.43 -0.66
-16.27 138.40 24.79 -0.40 0.70 0.59 -0.07
-13.30 125.42 25.66 -0.79 -0.61 -0.05 -0.28
-15.22 125.96 33.47 -0.63 -0.72 0.30 -1.27
-12.42 129.07 22.69 -0.99 -0.13 0.00 -0.14
-15.00 134.91 20.92 -0.35 -0.90 0.25 -0.26
-13.78 129.27 35.25 -0.07 -0.08 0.99 0.03
-18.19 138.38 23.39 -0.19 0.32 0.93 -0.18
-15.11 133.06 34.10 0.13 0.69 0.71 0.74
-14.26 138.54 26.77 -0.90 0.39 0.20 -0.05
-14.44 127.75 34.72 -0.20 -0.23 0.95 -0.53
-14.68 138.36 25.23 -0.27 0.89 0.37 -0.71
-14.10 138.54 27.88 -0.90 0.29 0.31 0.04
-17.38 138.95 23.60 -0.37 0.41 0.84 -0.77
-14.92 124.15 30.15 -0.64 -0.75 0.12 0.02
-14.59 132.34 34.82 0.12 0.44 0.89 0.17
-12.38 132.94 21.29 -0.99 -0.14 0.07 -0.12
-12.81 133.90 21.03 -0.65 -0.76 0.10 0.29
-15.22 133.83 32.99 0.22 0.87 0.44 0.93
-12.35 124.66 26.18 -0.48 -0.88 0.03 0.23
-13.68 137.90 29.20 -0.83 0.41 0.38 0.04
-13.79 131.14 34.66 0.11 0.10 0.99 0.11
-14.33 135.94 31.70 -0.90 0.06 0.44 0.16
-12.85 125.30 24.03 -0.68 -0.46 -0.58 -0.14
-16.26 135.28 21.10 -0.22 -0.82 0.52 -1.83
-13.77 133.80 32.39 -0.46 0.66 0.60 -0.15
-12.07 125.87 23.16 -0.32 -0.46 -0.83 0.02
-12.53 131.59 21.18 -1.00 0.09 -0.00 -0.46
-18.93 136.06 22.03 0.16 -0.94 0.29 -0.09
-14.80 124.99 31.63 -0.50 -0.69 0.52 -0.08
-17.46 135.87 21.31 -0.17 -0.84 0.51 -0.44
-13.60 134.86 32.06 -0.66 0.11 0.74 -0.19
-19.66 137.93 23.69 0.12 0.18 0.98 -0.73
-13.22 124.38 28.49 -0.36 -0.73 -0.58 0.21
-14.01 123.61 29.64 -0.31 -0.95 -0.07 0.20
-13.74 125.89 34.22 -0.09 -0.63 0.77 -0.93
-14.23 138.86 25.68 -0.85 0.51 -0.13 -0.11
-14.25 134.37 19.88 -0.17 -0.87 0.47 0.31
-12.04 124.44 27.70 -0.61 -0.68 -0.40 0.81
-14.13 137.19 31.42 -0.78 0.54 0.30 0.18
-11.24 127.11 22.20 0.10 -0.74 -0.67 0.21
-13.08 125.06 33.03 0.20 -0.74 0.64 -0.04
-12.62 130.51 21.55 -1.00 0.02 0.04 -0.54
-15.71 134.60 20.30 0.11 -0.70 0.70 -0.27
-13.23 137.81 30.85 -0.76 0.64 0.15 0.02
-19.77 135.86 22.99 0.36 -0.79 0.49 -1.41
-15.99 139.41 23.78 -0.03 0.62 0.78 -0.82
-12.51 124.33 24.88 -0.39 -0.90 -0.17 0.08
-14.13 133.36 33.29 -0.04 0.85 0.53 0.24
-12.92 130.81 34.56 -0.18 0.23 0.96 -0.09
-13.81 124.28 31.33 -0.29 -0.82 0.49 0.23
-12.39 132.57 20.18 -0.99 -0.12 0.07 -0.32
-14.17 139.81 27.24 -0.93 0.31 0.18 0.04
-12.96 127.37 34.37 0.43 -0.41 0.80 -0.40
-18.50 139.90 23.01 -0.32 0.62 0.72 -0.15
-19.54 139.38 23.10 -0.31 0.57 0.76 -0.04
-13.45 132.80 34.43 -0.31 0.41 0.86 -0.26
-12.63 124.46 32.08 -0.00 -0.75 0.66 0.35
-13.54 136.31 32.54 -0.65 0.10 0.75 0.09
-11.36 124.10 26.72 -0.46 -0.76 -0.46 0.46
-13.67 139.01 24.26 -0.68 0.70 0.20 -0.25
-11.59 124.86 23.91 0.07 -0.76 -0.64 0.05
-13.46 139.93 28.49 -0.73 0.48 0.48 0.13
-12.14 129.83 35.43 -0.36 -0.09 0.93 -0.95
-20.59 137.85 24.18 -0.01 0.49 0.87 -0.99
-12.49 131.51 19.98 -1.00 0.06 0.02 -0.39
-11.82 127.81 21.04 -0.57 -0.79 -0.23 0.79
-18.49 135.82 20.96 -0.08 -0.82 0.57 0.13
-12.55 129.37 20.66 -0.95 -0.29 -0.14 -0.44
-10.87 124.49 25.28 0.07 -0.96 -0.27 0.15
-16.90 140.71 23.06 -0.26 0.72 0.64 -2.45
-12.05 128.19 34.44 0.14 -0.68 0.72 -0.23
-12.63 138.79 30.37 -0.52 0.76 0.40 0.00
-13.20 133.68 33.70 -0.61 0.66 0.44 -1.03
-17.68 134.87 20.62 -0.14 -0.43 0.89 0.14
-12.29 131.88 34.77 -0.48 -0.07 0.87 -0.33
-10.23 127.91 22.51 0.57 -0.82 -0.03 0.28
-10.40 125.63 23.69 0.39 -0.41 -0.82 0.17
-12.02 125.94 32.95 0.59 -0.38 0.71 0.13
-20.61 135.38 22.42 0.15 -0.96 0.23 -0.43
-13.14 137.35 32.38 -0.64 0.47 0.61 0.01
-14.65 139.30 23.37 -0.18 0.60 0.77 -0.17
-12.66 123.39 29.80 -0.61 -0.79 -0.06 1.51
-13.87 133.50 18.67 -0.13 -0.96 0.26 0.69
-13.94 140.31 26.04 -0.75 0.59 -0.31 0.02
-12.73 133.27 19.06 -0.73 -0.61 0.32 0.07
-20.43 139.14 22.51 -0.33 0.78 0.53 0.13
-11.80 122.98 28.15 -0.76 -0.43 -0.49 0.47
-18.28 140.38 21.98 -0.38 0.88 0.27 -0.19
-12.45 134.98 33.29 -0.80 0.42 0.44 -0.61
-12.74 123.94 31.08 -0.35 -0.78 0.52 0.87
-12.65 138.36 32.10 -0.73 0.57 0.39 0.18
-13.09 140.12 24.99 -0.79 0.58 -0.19 0.42
-20.90 136.46 24.22 -0.00 -0.41 0.91 -1.62
-14.77 133.08 18.76 0.22 -0.91 0.35 0.65
3 176 168 111
3 111 168 154
3 180 161 126
3 126 161 120
3 126 120 83
3 161 178 153
3 153 120 161
3 153 113 120
3 158 111 115
3 111 75 115
3 83 75 111
3 154 126 111
3 83 111 126
3 83 55 75
3 85 76 55
3 55 76 44
3 76 85 113
3 113 100 76
3 100 113 123
3 73 84 48
3 48 84 47
3 47 84 59
3 127 88 93
3 46 88 63
3 88 144 149
3 185 196 149
3 195 162 155
3 105 155 162
3 108 105 140
3 146 140 105
3 140 146 158
3 183 158 146
3 105 108 69
3 134 105 102
3 69 102 105
3 86 57 69
3 115 75 86
3 57 86 75
3 20 37 36
3 36 44 20
3 36 37 55
3 55 44 36
3 37 20 12
3 20 22 7
3 7 22 18
3 18 22 14
3 14 22 29
3 29 22 48
3 22 44 48
3 42 59 31
3 46 45 21
3 46 21 31
3 31 21 13
3 43 45 68
3 60 43 68
3 68 45 63
3 117 89 125
3 89 117 90
3 89 90 63
3 157 117 167
3 167 125 177
3 124 174 164
3 138 192 187
3 138 187 139
3 187 195 139
3 102 69 64
3 64 69 38
3 61 34 53
3 70 53 56
3 9 19 6
3 19 38 25
3 12 25 40
3 7 1 12
3 1 7 0
3 1 0 6
3 6 0 4
3 0 3 2
3 0 2 4
3 17 13 21
3 17 21 30
3 60 67 30
3 118 106 151
3 68 116 106
3 90 68 63
3 157 189 141
3 107 124 81
3 81 124 143
3 143 138 81
3 81 61 53
3 81 53 95
3 95 53 70
3 95 77 94
3 56 94 77
3 56 78 94
3 109 94 78
3 72 109 78
3 33 56 41
3 33 9 16
3 16 4 11
3 27 11 32
3 23 17 30
3 51 30 54
3 54 96 74
3 96 103 133
3 103 150 133
3 169 137 191
3 191 137 160
3 160 137 112
3 159 175 193
3 112 118 159
3 175 159 118
3 109 147 173
3 147 109 101
3 101 109 72
3 33 16 35
3 23 50 32
3 32 50 58
3 51 74 50
3 50 74 79
3 98 74 104
3 104 129 98
3 148 129 179
3 156 170 132
3 170 147 132
3 132 101 121
3 71 101 80
3 80 52 49
3 58 49 32
3 79 82 58
3 121 122 156
3 122 79 142
3 142 79 110
3 131 182 166
3 31 13 15
3 31 15 26
3 13 5 15
3 111 158 176
3 154 168 180
3 154 180 126
3 130 153 178
3 130 178 194
3 130 194 136
3 123 153 99
3 99 153 130
3 99 130 136
3 123 113 153
3 66 59 84
3 66 99 93
3 93 99 136
3 93 136 127
3 99 66 123
3 123 66 84
3 93 65 66
3 66 65 46
3 46 65 88
3 88 65 93
3 89 63 88
3 125 89 88
3 125 88 149
3 177 125 149
3 177 149 196
3 134 155 105
3 40 69 57
3 40 57 37
3 25 38 40
3 69 40 38
3 20 7 12
3 46 31 66
3 66 31 59
3 21 45 43
3 114 90 117
3 114 117 157
3 124 164 143
3 143 164 192
3 138 143 192
3 41 24 33
3 24 41 53
3 24 53 34
3 53 41 56
3 19 24 34
3 24 19 9
3 24 9 33
3 8 19 25
3 12 8 25
3 19 8 6
3 8 1 6
3 1 8 12
3 5 0 7
3 10 2 17
3 17 2 3
3 13 17 3
3 43 30 21
3 60 30 43
3 67 103 96
3 137 103 112
3 112 103 67
3 106 118 67
3 67 118 112
3 90 91 68
3 91 90 114
3 68 91 116
3 116 91 141
3 141 91 114
3 141 114 157
3 186 116 165
3 189 197 141
3 141 197 165
3 141 165 116
3 81 95 107
3 145 94 109
3 72 78 62
3 72 62 52
3 62 78 56
3 35 52 62
3 35 62 33
3 56 33 62
3 27 16 11
3 10 32 11
3 10 11 2
3 2 11 4
3 23 10 17
3 32 10 23
3 96 54 67
3 104 74 96
3 129 104 135
3 135 104 96
3 135 96 133
3 179 129 135
3 179 135 172
3 172 135 133
3 186 151 116
3 106 116 151
3 109 171 145
3 173 171 109
3 132 147 101
3 27 32 49
3 49 35 27
3 27 35 16
3 49 52 35
3 98 79 74
3 79 98 110
3 110 98 129
3 110 129 148
3 110 148 142
3 122 121 87
3 87 82 122
3 87 121 97
3 97 121 101
3 71 87 97
3 71 97 101
3 71 49 58
3 49 71 80
3 58 82 87
3 58 87 71
3 142 188 122
3 190 156 122
3 190 122 188
3 199 188 142
3 136 163 127
3 85 83 120
3 120 113 85
3 85 55 83
3 100 73 76
3 100 123 84
3 100 84 73
3 76 73 48
3 185 149 144
3 185 144 163
3 163 144 127
3 144 88 127
3 146 162 183
3 162 146 105
3 158 115 140
3 108 140 86
3 115 86 140
3 69 108 86
3 75 37 57
3 75 55 37
3 20 44 22
3 76 48 44
3 47 29 48
3 47 59 42
3 63 45 46
3 125 167 117
3 139 119 92
3 92 138 139
3 139 195 155
3 139 155 119
3 134 119 155
3 119 134 102
3 119 102 64
3 119 64 92
3 39 64 38
3 39 38 19
3 39 19 34
3 39 34 61
3 39 61 64
3 37 12 40
3 14 15 5
3 18 14 7
3 5 7 14
3 3 0 5
3 13 3 5
3 26 28 42
3 26 42 31
3 26 15 28
3 28 15 14
3 28 14 29
3 28 29 42
3 47 42 29
3 67 60 68
3 106 67 68
3 128 152 107
3 152 128 166
3 124 152 174
3 152 124 107
3 174 152 166
3 92 64 61
3 138 92 81
3 61 81 92
3 56 77 70
3 70 77 95
3 6 4 9
3 9 4 16
3 51 23 30
3 67 54 30
3 198 184 150
3 198 150 137
3 103 137 150
3 169 198 137
3 159 160 112
3 118 151 175
3 131 94 145
3 182 131 145
3 166 128 131
3 131 128 94
3 128 95 94
3 95 128 107
3 23 51 50
3 54 74 51
3 170 173 147
3 132 121 156
3 101 72 80
3 72 52 80
3 50 79 58
3 82 79 122
