ply
format ascii 1.0
comment Generated by MaSIF
element vertex 200
property float x
property float y
property float z
property float nx
property float ny
property float nz
property float pb
element face 8
property list uchar int vertex_indices
end_header
-12.05 130.51 24.97 -0.95 0.08 -0.29 -0.23
-12.22 129.84 24.28 -0.96 0.25 0.16 0.04
-12.08 131.97 24.87 -0.92 -0.28 -0.27 -0.56
-12.29 128.99 24.88 -0.87 0.46 -0.17 -0.07
-11.95 131.43 23.57 -1.00 -0.04 0.05 0.05
-12.76 131.66 25.99 -0.76 -0.15 -0.64 -1.49
-13.15 129.59 26.33 -0.79 0.25 -0.56 -0.16
-12.69 129.22 23.38 -0.89 0.40 0.23 -0.24
-12.82 128.35 24.41 -0.80 0.60 -0.05 -0.10
-12.43 130.21 22.74 -0.93 0.33 0.15 0.03
-12.47 132.67 24.12 -0.84 -0.54 0.00 -0.61
-12.05 131.33 22.36 -0.99 0.13 0.03 0.21
-12.95 132.90 25.76 -0.75 -0.38 -0.55 -1.05
-13.51 128.42 25.44 -0.61 0.63 -0.48 -0.93
-13.87 129.11 27.05 -0.71 0.50 -0.50 -0.03
-12.26 132.29 22.37 -0.83 -0.54 0.15 -0.14
-13.78 131.19 27.27 -0.83 -0.10 -0.54 -1.74
-14.18 132.33 26.84 -0.80 -0.32 -0.51 -1.93
-12.71 129.88 21.77 -0.87 0.49 0.10 -0.45
-14.05 129.81 27.77 -0.63 0.29 -0.72 -1.03
-13.20 133.63 23.97 -0.80 -0.59 0.12 -0.65
-13.54 127.70 23.22 -0.94 0.32 0.15 -0.14
-13.22 133.73 25.41 -0.76 -0.57 -0.29 -0.56
-12.13 130.63 21.46 -0.95 0.31 0.07 -0.04
-12.20 131.52 21.08 -0.95 -0.22 0.23 0.26
-14.48 127.67 25.39 -0.71 0.41 -0.57 -1.60
-14.12 133.52 26.42 -0.64 -0.48 -0.59 0.27
-15.03 128.23 27.60 -0.84 0.24 -0.50 -0.63
-13.32 133.14 22.35 -0.75 -0.64 0.19 -0.44
-14.15 126.65 24.72 -0.83 0.22 -0.51 -0.59
-12.83 132.39 21.13 -0.72 -0.63 0.29 0.11
-13.10 129.42 20.88 -0.86 0.50 0.06 -0.46
-14.25 131.95 28.49 -1.00 -0.06 -0.03 -1.51
-14.71 133.29 27.69 -0.86 -0.49 -0.12 -0.41
-13.47 128.66 21.64 -0.88 0.46 0.12 -0.54
-14.94 130.58 28.75 -0.78 0.53 -0.33 -1.51
-15.07 127.80 26.75 -0.83 0.47 -0.29 -0.42
-12.46 130.54 20.44 -0.92 0.33 0.22 -0.12
-15.60 129.51 28.09 -0.59 0.27 -0.76 -1.78
-14.10 134.79 25.11 -0.81 -0.43 -0.40 -0.11
-13.61 133.00 20.82 -0.75 -0.60 0.27 -0.11
-12.56 131.46 19.88 -0.83 -0.33 0.45 0.29
-14.00 134.18 22.58 -0.82 -0.53 0.22 -0.70
-15.00 134.13 26.60 -0.74 -0.50 -0.45 0.20
-14.29 135.19 23.83 -0.95 -0.25 0.18 -0.45
-15.15 126.48 26.28 -0.99 -0.01 -0.16 -0.85
-14.02 132.35 29.55 -1.00 0.05 -0.04 -0.43
-13.86 125.87 22.14 -0.86 -0.49 0.15 0.79
-13.39 128.96 19.80 -0.87 0.48 0.09 -0.39
-14.05 127.38 21.26 -0.99 0.12 0.08 -0.44
-13.30 125.38 23.40 -0.34 -0.88 -0.33 0.21
-14.33 133.07 28.83 -0.89 -0.44 0.11 -0.37
-14.88 126.65 28.30 -0.89 -0.46 -0.02 -1.02
-14.26 124.99 24.85 -0.66 -0.51 -0.55 0.02
-12.87 129.88 19.56 -0.92 0.34 0.21 -0.32
-15.61 134.58 27.76 -0.89 -0.40 -0.21 -0.36
-16.46 129.49 29.11 -0.90 0.40 -0.17 -2.00
-16.17 127.95 29.16 -0.89 -0.29 -0.34 -1.35
-14.21 136.22 25.51 -0.79 0.57 -0.22 0.31
-14.95 125.10 25.95 -0.92 -0.28 -0.29 -0.14
-14.49 134.44 21.30 -0.81 -0.55 0.19 -0.48
-14.26 133.98 20.39 -0.74 -0.56 0.38 -0.46
-14.68 135.27 22.36 -0.87 -0.38 0.31 -0.70
-14.13 136.42 24.43 -0.84 0.46 0.28 -0.00
-14.19 133.21 19.60 -0.58 -0.53 0.62 -0.26
-14.91 125.90 27.44 -0.94 -0.20 0.27 -0.28
-15.19 130.41 30.66 -0.81 0.58 0.07 -0.96
-15.18 134.00 29.78 -0.84 -0.55 0.01 0.10
-14.04 126.82 20.18 -0.98 -0.20 0.08 0.04
-15.28 135.76 26.17 -0.81 0.18 -0.56 0.44
-13.44 125.19 21.06 -0.64 -0.77 0.01 1.34
-12.03 125.73 23.29 0.21 -0.95 0.23 0.28
-14.49 133.13 30.41 -0.91 -0.35 -0.23 0.68
-14.01 124.15 25.89 -0.38 -0.88 -0.30 0.05
-14.59 131.21 31.02 -0.92 0.35 -0.18 0.01
-13.58 129.10 18.25 -0.98 0.14 0.14 -0.22
-14.07 128.14 18.50 -0.96 0.22 -0.14 -0.04
-14.43 137.24 23.68 -0.75 0.47 0.47 0.76
-13.97 132.12 18.78 -0.35 -0.52 0.78 0.31
-13.20 130.27 18.30 -0.79 -0.10 0.60 0.07
-12.00 125.19 22.06 -0.21 -0.91 0.36 0.52
-12.71 124.23 25.27 -0.00 -0.77 -0.64 0.17
-16.17 135.52 28.73 -0.94 -0.34 -0.03 -0.18
-15.81 136.08 27.41 -0.78 0.07 -0.62 0.42
-14.79 124.39 27.07 -0.72 -0.65 0.23 0.08
-14.19 125.01 28.12 -0.74 -0.54 0.41 0.23
-15.14 134.12 19.76 -0.37 -0.44 0.82 -1.83
-16.23 128.88 30.58 -0.97 0.13 0.20 -1.65
-14.92 137.12 22.50 -0.65 0.52 0.56 0.41
-15.13 135.02 20.31 -0.66 -0.56 0.50 -0.80
-15.88 127.00 30.49 -0.85 -0.51 -0.08 -0.41
-15.09 133.06 19.23 0.02 -0.43 0.90 -0.27
-13.14 137.38 25.73 -0.48 0.85 0.22 0.22
-15.54 134.89 30.41 -0.87 -0.48 0.09 0.45
-11.66 125.03 24.90 0.21 -0.75 -0.62 0.14
-11.06 125.93 23.71 0.00 -0.97 -0.25 -0.09
-14.24 130.83 17.98 -0.40 -0.68 0.62 0.69
-13.46 125.52 19.94 -0.69 -0.72 0.02 0.36
-14.20 126.45 18.96 -0.97 -0.25 -0.04 0.30
-13.11 137.69 23.71 -0.09 0.99 0.12 0.24
-14.50 125.86 30.43 -0.73 -0.65 -0.22 0.21
-13.62 125.17 29.57 -0.90 -0.44 -0.04 0.81
-14.13 137.07 27.11 0.08 0.85 -0.52 0.35
-13.02 136.80 27.15 0.04 0.95 0.30 0.12
-15.15 133.65 31.41 -0.97 -0.25 -0.00 0.55
-14.76 131.38 32.10 -0.99 0.10 -0.07 0.23
-11.99 124.87 20.96 -0.41 -0.91 0.05 0.48
-10.71 125.67 22.65 -0.31 -0.82 0.49 0.34
-13.15 123.96 27.21 -0.36 -0.93 0.11 0.15
-15.83 136.36 21.05 -0.59 -0.58 0.56 -0.14
-13.73 126.76 17.54 -0.74 -0.41 -0.53 0.36
-15.05 129.78 32.74 -0.93 0.19 0.30 -0.20
-15.67 135.29 31.42 -0.94 -0.16 0.29 0.37
-12.19 125.22 19.48 -0.42 -0.89 -0.16 0.38
-15.95 135.20 19.83 -0.33 -0.49 0.81 -0.44
-12.16 137.55 25.11 0.06 0.98 0.20 0.21
-14.35 129.96 17.27 -0.77 -0.43 0.47 0.31
-11.46 123.70 25.88 -0.01 -0.89 -0.45 0.17
-13.37 124.28 28.73 -0.80 -0.59 -0.09 0.46
-15.25 137.60 27.38 -0.24 0.57 -0.79 0.70
-16.33 137.45 28.05 -0.85 0.41 -0.33 0.45
-16.31 137.03 29.55 -0.85 0.44 0.29 0.47
-10.60 124.85 25.18 0.04 -0.78 -0.62 -0.03
-15.18 130.89 18.31 -0.04 -0.76 0.65 0.65
-10.82 124.36 21.78 -0.66 -0.35 0.66 1.18
-13.62 125.45 18.51 -0.53 -0.81 -0.25 0.42
-15.15 132.67 32.58 -0.95 -0.06 0.30 0.11
-11.28 124.32 20.74 -0.74 -0.66 0.11 0.97
-13.52 128.85 16.18 -0.81 -0.58 -0.12 0.31
-15.10 133.73 32.54 -0.90 0.09 0.43 0.33
-12.07 137.37 23.61 -0.10 0.99 -0.05 -0.40
-12.01 136.45 27.10 0.03 0.93 0.36 0.12
-16.69 134.23 19.61 -0.06 -0.02 1.00 0.14
-15.70 126.91 32.21 -0.82 -0.33 0.47 0.02
-9.85 125.42 23.95 -0.51 -0.85 -0.15 0.15
-16.22 137.48 21.77 -0.05 -0.13 0.99 -0.14
-15.20 125.91 31.86 -0.64 -0.70 0.33 0.20
-16.66 132.61 19.83 0.20 -0.33 0.92 0.03
-13.09 127.10 16.51 -0.91 -0.25 -0.34 0.52
-13.10 137.92 21.94 0.04 0.95 0.31 -0.07
-12.36 123.79 27.74 -0.49 -0.84 -0.22 0.05
-15.82 128.37 32.52 -0.80 0.06 0.59 -0.12
-14.63 131.81 33.55 -0.89 0.18 0.41 0.01
-13.81 123.96 30.52 -0.96 -0.19 -0.21 0.47
-14.03 125.19 31.96 -0.85 -0.43 0.31 1.51
-15.19 138.29 20.85 0.17 0.64 0.75 -0.18
-16.23 131.28 18.38 0.12 -0.71 0.69 0.83
-15.04 130.33 16.17 -0.60 -0.80 0.07 0.40
-16.99 135.49 19.64 -0.22 -0.48 0.85 0.13
-14.94 138.17 28.41 -0.08 0.98 -0.17 0.36
-14.82 135.06 32.76 -0.74 0.22 0.63 0.75
-14.20 138.49 20.75 0.02 0.76 0.65 -0.77
-9.80 124.66 22.47 -0.62 -0.28 0.73 0.65
-12.40 136.57 28.82 0.41 0.91 0.01 0.23
-13.59 137.72 28.93 0.52 0.85 -0.05 -0.21
-9.74 124.92 24.88 -0.43 -0.82 -0.38 -0.00
-17.03 136.21 20.57 -0.12 -0.78 0.62 -0.09
-10.99 137.37 25.35 -0.27 0.94 0.23 -0.12
-11.16 137.45 24.32 -0.18 0.98 0.02 -0.18
-13.03 123.19 29.28 -0.66 -0.48 -0.58 0.40
-11.57 137.35 22.19 0.17 0.99 0.03 -0.71
-12.01 125.41 17.97 -0.33 -0.85 -0.42 0.45
-15.06 138.03 29.75 -0.06 0.94 0.34 0.82
-10.89 136.91 26.94 -0.39 0.89 0.24 0.06
-14.93 137.06 31.26 -0.42 0.75 0.51 0.93
-13.08 129.03 15.01 -0.80 -0.58 -0.11 0.41
-14.18 128.45 33.80 -0.61 -0.31 0.73 -0.66
-10.96 123.98 19.37 -0.78 -0.56 -0.28 1.13
-11.40 136.49 28.19 -0.27 0.92 0.27 0.10
-14.03 134.24 33.45 -0.54 0.19 0.82 0.52
-10.93 124.72 18.34 -0.59 -0.66 -0.46 1.45
-14.49 129.60 34.59 -0.75 -0.25 0.61 -1.27
-9.22 124.32 25.56 -0.42 -0.84 -0.34 0.06
-16.59 138.62 21.44 0.41 0.41 0.82 -0.73
-10.81 123.06 27.34 -0.05 -0.89 -0.46 -0.61
-10.60 122.88 22.11 -0.84 -0.06 0.54 0.84
-9.13 124.55 23.24 -0.79 -0.43 0.44 0.45
-11.98 125.91 16.94 -0.53 -0.84 -0.16 0.45
-10.82 122.98 20.59 -0.97 -0.22 -0.08 1.00
-14.91 128.03 33.23 -0.57 -0.22 0.79 -0.08
-10.75 137.80 23.49 -0.62 0.78 0.12 -0.05
-16.63 130.58 16.42 0.02 -0.99 -0.12 0.31
-14.05 129.41 14.81 -0.56 -0.83 0.08 -0.19
-14.36 126.91 33.13 -0.44 -0.43 0.79 0.23
-9.98 123.84 26.70 -0.04 -0.85 -0.53 -0.31
-13.78 123.87 31.80 -0.99 -0.03 0.15 0.76
-14.27 130.79 34.73 -0.61 0.22 0.76 -0.71
-10.88 137.72 22.37 -0.61 0.76 -0.23 -0.11
-17.61 136.70 21.61 0.16 -0.67 0.72 -1.41
-12.74 138.35 20.59 0.39 0.78 0.48 -0.82
-13.59 126.09 32.93 -0.46 -0.35 0.81 0.87
-17.38 130.88 18.20 0.36 -0.84 0.42 0.63
-9.60 123.05 22.75 -0.60 -0.10 0.80 0.55
-17.64 131.57 19.13 0.30 -0.60 0.74 0.16
-12.62 127.43 15.11 -0.98 -0.18 -0.10 0.38
-13.79 122.55 30.41 -0.88 -0.30 -0.37 0.29
-15.92 131.06 15.18 -0.68 -0.45 -0.58 0.20
-15.01 139.60 19.94 0.11 0.89 0.45 -0.15
-10.33 138.07 24.50 -0.63 0.73 0.27 0.04
-13.18 132.76 34.20 -0.44 0.31 0.84 0.18
3 74 70 157
3 99 22 103
3 22 116 103
3 127 105 106
3 5 148 175
3 145 187 73
3 149 114 15
3 155 94 109
