ply
format ascii 1.0
comment Generated by MaSIF
element vertex 200
property float x
property float y
property float z
property float nx
property float ny
property float nz
property float charge
element face 343
property list uchar int vertex_indices
end_header
-15.59 133.12 27.63 -0.39 -0.44 -0.81 0.27
-16.64 133.28 27.86 -0.48 -0.54 -0.69 0.20
-16.08 132.27 28.65 -0.60 -0.69 -0.40 -0.41
-15.19 131.92 27.64 -0.60 -0.38 -0.71 -1.93
-14.81 133.98 26.89 -0.47 -0.67 -0.57 -0.56
-14.25 133.22 27.00 -0.53 -0.40 -0.75 -1.05
-16.02 134.69 26.80 -0.56 -0.52 -0.64 -0.11
-17.41 133.04 28.98 -0.66 -0.59 -0.46 -0.36
-15.67 131.81 29.71 -0.66 -0.73 -0.18 -0.37
-17.52 134.74 27.91 -0.80 0.06 -0.60 0.44
-14.40 130.93 27.75 -0.72 -0.19 -0.67 -1.74
-13.61 132.14 26.86 -0.63 -0.17 -0.76 -1.49
-15.15 130.99 29.06 -0.90 -0.40 -0.20 -1.51
-14.72 134.40 25.51 -0.51 -0.84 -0.20 -0.65
-16.69 135.75 27.61 -0.95 0.29 -0.15 0.31
-13.07 133.04 26.01 -0.74 -0.47 -0.48 -0.56
-16.32 135.41 25.70 -0.79 -0.62 -0.06 -0.45
-13.68 133.77 25.47 -0.57 -0.77 -0.30 -0.61
-16.84 131.99 30.76 -0.56 -0.77 -0.29 0.10
-15.12 131.04 30.21 -0.94 -0.29 -0.18 -0.43
-18.31 133.32 30.10 -0.73 -0.62 -0.29 -0.18
-18.16 134.39 29.09 -0.73 0.00 -0.68 0.42
-15.88 131.26 31.18 -0.69 -0.55 -0.47 0.68
-14.12 129.46 27.74 -0.67 0.28 -0.68 -1.03
-16.67 136.33 26.67 -0.96 0.00 0.27 -0.00
-16.99 135.95 29.38 -0.25 0.95 -0.21 0.35
-16.17 137.06 28.35 -0.78 0.49 0.40 0.22
-15.26 129.47 28.76 -0.92 0.30 -0.27 -1.51
-17.53 132.40 31.57 -0.62 -0.76 -0.20 0.45
-12.48 131.75 25.66 -0.90 -0.17 -0.40 -0.23
-12.70 133.08 24.65 -0.91 -0.41 -0.12 0.05
-13.17 130.09 26.47 -0.81 0.14 -0.57 -0.16
-14.60 134.49 23.83 -0.45 -0.88 -0.14 -0.44
-15.64 135.08 24.26 -0.55 -0.83 -0.09 -0.70
-16.68 135.85 24.28 -0.66 -0.75 0.03 -0.70
-15.86 136.10 29.51 -0.34 0.74 0.58 0.12
-13.30 134.12 23.75 -0.56 -0.81 -0.16 -0.14
-17.25 137.19 26.18 -0.88 -0.03 0.47 0.76
-16.72 131.12 32.19 -0.79 -0.56 -0.24 0.55
-18.23 135.92 29.63 -0.42 0.68 -0.60 0.70
-19.19 135.17 30.04 -0.93 0.17 -0.32 0.45
-19.04 134.29 31.32 -0.96 -0.02 0.27 0.47
-13.67 129.16 26.88 -0.84 0.35 -0.42 -0.03
-17.83 132.36 32.62 -0.82 -0.57 0.08 0.37
-15.31 137.77 27.97 -0.32 0.80 0.51 0.21
-15.24 129.34 31.14 -0.98 0.04 -0.20 0.01
-17.62 137.32 24.96 -0.81 0.02 0.58 0.41
-12.35 131.35 24.77 -0.98 -0.18 0.08 0.04
-15.44 128.53 27.71 -0.63 0.30 -0.72 -1.78
-12.73 133.38 23.47 -0.96 -0.25 -0.09 0.21
-16.21 138.04 26.56 -0.47 0.79 0.40 0.24
-14.80 136.17 29.52 -0.34 0.70 0.63 0.12
-14.41 127.80 26.94 -0.85 0.08 -0.52 -0.63
-16.16 135.58 23.06 -0.54 -0.83 -0.13 -0.48
-18.19 136.17 30.82 -0.45 0.88 0.14 0.36
-16.79 136.07 31.38 0.15 0.94 0.30 -0.21
-16.73 130.81 33.27 -0.87 -0.39 0.29 0.33
-13.02 129.26 25.21 -0.79 0.50 -0.35 -0.93
-14.77 134.81 22.30 -0.47 -0.88 -0.05 -0.11
-12.10 130.38 25.06 -0.98 0.14 -0.15 -0.07
-12.66 132.14 23.41 -0.99 -0.10 0.10 0.03
-16.37 129.86 32.97 -0.86 -0.49 0.11 0.11
-15.47 128.56 30.45 -0.97 0.19 0.12 -0.96
-16.25 127.86 28.52 -0.98 0.09 -0.18 -2.00
-13.82 134.45 22.53 -0.43 -0.90 -0.04 0.11
-15.50 129.05 32.18 -0.95 -0.24 -0.19 0.23
-18.29 135.53 32.01 -0.43 0.67 0.60 0.82
-15.25 135.54 31.11 0.03 0.93 0.36 0.23
-12.91 133.93 22.30 -0.79 -0.61 0.00 0.26
-14.17 137.95 28.33 -0.62 0.64 0.46 -0.12
-14.32 138.31 27.36 -0.55 0.78 0.30 -0.18
-12.52 130.96 23.66 -0.98 -0.05 0.20 -0.24
-15.12 138.17 26.53 -0.47 0.85 0.25 -0.40
-16.99 131.99 33.94 -0.79 -0.29 0.54 0.75
-18.13 136.86 23.22 -0.34 -0.91 0.25 -0.14
-12.50 133.05 22.40 -1.00 -0.09 0.02 -0.04
-14.25 127.71 25.99 -0.94 0.21 -0.25 -0.42
-15.74 135.58 22.10 -0.47 -0.88 0.07 -0.46
-13.94 137.02 29.69 -0.71 0.55 0.45 0.06
-17.83 134.21 33.14 -0.69 0.32 0.65 0.93
-12.34 129.80 24.33 -0.97 0.26 0.01 -0.10
-14.28 136.04 30.65 -0.62 0.61 0.50 0.10
-12.76 132.09 22.36 -0.99 0.08 0.11 -0.45
-18.94 137.43 24.18 -0.03 -0.48 0.88 -0.14
-13.63 128.28 24.78 -0.80 0.30 -0.51 -1.60
-16.94 136.19 22.22 -0.41 -0.89 0.19 -0.80
-16.24 138.87 24.97 -0.33 0.73 0.60 -0.07
-13.67 126.24 27.12 -0.64 -0.71 -0.30 -1.02
-15.97 131.31 34.45 -0.59 -0.32 0.74 0.52
-15.39 126.60 28.13 -0.70 -0.45 -0.55 -1.35
-15.35 135.21 21.14 -0.34 -0.88 0.32 -0.26
-15.58 128.96 33.69 -0.90 -0.30 0.30 0.01
-18.28 138.82 23.74 -0.11 0.36 0.93 -0.18
-15.94 135.18 32.40 0.08 0.91 0.40 0.51
-17.44 139.39 23.86 -0.29 0.44 0.85 -0.77
-15.83 126.89 29.74 -0.95 -0.30 0.07 -1.65
-14.07 139.05 26.76 -0.87 0.41 0.26 -0.05
-14.62 138.82 25.27 -0.23 0.90 0.36 -0.71
-12.74 133.22 21.36 -0.98 -0.12 0.16 -0.12
-13.18 134.17 21.10 -0.65 -0.74 0.19 0.29
-13.81 139.08 27.86 -0.87 0.32 0.38 0.04
-12.91 127.75 23.88 -0.84 0.08 -0.54 -0.59
-14.04 135.06 32.00 -0.05 0.79 0.61 0.21
-13.80 126.70 25.14 -0.90 -0.30 -0.31 -0.85
-13.29 138.48 29.16 -0.79 0.44 0.44 0.04
-15.15 127.34 32.23 -0.94 -0.27 0.19 -0.20
-16.59 135.61 21.42 -0.19 -0.80 0.57 -1.83
-12.91 131.87 21.32 -0.99 0.11 0.08 -0.46
-19.16 136.47 22.53 0.18 -0.93 0.31 -0.09
-17.76 136.23 21.70 -0.14 -0.82 0.55 -0.44
-19.72 138.41 24.17 0.20 0.21 0.96 -0.73
-16.50 134.93 33.58 -0.32 0.80 0.50 0.32
-14.71 134.63 20.06 -0.14 -0.85 0.51 0.31
-12.71 129.40 22.90 -0.99 -0.11 0.09 -0.14
-14.63 130.08 34.82 -0.55 -0.19 0.81 0.18
-16.20 133.64 34.57 -0.40 0.27 0.88 0.77
-13.74 136.63 31.78 -0.85 0.10 0.51 0.16
-14.13 139.32 25.66 -0.85 0.52 -0.08 -0.11
-12.98 130.80 21.73 -0.99 0.04 0.12 -0.54
-13.38 125.88 26.07 -0.80 -0.60 0.04 -0.28
-16.12 134.89 20.60 0.16 -0.68 0.72 -0.27
-19.92 136.32 23.57 0.39 -0.78 0.49 -1.41
-16.03 139.83 23.90 0.04 0.65 0.76 -0.82
-14.56 134.58 33.22 0.27 0.88 0.38 0.93
-13.55 137.87 31.43 -0.75 0.56 0.35 0.18
-14.47 131.32 35.32 -0.11 -0.09 0.99 0.17
-14.79 125.41 29.12 -0.59 -0.72 -0.37 -0.41
-12.85 132.80 20.27 -0.98 -0.10 0.16 -0.32
-13.00 135.55 32.11 -0.59 0.15 0.79 -0.19
-15.12 132.64 35.43 -0.22 0.23 0.95 0.23
-14.88 127.79 34.54 -0.67 -0.29 0.68 -0.71
-18.60 140.33 23.33 -0.25 0.65 0.72 -0.15
-12.40 125.12 26.54 -0.48 -0.87 0.10 0.23
-13.92 140.33 27.17 -0.91 0.33 0.25 0.04
-12.70 138.45 30.76 -0.73 0.65 0.19 0.02
-19.64 139.84 23.53 -0.24 0.60 0.76 -0.04
-13.16 134.51 32.49 -0.39 0.69 0.61 -0.15
-13.69 139.41 24.19 -0.66 0.72 0.23 -0.25
-13.08 125.69 24.42 -0.73 -0.47 -0.50 -0.14
-20.61 138.36 24.74 0.07 0.52 0.85 -0.99
-12.98 131.74 20.12 -0.99 0.08 0.10 -0.39
-13.10 140.48 28.35 -0.68 0.51 0.52 0.13
-12.37 126.22 23.47 -0.40 -0.49 -0.78 0.02
-15.38 134.65 34.17 0.17 0.80 0.58 0.39
-18.82 136.18 21.44 -0.04 -0.79 0.61 0.13
-16.98 141.12 23.21 -0.19 0.75 0.64 -2.45
-12.89 137.02 32.53 -0.58 0.13 0.80 0.09
-15.32 125.92 31.46 -0.78 -0.44 0.45 -0.12
-13.08 124.94 28.93 -0.42 -0.74 -0.52 0.21
-11.96 124.96 28.04 -0.66 -0.69 -0.32 0.81
-18.05 135.20 21.07 -0.07 -0.39 0.92 0.14
-12.13 139.41 30.20 -0.47 0.78 0.41 0.00
-11.60 127.41 22.39 0.03 -0.77 -0.64 0.21
-20.81 135.84 23.09 0.16 -0.95 0.25 -0.43
-13.44 134.11 33.44 0.02 0.87 0.49 0.24
-13.87 126.12 32.95 -0.46 -0.74 0.50 -0.66
-14.44 133.70 18.86 -0.12 -0.94 0.31 0.69
-13.01 129.63 20.89 -0.96 -0.27 -0.05 -0.44
-13.27 133.47 19.15 -0.71 -0.58 0.40 0.07
-14.74 139.69 23.38 -0.11 0.64 0.76 -0.17
-14.62 126.74 34.00 -0.61 -0.70 0.38 -1.27
-20.57 139.59 23.02 -0.27 0.81 0.52 0.13
-12.68 124.74 25.27 -0.42 -0.90 -0.10 0.08
-13.79 140.78 25.94 -0.77 0.59 -0.26 0.02
-18.46 140.77 22.26 -0.34 0.90 0.27 -0.19
-12.98 130.09 35.51 0.02 -0.04 1.00 0.03
-14.35 133.85 34.34 0.20 0.71 0.67 0.74
-14.63 124.80 30.73 -0.64 -0.74 0.21 0.02
-13.71 128.56 35.11 -0.12 -0.19 0.97 -0.53
-20.93 136.99 24.87 0.07 -0.38 0.92 -1.62
-15.33 133.31 19.04 0.24 -0.90 0.36 0.65
-12.48 138.05 32.30 -0.58 0.50 0.64 0.01
-20.88 135.90 21.43 0.07 -1.00 0.06 0.42
-13.04 140.54 24.83 -0.80 0.59 -0.14 0.42
-13.79 133.15 35.04 0.20 0.47 0.86 0.17
-12.27 128.08 21.26 -0.60 -0.78 -0.15 0.79
-11.37 124.57 27.01 -0.51 -0.76 -0.39 0.46
-17.40 133.73 20.77 0.29 -0.54 0.79 0.03
-13.30 140.34 23.87 -0.64 0.54 0.54 -0.58
-13.02 131.93 34.86 0.20 0.14 0.97 0.11
-11.84 125.23 24.22 0.00 -0.79 -0.62 0.05
-12.01 139.03 31.94 -0.68 0.59 0.43 0.18
-20.04 140.36 22.08 -0.35 0.90 0.26 0.15
-13.16 132.34 18.68 -0.96 -0.27 0.03 -0.22
-12.48 134.43 33.76 -0.56 0.69 0.47 -1.03
-11.01 124.90 25.53 0.03 -0.97 -0.24 0.15
-13.77 124.23 30.17 -0.33 -0.95 -0.01 0.20
-11.75 135.70 33.23 -0.75 0.45 0.49 -0.61
-14.36 125.69 32.16 -0.46 -0.67 0.59 -0.08
-12.13 140.41 29.45 -0.20 0.71 0.67 0.07
-11.61 140.99 28.72 -0.03 0.78 0.62 0.12
-16.45 133.24 19.07 0.36 -0.82 0.45 0.83
-21.77 136.13 23.74 -0.10 -0.83 0.55 -0.44
-12.65 141.78 26.94 -0.52 0.84 0.18 0.13
-14.97 141.27 22.80 0.01 0.53 0.85 -0.14
-16.12 141.73 22.24 -0.28 0.83 0.48 -0.42
-22.04 138.66 23.90 -0.36 0.64 0.68 -0.52
-10.56 128.20 22.59 0.56 -0.83 -0.04 0.28
-13.08 126.67 34.62 -0.03 -0.60 0.80 -0.93
-13.26 131.24 18.54 -0.97 -0.10 -0.21 -0.04
3 179 174 125
3 154 166 174
3 165 114 168
3 125 114 165
3 125 165 179
3 125 88 114
3 129 115 88
3 88 115 73
3 115 129 166
3 166 143 115
3 143 166 123
3 111 93 79
3 79 93 66
3 66 93 55
3 116 78 81
3 35 78 44
3 78 124 134
3 171 181 134
3 160 155 198
3 155 160 105
3 188 155 147
3 105 147 155
3 130 91 105
3 168 114 130
3 91 130 114
3 38 61 56
3 56 73 38
3 56 61 88
3 88 73 56
3 61 38 22
3 38 43 18
3 18 43 28
3 28 43 20
3 20 43 41
3 41 43 79
3 43 73 79
3 54 55 25
3 35 26 14
3 35 14 25
3 25 14 9
3 24 26 50
3 37 24 50
3 50 26 44
3 100 69 104
3 69 100 70
3 69 70 44
3 133 100 141
3 141 104 151
3 189 190 141
3 132 185 176
3 147 105 95
3 95 105 62
3 89 48 52
3 76 52 57
3 10 27 12
3 27 62 45
3 22 45 65
3 18 8 22
3 8 18 2
3 8 2 12
3 12 2 3
3 2 1 0
3 2 0 3
3 6 9 14
3 6 14 16
3 37 46 16
3 94 86 122
3 50 97 86
3 70 50 44
3 133 163 117
3 119 132 87
3 87 132 149
3 149 148 87
3 87 89 52
3 87 52 103
3 103 52 76
3 103 84 101
3 57 101 84
3 57 80 101
3 113 101 80
3 71 113 80
3 31 57 42
3 31 10 11
3 11 3 5
3 15 5 17
3 13 6 16
3 33 16 34
3 34 74 53
3 172 108 121
3 74 83 108
3 83 121 108
3 139 110 161
3 161 110 135
3 135 110 92
3 135 182 161
3 164 182 131
3 131 145 164
3 92 94 131
3 145 131 94
3 195 145 194
3 145 122 194
3 194 122 159
3 113 118 157
3 118 113 82
3 82 113 71
3 31 11 29
3 13 32 17
3 17 32 36
3 33 53 32
3 32 53 58
3 77 53 85
3 85 106 77
3 120 106 150
3 150 177 120
3 120 177 191
3 157 140 199
3 127 140 107
3 140 118 107
3 107 82 98
3 49 82 60
3 60 47 30
3 36 30 17
3 58 64 36
3 98 99 127
3 99 58 112
3 112 58 90
3 170 112 191
3 25 9 21
3 25 21 39
3 9 7 21
3 136 154 184
3 136 184 187
3 136 187 128
3 123 154 102
3 102 154 136
3 102 136 128
3 123 166 154
3 67 55 93
3 67 102 81
3 81 102 128
3 81 128 116
3 102 67 123
3 123 67 93
3 81 51 67
3 67 51 35
3 35 51 78
3 78 51 81
3 69 44 78
3 104 69 78
3 104 78 134
3 151 104 134
3 151 134 181
3 65 105 91
3 65 91 61
3 45 62 65
3 105 65 62
3 38 18 22
3 35 25 67
3 67 25 55
3 14 26 24
3 96 70 100
3 96 100 133
3 132 176 149
3 42 23 31
3 23 42 52
3 23 52 48
3 52 42 57
3 27 23 48
3 23 27 10
3 23 10 31
3 19 27 45
3 22 19 45
3 27 19 12
3 19 8 12
3 8 19 22
3 7 2 18
3 4 0 6
3 6 0 1
3 9 6 1
3 24 16 14
3 37 16 24
3 46 83 74
3 110 83 92
3 92 83 46
3 86 94 46
3 46 94 92
3 70 72 50
3 72 70 96
3 50 72 97
3 97 72 117
3 117 72 96
3 117 96 133
3 159 97 137
3 159 137 178
3 163 173 117
3 117 173 137
3 117 137 97
3 178 137 173
3 87 103 119
3 152 101 113
3 71 80 59
3 71 59 47
3 59 80 57
3 29 47 59
3 29 59 31
3 57 31 59
3 15 11 5
3 4 17 5
3 4 5 0
3 0 5 3
3 13 4 6
3 17 4 13
3 74 34 46
3 85 53 74
3 106 85 109
3 109 85 74
3 109 74 108
3 150 106 109
3 150 109 144
3 144 109 108
3 108 172 144
3 159 122 97
3 86 97 122
3 113 175 152
3 157 175 113
3 107 118 82
3 15 17 30
3 30 29 15
3 15 29 11
3 30 47 29
3 77 58 53
3 58 77 90
3 90 77 106
3 90 106 120
3 90 120 112
3 112 120 191
3 183 199 140
3 127 158 183
3 127 183 140
3 99 98 68
3 68 64 99
3 68 98 75
3 75 98 82
3 49 68 75
3 49 75 82
3 49 30 36
3 30 49 60
3 36 64 68
3 36 68 49
3 112 156 99
3 158 127 99
3 158 99 156
3 170 156 112
3 128 146 116
3 129 125 174
3 174 166 129
3 129 88 125
3 143 111 115
3 143 123 93
3 143 93 111
3 115 111 79
3 171 134 124
3 171 124 146
3 146 124 116
3 124 78 116
3 160 198 130
3 168 130 198
3 105 160 130
3 114 61 91
3 114 88 61
3 38 73 43
3 115 79 73
3 66 41 79
3 66 55 54
3 44 26 35
3 104 141 100
3 151 189 141
3 186 167 126
3 126 148 186
3 167 188 147
3 167 147 95
3 167 95 126
3 63 95 62
3 63 62 27
3 63 27 48
3 63 48 89
3 63 89 95
3 61 22 65
3 20 21 7
3 28 20 18
3 7 18 20
3 1 2 7
3 9 1 7
3 39 40 54
3 39 54 25
3 39 21 40
3 40 21 20
3 40 20 41
3 40 41 54
3 66 54 41
3 46 37 50
3 86 46 50
3 163 133 193
3 133 141 193
3 141 190 193
3 138 162 119
3 162 138 180
3 132 162 185
3 162 132 119
3 185 162 180
3 126 95 89
3 148 126 87
3 89 87 126
3 57 84 76
3 76 84 103
3 12 3 10
3 10 3 11
3 33 13 16
3 46 34 16
3 139 196 169
3 192 153 169
3 169 153 121
3 169 121 110
3 83 110 121
3 139 169 110
3 161 196 139
3 131 182 135
3 131 135 92
3 94 122 145
3 142 101 152
3 180 138 142
3 142 138 101
3 138 103 101
3 103 138 119
3 13 33 32
3 34 53 33
3 153 172 121
3 140 157 118
3 107 98 127
3 82 71 60
3 71 47 60
3 32 58 36
3 64 58 99
