ply
format ascii 1.0
comment Generated by MaSIF
element vertex 197
property float x
property float y
property float z
property float nx
property float ny
property float nz
property float charge
element face 342
property list uchar int vertex_indices
end_header
-15.14 130.94 28.73 -0.72 0.53 -0.45 -1.51
-15.81 129.84 28.12 -0.51 0.23 -0.83 -1.78
-14.22 130.03 27.90 -0.55 0.25 -0.80 -1.03
-14.36 132.24 28.41 -0.99 -0.01 -0.11 -1.51
-15.56 130.96 30.62 -0.78 0.63 -0.05 -0.96
-16.74 129.96 29.06 -0.86 0.43 -0.28 -2.00
-13.84 131.35 27.31 -0.79 -0.11 -0.60 -1.74
-14.19 132.72 29.45 -0.99 0.10 -0.13 -0.43
-14.95 131.76 30.96 -0.88 0.37 -0.29 0.01
-14.03 129.26 27.28 -0.64 0.48 -0.60 -0.03
-15.27 128.50 27.80 -0.78 0.23 -0.58 -0.63
-14.41 133.39 28.63 -0.92 -0.38 0.07 -0.37
-16.55 128.42 29.28 -0.88 -0.28 -0.39 -1.35
-13.23 129.63 26.58 -0.72 0.24 -0.65 -0.16
-14.13 132.46 26.75 -0.77 -0.33 -0.55 -1.93
-16.67 129.48 30.59 -0.98 0.19 0.10 -1.65
-14.68 133.52 27.45 -0.88 -0.46 -0.15 -0.41
-15.20 132.04 32.00 -0.98 0.14 -0.17 0.23
-14.69 133.61 30.18 -0.90 -0.33 -0.28 0.68
-12.69 131.64 26.08 -0.71 -0.17 -0.68 -1.49
-15.27 127.99 26.99 -0.78 0.48 -0.40 -0.42
-15.62 130.53 32.75 -0.94 0.26 0.20 -0.20
-13.57 128.40 25.77 -0.53 0.61 -0.59 -0.93
-15.27 126.98 28.65 -0.91 -0.42 -0.05 -1.02
-15.27 134.45 29.42 -0.87 -0.50 -0.01 0.10
-13.97 133.60 26.22 -0.62 -0.50 -0.60 0.27
-16.43 127.59 30.71 -0.87 -0.48 -0.11 -0.41
-14.82 134.27 26.27 -0.73 -0.51 -0.46 0.20
-15.16 132.61 33.41 -0.91 0.27 0.31 0.01
-15.39 134.26 31.08 -0.98 -0.20 -0.06 0.55
-15.55 133.39 32.33 -0.98 0.02 0.22 0.11
-15.50 134.85 27.33 -0.89 -0.38 -0.24 -0.36
-12.79 132.85 25.73 -0.72 -0.39 -0.57 -1.05
-15.39 126.64 26.64 -0.97 0.02 -0.24 -0.85
-12.28 128.85 25.27 -0.83 0.48 -0.28 -0.07
-11.91 131.80 25.00 -0.91 -0.25 -0.32 -0.56
-11.97 130.37 25.24 -0.92 0.10 -0.38 -0.23
-16.45 129.15 32.60 -0.84 0.16 0.51 -0.12
-14.59 127.70 25.71 -0.64 0.39 -0.66 -1.60
-15.27 126.16 27.86 -0.97 -0.12 0.20 -0.28
-14.92 129.27 34.01 -0.68 -0.20 0.70 -0.66
-12.81 128.20 24.81 -0.76 0.63 -0.17 -0.10
-15.63 135.41 29.93 -0.90 -0.42 0.06 0.45
-15.23 130.51 34.66 -0.81 -0.15 0.56 -1.27
-16.39 127.66 32.44 -0.87 -0.24 0.42 0.02
-15.43 134.44 32.19 -0.92 0.17 0.34 0.33
-12.98 133.66 25.28 -0.77 -0.56 -0.30 -0.56
-14.95 131.69 34.71 -0.66 0.32 0.68 -0.71
-14.67 125.30 28.68 -0.80 -0.46 0.39 0.23
-12.11 129.63 24.60 -0.95 0.31 0.05 0.04
-14.26 126.61 25.16 -0.77 0.21 -0.60 -0.59
-12.19 132.45 24.16 -0.87 -0.49 -0.02 -0.61
-14.98 135.86 25.67 -0.75 0.16 -0.64 0.44
-15.63 128.83 33.41 -0.64 -0.11 0.76 -0.08
-16.08 135.91 28.15 -0.95 -0.30 -0.08 -0.18
-15.58 136.32 26.82 -0.72 0.05 -0.69 0.42
-15.24 125.22 26.45 -0.91 -0.26 -0.34 -0.14
-15.12 126.39 30.87 -0.75 -0.63 -0.22 0.21
-13.77 134.73 24.80 -0.79 -0.43 -0.43 -0.11
-15.93 126.60 32.23 -0.70 -0.63 0.33 0.20
-15.82 135.92 30.89 -0.97 -0.08 0.23 0.37
-13.71 133.54 34.09 -0.49 0.41 0.77 0.18
-15.09 135.77 32.31 -0.78 0.32 0.54 0.75
-11.70 131.14 23.78 -1.00 0.01 -0.03 0.05
-14.20 125.57 30.15 -0.91 -0.40 -0.08 0.81
-12.54 128.96 23.72 -0.88 0.47 0.12 -0.24
-14.41 134.98 33.14 -0.59 0.29 0.75 0.52
-13.82 128.61 34.68 -0.02 -0.43 0.90 -0.04
-15.21 124.62 27.65 -0.77 -0.59 0.23 0.08
-13.46 127.48 23.63 -0.93 0.37 0.04 -0.14
-13.81 130.03 35.39 -0.20 -0.16 0.97 -0.93
-15.13 127.68 33.47 -0.52 -0.33 0.79 0.23
-13.94 124.59 29.42 -0.83 -0.55 -0.10 0.46
-13.51 132.03 35.03 -0.09 0.28 0.96 -0.53
-12.85 133.42 23.86 -0.84 -0.54 0.10 -0.65
-14.35 124.23 26.56 -0.40 -0.88 -0.25 0.05
-13.87 127.55 34.09 -0.20 -0.33 0.92 0.35
-14.47 124.97 25.44 -0.64 -0.53 -0.56 0.02
-13.83 136.19 25.07 -0.74 0.58 -0.34 0.31
-13.62 124.12 27.97 -0.42 -0.89 0.17 0.15
-12.18 129.87 23.02 -0.92 0.39 0.04 0.03
-11.70 130.93 22.57 -0.98 0.18 -0.07 0.21
-12.98 134.68 34.06 -0.04 0.36 0.93 0.17
-14.93 137.80 26.70 -0.14 0.50 -0.85 0.70
-16.08 137.77 27.29 -0.79 0.42 -0.44 0.45
-16.20 137.50 28.82 -0.84 0.51 0.17 0.47
-14.81 125.84 32.49 -0.89 -0.35 0.28 1.51
-13.83 135.01 23.49 -0.98 -0.18 0.12 -0.45
-13.38 125.17 24.05 -0.37 -0.89 -0.28 0.21
-13.83 137.19 26.58 0.17 0.79 -0.59 0.35
-11.87 131.89 22.48 -0.87 -0.48 0.12 -0.14
-12.52 128.76 34.25 0.48 -0.31 0.82 0.13
-12.16 133.11 34.86 0.10 0.36 0.93 0.03
-14.96 137.62 30.63 -0.41 0.81 0.41 0.93
-14.39 126.81 33.41 -0.55 -0.25 0.80 0.87
-14.55 124.47 31.19 -0.95 -0.16 -0.27 0.47
-13.61 137.01 32.30 -0.15 0.74 0.66 0.77
-12.87 132.78 22.29 -0.80 -0.58 0.18 -0.44
-12.40 129.46 22.07 -0.84 0.54 -0.02 -0.45
-12.99 136.07 33.58 -0.01 0.66 0.75 0.23
-12.89 123.96 28.58 -0.52 -0.83 -0.19 0.05
-13.71 123.55 30.10 -0.63 -0.51 -0.59 0.40
-12.45 130.88 34.90 0.35 -0.22 0.91 -0.40
-13.01 124.18 26.06 0.01 -0.83 -0.56 0.17
-14.68 138.45 27.70 -0.01 0.96 -0.27 0.36
-13.65 136.29 23.98 -0.84 0.52 0.16 -0.00
-13.22 128.27 21.98 -0.86 0.51 0.00 -0.54
-11.75 130.14 21.74 -0.93 0.37 -0.04 -0.04
-12.72 137.32 25.27 -0.45 0.89 0.10 0.22
-13.81 125.56 22.70 -0.89 -0.43 0.12 0.79
-13.84 126.99 21.67 -0.98 0.18 -0.02 -0.44
-11.74 131.00 21.27 -0.97 -0.15 0.17 0.26
-12.96 126.30 34.01 -0.00 0.22 0.97 0.53
-12.74 136.87 26.74 0.07 0.97 0.21 0.12
-13.50 133.88 22.36 -0.86 -0.47 0.19 -0.70
-12.08 125.44 24.01 0.14 -0.93 0.34 0.28
-14.92 138.45 29.03 -0.03 0.97 0.25 0.82
-14.63 124.50 32.48 -1.00 0.03 0.07 0.76
-11.47 134.37 33.53 0.33 0.41 0.85 0.11
-14.10 134.97 21.98 -0.91 -0.31 0.27 -0.70
-11.84 127.57 33.61 0.47 -0.03 0.88 0.78
-11.58 128.79 33.28 0.58 -0.16 0.80 0.21
-12.74 128.93 21.19 -0.83 0.55 -0.06 -0.46
-12.47 137.32 31.61 0.55 0.80 0.23 0.39
-12.32 131.90 21.19 -0.78 -0.56 0.28 0.11
-13.42 137.80 30.86 0.11 0.99 0.11 0.32
-11.61 135.76 33.15 0.47 0.63 0.62 0.17
-13.97 125.57 34.07 -0.71 0.38 0.59 0.46
-14.60 123.06 31.22 -0.86 -0.29 -0.41 0.29
-11.85 123.65 26.82 -0.02 -0.93 -0.37 0.17
-13.85 137.04 23.14 -0.76 0.55 0.36 0.76
-13.41 137.98 28.37 0.57 0.82 -0.08 -0.21
-13.03 132.51 20.75 -0.81 -0.53 0.26 -0.11
-12.00 129.97 20.71 -0.91 0.39 0.11 -0.12
-10.44 132.84 34.82 -0.18 0.45 0.87 -0.95
-10.86 133.66 33.60 0.13 0.64 0.76 -0.09
-11.98 124.79 22.84 -0.29 -0.86 0.42 0.52
-11.88 136.30 32.18 0.55 0.76 0.35 0.74
-12.42 122.97 29.97 -0.31 -0.82 -0.48 0.48
-11.27 131.12 34.63 -0.04 -0.32 0.94 -0.23
-11.35 123.12 28.38 -0.07 -0.92 -0.38 -0.61
-11.89 124.89 25.70 0.22 -0.82 -0.53 0.14
-12.93 137.30 29.74 0.51 0.86 0.01 0.51
-11.68 137.37 24.72 0.10 0.99 0.12 0.21
-14.25 136.83 21.94 -0.66 0.60 0.45 0.41
-11.76 136.47 26.81 0.06 0.96 0.27 0.12
-11.14 125.63 24.49 -0.03 -0.99 -0.16 -0.09
-12.99 122.25 30.74 -0.27 -0.76 -0.60 0.41
-13.77 126.33 20.65 -0.99 -0.15 0.01 0.04
-13.87 134.03 21.03 -0.85 -0.49 0.17 -0.48
-12.28 136.77 28.47 0.46 0.88 -0.04 0.23
-13.33 124.76 21.73 -0.68 -0.74 0.03 1.34
-12.51 137.43 23.24 -0.04 1.00 0.02 0.24
-10.90 130.08 33.52 0.19 -0.67 0.72 0.46
-14.63 124.35 33.61 -0.95 0.29 0.09 0.67
-12.00 130.84 20.06 -0.88 -0.25 0.41 0.29
-11.63 126.15 33.45 0.49 0.37 0.79 0.28
-12.87 125.31 34.75 0.04 0.70 0.72 0.52
-11.86 136.54 30.85 0.66 0.75 0.02 0.93
-12.97 128.39 20.13 -0.85 0.53 -0.03 -0.39
-14.58 122.46 32.14 -0.88 -0.27 -0.39 0.67
-10.73 125.26 23.50 -0.40 -0.75 0.53 0.34
-12.38 129.26 19.86 -0.91 0.40 0.10 -0.32
-10.48 135.43 32.62 0.07 0.80 0.59 -0.26
-10.87 124.68 26.10 0.05 -0.84 -0.54 -0.03
-11.90 124.36 21.78 -0.47 -0.88 0.10 0.48
-13.88 124.73 35.16 -0.55 0.66 0.51 0.53
-10.26 129.12 32.64 0.21 -0.43 0.88 0.14
-10.51 126.97 32.71 0.69 0.02 0.72 -0.35
-10.42 131.19 35.05 -0.24 -0.38 0.89 -0.92
-13.59 133.48 20.18 -0.80 -0.48 0.36 -0.46
-9.81 134.28 33.33 -0.29 0.51 0.81 -0.33
-10.19 127.92 32.56 0.58 -0.13 0.81 -1.18
-11.05 135.76 31.33 0.44 0.89 0.11 0.24
-13.50 132.63 19.48 -0.66 -0.44 0.61 -0.26
-10.69 122.55 29.36 0.16 -0.96 -0.22 -1.11
-9.27 131.78 35.24 0.26 -0.10 0.96 -1.11
-10.60 136.85 26.71 -0.36 0.93 0.13 0.06
-10.43 123.79 27.74 -0.05 -0.89 -0.45 -0.31
-10.55 137.17 25.08 -0.23 0.97 0.12 -0.12
-10.63 137.15 24.04 -0.12 0.99 -0.09 -0.18
-11.48 137.05 23.26 -0.04 0.99 -0.15 -0.40
-11.23 136.58 27.94 -0.24 0.96 0.16 0.10
-13.25 124.99 20.58 -0.73 -0.68 0.03 0.36
-14.93 123.27 33.42 -0.97 0.20 -0.10 0.97
-13.47 121.85 31.83 -0.27 -0.68 -0.68 1.03
-13.85 125.86 19.46 -0.97 -0.20 -0.10 0.30
-15.08 135.99 20.48 -0.67 -0.49 0.56 -0.14
-11.02 122.42 30.82 0.54 -0.84 -0.08 0.07
-10.84 123.88 22.75 -0.73 -0.25 0.63 1.18
-9.98 125.09 24.88 -0.54 -0.83 -0.11 0.15
-14.40 134.55 19.94 -0.73 -0.47 0.49 -0.80
-11.21 123.76 21.68 -0.79 -0.61 0.11 0.97
-14.58 123.59 34.70 -0.90 0.36 0.24 1.17
-8.68 133.43 34.68 -0.24 -0.07 0.97 -0.05
-11.31 136.21 29.59 0.36 0.90 0.23 0.21
-11.39 124.90 34.65 0.59 0.50 0.64 0.41
3 176 194 134
3 134 194 171
3 153 169 139
3 153 139 102
3 169 134 139
3 139 134 92
3 92 134 135
3 171 163 118
3 118 163 126
3 118 126 82
3 173 126 163
3 173 137 126
3 172 120 168
3 76 120 91
3 91 120 121
3 153 102 91
3 102 92 73
3 92 61 73
3 82 61 92
3 135 118 92
3 82 92 118
3 82 66 61
3 99 96 66
3 66 96 62
3 96 99 137
3 137 123 96
3 123 137 158
3 125 142 93
3 93 142 116
3 116 142 131
3 113 177 143
3 154 193 166
3 154 184 193
3 117 154 127
3 127 86 117
3 157 112 127
3 127 112 94
3 112 76 94
3 94 76 71
3 40 71 76
3 43 40 70
3 67 70 40
3 70 67 102
3 91 102 67
3 40 43 21
3 53 40 37
3 21 37 40
3 47 28 21
3 73 61 47
3 28 47 61
3 29 30 45
3 45 62 29
3 45 30 66
3 66 62 45
3 30 29 18
3 29 60 24
3 24 60 42
3 42 60 54
3 54 60 85
3 85 60 93
3 60 62 93
3 104 131 89
3 113 108 78
3 113 78 89
3 89 78 52
3 105 108 152
3 130 105 152
3 152 108 143
3 179 180 143
3 178 140 164
3 164 140 129
3 129 140 79
3 175 188 138
3 147 138 188
3 147 160 128
3 128 160 117
3 147 101 138
3 138 101 100
3 48 79 72
3 101 95 72
3 57 95 86
3 95 117 86
3 57 86 59
3 86 94 59
3 37 21 15
3 15 21 4
3 12 1 10
3 20 10 22
3 6 0 3
3 0 4 8
3 18 8 17
3 24 11 18
3 11 24 16
3 11 16 3
3 3 16 14
3 16 27 25
3 16 25 14
3 58 52 78
3 58 78 87
3 130 144 87
3 180 152 143
3 190 164 146
3 129 103 164
3 141 164 103
3 88 141 103
3 79 75 129
3 103 129 75
3 39 48 23
3 23 48 64
3 64 57 23
3 23 12 10
3 23 10 33
3 33 10 20
3 33 38 50
3 22 50 38
3 22 41 50
3 69 50 41
3 65 69 41
3 13 22 9
3 13 6 19
3 19 14 32
3 35 32 51
3 74 58 87
3 114 87 119
3 119 187 149
3 165 192 136
3 189 136 192
3 136 88 109
3 69 106 110
3 106 69 98
3 98 69 65
3 13 19 36
3 74 97 51
3 51 97 90
3 114 149 97
3 97 149 132
3 170 149 191
3 151 148 183
3 148 186 183
3 162 159 122
3 159 106 122
3 122 98 133
3 81 98 80
3 80 49 63
3 90 63 51
3 132 124 90
3 133 155 162
3 77 103 75
3 89 52 55
3 89 55 83
3 52 31 55
3 120 172 121
3 121 172 167
3 153 121 167
3 92 102 139
3 135 134 171
3 135 171 118
3 158 173 195
3 157 196 156
3 157 156 112
3 76 112 120
3 120 112 156
3 91 121 153
3 158 137 173
3 150 131 142
3 150 195 182
3 195 150 158
3 158 150 142
3 182 145 150
3 150 145 113
3 113 145 177
3 177 145 182
3 179 143 177
3 94 86 127
3 53 71 40
3 17 21 28
3 17 28 30
3 8 4 17
3 21 17 4
3 29 24 18
3 113 89 150
3 150 89 131
3 78 108 105
3 100 79 140
3 100 140 138
3 147 185 160
3 154 117 160
3 154 160 184
3 100 72 79
3 72 100 101
3 48 72 64
3 64 72 95
3 57 64 95
3 9 2 13
3 2 9 10
3 2 10 1
3 10 9 22
3 0 2 1
3 2 0 6
3 2 6 13
3 7 0 8
3 18 7 8
3 0 7 3
3 7 11 3
3 11 7 18
3 31 16 24
3 46 25 58
3 58 25 27
3 52 58 27
3 105 87 78
3 130 87 105
3 180 181 152
3 141 146 164
3 23 33 39
3 88 50 69
3 65 41 34
3 65 34 49
3 34 41 22
3 36 49 34
3 36 34 13
3 22 13 34
3 35 19 32
3 46 51 32
3 46 32 25
3 25 32 14
3 74 46 58
3 51 46 74
3 187 119 144
3 191 149 187
3 115 136 161
3 161 136 189
3 146 161 190
3 115 161 146
3 88 115 146
3 141 88 146
3 136 115 88
3 69 109 88
3 110 109 69
3 122 106 98
3 35 51 63
3 63 36 35
3 35 36 19
3 63 49 36
3 170 132 149
3 132 170 174
3 110 148 151
3 155 133 111
3 111 124 155
3 111 133 107
3 107 133 98
3 81 111 107
3 81 107 98
3 81 63 90
3 63 81 80
3 90 124 111
3 90 111 81
3 176 134 169
3 168 120 156
3 99 82 126
3 126 137 99
3 99 66 82
3 123 125 96
3 123 158 142
3 123 142 125
3 96 125 93
3 166 157 127
3 166 127 154
3 67 76 91
3 76 67 40
3 102 73 70
3 43 70 47
3 73 47 70
3 21 43 47
3 61 30 28
3 61 66 30
3 29 62 60
3 96 93 62
3 116 85 93
3 116 131 104
3 143 108 113
3 138 140 175
3 95 128 117
3 147 128 101
3 128 95 101
3 59 44 26
3 26 57 59
3 59 94 71
3 59 71 44
3 53 44 71
3 44 53 37
3 44 37 15
3 44 15 26
3 5 15 4
3 5 4 0
3 5 0 1
3 5 1 12
3 5 12 15
3 30 18 17
3 54 55 31
3 42 54 24
3 31 24 54
3 27 16 31
3 52 27 31
3 83 84 104
3 83 104 89
3 83 55 84
3 84 55 54
3 84 54 85
3 84 85 104
3 116 104 85
3 144 130 152
3 56 68 39
3 68 56 75
3 48 68 79
3 68 48 39
3 79 68 75
3 26 15 12
3 57 26 23
3 12 23 26
3 22 38 20
3 20 38 33
3 3 14 6
3 6 14 19
3 114 74 87
3 144 119 87
3 77 50 88
3 103 77 88
3 75 56 77
3 77 56 50
3 56 33 50
3 33 56 39
3 74 114 97
3 119 149 114
3 151 109 110
3 136 109 151
3 136 151 165
3 159 110 106
3 122 133 162
3 98 65 80
3 65 49 80
3 97 132 90
3 124 132 155
