ply
format ascii 1.0
comment Generated by MaSIF
element vertex 195
property float x
property float y
property float z
property float nx
property float ny
property float nz
property float pb
element face 8
property list uchar int vertex_indices
end_header
-15.54 129.19 28.00 -0.60 0.33 -0.73 -1.78
-16.39 129.07 29.02 -0.91 0.40 -0.13 -2.00
-14.88 130.20 28.75 -0.79 0.55 -0.28 -1.51
-14.96 127.97 27.39 -0.84 0.27 -0.47 -0.63
-14.00 129.53 27.70 -0.64 0.34 -0.69 -1.03
-16.08 127.53 28.93 -0.89 -0.27 -0.36 -1.35
-15.00 127.61 26.51 -0.84 0.49 -0.24 -0.42
-16.14 128.32 30.43 -0.97 0.10 0.21 -1.65
-13.82 128.90 26.92 -0.72 0.53 -0.45 -0.03
-14.78 126.33 27.95 -0.88 -0.47 -0.05 -1.02
-14.21 131.60 28.61 -1.00 -0.07 -0.03 -1.51
-15.12 129.86 30.64 -0.81 0.57 0.13 -0.96
-13.75 130.96 27.32 -0.84 -0.06 -0.54 -1.74
-15.78 126.46 30.17 -0.85 -0.51 -0.12 -0.41
-13.11 129.45 26.24 -0.80 0.29 -0.53 -0.16
-13.98 131.90 29.70 -1.00 0.05 -0.03 -0.43
-14.52 130.63 31.06 -0.93 0.35 -0.14 0.01
-15.07 126.34 25.93 -0.99 -0.01 -0.15 -0.85
-14.43 127.61 25.14 -0.72 0.45 -0.52 -1.60
-13.46 128.37 25.25 -0.62 0.67 -0.42 -0.93
-14.81 125.66 27.03 -0.94 -0.23 0.26 -0.28
-14.31 132.68 29.05 -0.89 -0.46 0.08 -0.37
-14.16 132.12 27.00 -0.80 -0.28 -0.54 -1.93
-15.71 127.65 32.32 -0.80 0.00 0.60 -0.12
-14.70 133.00 27.94 -0.86 -0.49 -0.16 -0.41
-14.69 130.70 32.16 -0.99 0.09 -0.05 0.23
-14.08 124.72 27.62 -0.73 -0.58 0.37 0.23
-12.74 131.55 26.08 -0.76 -0.10 -0.64 -1.49
-14.45 132.60 30.63 -0.90 -0.34 -0.26 0.68
-15.57 126.22 31.88 -0.81 -0.38 0.44 0.02
-14.86 124.99 25.47 -0.92 -0.26 -0.30 -0.14
-14.38 125.36 30.00 -0.72 -0.63 -0.27 0.21
-15.07 125.26 31.44 -0.63 -0.73 0.27 0.20
-14.09 126.66 24.38 -0.84 0.26 -0.48 -0.59
-14.95 129.05 32.65 -0.93 0.15 0.32 -0.20
-12.25 128.99 24.73 -0.88 0.46 -0.12 -0.07
-13.49 124.75 29.07 -0.89 -0.44 -0.07 0.81
-12.03 130.51 24.96 -0.96 0.10 -0.28 -0.23
-12.78 128.39 24.21 -0.80 0.59 0.01 -0.10
-14.79 127.26 32.98 -0.56 -0.29 0.78 -0.08
-14.68 124.19 26.52 -0.71 -0.68 0.18 0.08
-14.11 133.35 26.68 -0.64 -0.43 -0.63 0.27
-15.16 133.52 30.08 -0.83 -0.55 -0.03 0.10
-15.00 133.93 26.93 -0.74 -0.47 -0.48 0.20
-13.25 123.95 28.15 -0.80 -0.59 -0.13 0.46
-14.55 131.00 33.64 -0.89 0.14 0.43 0.01
-15.11 133.02 31.68 -0.96 -0.26 -0.02 0.55
-13.91 124.07 25.32 -0.37 -0.85 -0.38 0.05
-12.94 132.80 25.97 -0.75 -0.33 -0.57 -1.05
-15.09 131.93 32.76 -0.95 -0.09 0.30 0.11
-14.17 124.99 24.36 -0.66 -0.47 -0.59 0.02
-15.61 134.27 28.13 -0.89 -0.39 -0.23 -0.36
-12.08 131.96 24.99 -0.92 -0.26 -0.28 -0.56
-13.04 123.77 26.61 -0.34 -0.94 0.03 0.15
-12.19 129.89 24.21 -0.96 0.22 0.19 0.04
-14.23 126.16 32.78 -0.42 -0.50 0.75 0.23
-13.89 124.55 31.45 -0.84 -0.46 0.28 1.51
-14.06 127.63 33.59 -0.60 -0.38 0.71 -0.66
-12.66 129.36 23.26 -0.89 0.37 0.27 -0.24
-13.45 125.37 32.50 -0.45 -0.43 0.78 0.87
-13.67 123.46 29.91 -0.96 -0.18 -0.22 0.47
-13.50 127.85 22.97 -0.94 0.29 0.19 -0.14
-13.24 125.52 22.95 -0.34 -0.85 -0.41 0.21
-15.52 134.33 30.80 -0.87 -0.49 0.06 0.45
-14.37 128.71 34.48 -0.74 -0.31 0.59 -1.27
-11.95 131.55 23.65 -1.00 -0.06 0.05 0.05
-15.05 132.99 32.81 -0.90 0.04 0.44 0.33
-13.22 133.66 25.70 -0.76 -0.55 -0.34 -0.56
-12.24 123.55 27.12 -0.49 -0.82 -0.30 0.05
-12.89 122.82 28.60 -0.66 -0.44 -0.61 0.40
-14.16 129.88 34.72 -0.61 0.14 0.78 -0.71
-12.62 124.21 24.70 0.00 -0.71 -0.70 0.17
-12.47 132.73 24.31 -0.84 -0.55 -0.04 -0.61
-15.31 135.59 26.65 -0.82 0.22 -0.53 0.44
-14.12 134.73 25.49 -0.80 -0.41 -0.43 -0.11
-16.17 135.11 29.18 -0.94 -0.35 -0.06 -0.18
-15.82 135.79 27.91 -0.79 0.12 -0.61 0.42
-12.91 126.02 33.26 -0.09 -0.51 0.86 0.35
-15.65 134.65 31.84 -0.94 -0.19 0.29 0.37
-13.10 131.91 34.36 -0.44 0.22 0.87 0.18
-12.87 126.95 34.03 0.09 -0.59 0.81 -0.04
-14.78 134.30 33.15 -0.74 0.16 0.65 0.75
-12.43 130.40 22.71 -0.93 0.30 0.19 0.03
-13.63 123.26 31.18 -0.99 -0.05 0.15 0.76
-13.98 133.43 33.75 -0.53 0.10 0.84 0.52
-11.96 125.89 22.85 0.23 -0.96 0.15 0.28
-12.89 124.07 32.88 -0.67 0.21 0.71 0.46
-13.63 122.07 29.68 -0.88 -0.28 -0.38 0.29
-11.36 123.65 25.25 -0.00 -0.85 -0.53 0.17
-12.05 131.56 22.43 -0.99 0.11 0.05 0.21
-12.87 128.22 34.99 -0.10 -0.34 0.93 -0.93
-11.94 124.87 32.88 0.07 0.05 1.00 0.53
-13.81 126.11 21.73 -0.85 -0.51 0.11 0.79
-12.71 130.16 21.72 -0.87 0.47 0.15 -0.45
-13.22 133.68 24.25 -0.79 -0.61 0.07 -0.65
-11.58 122.37 28.26 -0.31 -0.74 -0.59 0.48
-12.28 132.50 22.53 -0.82 -0.56 0.10 -0.14
-13.46 128.94 21.49 -0.89 0.43 0.17 -0.54
-10.68 122.89 26.64 -0.05 -0.84 -0.54 -0.61
-11.58 125.06 24.39 0.21 -0.69 -0.69 0.14
-12.73 130.26 34.98 -0.02 0.09 1.00 -0.53
-14.24 136.11 26.02 -0.80 0.58 -0.16 0.31
-12.04 121.48 28.93 -0.28 -0.66 -0.70 0.41
-11.94 125.47 21.58 -0.20 -0.94 0.28 0.52
-14.03 127.70 21.00 -0.99 0.10 0.10 -0.44
-11.62 127.27 33.53 0.58 -0.41 0.70 0.13
-13.52 122.90 32.26 -0.96 0.20 0.22 0.67
-14.33 135.24 24.26 -0.95 -0.27 0.17 -0.45
-12.45 133.08 34.48 0.02 0.19 0.98 0.17
-15.28 137.31 28.02 -0.25 0.63 -0.73 0.70
-16.36 137.09 28.68 -0.86 0.43 -0.29 0.45
-16.31 136.54 30.14 -0.85 0.40 0.33 0.47
-10.99 126.06 23.28 0.01 -0.94 -0.34 -0.09
-14.16 136.82 27.69 0.06 0.90 -0.44 0.35
-13.50 121.31 30.47 -0.89 -0.27 -0.36 0.67
-11.72 123.77 33.41 0.07 0.56 0.83 0.52
-11.46 131.46 34.91 0.16 0.19 0.97 0.03
-14.92 136.43 31.83 -0.42 0.69 0.58 0.93
-12.14 130.93 21.48 -0.95 0.30 0.11 -0.04
-13.35 133.34 22.60 -0.74 -0.66 0.14 -0.44
-13.10 129.77 20.79 -0.87 0.49 0.11 -0.46
-10.93 126.27 32.63 0.55 -0.15 0.82 0.78
-13.38 135.63 33.25 -0.13 0.59 0.79 0.77
-10.52 124.86 24.65 0.04 -0.72 -0.69 -0.03
-12.65 123.06 33.79 -0.53 0.52 0.67 0.53
-13.39 125.54 20.60 -0.63 -0.78 -0.06 1.34
-12.22 131.86 21.17 -0.94 -0.25 0.22 0.26
-10.66 124.93 32.19 0.54 0.26 0.80 0.28
-10.66 125.90 22.20 -0.30 -0.86 0.41 0.34
-12.58 134.53 34.27 0.03 0.51 0.86 0.23
-11.62 129.25 34.56 0.45 -0.35 0.82 -0.40
-11.94 125.24 20.45 -0.40 -0.92 -0.02 0.48
-9.90 122.21 27.44 0.19 -0.89 -0.40 -1.11
-9.87 123.73 26.07 -0.04 -0.80 -0.60 -0.31
-14.17 136.42 24.96 -0.85 0.42 0.32 -0.00
-12.47 130.93 20.45 -0.92 0.29 0.25 -0.12
-14.02 127.23 19.87 -0.97 -0.22 0.06 0.04
-12.86 132.71 21.31 -0.71 -0.66 0.24 0.11
-14.97 137.79 29.10 -0.09 0.99 -0.08 0.36
-13.77 121.85 31.90 -0.99 0.14 0.02 0.97
-12.39 120.86 29.96 -0.30 -0.56 -0.77 1.03
-10.08 121.79 28.87 0.58 -0.77 -0.28 0.07
-13.19 137.27 26.34 -0.49 0.82 0.30 0.22
-13.32 121.97 33.18 -0.89 0.24 0.38 1.17
-10.79 127.55 32.51 0.67 -0.26 0.70 0.21
-14.04 134.35 22.92 -0.81 -0.56 0.18 -0.70
-13.04 136.56 27.70 0.04 0.92 0.38 0.12
-15.08 137.53 30.41 -0.07 0.90 0.42 0.82
-10.76 124.68 21.22 -0.65 -0.42 0.63 1.18
-8.71 123.15 27.01 0.73 -0.64 -0.25 -0.57
-10.65 120.73 29.82 0.43 -0.65 -0.63 0.45
-13.40 129.41 19.68 -0.87 0.46 0.14 -0.39
-14.73 135.44 22.80 -0.86 -0.42 0.28 -0.70
-9.77 125.55 23.47 -0.50 -0.84 -0.22 0.15
-10.98 132.98 33.78 0.39 0.27 0.88 0.11
-9.65 124.97 24.35 -0.43 -0.78 -0.45 -0.00
-11.22 124.72 20.19 -0.73 -0.68 0.06 0.97
-12.34 136.15 32.53 0.52 0.79 0.33 0.39
-10.23 123.50 33.11 0.61 0.42 0.67 0.41
-13.42 125.97 19.51 -0.69 -0.73 -0.04 0.36
-13.65 120.05 31.24 -0.86 -0.28 -0.43 0.72
-13.37 136.69 31.97 0.07 0.96 0.29 0.32
-11.24 134.41 33.67 0.49 0.55 0.68 0.17
-13.64 133.34 21.06 -0.74 -0.63 0.22 -0.11
-11.37 122.57 34.31 0.28 0.58 0.76 1.17
-14.49 137.29 24.30 -0.75 0.41 0.51 0.76
-12.59 131.90 19.97 -0.82 -0.38 0.42 0.29
-12.89 130.35 19.52 -0.92 0.31 0.24 -0.32
-12.48 122.11 34.86 -0.53 0.58 0.62 1.10
-13.61 137.31 29.56 0.51 0.86 0.02 -0.21
-8.89 122.84 28.25 0.85 -0.52 0.11 -1.25
-9.13 124.32 24.97 -0.42 -0.81 -0.41 0.06
-10.49 129.62 34.24 0.07 -0.49 0.87 -0.23
-9.74 131.33 34.67 -0.12 0.28 0.95 -0.95
-9.66 125.95 31.52 0.76 -0.05 0.65 -0.35
-10.33 132.32 33.66 0.16 0.50 0.85 -0.09
-9.58 123.72 32.02 0.87 0.20 0.45 0.28
-9.74 124.93 21.93 -0.61 -0.36 0.71 0.65
-11.63 135.09 32.85 0.54 0.72 0.44 0.74
-14.18 126.98 18.63 -0.97 -0.25 -0.05 0.30
-10.16 128.82 32.93 0.30 -0.77 0.56 0.46
-12.21 137.50 25.73 0.06 0.96 0.29 0.21
-14.99 137.27 23.11 -0.65 0.46 0.61 0.41
-12.97 136.43 30.73 0.45 0.88 0.12 0.51
-9.13 124.42 31.22 0.90 0.04 0.43 0.16
-12.15 125.72 19.02 -0.42 -0.88 -0.24 0.38
-14.54 134.72 21.67 -0.80 -0.58 0.14 -0.48
-12.04 136.23 27.61 0.03 0.90 0.44 0.12
-9.41 126.93 31.53 0.66 -0.22 0.72 -1.18
-13.18 137.76 24.36 -0.10 0.97 0.20 0.24
-13.79 120.75 32.89 -0.99 0.09 0.09 0.67
-12.41 136.19 29.34 0.40 0.91 0.08 0.23
-14.08 128.70 18.32 -0.97 0.22 -0.11 -0.04
-9.11 123.20 29.26 0.92 -0.32 0.24 -0.40
-8.03 123.42 26.07 0.38 -0.81 0.44 -0.01
3 74 70 157
3 99 22 103
3 22 116 103
3 127 105 106
3 5 148 175
3 145 187 73
3 149 114 15
3 155 94 109
