ply
format ascii 1.0
comment Generated by MaSIF
element vertex 200
property float x
property float y
property float z
property float nx
property float ny
property float nz
property float charge
element face 350
property list uchar int vertex_indices
end_header
-13.81 131.65 27.01 -0.78 -0.19 -0.59 -1.74
-14.11 132.68 26.31 -0.76 -0.40 -0.51 -1.93
-14.35 132.67 27.99 -0.99 -0.03 -0.12 -1.51
-14.19 130.42 27.77 -0.55 0.14 -0.83 -1.03
-12.66 131.80 25.77 -0.70 -0.26 -0.66 -1.49
-15.13 131.41 28.46 -0.72 0.47 -0.52 -1.51
-13.18 129.86 26.51 -0.72 0.15 -0.68 -0.16
-14.20 133.28 28.96 -0.99 0.07 -0.15 -0.43
-13.95 133.74 25.65 -0.61 -0.58 -0.54 0.27
-14.41 133.84 28.07 -0.92 -0.38 0.11 -0.37
-14.67 133.81 26.88 -0.87 -0.48 -0.10 -0.41
-13.99 129.58 27.24 -0.64 0.40 -0.66 -0.03
-12.76 132.96 25.27 -0.71 -0.46 -0.53 -1.05
-11.86 131.83 24.69 -0.91 -0.30 -0.29 -0.56
-15.78 130.24 27.99 -0.50 0.12 -0.86 -1.78
-15.23 128.87 27.84 -0.77 0.15 -0.62 -0.63
-11.91 130.43 25.10 -0.92 0.04 -0.40 -0.23
-13.51 128.54 25.86 -0.53 0.53 -0.67 -0.93
-14.81 134.41 25.61 -0.72 -0.57 -0.40 0.20
-15.56 131.67 30.33 -0.78 0.61 -0.14 -0.96
-16.73 130.47 28.90 -0.86 0.38 -0.34 -2.00
-14.71 134.25 29.57 -0.90 -0.37 -0.24 0.68
-12.21 128.93 25.32 -0.83 0.43 -0.35 -0.07
-12.95 133.70 24.72 -0.76 -0.60 -0.24 -0.56
-15.51 135.12 26.58 -0.89 -0.41 -0.20 -0.36
-15.29 134.98 28.70 -0.86 -0.51 0.04 0.10
-12.14 132.36 23.77 -0.87 -0.50 0.03 -0.61
-14.96 132.51 30.57 -0.88 0.33 -0.34 0.01
-15.21 128.26 27.10 -0.78 0.42 -0.46 -0.42
-13.74 134.69 24.11 -0.79 -0.49 -0.38 -0.11
-12.05 129.63 24.56 -0.95 0.31 0.00 0.04
-11.63 131.02 23.56 -1.00 0.00 -0.04 0.05
-14.51 127.83 25.87 -0.64 0.30 -0.71 -1.60
-12.74 128.22 24.94 -0.76 0.60 -0.26 -0.10
-15.22 127.47 28.88 -0.90 -0.43 -0.01 -1.02
-16.53 128.97 29.31 -0.87 -0.33 -0.36 -1.35
-15.43 134.99 30.37 -0.97 -0.22 -0.05 0.55
-14.97 135.91 24.81 -0.75 0.07 -0.66 0.44
-16.66 130.18 30.48 -0.98 0.20 0.06 -1.65
-15.67 135.99 29.09 -0.90 -0.42 0.10 0.45
-15.22 132.92 31.57 -0.98 0.11 -0.19 0.23
-14.17 126.67 25.47 -0.77 0.13 -0.63 -0.59
-12.80 133.28 23.34 -0.84 -0.53 0.16 -0.65
-12.46 128.84 23.77 -0.88 0.47 0.05 -0.24
-15.32 126.88 26.93 -0.97 -0.02 -0.25 -0.85
-16.10 136.26 27.26 -0.95 -0.31 -0.06 -0.18
-15.59 136.51 25.89 -0.71 -0.04 -0.70 0.42
-13.82 136.18 24.18 -0.74 0.53 -0.41 0.31
-11.63 130.66 22.39 -0.98 0.16 -0.10 0.21
-15.65 131.51 32.50 -0.95 0.28 0.16 -0.20
-13.80 134.81 22.76 -0.98 -0.17 0.14 -0.45
-15.59 134.29 31.72 -0.98 0.04 0.21 0.11
-11.79 131.60 22.18 -0.87 -0.47 0.17 -0.14
-12.10 129.66 22.96 -0.92 0.38 -0.02 0.03
-15.48 135.31 31.45 -0.93 0.21 0.31 0.33
-15.21 126.56 28.20 -0.97 -0.11 0.21 -0.28
-15.87 136.61 29.98 -0.97 -0.06 0.22 0.37
-12.80 132.46 21.87 -0.79 -0.56 0.25 -0.44
-13.37 127.35 23.85 -0.93 0.37 -0.01 -0.14
-16.41 128.32 30.83 -0.87 -0.49 -0.06 -0.41
-14.61 125.82 29.13 -0.80 -0.41 0.44 0.23
-15.21 133.65 32.89 -0.92 0.30 0.27 0.01
-15.15 136.65 31.41 -0.79 0.38 0.49 0.75
-13.63 136.14 23.09 -0.84 0.53 0.09 -0.00
-13.85 137.36 25.56 0.17 0.72 -0.68 0.35
-15.16 125.45 26.92 -0.90 -0.30 -0.31 -0.14
-11.66 129.78 21.66 -0.93 0.35 -0.09 -0.04
-14.37 125.08 25.95 -0.63 -0.60 -0.49 0.02
-14.95 137.97 25.60 -0.14 0.39 -0.91 0.70
-16.11 138.00 26.17 -0.79 0.35 -0.50 0.45
-16.24 137.92 27.72 -0.85 0.52 0.10 0.47
-12.72 137.33 24.26 -0.45 0.89 -0.02 0.22
-11.65 130.57 21.09 -0.97 -0.13 0.18 0.26
-12.30 129.14 22.06 -0.85 0.52 -0.09 -0.45
-13.45 133.55 21.80 -0.86 -0.45 0.24 -0.70
-16.47 130.11 32.52 -0.85 0.22 0.48 -0.12
-15.09 127.16 31.16 -0.74 -0.66 -0.15 0.21
-14.16 126.27 30.56 -0.91 -0.41 -0.04 0.81
-13.27 125.12 24.56 -0.36 -0.92 -0.17 0.21
-14.05 134.57 21.28 -0.91 -0.28 0.29 -0.70
-14.48 135.98 32.34 -0.60 0.38 0.70 0.52
-12.24 131.44 20.89 -0.78 -0.53 0.34 0.11
-12.76 137.07 25.77 0.06 0.99 0.09 0.12
-15.13 125.00 28.18 -0.77 -0.56 0.29 0.08
-14.95 130.41 33.91 -0.69 -0.12 0.72 -0.66
-15.27 131.72 34.40 -0.82 -0.09 0.57 -1.27
-16.39 128.61 32.54 -0.88 -0.19 0.44 0.02
-13.82 136.78 22.17 -0.77 0.58 0.28 0.76
-15.02 138.27 29.51 -0.43 0.85 0.30 0.93
-12.95 132.00 20.37 -0.80 -0.50 0.32 -0.11
-13.89 125.21 29.96 -0.82 -0.57 -0.04 0.46
-14.26 124.49 27.16 -0.39 -0.91 -0.14 0.05
-14.71 138.74 26.51 -0.02 0.92 -0.38 0.36
-11.89 129.48 20.65 -0.92 0.39 0.05 -0.12
-15.00 132.90 34.30 -0.67 0.40 0.63 -0.71
-11.68 137.33 23.72 0.09 1.00 -0.01 0.21
-13.11 127.93 22.12 -0.87 0.50 -0.07 -0.54
-12.63 128.50 21.25 -0.84 0.53 -0.14 -0.46
-14.21 136.42 20.99 -0.67 0.65 0.37 0.41
-13.54 124.56 28.58 -0.41 -0.87 0.27 0.15
-15.92 127.54 32.47 -0.70 -0.59 0.40 0.20
-15.65 129.90 33.37 -0.65 -0.02 0.76 -0.08
-13.80 133.53 20.44 -0.85 -0.48 0.22 -0.48
-13.69 125.34 23.16 -0.89 -0.42 0.16 0.79
-13.77 134.68 33.47 -0.50 0.49 0.71 0.18
-13.72 126.63 21.97 -0.99 0.16 -0.05 -0.44
-12.49 137.19 22.23 -0.05 0.99 -0.11 0.24
-11.90 130.25 19.90 -0.88 -0.20 0.42 0.29
-14.97 138.90 27.82 -0.04 0.99 0.12 0.82
-11.97 125.40 24.50 0.14 -0.88 0.45 0.28
-11.77 136.69 25.90 0.05 0.99 0.15 0.12
-12.92 124.39 26.68 0.02 -0.89 -0.45 0.17
-13.68 137.89 31.26 -0.16 0.81 0.56 0.77
-13.45 138.37 27.24 0.56 0.81 -0.18 -0.21
-14.51 125.30 31.72 -0.94 -0.21 -0.26 0.47
-13.85 129.85 34.67 -0.03 -0.32 0.95 -0.04
-14.80 126.83 32.83 -0.89 -0.32 0.31 1.51
-13.05 135.81 33.31 -0.06 0.48 0.88 0.17
-13.07 137.13 32.65 -0.02 0.75 0.67 0.23
-13.51 132.88 19.68 -0.80 -0.44 0.41 -0.46
-13.86 131.36 35.20 -0.21 -0.04 0.98 -0.93
-12.31 137.19 27.51 0.46 0.88 -0.15 0.23
-12.26 128.66 19.90 -0.91 0.40 0.04 -0.32
-15.14 128.77 33.57 -0.53 -0.23 0.82 0.23
-12.82 124.49 29.21 -0.51 -0.85 -0.09 0.05
-11.86 124.60 23.42 -0.29 -0.80 0.53 0.52
-13.65 124.26 30.76 -0.62 -0.58 -0.52 0.40
-13.48 138.50 29.74 0.10 0.99 -0.01 0.32
-13.40 131.95 19.09 -0.66 -0.37 0.65 -0.26
-12.85 127.83 20.27 -0.85 0.52 -0.10 -0.39
-13.58 133.29 34.59 -0.10 0.39 0.91 -0.53
-10.55 137.18 24.11 -0.24 0.97 -0.01 -0.12
-10.61 137.03 23.07 -0.13 0.97 -0.21 -0.18
-13.89 128.73 34.22 -0.21 -0.22 0.95 0.35
-11.80 125.06 26.25 0.23 -0.88 -0.42 0.14
-11.46 136.82 22.30 -0.04 0.96 -0.27 -0.40
-11.04 125.65 24.96 -0.03 -1.00 -0.04 -0.09
-13.63 125.84 21.04 -0.99 -0.15 0.02 0.04
-15.02 135.39 19.65 -0.67 -0.42 0.61 -0.14
-13.19 124.42 22.31 -0.67 -0.73 0.11 1.34
-14.32 133.90 19.30 -0.73 -0.41 0.54 -0.80
-10.61 137.07 25.76 -0.36 0.93 0.01 0.06
-12.54 138.12 30.55 0.54 0.83 0.14 0.39
-11.26 136.95 27.01 -0.25 0.97 0.04 0.10
-12.98 137.86 28.69 0.50 0.86 -0.10 0.51
-15.41 136.65 20.07 -0.15 0.09 0.98 -0.14
-11.76 123.97 27.51 -0.01 -0.97 -0.25 0.17
-12.23 134.36 34.30 0.08 0.47 0.88 0.03
-14.60 125.50 32.99 -1.00 0.03 0.05 0.76
-12.30 137.03 20.46 0.06 0.99 0.10 -0.07
-12.55 129.96 34.24 0.48 -0.20 0.86 0.13
-14.40 127.91 33.63 -0.56 -0.15 0.82 0.87
-10.61 125.16 24.02 -0.40 -0.68 0.62 0.34
-14.55 123.91 31.92 -0.86 -0.35 -0.38 0.29
-13.17 130.70 18.55 -0.45 -0.32 0.83 0.31
-11.95 137.19 31.24 0.54 0.80 0.26 0.74
-14.26 137.20 19.11 0.14 0.78 0.61 -0.18
-11.77 124.05 22.42 -0.46 -0.86 0.21 0.48
-14.32 132.90 18.95 -0.46 -0.24 0.85 -1.83
-11.68 136.78 32.27 0.46 0.71 0.54 0.17
-13.26 137.35 19.07 0.00 0.88 0.47 -0.77
-14.28 131.75 18.67 -0.08 -0.22 0.97 -0.27
-10.11 137.18 22.23 -0.59 0.80 -0.11 -0.05
-10.84 136.48 20.98 0.22 0.96 -0.17 -0.71
-11.53 135.44 32.83 0.32 0.52 0.80 0.11
-12.45 128.77 18.56 -0.85 0.05 0.52 0.07
-13.97 126.76 34.44 -0.72 0.44 0.54 0.46
-12.35 123.68 30.72 -0.30 -0.88 -0.37 0.48
-9.78 137.65 23.20 -0.61 0.79 0.04 0.04
-10.78 124.92 26.67 0.06 -0.90 -0.44 -0.03
-11.27 123.65 29.13 -0.05 -0.96 -0.26 -0.61
-12.50 132.15 34.62 0.35 -0.10 0.93 -0.40
-11.35 136.79 28.69 0.35 0.93 0.12 0.21
-15.08 133.99 18.71 -0.43 -0.29 0.86 -0.44
-13.10 124.50 21.14 -0.73 -0.68 0.11 0.36
-9.45 137.64 24.69 -0.48 0.87 0.04 0.04
-13.70 125.22 19.92 -0.97 -0.22 -0.08 0.30
-12.93 123.06 31.57 -0.26 -0.83 -0.50 0.41
-12.88 127.63 18.72 -0.98 0.20 0.01 -0.22
-10.71 123.70 23.45 -0.74 -0.18 0.65 1.18
-11.92 137.26 29.89 0.66 0.75 -0.06 0.93
-16.17 135.17 19.10 -0.22 -0.62 0.75 -0.09
-9.88 125.17 25.43 -0.53 -0.85 -0.01 0.15
-13.44 126.77 19.13 -0.93 0.22 -0.28 -0.04
-11.07 123.44 22.40 -0.78 -0.60 0.17 0.97
-15.69 137.70 19.47 0.35 0.56 0.75 -0.73
-12.97 127.49 34.30 -0.02 0.34 0.94 0.53
-13.43 129.28 18.02 -0.49 -0.51 0.71 0.69
-14.62 125.49 34.13 -0.96 0.29 0.04 0.67
-14.54 123.43 32.92 -0.87 -0.33 -0.36 0.67
-10.43 137.75 27.78 -0.68 0.68 0.26 0.16
-10.15 136.86 21.15 -0.55 0.71 -0.45 -0.11
-11.85 128.71 33.76 0.46 0.09 0.88 0.78
-11.60 129.88 33.28 0.58 -0.05 0.82 0.21
-16.82 135.90 19.95 0.06 -0.50 0.86 -1.41
-11.79 137.13 19.09 0.38 0.86 0.34 -0.82
-11.81 124.07 20.89 -0.45 -0.89 -0.01 0.38
-11.10 136.55 30.48 0.43 0.90 0.00 0.24
-10.92 134.75 32.99 0.12 0.73 0.68 -0.09
-9.74 124.12 24.16 -0.70 -0.10 0.71 0.65
3 164 159 117
3 197 155 159
3 133 192 150
3 150 192 193
3 171 147 130
3 147 104 130
3 117 104 147
3 198 164 147
3 117 147 164
3 117 80 104
3 118 112 80
3 80 112 62
3 112 118 155
3 155 142 112
3 142 155 180
3 127 144 88
3 88 144 108
3 108 144 113
3 190 141 143
3 82 141 95
3 148 188 166
3 166 116 148
3 166 186 151
3 186 133 151
3 151 133 123
3 84 123 133
3 85 84 120
3 115 120 84
3 120 115 171
3 150 171 115
3 84 85 49
3 101 84 75
3 49 75 84
3 94 61 49
3 130 104 94
3 61 94 104
3 36 51 54
3 54 62 36
3 54 51 80
3 80 62 54
3 51 36 21
3 36 56 25
3 25 56 39
3 39 56 45
3 45 56 70
3 70 56 88
3 56 62 88
3 92 113 64
3 82 71 47
3 82 47 64
3 64 47 37
3 63 71 106
3 87 63 106
3 106 71 95
3 168 131 175
3 131 168 132
3 131 132 95
3 169 170 146
3 146 170 99
3 177 189 153
3 153 189 148
3 177 126 167
3 167 126 124
3 60 99 90
3 126 114 90
3 76 114 116
3 114 148 116
3 76 116 100
3 116 151 100
3 75 49 38
3 38 49 19
3 35 14 15
3 28 15 17
3 0 5 2
3 5 19 27
3 21 27 40
3 25 9 21
3 9 25 10
3 9 10 2
3 2 10 1
3 10 18 8
3 10 8 1
3 29 37 47
3 29 47 50
3 87 98 50
3 160 149 195
3 106 163 149
3 132 106 95
3 182 169 136
3 146 111 169
3 134 169 111
3 78 134 111
3 99 91 146
3 111 146 91
3 55 60 34
3 34 60 77
3 77 76 34
3 34 35 15
3 34 15 44
3 44 15 28
3 44 32 41
3 17 41 32
3 17 33 41
3 58 41 33
3 43 58 33
3 6 17 11
3 6 0 4
3 4 1 12
3 13 12 26
3 42 29 50
3 74 50 79
3 79 138 102
3 138 145 181
3 145 194 181
3 157 184 125
3 179 125 184
3 125 78 103
3 58 96 105
3 96 58 73
3 73 58 43
3 6 4 16
3 42 57 26
3 26 57 52
3 74 102 57
3 57 102 89
3 119 102 140
3 140 158 119
3 196 139 174
3 139 137 174
3 137 176 174
3 105 129 183
3 122 129 97
3 129 96 97
3 97 73 93
3 48 73 53
3 53 30 31
3 52 31 26
3 89 81 52
3 93 107 122
3 107 89 154
3 154 89 128
3 67 111 91
3 64 37 46
3 64 46 68
3 37 24 46
3 180 197 172
3 133 186 192
3 180 155 197
3 121 113 144
3 121 172 143
3 172 121 180
3 180 121 144
3 143 110 121
3 121 110 82
3 82 110 141
3 141 110 143
3 131 95 141
3 175 131 141
3 151 116 166
3 101 123 84
3 40 49 61
3 40 61 51
3 27 19 40
3 49 40 19
3 36 25 21
3 82 64 121
3 121 64 113
3 47 71 63
3 162 132 168
3 124 99 170
3 124 170 167
3 188 148 189
3 124 90 99
3 90 124 126
3 60 90 77
3 77 90 114
3 76 77 114
3 11 3 6
3 3 11 15
3 3 15 14
3 15 11 17
3 5 3 14
3 3 5 0
3 3 0 6
3 7 5 27
3 21 7 27
3 5 7 2
3 7 9 2
3 9 7 21
3 24 10 25
3 23 8 29
3 29 8 18
3 37 29 18
3 63 50 47
3 87 50 63
3 98 145 138
3 185 145 156
3 156 145 98
3 149 160 98
3 98 160 156
3 132 135 106
3 135 132 162
3 106 135 163
3 163 135 191
3 191 135 162
3 134 136 169
3 34 44 55
3 78 41 58
3 43 33 22
3 43 22 30
3 22 33 17
3 16 30 22
3 16 22 6
3 17 6 22
3 13 4 12
3 23 26 12
3 23 12 8
3 8 12 1
3 42 23 29
3 26 23 42
3 138 79 98
3 140 102 138
3 158 140 173
3 173 140 138
3 173 138 181
3 149 163 195
3 109 125 152
3 152 125 179
3 136 152 182
3 199 152 179
3 109 152 136
3 78 109 136
3 134 78 136
3 125 109 78
3 58 103 78
3 105 103 58
3 97 96 73
3 13 26 31
3 31 16 13
3 13 16 4
3 31 30 16
3 119 89 102
3 89 119 128
3 128 119 158
3 128 158 161
3 128 161 154
3 196 184 157
3 196 157 139
3 105 137 139
3 178 183 129
3 122 165 178
3 122 178 129
3 107 93 72
3 72 81 107
3 72 93 66
3 66 93 73
3 48 72 66
3 48 66 73
3 48 31 52
3 31 48 53
3 52 81 72
3 52 72 48
3 154 187 107
3 165 122 107
3 165 107 187
3 118 117 159
3 159 155 118
3 118 80 117
3 142 127 112
3 142 180 144
3 142 144 127
3 112 127 88
3 115 133 150
3 133 115 84
3 171 130 120
3 85 120 94
3 130 94 120
3 49 85 94
3 104 51 61
3 104 80 51
3 36 62 56
3 112 88 62
3 108 70 88
3 108 113 92
3 95 71 82
3 114 153 148
3 177 153 126
3 153 114 126
3 100 86 59
3 59 76 100
3 100 151 123
3 100 123 86
3 101 86 123
3 86 101 75
3 86 75 38
3 86 38 59
3 20 38 19
3 20 19 5
3 20 5 14
3 20 14 35
3 20 35 38
3 51 21 40
3 45 46 24
3 39 45 25
3 24 25 45
3 18 10 24
3 37 18 24
3 68 69 92
3 68 92 64
3 68 46 69
3 69 46 45
3 69 45 70
3 69 70 92
3 108 92 70
3 98 87 106
3 149 98 106
3 65 83 55
3 83 65 91
3 60 83 99
3 83 60 55
3 99 83 91
3 59 38 35
3 76 59 34
3 35 34 59
3 17 32 28
3 28 32 44
3 2 1 0
3 0 1 4
3 74 42 50
3 98 79 50
3 145 185 194
3 67 41 78
3 111 67 78
3 91 65 67
3 67 65 41
3 65 44 41
3 44 65 55
3 42 74 57
3 79 102 74
3 139 103 105
3 125 103 139
3 125 139 157
3 129 105 96
3 97 93 122
3 73 43 53
3 43 30 53
3 57 89 52
3 81 89 107
3 183 176 137
3 183 137 105
