ply
format ascii 1.0
comment Generated by MaSIF
element vertex 192
property float x
property float y
property float z
property float nx
property float ny
property float nz
property float pb
element face 8
property list uchar int vertex_indices
end_header
-14.26 132.68 28.85 -0.90 -0.43 0.08 -0.37
-14.62 132.96 27.72 -0.87 -0.47 -0.15 -0.41
-13.97 131.92 29.55 -1.00 0.07 -0.05 -0.43
-14.19 131.57 28.47 -1.00 -0.04 -0.04 -1.51
-15.10 133.59 29.83 -0.85 -0.53 -0.02 0.10
-14.43 132.67 30.43 -0.91 -0.33 -0.26 0.68
-14.01 133.23 26.47 -0.65 -0.44 -0.62 0.27
-14.88 133.85 26.67 -0.74 -0.47 -0.48 0.20
-14.09 132.02 26.84 -0.80 -0.28 -0.54 -1.93
-13.73 130.86 27.22 -0.83 -0.06 -0.56 -1.74
-15.50 134.26 27.84 -0.90 -0.38 -0.23 -0.36
-15.45 134.45 30.50 -0.88 -0.46 0.06 0.45
-15.10 133.16 31.45 -0.97 -0.23 -0.02 0.55
-14.91 130.21 28.66 -0.77 0.56 -0.32 -1.51
-14.58 130.73 30.96 -0.91 0.37 -0.17 0.01
-15.59 134.81 31.53 -0.95 -0.15 0.28 0.37
-16.05 135.17 28.84 -0.95 -0.32 -0.06 -0.18
-15.13 132.13 32.58 -0.96 -0.05 0.29 0.11
-13.09 133.46 25.48 -0.77 -0.55 -0.33 -0.56
-15.06 133.19 32.58 -0.90 0.09 0.42 0.33
-12.84 132.61 25.80 -0.75 -0.34 -0.57 -1.05
-15.13 135.50 26.30 -0.80 0.22 -0.56 0.44
-15.66 135.77 27.55 -0.77 0.12 -0.63 0.42
-14.76 130.85 32.04 -0.99 0.12 -0.08 0.23
-14.03 129.46 27.65 -0.62 0.33 -0.71 -1.03
-12.69 131.36 25.97 -0.75 -0.10 -0.65 -1.49
-13.95 134.55 25.21 -0.81 -0.40 -0.43 -0.11
-15.58 129.18 27.95 -0.57 0.32 -0.76 -1.78
-15.18 129.96 30.55 -0.80 0.60 0.09 -0.96
-13.12 129.29 26.22 -0.78 0.29 -0.56 -0.16
-14.75 134.50 32.86 -0.74 0.21 0.63 0.75
-16.45 129.13 28.96 -0.89 0.42 -0.16 -2.00
-16.17 136.64 29.73 -0.85 0.44 0.30 0.47
-14.64 131.22 33.51 -0.89 0.18 0.41 0.01
-13.99 133.64 33.52 -0.54 0.16 0.82 0.52
-14.80 136.57 31.45 -0.41 0.73 0.54 0.93
-13.85 128.79 26.91 -0.70 0.53 -0.48 -0.03
-14.04 135.96 25.68 -0.78 0.59 -0.20 0.31
-13.06 133.42 24.03 -0.81 -0.58 0.08 -0.65
-16.17 137.12 28.25 -0.84 0.44 -0.33 0.45
-15.07 137.29 27.60 -0.22 0.61 -0.76 0.70
-11.99 131.70 24.87 -0.93 -0.25 -0.29 -0.56
-14.12 135.01 23.95 -0.96 -0.24 0.16 -0.45
-13.96 136.75 27.31 0.10 0.87 -0.48 0.35
-12.35 132.45 24.15 -0.85 -0.52 -0.03 -0.61
-15.03 127.91 27.41 -0.83 0.27 -0.49 -0.63
-15.08 129.24 32.61 -0.93 0.19 0.30 -0.20
-16.25 128.45 30.40 -0.97 0.14 0.19 -1.65
-11.99 130.25 24.91 -0.95 0.11 -0.30 -0.23
-16.20 127.58 28.94 -0.89 -0.26 -0.36 -1.35
-13.17 132.12 34.21 -0.45 0.28 0.85 0.18
-13.48 128.17 25.28 -0.59 0.66 -0.46 -0.93
-13.31 135.79 32.93 -0.13 0.63 0.76 0.77
-14.91 137.61 29.98 -0.05 0.92 0.38 0.82
-12.25 128.73 24.75 -0.86 0.48 -0.15 -0.07
-14.76 137.80 28.65 -0.06 0.99 -0.13 0.36
-13.94 136.21 24.60 -0.84 0.46 0.29 -0.00
-13.25 136.78 31.60 0.09 0.97 0.24 0.32
-14.30 130.14 34.65 -0.62 0.20 0.76 -0.71
-15.07 127.52 26.54 -0.82 0.50 -0.27 -0.42
-12.95 137.10 25.96 -0.47 0.85 0.25 0.22
-12.48 133.27 34.30 0.01 0.23 0.97 0.17
-12.86 136.45 27.35 0.06 0.94 0.34 0.12
-12.57 134.72 34.01 0.03 0.55 0.84 0.23
-11.85 131.22 23.56 -1.00 -0.02 0.04 0.05
-13.18 133.01 22.40 -0.76 -0.63 0.15 -0.44
-13.84 134.05 22.66 -0.83 -0.53 0.19 -0.70
-12.15 129.61 24.19 -0.95 0.26 0.16 0.04
-12.83 136.46 30.38 0.48 0.87 0.09 0.51
-14.50 135.16 22.48 -0.88 -0.38 0.28 -0.70
-14.92 126.30 28.04 -0.89 -0.45 -0.05 -1.02
-14.47 127.44 25.18 -0.70 0.45 -0.56 -1.60
-15.88 127.85 32.32 -0.81 0.05 0.59 -0.12
-12.79 128.13 24.25 -0.79 0.62 -0.03 -0.10
-12.24 136.24 32.20 0.54 0.78 0.30 0.39
-14.25 127.84 33.62 -0.62 -0.33 0.71 -0.66
-12.13 132.13 22.39 -0.84 -0.53 0.11 -0.14
-13.43 137.30 29.16 0.53 0.85 -0.01 -0.21
-14.23 137.07 23.89 -0.75 0.46 0.48 0.76
-15.94 126.57 30.24 -0.86 -0.49 -0.12 -0.41
-14.54 128.97 34.46 -0.76 -0.26 0.59 -1.27
-11.56 131.65 34.81 0.15 0.23 0.96 0.03
-11.96 137.27 25.36 0.08 0.97 0.25 0.21
-12.86 130.49 34.92 -0.03 0.14 0.99 -0.53
-11.86 136.08 27.30 0.05 0.92 0.40 0.12
-15.17 126.22 26.02 -0.99 0.02 -0.17 -0.85
-12.26 136.14 29.02 0.43 0.90 0.05 0.23
-14.70 137.00 22.70 -0.64 0.51 0.57 0.41
-11.58 135.18 32.58 0.55 0.72 0.41 0.74
-14.15 126.44 24.47 -0.82 0.26 -0.51 -0.59
-12.90 137.49 23.95 -0.07 0.98 0.16 0.24
-12.63 129.04 23.26 -0.88 0.41 0.24 -0.24
-11.22 134.53 33.45 0.49 0.56 0.66 0.17
-11.94 131.18 22.34 -0.99 0.15 0.02 0.21
-11.00 133.10 33.62 0.38 0.30 0.87 0.11
-14.31 134.37 21.39 -0.82 -0.55 0.15 -0.48
-15.78 126.40 31.95 -0.83 -0.33 0.45 0.02
-14.95 125.59 27.15 -0.95 -0.19 0.25 -0.28
-14.98 127.46 33.02 -0.58 -0.24 0.78 -0.08
-13.44 132.94 20.85 -0.77 -0.60 0.24 -0.11
-12.35 130.05 22.67 -0.93 0.34 0.15 0.03
-13.06 128.46 35.02 -0.13 -0.29 0.95 -0.93
-11.66 135.60 31.30 0.64 0.77 0.08 0.93
-13.08 127.15 34.12 0.06 -0.55 0.83 -0.04
-12.68 132.30 21.15 -0.74 -0.62 0.26 0.11
-13.50 127.54 23.02 -0.93 0.33 0.16 -0.14
-14.26 124.65 27.80 -0.75 -0.54 0.38 0.23
-12.07 131.42 21.06 -0.95 -0.21 0.21 0.26
-10.72 136.53 27.17 -0.37 0.88 0.28 0.06
-10.80 137.06 25.60 -0.25 0.93 0.27 -0.12
-10.95 137.18 24.57 -0.16 0.99 0.06 -0.18
-11.86 137.16 23.85 -0.08 1.00 -0.01 -0.40
-14.45 126.34 32.89 -0.45 -0.45 0.77 0.23
-11.25 136.07 28.39 -0.26 0.91 0.31 0.10
-11.77 129.42 34.56 0.43 -0.33 0.84 -0.40
-14.99 124.85 25.62 -0.92 -0.25 -0.31 -0.14
-14.58 125.41 30.14 -0.74 -0.62 -0.25 0.21
-15.30 125.41 31.57 -0.65 -0.70 0.29 0.20
-10.79 134.79 31.61 0.42 0.88 0.20 0.24
-10.37 132.41 33.55 0.16 0.53 0.83 -0.09
-15.61 136.33 21.21 -0.61 -0.59 0.53 -0.14
-12.02 130.51 21.41 -0.94 0.33 0.08 -0.04
-13.14 126.18 33.40 -0.12 -0.46 0.88 0.35
-14.07 133.95 20.46 -0.75 -0.56 0.35 -0.46
-11.20 135.47 29.98 0.35 0.88 0.33 0.21
-14.29 124.77 24.53 -0.66 -0.47 -0.58 0.02
-9.84 131.46 34.62 -0.13 0.32 0.94 -0.95
-13.70 124.74 29.25 -0.90 -0.42 -0.07 0.81
-10.12 134.32 32.81 0.09 0.71 0.69 -0.26
-12.62 129.77 21.68 -0.86 0.50 0.12 -0.45
-15.99 137.42 21.97 -0.07 -0.17 0.98 -0.14
-10.62 129.75 34.25 0.04 -0.45 0.89 -0.23
-14.93 135.01 20.42 -0.68 -0.57 0.47 -0.80
-12.86 137.80 22.19 0.06 0.93 0.35 -0.07
-13.31 125.21 23.11 -0.36 -0.86 -0.38 0.21
-14.85 124.10 26.71 -0.74 -0.65 0.19 0.08
-11.82 127.41 33.63 0.55 -0.40 0.73 0.13
-14.01 133.21 19.64 -0.60 -0.55 0.59 -0.26
-14.93 138.25 21.10 0.18 0.61 0.78 -0.18
-9.36 133.11 33.30 -0.24 0.39 0.89 -0.33
-10.53 137.56 23.76 -0.60 0.78 0.15 -0.05
-11.35 137.19 22.44 0.19 0.98 0.07 -0.71
-10.12 137.78 24.79 -0.62 0.73 0.29 0.04
-13.94 138.44 21.02 0.03 0.73 0.68 -0.77
-13.46 123.88 28.38 -0.81 -0.57 -0.12 0.46
-13.69 125.51 32.66 -0.48 -0.38 0.79 0.87
-12.34 130.47 20.38 -0.92 0.33 0.22 -0.12
-12.42 131.42 19.86 -0.84 -0.34 0.43 0.29
-14.07 123.89 25.53 -0.39 -0.86 -0.34 0.05
-10.52 134.77 30.58 -0.01 0.92 0.38 -0.15
-9.67 137.40 26.19 -0.49 0.82 0.31 0.04
-9.74 134.76 31.79 -0.18 0.95 0.25 -1.03
-13.23 123.62 26.85 -0.37 -0.92 0.07 0.15
-10.37 136.67 29.27 -0.67 0.57 0.49 0.16
-14.95 134.14 19.83 -0.38 -0.47 0.79 -1.83
-14.14 124.66 31.64 -0.86 -0.42 0.28 1.51
-13.00 129.35 20.76 -0.85 0.52 0.07 -0.46
-16.80 136.22 20.71 -0.14 -0.80 0.58 -0.09
-13.40 128.56 21.49 -0.87 0.47 0.13 -0.54
-9.75 129.79 34.62 -0.16 -0.51 0.85 -0.92
-9.07 134.54 33.03 -0.45 0.66 0.59 -1.12
-15.74 135.23 19.94 -0.35 -0.51 0.78 -0.44
-10.05 135.51 29.89 -0.36 0.59 0.73 -0.19
-16.33 138.59 21.69 0.41 0.36 0.84 -0.73
-13.85 125.76 21.86 -0.87 -0.48 0.12 0.79
-10.65 137.53 22.64 -0.59 0.78 -0.20 -0.11
-14.00 127.32 21.05 -0.99 0.14 0.07 -0.44
-13.80 132.15 18.78 -0.37 -0.54 0.75 0.31
-8.60 130.40 34.81 0.34 -0.22 0.92 -1.11
-12.20 124.99 33.08 0.06 0.09 0.99 0.53
-9.79 137.58 28.55 -0.42 0.89 0.18 0.18
-12.03 125.54 23.02 0.19 -0.96 0.20 0.28
-12.77 123.97 24.93 -0.01 -0.74 -0.67 0.17
-13.93 123.49 30.15 -0.96 -0.16 -0.23 0.47
-14.91 133.10 19.25 0.00 -0.47 0.88 -0.27
-10.30 128.88 32.98 0.27 -0.75 0.60 0.46
-8.89 137.56 27.71 -0.40 0.92 -0.00 0.02
-17.39 136.68 21.77 0.14 -0.71 0.69 -1.41
-11.15 126.34 32.79 0.53 -0.13 0.84 0.78
-10.96 127.61 32.61 0.65 -0.24 0.72 0.21
-12.47 138.27 20.87 0.40 0.75 0.52 -0.82
-8.11 132.13 34.44 -0.16 -0.21 0.96 -0.05
-12.76 129.86 19.47 -0.91 0.35 0.21 -0.32
-9.86 138.73 23.76 -0.67 0.72 0.16 0.04
-14.72 139.59 20.25 0.12 0.86 0.49 -0.15
-12.45 123.41 27.39 -0.51 -0.82 -0.27 0.05
-13.14 122.77 28.89 -0.66 -0.45 -0.60 0.40
-8.47 134.12 33.69 -0.81 0.24 0.54 -0.37
-15.82 139.63 20.63 0.13 0.83 0.55 -0.04
-9.33 136.87 29.84 -0.36 0.57 0.74 0.09
-10.45 137.03 21.20 -0.29 0.96 0.02 -0.25
-8.87 138.86 24.80 -0.35 0.86 0.36 0.13
3 74 70 157
3 99 22 103
3 22 116 103
3 127 105 106
3 5 148 175
3 145 187 73
3 149 114 15
3 155 94 109
