ply
format ascii 1.0
comment Generated by MaSIF
element vertex 200
property float x
property float y
property float z
property float nx
property float ny
property float nz
property float charge
element face 346
property list uchar int vertex_indices
end_header
-14.06 129.47 27.76 -0.65 0.33 -0.69 -1.03
-13.90 128.81 27.01 -0.72 0.53 -0.45 -0.03
-14.92 130.18 28.81 -0.79 0.55 -0.28 -1.51
-13.80 130.88 27.34 -0.85 -0.06 -0.53 -1.74
-15.60 129.15 28.11 -0.60 0.32 -0.73 -1.78
-13.20 129.33 26.30 -0.80 0.29 -0.53 -0.16
-15.05 127.91 27.53 -0.85 0.27 -0.46 -0.63
-16.44 129.08 29.14 -0.90 0.41 -0.13 -2.00
-15.11 127.52 26.65 -0.84 0.49 -0.24 -0.42
-13.58 128.21 25.35 -0.61 0.66 -0.43 -0.93
-14.20 132.04 26.99 -0.81 -0.29 -0.51 -1.93
-14.23 131.56 28.62 -1.00 -0.05 -0.01 -1.51
-15.13 129.90 30.71 -0.80 0.58 0.12 -0.96
-12.81 131.41 26.07 -0.77 -0.11 -0.62 -1.49
-14.89 126.28 28.13 -0.89 -0.46 -0.02 -1.02
-16.16 127.54 29.10 -0.90 -0.27 -0.34 -1.35
-13.98 131.89 29.69 -1.00 0.06 -0.01 -0.43
-12.37 128.80 24.79 -0.88 0.47 -0.12 -0.07
-14.52 130.68 31.10 -0.92 0.36 -0.14 0.01
-12.13 130.32 24.96 -0.96 0.10 -0.26 -0.23
-15.21 126.23 26.12 -0.99 0.00 -0.13 -0.85
-14.56 127.47 25.28 -0.72 0.45 -0.52 -1.60
-14.15 133.25 26.63 -0.66 -0.44 -0.61 0.27
-12.92 128.20 24.30 -0.80 0.61 0.00 -0.10
-14.31 132.66 29.02 -0.89 -0.44 0.11 -0.37
-16.17 128.38 30.57 -0.97 0.12 0.23 -1.65
-14.71 132.95 27.90 -0.87 -0.48 -0.13 -0.41
-14.94 125.59 27.23 -0.94 -0.21 0.28 -0.28
-12.99 132.66 25.91 -0.76 -0.34 -0.55 -1.05
-12.16 131.78 24.95 -0.93 -0.26 -0.26 -0.56
-12.31 129.69 24.24 -0.95 0.24 0.20 0.04
-14.25 126.49 24.54 -0.84 0.25 -0.47 -0.59
-14.66 130.79 32.20 -0.99 0.11 -0.04 0.23
-15.84 126.51 30.37 -0.86 -0.50 -0.09 -0.41
-14.42 132.63 30.60 -0.91 -0.34 -0.23 0.68
-14.22 124.65 27.84 -0.73 -0.56 0.40 0.23
-15.02 133.85 26.87 -0.75 -0.47 -0.46 0.20
-12.81 129.13 23.32 -0.88 0.39 0.28 -0.24
-14.94 129.16 32.75 -0.93 0.17 0.33 -0.20
-15.03 124.87 25.70 -0.93 -0.26 -0.28 -0.14
-12.05 131.32 23.62 -1.00 -0.04 0.07 0.05
-13.27 133.51 25.62 -0.77 -0.55 -0.31 -0.56
-14.47 125.37 30.21 -0.74 -0.63 -0.24 0.21
-13.60 124.72 29.28 -0.90 -0.43 -0.04 0.81
-13.67 127.62 23.09 -0.93 0.31 0.19 -0.14
-15.60 134.24 28.07 -0.90 -0.39 -0.21 -0.36
-15.13 133.54 30.04 -0.84 -0.54 -0.00 0.10
-12.55 132.53 24.25 -0.84 -0.54 -0.01 -0.61
-14.84 124.10 26.77 -0.72 -0.66 0.21 0.08
-14.15 134.59 25.39 -0.82 -0.41 -0.41 -0.11
-15.72 127.76 32.47 -0.79 0.03 0.61 -0.12
-14.50 131.13 33.66 -0.88 0.16 0.44 0.01
-15.06 133.09 31.65 -0.97 -0.25 0.00 0.55
-14.36 124.82 24.58 -0.68 -0.48 -0.56 0.02
-15.03 132.04 32.76 -0.95 -0.07 0.32 0.11
-12.57 130.15 22.73 -0.93 0.32 0.19 0.03
-13.39 123.89 28.39 -0.81 -0.58 -0.10 0.46
-14.09 123.93 25.56 -0.39 -0.86 -0.34 0.05
-15.62 126.32 32.07 -0.81 -0.35 0.47 0.02
-13.44 125.29 23.14 -0.36 -0.86 -0.38 0.21
-13.20 123.65 26.85 -0.36 -0.93 0.07 0.15
-15.13 125.34 31.66 -0.63 -0.71 0.30 0.20
-12.18 131.29 22.41 -0.99 0.13 0.06 0.21
-15.31 135.51 26.54 -0.82 0.21 -0.53 0.44
-15.47 134.39 30.73 -0.87 -0.48 0.09 0.45
-12.87 129.88 21.75 -0.86 0.48 0.15 -0.45
-14.05 127.76 33.71 -0.59 -0.35 0.73 -0.66
-13.29 133.49 24.17 -0.80 -0.59 0.10 -0.65
-12.39 132.24 22.48 -0.83 -0.54 0.14 -0.14
-14.34 128.87 34.57 -0.74 -0.28 0.61 -1.27
-16.13 135.12 29.10 -0.94 -0.34 -0.03 -0.18
-15.80 135.75 27.81 -0.79 0.11 -0.60 0.42
-14.98 133.11 32.78 -0.89 0.07 0.46 0.33
-13.79 123.47 30.17 -0.96 -0.18 -0.20 0.47
-14.24 135.99 25.88 -0.80 0.58 -0.16 0.31
-14.80 127.37 33.13 -0.55 -0.26 0.79 -0.08
-13.97 124.61 31.68 -0.84 -0.44 0.31 1.51
-14.37 135.06 24.15 -0.95 -0.25 0.19 -0.45
-14.11 130.04 34.78 -0.59 0.18 0.79 -0.71
-13.64 128.67 21.57 -0.88 0.45 0.17 -0.54
-12.40 123.45 27.36 -0.50 -0.82 -0.26 0.05
-14.03 125.85 21.91 -0.86 -0.50 0.14 0.79
-13.03 122.77 28.87 -0.67 -0.45 -0.59 0.40
-14.23 127.42 21.13 -0.99 0.12 0.11 -0.44
-12.81 124.03 24.92 -0.02 -0.73 -0.68 0.17
-12.17 125.64 23.01 0.22 -0.96 0.17 0.28
-15.57 134.74 31.77 -0.94 -0.17 0.31 0.37
-13.02 132.04 34.33 -0.42 0.26 0.87 0.18
-12.29 130.64 21.47 -0.94 0.31 0.11 -0.04
-13.45 133.10 22.53 -0.74 -0.64 0.17 -0.44
-14.68 134.42 33.07 -0.73 0.19 0.66 0.75
-14.25 126.26 32.96 -0.42 -0.47 0.78 0.23
-13.28 129.47 20.84 -0.86 0.50 0.11 -0.46
-12.37 131.55 21.14 -0.94 -0.23 0.24 0.26
-13.89 133.56 33.69 -0.52 0.14 0.84 0.52
-12.86 127.07 34.16 0.09 -0.56 0.82 -0.04
-13.72 123.30 31.45 -0.98 -0.03 0.17 0.76
-14.19 136.26 24.81 -0.84 0.44 0.32 -0.00
-14.13 136.75 27.52 0.07 0.88 -0.47 0.35
-12.64 130.61 20.45 -0.91 0.32 0.26 -0.12
-13.49 125.45 32.69 -0.45 -0.40 0.80 0.87
-12.99 132.42 21.26 -0.72 -0.64 0.27 0.11
-12.17 125.18 21.75 -0.20 -0.93 0.31 0.52
-12.83 128.38 35.08 -0.09 -0.31 0.95 -0.93
-13.77 122.07 29.98 -0.89 -0.28 -0.36 0.29
-11.55 123.47 25.47 -0.02 -0.87 -0.50 0.17
-15.23 137.27 27.86 -0.26 0.61 -0.75 0.70
-16.30 137.08 28.54 -0.86 0.43 -0.29 0.45
-16.24 136.58 30.01 -0.84 0.43 0.33 0.47
-13.17 137.14 26.15 -0.47 0.84 0.28 0.22
-11.77 124.85 24.57 0.19 -0.72 -0.67 0.14
-14.12 134.13 22.84 -0.82 -0.54 0.21 -0.70
-11.18 125.81 23.41 -0.01 -0.95 -0.31 -0.09
-12.66 130.41 35.00 0.00 0.13 0.99 -0.53
-14.25 126.91 20.02 -0.97 -0.21 0.09 0.04
-12.93 126.12 33.42 -0.09 -0.48 0.87 0.35
-13.63 125.24 20.79 -0.64 -0.77 -0.02 1.34
-12.95 124.16 33.10 -0.66 0.24 0.71 0.46
-11.74 122.29 28.52 -0.33 -0.76 -0.56 0.48
-14.80 135.23 22.69 -0.86 -0.40 0.31 -0.70
-10.86 122.74 26.87 -0.07 -0.86 -0.51 -0.61
-13.01 136.47 27.52 0.06 0.94 0.35 0.12
-12.35 133.21 34.41 0.04 0.22 0.98 0.17
-13.60 129.08 19.75 -0.87 0.48 0.14 -0.39
-12.20 121.43 29.23 -0.30 -0.67 -0.67 0.41
-13.77 133.05 21.00 -0.75 -0.61 0.26 -0.11
-14.51 137.12 24.12 -0.74 0.44 0.51 0.76
-10.87 125.61 22.34 -0.30 -0.84 0.45 0.34
-12.75 131.56 19.95 -0.82 -0.36 0.45 0.29
-13.08 130.00 19.55 -0.91 0.33 0.25 -0.32
-14.82 136.50 31.69 -0.40 0.72 0.57 0.93
-11.62 127.36 33.63 0.58 -0.40 0.71 0.13
-11.38 131.59 34.86 0.18 0.22 0.96 0.03
-13.60 122.98 32.53 -0.95 0.22 0.23 0.67
-12.19 124.92 20.63 -0.41 -0.91 0.01 0.48
-14.89 137.78 28.91 -0.08 0.99 -0.11 0.36
-13.26 135.73 33.10 -0.11 0.62 0.78 0.77
-13.63 121.33 30.80 -0.90 -0.26 -0.34 0.67
-12.20 137.34 25.51 0.07 0.96 0.26 0.21
-15.03 137.07 22.95 -0.63 0.49 0.60 0.41
-12.47 134.65 34.15 0.05 0.54 0.84 0.23
-10.70 124.65 24.82 0.02 -0.74 -0.67 -0.03
-14.64 134.46 21.58 -0.81 -0.56 0.17 -0.48
-13.18 137.57 24.15 -0.08 0.98 0.17 0.24
-11.98 124.94 33.06 0.09 0.08 0.99 0.53
-14.99 137.56 30.24 -0.05 0.92 0.39 0.82
-13.68 125.63 19.69 -0.70 -0.72 -0.00 0.36
-14.44 126.62 18.79 -0.97 -0.24 -0.03 0.30
-12.01 136.13 27.43 0.05 0.91 0.41 0.12
-11.57 129.37 34.59 0.46 -0.33 0.82 -0.40
-11.77 123.86 33.62 0.09 0.58 0.81 0.52
-11.01 124.36 21.40 -0.65 -0.39 0.66 1.18
-9.97 125.29 23.60 -0.51 -0.84 -0.18 0.15
-11.49 124.38 20.37 -0.74 -0.66 0.09 0.97
-10.07 122.08 27.68 0.17 -0.91 -0.38 -1.11
-13.54 137.29 29.37 0.52 0.85 -0.01 -0.21
-10.05 123.55 26.25 -0.06 -0.82 -0.58 -0.31
-12.70 123.17 34.04 -0.51 0.55 0.66 0.53
-12.54 120.85 30.28 -0.32 -0.58 -0.75 1.03
-14.32 128.34 18.42 -0.97 0.23 -0.10 -0.04
-10.23 121.71 29.13 0.56 -0.78 -0.26 0.07
-14.43 134.06 20.64 -0.73 -0.57 0.37 -0.46
-13.87 121.92 32.21 -0.99 0.16 0.04 0.97
-10.89 133.07 33.68 0.41 0.30 0.86 0.11
-14.38 133.33 19.81 -0.57 -0.57 0.60 -0.26
-13.82 129.30 18.21 -0.97 0.14 0.18 -0.22
-12.35 136.15 29.16 0.42 0.91 0.05 0.23
-10.96 126.32 32.75 0.57 -0.13 0.81 0.78
-10.80 127.59 32.59 0.67 -0.24 0.70 0.21
-12.23 136.21 32.35 0.54 0.79 0.30 0.39
-13.40 122.08 33.48 -0.88 0.27 0.38 1.17
-12.42 125.35 19.18 -0.43 -0.88 -0.20 0.38
-8.88 122.99 27.20 0.72 -0.65 -0.24 -0.57
-9.97 124.62 22.08 -0.61 -0.32 0.73 0.65
-10.80 120.68 30.12 0.41 -0.68 -0.61 0.45
-13.27 136.74 31.79 0.08 0.96 0.25 0.32
-9.84 124.74 24.50 -0.45 -0.79 -0.42 -0.00
-13.43 130.47 18.32 -0.78 -0.13 0.61 0.07
-11.13 134.49 33.53 0.51 0.56 0.65 0.17
-11.02 137.15 25.72 -0.26 0.92 0.29 -0.12
-11.22 137.28 24.69 -0.17 0.98 0.08 -0.18
-12.15 137.25 24.00 -0.09 1.00 0.01 -0.40
-15.98 136.40 21.48 -0.58 -0.61 0.54 -0.14
-13.79 120.10 31.61 -0.87 -0.29 -0.40 0.72
-13.88 125.64 18.26 -0.54 -0.79 -0.29 0.42
-15.30 135.10 20.65 -0.65 -0.58 0.48 -0.80
-9.67 131.43 34.61 -0.10 0.31 0.95 -0.95
-10.89 136.59 27.27 -0.38 0.87 0.30 0.06
-10.26 132.39 33.57 0.19 0.52 0.83 -0.09
-10.71 124.96 32.34 0.56 0.28 0.78 0.28
-11.54 135.15 32.69 0.56 0.73 0.41 0.74
-14.19 132.28 18.93 -0.33 -0.56 0.76 0.31
-11.37 136.10 28.51 -0.26 0.91 0.33 0.10
-12.89 136.44 30.55 0.47 0.88 0.09 0.51
-10.44 129.71 34.24 0.08 -0.46 0.88 -0.23
-9.31 124.09 25.13 -0.43 -0.82 -0.38 0.06
-9.04 122.72 28.45 0.84 -0.53 0.11 -1.25
-14.00 127.01 17.38 -0.75 -0.38 -0.54 0.36
-9.27 124.45 22.83 -0.78 -0.45 0.43 0.45
-16.34 137.47 22.27 -0.03 -0.18 0.98 -0.14
3 194 186 132
3 132 186 188
3 163 178 122
3 115 167 131
3 131 167 168
3 149 132 113
3 132 87 113
3 122 87 132
3 188 163 132
3 122 132 163
3 122 94 87
3 140 136 94
3 94 136 90
3 136 140 190
3 190 169 136
3 175 193 130
3 130 193 145
3 145 193 155
3 121 187 138
3 133 170 157
3 133 162 170
3 96 133 117
3 117 76 96
3 150 144 117
3 117 144 100
3 144 115 100
3 100 115 91
3 66 91 115
3 69 66 103
3 95 103 66
3 103 95 149
3 131 149 95
3 66 69 38
3 75 66 50
3 38 50 66
3 78 51 38
3 113 87 78
3 51 78 87
3 52 54 72
3 72 90 52
3 72 54 94
3 94 90 72
3 54 52 34
3 52 86 46
3 46 86 64
3 64 86 70
3 70 86 108
3 108 86 130
3 86 90 130
3 135 155 98
3 121 109 74
3 121 74 98
3 98 74 63
3 97 109 143
3 126 97 143
3 143 109 138
3 179 180 138
3 172 120 156
3 156 120 141
3 141 120 105
3 105 120 60
3 154 160 118
3 124 118 160
3 196 160 154
3 183 137 158
3 124 137 104
3 104 137 96
3 124 82 118
3 118 82 80
3 35 60 56
3 82 73 56
3 42 73 76
3 73 96 76
3 42 76 61
3 76 100 61
3 50 38 25
3 25 38 12
3 15 4 6
3 8 6 9
3 3 2 11
3 2 12 18
3 34 18 32
3 46 24 34
3 24 46 26
3 24 26 11
3 11 26 10
3 26 36 22
3 26 22 10
3 49 63 74
3 49 74 77
3 126 139 77
3 180 143 138
3 152 141 112
3 105 84 141
3 110 141 84
3 59 110 84
3 60 57 105
3 84 105 57
3 27 35 14
3 14 35 43
3 43 42 14
3 14 15 6
3 14 6 20
3 20 6 8
3 20 21 31
3 9 31 21
3 9 23 31
3 44 31 23
3 37 44 23
3 5 9 1
3 5 3 13
3 13 10 28
3 29 28 47
3 67 49 77
3 111 77 119
3 119 182 142
3 134 153 102
3 151 102 153
3 102 59 81
3 44 79 83
3 79 44 65
3 65 44 37
3 5 13 19
3 67 89 47
3 47 89 68
3 111 142 89
3 89 142 125
3 161 142 185
3 171 116 146
3 146 184 171
3 116 114 146
3 184 146 147
3 114 147 146
3 83 123 159
3 129 123 92
3 123 79 92
3 92 65 99
3 62 65 55
3 55 30 40
3 68 40 47
3 125 101 68
3 99 128 129
3 128 125 191
3 191 125 164
3 53 84 57
3 98 63 71
3 98 71 106
3 63 45 71
3 132 149 194
3 150 189 144
3 115 144 167
3 167 144 189
3 166 155 193
3 192 148 166
3 166 148 121
3 121 148 187
3 187 148 192
3 179 138 187
3 100 76 117
3 75 91 66
3 32 38 51
3 32 51 54
3 18 12 32
3 38 32 12
3 52 46 34
3 121 98 166
3 166 98 155
3 74 109 97
3 176 195 141
3 141 195 156
3 80 60 120
3 80 120 118
3 174 158 124
3 124 158 137
3 133 96 137
3 133 137 162
3 80 56 60
3 56 80 82
3 35 56 43
3 43 56 73
3 42 43 73
3 1 0 5
3 0 1 6
3 0 6 4
3 6 1 9
3 2 0 4
3 0 2 3
3 0 3 5
3 16 2 18
3 34 16 18
3 2 16 11
3 16 24 11
3 24 16 34
3 45 26 46
3 41 22 49
3 49 22 36
3 63 49 36
3 97 77 74
3 126 77 97
3 139 199 182
3 180 181 143
3 127 173 198
3 127 198 152
3 141 152 176
3 110 112 141
3 14 20 27
3 59 31 44
3 37 23 17
3 37 17 30
3 17 23 9
3 19 30 17
3 19 17 5
3 9 5 17
3 29 13 28
3 41 47 28
3 41 28 22
3 22 28 10
3 67 41 49
3 47 41 67
3 182 119 139
3 185 142 182
3 85 102 127
3 127 102 151
3 112 127 152
3 173 127 151
3 85 127 112
3 59 85 112
3 110 59 112
3 102 85 59
3 44 81 59
3 83 81 44
3 92 79 65
3 29 47 40
3 40 19 29
3 29 19 13
3 40 30 19
3 161 125 142
3 125 161 164
3 171 153 134
3 171 134 116
3 83 114 116
3 165 159 123
3 129 177 165
3 129 165 123
3 128 99 93
3 93 101 128
3 93 99 88
3 88 99 65
3 62 93 88
3 62 88 65
3 62 40 68
3 40 62 55
3 68 101 93
3 68 93 62
3 177 129 128
3 140 122 178
3 178 190 140
3 140 94 122
3 169 175 136
3 169 193 175
3 136 175 130
3 157 150 117
3 157 117 133
3 95 115 131
3 115 95 66
3 149 113 103
3 69 103 78
3 113 78 103
3 38 69 78
3 87 54 51
3 87 94 54
3 52 90 86
3 136 130 90
3 145 108 130
3 145 155 135
3 138 109 121
3 172 196 154
3 154 120 172
3 118 120 154
3 160 174 124
3 137 183 162
3 73 104 96
3 124 104 82
3 104 73 82
3 61 58 33
3 33 42 61
3 61 100 91
3 61 91 58
3 75 58 91
3 58 75 50
3 58 50 25
3 58 25 33
3 7 25 12
3 7 12 2
3 7 2 4
3 7 4 15
3 7 15 25
3 54 34 32
3 70 71 45
3 64 70 46
3 45 46 70
3 36 26 45
3 63 36 45
3 106 107 135
3 106 135 98
3 106 71 107
3 107 71 70
3 107 70 108
3 107 108 135
3 145 135 108
3 139 126 143
3 39 48 27
3 48 39 57
3 35 48 60
3 48 35 27
3 60 48 57
3 33 25 15
3 42 33 14
3 15 14 33
3 9 21 8
3 8 21 20
3 11 10 3
3 3 10 13
3 111 67 77
3 139 119 77
3 53 31 59
3 84 53 59
3 57 39 53
3 53 39 31
3 39 20 31
3 20 39 27
3 67 111 89
3 119 142 111
3 116 81 83
3 102 81 116
3 102 116 134
3 123 83 79
3 92 99 129
3 65 37 55
3 37 30 55
3 89 125 68
3 184 147 197
3 147 159 197
3 101 125 128
3 159 147 114
3 159 114 83
