ply
format ascii 1.0
comment Generated by MaSIF
element vertex 200
property float x
property float y
property float z
property float nx
property float ny
property float nz
property float charge
element face 349
property list uchar int vertex_indices
end_header
-15.09 128.59 26.01 -0.78 0.44 -0.44 -0.77
-14.88 129.16 27.02 -0.89 0.42 -0.16 -0.15
-14.52 127.46 25.31 -0.63 -0.09 -0.77 -0.53
-15.69 127.11 25.88 -0.64 -0.23 -0.73 -1.61
-14.09 128.25 24.64 -0.75 0.05 -0.66 -0.42
-16.25 127.84 27.52 -0.96 0.26 -0.05 -1.12
-13.68 130.04 25.85 -0.63 0.54 -0.55 -0.59
-13.57 129.55 24.81 -0.52 0.63 -0.57 -0.45
-15.44 129.04 28.10 -0.88 0.35 -0.32 0.00
-14.42 126.35 25.58 -0.68 -0.53 -0.51 -0.37
-13.80 127.08 24.70 -0.74 -0.18 -0.65 -0.56
-16.09 126.44 26.77 -0.78 -0.59 -0.20 -1.05
-14.60 130.45 27.58 -0.86 0.13 -0.49 -0.91
-13.27 128.52 23.79 -0.88 0.31 -0.37 -1.25
-12.52 129.83 24.92 -0.49 0.51 -0.71 -0.64
-13.47 131.02 25.99 -0.63 -0.25 -0.74 -0.91
-15.92 126.65 28.17 -0.96 -0.27 -0.09 -0.66
-13.23 126.65 24.01 -0.86 -0.20 -0.46 -1.23
-15.44 130.11 28.56 -0.70 0.08 -0.71 0.06
-15.97 128.29 29.04 -0.90 0.09 -0.43 0.52
-16.12 129.55 29.27 -0.80 -0.07 -0.59 -0.07
-13.59 125.25 24.96 -0.65 -0.64 -0.41 -0.31
-13.63 125.44 26.69 -0.53 -0.84 -0.10 0.04
-14.71 125.81 27.90 -0.47 -0.82 -0.33 -0.42
-14.44 131.60 26.94 -0.80 -0.48 -0.37 -0.80
-13.30 128.72 22.82 -0.87 0.17 0.46 -0.74
-11.94 130.72 25.05 -0.92 0.17 -0.34 -0.61
-12.42 129.64 23.27 -0.77 0.48 0.42 -0.79
-12.62 125.59 23.81 -0.51 -0.68 -0.53 -0.78
-16.44 127.63 29.91 -0.94 -0.21 -0.25 -0.34
-14.22 132.01 25.72 -0.56 -0.60 -0.57 -0.29
-12.56 131.87 25.37 -0.50 -0.27 -0.82 -0.28
-16.12 126.57 29.55 -0.91 -0.40 0.07 -0.11
-15.05 132.39 28.09 -0.99 0.07 -0.09 -0.25
-15.60 125.60 29.18 -0.72 -0.68 -0.15 -0.16
-13.03 126.99 22.81 -0.81 -0.58 0.10 -1.21
-16.55 130.57 29.27 -0.77 -0.04 -0.63 -0.12
-16.84 129.75 30.19 -0.92 -0.16 -0.35 -0.21
-12.63 124.77 25.73 -0.14 -0.99 0.02 -0.34
-14.16 124.97 28.63 -0.53 -0.71 -0.46 -0.06
-16.13 131.92 29.34 -0.76 0.38 -0.52 -0.02
-14.00 128.45 21.92 -0.85 -0.05 0.53 -0.56
-12.77 132.42 24.67 -0.55 -0.63 -0.55 -0.21
-12.51 125.00 27.82 -0.12 -0.88 -0.46 0.33
-12.49 130.43 22.64 -0.73 0.19 0.66 -0.23
-11.75 124.90 24.61 -0.15 -0.97 -0.20 -1.22
-14.66 133.27 28.84 -0.66 0.66 0.37 -0.16
-15.46 132.88 26.20 -0.83 -0.50 -0.23 -0.18
-11.74 131.17 23.77 -0.98 -0.12 0.17 -0.41
-16.85 129.24 31.29 -0.97 -0.03 0.24 -0.75
-13.80 126.76 21.79 -0.73 -0.57 0.39 0.03
-15.34 125.86 30.65 -0.77 -0.57 0.28 0.00
-13.99 130.09 21.69 -0.77 0.30 0.57 -1.01
-17.09 131.09 30.67 -0.98 0.17 0.02 -0.14
-16.95 127.93 31.56 -0.91 -0.19 0.37 -1.51
-15.49 133.58 27.28 -0.94 0.03 0.35 -0.14
-16.27 126.86 31.54 -0.70 -0.65 0.30 -0.76
-12.77 126.29 21.36 -0.14 -0.99 0.01 -0.17
-10.96 124.80 23.98 -0.18 -0.94 -0.28 -1.84
-15.39 132.75 29.67 -0.55 0.82 -0.15 -0.01
-11.09 125.80 22.74 -0.10 -0.76 -0.64 -1.61
-14.64 133.50 24.78 -0.53 -0.64 -0.56 -0.13
-11.40 126.16 21.89 0.20 -0.95 -0.26 -0.46
-14.47 129.14 21.04 -0.96 -0.01 0.30 -0.88
-13.12 130.98 22.00 -0.73 0.38 0.57 -0.39
-14.26 123.79 29.51 -0.70 -0.65 -0.30 -0.10
-10.78 125.00 25.83 0.14 -0.98 0.16 -1.09
-14.49 127.78 20.53 -0.93 -0.26 -0.25 0.40
-11.23 125.11 27.46 0.28 -0.96 -0.09 -0.07
-14.91 134.62 27.91 -0.72 0.36 0.60 -0.12
-13.74 134.10 28.94 -0.55 0.42 0.72 -0.17
-12.68 131.78 22.55 -0.88 0.09 0.47 -0.27
-14.36 124.53 30.87 -0.81 -0.57 0.15 0.06
-12.93 133.51 23.33 -0.67 -0.38 -0.64 -0.19
-15.89 132.83 31.10 -0.69 0.69 -0.23 -0.89
-15.90 134.21 25.92 -0.97 -0.23 0.04 -0.12
-13.95 133.69 24.02 -0.40 -0.67 -0.62 -0.15
-15.26 126.48 31.90 -0.53 -0.56 0.63 -0.55
-10.42 126.66 22.26 0.65 -0.37 -0.67 -1.08
-13.99 126.63 20.36 -0.55 -0.78 -0.30 0.22
-14.34 132.98 30.46 -0.30 0.94 -0.14 0.20
-9.69 124.78 23.79 0.10 -0.89 -0.45 -2.02
-12.55 123.41 29.13 -0.32 -0.71 -0.63 0.23
-10.66 124.76 28.65 0.31 -0.57 -0.76 -0.02
-15.65 127.57 32.65 -0.46 -0.36 0.81 -1.16
-12.89 126.71 19.91 -0.15 -0.65 -0.75 -0.14
-13.09 133.62 29.83 -0.72 0.62 0.31 -0.41
-11.40 126.59 20.62 0.43 -0.75 -0.50 0.15
-9.66 125.85 22.81 0.28 -0.36 -0.89 -1.74
-16.52 131.42 32.01 -0.97 0.06 0.24 -0.41
-15.95 130.04 32.57 -0.79 -0.21 0.58 -0.10
-10.58 127.09 21.34 0.78 -0.56 -0.29 -0.11
-14.69 130.42 20.13 -0.94 0.35 -0.03 -1.45
-14.47 129.17 19.65 -0.79 -0.16 -0.58 -1.30
-15.66 129.03 32.73 -0.63 -0.06 0.77 -0.76
-13.42 131.57 20.66 -0.74 0.67 0.06 -1.01
-14.60 134.36 23.50 -0.33 -0.81 -0.49 -0.11
-11.22 123.22 28.76 -0.06 -0.50 -0.86 0.67
-15.24 135.30 26.65 -0.80 0.26 0.54 -0.08
-12.54 132.84 22.46 -0.94 0.31 -0.12 -0.22
-14.15 124.88 31.92 -0.72 -0.51 0.47 -0.09
-10.22 125.71 27.86 0.22 -0.95 -0.22 -0.12
-15.69 134.67 24.25 -0.73 -0.65 -0.21 -0.06
-13.17 123.05 30.24 -0.59 -0.80 -0.11 0.17
-12.70 132.49 21.50 -0.89 0.45 0.06 -0.16
-14.41 126.00 32.68 -0.66 -0.36 0.66 -0.19
-13.16 135.23 28.85 -0.78 0.31 0.55 -0.17
-13.52 128.41 19.39 -0.40 -0.39 -0.83 -0.65
-15.31 133.69 31.73 -0.35 0.89 -0.30 -1.09
-9.57 125.56 26.66 -0.25 -0.97 0.01 -0.57
-13.36 134.65 23.02 -0.08 -0.82 -0.56 -0.14
-10.21 127.86 21.92 0.76 -0.59 -0.28 -1.00
-9.73 127.67 22.91 0.63 -0.37 -0.69 -2.11
-14.63 136.19 26.89 -0.58 0.40 0.71 -0.08
-13.33 123.29 31.49 -0.76 -0.59 0.26 0.11
-14.75 128.23 33.08 -0.52 -0.39 0.76 -0.26
-11.62 134.01 22.47 -0.88 -0.18 -0.43 -0.83
-16.33 132.81 32.78 -0.83 0.48 0.28 -1.51
-13.48 136.15 27.84 -0.61 0.50 0.61 -0.11
-9.25 124.93 28.96 0.46 -0.88 0.13 -0.22
-12.09 127.81 19.29 0.14 -0.44 -0.89 -0.53
-8.34 124.93 24.40 -0.23 -0.97 -0.10 -0.73
-13.62 130.71 19.03 -0.44 0.40 -0.80 -1.41
-13.33 133.54 31.42 -0.41 0.83 -0.37 -0.08
-16.09 136.01 25.67 -0.88 0.06 0.47 -0.06
-10.14 128.09 20.56 0.67 -0.65 -0.37 -0.23
-16.02 131.59 33.44 -0.83 -0.05 0.56 -0.96
-13.96 127.27 32.99 -0.35 -0.35 0.87 -0.08
-11.77 133.34 21.88 -0.84 0.52 0.13 0.09
-12.76 135.32 22.55 -0.27 -0.81 -0.52 -0.11
-14.80 129.85 33.51 -0.77 -0.29 0.57 -0.07
-14.53 134.87 22.55 -0.21 -0.95 -0.23 -0.06
-12.51 131.85 19.48 -0.47 0.37 -0.80 -0.35
-8.29 125.90 23.31 -0.13 -0.29 -0.95 -1.12
-13.00 129.45 18.76 -0.15 -0.11 -0.98 -0.87
-10.20 122.40 29.08 0.37 -0.59 -0.71 0.09
-9.51 123.63 29.41 0.76 -0.23 -0.60 0.10
-12.53 135.14 29.87 -0.98 0.04 0.21 -0.50
-12.14 122.24 30.73 -0.48 -0.87 -0.10 -0.32
-11.04 128.19 19.62 0.41 -0.53 -0.74 -0.19
-13.24 125.33 33.11 -0.61 -0.13 0.78 -0.84
-16.67 135.54 23.85 -0.63 -0.66 0.40 0.09
-10.96 121.93 29.88 -0.13 -0.91 -0.40 0.07
-8.62 127.44 23.56 0.17 -0.04 -0.98 -0.96
-12.29 132.83 19.98 -0.93 0.10 -0.34 -0.19
-15.59 135.26 22.49 -0.18 -0.98 -0.03 0.30
-12.33 133.83 20.86 -0.95 -0.12 0.30 -0.19
-14.51 133.90 33.04 -0.52 0.82 0.26 -0.45
-12.98 123.29 32.63 -0.66 -0.63 0.41 -0.93
-12.49 136.84 28.55 -0.74 0.66 0.09 -0.10
-11.59 134.23 21.49 -0.86 -0.27 0.44 -0.09
-9.80 125.65 29.66 0.93 -0.24 0.29 -0.14
-8.07 124.86 25.40 -0.25 -0.97 -0.00 -0.50
-14.06 128.15 34.00 -0.77 -0.57 0.29 -0.13
-15.09 131.32 34.47 -0.78 -0.15 0.60 -0.25
-8.75 128.48 22.82 0.10 -0.79 -0.60 -0.78
-13.16 137.26 27.14 -0.35 0.66 0.67 -0.08
-11.91 130.87 19.18 0.06 0.21 -0.98 -0.44
-12.68 134.59 32.13 -0.88 0.31 -0.36 0.06
-15.11 132.38 34.06 -0.63 0.44 0.63 -0.86
-11.80 129.26 18.92 0.17 -0.13 -0.98 -0.07
-12.83 136.77 30.16 -0.98 0.22 0.00 -0.11
-7.80 124.79 26.43 -0.30 -0.95 -0.11 -0.35
-9.63 122.33 30.28 0.81 -0.55 -0.21 0.11
-10.36 128.92 19.26 0.32 -0.46 -0.83 -0.19
-7.85 125.42 28.91 0.11 -0.68 0.72 -0.47
-8.07 124.69 27.78 -0.20 -0.97 0.12 -0.31
-16.14 137.01 24.53 -0.84 0.11 0.54 0.12
-14.45 129.87 34.87 -0.82 -0.21 0.53 -0.09
-12.17 125.39 33.70 0.01 0.31 0.95 -1.29
-8.65 126.45 29.56 0.27 -0.65 0.72 -0.53
-14.78 135.04 21.20 -0.20 -0.98 -0.05 0.12
-8.81 128.86 21.36 0.23 -0.93 -0.27 -0.97
-11.55 132.69 19.05 -0.48 -0.34 -0.81 -0.21
-16.99 136.79 23.80 -0.26 0.16 0.95 0.40
-17.08 135.28 22.82 -0.01 -0.97 0.25 0.69
-12.80 127.59 34.05 -0.16 -0.88 0.44 -0.13
-7.26 125.01 22.62 -0.44 -0.37 -0.82 -2.04
-9.53 124.46 31.00 0.96 0.18 0.19 -0.67
-14.21 138.08 26.21 -0.39 0.13 0.91 -0.06
-12.10 126.96 33.08 0.26 -0.20 0.94 -0.24
-16.04 135.03 21.54 -0.03 -1.00 -0.01 0.40
-13.06 134.62 20.74 -0.32 -0.94 0.12 -0.18
-6.87 126.70 22.73 -0.38 0.13 -0.91 -1.29
-12.14 133.54 19.05 -0.75 -0.53 -0.39 -0.68
-14.16 133.21 33.97 -0.74 0.48 0.47 -0.39
-6.73 124.72 25.62 -0.16 -0.98 0.12 -0.33
-13.84 134.63 33.00 -0.91 0.28 -0.30 -0.23
-15.40 137.90 25.65 -0.69 0.11 0.72 -0.04
-10.52 121.68 31.46 0.17 -0.94 0.28 0.38
-9.52 126.37 30.13 0.58 -0.80 0.15 -0.57
-7.37 127.63 23.29 -0.37 -0.25 -0.89 -0.23
-12.45 124.05 33.85 -0.35 -0.32 0.88 -1.27
-10.62 131.01 19.21 0.01 0.03 -1.00 -0.09
-11.69 122.81 32.67 -0.16 -0.78 0.60 -0.82
-13.89 128.21 35.16 -0.58 -0.65 0.49 -0.16
-18.09 136.10 23.83 -0.04 -0.45 0.89 0.79
-11.48 137.33 27.77 -0.63 0.78 -0.02 -0.06
-6.49 123.95 23.47 -0.29 -0.94 -0.19 -1.57
-12.64 135.74 31.59 -0.89 -0.20 -0.42 0.04
3 144 184 173
3 173 132 144
3 96 145 131
3 171 182 131
3 131 182 110
3 144 132 104
3 95 132 122
3 132 157 122
3 132 193 157
3 122 157 134
3 113 188 124
3 188 167 124
3 174 196 141
3 196 175 141
3 124 141 102
3 102 141 96
3 102 96 61
3 76 96 110
3 110 73 76
3 44 71 64
3 44 64 27
3 27 64 52
3 64 71 104
3 64 104 95
3 95 52 64
3 41 63 67
3 63 93 67
3 67 93 107
3 93 134 107
3 160 164 139
3 139 164 125
3 87 125 91
3 156 118 149
3 118 113 69
3 98 124 75
3 124 102 75
3 75 102 61
3 42 61 76
3 61 42 30
3 42 15 30
3 7 0 6
3 15 6 12
3 0 4 2
3 2 3 0
3 35 13 25
3 35 25 41
3 4 7 13
3 25 13 27
3 52 25 27
3 52 63 41
3 41 50 35
3 17 35 28
3 35 57 62
3 62 60 35
3 28 35 60
3 62 91 78
3 62 78 60
3 60 78 88
3 88 78 143
3 111 91 125
3 111 125 172
3 158 137 86
3 161 149 106
3 70 106 69
3 69 46 70
3 80 46 59
3 55 33 69
3 46 69 33
3 46 33 59
3 59 33 40
3 47 33 55
3 47 30 24
3 24 30 15
3 24 15 12
3 40 12 18
3 0 5 8
3 18 8 20
3 8 5 16
3 32 16 34
3 23 34 16
3 3 9 23
3 22 23 9
3 9 21 22
3 21 9 10
3 21 28 45
3 21 45 38
3 45 58 66
3 109 66 121
3 81 121 66
3 121 152 109
3 121 81 133
3 133 177 121
3 88 133 81
3 143 133 88
3 158 86 123
3 147 123 108
3 80 59 74
3 74 108 80
3 40 74 59
3 20 36 18
3 29 37 20
3 20 37 36
3 29 32 51
3 29 51 56
3 105 51 100
3 72 51 34
3 72 34 39
3 39 65 72
3 103 114 72
3 103 82 138
3 138 82 97
3 82 39 43
3 38 66 68
3 109 166 119
3 126 154 159
3 117 74 89
3 89 74 53
3 53 74 40
3 49 53 37
3 37 29 49
3 49 94 90
3 94 84 115
3 130 115 153
3 130 153 168
3 127 84 77
3 77 105 127
3 56 77 84
3 105 140 127
3 140 105 100
3 140 114 148
3 130 154 90
3 97 82 43
3 146 184 144
3 145 141 175
3 141 145 96
3 145 175 181
3 145 171 131
3 181 171 145
3 116 73 129
3 73 110 129
3 116 129 182
3 182 129 110
3 182 150 116
3 150 182 146
3 128 146 104
3 128 104 99
3 150 146 128
3 144 104 146
3 95 104 132
3 160 134 157
3 156 179 113
3 113 179 188
3 141 124 167
3 141 167 174
3 76 61 96
3 128 99 116
3 128 116 150
3 73 116 99
3 26 42 48
3 73 48 42
3 73 99 48
3 48 99 71
3 27 26 48
3 13 14 26
3 13 26 27
3 27 48 44
3 44 48 71
3 13 7 14
3 87 139 125
3 149 197 156
3 106 149 118
3 106 118 69
3 98 69 113
3 98 113 124
3 31 42 26
3 15 42 31
3 15 31 14
3 14 31 26
3 15 14 6
3 6 14 7
3 12 6 0
3 12 0 1
3 10 2 4
3 17 13 35
3 17 10 13
3 4 13 10
3 52 41 25
3 57 35 50
3 112 143 78
3 112 78 111
3 91 111 78
3 111 155 112
3 155 143 112
3 172 155 111
3 143 155 191
3 199 137 158
3 137 199 161
3 86 137 106
3 86 106 70
3 106 137 161
3 80 86 46
3 46 86 70
3 12 40 33
3 12 33 24
3 24 33 47
3 8 1 0
3 12 1 8
3 12 8 18
3 19 20 8
3 32 29 16
3 39 34 23
3 39 23 22
3 10 9 2
3 2 9 3
3 152 162 109
3 183 133 143
3 183 143 191
3 187 158 123
3 187 123 147
3 199 158 187
3 80 108 123
3 86 80 123
3 77 56 51
3 77 51 105
3 72 100 51
3 39 22 43
3 43 22 38
3 68 43 38
3 97 43 83
3 83 43 68
3 101 83 68
3 136 83 119
3 119 83 101
3 109 119 101
3 109 101 66
3 66 101 68
3 136 97 83
3 119 166 165
3 185 187 147
3 159 185 147
3 90 154 126
3 90 89 53
3 90 53 49
3 130 90 94
3 115 130 94
3 176 153 115
3 176 115 127
3 84 127 115
3 180 140 169
3 140 180 127
3 127 180 176
3 114 140 100
3 72 114 100
3 170 190 151
3 165 170 119
3 170 151 119
3 119 151 178
3 130 168 154
3 131 110 96
3 99 104 71
3 93 92 122
3 93 122 134
3 92 93 63
3 92 63 52
3 52 95 92
3 92 95 122
3 134 160 120
3 134 120 107
3 120 160 139
3 164 172 125
3 118 156 113
3 75 61 47
3 75 47 55
3 75 55 98
3 42 76 73
3 0 7 4
3 50 67 79
3 79 67 85
3 79 85 57
3 79 57 50
3 67 50 41
3 67 107 85
3 139 87 120
3 120 85 107
3 120 87 85
3 85 87 57
3 91 62 87
3 87 62 57
3 69 98 55
3 61 30 47
3 5 0 3
3 11 5 3
3 23 11 3
3 23 16 11
3 16 5 11
3 28 58 45
3 28 60 58
3 66 58 81
3 58 60 81
3 88 81 60
3 177 133 183
3 198 186 121
3 198 121 177
3 18 36 40
3 20 19 29
3 51 32 34
3 72 65 103
3 103 65 82
3 82 65 39
3 38 22 21
3 21 10 17
3 21 17 28
3 45 66 38
3 109 162 166
3 126 117 89
3 126 159 117
3 159 147 117
3 108 117 147
3 74 117 108
3 37 53 36
3 53 40 36
3 84 54 56
3 29 56 54
3 84 94 54
3 54 94 49
3 54 49 29
3 138 194 148
3 148 114 138
3 138 114 103
3 142 163 189
3 142 189 138
3 138 189 194
3 135 97 136
3 135 136 163
3 135 163 142
3 135 142 97
3 97 142 138
3 89 90 126
3 153 176 195
3 153 195 168
3 192 148 194
3 192 169 140
3 192 140 148
3 178 163 136
3 178 136 119
3 16 29 19
3 16 19 8
3 186 162 152
3 186 152 121
