ply
format ascii 1.0
comment Generated by MaSIF
element vertex 200
property float x
property float y
property float z
property float nx
property float ny
property float nz
property float charge
element face 338
property list uchar int vertex_indices
end_header
-15.02 130.56 27.87 -0.91 -0.25 -0.33 -0.21
-14.36 130.81 26.85 -0.77 -0.10 -0.63 0.08
-15.06 130.71 29.39 -0.98 0.15 0.13 -0.12
-14.38 129.58 27.06 -0.89 -0.05 -0.45 0.62
-15.02 132.14 27.43 -0.77 0.22 -0.59 -1.64
-15.54 132.10 28.63 -0.99 0.06 0.10 -1.23
-14.07 128.93 26.30 -0.90 0.15 -0.41 0.27
-13.35 131.13 25.76 -0.79 0.19 -0.58 0.52
-14.38 128.35 27.24 -0.95 -0.06 -0.30 0.51
-14.21 130.45 30.55 -0.60 0.64 0.49 0.36
-15.20 129.89 30.51 -0.56 0.80 0.21 0.21
-13.96 131.53 30.39 -0.67 0.07 0.74 0.39
-15.02 133.28 29.02 -0.98 0.17 0.01 -0.15
-15.80 129.40 29.37 -0.77 0.49 -0.41 0.28
-13.59 133.04 27.04 -0.77 0.01 -0.63 0.21
-14.93 127.99 28.24 -0.82 -0.04 -0.57 0.79
-13.27 129.49 25.19 -0.84 0.15 -0.53 0.17
-14.32 127.73 26.34 -0.96 -0.10 -0.28 0.29
-14.16 132.58 30.40 -0.83 -0.18 0.53 0.02
-13.68 127.92 25.21 -0.81 -0.02 -0.58 0.18
-12.81 132.09 25.19 -0.99 0.05 -0.12 0.68
-14.45 130.03 31.58 -0.42 0.90 0.10 -0.23
-13.21 131.16 31.07 -0.86 0.16 0.48 0.41
-16.66 128.90 30.28 -0.86 0.46 -0.21 0.06
-15.73 127.86 29.01 -0.76 -0.05 -0.65 0.31
-16.02 129.31 31.63 -0.76 0.61 0.23 -0.59
-14.94 134.34 28.25 -0.97 -0.21 -0.14 0.56
-14.00 126.60 27.07 -0.91 -0.27 -0.32 0.03
-12.73 132.71 26.03 -0.96 -0.00 -0.28 0.52
-14.01 134.04 26.97 -0.73 -0.59 -0.35 0.72
-13.46 130.44 32.02 -0.78 0.62 -0.04 0.41
-12.54 130.74 24.19 -0.98 0.05 -0.21 0.45
-12.65 128.97 24.26 -0.98 0.08 -0.21 0.03
-12.87 132.97 24.84 -0.98 -0.18 0.03 0.57
-14.59 135.31 29.50 -0.97 0.16 0.17 0.18
-13.24 134.10 25.74 -0.75 -0.62 -0.24 0.25
-13.92 133.09 31.66 -0.93 -0.27 0.27 0.12
-14.33 134.04 31.01 -0.95 -0.16 0.25 -0.12
-15.15 129.78 32.80 -0.52 0.73 0.44 -0.30
-14.96 135.45 28.50 -0.94 0.14 0.30 0.65
-13.49 126.37 25.53 -0.84 -0.31 -0.45 0.02
-14.14 125.89 27.66 -0.77 -0.11 -0.63 -0.35
-13.06 131.57 32.14 -0.99 -0.12 -0.06 0.51
-15.21 126.11 28.75 -0.86 -0.15 -0.49 -0.04
-12.76 131.72 23.75 -0.98 -0.21 -0.08 0.65
-16.80 127.55 30.69 -0.99 -0.07 -0.13 -0.02
-14.04 130.12 33.13 -0.75 0.57 0.33 0.35
-14.53 134.51 26.06 -0.58 -0.81 -0.11 0.24
-15.70 128.66 33.09 -0.68 0.20 0.70 -0.87
-15.21 135.46 27.42 -0.94 -0.29 0.20 0.87
-13.62 131.25 32.89 -0.95 0.16 -0.26 0.53
-12.57 126.94 24.02 -0.88 -0.40 -0.25 0.04
-13.39 125.20 26.79 -0.83 -0.40 -0.40 -0.23
-12.88 128.15 23.64 -0.98 -0.13 0.17 0.05
-16.31 127.59 32.35 -0.82 -0.07 0.56 -0.32
-12.37 131.35 22.81 -0.99 -0.08 -0.10 0.30
-15.53 125.98 29.95 -0.86 -0.46 -0.22 -0.03
-12.63 130.35 22.54 -0.96 0.26 -0.14 -0.08
-13.08 133.85 23.77 -0.86 -0.50 0.06 0.11
-13.53 132.58 32.77 -0.99 -0.09 -0.12 0.49
-12.91 129.27 22.67 -0.99 0.15 -0.01 -0.19
-14.22 134.96 32.12 -0.91 -0.13 0.39 -0.55
-14.43 128.79 33.69 -0.43 0.12 0.90 0.26
-13.99 136.89 29.58 -0.93 0.35 -0.04 -0.59
-14.24 134.77 24.63 -0.57 -0.80 -0.18 0.20
-16.56 126.29 31.40 -0.75 -0.60 0.27 0.07
-15.22 127.58 33.21 -0.43 -0.29 0.86 -0.52
-14.76 136.40 30.87 -0.98 0.19 0.03 -1.44
-13.61 130.64 34.10 -0.94 -0.14 0.31 0.99
-15.51 135.43 25.89 -0.86 -0.51 0.04 0.21
-12.14 125.16 24.72 -0.47 -0.64 -0.61 0.13
-14.49 137.01 28.13 -0.82 0.32 0.47 0.10
-12.89 132.84 22.83 -0.88 -0.42 0.19 0.33
-12.95 124.70 25.71 -0.63 -0.69 -0.35 0.05
-13.49 124.20 27.28 -0.37 -0.60 -0.70 -0.86
-14.94 124.48 29.31 -0.96 -0.27 -0.10 -0.74
-15.49 136.78 27.20 -0.90 0.04 0.44 0.18
-12.29 124.34 26.51 -0.24 -0.93 -0.27 -0.12
-14.69 124.24 28.12 -0.72 -0.33 -0.61 -1.39
-15.36 126.68 32.63 -0.36 -0.56 0.74 -0.06
-13.47 134.12 33.43 -1.00 -0.02 0.06 0.19
-13.81 132.12 34.19 -0.98 -0.13 -0.15 1.08
-13.03 128.98 34.51 -0.71 -0.10 0.70 0.46
-12.29 126.44 22.61 -0.71 -0.67 0.22 -0.04
-12.57 131.50 21.48 -0.89 -0.40 0.23 0.20
-13.58 134.09 22.89 -0.67 -0.61 0.42 0.21
-13.04 127.58 21.96 -0.99 -0.11 -0.01 -0.20
-11.04 126.11 23.03 -0.20 -0.98 -0.05 -0.07
-15.02 125.11 31.11 -0.92 -0.26 0.28 0.25
-13.92 137.62 30.45 -0.77 0.63 0.10 -0.82
-12.56 129.36 21.35 -0.99 0.15 -0.07 -0.67
-14.28 136.41 32.23 -0.76 0.44 0.47 -1.68
-15.15 125.79 31.80 -0.55 -0.66 0.51 0.23
-13.69 136.02 32.98 -0.83 0.23 0.50 -0.91
-14.72 135.42 23.82 -0.65 -0.76 0.08 0.18
-13.66 138.09 29.27 -0.80 0.54 0.28 -0.78
-13.44 133.05 22.08 -0.67 -0.57 0.48 0.24
-13.92 127.37 33.49 -0.44 -0.37 0.82 1.40
-13.34 130.81 35.32 -0.83 -0.49 0.27 1.20
-12.74 129.99 35.14 -0.60 -0.41 0.69 1.22
-13.50 135.25 33.73 -0.96 0.27 -0.03 -0.21
-14.83 123.69 30.23 -0.99 -0.02 -0.16 0.20
-11.29 124.28 25.77 -0.15 -0.98 -0.12 -0.18
-15.67 135.82 24.50 -0.71 -0.70 -0.04 0.15
-14.15 126.42 32.63 -0.46 -0.48 0.75 1.12
-15.93 136.98 25.54 -0.93 -0.21 0.30 0.16
-12.86 123.25 28.31 0.04 -0.57 -0.82 -0.85
-11.61 124.44 27.83 0.40 -0.86 -0.31 -0.37
-14.35 138.44 27.25 -0.61 0.72 0.32 0.08
-13.13 132.30 21.45 -0.61 -0.62 0.49 0.21
-15.33 138.26 26.56 -0.66 0.41 0.63 0.08
-12.87 127.75 34.38 -0.62 -0.25 0.74 -0.13
-10.46 124.26 24.90 -0.29 -0.86 -0.41 -0.83
-14.27 122.70 28.83 -0.64 -0.36 -0.68 -0.23
-13.91 131.83 35.73 -0.78 -0.62 0.11 0.73
-14.11 124.79 32.00 -0.72 -0.12 0.69 0.97
-12.68 131.45 19.98 -0.93 -0.36 -0.01 0.22
-11.99 128.72 35.71 -0.43 -0.21 0.88 0.37
-13.03 136.38 33.76 -0.75 0.62 0.25 -0.63
-12.90 138.51 29.97 -0.66 0.75 0.12 -0.34
-14.89 134.63 22.34 -0.73 -0.46 0.51 0.16
-12.67 126.31 20.95 -0.83 -0.55 -0.09 0.15
-12.93 138.11 31.28 -0.71 0.63 0.32 -0.00
-10.05 125.26 24.01 -0.32 -0.69 -0.65 -0.40
-14.72 123.96 31.73 -0.87 0.28 0.41 0.30
-14.21 134.20 35.17 -0.94 0.14 -0.32 -0.13
-9.63 125.86 23.21 -0.55 -0.78 -0.30 -0.25
-13.71 132.08 20.39 -0.58 -0.81 0.04 0.15
-10.10 125.92 21.88 -0.15 -0.94 0.30 -0.31
-12.39 130.56 36.31 -0.21 -0.59 0.78 0.61
-12.96 128.31 20.17 -0.97 0.00 -0.23 -0.24
-10.47 124.34 26.50 -0.03 -0.95 0.31 -0.74
-15.35 135.80 22.50 -0.87 -0.48 -0.08 0.14
-13.18 139.32 28.40 -0.54 0.82 0.18 -1.70
-11.53 125.41 20.91 -0.41 -0.91 -0.07 -0.05
-14.56 132.92 36.19 -0.97 -0.23 -0.02 0.70
-12.43 126.86 19.96 -0.74 -0.50 -0.45 -0.04
-11.26 130.15 35.96 0.04 -0.42 0.91 0.86
-14.12 138.84 26.15 -0.25 0.85 0.46 0.26
-15.28 122.60 31.02 -1.00 0.04 0.04 -0.04
-12.80 137.66 32.29 -0.64 0.59 0.50 -0.15
-12.46 129.77 19.30 -0.98 -0.09 -0.19 -0.12
-16.47 136.68 23.38 -0.91 -0.37 -0.18 0.11
-14.07 131.96 36.81 -0.70 -0.63 0.34 0.84
-13.32 125.38 33.06 -0.75 -0.08 0.66 0.68
-13.12 139.09 26.66 -0.45 0.88 0.16 0.36
-10.82 123.98 28.94 0.64 -0.44 -0.63 -0.18
-16.38 138.40 25.59 -0.69 0.25 0.68 0.07
-16.77 137.93 24.50 -0.98 -0.10 0.16 0.08
-10.25 125.00 27.60 0.20 -0.89 0.42 -0.34
-12.45 126.36 34.55 -0.63 -0.18 0.75 -1.11
-9.37 123.65 25.73 0.01 -0.99 0.13 -0.77
-14.83 139.35 25.45 -0.17 0.81 0.57 0.09
-12.99 136.70 34.92 -0.65 0.75 -0.06 0.45
-11.33 127.76 35.28 -0.27 -0.19 0.94 0.63
-10.15 125.30 20.96 -0.35 -0.86 0.37 -0.35
-11.77 139.39 29.84 -0.54 0.83 0.16 0.80
-13.94 135.20 35.70 -0.87 0.47 -0.13 0.20
-14.90 121.67 30.10 -0.87 -0.27 -0.40 -0.21
-11.61 122.30 29.26 0.49 -0.32 -0.81 -0.38
-10.53 129.06 35.66 0.04 -0.16 0.99 0.61
-14.78 123.01 32.60 -0.73 0.16 0.67 0.09
-12.75 131.48 36.97 -0.07 -0.69 0.72 0.66
-9.17 125.61 22.29 -0.70 -0.67 0.24 -0.48
-12.72 131.83 18.60 -0.83 -0.52 0.18 0.31
-8.82 124.04 24.54 -0.11 -0.92 -0.38 0.03
-13.93 121.16 29.32 -0.37 -0.58 -0.73 -0.21
-13.83 123.70 32.87 -0.57 0.13 0.81 0.59
-11.61 137.22 33.87 -0.18 0.86 0.47 -0.02
-14.96 133.01 21.24 -0.61 -0.67 0.42 0.15
-12.17 139.35 31.01 -0.62 0.78 0.05 2.42
-8.96 124.59 23.62 -0.53 -0.82 -0.23 -0.14
-14.64 134.14 36.60 -0.98 0.20 0.09 0.43
-9.92 125.43 28.66 0.18 -0.95 -0.24 -0.24
-15.47 135.62 20.90 -0.97 0.03 0.23 0.15
-8.99 124.41 26.74 0.18 -0.86 0.47 -1.06
-10.73 125.59 19.86 -0.67 -0.72 -0.21 -0.27
-15.06 132.93 19.96 -0.70 -0.68 -0.24 0.15
-12.74 121.18 29.35 0.02 -0.51 -0.86 -0.49
-12.08 127.35 18.95 -0.74 -0.39 -0.54 0.20
-15.74 137.30 22.11 -0.89 -0.15 -0.43 0.13
-14.08 132.95 18.93 -0.68 -0.70 -0.22 0.19
-15.80 134.13 20.74 -0.94 -0.22 0.26 0.13
-13.64 139.58 25.26 -0.24 0.92 0.32 0.14
-12.58 130.45 18.29 -0.87 -0.36 0.33 0.31
-11.94 138.25 33.04 -0.54 0.49 0.68 2.22
-9.86 124.56 29.49 0.30 -0.60 -0.74 -0.89
-13.93 133.03 37.66 -0.61 -0.27 0.74 0.79
-10.29 131.21 35.98 0.37 -0.10 0.92 1.04
-16.32 139.37 24.98 -0.66 0.69 0.30 0.05
-9.80 130.19 35.57 0.41 -0.10 0.91 0.71
-10.87 126.91 35.45 -0.12 -0.02 0.99 0.51
-11.36 132.31 36.56 0.54 -0.29 0.79 1.05
-11.98 139.82 27.22 -0.68 0.72 0.14 0.17
-16.44 139.11 23.85 -0.78 0.58 -0.24 0.06
-12.33 125.24 34.21 -0.69 -0.15 0.71 0.10
-14.75 121.85 32.48 -0.79 -0.06 0.61 -0.25
-11.90 129.25 17.89 -0.77 -0.53 -0.36 0.21
-11.20 139.93 29.06 -0.50 0.82 0.25 0.21
-9.10 125.27 27.87 -0.21 -0.97 0.13 -0.08
3 176 155 134
3 134 121 136
3 87 155 128
3 123 171 165
3 130 86 90
3 51 83 87
3 51 87 70
3 70 40 19
3 112 70 123
3 70 112 102
3 102 112 131
3 184 197 141
3 197 179 141
3 32 53 51
3 32 51 19
3 53 83 51
3 17 6 19
3 16 19 6
3 6 3 16
3 3 8 15
3 17 40 27
3 40 73 52
3 52 74 41
3 73 77 52
3 52 77 74
3 74 77 107
3 74 107 106
3 146 159 107
3 107 159 106
3 177 181 127
3 116 184 141
3 90 55 84
3 127 84 109
3 55 90 57
3 55 57 31
3 31 44 55
3 31 32 16
3 31 7 20
3 20 44 31
3 1 4 7
3 3 1 7
3 4 1 0
3 0 3 2
3 15 24 2
3 13 2 24
3 43 56 24
3 75 43 78
3 43 41 78
3 78 113 75
3 106 113 78
3 106 178 113
3 113 158 101
3 101 158 139
3 117 154 160
3 82 111 117
3 154 117 111
3 68 99 98
3 82 117 99
3 98 99 129
3 117 160 99
3 99 160 137
3 99 137 129
3 160 190 137
3 129 137 188
3 137 190 188
3 98 129 114
3 114 129 162
3 114 162 143
3 174 120 132
3 120 169 109
3 20 33 44
3 58 44 33
3 58 33 35
3 58 35 64
3 14 4 12
3 12 26 14
3 29 14 26
3 12 5 18
3 18 2 11
3 10 2 13
3 21 10 25
3 25 54 48
3 48 54 66
3 45 56 65
3 79 66 54
3 92 65 56
3 92 56 88
3 124 88 101
3 88 75 101
3 101 139 124
3 124 161 167
3 195 150 144
3 97 144 111
3 66 97 62
3 21 38 46
3 50 46 68
3 50 68 81
3 38 62 46
3 81 98 114
3 114 135 81
3 135 125 81
3 157 100 125
3 100 153 118
3 118 93 100
3 118 153 168
3 180 132 142
3 142 105 148
3 69 103 64
3 120 85 94
3 94 85 58
3 94 58 64
3 49 69 47
3 47 29 49
3 69 49 76
3 49 39 71
3 71 76 49
3 71 39 34
3 34 67 63
3 34 39 26
3 26 12 34
3 37 67 34
3 37 18 36
3 42 59 36
3 81 59 50
3 80 125 100
3 61 80 93
3 100 93 80
3 67 61 91
3 93 140 91
3 140 93 118
3 185 140 168
3 105 69 76
3 105 110 148
3 148 110 147
3 147 110 152
3 108 138 110
3 133 108 95
3 71 95 108
3 63 89 95
3 95 89 119
3 119 170 156
3 119 156 95
3 95 156 133
3 193 133 198
3 156 198 133
3 138 183 152
3 110 138 152
3 42 36 18
3 128 155 163
3 136 176 134
3 126 123 87
3 87 128 126
3 123 126 171
3 163 126 128
3 70 19 51
3 87 123 70
3 107 102 131
3 149 107 131
3 199 149 175
3 149 199 173
3 173 186 107
3 173 107 149
3 146 107 186
3 16 32 19
3 3 6 8
3 8 6 17
3 15 8 27
3 27 8 17
3 27 41 15
3 15 41 43
3 40 52 27
3 27 52 41
3 107 77 102
3 178 106 159
3 127 181 164
3 127 164 116
3 116 164 184
3 84 127 116
3 84 116 90
3 96 109 72
3 72 55 44
3 55 72 84
3 84 72 109
3 7 31 16
3 28 33 20
3 14 28 7
3 14 7 4
3 20 7 28
3 0 1 3
3 56 43 75
3 101 75 113
3 111 82 97
3 62 97 82
3 85 120 96
3 85 96 72
3 96 120 109
3 85 72 58
3 58 72 44
3 47 35 29
3 33 28 35
3 35 28 14
3 35 14 29
3 9 11 2
3 2 10 9
3 9 10 21
3 104 79 92
3 115 104 92
3 115 88 124
3 88 115 92
3 144 104 115
3 124 144 115
3 167 144 124
3 104 144 97
3 79 104 97
3 66 79 97
3 18 11 22
3 22 42 18
3 42 22 30
3 46 30 21
3 21 30 9
3 9 30 22
3 9 22 11
3 59 42 50
3 50 42 30
3 50 30 46
3 99 68 82
3 62 82 46
3 46 82 68
3 103 69 105
3 94 64 103
3 132 94 103
3 132 120 94
3 63 71 34
3 61 67 37
3 61 37 36
3 36 80 61
3 81 125 80
3 59 81 80
3 59 80 36
3 140 185 122
3 145 183 138
3 145 108 133
3 108 145 138
3 71 63 95
3 170 119 122
3 122 119 89
3 145 133 193
3 175 149 131
3 121 134 83
3 134 155 87
3 134 87 83
3 86 130 136
3 86 121 83
3 121 86 136
3 131 151 175
3 151 131 112
3 151 112 165
3 165 112 123
3 130 90 141
3 136 130 179
3 130 141 179
3 86 60 90
3 53 86 83
3 40 17 19
3 73 70 77
3 73 40 70
3 70 102 77
3 90 116 141
3 32 31 60
3 60 31 57
3 60 57 90
3 16 3 7
3 15 2 3
3 15 43 24
3 78 74 106
3 78 41 74
3 158 113 166
3 166 113 178
3 188 192 129
3 162 129 192
3 169 120 182
3 169 182 177
3 182 120 174
3 177 127 169
3 109 169 127
3 0 2 5
3 12 4 5
3 4 0 5
3 2 18 5
3 24 23 13
3 13 23 10
3 23 25 10
3 24 45 23
3 23 45 25
3 54 25 45
3 56 45 24
3 65 92 79
3 65 79 54
3 65 54 45
3 75 88 56
3 161 139 196
3 161 124 139
3 111 150 154
3 111 144 150
3 48 66 62
3 62 38 48
3 48 38 25
3 21 25 38
3 68 98 81
3 135 114 143
3 135 143 187
3 187 143 162
3 187 172 135
3 135 172 125
3 125 172 157
3 153 100 157
3 142 103 105
3 103 142 132
3 35 47 64
3 64 47 69
3 49 26 39
3 29 26 49
3 18 37 12
3 34 12 37
3 93 91 61
3 168 140 118
3 71 110 76
3 105 76 110
3 108 110 71
3 91 89 67
3 91 140 122
3 91 122 89
3 67 89 63
3 189 147 152
3 189 194 148
3 189 148 147
3 60 86 53
3 60 53 32
