ply
format ascii 1.0
comment Generated by MaSIF
element vertex 200
property float x
property float y
property float z
property float nx
property float ny
property float nz
property float charge
element face 340
property list uchar int vertex_indices
end_header
-14.29 130.99 27.63 -0.79 0.07 -0.61 0.08
-14.92 130.46 28.55 -0.92 -0.17 -0.36 -0.21
-14.29 129.75 27.48 -0.90 0.06 -0.42 0.62
-13.31 131.62 26.65 -0.81 0.33 -0.48 0.52
-14.94 132.10 28.59 -0.79 0.37 -0.49 -1.64
-13.99 129.35 26.57 -0.91 0.24 -0.33 0.27
-14.28 128.53 27.31 -0.96 0.02 -0.28 0.51
-14.92 130.17 30.06 -0.98 0.09 0.19 -0.12
-15.43 131.71 29.73 -0.99 0.01 0.14 -1.23
-12.79 132.72 26.37 -0.99 0.07 -0.08 0.68
-13.23 130.22 25.64 -0.85 0.28 -0.44 0.17
-13.53 133.09 28.43 -0.79 0.17 -0.59 0.21
-12.70 133.08 27.34 -0.97 0.06 -0.25 0.52
-14.79 127.89 28.18 -0.84 0.11 -0.54 0.79
-14.91 132.74 30.42 -0.99 0.15 0.08 -0.15
-12.54 131.71 25.02 -0.98 0.09 -0.17 0.45
-14.24 128.18 26.27 -0.96 -0.03 -0.27 0.29
-13.63 128.70 25.22 -0.83 0.13 -0.54 0.18
-12.87 133.66 26.28 -0.98 -0.19 -0.00 0.57
-14.04 129.61 31.07 -0.59 0.46 0.66 0.36
-15.02 129.07 30.90 -0.56 0.70 0.44 0.21
-13.80 130.69 31.22 -0.65 -0.15 0.75 0.39
-15.65 128.91 29.68 -0.79 0.57 -0.24 0.28
-13.88 126.90 26.64 -0.91 -0.18 -0.36 0.03
-12.78 132.77 24.88 -0.98 -0.19 -0.11 0.65
-15.57 127.53 28.90 -0.77 0.13 -0.62 0.31
-13.97 134.07 28.65 -0.73 -0.48 -0.48 0.72
-12.63 130.00 24.59 -0.98 0.12 -0.15 0.03
-14.86 133.98 29.98 -0.97 -0.18 -0.17 0.56
-14.00 131.69 31.53 -0.82 -0.33 0.47 0.02
-13.23 134.49 27.47 -0.75 -0.54 -0.39 0.25
-12.41 132.69 23.86 -0.99 -0.06 -0.09 0.30
-12.67 131.80 23.33 -0.96 0.27 -0.04 -0.08
-14.24 128.90 31.94 -0.43 0.83 0.36 -0.23
-13.41 127.12 25.09 -0.85 -0.18 -0.50 0.02
-14.00 126.06 27.01 -0.78 0.06 -0.62 -0.35
-15.04 125.93 28.14 -0.87 -0.02 -0.49 -0.04
-13.02 130.16 31.75 -0.85 0.00 0.53 0.41
-13.12 134.81 25.51 -0.86 -0.51 -0.06 0.11
-16.47 128.16 30.43 -0.87 0.48 -0.05 0.06
-14.48 134.55 31.45 -0.97 0.09 0.23 0.18
-15.80 128.18 31.83 -0.76 0.51 0.41 -0.59
-14.17 132.91 32.53 -0.95 -0.24 0.22 -0.12
-12.94 130.73 23.15 -0.99 0.13 0.06 -0.19
-12.88 129.38 23.76 -0.97 -0.19 0.15 0.05
-13.25 129.19 32.46 -0.79 0.59 0.16 0.41
-12.55 128.12 23.78 -0.89 -0.33 -0.33 0.04
-13.27 125.65 25.96 -0.83 -0.29 -0.48 -0.23
-14.51 134.76 27.93 -0.57 -0.75 -0.33 0.24
-14.88 134.97 30.54 -0.94 0.04 0.35 0.65
-12.95 134.11 24.32 -0.88 -0.48 0.09 0.33
-15.16 135.28 29.51 -0.93 -0.35 0.13 0.87
-13.74 131.82 32.88 -0.92 -0.35 0.20 0.12
-16.59 126.74 30.45 -0.99 -0.05 -0.12 -0.02
-12.65 133.21 22.64 -0.88 -0.46 0.13 0.20
-15.33 125.46 29.26 -0.86 -0.39 -0.32 -0.03
-13.65 135.28 24.74 -0.66 -0.71 0.25 0.21
-14.90 128.31 33.07 -0.52 0.57 0.64 -0.30
-12.85 130.25 32.89 -0.99 -0.11 -0.07 0.51
-14.26 135.42 26.62 -0.57 -0.73 -0.39 0.20
-12.63 131.19 21.91 -0.99 0.15 0.00 -0.67
-13.79 128.56 33.45 -0.75 0.44 0.50 0.35
-12.08 126.21 23.94 -0.48 -0.45 -0.75 0.13
-12.86 125.49 24.77 -0.64 -0.57 -0.52 0.05
-13.35 124.55 26.15 -0.39 -0.39 -0.84 -0.86
-13.52 134.51 23.68 -0.65 -0.69 0.31 0.24
-14.74 124.22 28.21 -0.96 -0.25 -0.14 -0.74
-12.17 124.92 25.42 -0.24 -0.82 -0.52 -0.12
-15.44 127.15 33.04 -0.67 -0.02 0.75 -0.87
-14.04 133.48 33.85 -0.90 -0.25 0.35 -0.55
-14.52 124.33 27.00 -0.73 -0.16 -0.66 -1.39
-15.51 135.68 28.05 -0.85 -0.52 -0.09 0.21
-13.38 129.72 33.53 -0.96 0.21 -0.18 0.53
-13.89 136.06 31.96 -0.94 0.34 0.08 -0.59
-16.06 126.32 32.03 -0.81 -0.24 0.54 -0.32
-14.63 135.21 33.08 -0.98 0.16 0.10 -1.44
-12.29 128.04 22.27 -0.70 -0.72 0.03 -0.04
-13.08 129.31 22.00 -0.99 -0.12 -0.01 -0.20
-14.44 136.58 30.62 -0.81 0.16 0.56 0.10
-13.22 133.98 22.85 -0.59 -0.75 0.31 0.21
-15.46 136.60 29.69 -0.88 -0.10 0.46 0.18
-11.03 127.62 22.56 -0.19 -0.93 -0.32 -0.07
-16.32 125.34 30.76 -0.74 -0.66 0.11 0.07
-13.31 131.03 33.78 -0.99 -0.07 -0.12 0.49
-14.77 136.27 26.04 -0.64 -0.76 -0.12 0.18
-14.15 127.13 33.62 -0.40 -0.15 0.90 0.26
-12.80 133.58 21.19 -0.93 -0.36 -0.09 0.22
-14.78 124.31 30.12 -0.91 -0.35 0.22 0.25
-14.97 135.93 24.40 -0.71 -0.60 0.37 0.16
-14.94 126.08 32.83 -0.40 -0.52 0.75 -0.52
-13.34 128.80 34.52 -0.93 -0.24 0.28 0.99
-14.90 124.77 30.98 -0.53 -0.79 0.32 0.23
-13.82 134.05 21.78 -0.58 -0.80 -0.18 0.15
-13.80 136.51 33.00 -0.77 0.57 0.30 -0.82
-14.60 123.20 28.86 -0.99 0.01 -0.13 0.20
-11.19 125.09 24.67 -0.15 -0.91 -0.39 -0.18
-13.05 130.51 20.48 -0.98 0.05 -0.19 -0.24
-14.11 134.84 34.37 -0.75 0.27 0.60 -1.68
-13.49 134.26 34.97 -0.82 0.07 0.57 -0.91
-15.09 125.38 32.03 -0.33 -0.76 0.56 -0.06
-12.69 123.36 26.85 0.02 -0.32 -0.95 -0.85
-15.71 136.44 26.83 -0.71 -0.67 -0.22 0.15
-13.58 137.30 32.00 -0.79 0.42 0.44 -0.78
-11.46 124.65 26.70 0.40 -0.73 -0.55 -0.37
-13.25 132.32 34.85 -1.00 -0.06 0.08 0.19
-15.94 137.26 28.16 -0.92 -0.30 0.25 0.16
-13.55 130.18 35.03 -0.98 -0.10 -0.16 1.08
-12.73 127.10 34.43 -0.69 -0.30 0.66 0.46
-10.38 125.33 23.81 -0.30 -0.71 -0.63 -0.83
-14.07 122.66 27.23 -0.65 -0.16 -0.74 -0.23
-12.59 132.16 20.05 -0.98 -0.05 -0.18 -0.12
-12.72 128.37 20.66 -0.83 -0.51 -0.22 0.15
-14.33 138.20 30.18 -0.61 0.59 0.53 0.08
-10.01 126.54 23.24 -0.33 -0.49 -0.81 -0.40
-15.33 138.21 29.48 -0.65 0.20 0.73 0.08
-9.62 127.35 22.63 -0.55 -0.67 -0.50 -0.25
-10.13 127.78 21.38 -0.13 -0.99 0.02 -0.31
-15.44 137.00 24.90 -0.87 -0.45 -0.19 0.14
-13.85 123.77 30.86 -0.70 -0.32 0.64 0.97
-10.35 124.96 25.37 -0.01 -1.00 0.03 -0.74
-13.64 125.83 33.02 -0.41 -0.59 0.69 1.40
-13.04 128.62 35.72 -0.82 -0.56 0.14 1.20
-11.58 127.55 20.34 -0.40 -0.86 -0.31 -0.05
-14.46 123.04 30.38 -0.86 0.14 0.49 0.30
-12.88 134.33 19.97 -0.82 -0.57 0.05 0.31
-12.43 127.89 35.31 -0.58 -0.60 0.56 1.22
-12.52 129.19 19.86 -0.75 -0.36 -0.55 -0.04
-15.06 134.69 22.89 -0.59 -0.78 0.23 0.15
-12.81 134.41 35.80 -0.75 0.51 0.43 -0.63
-12.81 137.52 32.77 -0.66 0.67 0.34 -0.34
-13.88 125.15 31.93 -0.43 -0.68 0.59 1.12
-13.27 133.32 35.46 -0.97 0.25 0.07 -0.21
-12.80 136.77 33.91 -0.71 0.50 0.50 -0.00
-15.02 121.93 29.33 -1.00 0.01 0.08 -0.04
-15.60 137.27 23.31 -0.97 -0.05 0.25 0.15
-15.20 134.96 21.64 -0.70 -0.59 -0.40 0.15
-14.25 135.29 20.64 -0.68 -0.62 -0.39 0.19
-15.92 135.89 22.75 -0.93 -0.30 0.21 0.13
-12.56 125.96 33.94 -0.60 -0.46 0.65 -0.13
-13.14 138.74 31.50 -0.54 0.73 0.42 -1.70
-12.74 133.10 19.28 -0.86 -0.45 0.23 0.31
-10.64 123.91 27.62 0.62 -0.24 -0.74 -0.18
-12.20 129.95 19.03 -0.76 -0.24 -0.61 0.20
-16.55 137.57 26.02 -0.91 -0.32 -0.25 0.11
-10.10 125.28 26.61 0.22 -0.96 0.14 -0.34
-9.27 124.52 24.41 0.02 -0.99 -0.15 -0.77
-10.20 127.45 20.32 -0.33 -0.94 0.12 -0.35
-13.60 129.46 36.42 -0.77 -0.64 -0.06 0.73
-14.14 138.90 29.23 -0.25 0.69 0.68 0.26
-14.66 121.30 28.17 -0.88 -0.16 -0.44 -0.21
-11.66 126.52 35.47 -0.40 -0.46 0.79 0.37
-11.40 122.20 27.46 0.47 -0.07 -0.88 -0.38
-12.64 136.05 34.75 -0.63 0.41 0.66 -0.15
-16.83 138.45 27.45 -0.98 -0.16 0.15 0.08
-12.07 132.07 18.54 -0.77 -0.42 -0.48 0.21
-9.18 127.38 21.66 -0.69 -0.72 0.06 -0.48
-8.76 125.25 23.37 -0.11 -0.78 -0.62 0.03
-13.70 121.05 27.25 -0.38 -0.36 -0.85 -0.21
-13.93 131.89 36.57 -0.95 0.21 -0.24 -0.13
-8.92 126.03 22.64 -0.53 -0.73 -0.44 -0.14
-13.12 139.01 29.76 -0.46 0.79 0.41 0.36
-16.41 138.60 28.63 -0.67 0.03 0.74 0.07
-12.05 128.11 36.58 -0.18 -0.79 0.58 0.61
-9.75 125.39 27.73 0.19 -0.84 -0.50 -0.24
-13.03 124.05 32.02 -0.73 -0.27 0.63 0.68
-14.48 121.88 30.95 -0.71 -0.05 0.70 0.09
-14.87 139.58 28.72 -0.16 0.61 0.78 0.09
-15.85 138.54 24.96 -0.90 -0.04 -0.43 0.13
-11.69 138.42 32.87 -0.54 0.74 0.41 0.80
-8.86 124.98 25.58 0.20 -0.96 0.20 -1.06
-10.80 128.02 19.36 -0.66 -0.64 -0.39 -0.27
-13.53 122.49 31.37 -0.55 -0.11 0.83 0.59
-12.52 121.08 27.26 0.00 -0.24 -0.97 -0.49
-12.75 134.38 37.01 -0.66 0.73 0.17 0.45
-14.25 130.37 37.19 -0.97 -0.23 -0.06 0.70
-14.55 135.99 19.92 -0.85 -0.48 -0.22 0.20
-9.66 124.33 28.29 0.29 -0.36 -0.89 -0.89
-10.94 127.84 36.11 0.07 -0.66 0.75 0.86
-11.40 135.20 36.11 -0.17 0.69 0.70 -0.02
-12.06 138.05 33.98 -0.63 0.73 0.28 2.42
-16.07 136.65 21.78 -0.97 -0.13 -0.20 0.14
-13.74 129.29 37.50 -0.69 -0.71 0.16 0.84
-11.47 130.58 18.17 -0.66 -0.24 -0.72 0.22
-15.12 136.44 20.64 -0.82 -0.35 -0.46 0.18
-14.44 120.80 30.49 -0.77 -0.24 0.59 -0.25
-16.03 138.18 22.08 -0.96 -0.26 0.08 0.21
-8.95 125.48 26.91 -0.20 -0.97 -0.15 -0.08
-12.13 124.58 33.70 -0.61 -0.39 0.69 -1.11
-16.52 139.77 27.15 -0.79 0.61 -0.05 0.06
-15.54 138.92 23.72 -0.97 -0.20 0.15 0.28
-13.69 139.87 28.58 -0.24 0.79 0.57 0.14
-14.22 135.61 19.10 -0.85 -0.47 0.22 0.23
-14.58 120.14 29.53 -0.96 -0.28 0.04 -1.20
-11.00 125.73 34.78 -0.24 -0.46 0.86 0.63
-10.92 129.08 18.67 -0.73 -0.38 -0.57 -0.17
-7.84 125.52 22.92 -0.13 -0.95 -0.28 -0.14
-11.76 136.41 35.61 -0.53 0.27 0.80 2.22
-14.02 120.10 28.18 -0.61 -0.41 -0.68 -1.13
-13.66 132.71 37.35 -0.88 0.48 0.03 0.20
-16.38 139.71 28.31 -0.65 0.57 0.50 0.05
3 170 146 122
3 122 111 126
3 81 146 116
3 113 159 156
3 159 195 156
3 182 142 154
3 96 77 60
3 46 76 81
3 46 81 62
3 62 34 17
3 108 62 113
3 62 108 95
3 95 108 119
3 140 154 110
3 154 142 110
3 27 44 46
3 27 46 17
3 44 76 46
3 16 5 17
3 10 17 5
3 5 2 10
3 2 6 13
3 16 34 23
3 34 63 47
3 47 64 35
3 63 67 47
3 47 67 64
3 64 67 103
3 64 103 100
3 141 151 103
3 103 151 100
3 135 136 92
3 86 140 110
3 60 31 54
3 92 54 79
3 31 60 32
3 31 32 15
3 15 24 31
3 15 27 10
3 15 3 9
3 9 24 15
3 0 4 3
3 2 0 3
3 4 0 1
3 1 2 7
3 13 25 7
3 22 7 25
3 36 55 25
3 66 36 70
3 36 35 70
3 70 109 66
3 100 109 70
3 100 172 109
3 109 149 94
3 94 149 133
3 149 157 197
3 197 157 172
3 192 149 197
3 192 133 149
3 133 192 184
3 107 138 150
3 193 150 138
3 90 125 121
3 107 150 125
3 121 125 162
3 125 177 162
3 121 162 147
3 183 135 180
3 135 137 180
3 134 88 117
3 88 127 79
3 9 18 24
3 38 24 18
3 38 18 30
3 38 30 59
3 11 4 14
3 14 28 11
3 26 11 28
3 14 8 29
3 29 7 21
3 20 7 22
3 33 20 41
3 41 74 68
3 68 74 89
3 53 55 82
3 99 89 74
3 91 82 55
3 91 55 87
3 123 87 94
3 87 66 94
3 94 133 123
3 123 165 171
3 120 164 138
3 89 120 85
3 33 57 61
3 72 61 90
3 72 90 106
3 57 85 61
3 106 121 147
3 147 174 106
3 174 158 106
3 198 131 158
3 131 173 128
3 128 98 131
3 128 173 178
3 134 185 180
3 167 117 143
3 143 105 153
3 71 101 59
3 88 56 84
3 84 56 38
3 84 38 59
3 51 71 48
3 48 26 51
3 71 51 80
3 51 49 78
3 78 80 51
3 78 49 40
3 40 75 73
3 40 49 28
3 28 14 40
3 42 75 40
3 42 29 52
3 58 83 52
3 106 83 72
3 104 158 131
3 69 104 98
3 131 98 104
3 75 69 97
3 98 152 97
3 152 98 128
3 196 152 178
3 105 71 80
3 105 114 153
3 153 114 161
3 161 114 166
3 112 148 114
3 139 112 102
3 78 102 112
3 73 93 102
3 102 93 129
3 129 179 168
3 129 168 102
3 102 168 139
3 148 190 166
3 114 148 166
3 58 52 29
3 116 146 155
3 126 142 194
3 126 194 170
3 126 170 122
3 115 113 81
3 81 116 115
3 113 115 159
3 155 115 116
3 62 17 46
3 81 113 62
3 103 95 119
3 144 103 119
3 186 144 169
3 144 186 163
3 163 176 103
3 163 103 144
3 141 103 176
3 124 136 191
3 10 27 17
3 2 5 6
3 6 5 16
3 13 6 23
3 23 6 16
3 23 35 13
3 13 35 36
3 34 47 23
3 23 47 35
3 103 67 95
3 172 100 151
3 136 175 191
3 92 136 124
3 92 124 86
3 86 124 140
3 54 92 86
3 54 86 60
3 65 79 50
3 50 31 24
3 31 50 54
3 54 50 79
3 3 15 10
3 12 18 9
3 11 12 3
3 11 3 4
3 9 3 12
3 1 0 2
3 55 36 66
3 94 66 109
3 138 107 120
3 85 120 107
3 136 183 175
3 56 88 65
3 56 65 50
3 65 88 79
3 56 50 38
3 38 50 24
3 48 30 26
3 18 12 30
3 30 12 11
3 30 11 26
3 19 21 7
3 7 20 19
3 19 20 33
3 130 99 91
3 118 130 91
3 118 87 123
3 87 118 91
3 164 130 118
3 123 164 118
3 171 164 123
3 130 164 120
3 99 130 120
3 89 99 120
3 29 21 37
3 37 58 29
3 58 37 45
3 61 45 33
3 33 45 19
3 19 45 37
3 19 37 21
3 83 58 72
3 72 58 45
3 72 45 61
3 125 90 107
3 85 107 61
3 61 107 90
3 185 183 180
3 189 185 134
3 134 117 189
3 117 167 189
3 101 71 105
3 84 59 101
3 117 84 101
3 117 88 84
3 73 78 40
3 69 75 42
3 69 42 52
3 52 104 69
3 106 158 104
3 83 106 104
3 83 104 52
3 152 196 132
3 160 190 148
3 160 112 139
3 112 160 148
3 78 73 102
3 179 129 132
3 132 129 93
3 169 144 119
3 111 122 76
3 122 146 81
3 122 81 76
3 77 96 126
3 77 111 76
3 111 77 126
3 119 145 169
3 145 119 108
3 145 108 156
3 156 108 113
3 96 60 110
3 126 96 142
3 96 110 142
3 77 43 60
3 44 77 76
3 34 16 17
3 63 62 67
3 63 34 62
3 62 95 67
3 60 86 110
3 27 15 43
3 43 15 32
3 43 32 60
3 10 2 3
3 13 7 2
3 13 36 25
3 70 64 100
3 70 35 64
3 149 109 157
3 157 109 172
3 127 88 137
3 127 137 135
3 136 135 183
3 137 88 134
3 135 92 127
3 79 127 92
3 1 7 8
3 14 4 8
3 4 1 8
3 7 29 8
3 25 39 22
3 22 39 20
3 39 41 20
3 25 53 39
3 39 53 41
3 74 41 53
3 55 53 25
3 82 91 99
3 82 99 74
3 82 74 53
3 66 87 55
3 165 133 184
3 165 123 133
3 138 187 193
3 138 164 187
3 68 89 85
3 85 57 68
3 68 57 41
3 33 41 57
3 90 121 106
3 174 147 181
3 173 131 198
3 137 134 180
3 143 101 105
3 101 143 117
3 30 48 59
3 59 48 71
3 51 28 49
3 26 28 51
3 29 42 14
3 40 14 42
3 98 97 69
3 178 152 128
3 78 114 80
3 105 80 114
3 112 114 78
3 97 93 75
3 97 152 132
3 97 132 93
3 75 93 73
3 199 161 166
3 199 188 153
3 199 153 161
3 43 77 44
3 43 44 27
