ply
format ascii 1.0
comment Generated by MaSIF
element vertex 200
property float x
property float y
property float z
property float nx
property float ny
property float nz
property float charge
element face 345
property list uchar int vertex_indices
end_header
-13.72 130.17 25.83 -0.62 0.57 -0.54 -0.59
-13.61 129.71 24.78 -0.51 0.66 -0.56 -0.45
-13.49 131.14 26.00 -0.63 -0.22 -0.75 -0.91
-12.56 129.96 24.90 -0.47 0.54 -0.69 -0.64
-15.16 128.75 25.94 -0.77 0.47 -0.43 -0.77
-14.64 130.55 27.56 -0.86 0.16 -0.49 -0.91
-14.16 128.42 24.57 -0.75 0.08 -0.66 -0.42
-14.22 132.15 25.75 -0.57 -0.58 -0.59 -0.29
-12.56 131.99 25.40 -0.50 -0.24 -0.83 -0.28
-14.45 131.72 26.96 -0.80 -0.46 -0.38 -0.80
-11.97 130.84 25.05 -0.92 0.20 -0.34 -0.61
-13.34 128.70 23.73 -0.87 0.34 -0.36 -1.25
-14.94 129.29 26.97 -0.88 0.44 -0.16 -0.15
-14.61 127.62 25.22 -0.63 -0.06 -0.78 -0.53
-12.76 132.56 24.72 -0.56 -0.60 -0.56 -0.21
-15.48 130.20 28.53 -0.69 0.12 -0.71 0.06
-15.79 127.28 25.77 -0.65 -0.20 -0.74 -1.61
-13.89 127.25 24.60 -0.74 -0.14 -0.66 -0.56
-15.50 129.14 28.05 -0.87 0.38 -0.31 0.00
-13.35 128.92 22.76 -0.87 0.17 0.46 -0.74
-16.34 127.97 27.43 -0.96 0.28 -0.05 -1.12
-15.05 132.48 28.12 -0.99 0.09 -0.09 -0.25
-15.45 133.03 26.25 -0.84 -0.48 -0.24 -0.18
-11.75 131.32 23.78 -0.98 -0.11 0.16 -0.41
-12.46 129.81 23.24 -0.76 0.49 0.43 -0.79
-14.53 126.50 25.45 -0.69 -0.51 -0.52 -0.37
-13.12 127.19 22.71 -0.82 -0.56 0.08 -1.21
-13.33 126.82 23.90 -0.87 -0.17 -0.47 -1.23
-14.61 133.68 24.85 -0.54 -0.61 -0.57 -0.13
-16.18 129.64 29.23 -0.80 -0.04 -0.60 -0.07
-16.20 126.60 26.64 -0.79 -0.57 -0.21 -1.05
-16.15 132.01 29.36 -0.75 0.41 -0.51 -0.02
-16.59 130.67 29.25 -0.77 -0.00 -0.64 -0.12
-14.06 128.69 21.86 -0.85 -0.04 0.53 -0.56
-14.65 133.34 28.90 -0.64 0.66 0.39 -0.16
-12.89 133.69 23.40 -0.67 -0.35 -0.65 -0.19
-16.06 128.38 28.97 -0.89 0.12 -0.43 0.52
-15.47 133.70 27.35 -0.94 0.04 0.35 -0.14
-16.03 126.77 28.05 -0.96 -0.25 -0.10 -0.66
-13.91 133.87 24.09 -0.41 -0.65 -0.64 -0.15
-12.51 130.63 22.64 -0.73 0.18 0.66 -0.23
-13.72 125.40 24.82 -0.66 -0.61 -0.43 -0.31
-15.86 134.38 26.00 -0.98 -0.22 0.03 -0.12
-12.74 125.75 23.67 -0.52 -0.65 -0.55 -0.78
-16.90 129.83 30.15 -0.93 -0.14 -0.35 -0.21
-15.39 132.81 29.71 -0.53 0.84 -0.13 -0.01
-13.89 127.01 21.69 -0.74 -0.56 0.37 0.03
-14.01 130.34 21.67 -0.76 0.30 0.57 -1.01
-13.76 125.55 26.55 -0.54 -0.83 -0.13 0.04
-12.67 131.98 22.58 -0.88 0.10 0.47 -0.27
-14.84 125.91 27.76 -0.48 -0.80 -0.36 -0.42
-12.86 126.52 21.25 -0.16 -0.99 -0.02 -0.17
-14.55 134.57 23.60 -0.34 -0.79 -0.51 -0.11
-15.63 134.88 24.35 -0.74 -0.63 -0.23 -0.06
-11.51 126.35 21.78 0.18 -0.94 -0.28 -0.46
-16.54 127.71 29.82 -0.95 -0.19 -0.26 -0.34
-17.12 131.16 30.66 -0.98 0.19 0.02 -0.14
-14.51 129.42 20.99 -0.96 0.00 0.29 -0.88
-14.86 134.71 28.00 -0.71 0.36 0.61 -0.12
-13.13 131.20 22.01 -0.73 0.38 0.57 -0.39
-13.71 134.15 29.03 -0.54 0.42 0.73 -0.17
-12.52 133.04 22.52 -0.94 0.33 -0.12 -0.22
-12.77 124.88 25.58 -0.16 -0.99 -0.01 -0.34
-13.29 134.84 23.13 -0.09 -0.81 -0.58 -0.14
-14.55 128.07 20.44 -0.94 -0.24 -0.26 0.40
-11.20 125.97 22.62 -0.12 -0.74 -0.66 -1.61
-16.24 126.65 29.43 -0.92 -0.39 0.06 -0.11
-15.89 132.86 31.15 -0.67 0.71 -0.21 -0.89
-15.74 125.68 29.04 -0.73 -0.66 -0.17 -0.16
-16.93 129.29 31.23 -0.97 -0.02 0.24 -0.75
-11.89 125.03 24.46 -0.17 -0.96 -0.23 -1.22
-11.57 134.19 22.56 -0.89 -0.15 -0.44 -0.83
-15.18 135.44 26.77 -0.80 0.26 0.55 -0.08
-14.34 133.00 30.51 -0.28 0.95 -0.12 0.20
-13.07 133.63 29.90 -0.71 0.63 0.32 -0.41
-12.67 132.72 21.55 -0.88 0.46 0.07 -0.16
-14.08 126.91 20.25 -0.56 -0.76 -0.33 0.22
-12.68 135.52 22.67 -0.29 -0.79 -0.55 -0.11
-14.46 135.10 22.66 -0.23 -0.94 -0.25 -0.06
-14.31 125.04 28.47 -0.54 -0.69 -0.49 -0.06
-10.51 126.82 22.16 0.64 -0.36 -0.68 -1.08
-16.01 136.19 25.80 -0.88 0.07 0.47 -0.06
-12.97 126.99 19.80 -0.16 -0.62 -0.77 -0.14
-11.10 124.93 23.82 -0.20 -0.93 -0.31 -1.84
-11.49 126.82 20.52 0.42 -0.75 -0.52 0.15
-10.67 127.28 21.25 0.77 -0.57 -0.30 -0.11
-14.71 130.72 20.12 -0.93 0.37 -0.02 -1.45
-14.51 129.48 19.61 -0.80 -0.13 -0.59 -1.30
-11.73 133.53 21.95 -0.83 0.54 0.14 0.09
-12.65 125.05 27.67 -0.13 -0.86 -0.49 0.33
-13.41 131.83 20.68 -0.72 0.69 0.08 -1.01
-16.59 135.78 23.97 -0.65 -0.66 0.38 0.09
-13.11 135.27 28.97 -0.77 0.31 0.55 -0.17
-16.55 131.44 32.02 -0.97 0.07 0.23 -0.41
-17.05 127.98 31.47 -0.91 -0.18 0.36 -1.51
-15.51 135.51 22.61 -0.20 -0.98 -0.06 0.30
-15.29 133.69 31.80 -0.33 0.90 -0.27 -1.09
-16.40 126.89 31.42 -0.71 -0.64 0.28 -0.76
-14.55 136.31 27.03 -0.57 0.40 0.72 -0.08
-9.77 125.98 22.69 0.28 -0.35 -0.90 -1.74
-13.57 128.71 19.32 -0.41 -0.36 -0.84 -0.65
-11.54 134.43 21.59 -0.87 -0.26 0.43 -0.09
-15.48 125.89 30.51 -0.78 -0.56 0.26 0.00
-10.93 125.07 25.68 0.12 -0.98 0.13 -1.09
-16.34 132.81 32.82 -0.82 0.49 0.29 -1.51
-13.40 136.22 27.98 -0.60 0.50 0.62 -0.11
-10.27 128.03 21.85 0.75 -0.60 -0.29 -1.00
-16.02 130.04 32.54 -0.79 -0.21 0.57 -0.10
-13.32 133.52 31.49 -0.39 0.85 -0.35 -0.08
-9.83 124.89 23.64 0.09 -0.88 -0.47 -2.02
-15.75 129.02 32.68 -0.63 -0.06 0.77 -0.76
-12.26 133.09 20.04 -0.93 0.13 -0.34 -0.19
-14.71 135.31 21.31 -0.22 -0.97 -0.08 0.12
-9.81 127.80 22.84 0.62 -0.37 -0.69 -2.11
-14.44 123.84 29.32 -0.71 -0.63 -0.32 -0.10
-12.15 128.09 19.22 0.13 -0.42 -0.90 -0.53
-11.37 125.15 27.31 0.26 -0.96 -0.11 -0.07
-16.89 137.04 23.95 -0.26 0.14 0.96 0.40
-17.00 135.56 22.93 -0.03 -0.97 0.23 0.69
-13.63 131.02 19.03 -0.42 0.43 -0.79 -1.41
-12.27 134.06 20.95 -0.95 -0.11 0.29 -0.19
-10.20 128.29 20.50 0.66 -0.65 -0.38 -0.23
-12.48 135.13 29.98 -0.98 0.05 0.20 -0.50
-16.03 137.22 24.69 -0.83 0.11 0.54 0.12
-12.49 132.13 19.51 -0.46 0.40 -0.79 -0.35
-15.97 135.32 21.65 -0.05 -1.00 -0.04 0.40
-15.39 126.48 31.77 -0.55 -0.57 0.62 -0.55
-13.03 129.76 18.73 -0.15 -0.08 -0.99 -0.87
-12.99 134.87 20.85 -0.34 -0.94 0.09 -0.18
-14.53 124.54 30.70 -0.82 -0.56 0.13 0.06
-16.06 131.56 33.45 -0.83 -0.04 0.56 -0.96
-15.76 127.55 32.55 -0.47 -0.37 0.80 -1.16
-11.09 128.43 19.56 0.40 -0.52 -0.76 -0.19
-18.01 136.37 23.96 -0.05 -0.47 0.88 0.79
-15.29 138.06 25.84 -0.69 0.11 0.72 -0.04
-14.50 133.86 33.11 -0.50 0.82 0.28 -0.45
-12.41 136.87 28.72 -0.73 0.67 0.11 -0.10
-8.41 126.00 23.19 -0.14 -0.26 -0.96 -1.12
-12.74 123.44 28.93 -0.33 -0.69 -0.65 0.23
-10.81 124.75 28.50 0.30 -0.56 -0.77 -0.02
-13.07 137.34 27.31 -0.34 0.65 0.68 -0.08
-11.52 132.96 19.11 -0.49 -0.30 -0.82 -0.21
-14.85 128.19 33.00 -0.53 -0.40 0.75 -0.26
-8.71 127.53 23.49 0.18 -0.02 -0.98 -0.96
-12.65 134.53 32.23 -0.87 0.33 -0.36 0.06
-12.75 136.76 30.32 -0.97 0.24 0.01 -0.11
-12.09 133.82 19.13 -0.76 -0.51 -0.40 -0.68
-9.70 125.59 26.53 -0.27 -0.96 -0.01 -0.57
-14.87 129.80 33.48 -0.77 -0.29 0.56 -0.07
-10.36 125.73 27.73 0.20 -0.95 -0.25 -0.12
-14.33 135.33 19.98 -0.32 -0.90 -0.28 -0.07
-14.09 138.21 26.40 -0.39 0.11 0.92 -0.06
-11.91 131.14 19.19 0.07 0.24 -0.97 -0.44
-11.41 123.22 28.57 -0.06 -0.48 -0.88 0.67
-8.47 124.99 24.25 -0.25 -0.96 -0.13 -0.73
-15.13 132.32 34.10 -0.63 0.44 0.64 -0.86
-14.32 124.86 31.75 -0.73 -0.51 0.45 -0.09
-8.81 128.60 22.77 0.08 -0.78 -0.62 -0.78
-17.28 138.39 23.50 -0.15 0.49 0.86 0.22
-11.84 129.54 18.89 0.17 -0.11 -0.98 -0.07
-13.36 123.06 30.04 -0.61 -0.78 -0.13 0.17
-18.43 135.29 22.78 -0.11 -0.98 0.14 0.28
-10.40 129.16 19.23 0.31 -0.44 -0.84 -0.19
-14.55 125.97 32.54 -0.67 -0.37 0.65 -0.19
-17.86 135.58 21.51 -0.23 -0.92 -0.32 0.33
-13.00 134.93 19.47 -0.64 -0.69 -0.34 -0.49
-15.83 138.65 25.21 -0.84 -0.16 0.52 -0.00
-15.56 135.79 19.84 -0.19 -0.87 -0.46 0.54
-8.85 129.02 21.33 0.22 -0.93 -0.30 -0.97
-14.82 138.96 26.32 -0.47 -0.20 0.86 -0.11
-19.15 135.93 23.69 -0.22 -0.65 0.72 0.49
-14.16 133.14 34.03 -0.74 0.48 0.48 -0.39
-16.96 135.64 20.37 -0.26 -0.83 -0.50 0.40
-13.81 134.57 33.10 -0.91 0.31 -0.29 -0.23
-15.14 131.25 34.47 -0.79 -0.16 0.59 -0.25
-18.80 137.60 24.07 -0.09 0.24 0.97 0.05
-11.38 137.36 27.95 -0.62 0.79 0.00 -0.06
-13.53 123.27 31.29 -0.78 -0.58 0.24 0.11
-14.08 127.22 32.89 -0.36 -0.36 0.86 -0.08
-12.96 138.26 26.83 -0.11 0.21 0.97 -0.08
-12.59 135.69 31.72 -0.89 -0.17 -0.43 0.04
-11.66 137.87 29.36 -0.75 0.62 -0.23 0.30
-10.62 131.25 19.22 0.01 0.06 -1.00 -0.09
-9.40 124.89 28.81 0.44 -0.89 0.11 -0.22
-12.69 137.13 31.22 -0.81 0.35 -0.47 -0.07
-10.15 132.63 19.15 -0.07 -0.36 -0.93 0.39
-16.60 139.28 23.49 -0.79 0.39 0.47 0.25
-14.17 128.07 33.93 -0.78 -0.56 0.27 -0.13
-10.92 133.80 18.29 -0.14 -0.60 -0.79 -0.98
-7.39 125.10 22.49 -0.45 -0.34 -0.83 -2.04
-8.22 124.89 25.25 -0.27 -0.96 -0.03 -0.50
-7.45 127.71 23.22 -0.37 -0.22 -0.90 -0.23
-10.98 130.15 19.04 0.14 0.08 -0.99 -0.02
-6.96 126.78 22.64 -0.38 0.16 -0.91 -1.29
-10.41 122.38 28.87 0.36 -0.58 -0.73 0.09
-9.69 123.59 29.23 0.76 -0.23 -0.61 0.10
-14.54 136.24 18.92 -0.29 -0.68 -0.67 0.15
-13.70 139.35 26.74 -0.22 -0.25 0.94 -0.11
-17.49 139.37 22.60 -0.09 0.83 0.55 0.17
-14.53 129.77 34.83 -0.82 -0.21 0.53 -0.09
3 196 165 150
3 150 165 128
3 111 146 141
3 141 124 111
3 146 188 141
3 124 141 185
3 164 172 125
3 164 125 118
3 52 95 78
3 125 167 112
3 112 167 150
3 150 167 196
3 112 128 78
3 78 128 63
3 111 124 75
3 90 124 119
3 124 152 119
3 124 182 152
3 119 152 127
3 179 151 140
3 169 166 134
3 98 134 81
3 134 166 123
3 134 123 81
3 133 170 161
3 117 133 91
3 133 118 91
3 81 91 53
3 53 91 52
3 53 52 28
3 39 52 63
3 63 35 39
3 40 49 59
3 40 59 24
3 24 59 47
3 59 49 75
3 59 75 90
3 90 47 59
3 33 57 64
3 57 87 64
3 64 87 100
3 87 127 100
3 159 162 132
3 162 159 192
3 132 162 121
3 84 121 85
3 140 105 136
3 105 98 58
3 72 81 42
3 81 53 42
3 42 53 28
3 14 28 39
3 28 14 7
3 14 2 7
3 1 4 0
3 2 0 5
3 4 6 13
3 13 16 4
3 26 11 19
3 26 19 33
3 6 1 11
3 19 11 24
3 47 19 24
3 47 57 33
3 33 46 26
3 27 26 43
3 26 51 54
3 54 65 26
3 43 26 65
3 54 85 80
3 54 80 65
3 65 80 99
3 99 80 143
3 106 85 121
3 106 121 168
3 184 145 180
3 144 122 74
3 145 136 92
3 60 92 58
3 58 34 60
3 73 34 45
3 37 21 58
3 34 58 21
3 34 21 45
3 45 21 31
3 22 21 37
3 22 7 9
3 9 7 2
3 9 2 5
3 31 5 15
3 4 20 18
3 15 18 29
3 18 20 38
3 66 38 68
3 50 68 38
3 16 25 50
3 48 50 25
3 25 41 48
3 41 25 17
3 41 43 70
3 41 70 62
3 70 83 103
3 147 103 154
3 109 154 103
3 154 190 147
3 154 109 137
3 137 189 154
3 99 137 109
3 143 137 99
3 144 74 108
3 135 108 96
3 73 45 67
3 67 96 73
3 31 67 45
3 29 32 15
3 55 44 29
3 29 44 32
3 55 66 102
3 55 102 97
3 163 102 156
3 129 102 68
3 129 68 79
3 79 114 129
3 160 177 129
3 138 79 89
3 62 103 116
3 130 174 155
3 104 67 93
3 93 67 56
3 56 67 31
3 69 56 44
3 44 55 69
3 69 110 107
3 110 131 142
3 148 142 187
3 148 187 199
3 178 131 126
3 126 163 178
3 97 126 131
3 148 174 107
3 153 138 89
3 120 165 146
3 120 146 111
3 188 185 141
3 117 123 186
3 117 186 158
3 117 158 175
3 166 186 123
3 198 158 186
3 95 91 118
3 91 95 52
3 95 118 125
3 95 112 78
3 125 112 95
3 71 35 77
3 35 63 77
3 71 77 128
3 128 77 63
3 128 101 71
3 101 128 120
3 88 120 75
3 88 75 61
3 101 120 88
3 111 75 120
3 120 128 165
3 90 75 124
3 159 127 152
3 192 159 152
3 192 152 182
3 151 197 169
3 179 197 151
3 140 151 98
3 98 151 134
3 134 151 169
3 133 117 175
3 91 81 123
3 91 123 117
3 39 28 52
3 88 61 71
3 88 71 101
3 35 71 61
3 10 14 23
3 35 23 14
3 35 61 23
3 23 61 49
3 24 10 23
3 11 3 10
3 11 10 24
3 24 23 40
3 40 23 49
3 11 1 3
3 84 132 121
3 136 176 140
3 181 176 136
3 92 136 105
3 92 105 58
3 72 58 98
3 72 98 81
3 8 14 10
3 2 14 8
3 2 8 3
3 3 8 10
3 2 3 0
3 0 3 1
3 5 0 4
3 5 4 12
3 17 13 6
3 27 11 26
3 27 17 11
3 6 11 17
3 47 33 19
3 51 26 46
3 113 143 80
3 113 80 106
3 85 106 80
3 106 157 113
3 157 143 113
3 168 157 106
3 143 157 191
3 180 122 144
3 122 180 145
3 74 122 92
3 74 92 60
3 92 122 145
3 73 74 34
3 34 74 60
3 5 31 21
3 5 21 9
3 9 21 22
3 18 12 4
3 5 12 18
3 5 18 15
3 36 29 18
3 66 55 38
3 79 68 50
3 79 50 48
3 17 25 13
3 13 25 16
3 193 137 143
3 193 143 191
3 173 144 108
3 173 108 135
3 180 144 173
3 73 96 108
3 74 73 108
3 126 97 102
3 126 102 163
3 129 156 102
3 79 48 89
3 89 48 62
3 116 89 62
3 153 89 139
3 139 89 116
3 149 139 116
3 195 139 183
3 183 139 149
3 147 183 149
3 147 149 103
3 103 149 116
3 195 153 139
3 171 173 135
3 155 171 135
3 107 174 130
3 107 93 56
3 107 56 69
3 148 107 110
3 142 148 110
3 131 178 142
3 129 177 156
3 148 199 174
3 172 167 125
3 150 128 112
3 185 182 124
3 133 175 170
3 118 161 164
3 133 161 118
3 78 63 52
3 61 75 49
3 87 86 119
3 87 119 127
3 86 87 57
3 86 57 47
3 47 90 86
3 86 90 119
3 127 159 115
3 127 115 100
3 115 159 132
3 162 168 121
3 105 140 98
3 42 28 22
3 42 22 37
3 42 37 72
3 14 39 35
3 4 1 6
3 46 64 76
3 76 64 82
3 76 82 51
3 76 51 46
3 64 46 33
3 64 100 82
3 132 84 115
3 115 82 100
3 115 84 82
3 82 84 51
3 85 54 84
3 84 54 51
3 58 72 37
3 28 7 22
3 20 4 16
3 30 20 16
3 50 30 16
3 50 38 30
3 38 20 30
3 43 83 70
3 43 65 83
3 103 83 109
3 83 65 109
3 99 109 65
3 189 137 193
3 15 32 31
3 29 36 55
3 102 66 68
3 129 114 160
3 160 114 138
3 138 114 79
3 62 48 41
3 41 17 27
3 41 27 43
3 70 103 62
3 130 104 93
3 130 155 104
3 155 135 104
3 96 104 135
3 67 104 96
3 44 56 32
3 56 31 32
3 131 94 97
3 55 97 94
3 131 110 94
3 94 110 69
3 94 69 55
3 194 153 195
3 93 107 130
3 38 55 36
3 38 36 18
