ply
format ascii 1.0
comment Generated by MaSIF
element vertex 200
property float x
property float y
property float z
property float nx
property float ny
property float nz
property float charge
element face 338
property list uchar int vertex_indices
end_header
-13.58 131.17 26.13 -0.63 -0.25 -0.74 -0.91
-13.80 130.19 26.00 -0.62 0.54 -0.56 -0.59
-14.31 132.17 25.84 -0.57 -0.60 -0.56 -0.29
-12.66 131.99 25.49 -0.50 -0.27 -0.82 -0.28
-14.54 131.78 27.07 -0.80 -0.48 -0.36 -0.80
-12.64 129.95 25.08 -0.48 0.51 -0.72 -0.64
-14.72 130.63 27.72 -0.86 0.14 -0.49 -0.91
-12.85 132.54 24.79 -0.56 -0.63 -0.54 -0.21
-13.69 129.69 24.97 -0.51 0.63 -0.58 -0.45
-15.14 132.59 28.20 -0.99 0.08 -0.09 -0.25
-15.54 133.06 26.30 -0.84 -0.50 -0.22 -0.18
-12.05 130.83 25.19 -0.92 0.18 -0.35 -0.61
-14.71 133.65 24.88 -0.54 -0.64 -0.55 -0.13
-15.24 128.77 26.17 -0.77 0.44 -0.45 -0.77
-15.56 130.33 28.70 -0.70 0.08 -0.71 0.06
-15.01 129.35 27.18 -0.89 0.43 -0.17 -0.15
-14.23 128.39 24.82 -0.75 0.05 -0.66 -0.42
-15.57 129.24 28.26 -0.88 0.36 -0.32 0.00
-14.74 133.47 28.94 -0.65 0.67 0.36 -0.16
-12.99 133.62 23.43 -0.67 -0.38 -0.63 -0.19
-13.41 128.63 23.96 -0.87 0.32 -0.38 -1.25
-15.56 133.77 27.38 -0.94 0.05 0.35 -0.14
-14.02 133.82 24.11 -0.41 -0.68 -0.61 -0.15
-15.96 134.39 26.00 -0.97 -0.22 0.04 -0.12
-11.84 131.26 23.90 -0.98 -0.10 0.17 -0.41
-15.48 132.97 29.78 -0.53 0.83 -0.16 -0.01
-16.25 129.78 29.42 -0.80 -0.07 -0.59 -0.07
-14.68 127.61 25.50 -0.63 -0.09 -0.77 -0.53
-16.23 132.16 29.46 -0.76 0.39 -0.53 -0.02
-15.86 127.29 26.06 -0.65 -0.23 -0.73 -1.61
-16.67 130.81 29.40 -0.77 -0.03 -0.63 -0.12
-14.66 134.49 23.59 -0.34 -0.81 -0.48 -0.11
-13.96 127.22 24.89 -0.74 -0.17 -0.65 -0.56
-15.74 134.83 24.33 -0.74 -0.64 -0.21 -0.06
-14.97 134.81 27.99 -0.71 0.38 0.59 -0.12
-16.13 128.52 29.21 -0.90 0.10 -0.44 0.52
-13.44 128.82 22.99 -0.87 0.19 0.46 -0.74
-13.80 134.29 29.03 -0.54 0.44 0.71 -0.17
-16.41 128.05 27.70 -0.96 0.27 -0.06 -1.12
-12.62 132.93 22.57 -0.94 0.32 -0.13 -0.22
-12.54 129.73 23.42 -0.77 0.50 0.41 -0.79
-13.40 134.75 23.11 -0.09 -0.83 -0.55 -0.14
-14.59 126.51 25.78 -0.68 -0.53 -0.50 -0.37
-11.68 134.08 22.57 -0.89 -0.17 -0.43 -0.83
-15.29 135.48 26.72 -0.80 0.28 0.54 -0.08
-13.19 127.09 23.00 -0.82 -0.56 0.11 -1.21
-16.97 130.01 30.34 -0.93 -0.15 -0.35 -0.21
-13.40 126.77 24.20 -0.87 -0.20 -0.46 -1.23
-14.42 133.21 30.56 -0.28 0.95 -0.16 0.20
-16.27 126.64 26.96 -0.79 -0.59 -0.19 -1.05
-13.16 133.81 29.92 -0.71 0.63 0.30 -0.41
-12.80 135.41 22.62 -0.28 -0.81 -0.51 -0.11
-14.58 134.98 22.63 -0.23 -0.95 -0.21 -0.06
-12.60 130.52 22.79 -0.73 0.21 0.65 -0.23
-12.77 131.87 22.68 -0.88 0.11 0.46 -0.27
-15.98 133.09 31.21 -0.68 0.70 -0.24 -0.89
-16.12 136.19 25.73 -0.88 0.08 0.47 -0.06
-16.09 126.87 28.36 -0.96 -0.26 -0.08 -0.66
-16.60 127.88 30.09 -0.95 -0.20 -0.25 -0.34
-17.20 131.36 30.79 -0.98 0.19 0.02 -0.14
-14.14 128.55 22.09 -0.85 -0.03 0.53 -0.56
-11.84 133.40 21.98 -0.83 0.54 0.12 0.09
-16.71 135.71 23.92 -0.64 -0.65 0.41 0.09
-12.77 132.57 21.62 -0.89 0.46 0.05 -0.16
-13.21 135.42 28.92 -0.77 0.33 0.54 -0.17
-13.78 125.39 25.18 -0.66 -0.63 -0.40 -0.31
-15.63 135.39 22.56 -0.19 -0.98 -0.02 0.30
-14.66 136.37 26.95 -0.57 0.42 0.70 -0.08
-17.00 129.52 31.44 -0.97 -0.01 0.24 -0.75
-12.80 125.69 24.02 -0.52 -0.68 -0.52 -0.78
-11.65 134.29 21.58 -0.86 -0.25 0.44 -0.09
-13.22 131.06 22.14 -0.73 0.40 0.56 -0.39
-13.96 126.86 21.99 -0.74 -0.55 0.40 0.03
-14.10 130.18 21.84 -0.76 0.32 0.56 -1.01
-13.51 136.32 27.90 -0.61 0.52 0.60 -0.11
-13.82 125.60 26.90 -0.54 -0.84 -0.09 0.04
-14.90 126.00 28.10 -0.48 -0.82 -0.32 -0.42
-12.93 126.36 21.57 -0.15 -0.99 0.02 -0.17
-15.38 133.95 31.82 -0.34 0.89 -0.31 -1.09
-13.41 133.77 31.52 -0.40 0.83 -0.39 -0.08
-16.30 126.80 29.74 -0.92 -0.39 0.07 -0.11
-11.57 126.22 22.10 0.18 -0.95 -0.24 -0.46
-14.82 135.14 21.27 -0.21 -0.98 -0.04 0.12
-14.60 129.24 21.20 -0.96 0.01 0.29 -0.88
-17.01 136.96 23.84 -0.26 0.18 0.95 0.40
-15.80 125.82 29.39 -0.73 -0.67 -0.14 -0.16
-17.12 135.44 22.89 -0.03 -0.96 0.26 0.69
-12.58 135.33 29.94 -0.98 0.06 0.20 -0.50
-16.15 137.18 24.58 -0.83 0.13 0.54 0.12
-16.63 131.70 32.14 -0.97 0.07 0.23 -0.41
-16.42 133.10 32.88 -0.82 0.49 0.28 -1.51
-12.38 133.88 20.96 -0.95 -0.10 0.30 -0.19
-12.83 124.90 25.96 -0.16 -0.99 0.03 -0.34
-16.08 135.15 21.61 -0.04 -1.00 0.01 0.40
-14.63 127.86 20.71 -0.94 -0.25 -0.25 0.40
-11.26 125.87 22.96 -0.11 -0.77 -0.63 -1.61
-13.10 134.68 20.83 -0.33 -0.93 0.13 -0.18
-17.11 128.21 31.73 -0.91 -0.17 0.37 -1.51
-16.45 127.13 31.73 -0.71 -0.64 0.30 -0.76
-13.51 131.64 20.79 -0.73 0.69 0.05 -1.01
-12.36 132.87 20.09 -0.93 0.11 -0.35 -0.19
-11.95 125.01 24.83 -0.17 -0.97 -0.19 -1.22
-18.12 136.29 23.88 -0.04 -0.43 0.90 0.79
-15.41 138.07 25.69 -0.69 0.13 0.71 -0.04
-12.52 137.01 28.61 -0.73 0.67 0.08 -0.10
-12.59 131.90 19.60 -0.46 0.37 -0.81 -0.35
-15.53 126.10 30.86 -0.78 -0.56 0.29 0.00
-14.15 126.70 20.56 -0.56 -0.77 -0.29 0.22
-13.18 137.42 27.18 -0.34 0.67 0.66 -0.08
-14.36 125.17 28.85 -0.54 -0.71 -0.46 -0.06
-16.09 130.32 32.71 -0.79 -0.19 0.58 -0.10
-10.58 126.71 22.46 0.64 -0.39 -0.66 -1.08
-15.81 129.31 32.89 -0.63 -0.04 0.77 -0.76
-13.05 126.77 20.10 -0.15 -0.65 -0.74 -0.14
-11.16 124.89 24.20 -0.19 -0.94 -0.27 -1.84
-12.74 134.81 32.21 -0.88 0.31 -0.37 0.06
-11.56 126.64 20.83 0.42 -0.76 -0.49 0.15
-10.74 127.13 21.54 0.77 -0.58 -0.28 -0.11
-14.80 130.50 20.27 -0.93 0.36 -0.03 -1.45
-14.60 129.24 19.81 -0.80 -0.16 -0.58 -1.30
-12.86 136.96 30.22 -0.97 0.24 -0.00 -0.11
-14.59 134.17 33.13 -0.51 0.83 0.25 -0.45
-12.71 125.16 28.04 -0.13 -0.88 -0.45 0.33
-14.45 135.10 19.95 -0.32 -0.91 -0.25 -0.07
-14.21 138.24 26.24 -0.39 0.14 0.91 -0.06
-17.41 138.29 23.34 -0.16 0.53 0.84 0.22
-11.62 132.72 19.16 -0.49 -0.34 -0.80 -0.21
-15.44 126.74 32.09 -0.54 -0.55 0.64 -0.55
-16.13 131.88 33.56 -0.83 -0.03 0.56 -0.96
-18.54 135.16 22.75 -0.10 -0.98 0.18 0.28
-17.98 135.40 21.47 -0.22 -0.93 -0.28 0.33
-13.11 134.69 19.45 -0.64 -0.70 -0.31 -0.49
-15.95 138.62 25.03 -0.84 -0.15 0.52 -0.00
-9.84 125.89 23.02 0.28 -0.38 -0.88 -1.74
-15.68 135.55 19.79 -0.19 -0.89 -0.42 0.54
-15.82 127.84 32.83 -0.47 -0.34 0.82 -1.16
-12.20 133.57 19.15 -0.76 -0.53 -0.38 -0.68
-13.65 128.46 19.56 -0.40 -0.39 -0.83 -0.65
-14.94 138.99 26.13 -0.47 -0.16 0.87 -0.11
-19.27 135.83 23.64 -0.22 -0.63 0.75 0.49
-17.08 135.42 20.33 -0.26 -0.85 -0.46 0.40
-13.91 134.89 33.08 -0.91 0.29 -0.30 -0.23
-18.92 137.52 23.95 -0.09 0.28 0.96 0.05
-12.01 130.90 19.32 0.07 0.20 -0.98 -0.44
-15.21 132.67 34.18 -0.63 0.46 0.63 -0.86
-10.98 125.11 26.06 0.12 -0.98 0.17 -1.09
-11.49 137.47 27.82 -0.62 0.78 -0.03 -0.06
-13.72 130.76 19.17 -0.43 0.40 -0.81 -1.41
-13.09 138.32 26.66 -0.11 0.24 0.96 -0.08
-12.69 135.96 31.66 -0.89 -0.19 -0.42 0.04
-11.77 138.04 29.20 -0.75 0.61 -0.25 0.30
-10.35 127.91 22.10 0.75 -0.61 -0.27 -1.00
-14.91 128.50 33.25 -0.53 -0.37 0.76 -0.26
-9.89 124.84 24.02 0.09 -0.89 -0.44 -2.02
-12.80 137.37 31.10 -0.82 0.32 -0.48 -0.07
-16.73 139.18 23.30 -0.79 0.40 0.46 0.25
-14.25 133.49 34.07 -0.74 0.49 0.46 -0.39
-14.57 124.76 31.09 -0.82 -0.56 0.16 0.06
-9.89 127.72 23.10 0.62 -0.39 -0.68 -2.11
-12.23 127.84 19.48 0.13 -0.45 -0.88 -0.53
-14.48 124.00 29.75 -0.71 -0.64 -0.29 -0.10
-11.42 125.25 27.68 0.26 -0.96 -0.07 -0.07
-14.93 130.12 33.66 -0.77 -0.28 0.57 -0.07
-10.28 128.11 20.75 0.66 -0.66 -0.36 -0.23
-14.67 135.97 18.85 -0.29 -0.71 -0.64 0.15
-13.83 139.40 26.54 -0.22 -0.21 0.95 -0.11
-17.62 139.23 22.41 -0.09 0.85 0.52 0.17
-13.12 129.49 18.92 -0.15 -0.13 -0.98 -0.87
-10.72 131.01 19.35 0.01 0.02 -1.00 -0.09
-14.60 126.26 32.88 -0.67 -0.34 0.66 -0.19
-10.26 132.39 19.22 -0.07 -0.40 -0.91 0.39
-14.36 125.13 32.14 -0.73 -0.49 0.48 -0.09
-17.70 136.18 19.92 -0.39 -0.72 -0.57 0.44
-11.03 133.52 18.31 -0.14 -0.63 -0.76 -0.98
-18.71 138.63 23.04 -0.06 0.68 0.74 -0.26
-15.65 139.89 25.95 -0.62 -0.03 0.79 -0.12
-15.21 131.61 34.59 -0.79 -0.13 0.60 -0.25
-20.40 136.50 23.66 -0.60 -0.14 0.79 0.33
-11.31 137.90 26.67 -0.37 0.56 0.74 0.07
-11.17 128.21 19.80 0.40 -0.55 -0.73 -0.19
-16.75 136.34 19.31 -0.33 -0.68 -0.66 1.00
-13.50 135.86 32.64 -0.87 -0.12 -0.47 -0.12
-11.74 138.43 31.03 -0.72 0.63 -0.30 -0.28
-11.14 138.60 28.79 -0.91 0.34 -0.22 0.35
-13.66 135.85 18.44 -0.49 -0.61 -0.63 -0.18
-20.21 135.81 22.29 -0.66 -0.75 0.03 0.52
-8.47 125.94 23.52 -0.14 -0.30 -0.94 -1.12
-11.08 129.90 19.21 0.13 0.04 -0.99 -0.02
-19.73 138.33 23.08 -0.24 0.54 0.81 0.09
-12.78 123.59 29.37 -0.33 -0.71 -0.62 0.23
-14.13 127.53 33.18 -0.36 -0.33 0.87 -0.08
-10.86 124.90 28.88 0.30 -0.59 -0.75 -0.02
-13.95 135.76 34.16 -0.92 -0.31 -0.23 -0.20
-11.97 134.32 17.51 -0.35 -0.46 -0.82 -1.44
-12.39 138.40 31.66 -0.43 0.55 -0.72 -0.05
-11.93 129.28 19.09 0.17 -0.15 -0.97 -0.07
-14.61 140.62 26.51 -0.52 -0.17 0.84 -0.17
-8.78 127.49 23.76 0.17 -0.05 -0.98 -0.96
-16.26 139.95 22.40 -0.92 0.36 -0.14 0.16
-14.22 128.42 34.18 -0.78 -0.56 0.30 -0.13
3 180 164 134
3 164 131 123
3 123 131 96
3 100 136 126
3 126 105 100
3 136 173 126
3 105 126 170
3 142 125 174
3 130 172 140
3 172 180 140
3 130 140 93
3 130 93 86
3 31 66 52
3 93 134 82
3 82 134 123
3 123 134 164
3 82 96 52
3 52 96 41
3 100 105 63
3 99 105 147
3 105 143 147
3 105 168 143
3 147 143 167
3 148 124 108
3 196 138 165
3 196 175 138
3 138 132 103
3 67 103 56
3 103 132 88
3 103 88 56
3 102 139 129
3 84 102 62
3 102 86 62
3 56 62 33
3 33 62 31
3 33 31 12
3 22 31 41
3 41 19 22
3 53 54 71
3 53 71 40
3 40 71 73
3 71 54 63
3 71 63 99
3 99 73 71
3 60 83 94
3 83 119 94
3 94 119 137
3 119 167 137
3 116 163 117
3 108 74 104
3 74 67 34
3 44 56 23
3 56 33 23
3 23 33 12
3 7 12 22
3 12 7 2
3 7 0 2
3 8 13 1
3 0 1 6
3 13 16 27
3 27 29 13
3 45 20 36
3 45 36 60
3 16 8 20
3 36 20 40
3 73 36 40
3 73 83 60
3 60 72 45
3 47 45 69
3 45 77 81
3 81 95 45
3 69 45 95
3 81 117 111
3 81 111 95
3 95 111 133
3 133 111 197
3 151 117 163
3 182 120 154
3 154 120 149
3 115 87 50
3 120 104 64
3 37 64 34
3 34 18 37
3 48 18 25
3 21 9 34
3 18 34 9
3 18 9 25
3 25 9 28
3 10 9 21
3 10 2 4
3 4 2 0
3 4 0 6
3 28 6 14
3 13 38 17
3 14 17 26
3 17 38 57
3 80 57 85
3 76 85 57
3 29 42 76
3 75 76 42
3 42 65 75
3 65 42 32
3 65 69 101
3 65 101 92
3 101 114 145
3 133 186 153
3 197 186 133
3 115 50 79
3 121 79 78
3 48 25 55
3 55 78 48
3 28 55 25
3 26 30 14
3 58 46 26
3 26 46 30
3 58 80 106
3 58 106 98
3 169 106 171
3 157 106 85
3 157 85 109
3 109 160 157
3 189 109 122
3 92 145 161
3 192 181 141
3 128 176 144
3 90 55 89
3 89 55 59
3 59 55 28
3 68 59 46
3 46 58 68
3 68 112 110
3 112 135 152
3 162 152 199
3 190 135 127
3 127 169 190
3 98 127 135
3 162 176 110
3 131 164 184
3 91 131 136
3 91 136 100
3 173 170 126
3 84 88 155
3 84 155 125
3 84 125 142
3 132 155 88
3 174 125 166
3 166 125 155
3 66 62 86
3 62 66 31
3 66 86 93
3 66 82 52
3 93 82 66
3 43 19 51
3 19 41 51
3 43 51 96
3 96 51 41
3 96 70 43
3 70 96 91
3 61 91 63
3 61 63 39
3 70 91 61
3 100 63 91
3 91 96 131
3 99 63 105
3 195 167 143
3 187 195 143
3 187 143 168
3 178 148 108
3 124 165 138
3 148 165 124
3 108 124 67
3 67 124 103
3 103 124 138
3 102 84 142
3 62 56 88
3 62 88 84
3 22 12 31
3 61 39 43
3 61 43 70
3 19 43 39
3 11 7 24
3 19 24 7
3 19 39 24
3 24 39 54
3 40 11 24
3 20 5 11
3 20 11 40
3 40 24 53
3 53 24 54
3 20 8 5
3 116 179 163
3 104 146 108
3 183 146 150
3 150 146 104
3 108 146 178
3 64 104 74
3 64 74 34
3 44 34 67
3 44 67 56
3 3 7 11
3 0 7 3
3 0 3 5
3 5 3 11
3 0 5 1
3 1 5 8
3 6 1 13
3 6 13 15
3 32 27 16
3 47 20 45
3 47 32 20
3 16 20 32
3 73 60 36
3 77 45 72
3 158 197 111
3 158 111 151
3 117 151 111
3 154 194 182
3 149 87 115
3 87 149 120
3 50 87 64
3 50 64 37
3 64 87 120
3 48 50 18
3 18 50 37
3 6 28 9
3 6 9 4
3 4 9 10
3 17 15 13
3 6 15 17
3 6 17 14
3 35 26 17
3 80 58 57
3 109 85 76
3 109 76 75
3 32 42 27
3 27 42 29
3 141 115 79
3 141 79 121
3 149 115 141
3 149 141 181
3 48 78 79
3 50 48 79
3 127 98 106
3 127 106 169
3 157 171 106
3 109 75 122
3 122 75 92
3 161 122 92
3 191 122 161
3 156 141 121
3 144 156 121
3 110 176 128
3 110 89 59
3 110 59 68
3 162 110 112
3 152 162 112
3 135 190 152
3 136 193 173
3 193 136 131
3 134 140 180
3 140 134 93
3 123 96 82
3 170 168 105
3 175 132 138
3 188 142 174
3 102 142 139
3 139 185 129
3 177 185 139
3 177 139 142
3 188 177 142
3 86 129 130
3 102 129 86
3 52 41 31
3 39 63 54
3 119 118 147
3 119 147 167
3 118 119 83
3 118 83 73
3 73 99 118
3 118 99 147
3 167 195 159
3 167 159 137
3 159 195 179
3 74 108 67
3 23 12 10
3 23 10 21
3 23 21 44
3 7 22 19
3 13 8 16
3 72 94 107
3 107 94 113
3 107 113 77
3 107 77 72
3 94 72 60
3 94 137 113
3 179 116 159
3 159 113 137
3 159 116 113
3 113 116 77
3 117 81 116
3 116 81 77
3 150 104 182
3 120 182 104
3 34 44 21
3 12 2 10
3 38 13 29
3 49 38 29
3 76 49 29
3 76 57 49
3 57 38 49
3 69 114 101
3 69 95 114
3 145 114 153
3 114 95 153
3 133 153 95
3 14 30 28
3 26 35 58
3 106 80 85
3 189 160 109
3 92 75 65
3 65 32 47
3 65 47 69
3 101 145 92
3 128 90 89
3 128 144 90
3 144 121 90
3 78 90 121
3 55 90 78
3 46 59 30
3 59 28 30
3 135 97 98
3 58 98 97
3 135 112 97
3 97 112 68
3 97 68 58
3 89 110 128
3 57 58 35
3 57 35 17
