ply
format ascii 1.0
comment Generated by MaSIF
element vertex 200
property float x
property float y
property float z
property float nx
property float ny
property float nz
property float pb
element face 0
property list uchar int vertex_indices
end_header
-15.17 132.47 29.86 -0.52 0.84 -0.12 -0.01
-15.94 131.67 29.51 -0.75 0.42 -0.51 -0.02
-14.12 132.65 30.66 -0.27 0.96 -0.11 0.20
-14.43 132.99 29.05 -0.64 0.66 0.39 -0.16
-15.67 132.52 31.30 -0.67 0.72 -0.20 -0.89
-14.84 132.14 28.27 -0.99 0.10 -0.08 -0.25
-16.40 130.34 29.40 -0.78 0.01 -0.63 -0.12
-13.48 133.79 29.17 -0.54 0.42 0.73 -0.17
-15.06 133.34 31.95 -0.32 0.91 -0.27 -1.09
-16.92 130.84 30.81 -0.98 0.20 0.03 -0.14
-13.09 133.15 31.64 -0.39 0.85 -0.35 -0.08
-12.85 133.26 30.04 -0.70 0.63 0.33 -0.41
-15.30 129.87 28.67 -0.70 0.13 -0.71 0.06
-14.26 131.38 27.10 -0.81 -0.45 -0.38 -0.80
-14.64 134.37 28.16 -0.71 0.36 0.61 -0.12
-16.34 131.10 32.17 -0.97 0.08 0.24 -0.41
-16.11 132.47 32.98 -0.82 0.49 0.30 -1.51
-15.25 133.37 27.51 -0.93 0.05 0.35 -0.14
-16.00 129.30 29.37 -0.80 -0.03 -0.59 -0.07
-16.72 129.50 30.30 -0.93 -0.13 -0.35 -0.21
-15.25 132.71 26.40 -0.85 -0.47 -0.24 -0.18
-14.45 130.21 27.70 -0.86 0.17 -0.48 -0.91
-12.88 134.91 29.11 -0.77 0.32 0.56 -0.17
-14.26 133.49 33.26 -0.49 0.82 0.29 -0.45
-15.33 128.81 28.19 -0.87 0.39 -0.30 0.00
-14.03 131.82 25.90 -0.58 -0.57 -0.59 -0.29
-15.84 131.22 33.59 -0.83 -0.04 0.56 -0.96
-12.41 134.15 32.37 -0.87 0.34 -0.35 0.06
-13.31 130.80 26.13 -0.63 -0.21 -0.75 -0.91
-14.96 135.10 26.93 -0.79 0.27 0.55 -0.08
-15.82 129.70 32.68 -0.79 -0.20 0.57 -0.10
-16.74 128.96 31.38 -0.97 -0.01 0.24 -0.75
-12.25 134.76 30.13 -0.98 0.06 0.21 -0.50
-15.65 134.05 26.16 -0.98 -0.21 0.03 -0.12
-15.89 128.05 29.10 -0.89 0.13 -0.43 0.52
-14.90 131.96 34.25 -0.62 0.44 0.65 -0.86
-13.57 134.20 33.25 -0.90 0.32 -0.29 -0.23
-14.31 135.97 27.19 -0.56 0.40 0.72 -0.08
-13.16 135.86 28.14 -0.60 0.50 0.63 -0.11
-14.77 128.95 27.11 -0.88 0.45 -0.15 -0.15
-13.93 132.77 34.17 -0.73 0.48 0.48 -0.39
-14.41 133.35 25.00 -0.55 -0.61 -0.57 -0.13
-16.38 127.38 29.95 -0.95 -0.18 -0.26 -0.34
-12.16 136.51 28.87 -0.72 0.68 0.12 -0.10
-13.55 129.82 25.96 -0.61 0.58 -0.54 -0.59
-15.55 128.67 32.81 -0.63 -0.06 0.77 -0.76
-12.34 135.32 31.87 -0.89 -0.16 -0.42 0.04
-14.91 130.89 34.62 -0.79 -0.15 0.60 -0.25
-12.38 131.64 25.53 -0.51 -0.23 -0.83 -0.28
-16.19 127.65 27.57 -0.96 0.29 -0.04 -1.12
-16.88 127.65 31.61 -0.91 -0.17 0.37 -1.51
-15.78 135.86 25.96 -0.88 0.07 0.47 -0.06
-13.15 135.19 32.85 -0.88 -0.08 -0.48 -0.12
-12.50 136.39 30.47 -0.97 0.25 0.01 -0.11
-14.67 129.44 33.62 -0.77 -0.29 0.56 -0.07
-12.57 132.21 24.85 -0.57 -0.60 -0.56 -0.21
-15.01 128.42 26.08 -0.77 0.48 -0.43 -0.77
-13.60 135.03 34.37 -0.93 -0.29 -0.24 -0.20
-13.71 133.54 24.24 -0.42 -0.64 -0.64 -0.15
-12.39 129.61 25.03 -0.47 0.55 -0.69 -0.64
-12.82 136.98 27.47 -0.33 0.65 0.69 -0.08
-15.42 134.56 24.51 -0.75 -0.62 -0.23 -0.06
-15.88 126.44 28.18 -0.97 -0.24 -0.09 -0.66
-16.09 126.32 29.56 -0.92 -0.38 0.06 -0.11
-13.32 132.52 35.51 -0.50 0.30 0.81 -1.15
-13.96 130.98 35.72 -0.54 0.10 0.83 -0.13
-13.45 129.37 24.91 -0.50 0.66 -0.55 -0.45
-14.66 127.83 33.13 -0.53 -0.39 0.75 -0.26
-14.35 134.24 23.75 -0.35 -0.78 -0.51 -0.11
-11.13 136.99 28.10 -0.61 0.79 0.01 -0.06
-13.14 133.86 35.54 -0.72 -0.23 0.66 -0.51
-16.23 126.56 31.56 -0.72 -0.64 0.28 -0.76
-11.39 137.49 29.51 -0.74 0.63 -0.22 0.30
-15.59 127.21 32.69 -0.47 -0.37 0.80 -1.16
-13.84 137.86 26.56 -0.38 0.11 0.92 -0.06
-12.43 136.76 31.38 -0.81 0.36 -0.46 -0.07
-16.07 126.27 26.78 -0.80 -0.57 -0.21 -1.05
-15.04 137.74 26.01 -0.68 0.11 0.72 -0.04
-11.79 130.48 25.18 -0.92 0.21 -0.34 -0.61
-14.32 129.41 34.97 -0.82 -0.20 0.53 -0.09
-15.33 125.55 30.64 -0.79 -0.56 0.26 0.00
-15.65 126.96 25.90 -0.65 -0.19 -0.73 -1.61
-14.47 127.29 25.35 -0.63 -0.05 -0.78 -0.53
-15.80 136.91 24.86 -0.83 0.11 0.54 0.12
-12.71 137.91 26.99 -0.11 0.20 0.97 -0.08
-15.60 125.34 29.16 -0.74 -0.65 -0.17 -0.16
-12.70 133.35 23.54 -0.68 -0.34 -0.65 -0.19
-13.55 136.70 32.44 -0.78 -0.14 -0.61 -0.08
-12.97 131.48 35.85 -0.32 0.14 0.94 -0.33
-13.95 134.76 35.87 -0.64 -0.74 0.19 -0.18
-14.24 136.33 34.30 -0.84 -0.37 -0.40 -0.06
-13.09 134.50 23.27 -0.10 -0.80 -0.59 -0.14
-14.70 125.57 27.88 -0.49 -0.79 -0.36 -0.42
-13.08 130.31 36.02 -0.40 0.05 0.92 -0.00
-16.37 135.48 24.14 -0.65 -0.66 0.38 0.09
-14.01 128.09 24.70 -0.75 0.09 -0.65 -0.42
-13.98 127.70 34.05 -0.78 -0.56 0.27 -0.13
-11.35 137.80 31.35 -0.71 0.65 -0.27 -0.28
-10.76 138.06 29.12 -0.91 0.37 -0.20 0.35
-14.26 134.78 22.81 -0.24 -0.94 -0.26 -0.06
-13.90 126.85 33.02 -0.36 -0.36 0.86 -0.08
-15.23 126.13 31.90 -0.55 -0.57 0.62 -0.55
-14.56 138.63 26.49 -0.47 -0.20 0.86 -0.11
-11.91 131.99 36.31 0.01 0.12 0.99 -1.17
-11.57 130.96 23.91 -0.98 -0.10 0.17 -0.41
-15.58 138.33 25.38 -0.84 -0.16 0.52 -0.00
-13.19 128.36 23.85 -0.87 0.35 -0.36 -1.25
-12.00 134.72 36.02 0.28 -0.59 0.76 -0.16
-10.94 137.46 26.96 -0.36 0.53 0.76 0.07
-12.00 137.76 31.98 -0.42 0.59 -0.69 -0.05
-13.43 139.01 26.91 -0.22 -0.25 0.94 -0.11
-11.39 134.04 35.63 0.13 0.11 0.99 -0.72
-10.40 138.05 27.44 -0.96 0.19 0.20 0.01
-14.40 126.17 25.58 -0.69 -0.50 -0.52 -0.37
-10.86 138.49 30.55 -0.87 0.49 -0.05 0.09
-13.75 126.91 24.72 -0.74 -0.13 -0.65 -0.56
-15.30 135.20 22.77 -0.21 -0.98 -0.06 0.30
-13.99 137.78 32.80 -0.73 0.27 -0.63 -0.12
-16.66 136.74 24.12 -0.25 0.14 0.96 0.40
-12.47 135.18 22.82 -0.30 -0.78 -0.55 -0.11
-12.33 132.70 22.66 -0.93 0.34 -0.11 -0.22
-12.74 127.10 34.08 -0.18 -0.89 0.42 -0.13
-16.79 135.26 23.10 -0.04 -0.97 0.22 0.69
-13.81 127.73 35.21 -0.59 -0.65 0.47 -0.16
-14.74 135.70 36.41 -0.79 -0.59 0.15 -0.09
-15.10 136.67 35.29 -0.95 -0.22 -0.20 -0.07
-14.18 124.69 28.59 -0.55 -0.68 -0.48 -0.06
-14.39 124.19 30.81 -0.82 -0.55 0.14 0.06
-11.73 130.54 36.39 0.02 0.14 0.99 -0.13
-13.00 128.75 36.21 -0.39 -0.20 0.90 -0.10
-13.33 135.33 37.24 -0.21 -0.73 0.65 -0.08
-15.25 139.54 26.35 -0.62 -0.06 0.78 -0.12
-14.54 137.99 34.42 -0.84 0.35 -0.41 -0.06
-11.37 133.84 22.70 -0.89 -0.14 -0.44 -0.83
-10.50 138.79 28.25 -0.94 -0.29 0.18 -0.11
-14.39 125.61 32.67 -0.67 -0.36 0.65 -0.19
-14.17 124.50 31.87 -0.74 -0.50 0.46 -0.09
-12.53 139.23 27.27 -0.18 -0.58 0.80 -0.12
-10.53 139.37 29.19 -0.99 0.04 0.10 0.21
-13.21 128.59 22.89 -0.87 0.18 0.47 -0.74
-14.51 135.00 21.46 -0.23 -0.97 -0.08 0.12
-17.78 136.08 24.13 -0.05 -0.47 0.88 0.79
-13.63 125.21 26.66 -0.55 -0.82 -0.13 0.04
-13.21 126.49 24.02 -0.87 -0.16 -0.47 -1.23
-11.00 138.74 26.80 -0.40 -0.39 0.83 -0.09
-12.30 129.47 23.36 -0.76 0.49 0.43 -0.79
-15.76 135.01 21.81 -0.06 -1.00 -0.04 0.40
-10.63 132.95 35.86 0.24 0.20 0.95 -0.97
-14.20 140.24 26.94 -0.52 -0.19 0.83 -0.17
-12.06 126.48 33.10 0.26 -0.24 0.94 -0.24
-11.56 138.77 32.99 -0.41 0.58 -0.71 0.22
-10.22 134.59 34.83 0.58 0.26 0.77 0.00
-12.35 130.28 22.77 -0.72 0.19 0.66 -0.23
-12.50 131.64 22.72 -0.88 0.10 0.47 -0.27
-16.35 138.97 23.67 -0.79 0.39 0.48 0.25
-10.62 139.16 32.47 -0.75 0.47 -0.46 -0.21
-12.99 126.85 22.83 -0.83 -0.56 0.08 -1.21
-12.98 138.63 33.06 -0.44 0.63 -0.64 -0.05
-13.60 125.07 24.93 -0.67 -0.60 -0.43 -0.31
-10.42 135.61 35.70 0.72 -0.61 0.35 0.09
-10.18 131.82 35.63 -0.05 -0.09 0.99 -0.31
-11.55 133.19 22.09 -0.83 0.55 0.15 0.09
-12.50 132.38 21.69 -0.88 0.47 0.08 -0.16
-10.20 139.73 30.18 -0.94 0.01 0.34 0.11
-13.24 124.89 33.08 -0.61 -0.14 0.78 -0.84
-17.04 138.09 23.68 -0.15 0.49 0.86 0.22
-10.65 130.16 35.87 0.66 -0.02 0.75 -0.08
-15.97 140.36 25.64 -0.83 0.10 0.54 -0.15
-12.44 127.53 35.48 0.05 -0.84 0.54 -0.16
-12.79 134.54 20.99 -0.35 -0.93 0.09 -0.18
-12.79 136.13 37.85 0.01 -0.61 0.79 -0.01
-14.52 136.60 37.53 -0.70 -0.21 0.69 -0.03
-15.23 137.81 36.17 -0.94 0.35 0.07 -0.02
-11.31 136.14 37.19 0.12 -0.88 0.45 0.24
-11.31 129.31 36.65 0.35 -0.12 0.93 -0.16
-11.65 128.24 36.14 0.29 -0.67 0.69 -0.14
-18.22 135.00 22.96 -0.12 -0.98 0.14 0.28
-16.33 140.33 24.40 -1.00 0.09 0.03 -0.11
-17.66 135.29 21.68 -0.24 -0.92 -0.32 0.33
-11.34 134.08 21.72 -0.87 -0.25 0.43 -0.09
-14.32 123.49 29.44 -0.72 -0.62 -0.32 -0.10
-14.00 138.99 35.14 -0.82 0.52 -0.22 0.01
-12.31 140.10 27.98 -0.32 -0.62 0.71 -0.18
-9.87 130.77 35.45 0.33 -0.16 0.93 -0.08
-13.92 128.37 21.99 -0.85 -0.04 0.53 -0.56
-11.35 139.38 27.43 -0.39 -0.68 0.62 -0.20
-12.62 125.41 23.78 -0.53 -0.65 -0.55 -0.78
-18.94 135.65 23.87 -0.22 -0.66 0.72 0.49
-11.00 140.24 28.73 -0.66 -0.60 0.46 -0.04
-14.14 135.01 20.14 -0.34 -0.90 -0.29 -0.07
-13.40 122.90 31.40 -0.78 -0.57 0.25 0.11
-18.56 137.31 24.25 -0.09 0.24 0.97 0.05
-9.61 132.81 35.73 0.08 0.29 0.96 -0.14
-12.53 124.69 27.78 -0.14 -0.86 -0.49 0.33
-9.74 140.33 31.13 -0.98 0.01 0.19 -0.33
-12.96 130.86 22.14 -0.72 0.38 0.58 -0.39
-10.75 127.85 34.09 0.55 -0.73 0.40 -0.41
-14.43 141.49 26.70 -0.83 0.09 0.55 -0.28
-11.69 139.77 33.48 -0.59 0.25 -0.77 -0.11
-12.66 124.53 25.69 -0.17 -0.98 -0.01 -0.34
