ply
format ascii 1.0
comment Generated by MaSIF
element vertex 200
property float x
property float y
property float z
property float nx
property float ny
property float nz
property float charge
element face 345
property list uchar int vertex_indices
end_header
-13.45 131.87 26.80 -0.81 0.33 -0.49 0.52
-12.93 132.96 26.50 -0.99 0.08 -0.09 0.68
-14.43 131.25 27.78 -0.78 0.06 -0.62 0.08
-13.37 130.45 25.81 -0.85 0.28 -0.45 0.17
-12.84 133.33 27.47 -0.96 0.06 -0.26 0.52
-12.67 131.93 25.17 -0.98 0.10 -0.17 0.45
-14.44 130.01 27.64 -0.90 0.06 -0.43 0.62
-13.68 133.36 28.55 -0.79 0.17 -0.60 0.21
-13.00 133.90 26.40 -0.98 -0.19 -0.01 0.57
-15.09 132.37 28.71 -0.79 0.36 -0.50 -1.64
-15.07 130.74 28.70 -0.92 -0.17 -0.37 -0.21
-12.91 132.99 25.01 -0.98 -0.19 -0.11 0.65
-12.77 130.21 24.76 -0.98 0.12 -0.16 0.03
-14.14 129.60 26.74 -0.91 0.24 -0.34 0.27
-13.77 128.93 25.40 -0.82 0.13 -0.55 0.18
-14.43 128.79 27.49 -0.96 0.02 -0.29 0.51
-13.36 134.74 27.58 -0.75 -0.54 -0.38 0.25
-12.53 132.89 24.00 -0.99 -0.06 -0.10 0.30
-14.11 134.34 28.76 -0.73 -0.49 -0.48 0.72
-12.79 132.00 23.48 -0.96 0.28 -0.05 -0.08
-15.59 132.01 29.86 -0.99 0.02 0.13 -1.23
-13.24 135.04 25.61 -0.86 -0.51 -0.06 0.11
-15.08 130.46 30.21 -0.98 0.09 0.18 -0.12
-13.07 130.93 23.31 -0.99 0.14 0.05 -0.19
-13.01 129.58 23.94 -0.97 -0.18 0.14 0.05
-14.96 128.16 28.36 -0.83 0.11 -0.54 0.79
-14.39 128.43 26.45 -0.96 -0.03 -0.28 0.29
-13.06 134.32 24.43 -0.88 -0.47 0.09 0.33
-15.07 133.04 30.54 -0.99 0.15 0.07 -0.15
-15.01 134.27 30.09 -0.97 -0.18 -0.18 0.56
-14.65 135.03 28.02 -0.58 -0.75 -0.32 0.24
-13.56 127.35 25.29 -0.85 -0.18 -0.50 0.02
-12.76 133.40 22.77 -0.88 -0.45 0.13 0.20
-12.68 128.32 23.97 -0.88 -0.33 -0.33 0.04
-13.76 135.50 24.84 -0.66 -0.71 0.26 0.21
-14.39 135.67 26.71 -0.57 -0.73 -0.38 0.20
-12.74 131.37 22.06 -0.99 0.15 -0.00 -0.67
-14.04 127.15 26.84 -0.91 -0.18 -0.36 0.03
-15.30 135.57 29.60 -0.93 -0.35 0.13 0.87
-15.74 127.82 29.08 -0.77 0.12 -0.63 0.31
-13.63 134.72 23.78 -0.65 -0.69 0.32 0.24
-14.21 129.91 31.24 -0.59 0.47 0.65 0.36
-15.03 135.27 30.64 -0.94 0.04 0.34 0.65
-15.19 129.38 31.06 -0.56 0.71 0.43 0.21
-13.97 131.00 31.37 -0.65 -0.14 0.75 0.39
-15.82 129.21 29.85 -0.78 0.57 -0.25 0.28
-13.20 129.49 22.18 -0.99 -0.12 -0.02 -0.20
-14.17 132.00 31.67 -0.82 -0.32 0.47 0.02
-13.32 134.17 22.96 -0.59 -0.74 0.32 0.21
-14.64 134.87 31.55 -0.97 0.10 0.22 0.18
-12.42 128.22 22.47 -0.70 -0.71 0.04 -0.04
-15.64 135.96 28.12 -0.85 -0.51 -0.09 0.21
-14.88 136.51 26.11 -0.64 -0.76 -0.12 0.18
-14.17 126.31 27.22 -0.78 0.05 -0.63 -0.35
-15.21 126.21 28.35 -0.87 -0.02 -0.49 -0.04
-12.23 126.42 24.16 -0.48 -0.46 -0.75 0.13
-12.90 133.76 21.31 -0.93 -0.36 -0.10 0.22
-15.08 136.15 24.48 -0.71 -0.59 0.38 0.16
-13.01 125.71 25.00 -0.64 -0.57 -0.51 0.05
-13.43 125.88 26.18 -0.83 -0.29 -0.48 -0.23
-14.34 133.24 32.65 -0.95 -0.23 0.22 -0.12
-13.92 134.24 21.89 -0.58 -0.80 -0.17 0.15
-15.59 136.90 29.76 -0.89 -0.09 0.45 0.18
-14.43 129.22 32.11 -0.42 0.83 0.35 -0.23
-13.16 130.68 20.65 -0.98 0.05 -0.20 -0.24
-11.16 127.81 22.77 -0.19 -0.93 -0.31 -0.07
-13.20 130.47 31.91 -0.85 0.01 0.52 0.41
-15.83 136.70 26.90 -0.71 -0.67 -0.22 0.15
-16.65 128.46 30.60 -0.87 0.49 -0.06 0.06
-15.99 128.50 32.00 -0.76 0.52 0.40 -0.59
-14.58 136.88 30.69 -0.81 0.17 0.56 0.10
-13.43 129.52 32.64 -0.79 0.60 0.15 0.41
-12.69 132.32 20.19 -0.98 -0.05 -0.19 -0.12
-16.78 127.05 30.64 -0.99 -0.05 -0.13 -0.02
-13.91 132.15 33.02 -0.92 -0.34 0.20 0.12
-15.51 125.75 29.48 -0.86 -0.39 -0.32 -0.03
-12.84 128.54 20.85 -0.83 -0.51 -0.22 0.15
-12.33 125.15 25.66 -0.24 -0.83 -0.51 -0.12
-15.55 137.23 24.96 -0.87 -0.45 -0.19 0.14
-13.51 124.79 26.39 -0.38 -0.39 -0.83 -0.86
-16.07 137.54 28.21 -0.92 -0.29 0.25 0.16
-14.05 136.37 32.05 -0.94 0.34 0.07 -0.59
-11.34 125.30 24.91 -0.15 -0.91 -0.38 -0.18
-14.79 135.55 33.17 -0.98 0.16 0.09 -1.44
-12.97 134.49 20.08 -0.83 -0.56 0.05 0.31
-14.93 124.49 28.44 -0.96 -0.24 -0.15 -0.74
-12.63 129.34 20.04 -0.75 -0.37 -0.55 -0.04
-15.16 134.89 22.99 -0.59 -0.77 0.24 0.15
-14.69 124.58 27.23 -0.73 -0.16 -0.67 -1.39
-15.09 128.65 33.24 -0.52 0.58 0.63 -0.30
-14.22 133.83 33.97 -0.90 -0.24 0.35 -0.55
-11.70 127.70 20.55 -0.40 -0.86 -0.30 -0.05
-13.03 130.58 33.05 -0.99 -0.11 -0.07 0.51
-15.70 137.48 23.37 -0.97 -0.05 0.25 0.15
-10.53 125.53 24.05 -0.30 -0.72 -0.63 -0.83
-15.46 138.50 29.53 -0.65 0.21 0.72 0.08
-15.30 135.15 21.73 -0.70 -0.60 -0.40 0.15
-13.98 128.89 33.63 -0.75 0.45 0.49 0.35
-14.34 135.46 20.73 -0.68 -0.62 -0.39 0.19
-16.02 136.09 22.82 -0.93 -0.29 0.20 0.13
-9.75 127.53 22.85 -0.55 -0.68 -0.49 -0.25
-10.25 127.95 21.59 -0.13 -0.99 0.04 -0.31
-12.83 133.25 19.41 -0.86 -0.45 0.23 0.31
-12.30 130.10 19.20 -0.75 -0.24 -0.61 0.20
-16.66 137.82 26.07 -0.91 -0.32 -0.25 0.11
-15.64 127.49 33.23 -0.67 -0.01 0.74 -0.87
-10.15 126.73 23.47 -0.33 -0.49 -0.81 -0.40
-13.57 130.06 33.70 -0.96 0.21 -0.19 0.53
-16.51 125.65 30.97 -0.74 -0.66 0.11 0.07
-14.46 138.50 30.23 -0.61 0.60 0.52 0.08
-16.25 126.65 32.23 -0.81 -0.23 0.54 -0.32
-13.50 131.37 33.94 -0.99 -0.06 -0.12 0.49
-13.96 136.84 33.08 -0.77 0.57 0.28 -0.82
-12.16 132.20 18.69 -0.77 -0.42 -0.48 0.21
-10.51 125.18 25.62 -0.01 -1.00 0.04 -0.74
-13.73 137.62 32.07 -0.79 0.43 0.43 -0.78
-14.97 124.61 30.35 -0.92 -0.34 0.22 0.25
-11.63 124.89 26.94 0.40 -0.74 -0.54 -0.37
-15.09 125.08 31.20 -0.53 -0.78 0.32 0.23
-15.96 138.77 25.00 -0.90 -0.04 -0.43 0.13
-14.28 135.19 34.47 -0.76 0.28 0.59 -1.68
-12.86 123.61 27.11 0.02 -0.33 -0.94 -0.85
-14.79 123.49 29.11 -0.99 0.01 -0.14 0.20
-16.94 138.72 27.49 -0.98 -0.15 0.15 0.08
-10.32 127.60 20.54 -0.33 -0.93 0.13 -0.35
-14.63 136.15 20.00 -0.85 -0.48 -0.22 0.20
-14.35 127.47 33.81 -0.41 -0.13 0.90 0.26
-13.67 134.62 35.07 -0.82 0.08 0.56 -0.91
-10.91 128.17 19.57 -0.67 -0.64 -0.38 -0.27
-16.16 136.84 21.84 -0.97 -0.13 -0.20 0.14
-13.43 132.67 34.99 -1.00 -0.05 0.07 0.19
-14.26 139.18 29.28 -0.25 0.70 0.67 0.26
-9.31 127.54 21.88 -0.69 -0.72 0.06 -0.48
-9.42 124.72 24.67 0.02 -0.99 -0.14 -0.77
-15.14 126.42 33.03 -0.41 -0.51 0.76 -0.52
-13.54 129.14 34.70 -0.93 -0.23 0.28 0.99
-11.57 130.70 18.34 -0.65 -0.25 -0.72 0.22
-15.20 136.62 20.71 -0.82 -0.36 -0.46 0.18
-16.53 138.88 28.66 -0.68 0.05 0.73 0.07
-14.25 122.92 27.49 -0.65 -0.17 -0.74 -0.23
-16.11 138.38 22.13 -0.96 -0.26 0.08 0.21
-14.99 139.86 28.75 -0.16 0.62 0.77 0.09
-9.06 126.21 22.88 -0.53 -0.73 -0.43 -0.14
-8.91 125.44 23.62 -0.11 -0.78 -0.61 0.03
-15.64 139.14 23.76 -0.97 -0.19 0.15 0.28
-14.30 135.76 19.19 -0.86 -0.46 0.22 0.23
-11.02 129.22 18.86 -0.72 -0.38 -0.57 -0.17
-15.29 125.70 32.24 -0.34 -0.75 0.57 -0.06
-12.96 137.84 32.84 -0.66 0.68 0.32 -0.34
-10.27 125.51 26.86 0.22 -0.96 0.16 -0.34
-12.96 137.11 33.99 -0.71 0.51 0.49 -0.00
-14.04 124.07 31.10 -0.70 -0.31 0.64 0.97
-13.25 139.29 29.81 -0.46 0.80 0.40 0.36
-13.11 133.07 17.70 -0.30 -0.95 0.08 0.24
-13.75 130.54 35.19 -0.98 -0.10 -0.17 1.08
-12.94 127.44 34.63 -0.69 -0.29 0.66 0.46
-9.03 125.19 25.84 0.19 -0.96 0.22 -1.06
-16.45 139.85 26.09 -0.84 0.46 -0.27 0.07
-11.20 132.29 17.69 -0.82 -0.56 0.11 0.25
-14.65 123.34 30.63 -0.86 0.15 0.49 0.30
-14.28 133.69 18.36 -0.63 -0.66 0.41 0.17
-13.28 139.04 31.55 -0.54 0.74 0.41 -1.70
-14.68 134.83 18.36 -0.66 -0.35 0.66 0.22
-10.81 124.16 27.88 0.63 -0.25 -0.74 -0.18
-16.63 140.04 27.17 -0.79 0.61 -0.06 0.06
-14.08 125.47 32.15 -0.44 -0.67 0.60 1.12
-13.00 134.77 35.91 -0.75 0.52 0.42 -0.63
-11.06 131.34 17.67 -0.83 -0.40 -0.39 0.18
-10.53 129.78 18.00 -0.78 -0.23 -0.58 -0.14
-13.46 133.68 35.58 -0.97 0.25 0.06 -0.21
-15.77 140.25 24.82 -0.97 0.22 0.13 0.14
-15.22 122.22 29.59 -1.00 0.02 0.07 -0.04
-16.49 139.99 28.33 -0.65 0.57 0.49 0.05
-14.99 137.31 19.39 -0.97 -0.18 -0.15 0.20
-13.80 140.14 28.61 -0.24 0.79 0.56 0.14
-12.04 133.16 17.15 -0.49 -0.86 0.16 0.34
-13.84 126.16 33.23 -0.42 -0.58 0.69 1.40
-8.49 125.83 21.65 -0.62 -0.77 -0.17 -0.93
-10.66 128.09 18.28 -0.94 -0.30 -0.18 -1.32
-15.49 137.67 20.38 -0.87 -0.34 -0.35 0.19
-13.24 128.98 35.91 -0.82 -0.55 0.14 1.20
-16.18 139.56 23.12 -0.85 -0.36 0.38 0.06
-7.98 125.69 23.18 -0.13 -0.95 -0.27 -0.14
-12.64 128.25 35.51 -0.58 -0.59 0.56 1.22
-11.58 122.45 27.74 0.48 -0.08 -0.87 -0.38
-12.81 136.40 34.84 -0.63 0.42 0.65 -0.15
-16.60 138.89 21.03 -0.86 -0.45 -0.22 0.41
-9.92 125.64 27.98 0.19 -0.85 -0.49 -0.24
-15.01 136.28 18.40 -0.79 -0.11 0.60 0.24
-14.85 121.58 28.44 -0.88 -0.16 -0.44 -0.21
-11.83 138.74 32.94 -0.54 0.75 0.39 0.80
-8.93 126.44 20.59 -0.55 -0.83 0.08 -1.01
-15.44 140.68 27.49 -0.25 0.94 0.25 0.06
-7.62 125.61 24.49 0.24 -0.97 0.04 0.45
-9.40 126.51 19.27 -0.62 -0.78 0.06 -1.31
-13.89 121.30 27.53 -0.38 -0.37 -0.85 -0.21
-16.25 140.52 23.73 -0.93 -0.06 0.36 -0.04
-9.12 125.71 27.16 -0.21 -0.97 -0.13 -0.08
-12.77 126.30 34.16 -0.60 -0.45 0.66 -0.13
-9.84 124.58 28.55 0.29 -0.38 -0.88 -0.89
3 194 191 124
3 168 178 146
3 136 168 103
3 146 103 168
3 178 194 128
3 128 124 91
3 91 76 86
3 65 124 101
3 106 142 143
3 142 182 143
3 143 182 193
3 136 103 113
3 64 46 36
3 33 50 65
3 33 65 55
3 55 31 14
3 94 55 106
3 55 94 82
3 82 94 114
3 160 153 102
3 102 153 113
3 102 113 72
3 113 103 72
3 12 24 33
3 12 33 14
3 24 50 33
3 26 13 14
3 3 14 13
3 13 6 3
3 6 15 25
3 26 31 37
3 31 58 59
3 59 79 53
3 58 77 59
3 59 77 79
3 79 77 117
3 79 117 121
3 163 184 117
3 117 184 121
3 96 98 61
3 56 102 72
3 36 17 32
3 61 32 48
3 17 36 19
3 17 19 5
3 5 11 17
3 5 12 3
3 5 0 1
3 1 11 5
3 2 9 0
3 6 2 0
3 9 2 10
3 10 6 22
3 25 39 22
3 45 22 39
3 54 75 39
3 85 54 88
3 54 53 88
3 88 139 85
3 121 139 88
3 139 189 122
3 122 189 171
3 135 183 180
3 137 96 129
3 96 99 129
3 93 57 78
3 57 87 48
3 1 8 11
3 21 11 8
3 21 8 16
3 21 16 35
3 7 9 28
3 28 29 7
3 18 7 29
3 28 20 47
3 47 22 44
3 43 22 45
3 63 43 69
3 69 110 105
3 105 110 134
3 73 75 108
3 147 134 110
3 118 108 75
3 118 75 116
3 159 116 122
3 116 85 122
3 122 171 159
3 134 176 126
3 63 89 97
3 107 97 135
3 107 135 154
3 89 126 97
3 166 127 169
3 179 173 137
3 93 140 129
3 119 78 104
3 104 80 123
3 51 67 35
3 57 34 52
3 52 34 21
3 52 21 35
3 38 51 30
3 30 18 38
3 51 38 62
3 38 42 70
3 70 62 38
3 70 42 49
3 49 83 81
3 49 42 29
3 29 28 49
3 60 83 49
3 60 47 74
3 92 111 74
3 154 111 107
3 90 130 127
3 169 127 130
3 83 90 120
3 127 185 120
3 185 127 166
3 170 196 144
3 170 144 119
3 157 170 119
3 141 174 192
3 80 51 62
3 80 95 123
3 123 95 138
3 138 95 141
3 109 131 95
3 161 109 115
3 70 115 109
3 81 112 115
3 115 112 148
3 148 190 115
3 115 190 161
3 131 174 141
3 95 131 141
3 92 74 47
3 128 194 124
3 101 124 132
3 132 124 191
3 132 191 177
3 86 103 146
3 86 146 128
3 86 128 91
3 128 146 178
3 100 106 65
3 65 101 100
3 106 100 142
3 142 100 177
3 177 100 132
3 132 100 101
3 113 153 175
3 113 175 158
3 167 113 158
3 113 167 136
3 168 136 167
3 55 14 33
3 65 106 55
3 117 82 114
3 149 117 114
3 197 149 156
3 149 197 187
3 187 199 117
3 187 117 149
3 163 117 199
3 84 98 145
3 102 84 162
3 162 84 145
3 3 12 14
3 6 13 15
3 15 13 26
3 25 15 37
3 37 15 26
3 37 53 25
3 25 53 54
3 31 59 37
3 37 59 53
3 117 77 82
3 188 162 145
3 98 125 145
3 61 98 84
3 61 84 56
3 56 84 102
3 32 61 56
3 32 56 36
3 40 48 27
3 27 17 11
3 17 27 32
3 32 27 48
3 0 5 3
3 4 8 1
3 7 4 0
3 7 0 9
3 1 0 4
3 10 2 6
3 75 54 85
3 122 85 139
3 198 155 176
3 126 176 155
3 125 173 145
3 145 173 188
3 137 173 125
3 98 137 125
3 34 57 40
3 34 40 27
3 40 57 48
3 34 27 21
3 21 27 11
3 30 16 18
3 8 4 16
3 16 4 7
3 16 7 18
3 41 44 22
3 22 43 41
3 41 43 63
3 165 147 118
3 151 165 118
3 151 116 159
3 116 151 118
3 147 165 176
3 134 147 176
3 47 44 66
3 66 92 47
3 92 66 71
3 97 71 63
3 63 71 41
3 41 71 66
3 41 66 44
3 111 92 107
3 107 92 71
3 107 71 97
3 183 135 155
3 126 155 97
3 97 155 135
3 140 186 179
3 140 179 137
3 140 137 129
3 181 140 144
3 144 140 93
3 93 78 144
3 78 119 144
3 67 51 80
3 52 35 67
3 78 52 67
3 78 57 52
3 81 70 49
3 90 83 60
3 90 60 74
3 74 130 90
3 111 154 130
3 111 130 74
3 152 174 131
3 152 109 161
3 109 152 131
3 70 81 115
3 150 148 112
3 156 149 114
3 76 91 50
3 91 124 65
3 91 65 50
3 46 64 86
3 46 76 50
3 76 46 86
3 133 193 156
3 114 133 156
3 133 114 94
3 133 94 143
3 133 143 193
3 143 94 106
3 162 160 102
3 64 36 72
3 86 64 103
3 64 72 103
3 46 23 36
3 24 46 50
3 31 26 14
3 58 55 77
3 58 31 55
3 55 82 77
3 36 56 72
3 12 5 23
3 23 5 19
3 23 19 36
3 3 6 0
3 25 22 6
3 25 54 39
3 88 79 121
3 88 53 79
3 189 139 195
3 87 57 99
3 87 99 96
3 98 96 137
3 99 57 93
3 96 61 87
3 48 87 61
3 10 22 20
3 28 9 20
3 9 10 20
3 22 47 20
3 39 68 45
3 45 68 43
3 68 69 43
3 39 73 68
3 68 73 69
3 110 69 73
3 75 73 39
3 108 118 147
3 108 147 110
3 108 110 73
3 85 116 75
3 105 134 126
3 126 89 105
3 105 89 69
3 63 69 89
3 135 180 154
3 99 93 129
3 104 67 80
3 67 104 78
3 16 30 35
3 35 30 51
3 38 29 42
3 18 29 38
3 47 60 28
3 49 28 60
3 127 120 90
3 181 144 196
3 181 186 140
3 104 123 157
3 104 157 119
3 157 164 192
3 164 157 123
3 70 95 62
3 80 62 95
3 109 95 70
3 120 112 83
3 120 185 150
3 120 150 112
3 83 112 81
3 172 138 141
3 172 141 192
3 172 192 164
3 172 164 123
3 172 123 138
3 23 46 24
3 23 24 12
