ply
format ascii 1.0
comment Generated by MaSIF
element vertex 200
property float x
property float y
property float z
property float nx
property float ny
property float nz
property float charge
element face 345
property list uchar int vertex_indices
end_header
-14.31 130.22 27.75 -0.84 0.23 -0.49 -0.91
-15.20 129.86 28.68 -0.67 0.19 -0.71 0.06
-14.06 131.40 27.21 -0.82 -0.40 -0.42 -0.80
-14.66 129.00 27.08 -0.86 0.49 -0.15 -0.15
-15.25 128.83 28.14 -0.85 0.43 -0.30 0.00
-13.11 130.84 26.23 -0.62 -0.15 -0.77 -0.91
-13.38 129.88 26.01 -0.58 0.63 -0.52 -0.59
-14.64 132.14 28.40 -0.98 0.14 -0.10 -0.25
-15.93 129.29 29.34 -0.79 0.03 -0.61 -0.07
-14.89 128.53 26.03 -0.74 0.52 -0.42 -0.77
-13.79 131.89 26.03 -0.58 -0.52 -0.63 -0.29
-15.79 131.65 29.60 -0.72 0.47 -0.50 -0.02
-16.29 130.34 29.41 -0.76 0.07 -0.65 -0.12
-15.86 128.05 29.01 -0.88 0.18 -0.44 0.52
-14.22 132.93 29.23 -0.62 0.67 0.41 -0.16
-13.28 129.47 24.94 -0.46 0.71 -0.53 -0.45
-14.98 132.80 26.55 -0.86 -0.43 -0.28 -0.18
-16.14 127.74 27.45 -0.94 0.33 -0.05 -1.12
-12.14 131.67 25.69 -0.50 -0.17 -0.85 -0.28
-12.21 129.67 25.09 -0.43 0.60 -0.67 -0.64
-16.66 129.48 30.26 -0.92 -0.07 -0.38 -0.21
-14.99 133.41 27.69 -0.94 0.07 0.33 -0.14
-15.00 132.39 30.00 -0.49 0.87 -0.09 -0.01
-14.38 127.42 25.25 -0.61 0.01 -0.79 -0.53
-15.59 127.11 25.77 -0.64 -0.13 -0.76 -1.61
-15.89 126.49 28.01 -0.97 -0.20 -0.13 -0.66
-12.29 132.28 25.04 -0.58 -0.55 -0.60 -0.21
-16.39 127.36 29.82 -0.95 -0.13 -0.29 -0.34
-16.83 130.79 30.83 -0.97 0.24 0.02 -0.14
-13.88 128.23 24.66 -0.73 0.15 -0.66 -0.42
-14.35 134.36 28.40 -0.71 0.36 0.61 -0.12
-13.24 133.69 29.41 -0.54 0.40 0.74 -0.17
-14.09 133.48 25.20 -0.56 -0.56 -0.62 -0.13
-11.59 130.51 25.30 -0.90 0.26 -0.35 -0.61
-13.03 128.50 23.84 -0.85 0.40 -0.36 -1.25
-15.53 132.40 31.43 -0.63 0.75 -0.18 -0.89
-15.33 134.17 26.37 -0.99 -0.17 0.00 -0.12
-16.05 126.40 26.60 -0.81 -0.52 -0.26 -1.05
-16.73 128.88 31.31 -0.98 0.02 0.22 -0.75
-13.96 132.50 30.82 -0.23 0.97 -0.07 0.20
-14.36 126.29 25.43 -0.70 -0.45 -0.56 -0.37
-13.67 127.04 24.62 -0.73 -0.07 -0.68 -0.56
-12.65 133.09 30.27 -0.69 0.64 0.34 -0.41
-16.13 126.31 29.38 -0.94 -0.34 0.02 -0.11
-14.74 125.58 27.70 -0.51 -0.76 -0.41 -0.42
-14.62 135.16 27.20 -0.79 0.27 0.55 -0.08
-15.68 125.34 28.94 -0.76 -0.61 -0.22 -0.16
-13.37 133.68 24.47 -0.43 -0.59 -0.68 -0.15
-12.60 134.78 29.42 -0.77 0.32 0.55 -0.17
-16.27 130.96 32.21 -0.97 0.10 0.22 -0.41
-16.92 127.56 31.47 -0.93 -0.15 0.34 -1.51
-14.90 133.16 32.13 -0.28 0.93 -0.23 -1.09
-16.32 126.45 31.38 -0.75 -0.62 0.23 -0.76
-12.34 133.49 23.79 -0.68 -0.28 -0.68 -0.19
-13.02 128.78 22.89 -0.87 0.19 0.45 -0.74
-13.12 126.63 23.91 -0.86 -0.11 -0.49 -1.23
-13.95 135.99 27.52 -0.57 0.39 0.73 -0.08
-13.96 134.43 24.00 -0.37 -0.75 -0.56 -0.11
-11.32 131.04 24.06 -0.99 -0.07 0.14 -0.41
-12.09 129.60 23.43 -0.75 0.50 0.44 -0.79
-15.04 134.75 24.75 -0.77 -0.58 -0.28 -0.06
-15.43 125.46 30.44 -0.81 -0.54 0.22 0.00
-16.01 132.28 33.09 -0.80 0.51 0.31 -1.51
-12.82 135.79 28.48 -0.59 0.50 0.64 -0.11
-12.86 127.05 22.75 -0.85 -0.53 0.04 -1.21
-13.59 125.18 24.75 -0.68 -0.56 -0.47 -0.31
-13.65 125.24 26.48 -0.58 -0.79 -0.18 0.04
-15.81 129.52 32.67 -0.81 -0.20 0.54 -0.10
-12.94 132.91 31.85 -0.35 0.88 -0.31 -0.08
-15.39 136.00 26.26 -0.89 0.08 0.46 -0.06
-15.59 128.48 32.75 -0.65 -0.07 0.76 -0.76
-14.26 124.66 28.37 -0.56 -0.63 -0.53 -0.06
-12.00 134.56 30.44 -0.98 0.09 0.19 -0.50
-15.34 125.97 31.73 -0.58 -0.57 0.58 -0.55
-13.71 128.63 21.97 -0.86 -0.03 0.51 -0.56
-12.57 125.54 23.64 -0.54 -0.60 -0.59 -0.78
-15.80 130.99 33.65 -0.84 -0.03 0.54 -0.96
-12.69 134.66 23.56 -0.12 -0.77 -0.63 -0.14
-15.68 127.03 32.56 -0.50 -0.39 0.77 -1.16
-11.98 132.86 22.88 -0.92 0.38 -0.11 -0.22
-14.13 133.22 33.46 -0.47 0.83 0.32 -0.45
-12.10 130.45 22.87 -0.73 0.18 0.66 -0.23
-13.84 135.00 23.09 -0.27 -0.91 -0.31 -0.06
-11.81 136.36 29.27 -0.70 0.70 0.13 -0.10
-12.68 124.58 25.50 -0.21 -0.98 -0.07 -0.34
-10.99 133.96 23.00 -0.88 -0.09 -0.46 -0.83
-12.42 136.93 27.88 -0.32 0.63 0.71 -0.08
-14.74 127.59 33.05 -0.57 -0.41 0.72 -0.26
-15.95 135.72 24.40 -0.68 -0.65 0.34 0.09
-12.23 133.85 32.65 -0.85 0.39 -0.35 0.06
-13.62 126.95 21.70 -0.77 -0.54 0.33 0.03
-13.59 130.28 21.87 -0.76 0.31 0.58 -1.01
-14.55 124.06 30.56 -0.85 -0.52 0.09 0.06
-12.20 136.18 30.86 -0.96 0.29 0.00 -0.11
-12.19 131.81 22.88 -0.88 0.11 0.46 -0.27
-12.04 135.34 23.16 -0.31 -0.74 -0.59 -0.11
-12.61 126.44 21.26 -0.20 -0.98 -0.08 -0.17
-14.69 129.17 33.61 -0.80 -0.29 0.53 -0.07
-14.86 135.46 23.04 -0.24 -0.96 -0.11 0.30
-15.34 137.09 25.21 -0.84 0.12 0.53 0.12
-14.85 131.67 34.36 -0.62 0.44 0.66 -0.86
-12.59 124.64 27.60 -0.16 -0.83 -0.53 0.33
-14.47 123.42 29.15 -0.73 -0.58 -0.36 -0.10
-11.27 126.18 21.80 0.14 -0.94 -0.33 -0.46
-11.77 124.74 24.40 -0.21 -0.94 -0.28 -1.22
-14.12 129.42 21.13 -0.96 0.03 0.28 -0.88
-14.54 125.39 32.48 -0.70 -0.37 0.61 -0.19
-12.67 131.08 22.26 -0.72 0.38 0.58 -0.39
-14.34 124.31 31.64 -0.76 -0.49 0.42 -0.09
-13.39 137.89 26.99 -0.40 0.08 0.91 -0.06
-11.17 133.35 22.35 -0.81 0.57 0.15 0.09
-12.14 132.60 21.89 -0.86 0.50 0.08 -0.16
-13.84 132.44 34.34 -0.72 0.49 0.49 -0.39
-13.41 133.91 33.50 -0.88 0.37 -0.29 -0.23
-14.58 137.83 26.41 -0.70 0.10 0.71 -0.04
-14.21 128.10 20.51 -0.94 -0.18 -0.29 0.40
-11.00 125.74 22.63 -0.14 -0.70 -0.70 -1.61
-14.91 130.58 34.68 -0.81 -0.15 0.57 -0.25
-10.75 136.84 28.54 -0.58 0.82 0.03 -0.06
-14.01 126.59 32.90 -0.40 -0.39 0.83 -0.08
-10.92 134.25 22.03 -0.88 -0.24 0.40 -0.09
-14.04 135.30 21.75 -0.26 -0.96 -0.13 0.12
-12.11 135.04 32.21 -0.89 -0.10 -0.45 0.04
-10.98 124.64 23.78 -0.23 -0.90 -0.36 -1.84
-12.27 137.87 27.44 -0.12 0.16 0.98 -0.08
-11.03 137.28 29.97 -0.71 0.67 -0.21 0.30
-16.19 136.99 24.44 -0.27 0.10 0.96 0.40
-16.36 135.57 23.35 -0.08 -0.98 0.17 0.69
-12.13 136.50 31.78 -0.79 0.41 -0.46 -0.07
-12.78 122.96 28.77 -0.35 -0.64 -0.69 0.23
-14.08 127.39 33.98 -0.81 -0.54 0.23 -0.13
-13.79 126.94 20.26 -0.59 -0.71 -0.37 0.22
-15.31 135.34 22.07 -0.09 -0.99 -0.09 0.40
-10.27 126.58 22.22 0.64 -0.36 -0.68 -1.08
-12.67 126.98 19.84 -0.17 -0.57 -0.80 -0.14
-11.21 126.71 20.57 0.39 -0.74 -0.55 0.15
-10.83 124.67 25.64 0.07 -0.99 0.08 -1.09
-11.30 124.69 27.26 0.21 -0.96 -0.16 -0.07
-14.38 129.06 34.97 -0.84 -0.20 0.50 -0.09
-10.38 127.09 21.34 0.74 -0.59 -0.32 -0.11
-17.34 136.37 24.40 -0.09 -0.51 0.86 0.79
-14.23 130.78 20.32 -0.91 0.41 -0.02 -1.45
-14.09 129.56 19.75 -0.79 -0.06 -0.61 -1.30
-14.08 138.68 26.94 -0.49 -0.22 0.84 -0.11
-15.08 138.47 25.80 -0.86 -0.15 0.49 -0.00
-12.90 131.79 20.96 -0.69 0.72 0.10 -1.01
-13.62 122.71 31.11 -0.81 -0.55 0.20 0.11
-13.44 122.56 29.84 -0.64 -0.75 -0.18 0.17
-12.34 134.79 21.30 -0.38 -0.92 0.04 -0.18
-12.95 139.00 27.41 -0.25 -0.28 0.93 -0.11
-13.43 124.60 32.88 -0.63 -0.15 0.76 -0.84
-11.66 133.95 21.37 -0.96 -0.08 0.27 -0.19
-10.52 137.36 27.44 -0.36 0.51 0.78 0.07
-12.95 134.89 33.16 -0.87 -0.03 -0.50 -0.12
-11.02 137.50 31.83 -0.68 0.69 -0.25 -0.28
-13.27 132.11 35.68 -0.51 0.28 0.81 -1.15
-10.36 137.84 29.62 -0.89 0.41 -0.20 0.35
-9.58 125.68 22.72 0.28 -0.31 -0.91 -1.74
-11.68 133.02 20.41 -0.92 0.19 -0.35 -0.19
-12.86 126.74 34.00 -0.22 -0.90 0.37 -0.13
-13.98 130.59 35.80 -0.56 0.08 0.82 -0.13
-13.18 128.75 19.44 -0.41 -0.29 -0.87 -0.65
-13.44 134.68 34.66 -0.93 -0.24 -0.27 -0.20
-9.71 124.54 23.61 0.05 -0.85 -0.52 -2.02
-10.78 124.21 28.44 0.29 -0.53 -0.80 -0.02
-13.93 127.35 35.14 -0.63 -0.65 0.43 -0.16
-13.64 135.36 20.44 -0.36 -0.87 -0.34 -0.07
-11.68 137.45 32.44 -0.38 0.64 -0.67 -0.05
-11.94 132.11 19.83 -0.42 0.46 -0.78 -0.35
-16.51 138.37 24.06 -0.15 0.45 0.88 0.22
-11.45 122.70 28.42 -0.07 -0.43 -0.90 0.67
-17.79 135.37 23.16 -0.16 -0.98 0.08 0.28
-9.97 137.90 27.96 -0.96 0.21 0.19 0.01
-10.48 138.21 31.07 -0.85 0.52 -0.05 0.09
-17.19 135.70 21.91 -0.27 -0.89 -0.37 0.33
-15.79 139.23 24.11 -0.78 0.40 0.48 0.25
-9.97 127.79 21.98 0.72 -0.62 -0.31 -1.00
-13.05 133.44 35.78 -0.74 -0.24 0.63 -0.51
-14.85 135.89 20.30 -0.22 -0.83 -0.50 0.54
-12.18 126.15 33.00 0.22 -0.29 0.93 -0.24
-14.73 139.63 26.83 -0.64 -0.07 0.77 -0.12
-13.28 136.43 32.81 -0.77 -0.09 -0.63 -0.08
-18.50 136.00 24.09 -0.26 -0.68 0.68 0.49
-16.26 135.78 20.80 -0.29 -0.79 -0.54 0.40
-9.53 127.49 22.96 0.62 -0.36 -0.70 -2.11
-10.27 125.19 27.73 0.16 -0.94 -0.29 -0.12
-12.05 139.17 27.80 -0.22 -0.61 0.76 -0.12
-11.79 128.07 19.33 0.13 -0.37 -0.92 -0.53
-18.08 137.63 24.56 -0.10 0.20 0.98 0.05
-13.30 122.60 32.25 -0.71 -0.61 0.35 -0.93
-13.12 131.08 19.27 -0.39 0.49 -0.78 -1.41
-12.37 124.55 33.49 0.01 0.23 0.97 -1.29
-9.86 128.12 20.65 0.63 -0.66 -0.41 -0.23
-12.47 121.64 30.28 -0.54 -0.82 -0.18 -0.32
-10.53 138.64 27.34 -0.43 -0.42 0.80 -0.09
-12.32 134.92 19.92 -0.67 -0.64 -0.39 -0.49
-10.93 132.91 19.48 -0.48 -0.24 -0.84 -0.21
-12.97 131.04 35.98 -0.34 0.11 0.94 -0.33
-12.58 129.81 18.91 -0.13 -0.03 -0.99 -0.87
-13.13 129.87 36.09 -0.42 0.02 0.91 -0.00
3 166 195 148
3 196 168 158
3 174 183 132
3 174 132 127
3 57 98 82
3 132 178 121
3 121 178 166
3 121 148 82
3 82 148 77
3 158 168 111
3 145 168 190
3 124 109 86
3 143 144 114
3 56 114 69
3 114 144 99
3 114 99 69
3 140 182 171
3 126 140 88
3 140 127 88
3 69 88 60
3 60 88 57
3 60 57 32
3 47 57 77
3 77 53 47
3 81 94 107
3 81 107 59
3 59 107 91
3 107 94 111
3 107 111 145
3 145 91 107
3 74 105 115
3 105 142 115
3 115 142 161
3 142 198 161
3 135 192 139
3 86 63 83
3 63 56 30
3 45 69 36
3 69 60 36
3 36 60 32
3 26 32 47
3 32 26 10
3 26 5 10
3 15 9 6
3 5 6 0
3 9 29 23
3 23 24 9
3 64 34 54
3 64 54 74
3 29 15 34
3 54 34 59
3 91 54 59
3 91 105 74
3 74 90 64
3 55 64 75
3 64 96 103
3 103 116 64
3 75 64 116
3 103 139 133
3 103 133 116
3 116 133 157
3 176 139 192
3 154 173 125
3 156 125 173
3 154 93 128
3 167 128 181
3 128 93 122
3 128 122 181
3 181 122 153
3 89 72 42
3 93 83 48
3 31 48 30
3 30 14 31
3 39 14 22
3 21 7 30
3 14 30 7
3 14 7 22
3 22 7 11
3 16 7 21
3 16 10 2
3 2 10 5
3 2 5 0
3 11 0 1
3 9 17 4
3 1 4 8
3 4 17 25
3 43 25 46
3 44 46 25
3 24 40 44
3 66 44 40
3 40 65 66
3 65 40 41
3 65 75 104
3 65 104 84
3 104 123 136
3 89 42 68
3 80 68 51
3 39 22 35
3 35 51 39
3 11 35 22
3 8 12 1
3 27 20 8
3 8 20 12
3 27 43 61
3 27 61 52
3 106 61 108
3 92 61 46
3 92 46 71
3 71 102 92
3 147 146 92
3 147 129 193
3 193 129 170
3 129 71 101
3 84 136 137
3 162 153 113
3 177 112 155
3 76 117 100
3 62 35 49
3 49 35 28
3 28 35 11
3 38 28 20
3 20 27 38
3 38 70 67
3 70 78 87
3 97 87 130
3 97 130 138
3 119 78 73
3 73 106 119
3 52 73 78
3 106 150 119
3 150 106 108
3 150 146 189
3 197 155 160
3 160 155 100
3 199 160 138
3 97 117 67
3 170 129 101
3 126 99 175
3 126 175 169
3 126 169 188
3 144 175 99
3 98 88 127
3 88 98 57
3 98 127 132
3 98 121 82
3 132 121 98
3 85 53 95
3 53 77 95
3 85 95 148
3 148 95 77
3 148 120 85
3 120 148 151
3 110 151 111
3 110 111 79
3 120 151 110
3 158 111 151
3 151 148 195
3 145 111 168
3 172 194 152
3 152 194 124
3 152 124 86
3 149 124 194
3 149 194 186
3 109 149 143
3 124 149 109
3 86 109 56
3 56 109 114
3 114 109 143
3 140 126 188
3 88 69 99
3 88 99 126
3 47 32 57
3 110 79 85
3 110 85 120
3 53 85 79
3 33 26 58
3 53 58 26
3 53 79 58
3 58 79 94
3 59 33 58
3 34 19 33
3 34 33 59
3 59 58 81
3 81 58 94
3 34 15 19
3 83 118 86
3 156 118 125
3 125 118 83
3 86 118 152
3 156 172 118
3 118 172 152
3 48 83 63
3 48 63 30
3 45 30 56
3 45 56 69
3 18 26 33
3 5 26 18
3 5 18 19
3 19 18 33
3 5 19 6
3 6 19 15
3 0 6 9
3 0 9 3
3 41 23 29
3 55 34 64
3 55 41 34
3 29 34 41
3 91 74 54
3 96 64 90
3 184 133 176
3 139 176 133
3 128 167 154
3 122 72 89
3 72 122 93
3 42 72 48
3 42 48 31
3 48 72 93
3 39 42 14
3 14 42 31
3 0 11 7
3 0 7 2
3 2 7 16
3 4 3 9
3 0 3 4
3 0 4 1
3 13 8 4
3 43 27 25
3 71 46 44
3 71 44 66
3 41 40 23
3 23 40 24
3 113 89 68
3 113 68 80
3 122 89 113
3 122 113 153
3 39 51 68
3 42 39 68
3 73 52 61
3 73 61 106
3 92 108 61
3 71 66 101
3 101 66 84
3 137 101 84
3 170 101 164
3 164 101 137
3 185 164 137
3 136 185 137
3 112 177 113
3 112 113 80
3 162 113 177
3 155 112 100
3 100 112 80
3 67 117 76
3 67 49 28
3 67 28 38
3 97 67 70
3 87 97 70
3 159 130 87
3 159 87 119
3 78 119 87
3 179 150 191
3 150 179 119
3 119 179 159
3 146 150 108
3 92 146 108
3 199 197 160
3 97 138 117
3 183 178 132
3 166 148 121
3 180 144 143
3 140 188 182
3 127 171 174
3 140 171 127
3 82 77 57
3 79 111 94
3 142 141 190
3 142 190 198
3 141 142 105
3 141 105 91
3 91 145 141
3 141 145 190
3 198 187 161
3 63 86 56
3 36 32 16
3 36 16 21
3 36 21 45
3 26 47 53
3 9 15 29
3 90 115 131
3 131 115 134
3 131 134 96
3 131 96 90
3 115 90 74
3 115 161 134
3 187 134 161
3 187 135 134
3 134 135 96
3 139 103 135
3 135 103 96
3 125 83 154
3 93 154 83
3 30 45 21
3 32 10 16
3 17 9 24
3 37 17 24
3 44 37 24
3 44 25 37
3 25 17 37
3 75 123 104
3 75 116 123
3 136 123 163
3 123 116 163
3 157 163 116
3 181 153 162
3 1 12 11
3 8 13 27
3 61 43 46
3 92 102 147
3 147 102 129
3 129 102 71
3 84 66 65
3 65 41 55
3 65 55 75
3 104 136 84
3 76 62 49
3 76 100 62
3 100 80 62
3 51 62 80
3 35 62 51
3 20 28 12
3 28 11 12
3 78 50 52
3 27 52 50
3 78 70 50
3 50 70 38
3 50 38 27
3 189 146 193
3 193 146 147
3 117 138 160
3 117 160 100
3 49 67 76
3 130 159 165
3 130 165 138
3 25 27 13
3 25 13 4
