ply
format ascii 1.0
comment Generated by MaSIF
element vertex 195
property float x
property float y
property float z
property float nx
property float ny
property float nz
property float charge
element face 342
property list uchar int vertex_indices
end_header
42.75 134.89 13.24 0.36 -0.74 -0.56 -0.28
42.71 135.87 12.54 0.39 -0.24 -0.89 -0.37
43.70 135.56 12.76 0.33 -0.40 -0.85 -1.01
42.31 134.24 14.21 0.45 -0.81 -0.37 0.26
42.00 135.28 12.09 0.46 -0.33 -0.82 -0.20
41.52 134.46 12.61 0.46 -0.51 -0.73 -0.30
43.72 134.36 14.67 0.12 -0.79 -0.60 -0.27
44.53 135.01 13.90 0.53 -0.60 -0.59 -0.78
43.27 136.87 12.63 0.52 0.02 -0.85 -0.85
44.77 136.02 13.39 0.83 -0.03 -0.56 -1.12
41.87 136.76 12.05 0.43 -0.08 -0.90 -0.10
42.24 133.78 15.41 0.21 -0.91 -0.36 0.05
40.92 136.00 11.65 0.19 -0.34 -0.92 -0.20
41.23 133.16 14.31 0.72 -0.69 -0.04 -0.77
45.15 135.87 14.65 0.83 0.21 -0.52 -0.52
39.95 134.94 12.16 -0.06 -0.18 -0.98 -0.38
40.75 133.03 12.36 0.40 -0.59 -0.70 -1.09
44.51 133.34 15.43 0.13 -0.77 -0.63 -0.01
45.57 134.76 14.87 0.48 -0.32 -0.82 -0.12
43.24 138.06 12.86 0.72 -0.16 -0.68 -0.24
44.81 137.10 13.85 0.86 0.17 -0.48 -1.08
39.73 133.56 11.99 -0.08 -0.18 -0.98 -1.32
42.81 133.13 15.98 -0.19 -0.83 -0.52 -0.16
41.03 137.60 11.50 0.39 0.03 -0.92 -0.18
39.49 135.78 11.99 -0.33 -0.43 -0.84 -0.23
42.11 133.09 16.92 0.02 -1.00 0.03 -0.19
40.77 132.30 13.44 0.52 -0.85 -0.11 -1.29
40.83 133.17 15.49 0.58 -0.79 -0.20 0.03
44.96 137.05 15.10 0.94 0.12 -0.32 -0.20
44.66 138.15 13.94 0.86 -0.13 -0.50 -0.27
39.88 132.25 14.62 0.38 -0.92 -0.02 -0.69
39.71 136.91 10.80 -0.00 -0.32 -0.95 -0.17
45.58 136.43 15.86 0.68 0.32 -0.66 -0.01
46.52 134.48 15.39 0.45 -0.19 -0.87 0.29
42.94 139.15 12.17 0.50 -0.38 -0.77 -0.48
41.94 138.83 11.87 0.19 -0.11 -0.97 -0.26
39.32 132.24 13.12 -0.12 -0.89 -0.44 -1.40
44.96 132.78 16.75 0.09 -0.97 -0.24 0.25
43.48 132.69 16.97 -0.17 -0.98 0.03 -0.10
45.87 133.55 15.98 0.29 -0.71 -0.63 0.24
46.48 135.74 15.89 0.55 0.50 -0.67 0.24
38.47 133.25 12.72 -0.29 -0.53 -0.79 -0.72
37.87 134.37 12.72 -0.23 -0.06 -0.97 -0.23
40.43 132.11 16.22 0.53 -0.81 -0.25 -1.38
44.99 139.01 13.58 0.69 -0.50 -0.52 -0.31
41.61 133.84 18.04 0.49 -0.80 0.35 -0.06
42.91 133.69 18.00 -0.32 -0.85 0.42 -0.09
39.24 138.33 10.92 -0.10 0.21 -0.97 -0.13
46.25 137.11 16.51 0.77 0.23 -0.59 -1.11
38.63 132.21 13.89 -0.11 -0.90 -0.42 -0.38
47.56 134.98 15.86 0.64 0.01 -0.77 0.95
45.23 138.98 14.88 0.90 -0.40 -0.20 -0.13
40.94 139.70 12.02 -0.01 0.20 -0.98 -0.39
38.10 135.40 12.81 -0.14 -0.13 -0.98 -0.47
37.90 136.31 12.45 -0.33 -0.37 -0.87 -0.50
38.28 137.05 11.52 -0.55 -0.34 -0.76 -0.21
44.02 139.62 12.11 0.38 -0.63 -0.68 -1.30
44.15 132.80 17.86 -0.32 -0.93 0.20 0.02
45.39 138.45 15.83 0.85 -0.10 -0.51 -0.18
46.11 132.69 17.54 0.18 -0.97 -0.15 -0.33
37.30 133.01 13.02 -0.10 -0.61 -0.79 -0.23
42.60 140.61 11.32 -0.16 -0.17 -0.97 -1.48
47.35 133.34 16.48 0.44 -0.69 -0.57 0.08
37.80 131.72 15.00 -0.11 -0.97 -0.22 -0.24
47.71 135.67 17.03 0.77 0.61 -0.17 0.16
36.97 135.21 12.59 -0.03 -0.03 -1.00 -0.87
46.92 136.46 17.55 0.85 0.52 -0.02 -0.51
41.90 134.18 19.12 0.34 -0.90 0.27 -0.28
40.77 131.89 17.57 0.70 -0.70 0.17 -2.00
44.96 132.67 18.93 -0.04 -0.98 0.20 -1.03
46.78 137.39 17.84 0.97 0.14 0.21 -1.18
48.18 134.29 16.86 0.97 -0.09 -0.22 0.20
38.98 139.58 11.55 0.11 0.03 -0.99 -0.06
43.03 134.16 19.38 -0.35 -0.92 0.18 -0.53
40.63 132.86 18.67 0.70 -0.63 0.32 -0.45
45.81 140.02 15.64 0.97 0.06 -0.24 -0.06
36.94 137.20 12.85 -0.32 -0.22 -0.92 -0.47
38.64 131.60 15.97 -0.21 -0.97 -0.07 -0.53
45.97 140.47 14.15 0.99 0.03 -0.16 -0.19
45.23 140.61 12.69 0.90 -0.15 -0.41 -1.44
46.33 138.67 17.15 0.98 0.13 -0.12 -0.61
39.15 131.13 17.33 -0.09 -0.99 -0.06 -1.51
37.63 138.40 11.91 -0.44 -0.13 -0.89 -0.15
39.91 140.72 12.29 0.33 -0.09 -0.94 -0.17
36.69 132.42 14.22 -0.37 -0.91 -0.16 -0.22
44.45 140.90 11.01 0.40 -0.25 -0.88 -2.17
46.19 133.03 18.96 0.35 -0.84 0.41 -0.66
42.20 141.96 11.78 -0.42 0.46 -0.78 -2.17
47.62 133.07 17.83 0.56 -0.83 0.04 -0.05
36.06 133.80 12.59 -0.39 -0.25 -0.89 -0.28
35.84 135.27 12.92 -0.34 0.02 -0.94 -0.37
35.78 132.89 13.71 -0.54 -0.76 -0.36 -0.26
41.07 141.70 12.09 -0.06 0.24 -0.97 -1.59
36.81 132.56 15.76 -0.48 -0.85 0.22 -0.23
43.21 142.29 11.29 -0.17 0.60 -0.78 -1.80
46.23 136.33 18.77 0.70 0.37 0.61 -0.52
43.95 133.49 20.06 -0.44 -0.89 0.09 -1.30
47.35 135.56 18.68 0.68 0.62 0.39 -0.15
46.30 137.93 18.81 0.97 -0.07 0.24 -0.69
48.46 134.62 18.07 0.96 0.23 0.18 0.21
42.02 134.50 20.49 0.03 -1.00 0.01 0.11
40.97 134.04 20.37 0.59 -0.79 0.16 -0.24
37.63 132.30 16.49 -0.58 -0.81 0.06 -0.28
45.51 133.30 20.28 0.32 -0.94 0.11 -0.89
39.37 131.53 18.65 0.37 -0.89 0.25 -0.73
38.92 140.90 11.34 0.43 -0.38 -0.82 -0.00
36.79 138.89 11.87 0.17 -0.59 -0.79 -0.07
35.28 134.09 13.37 -0.76 -0.32 -0.56 -0.34
38.02 131.87 17.97 -0.42 -0.90 -0.14 -0.47
40.05 132.78 20.18 0.73 -0.65 0.21 -0.23
35.14 133.38 14.50 -0.80 -0.58 -0.12 -0.27
35.41 136.86 12.95 -0.06 -0.20 -0.98 -0.50
44.89 142.26 11.69 0.73 0.56 -0.38 -1.01
44.82 142.06 13.68 0.74 0.67 0.04 -0.87
45.09 141.70 15.18 0.75 0.67 -0.03 -0.09
47.78 133.74 19.06 0.77 -0.40 0.49 0.88
45.97 139.19 18.61 0.99 0.08 -0.12 -0.15
42.21 142.93 12.93 -0.00 0.92 -0.39 -1.44
35.79 132.93 15.37 -0.53 -0.82 0.20 -0.21
45.95 135.67 19.44 0.67 0.61 0.42 -0.85
45.91 139.98 18.06 0.99 -0.10 0.06 0.37
34.59 135.50 13.37 -0.44 -0.43 -0.78 -0.81
40.08 142.17 11.67 0.63 -0.17 -0.75 -0.07
35.43 137.96 12.61 0.09 -0.63 -0.77 -0.53
45.36 141.59 16.80 0.74 0.55 -0.40 0.45
46.22 140.92 17.40 0.97 0.14 -0.20 0.10
45.40 136.84 19.54 0.94 0.15 0.31 -0.33
36.94 132.90 17.04 -0.55 -0.83 -0.12 0.14
36.89 140.03 11.18 0.40 -0.39 -0.83 0.15
40.87 143.13 12.75 0.66 0.48 -0.58 -0.18
44.21 142.75 12.70 0.30 0.95 -0.04 -1.18
44.06 133.29 21.68 -0.32 -0.94 -0.12 0.46
46.65 134.90 20.29 0.96 0.18 0.20 -0.17
41.44 134.37 21.77 0.28 -0.93 -0.24 -0.13
38.87 141.66 10.53 0.65 -0.63 -0.42 0.27
45.44 133.17 21.50 0.20 -0.92 -0.33 0.06
46.42 138.74 20.05 0.78 -0.35 -0.51 0.03
37.31 131.75 18.86 -0.31 -0.94 -0.16 -0.87
38.66 131.19 19.93 0.11 -0.99 0.07 -0.33
45.50 137.78 20.45 0.83 -0.45 -0.32 0.36
34.94 133.77 15.78 -0.70 -0.70 0.14 -0.18
37.37 141.01 10.99 0.38 -0.68 -0.63 0.21
35.27 138.28 11.65 0.24 -0.87 -0.44 0.12
39.21 131.99 21.10 0.50 -0.85 0.18 -0.37
40.65 133.80 22.06 0.59 -0.74 -0.32 -0.47
39.73 143.14 11.17 0.92 -0.09 -0.39 0.89
34.52 134.72 14.61 -0.76 -0.59 -0.27 -0.38
34.06 137.32 12.73 -0.12 -0.48 -0.87 -1.14
45.29 136.83 20.55 0.95 0.05 -0.30 0.46
44.04 142.72 15.75 0.26 0.95 -0.16 0.05
46.55 133.91 21.70 0.80 -0.50 -0.33 -0.23
42.22 134.08 22.46 -0.16 -0.94 -0.31 0.04
46.35 140.76 19.00 0.94 -0.12 -0.33 0.33
36.13 133.21 17.68 -0.58 -0.70 -0.43 0.07
40.94 143.28 14.08 0.63 0.76 0.17 0.27
35.73 133.77 16.70 -0.55 -0.82 0.15 0.05
43.32 142.67 14.59 0.27 0.96 0.11 -0.53
45.85 142.61 17.76 0.73 0.23 -0.64 0.30
33.21 135.64 14.43 -0.43 -0.70 -0.58 -1.15
38.94 141.95 9.61 0.55 -0.78 -0.31 0.30
43.36 133.54 22.50 -0.32 -0.94 -0.14 0.30
35.96 139.78 10.06 0.51 -0.49 -0.71 0.64
33.12 136.51 13.53 -0.55 -0.53 -0.65 -1.73
44.04 142.99 16.95 0.10 0.85 -0.51 0.20
40.34 144.52 12.69 0.88 0.38 -0.28 0.73
33.62 138.18 11.99 -0.02 -0.86 -0.51 -0.18
45.76 135.95 20.91 0.78 0.32 -0.54 0.22
44.87 132.60 22.84 -0.20 -0.98 -0.02 0.15
39.69 142.88 10.09 0.97 -0.25 -0.07 0.69
46.62 135.63 21.48 0.79 0.04 -0.61 -0.02
47.34 139.81 20.36 0.65 -0.13 -0.75 -0.00
34.27 134.65 15.62 -0.46 -0.87 -0.19 -0.34
46.17 132.70 22.78 0.40 -0.89 -0.19 0.35
39.80 144.30 11.23 0.95 0.21 -0.21 0.86
35.82 132.11 18.92 -0.46 -0.80 -0.39 -0.70
46.87 140.89 19.83 0.78 -0.10 -0.62 0.04
37.83 131.69 21.16 -0.15 -0.97 0.21 -0.42
34.82 138.78 10.47 0.06 -0.74 -0.67 -0.39
40.07 132.77 22.32 0.43 -0.50 -0.75 -0.90
41.63 133.59 23.15 0.38 -0.71 -0.59 -1.77
34.72 134.40 17.00 -0.39 -0.90 -0.20 0.06
44.02 133.29 23.76 -0.32 -0.86 0.40 0.28
46.02 143.59 18.02 0.80 0.10 -0.59 -0.81
40.90 142.65 15.33 0.32 0.37 0.88 0.61
47.83 138.64 21.28 0.72 -0.46 -0.51 0.07
36.90 131.96 20.67 -0.37 -0.92 0.10 -0.75
32.67 137.75 12.99 -0.30 -0.78 -0.55 -0.74
38.99 131.94 22.50 0.12 -0.89 -0.44 -0.93
42.51 142.51 16.44 -0.47 0.87 0.14 0.35
38.88 142.35 8.64 0.53 -0.83 -0.16 0.37
35.00 133.41 18.58 -0.35 -0.77 -0.53 0.31
42.72 133.39 24.00 0.38 -0.92 0.13 -0.58
32.34 137.12 14.16 -0.28 -0.66 -0.70 -0.93
46.87 137.38 21.71 0.68 -0.32 -0.66 0.55
37.01 141.71 9.32 0.19 -0.93 -0.30 0.38
3 181 191 160
3 178 187 144
3 144 187 143
3 117 92 129
3 122 134 145
3 61 92 87
3 92 117 87
3 117 154 156
3 124 157 125
3 152 120 125
3 120 80 125
3 136 152 175
3 175 170 136
3 184 136 170
3 136 184 193
3 193 169 166
3 115 97 132
3 150 135 103
3 135 172 167
3 103 135 131
3 103 131 96
3 131 160 151
3 144 109 101
3 143 176 138
3 138 104 109
3 137 108 138
3 104 138 108
3 108 81 104
3 185 137 138
3 174 127 137
3 108 137 127
3 174 190 153
3 128 161 141
3 134 141 159
3 168 173 145
3 189 159 194
3 61 34 35
3 61 87 94
3 61 56 34
3 79 44 56
3 79 113 78
3 78 113 114
3 130 94 117
3 117 94 87
3 51 78 75
3 78 114 75
3 58 75 80
3 116 136 98
3 40 48 66
3 70 66 48
3 66 64 40
3 64 66 97
3 126 95 70
3 66 70 95
3 95 97 66
3 97 99 71
3 88 115 86
3 86 115 132
3 103 86 132
3 103 69 86
3 57 96 46
3 57 46 38
3 100 96 151
3 109 74 67
3 68 74 104
3 46 25 38
3 38 25 22
3 43 30 27
3 30 13 27
3 81 77 43
3 77 63 43
3 77 81 102
3 63 77 93
3 102 93 77
3 108 127 102
3 140 171 146
3 177 161 142
3 76 55 54
3 54 65 76
3 35 23 52
3 23 8 10
3 34 19 8
3 44 51 29
3 40 18 14
3 28 14 9
3 14 18 7
3 9 14 7
3 18 6 7
3 6 0 7
3 39 18 33
3 18 40 33
3 33 40 50
3 39 59 37
3 37 57 38
3 6 22 11
3 6 11 3
3 13 5 3
3 13 16 5
3 16 21 5
3 21 15 5
3 15 21 42
3 42 41 60
3 42 60 65
3 36 30 49
3 49 30 63
3 60 49 63
3 60 63 84
3 93 84 63
3 110 107 91
3 107 90 89
3 90 107 121
3 107 146 121
3 121 146 158
3 90 121 111
3 123 111 147
3 142 123 165
3 162 186 147
3 165 147 186
3 192 162 158
3 90 111 76
3 89 90 65
3 24 31 12
3 24 12 15
3 5 4 0
3 0 4 1
3 0 1 2
3 4 10 1
3 2 1 8
3 8 29 20
3 149 188 163
3 129 154 117
3 124 149 163
3 157 124 163
3 160 191 151
3 151 191 179
3 185 138 176
3 145 173 164
3 154 129 164
3 122 129 92
3 145 129 122
3 145 164 129
3 92 83 122
3 83 105 122
3 105 134 122
3 105 83 72
3 72 83 52
3 52 83 92
3 52 92 61
3 114 113 156
3 149 114 156
3 124 114 149
3 120 152 116
3 116 152 136
3 139 193 166
3 193 139 136
3 148 166 126
3 95 126 119
3 132 119 126
3 132 126 166
3 97 119 132
3 169 132 166
3 132 169 150
3 103 132 150
3 151 96 131
3 133 100 151
3 179 144 151
3 151 144 133
3 144 101 100
3 144 100 133
3 74 109 104
3 102 127 93
3 118 93 127
3 118 127 155
3 155 127 153
3 153 127 174
3 140 118 155
3 140 155 180
3 190 180 153
3 153 180 155
3 106 161 128
3 72 47 82
3 72 82 106
3 72 128 105
3 105 128 141
3 105 141 134
3 106 128 72
3 141 194 159
3 35 52 61
3 75 58 51
3 124 75 114
3 120 116 80
3 80 116 98
3 126 98 139
3 148 126 139
3 148 139 166
3 98 136 139
3 32 58 48
3 40 32 48
3 119 97 95
3 45 46 67
3 73 67 46
3 73 46 96
3 100 73 96
3 101 67 100
3 73 100 67
3 25 45 43
3 43 45 68
3 74 68 45
3 74 45 67
3 46 45 25
3 11 22 25
3 11 25 27
3 43 27 25
3 63 30 43
3 146 171 158
3 140 180 171
3 106 142 161
3 76 123 106
3 111 123 76
3 55 76 82
3 82 76 106
3 142 106 123
3 12 31 23
3 12 23 10
3 1 10 8
3 29 8 19
3 29 19 44
3 44 34 56
3 34 44 19
3 28 20 29
3 28 29 58
3 58 29 51
3 14 28 32
3 14 32 40
3 32 28 58
3 6 17 22
3 3 11 13
3 27 13 11
3 0 3 5
3 24 15 42
3 41 42 21
3 49 60 41
3 49 41 36
3 147 165 123
3 192 186 162
3 42 65 53
3 24 42 53
3 24 53 54
3 24 54 55
3 54 53 65
3 6 3 0
3 157 152 125
3 172 135 150
3 167 181 131
3 160 131 181
3 135 167 131
3 144 143 109
3 138 109 143
3 168 134 159
3 168 145 134
3 52 47 72
3 85 94 112
3 113 112 130
3 113 79 112
3 112 79 85
3 85 79 56
3 61 85 56
3 85 61 94
3 112 94 130
3 156 113 130
3 130 117 156
3 78 51 44
3 78 44 79
3 125 80 75
3 125 75 124
3 98 126 70
3 98 70 80
3 70 48 80
3 58 80 48
3 115 99 97
3 115 88 71
3 115 71 99
3 96 69 103
3 69 96 57
3 109 67 101
3 81 68 104
3 81 43 68
3 102 81 108
3 118 140 110
3 110 140 146
3 82 47 55
3 47 52 23
3 34 8 35
3 23 35 8
3 18 17 6
3 17 18 39
3 62 50 71
3 50 62 39
3 50 39 33
3 50 40 64
3 50 64 71
3 64 97 71
3 71 88 62
3 62 59 39
3 59 62 88
3 59 88 86
3 69 59 86
3 59 69 37
3 37 69 57
3 37 38 17
3 17 38 22
3 36 16 26
3 26 30 36
3 36 41 16
3 16 41 21
3 16 13 26
3 30 26 13
3 146 107 110
3 110 91 118
3 118 91 84
3 93 118 84
3 147 121 162
3 121 158 162
3 147 111 121
3 142 165 177
3 65 90 76
3 31 24 55
3 31 55 47
3 23 31 47
3 10 4 12
3 12 4 5
3 12 5 15
3 7 2 9
3 9 8 20
3 7 0 2
3 2 8 9
3 9 20 28
3 39 37 17
3 91 89 60
3 60 84 91
3 89 91 107
3 89 65 60
