ply
format ascii 1.0
comment Generated by MaSIF
element vertex 195
property float x
property float y
property float z
property float nx
property float ny
property float nz
property float charge
element face 340
property list uchar int vertex_indices
end_header
44.92 136.01 13.51 0.84 -0.04 -0.54 -1.12
44.66 134.99 13.99 0.53 -0.60 -0.59 -0.78
44.97 137.09 13.99 0.87 0.16 -0.46 -1.08
43.86 135.58 12.85 0.34 -0.39 -0.85 -1.01
45.28 135.83 14.78 0.84 0.20 -0.50 -0.52
43.46 136.91 12.73 0.54 0.03 -0.84 -0.85
45.10 137.01 15.25 0.95 0.10 -0.29 -0.20
42.88 135.92 12.61 0.40 -0.23 -0.89 -0.37
43.81 134.36 14.73 0.12 -0.78 -0.61 -0.27
44.85 138.13 14.10 0.86 -0.14 -0.48 -0.27
42.89 134.93 13.29 0.35 -0.74 -0.57 -0.28
45.67 134.71 14.99 0.49 -0.31 -0.81 -0.12
45.69 136.36 16.00 0.70 0.32 -0.64 -0.01
43.45 138.10 12.98 0.73 -0.16 -0.67 -0.24
46.57 135.65 16.04 0.58 0.50 -0.64 0.24
42.18 135.35 12.13 0.47 -0.33 -0.82 -0.20
42.07 136.84 12.12 0.45 -0.07 -0.89 -0.10
45.20 139.00 13.76 0.69 -0.51 -0.51 -0.31
42.41 134.27 14.24 0.44 -0.82 -0.37 0.26
46.60 134.40 15.51 0.47 -0.18 -0.87 0.29
45.42 138.94 15.07 0.89 -0.41 -0.19 -0.13
45.54 138.38 16.00 0.86 -0.11 -0.49 -0.18
44.56 133.30 15.50 0.13 -0.76 -0.64 -0.01
41.66 134.54 12.63 0.46 -0.51 -0.73 -0.30
46.37 137.02 16.68 0.79 0.23 -0.57 -1.11
42.31 133.79 15.43 0.19 -0.91 -0.37 0.05
45.92 133.48 16.07 0.29 -0.71 -0.64 0.24
42.85 133.12 16.01 -0.20 -0.82 -0.54 -0.16
43.19 139.21 12.31 0.51 -0.38 -0.77 -0.48
42.19 138.91 11.98 0.21 -0.10 -0.97 -0.26
41.27 137.71 11.57 0.41 0.04 -0.91 -0.18
47.64 134.86 16.02 0.65 0.01 -0.76 0.95
41.11 136.11 11.69 0.20 -0.33 -0.92 -0.20
47.78 135.53 17.21 0.79 0.60 -0.14 0.16
46.99 136.34 17.73 0.86 0.50 0.00 -0.51
46.00 139.95 15.85 0.97 0.05 -0.22 -0.06
46.21 140.42 14.38 0.99 0.01 -0.14 -0.19
45.50 140.61 12.90 0.91 -0.16 -0.39 -1.44
44.28 139.65 12.28 0.38 -0.62 -0.68 -1.30
44.97 132.71 16.81 0.08 -0.96 -0.26 0.25
41.31 133.22 14.30 0.71 -0.71 -0.04 -0.77
46.87 137.26 18.02 0.97 0.11 0.23 -1.18
46.46 138.56 17.35 0.99 0.11 -0.10 -0.61
42.13 133.07 16.93 0.00 -1.00 0.02 -0.19
43.49 132.65 17.00 -0.19 -0.98 0.00 -0.10
40.12 135.06 12.16 -0.04 -0.16 -0.99 -0.38
40.86 133.13 12.34 0.40 -0.59 -0.70 -1.09
41.21 139.79 12.13 0.02 0.22 -0.98 -0.39
47.38 133.22 16.60 0.44 -0.69 -0.57 0.08
40.88 133.21 15.47 0.57 -0.80 -0.20 0.03
48.22 134.15 17.02 0.97 -0.11 -0.21 0.20
46.11 132.58 17.62 0.16 -0.97 -0.16 -0.33
39.87 133.69 11.95 -0.06 -0.16 -0.98 -1.32
39.68 135.91 11.99 -0.32 -0.40 -0.86 -0.23
42.90 140.69 11.48 -0.14 -0.15 -0.98 -1.48
39.94 137.05 10.83 0.01 -0.30 -0.95 -0.17
46.28 136.19 18.93 0.70 0.35 0.63 -0.52
39.50 138.48 10.97 -0.07 0.23 -0.97 -0.13
47.38 135.40 18.84 0.68 0.60 0.42 -0.15
44.14 132.73 17.91 -0.34 -0.92 0.17 0.02
46.38 137.79 18.99 0.96 -0.10 0.26 -0.69
40.85 132.38 13.41 0.50 -0.86 -0.11 -1.29
45.10 142.04 13.91 0.75 0.65 0.07 -0.87
45.32 141.65 15.41 0.76 0.65 -0.01 -0.09
41.62 133.81 18.04 0.46 -0.82 0.34 -0.06
39.93 132.33 14.56 0.36 -0.93 -0.03 -0.69
42.92 133.64 18.04 -0.35 -0.85 0.40 -0.09
46.08 139.06 18.82 0.99 0.07 -0.10 -0.15
44.76 140.94 11.22 0.41 -0.24 -0.88 -2.17
47.61 132.92 17.95 0.54 -0.84 0.04 -0.05
46.05 139.86 18.27 0.99 -0.12 0.08 0.37
48.48 134.45 18.24 0.96 0.21 0.21 0.21
45.56 141.51 17.03 0.76 0.54 -0.37 0.45
45.22 142.28 11.93 0.75 0.55 -0.36 -1.01
46.39 140.80 17.64 0.98 0.12 -0.18 0.10
40.45 132.15 16.17 0.52 -0.82 -0.26 -1.38
46.16 132.90 19.05 0.32 -0.86 0.40 -0.66
40.20 140.83 12.39 0.34 -0.08 -0.94 -0.17
39.40 132.36 13.05 -0.13 -0.88 -0.46 -1.40
42.52 142.03 11.95 -0.39 0.48 -0.78 -2.17
44.93 132.56 18.99 -0.07 -0.98 0.18 -1.03
38.58 133.40 12.66 -0.28 -0.51 -0.81 -0.72
45.97 135.53 19.58 0.68 0.59 0.44 -0.85
38.50 137.21 11.52 -0.54 -0.31 -0.78 -0.21
45.44 136.71 19.69 0.93 0.13 0.33 -0.33
43.54 142.36 11.49 -0.14 0.62 -0.77 -1.80
41.38 141.80 12.24 -0.03 0.26 -0.96 -1.59
39.25 139.73 11.61 0.13 0.04 -0.99 -0.06
38.01 134.52 12.66 -0.21 -0.04 -0.98 -0.23
38.26 135.55 12.78 -0.12 -0.11 -0.99 -0.47
38.09 136.47 12.43 -0.32 -0.34 -0.88 -0.50
47.77 133.57 19.19 0.75 -0.43 0.50 0.88
41.90 134.13 19.15 0.32 -0.91 0.27 -0.28
44.53 142.77 12.93 0.33 0.95 -0.01 -1.18
38.70 132.32 13.81 -0.12 -0.89 -0.44 -0.38
37.87 138.58 11.93 -0.42 -0.10 -0.90 -0.15
46.49 138.57 20.25 0.79 -0.36 -0.50 0.03
44.29 142.68 15.97 0.28 0.95 -0.13 0.05
46.48 140.61 19.24 0.94 -0.13 -0.31 0.33
46.64 134.73 20.43 0.96 0.16 0.22 -0.17
40.75 131.89 17.53 0.68 -0.71 0.17 -2.00
43.02 134.08 19.43 -0.38 -0.91 0.15 -0.53
40.61 132.84 18.64 0.68 -0.65 0.32 -0.45
45.54 137.63 20.62 0.83 -0.46 -0.31 0.36
43.59 142.67 14.80 0.29 0.95 0.13 -0.53
46.05 142.49 18.02 0.75 0.23 -0.62 0.30
37.41 133.17 12.93 -0.10 -0.59 -0.80 -0.23
39.23 141.05 11.42 0.44 -0.37 -0.82 -0.00
42.52 142.99 13.12 0.02 0.93 -0.37 -1.44
45.30 136.68 20.69 0.96 0.04 -0.28 0.46
45.47 133.15 20.36 0.29 -0.95 0.10 -0.89
44.27 142.93 17.18 0.13 0.86 -0.49 0.20
38.65 131.68 15.88 -0.23 -0.97 -0.09 -0.53
40.40 142.29 11.81 0.65 -0.17 -0.74 -0.07
43.91 133.38 20.11 -0.46 -0.89 0.06 -1.30
37.13 135.38 12.52 -0.01 -0.01 -1.00 -0.87
39.12 131.17 17.24 -0.11 -0.99 -0.08 -1.51
37.84 131.84 14.90 -0.13 -0.96 -0.24 -0.24
37.14 137.37 12.82 -0.30 -0.20 -0.93 -0.47
41.19 143.21 12.92 0.68 0.48 -0.55 -0.18
37.04 139.08 11.87 0.18 -0.58 -0.79 -0.07
45.75 135.79 21.04 0.80 0.31 -0.52 0.22
46.98 140.72 20.08 0.79 -0.10 -0.60 0.04
42.00 134.42 20.52 0.01 -1.00 -0.01 0.11
46.24 143.47 18.31 0.82 0.09 -0.57 -0.81
47.43 139.62 20.60 0.66 -0.13 -0.74 -0.00
40.93 133.99 20.37 0.57 -0.81 0.16 -0.24
42.74 142.49 16.63 -0.46 0.88 0.14 0.35
39.21 141.83 10.63 0.65 -0.64 -0.42 0.27
36.76 132.58 14.10 -0.39 -0.90 -0.18 -0.22
37.18 140.23 11.20 0.41 -0.39 -0.83 0.15
46.59 135.44 21.63 0.80 0.04 -0.60 -0.02
35.99 135.46 12.84 -0.32 0.05 -0.94 -0.37
37.65 132.39 16.39 -0.60 -0.80 0.04 -0.28
40.08 143.28 11.31 0.92 -0.10 -0.37 0.89
46.69 142.40 19.41 0.91 0.11 -0.39 0.06
36.19 134.00 12.48 -0.38 -0.22 -0.90 -0.28
39.99 132.76 20.14 0.72 -0.67 0.21 -0.23
45.36 133.01 21.58 0.18 -0.92 -0.34 0.06
42.94 142.27 17.59 -0.69 0.71 -0.13 0.74
47.87 138.42 21.51 0.72 -0.47 -0.51 0.07
39.32 131.54 18.57 0.35 -0.91 0.24 -0.73
46.48 133.71 21.81 0.80 -0.51 -0.32 -0.23
35.87 133.07 13.58 -0.55 -0.74 -0.39 -0.26
42.08 142.31 15.84 -0.32 0.82 0.47 -0.03
37.68 141.21 11.04 0.38 -0.67 -0.63 0.21
36.85 132.68 15.65 -0.50 -0.84 0.20 -0.23
41.24 143.34 14.25 0.64 0.74 0.20 0.27
44.59 144.06 17.89 -0.09 0.43 -0.90 -1.14
38.00 131.92 17.87 -0.44 -0.88 -0.17 -0.47
46.88 137.18 21.90 0.68 -0.32 -0.66 0.55
43.98 133.15 21.73 -0.33 -0.93 -0.15 0.46
35.60 137.06 12.88 -0.04 -0.18 -0.98 -0.50
40.69 144.62 12.87 0.89 0.37 -0.26 0.73
46.13 144.69 18.54 0.62 0.54 -0.57 -1.16
47.71 141.56 21.13 0.90 0.34 -0.26 -0.07
39.30 142.13 9.71 0.54 -0.79 -0.31 0.30
35.65 138.17 12.57 0.09 -0.62 -0.78 -0.53
46.66 144.02 19.58 0.97 0.25 0.04 -0.90
35.51 138.50 11.61 0.23 -0.86 -0.45 0.12
41.38 134.28 21.79 0.26 -0.93 -0.25 -0.13
35.40 134.28 13.25 -0.76 -0.29 -0.59 -0.34
36.96 132.99 16.93 -0.56 -0.81 -0.15 0.14
40.18 144.44 11.40 0.96 0.19 -0.19 0.86
47.17 136.23 22.27 0.78 0.01 -0.62 -0.40
35.22 133.56 14.36 -0.81 -0.56 -0.15 -0.27
40.06 143.04 10.23 0.96 -0.27 -0.06 0.69
46.62 143.33 20.32 0.93 0.37 -0.04 -0.23
48.66 140.22 21.65 0.95 0.13 -0.29 -0.07
48.05 138.12 22.74 0.90 -0.44 0.02 0.20
34.74 135.71 13.26 -0.44 -0.41 -0.80 -0.81
35.84 133.08 15.24 -0.55 -0.82 0.18 -0.21
48.60 139.02 22.64 0.95 -0.30 0.09 -0.01
42.73 142.54 18.76 -0.81 0.34 -0.47 0.75
41.98 141.23 17.51 -0.62 0.76 0.19 0.82
36.27 140.02 10.06 0.51 -0.49 -0.71 0.64
37.26 131.80 18.74 -0.33 -0.93 -0.18 -0.87
39.12 131.97 21.03 0.48 -0.86 0.17 -0.37
41.16 142.69 15.49 0.30 0.34 0.89 0.61
40.57 133.73 22.04 0.59 -0.74 -0.32 -0.47
44.75 132.42 22.90 -0.22 -0.97 -0.04 0.15
47.69 135.29 22.75 0.81 -0.11 -0.57 -0.02
46.05 132.50 22.86 0.39 -0.90 -0.20 0.35
38.58 131.20 19.82 0.08 -0.99 0.06 -0.33
43.27 133.39 22.54 -0.34 -0.93 -0.17 0.30
42.14 133.96 22.48 -0.17 -0.93 -0.33 0.04
43.68 145.04 18.38 -0.03 0.10 -0.99 -0.12
47.29 142.52 21.21 0.86 0.50 -0.10 -0.07
41.91 141.27 18.56 -0.68 0.71 -0.17 0.03
46.12 145.01 19.79 0.73 0.67 0.14 -1.29
41.25 141.08 16.59 -0.47 0.83 0.31 0.79
47.89 137.19 23.15 0.96 -0.01 -0.28 0.68
39.28 142.55 8.76 0.52 -0.84 -0.17 0.37
47.57 134.19 23.28 0.87 -0.44 -0.21 0.16
40.64 141.55 15.24 -0.11 0.16 0.98 0.52
3 148 124 105
3 105 124 135
3 158 167 124
3 135 124 167
3 167 187 135
3 191 164 150
3 169 191 150
3 131 181 193
3 108 86 119
3 113 128 134
3 54 86 79
3 86 108 79
3 108 147 104
3 104 147 144
3 104 144 97
3 72 105 74
3 98 70 74
3 70 42 74
3 96 98 122
3 105 135 98
3 122 98 135
3 125 122 155
3 155 168 125
3 122 125 96
3 140 96 125
3 96 140 150
3 140 169 150
3 150 131 121
3 91 58 99
3 131 193 142
3 142 138 110
3 138 182 180
3 110 138 151
3 110 151 114
3 151 184 185
3 179 137 126
3 183 141 137
3 176 149 183
3 141 183 149
3 149 116 141
3 149 176 162
3 130 175 145
3 128 145 156
3 166 163 134
3 54 28 29
3 54 79 85
3 54 38 28
3 37 17 38
3 37 62 36
3 36 62 63
3 93 85 108
3 108 85 79
3 20 36 35
3 36 63 35
3 21 35 42
3 67 96 60
3 14 24 34
3 41 34 24
3 34 33 14
3 33 34 58
3 84 56 41
3 34 41 56
3 56 58 34
3 58 71 50
3 69 91 76
3 76 91 99
3 110 76 99
3 110 80 76
3 59 114 66
3 59 66 44
3 123 114 185
3 137 102 92
3 100 102 141
3 66 43 44
3 44 43 27
3 75 65 49
3 65 40 49
3 116 112 75
3 112 117 75
3 112 116 133
3 117 112 146
3 133 146 112
3 149 162 133
3 118 83 90
3 90 115 118
3 29 30 47
3 30 5 16
3 28 13 5
3 17 20 9
3 14 11 4
3 6 4 0
3 4 11 1
3 0 4 1
3 11 8 1
3 8 10 1
3 26 11 19
3 11 14 19
3 19 14 31
3 26 51 39
3 39 59 44
3 8 27 25
3 8 25 18
3 40 23 18
3 40 46 23
3 46 52 23
3 52 45 23
3 45 52 88
3 88 81 106
3 88 106 115
3 78 65 94
3 94 65 117
3 106 94 117
3 106 117 129
3 146 129 117
3 165 161 143
3 161 132 136
3 132 161 170
3 132 170 152
3 132 152 118
3 136 132 115
3 53 55 32
3 53 32 45
3 23 15 10
3 10 15 7
3 10 7 3
3 15 16 7
3 3 7 5
3 5 9 2
3 97 127 111
3 111 127 139
3 111 139 148
3 148 139 173
3 174 127 144
3 139 174 188
3 174 144 190
3 188 173 139
3 119 147 108
3 147 178 144
3 190 144 194
3 178 194 144
3 72 97 111
3 105 72 111
3 105 111 148
3 134 163 153
3 147 119 153
3 113 119 86
3 134 119 113
3 134 153 119
3 86 77 113
3 77 107 113
3 107 128 113
3 107 77 87
3 87 77 47
3 47 77 86
3 47 86 54
3 63 62 104
3 97 63 104
3 72 63 97
3 70 98 67
3 67 98 96
3 103 150 121
3 150 103 96
3 109 121 84
3 56 84 82
3 99 82 84
3 99 84 121
3 58 82 99
3 131 99 121
3 99 131 142
3 110 99 142
3 185 114 151
3 160 123 185
3 185 179 160
3 179 126 123
3 179 123 160
3 102 137 141
3 133 162 146
3 171 146 162
3 120 175 130
3 87 57 95
3 87 95 120
3 87 130 107
3 107 130 145
3 107 145 128
3 120 130 87
3 29 47 54
3 35 21 20
3 72 35 63
3 70 67 42
3 42 67 60
3 84 60 103
3 109 84 103
3 109 103 121
3 60 96 103
3 12 21 24
3 14 12 24
3 82 58 56
3 64 66 92
3 101 92 66
3 101 66 114
3 123 101 114
3 126 92 123
3 101 123 92
3 43 64 75
3 75 64 100
3 102 100 64
3 102 64 92
3 66 64 43
3 25 27 43
3 25 43 49
3 75 49 43
3 117 65 75
3 120 159 175
3 118 157 120
3 152 157 118
3 83 118 95
3 95 118 120
3 159 120 157
3 32 55 30
3 32 30 16
3 7 16 5
3 9 5 13
3 9 13 17
3 17 28 38
3 28 17 13
3 6 2 9
3 6 9 21
3 21 9 20
3 4 6 12
3 4 12 14
3 12 6 21
3 8 22 27
3 18 25 40
3 49 40 25
3 10 18 23
3 53 45 88
3 81 88 52
3 94 106 81
3 94 81 78
3 88 115 89
3 53 88 89
3 53 89 90
3 53 90 83
3 90 89 115
3 8 18 10
3 139 127 174
3 124 154 158
3 158 154 189
3 154 124 148
3 127 97 144
3 105 98 74
3 122 135 155
3 187 155 135
3 168 172 140
3 168 140 125
3 172 169 140
3 182 138 142
3 182 142 193
3 138 180 151
3 179 177 137
3 183 137 177
3 166 128 156
3 166 134 128
3 47 57 87
3 68 85 73
3 62 73 93
3 62 37 73
3 73 37 68
3 68 37 38
3 54 68 38
3 68 54 85
3 73 85 93
3 104 62 93
3 93 108 104
3 36 20 17
3 36 17 37
3 74 42 35
3 74 35 72
3 60 84 41
3 60 41 42
3 41 24 42
3 21 42 24
3 91 71 58
3 91 69 50
3 91 50 71
3 114 80 110
3 80 114 59
3 137 92 126
3 116 100 141
3 116 75 100
3 133 116 149
3 95 57 83
3 57 47 30
3 28 5 29
3 30 29 5
3 11 22 8
3 22 11 26
3 48 31 50
3 31 48 26
3 31 26 19
3 31 14 33
3 31 33 50
3 33 58 50
3 50 69 48
3 48 51 26
3 51 48 69
3 51 69 76
3 80 51 76
3 51 80 39
3 39 80 59
3 39 44 22
3 22 44 27
3 78 46 61
3 61 65 78
3 78 81 46
3 46 81 52
3 46 40 61
3 65 61 40
3 165 143 171
3 171 143 129
3 146 171 129
3 115 132 118
3 55 53 83
3 55 83 57
3 30 55 57
3 16 15 32
3 32 15 23
3 32 23 45
3 1 3 0
3 0 5 2
3 1 10 3
3 3 5 0
3 0 2 6
3 26 39 22
3 143 136 106
3 106 129 143
3 136 143 161
3 136 115 106
3 131 150 164
3 131 164 181
