ply
format ascii 1.0
comment Generated by MaSIF
element vertex 182
property float x
property float y
property float z
property float nx
property float ny
property float nz
property float charge
element face 318
property list uchar int vertex_indices
end_header
42.48 132.95 14.30 0.85 -0.37 -0.37 -1.40
41.74 131.97 14.78 0.42 -0.90 0.07 -1.56
42.15 133.75 13.37 0.89 -0.30 -0.35 -1.82
42.81 133.25 15.94 0.65 -0.74 -0.19 -0.31
40.91 132.01 13.64 0.28 -0.92 -0.26 -1.47
42.36 134.72 14.00 0.95 -0.30 -0.11 -1.44
40.65 132.46 15.99 0.20 -0.86 0.47 -1.62
41.76 133.54 11.90 0.73 -0.44 -0.52 -2.01
42.82 135.30 13.49 0.71 -0.70 0.02 -0.46
41.40 133.41 16.60 0.05 -0.86 0.50 -0.78
42.43 135.18 15.11 0.81 -0.44 -0.38 -0.70
40.46 132.48 12.35 -0.05 -0.79 -0.61 -1.40
42.37 134.85 12.64 0.79 -0.58 -0.19 -1.02
42.87 133.43 17.70 -0.24 -0.95 0.21 -0.16
44.37 134.06 16.20 0.29 -0.41 -0.86 -0.21
39.42 132.09 14.83 0.00 -0.99 -0.14 -0.90
38.72 132.50 13.43 -0.30 -0.89 -0.34 -0.60
43.51 136.08 14.94 0.71 -0.69 -0.18 0.38
44.42 132.93 17.30 0.05 -0.97 -0.26 -0.24
43.57 135.53 15.75 0.40 -0.34 -0.85 0.33
41.56 134.96 11.44 0.14 -0.15 -0.98 -0.83
40.58 133.77 17.25 0.09 -0.87 0.48 -0.44
43.24 135.58 12.10 0.59 -0.70 -0.40 -0.13
44.02 136.35 12.73 0.83 -0.54 -0.12 0.00
39.89 134.06 11.24 -0.22 -0.17 -0.96 -1.72
42.06 133.88 18.40 -0.27 -0.94 0.22 0.01
38.97 133.06 12.43 -0.35 -0.59 -0.73 -1.07
43.72 133.32 18.75 -0.23 -0.93 0.28 -0.27
45.36 133.60 16.84 0.25 -0.63 -0.74 -0.52
38.60 131.78 15.65 -0.08 -1.00 -0.03 -0.23
38.20 132.37 14.37 -0.33 -0.89 -0.32 -0.40
45.17 135.25 16.04 0.39 -0.10 -0.91 -0.11
37.96 133.18 12.65 -0.44 -0.58 -0.68 -0.29
38.52 132.74 17.40 0.42 -0.86 0.28 0.26
43.66 136.59 11.37 0.61 -0.35 -0.72 0.03
39.64 133.83 17.97 0.39 -0.90 0.20 -0.23
40.50 135.97 11.86 -0.52 0.14 -0.84 -0.77
44.56 137.28 15.57 0.96 -0.19 -0.22 0.51
44.65 137.08 14.16 0.92 -0.38 -0.05 0.12
39.87 135.15 11.72 -0.36 0.43 -0.83 -1.81
40.96 134.12 18.47 0.05 -0.98 0.17 -0.48
44.99 136.49 16.09 0.68 0.03 -0.73 0.29
44.46 137.47 13.09 0.96 -0.20 -0.18 0.18
37.08 133.15 14.36 -0.58 -0.69 -0.43 -0.20
45.84 132.93 18.66 -0.02 -1.00 0.08 -1.84
42.16 136.83 11.08 0.08 -0.06 -1.00 -0.03
41.39 134.27 19.45 -0.04 -0.99 0.09 -0.12
38.59 134.49 12.17 -0.42 0.15 -0.90 -0.66
37.44 132.03 16.09 -0.20 -0.98 -0.04 -0.13
46.37 134.58 16.76 0.41 -0.08 -0.91 -1.41
42.84 133.76 19.79 -0.09 -0.95 0.28 -0.09
43.94 134.03 20.10 -0.13 -0.87 0.47 -0.67
37.21 134.26 12.71 -0.67 -0.08 -0.74 -0.16
46.84 133.34 17.29 0.29 -0.69 -0.66 -1.17
44.42 138.15 12.09 0.79 -0.17 -0.59 0.96
39.73 133.83 19.04 0.50 -0.87 -0.05 -1.11
40.55 137.42 11.57 -0.59 0.15 -0.79 -0.01
37.24 132.22 17.20 0.15 -0.98 -0.13 0.07
44.87 137.95 16.58 0.81 -0.12 -0.57 0.80
46.70 135.67 17.33 0.58 0.38 -0.72 -1.15
44.80 138.63 15.62 0.95 -0.10 -0.28 0.55
44.72 138.50 14.27 1.00 0.06 -0.02 0.17
39.54 136.41 12.89 -0.55 0.44 -0.70 -0.45
45.48 137.34 17.09 0.77 0.11 -0.63 0.29
38.01 132.43 18.91 0.54 -0.80 -0.28 -0.06
45.29 133.74 20.61 -0.14 -0.84 0.52 -1.01
40.41 134.14 20.05 0.46 -0.88 -0.11 -0.81
38.03 135.54 12.83 -0.44 0.47 -0.76 -0.28
42.76 134.21 20.84 0.17 -0.98 0.13 0.03
47.52 133.10 18.42 0.58 -0.76 -0.30 -1.25
36.18 132.76 15.77 -0.32 -0.76 -0.57 -0.44
44.85 139.33 12.96 0.99 0.11 -0.10 0.71
47.79 134.32 17.45 0.68 -0.10 -0.73 -1.76
43.02 138.27 11.30 0.09 0.08 -0.99 0.49
36.18 134.84 14.16 -0.72 0.05 -0.69 -0.15
41.29 134.28 21.05 0.10 -0.98 -0.16 0.01
36.87 131.83 18.58 0.18 -0.97 -0.17 -0.27
44.15 139.37 11.41 0.56 0.23 -0.79 0.68
41.79 138.69 11.58 -0.40 0.43 -0.81 0.09
44.03 134.73 21.47 0.10 -0.87 0.48 -0.13
39.51 133.23 20.07 0.73 -0.62 -0.28 0.03
45.71 138.35 16.91 0.51 -0.46 -0.73 0.42
47.06 133.80 20.42 -0.15 -0.81 0.56 -0.88
35.21 134.11 15.41 -0.76 -0.19 -0.63 -0.33
46.05 137.76 17.83 0.64 -0.36 -0.68 0.55
45.33 139.60 16.09 0.62 0.04 -0.78 0.54
44.37 139.97 15.08 0.79 0.47 -0.39 1.49
40.33 138.47 12.94 -0.69 0.40 -0.60 0.07
46.31 136.82 18.16 0.57 0.26 -0.78 -0.23
40.22 133.70 21.18 0.59 -0.73 -0.33 0.00
35.36 131.96 16.70 -0.25 -0.87 -0.42 -1.96
44.20 140.22 14.14 0.79 0.60 0.12 -0.13
38.84 137.13 14.07 -0.31 0.32 -0.89 -0.08
42.05 134.00 21.77 0.27 -0.95 -0.13 0.17
48.05 133.15 20.13 -0.20 -0.98 -0.01 0.13
35.85 135.66 14.60 -0.65 -0.03 -0.76 -0.20
44.30 140.41 12.62 0.60 0.77 -0.23 0.59
37.63 136.46 13.80 -0.36 0.39 -0.85 0.06
36.91 131.41 19.61 0.01 -0.98 -0.22 -0.12
47.60 136.64 18.46 0.28 0.28 -0.92 -0.21
34.89 133.27 15.91 -0.63 -0.28 -0.73 -1.24
42.93 134.35 22.30 0.47 -0.87 0.13 0.20
35.64 131.89 19.02 -0.22 -0.97 -0.14 -0.51
48.42 135.22 18.52 0.46 -0.08 -0.89 -0.45
41.34 133.57 22.42 0.49 -0.83 -0.26 0.17
46.88 138.25 18.15 0.60 -0.40 -0.69 0.30
42.94 140.42 12.07 -0.24 0.72 -0.65 0.09
41.40 139.57 12.79 -0.57 0.58 -0.58 -0.38
46.90 138.85 17.24 0.71 -0.51 -0.49 0.17
43.58 135.04 22.84 0.39 -0.91 0.16 0.06
45.46 135.25 22.06 -0.01 -0.86 0.51 0.33
34.88 132.07 17.85 -0.55 -0.81 -0.17 -1.61
47.41 134.32 21.71 -0.42 -0.77 0.49 0.39
37.34 131.17 20.93 0.01 -0.91 -0.40 -0.04
46.71 139.64 16.44 0.56 -0.15 -0.81 0.21
35.08 135.56 15.84 -0.86 -0.15 -0.50 -0.72
45.52 141.04 16.56 0.60 0.19 -0.78 1.07
44.33 141.11 15.76 0.67 0.16 -0.73 0.92
34.70 134.95 16.64 -0.75 -0.04 -0.66 -1.84
47.28 137.57 18.59 0.33 -0.12 -0.94 0.67
42.99 140.91 13.94 0.19 0.97 -0.11 -0.15
39.49 132.37 21.74 0.81 -0.52 -0.26 0.15
37.06 137.23 13.95 0.04 -0.19 -0.98 0.20
34.14 133.20 16.80 -0.85 -0.26 -0.45 -1.26
38.72 131.24 21.20 0.56 -0.72 -0.42 0.29
39.85 139.50 13.94 -0.46 0.57 -0.68 0.13
48.34 133.31 21.42 -0.65 -0.74 0.16 1.13
39.34 138.52 14.07 -0.36 0.17 -0.92 0.01
38.35 138.37 14.20 0.03 -0.05 -1.00 0.18
43.63 141.52 15.10 0.58 0.06 -0.82 0.67
35.16 136.83 14.87 -0.72 -0.42 -0.55 -0.17
40.26 132.91 22.53 0.59 -0.73 -0.34 0.32
34.16 132.30 18.88 -0.44 -0.84 -0.32 -0.98
35.17 131.81 20.47 -0.23 -0.97 0.04 -0.88
41.89 140.45 13.47 -0.41 0.79 -0.45 -0.67
49.51 132.61 20.72 -0.45 -0.87 -0.20 0.39
47.88 138.92 18.31 0.36 -0.28 -0.89 0.18
49.82 133.26 19.47 -0.32 -0.63 -0.71 0.77
35.88 131.71 21.15 -0.52 -0.84 -0.16 -0.33
49.67 134.62 18.78 0.00 -0.08 -1.00 0.81
40.95 133.16 23.65 0.66 -0.64 -0.39 0.56
49.65 136.18 19.03 0.44 0.21 -0.87 0.74
42.07 141.11 14.49 -0.01 0.53 -0.85 0.59
45.84 141.85 17.19 0.62 0.29 -0.73 0.91
33.99 134.82 17.26 -0.58 -0.19 -0.79 -4.21
41.78 133.94 23.90 0.68 -0.73 -0.08 0.08
44.93 141.89 16.14 0.70 0.16 -0.70 0.86
47.34 140.38 17.59 0.63 0.14 -0.76 0.00
48.88 138.24 18.80 0.47 0.04 -0.88 0.25
46.72 135.13 22.36 -0.32 -0.78 0.53 0.41
48.01 134.37 22.85 -0.57 -0.55 0.61 0.53
45.62 135.74 23.40 0.26 -0.85 0.46 0.41
37.63 130.46 22.03 0.02 -0.90 -0.44 0.30
43.04 134.82 24.35 0.40 -0.91 -0.07 -0.38
33.85 133.76 17.72 -0.75 -0.47 -0.47 -2.10
44.57 135.25 24.08 0.48 -0.87 -0.11 -0.34
43.15 142.35 14.72 0.43 0.09 -0.90 0.40
48.90 132.68 22.37 -0.62 -0.71 0.34 1.78
41.01 140.29 14.14 -0.41 0.68 -0.61 -0.04
37.86 139.50 13.93 0.43 0.06 -0.90 0.27
39.90 132.29 23.57 0.70 -0.62 -0.35 0.74
39.12 130.99 22.69 0.73 -0.65 -0.23 0.21
35.57 137.65 13.52 -0.32 -0.59 -0.74 0.00
34.46 137.80 15.91 -0.99 -0.09 -0.07 -0.50
50.48 131.97 20.71 -0.45 -0.85 -0.26 0.19
34.39 138.01 14.89 -0.72 -0.69 -0.13 -0.19
40.26 140.66 15.03 -0.20 0.51 -0.84 -0.09
33.12 132.67 19.63 -0.73 -0.62 -0.31 -1.06
33.31 135.85 17.19 -0.31 -0.15 -0.94 -9.75
34.09 137.05 16.73 -0.78 0.16 -0.60 -2.09
36.60 138.73 13.09 0.27 -0.20 -0.94 0.16
33.75 131.89 20.29 -0.45 -0.89 0.08 -1.95
50.66 134.03 18.65 -0.19 -0.11 -0.98 0.37
39.06 140.76 14.93 0.18 0.34 -0.92 0.09
33.05 134.40 17.63 -0.33 -0.59 -0.74 -7.40
41.21 141.75 15.07 -0.38 0.26 -0.89 0.84
49.02 134.28 23.37 -0.18 -0.19 0.96 1.10
48.67 140.27 18.37 0.59 0.09 -0.80 -0.89
47.31 135.69 23.22 -0.21 -0.49 0.85 0.39
33.22 133.79 18.59 -0.63 -0.60 -0.49 -2.09
50.96 135.57 19.09 0.41 0.55 -0.73 0.34
44.68 143.08 16.60 0.75 0.23 -0.62 0.84
3 155 109 151
3 176 150 157
3 82 112 79
3 149 178 151
3 151 109 110
3 104 93 145
3 145 140 104
3 140 160 104
3 104 160 131
3 147 177 136
3 157 126 135
3 94 126 112
3 126 94 135
3 137 103 139
3 103 69 72
3 103 137 94
3 94 69 103
3 69 94 44
3 82 44 94
3 94 112 82
3 101 93 68
3 68 93 75
3 68 75 50
3 75 93 104
3 89 75 104
3 124 121 161
3 124 80 121
3 64 113 98
3 138 98 113
3 132 102 133
3 98 133 102
3 132 179 111
3 143 147 116
3 143 116 146
3 147 85 116
3 108 105 84
3 108 147 105
3 147 136 105
3 119 105 136
3 119 136 148
3 139 172 137
3 49 31 59
3 41 59 31
3 49 53 28
3 31 49 28
3 28 53 44
3 44 18 28
3 27 65 51
3 50 25 27
3 50 46 25
3 55 46 66
3 66 80 55
3 33 64 76
3 102 111 76
3 76 90 57
3 57 90 70
3 57 70 48
3 48 70 43
3 70 100 83
3 100 118 83
3 118 123 144
3 144 123 154
3 144 154 174
3 123 111 154
3 174 154 179
3 168 169 118
3 120 86 91
3 61 38 42
3 61 42 71
3 71 42 54
3 42 38 23
3 23 38 17
3 23 17 8
3 17 38 37
3 17 37 41
3 38 61 37
3 14 18 3
3 18 13 3
3 25 40 21
3 48 33 57
3 33 29 6
3 6 29 15
3 6 15 4
3 29 30 15
3 30 16 15
3 30 43 16
3 43 74 52
3 52 74 67
3 122 95 130
3 83 115 95
3 115 169 130
3 130 169 163
3 130 163 165
3 158 134 125
3 107 125 134
3 87 107 78
3 78 106 73
3 78 73 45
3 73 77 54
3 73 54 45
3 45 54 34
3 34 54 23
3 23 54 42
3 20 45 22
3 20 22 12
3 12 7 20
3 22 8 12
3 0 5 3
3 0 4 2
3 2 4 7
3 7 4 11
3 32 26 16
3 32 47 26
3 26 47 24
3 24 47 39
3 47 62 39
3 122 162 170
3 166 175 158
3 159 127 128
3 127 125 87
3 56 62 87
3 36 56 20
3 20 39 36
3 6 3 9
3 21 9 13
3 139 141 180
3 139 180 172
3 155 153 109
3 109 153 101
3 126 157 150
3 126 150 112
3 151 110 149
3 112 149 110
3 112 110 79
3 79 109 101
3 109 79 110
3 131 160 121
3 121 160 161
3 148 136 177
3 50 79 68
3 68 79 101
3 50 51 79
3 79 51 65
3 46 50 75
3 46 75 66
3 66 89 80
3 89 66 75
3 89 121 80
3 89 131 121
3 64 80 124
3 64 124 113
3 133 98 138
3 111 102 132
3 179 154 111
3 117 85 86
3 85 117 116
3 116 117 146
3 86 60 61
3 85 60 86
3 37 60 58
3 41 37 58
3 63 41 58
3 63 58 81
3 85 81 58
3 85 58 60
3 60 37 61
3 41 63 59
3 88 59 63
3 84 88 63
3 84 63 81
3 84 81 108
3 88 84 119
3 119 84 105
3 137 164 135
3 141 139 103
3 50 27 51
3 40 25 46
3 40 46 55
3 55 80 64
3 83 43 70
3 115 83 118
3 168 118 144
3 86 120 142
3 86 142 129
3 129 142 156
3 117 86 129
3 146 117 129
3 146 129 156
3 61 71 91
3 61 91 86
3 17 41 19
3 19 41 31
3 19 31 14
3 3 5 10
3 3 10 19
3 3 19 14
3 17 19 10
3 10 5 17
3 8 17 5
3 9 3 13
3 25 13 27
3 21 40 35
3 35 40 55
3 33 21 35
3 33 35 55
3 33 55 64
3 97 67 74
3 97 74 95
3 97 95 122
3 115 130 95
3 142 120 134
3 158 142 134
3 87 125 107
3 2 7 5
3 5 7 12
3 5 12 8
3 0 2 5
3 36 62 56
3 62 36 39
3 173 166 125
3 125 166 158
3 142 158 175
3 159 173 127
3 127 173 125
3 128 127 92
3 97 92 62
3 87 62 92
3 87 92 127
3 159 128 122
3 122 128 92
3 122 92 97
3 21 33 6
3 21 6 9
3 59 88 99
3 99 88 119
3 149 150 178
3 150 149 112
3 153 145 101
3 93 101 145
3 137 135 94
3 79 65 82
3 104 131 89
3 113 124 152
3 161 152 124
3 113 152 138
3 167 179 132
3 167 132 171
3 132 133 171
3 108 114 147
3 147 114 85
3 85 114 81
3 81 114 108
3 53 69 44
3 53 49 72
3 59 72 49
3 59 103 72
3 72 69 53
3 65 44 82
3 27 18 44
3 27 44 65
3 64 98 76
3 102 76 98
3 90 111 123
3 100 90 123
3 90 100 70
3 76 111 90
3 100 123 118
3 174 168 144
3 14 31 28
3 28 18 14
3 18 27 13
3 33 76 57
3 48 43 29
3 30 29 43
3 48 29 33
3 74 83 95
3 83 74 43
3 169 115 118
3 91 71 96
3 91 96 120
3 96 106 120
3 106 134 120
3 134 106 107
3 107 106 78
3 73 106 77
3 77 96 71
3 77 71 54
3 77 106 96
3 34 23 22
3 22 45 34
3 23 8 22
3 4 1 6
3 1 4 0
3 0 3 1
3 3 6 1
3 25 21 13
3 15 16 4
3 4 16 11
3 11 16 26
3 52 32 43
3 52 67 47
3 52 47 32
3 32 16 43
3 47 67 62
3 130 165 162
3 122 130 162
3 56 78 45
3 56 87 78
3 56 45 20
3 24 7 11
3 24 11 26
3 24 39 20
3 24 20 7
3 67 97 62
3 122 170 159
3 59 99 103
3 148 103 99
3 148 99 119
