ply
format ascii 1.0
comment Generated by MaSIF
element vertex 183
property float x
property float y
property float z
property float nx
property float ny
property float nz
property float charge
element face 316
property list uchar int vertex_indices
end_header
47.08 135.64 15.35 0.70 0.18 -0.69 -0.52
47.03 134.39 15.76 0.70 -0.59 -0.41 -0.52
47.53 135.30 16.59 1.00 -0.01 -0.08 0.20
45.50 136.11 14.82 0.42 0.35 -0.84 -0.61
46.84 136.78 16.99 0.82 0.53 -0.23 0.87
45.30 134.23 14.92 0.30 -0.44 -0.85 -0.53
47.39 135.69 17.66 0.91 -0.05 0.42 1.01
47.01 134.33 17.23 0.68 -0.67 0.29 0.36
45.63 133.54 16.12 0.35 -0.93 -0.13 -0.49
45.45 137.28 15.80 0.67 0.40 -0.63 0.23
44.01 135.37 14.39 0.42 -0.28 -0.86 -0.02
46.18 137.91 17.65 0.84 0.37 -0.39 0.27
46.68 135.52 18.63 0.91 -0.28 0.30 0.49
46.26 134.61 18.23 0.62 -0.61 0.49 0.77
44.10 137.28 14.83 0.62 0.21 -0.76 -0.02
46.96 137.21 18.87 0.98 0.19 -0.05 -0.83
43.90 133.23 15.47 0.01 -0.93 -0.37 0.01
45.51 138.23 16.67 0.90 -0.01 -0.44 0.51
45.17 133.69 17.82 0.35 -0.90 0.26 0.14
44.97 138.10 15.50 0.67 -0.17 -0.72 0.24
44.20 133.31 17.01 -0.02 -0.99 0.14 0.03
43.65 136.09 13.56 0.84 -0.07 -0.54 0.10
46.57 138.61 18.48 0.98 0.07 -0.21 0.16
42.89 135.08 13.88 0.61 -0.55 -0.58 -0.03
45.62 134.60 19.18 0.71 -0.69 0.14 0.11
46.97 136.30 19.60 0.98 -0.18 -0.08 -0.68
43.29 138.01 14.25 0.74 0.17 -0.65 -0.72
46.74 137.44 19.94 0.95 0.32 0.01 -0.58
43.83 138.56 14.69 0.51 -0.18 -0.84 -0.45
42.71 133.49 15.90 0.03 -1.00 0.05 -0.19
42.73 133.92 14.65 0.53 -0.69 -0.50 -0.56
43.05 133.69 17.05 -0.20 -0.97 0.12 0.29
46.29 139.57 17.25 1.00 -0.00 -0.09 0.26
43.23 136.82 12.70 0.79 0.11 -0.60 0.18
45.33 139.33 14.97 0.69 -0.38 -0.62 0.14
46.24 138.50 20.12 0.98 0.18 -0.01 0.19
45.57 134.36 20.10 0.63 -0.65 -0.42 0.11
42.72 138.37 13.46 0.84 0.24 -0.49 0.28
46.24 135.30 20.07 0.75 -0.58 -0.32 -0.15
46.47 139.90 19.29 1.00 0.09 -0.01 0.15
42.06 133.19 15.32 0.43 -0.89 0.14 -0.72
42.48 135.71 12.44 0.52 -0.42 -0.74 0.19
47.36 136.38 20.65 0.62 0.01 -0.78 0.23
43.07 139.20 14.10 0.62 -0.20 -0.76 -0.39
43.09 133.72 18.47 0.03 -1.00 0.02 0.02
42.09 133.75 16.78 0.18 -0.97 0.16 0.42
41.83 134.98 12.70 0.58 -0.45 -0.68 0.22
44.43 133.64 19.69 0.22 -0.97 -0.12 0.05
46.37 140.17 15.97 0.93 -0.18 -0.32 0.19
44.12 139.76 14.06 0.39 -0.45 -0.80 0.06
46.93 137.32 21.30 0.72 0.49 -0.50 0.48
42.35 137.41 12.09 0.55 0.16 -0.82 0.36
41.72 132.84 14.24 0.83 -0.56 0.01 0.13
46.17 140.73 18.10 1.00 0.08 -0.04 0.30
46.43 139.55 20.88 0.99 -0.02 -0.11 -1.01
41.38 133.60 12.86 0.84 -0.14 -0.53 0.83
41.70 133.61 17.60 0.46 -0.88 -0.16 0.67
41.03 135.17 12.03 0.46 -0.31 -0.83 0.67
48.07 136.76 21.36 0.07 0.61 -0.79 0.38
41.76 138.85 12.40 0.71 0.05 -0.70 0.40
41.11 133.27 16.60 0.56 -0.83 -0.03 -0.34
44.59 133.16 20.88 0.05 -0.89 -0.45 0.12
40.78 132.89 15.72 0.53 -0.77 0.36 -0.33
45.51 141.16 14.52 0.81 0.13 -0.57 0.16
45.71 133.23 21.32 0.52 -0.74 -0.43 0.16
42.70 140.24 13.36 0.61 -0.39 -0.70 0.08
46.15 141.56 15.96 0.91 0.39 -0.14 0.20
46.72 134.45 21.37 0.61 -0.59 -0.53 0.27
41.85 133.37 18.71 0.49 -0.87 0.09 0.32
46.05 141.64 17.37 0.94 0.29 -0.20 0.26
46.61 138.86 21.87 0.84 0.27 -0.48 0.73
40.65 134.29 12.10 0.59 -0.06 -0.80 1.04
42.52 133.80 20.10 -0.10 -0.96 0.26 -0.41
47.70 138.28 22.04 0.13 0.53 -0.84 0.63
47.86 134.80 21.75 -0.12 -0.66 -0.74 0.11
46.03 141.80 19.73 0.96 -0.15 -0.25 0.23
40.62 136.21 11.66 0.46 -0.13 -0.88 1.10
42.89 133.64 21.06 -0.53 -0.84 -0.09 -0.06
41.62 131.67 13.64 0.83 -0.53 0.18 0.11
44.41 141.53 13.22 0.62 0.14 -0.77 0.16
46.47 140.48 21.78 0.97 -0.15 -0.20 -0.09
41.98 140.08 12.63 0.66 -0.47 -0.58 0.17
41.06 139.42 11.63 0.70 -0.16 -0.69 0.41
40.07 132.46 16.32 0.70 -0.71 0.06 -0.26
43.55 133.12 21.81 -0.53 -0.85 0.01 0.12
44.74 132.63 22.12 -0.08 -0.99 -0.06 0.11
40.72 138.07 11.50 0.55 -0.09 -0.83 0.41
49.88 136.39 20.78 0.17 0.28 -0.95 1.46
41.34 131.96 12.40 0.81 -0.27 -0.52 0.19
49.47 137.54 21.41 0.24 0.64 -0.73 0.81
39.68 135.42 11.27 0.66 -0.18 -0.73 0.89
41.48 133.59 20.08 0.31 -0.71 0.63 0.14
39.98 131.80 15.21 0.35 -0.81 0.47 0.13
43.23 141.24 12.47 0.70 -0.26 -0.67 0.22
40.45 132.74 11.37 0.45 -0.25 -0.86 0.28
45.89 132.87 22.86 0.41 -0.91 0.12 0.07
46.67 141.35 21.13 0.85 -0.44 -0.30 0.45
48.74 138.77 22.34 0.25 0.79 -0.56 0.43
44.66 142.74 14.60 0.61 0.70 -0.38 0.19
40.79 132.27 18.84 0.57 -0.82 -0.00 -0.07
39.94 132.20 17.43 0.66 -0.74 -0.10 -1.20
45.43 143.26 17.52 0.57 0.72 -0.40 0.26
48.50 134.07 22.61 -0.27 -0.88 -0.38 -0.44
42.29 134.53 21.50 -0.52 -0.84 0.15 -0.66
47.54 139.50 23.15 0.49 0.60 -0.63 0.73
46.94 133.87 23.29 0.22 -0.97 0.02 -0.02
40.57 132.79 20.11 0.40 -0.66 0.64 0.00
46.82 140.38 22.79 0.86 0.02 -0.51 0.63
40.64 130.96 12.75 0.44 -0.81 -0.37 0.17
41.04 140.58 11.26 0.62 -0.19 -0.76 0.50
44.49 143.12 15.93 0.55 0.80 -0.23 0.23
43.42 142.62 13.48 0.72 0.52 -0.46 0.44
46.28 143.32 18.89 0.64 0.36 -0.68 0.34
49.45 135.00 20.90 -0.00 -0.32 -0.95 0.26
39.06 131.58 15.85 0.09 -0.99 -0.14 -0.53
50.78 135.59 21.24 0.75 -0.01 -0.66 0.34
43.75 133.28 23.08 -0.53 -0.80 0.28 0.23
49.44 133.75 21.70 -0.20 -0.87 -0.46 0.40
41.04 134.79 21.20 0.10 -0.87 0.48 -0.48
39.71 137.97 10.95 0.74 -0.22 -0.64 0.53
39.85 130.79 14.00 0.21 -0.92 0.33 0.15
47.18 141.36 22.71 0.74 -0.53 -0.42 1.48
49.95 137.99 22.58 0.63 0.73 -0.28 0.62
42.26 141.10 11.52 0.51 -0.31 -0.80 0.28
44.82 133.03 23.60 -0.01 -0.83 0.56 0.10
38.69 133.46 10.79 0.24 -0.54 -0.80 0.30
47.48 142.66 20.74 0.79 -0.51 -0.35 0.80
50.77 137.32 22.23 0.80 0.53 -0.27 0.57
39.78 132.02 19.30 0.39 -0.83 0.40 -0.30
38.49 131.53 14.83 -0.39 -0.84 0.37 0.11
49.57 133.69 22.92 0.29 -0.96 0.01 0.15
38.95 132.40 11.42 -0.14 -0.52 -0.84 0.41
39.45 131.32 18.06 0.66 -0.74 0.17 -1.70
38.98 135.05 10.04 0.92 -0.24 -0.32 0.29
39.19 137.15 10.34 0.86 -0.13 -0.49 0.87
39.83 139.33 10.25 0.77 -0.18 -0.61 0.53
49.71 138.75 23.56 0.65 0.72 -0.24 0.39
42.39 142.52 11.65 0.66 0.26 -0.70 0.71
42.32 134.41 23.30 -0.46 -0.89 -0.01 0.40
39.87 133.70 20.62 0.31 -0.66 0.68 -0.03
39.48 130.69 12.68 0.03 -0.89 -0.45 0.19
46.38 134.26 24.44 -0.02 -0.91 0.42 0.01
43.19 143.39 14.80 0.41 0.91 -0.10 0.26
48.10 133.44 23.87 -0.13 -0.99 -0.11 -1.15
47.66 140.49 24.01 0.84 0.12 -0.52 0.54
43.82 143.77 18.12 0.05 1.00 0.07 0.30
37.99 131.79 15.87 -0.16 -0.78 -0.60 -1.36
38.48 130.91 13.99 -0.33 -0.86 0.38 0.19
48.76 139.35 24.11 0.57 0.73 -0.38 0.25
38.58 130.68 17.07 0.24 -0.93 -0.29 -1.95
47.91 142.05 22.41 0.84 -0.44 -0.30 1.22
50.65 134.06 21.72 0.58 -0.68 -0.45 0.42
42.67 143.66 13.20 0.71 0.66 -0.24 0.64
40.11 141.12 10.50 0.85 -0.13 -0.51 0.57
41.07 134.97 22.47 0.16 -0.99 0.06 0.16
45.27 133.82 24.19 0.16 -0.70 0.70 0.29
51.20 134.97 22.57 0.92 -0.37 0.14 0.16
43.34 143.64 16.98 -0.06 0.99 -0.13 0.27
38.80 131.79 19.50 0.31 -0.71 0.63 -0.96
47.74 133.81 24.94 -0.24 -0.85 0.46 -1.35
39.35 138.20 9.77 0.86 -0.20 -0.46 1.30
51.25 136.14 22.62 0.99 0.16 -0.02 -0.12
43.62 134.08 24.34 -0.23 -0.92 0.33 0.51
38.71 132.81 20.38 0.18 -0.64 0.74 -0.45
38.12 133.60 10.00 0.43 -0.89 0.12 0.09
50.48 137.50 23.90 0.90 0.38 0.21 0.47
37.66 131.92 14.12 -0.65 -0.66 0.37 0.38
37.71 132.40 15.14 -0.48 -0.87 -0.10 -0.10
46.31 144.93 19.47 -0.50 0.28 -0.82 0.59
38.66 131.35 11.98 -0.32 -0.55 -0.77 0.30
50.24 134.45 23.88 0.80 -0.51 0.32 -0.29
45.19 143.72 20.59 -0.76 0.50 -0.40 0.55
37.20 133.90 11.23 -0.36 -0.93 -0.12 0.80
39.79 134.27 21.35 0.30 -0.90 0.33 0.01
47.64 144.47 19.25 0.36 0.08 -0.93 1.24
40.74 142.67 11.04 0.61 -0.02 -0.79 0.41
48.34 143.68 21.59 0.90 -0.44 -0.02 0.67
37.55 132.96 12.16 -0.58 -0.54 -0.61 1.45
49.24 133.60 24.59 0.40 -0.83 0.40 -1.27
42.27 144.02 14.27 0.50 0.84 0.21 0.36
37.87 131.08 12.92 -0.64 -0.75 -0.19 0.28
37.91 130.79 18.78 0.04 -0.94 0.35 -1.14
41.66 143.78 11.74 0.76 0.35 -0.55 0.41
3 181 132 158
3 128 132 100
3 100 99 128
3 132 149 83
3 83 149 114
3 83 114 92
3 114 149 146
3 92 114 129
3 92 129 147
3 114 146 167
3 114 167 129
3 166 147 129
3 129 167 166
3 46 71 57
3 139 163 106
3 163 158 128
3 106 163 128
3 118 91 72
3 91 106 68
3 72 91 68
3 60 99 100
3 45 60 62
3 94 55 88
3 46 57 41
3 57 76 41
3 76 57 90
3 134 90 133
3 162 116 124
3 116 162 84
3 162 138 84
3 118 72 103
3 103 72 77
3 77 84 138
3 61 77 47
3 72 68 44
3 40 29 45
3 31 29 16
3 29 40 30
3 30 16 29
3 16 30 10
3 55 30 52
3 30 40 52
3 40 62 52
3 52 62 78
3 78 62 92
3 78 55 52
3 55 46 23
3 23 46 41
3 41 21 23
3 23 21 10
3 10 21 14
3 21 33 37
3 37 33 51
3 33 41 51
3 37 51 59
3 82 59 86
3 86 135 82
3 160 119 134
3 153 109 135
3 141 162 155
3 155 162 124
3 124 95 105
3 159 105 143
3 95 64 105
3 143 105 102
3 85 116 84
3 36 61 47
3 36 47 24
3 24 18 13
3 3 14 9
3 9 14 19
3 3 9 4
3 34 49 63
3 152 111 137
3 111 79 93
3 111 93 137
3 79 65 93
3 93 65 81
3 137 123 175
3 123 81 109
3 171 168 112
3 170 178 130
3 170 130 156
3 178 143 130
3 143 102 130
3 130 102 117
3 113 117 74
3 25 38 24
3 87 74 42
3 89 87 58
3 27 15 35
3 25 12 15
3 4 15 12
3 4 12 6
3 24 12 25
3 6 12 13
3 7 13 18
3 17 48 32
3 32 53 39
3 32 66 69
3 69 66 110
3 66 63 110
3 110 63 98
3 142 79 111
3 142 111 152
3 152 179 142
3 168 174 112
3 80 54 96
3 115 113 87
3 165 127 122
3 122 136 165
3 122 127 89
3 136 122 89
3 136 89 97
3 97 89 73
3 121 150 144
3 110 157 145
3 177 172 125
3 177 125 131
3 125 172 164
3 128 158 132
3 83 100 132
3 71 55 94
3 90 57 71
3 90 125 133
3 94 125 71
3 71 125 90
3 164 133 125
3 118 103 154
3 138 154 103
3 139 118 154
3 91 118 139
3 91 139 106
3 173 139 154
3 56 44 68
3 56 68 99
3 56 99 60
3 45 44 56
3 45 56 60
3 62 60 83
3 62 83 92
3 83 60 100
3 46 55 71
3 86 76 119
3 119 76 134
3 90 134 76
3 138 103 77
3 72 44 47
3 72 47 77
3 44 31 20
3 29 31 45
3 45 31 44
3 10 30 23
3 55 23 30
3 19 14 28
3 19 28 49
3 28 14 26
3 26 14 21
3 37 26 21
3 43 49 28
3 37 43 26
3 26 43 28
3 81 65 59
3 59 65 37
3 37 65 43
3 49 43 65
3 109 59 82
3 59 109 81
3 135 119 160
3 135 86 119
3 141 105 159
3 105 141 155
3 105 155 124
3 102 74 117
3 74 102 105
3 74 105 67
3 67 105 64
3 38 67 36
3 24 38 36
3 12 24 13
3 44 20 18
3 4 9 17
3 19 17 9
3 109 175 123
3 175 109 153
3 25 42 38
3 38 42 67
3 67 42 74
3 58 87 42
3 89 58 73
3 73 58 50
3 50 42 25
3 50 25 27
3 42 50 58
3 70 73 50
3 70 50 35
3 54 70 35
3 27 35 50
3 39 54 35
3 39 35 22
3 22 35 15
3 11 22 15
3 4 11 15
3 32 22 17
3 17 22 11
3 17 11 4
3 53 69 112
3 69 53 32
3 75 112 126
3 54 75 96
3 126 96 75
3 107 80 121
3 121 80 96
3 121 96 150
3 148 104 144
3 107 121 144
3 107 144 104
3 80 107 70
3 54 80 70
3 70 104 73
3 73 104 97
3 104 70 107
3 53 112 75
3 53 75 39
3 54 39 75
3 149 132 181
3 140 147 180
3 169 180 177
3 180 169 140
3 140 120 147
3 166 180 147
3 125 94 131
3 128 99 106
3 106 99 68
3 169 177 131
3 169 131 140
3 140 108 120
3 147 120 92
3 94 108 140
3 94 88 108
3 94 140 131
3 77 61 84
3 45 62 40
3 78 108 88
3 88 55 78
3 78 92 120
3 78 120 108
3 21 41 33
3 76 51 41
3 76 86 51
3 59 51 86
3 95 124 85
3 124 116 85
3 85 64 95
3 61 64 85
3 61 85 84
3 67 64 36
3 36 64 61
3 18 47 44
3 47 18 24
3 16 10 5
3 16 20 31
3 8 20 16
3 16 5 8
3 10 3 5
3 14 3 10
3 49 34 19
3 19 34 17
3 63 79 98
3 63 49 79
3 79 49 65
3 93 81 123
3 93 123 137
3 135 109 82
3 182 137 175
3 182 152 137
3 178 159 143
3 151 117 113
3 151 113 115
3 151 115 156
3 151 156 130
3 151 130 117
3 25 15 27
3 4 6 2
3 2 6 7
3 13 7 6
3 0 4 2
3 0 2 1
3 1 2 7
3 1 7 8
3 18 8 7
3 1 8 5
3 0 1 5
3 0 5 3
3 4 0 3
3 20 8 18
3 34 63 48
3 34 48 17
3 48 66 32
3 48 63 66
3 79 142 98
3 145 112 101
3 145 101 110
3 96 126 150
3 113 74 87
3 115 161 156
3 127 87 89
3 127 161 115
3 127 115 87
3 136 97 148
3 148 97 104
3 39 22 32
3 110 98 142
3 110 142 157
3 69 110 101
3 69 101 112
