ply
format ascii 1.0
comment Generated by MaSIF
element vertex 200
property float x
property float y
property float z
property float nx
property float ny
property float nz
property float charge
element face 349
property list uchar int vertex_indices
end_header
42.82 133.23 15.88 0.65 -0.73 -0.19 -0.31
41.41 133.38 16.54 0.05 -0.87 0.50 -0.78
42.50 132.94 14.24 0.85 -0.37 -0.37 -1.40
42.87 133.40 17.64 -0.23 -0.95 0.21 -0.16
44.38 134.05 16.15 0.30 -0.41 -0.86 -0.21
41.77 131.95 14.72 0.43 -0.90 0.07 -1.56
42.43 135.16 15.06 0.82 -0.44 -0.37 -0.70
40.67 132.42 15.93 0.20 -0.86 0.47 -1.62
44.42 132.92 17.25 0.06 -0.96 -0.26 -0.24
43.56 135.52 15.71 0.41 -0.33 -0.85 0.33
42.36 134.70 13.95 0.95 -0.29 -0.11 -1.44
40.58 133.73 17.19 0.09 -0.88 0.47 -0.44
42.05 133.84 18.34 -0.27 -0.94 0.22 0.01
42.17 133.74 13.32 0.89 -0.29 -0.35 -1.82
43.72 133.29 18.70 -0.22 -0.94 0.27 -0.27
45.37 133.60 16.80 0.26 -0.62 -0.74 -0.52
45.16 135.25 16.01 0.40 -0.09 -0.91 -0.11
40.95 131.98 13.57 0.29 -0.92 -0.26 -1.47
42.82 135.29 13.44 0.72 -0.69 0.02 -0.46
43.51 136.07 14.90 0.71 -0.68 -0.18 0.38
39.63 133.77 17.91 0.40 -0.90 0.20 -0.23
39.44 132.05 14.76 0.01 -0.99 -0.14 -0.90
42.39 134.84 12.59 0.80 -0.57 -0.19 -1.02
40.95 134.08 18.41 0.05 -0.98 0.16 -0.48
44.98 136.49 16.06 0.69 0.04 -0.72 0.29
45.85 132.92 18.62 -0.01 -1.00 0.08 -1.84
41.38 134.23 19.40 -0.04 -1.00 0.09 -0.12
38.63 131.73 15.57 -0.08 -1.00 -0.04 -0.23
46.36 134.59 16.73 0.42 -0.07 -0.91 -1.41
42.83 133.73 19.74 -0.09 -0.96 0.28 -0.09
41.79 133.53 11.84 0.74 -0.44 -0.52 -2.01
43.93 134.01 20.05 -0.13 -0.88 0.47 -0.67
46.84 133.35 17.26 0.30 -0.68 -0.67 -1.17
40.50 132.46 12.28 -0.04 -0.79 -0.61 -1.40
38.53 132.68 17.32 0.43 -0.86 0.27 0.26
43.25 135.58 12.05 0.59 -0.70 -0.40 -0.13
39.72 133.77 18.97 0.50 -0.86 -0.05 -1.11
41.57 134.95 11.39 0.14 -0.15 -0.98 -0.83
38.22 132.32 14.29 -0.32 -0.89 -0.32 -0.40
44.54 137.27 15.54 0.96 -0.18 -0.22 0.51
44.64 137.09 14.13 0.93 -0.38 -0.04 0.12
44.02 136.35 12.70 0.84 -0.53 -0.12 0.00
46.69 135.68 17.30 0.58 0.39 -0.71 -1.15
38.75 132.46 13.35 -0.30 -0.89 -0.35 -0.60
45.45 137.34 17.07 0.77 0.12 -0.63 0.29
45.28 133.72 20.57 -0.14 -0.85 0.51 -1.01
40.40 134.09 19.99 0.46 -0.88 -0.11 -0.81
37.46 131.97 16.00 -0.19 -0.98 -0.04 -0.13
44.84 137.95 16.56 0.82 -0.11 -0.57 0.80
42.74 134.17 20.79 0.17 -0.98 0.13 0.03
47.52 133.11 18.39 0.59 -0.75 -0.30 -1.25
47.79 134.34 17.42 0.68 -0.09 -0.72 -1.76
41.27 134.22 20.99 0.11 -0.98 -0.17 0.01
43.66 136.60 11.34 0.61 -0.34 -0.71 0.03
44.00 134.70 21.43 0.11 -0.87 0.48 -0.13
37.25 132.15 17.11 0.16 -0.98 -0.13 0.07
39.00 133.03 12.36 -0.35 -0.59 -0.73 -1.07
39.91 134.04 11.18 -0.22 -0.17 -0.96 -1.72
39.51 133.17 20.00 0.74 -0.62 -0.28 0.03
44.45 137.48 13.06 0.97 -0.20 -0.17 0.18
37.10 133.10 14.28 -0.57 -0.69 -0.44 -0.20
40.51 135.95 11.81 -0.51 0.14 -0.85 -0.77
47.04 133.79 20.39 -0.14 -0.82 0.56 -0.88
46.02 137.76 17.81 0.65 -0.35 -0.68 0.55
44.77 138.63 15.60 0.96 -0.09 -0.28 0.55
44.70 138.50 14.25 1.00 0.07 -0.01 0.17
37.98 133.14 12.57 -0.44 -0.59 -0.68 -0.29
45.67 138.35 16.90 0.51 -0.45 -0.73 0.42
42.17 136.83 11.04 0.08 -0.05 -1.00 -0.03
39.89 135.12 11.66 -0.36 0.43 -0.83 -1.81
38.01 132.36 18.83 0.54 -0.79 -0.28 -0.06
46.29 136.82 18.14 0.57 0.27 -0.77 -0.23
40.20 133.64 21.11 0.60 -0.73 -0.33 0.00
42.03 133.95 21.72 0.28 -0.95 -0.13 0.17
48.05 133.15 20.10 -0.20 -0.98 -0.02 0.13
36.20 132.70 15.69 -0.32 -0.76 -0.57 -0.44
47.58 136.64 18.44 0.28 0.29 -0.91 -0.21
44.41 138.16 12.06 0.79 -0.17 -0.59 0.96
36.88 131.75 18.49 0.19 -0.97 -0.17 -0.27
42.90 134.31 22.25 0.47 -0.87 0.13 0.20
45.29 139.60 16.08 0.63 0.05 -0.78 0.54
48.40 135.24 18.50 0.46 -0.08 -0.88 -0.45
41.32 133.51 22.36 0.50 -0.83 -0.26 0.17
46.84 138.26 18.14 0.60 -0.40 -0.69 0.30
38.61 134.45 12.11 -0.41 0.15 -0.90 -0.66
40.55 137.40 11.53 -0.59 0.15 -0.79 -0.01
43.54 134.99 22.79 0.39 -0.91 0.16 0.06
37.23 134.22 12.63 -0.66 -0.08 -0.74 -0.16
45.42 135.23 22.02 -0.01 -0.86 0.51 0.33
39.54 136.38 12.84 -0.55 0.44 -0.70 -0.45
44.33 139.97 15.06 0.79 0.48 -0.39 1.49
46.86 138.85 17.23 0.71 -0.50 -0.49 0.17
47.38 134.32 21.68 -0.41 -0.77 0.48 0.39
44.82 139.34 12.94 0.99 0.12 -0.09 0.71
35.38 131.88 16.61 -0.24 -0.87 -0.43 -1.96
47.24 137.58 18.57 0.34 -0.11 -0.93 0.67
36.18 134.77 14.08 -0.72 0.05 -0.70 -0.15
39.48 132.30 21.67 0.82 -0.51 -0.26 0.15
44.16 140.22 14.12 0.79 0.60 0.12 -0.13
36.92 131.33 19.53 0.01 -0.98 -0.22 -0.12
46.67 139.65 16.44 0.56 -0.15 -0.81 0.21
43.02 138.28 11.26 0.09 0.08 -0.99 0.49
48.32 133.31 21.39 -0.65 -0.75 0.16 1.13
34.90 133.19 15.82 -0.62 -0.28 -0.73 -1.24
35.65 131.80 18.92 -0.21 -0.97 -0.14 -0.51
44.14 139.38 11.39 0.56 0.24 -0.79 0.68
41.77 138.68 11.54 -0.40 0.44 -0.81 0.09
40.25 132.84 22.46 0.60 -0.72 -0.34 0.32
35.22 134.03 15.32 -0.75 -0.19 -0.63 -0.33
38.72 131.16 21.11 0.56 -0.71 -0.42 0.29
49.51 132.62 20.69 -0.44 -0.87 -0.21 0.39
47.84 138.93 18.30 0.36 -0.27 -0.89 0.18
49.81 133.28 19.45 -0.31 -0.63 -0.71 0.77
45.47 141.04 16.55 0.60 0.20 -0.78 1.07
38.04 135.50 12.76 -0.44 0.47 -0.76 -0.28
49.66 134.64 18.76 0.01 -0.07 -1.00 0.81
40.93 133.09 23.59 0.66 -0.64 -0.39 0.56
49.63 136.20 19.02 0.44 0.22 -0.87 0.74
41.75 133.88 23.85 0.69 -0.72 -0.08 0.08
34.89 131.98 17.76 -0.55 -0.82 -0.18 -1.61
37.35 131.09 20.84 0.02 -0.91 -0.41 -0.04
44.27 140.42 12.60 0.59 0.78 -0.22 0.59
35.85 135.59 14.53 -0.65 -0.03 -0.76 -0.20
48.84 138.25 18.80 0.47 0.05 -0.88 0.25
46.69 135.11 22.33 -0.31 -0.79 0.53 0.41
44.28 141.10 15.75 0.67 0.17 -0.72 0.92
47.98 134.36 22.82 -0.57 -0.55 0.60 0.53
45.58 135.71 23.36 0.27 -0.85 0.46 0.41
40.31 138.44 12.90 -0.69 0.40 -0.60 0.07
43.00 134.76 24.30 0.41 -0.91 -0.07 -0.38
44.53 135.21 24.04 0.49 -0.87 -0.11 -0.34
34.15 133.11 16.71 -0.85 -0.27 -0.45 -1.26
47.29 140.39 17.59 0.63 0.15 -0.76 0.00
42.95 140.91 13.92 0.19 0.98 -0.11 -0.15
38.83 137.09 14.01 -0.31 0.32 -0.89 -0.08
48.89 132.68 22.34 -0.62 -0.71 0.33 1.78
43.58 141.52 15.09 0.58 0.06 -0.81 0.67
39.89 132.22 23.50 0.71 -0.62 -0.35 0.74
34.17 132.20 18.78 -0.43 -0.84 -0.33 -0.98
35.17 131.71 20.37 -0.22 -0.98 0.03 -0.88
39.12 130.91 22.61 0.73 -0.64 -0.23 0.21
50.48 131.99 20.68 -0.45 -0.85 -0.27 0.19
42.91 140.42 12.05 -0.24 0.72 -0.65 0.09
41.37 139.56 12.76 -0.57 0.58 -0.58 -0.38
45.78 141.85 17.19 0.62 0.30 -0.73 0.91
35.88 131.61 21.06 -0.51 -0.84 -0.16 -0.33
44.87 141.89 16.13 0.70 0.17 -0.70 0.86
37.62 136.41 13.74 -0.36 0.39 -0.85 0.06
35.08 135.48 15.76 -0.85 -0.15 -0.50 -0.72
34.69 134.87 16.56 -0.75 -0.04 -0.66 -1.84
50.65 134.06 18.63 -0.19 -0.10 -0.98 0.37
37.64 130.37 21.94 0.03 -0.90 -0.44 0.30
48.99 134.27 23.35 -0.19 -0.20 0.96 1.10
48.61 140.29 18.37 0.60 0.10 -0.80 -0.89
47.27 135.67 23.19 -0.21 -0.50 0.84 0.39
42.03 141.09 14.47 -0.01 0.53 -0.85 0.59
50.94 135.60 19.08 0.41 0.56 -0.73 0.34
44.72 134.79 25.02 0.55 -0.83 -0.12 -0.80
33.85 133.66 17.62 -0.74 -0.48 -0.47 -2.10
50.11 137.95 19.41 0.78 0.30 -0.55 0.08
41.85 140.44 13.44 -0.42 0.79 -0.45 -0.67
40.46 131.80 24.23 0.58 -0.42 -0.70 2.11
41.56 132.51 24.89 0.81 -0.32 -0.50 1.42
35.14 136.76 14.80 -0.72 -0.42 -0.55 -0.17
45.41 136.29 24.55 0.76 -0.63 0.18 0.18
50.31 131.99 22.41 -0.49 -0.86 0.12 0.58
49.59 139.09 20.13 0.91 0.40 -0.15 -0.17
43.09 142.34 14.71 0.43 0.10 -0.90 0.40
39.83 139.47 13.90 -0.46 0.57 -0.68 0.13
42.41 134.28 25.48 0.63 -0.75 -0.20 0.10
39.32 138.48 14.03 -0.36 0.17 -0.92 0.01
50.54 137.09 20.65 0.88 0.43 -0.21 0.49
38.33 138.33 14.15 0.03 -0.05 -1.00 0.18
51.43 131.89 19.93 -0.22 -0.86 -0.47 -0.32
51.82 133.24 18.49 -0.03 -0.22 -0.97 0.50
46.97 136.76 23.50 0.16 -0.64 0.75 0.59
38.49 130.27 23.43 0.39 -0.90 -0.20 0.20
47.33 141.87 18.33 0.56 0.26 -0.79 -0.08
33.98 134.73 17.18 -0.58 -0.19 -0.79 -4.21
33.12 132.56 19.53 -0.72 -0.62 -0.31 -1.06
37.05 137.18 13.88 0.05 -0.19 -0.98 0.20
39.28 130.90 23.87 0.61 -0.65 -0.45 0.62
33.75 131.79 20.19 -0.45 -0.89 0.07 -1.95
49.25 140.56 19.29 0.88 0.24 -0.42 -2.08
44.61 143.07 16.60 0.75 0.24 -0.61 0.84
43.23 134.58 26.30 0.51 -0.85 0.12 -0.48
50.18 133.08 23.81 -0.43 -0.08 0.90 0.54
46.53 142.67 18.01 0.44 -0.00 -0.90 0.09
45.57 143.33 17.60 0.58 0.14 -0.80 0.27
41.84 133.31 26.18 0.93 -0.35 -0.06 1.09
37.07 129.79 23.08 -0.08 -0.96 -0.26 0.13
41.16 141.73 15.04 -0.38 0.26 -0.89 0.84
51.82 131.38 21.59 -0.13 -0.97 -0.18 -0.28
33.21 133.68 18.49 -0.62 -0.60 -0.50 -2.09
33.05 134.30 17.54 -0.32 -0.58 -0.75 -7.40
40.97 140.27 14.11 -0.41 0.68 -0.61 -0.04
48.05 136.63 23.83 -0.08 -0.62 0.78 0.27
35.09 132.03 22.52 -0.83 -0.47 -0.29 -0.50
50.37 135.18 23.04 0.38 0.28 0.88 0.75
40.40 130.63 24.63 0.47 -0.52 -0.71 2.73
3 157 130 164
3 130 127 164
3 129 130 157
3 130 86 127
3 129 185 169
3 118 169 189
3 118 189 162
3 152 196 126
3 152 126 135
3 62 92 54
3 124 154 127
3 127 86 88
3 82 73 118
3 162 116 118
3 118 116 82
3 116 161 137
3 116 137 82
3 82 137 107
3 161 162 199
3 190 151 176
3 140 176 151
3 132 153 111
3 183 123 153
3 123 183 166
3 123 166 159
3 135 165 186
3 135 102 110
3 74 102 92
3 102 74 110
3 112 81 115
3 81 50 51
3 81 112 74
3 74 50 81
3 50 74 25
3 62 25 74
3 74 92 62
3 79 73 49
3 49 73 52
3 49 52 29
3 52 73 82
3 72 52 82
3 109 97 140
3 109 58 97
3 70 120 99
3 145 99 120
3 138 104 139
3 99 139 104
3 138 193 119
3 184 188 146
3 187 177 144
3 132 144 177
3 144 132 113
3 144 113 146
3 132 80 113
3 91 83 63
3 91 132 83
3 132 111 83
3 95 83 111
3 95 111 123
3 81 159 117
3 159 171 117
3 117 171 156
3 192 165 141
3 173 141 112
3 115 150 112
3 28 16 42
3 24 42 16
3 28 32 15
3 16 28 15
3 15 32 25
3 25 8 15
3 14 45 31
3 29 12 14
3 29 26 12
3 36 26 46
3 46 58 36
3 34 70 78
3 104 119 78
3 78 94 55
3 55 94 75
3 55 75 47
3 47 75 60
3 75 103 108
3 103 149 108
3 149 131 178
3 178 131 158
3 178 158 194
3 131 119 158
3 194 158 193
3 133 90 98
3 65 40 59
3 65 59 93
3 93 59 77
3 59 40 41
3 41 40 19
3 41 19 18
3 19 40 39
3 19 39 24
3 40 65 39
3 4 8 0
3 8 3 0
3 12 23 11
3 47 34 55
3 34 27 7
3 7 27 21
3 7 21 17
3 27 38 21
3 38 43 21
3 38 60 43
3 60 96 87
3 87 96 114
3 180 122 163
3 108 148 122
3 195 160 168
3 143 168 160
3 128 143 106
3 106 142 101
3 106 101 68
3 101 105 77
3 101 77 68
3 68 77 53
3 53 77 41
3 41 77 59
3 37 68 35
3 37 35 22
3 22 30 37
3 35 18 22
3 2 10 0
3 2 17 13
3 13 17 30
3 30 17 33
3 66 56 43
3 66 84 56
3 56 84 57
3 57 84 69
3 84 89 69
3 170 168 128
3 85 89 128
3 61 85 37
3 37 69 61
3 7 0 1
3 11 1 3
3 115 117 156
3 115 156 150
3 141 165 110
3 110 165 135
3 169 185 189
3 154 196 175
3 130 129 86
3 86 129 79
3 169 118 129
3 102 135 126
3 102 126 92
3 127 88 124
3 92 124 88
3 92 88 54
3 175 127 154
3 164 127 175
3 54 86 79
3 86 54 88
3 107 137 97
3 97 137 140
3 181 140 137
3 181 137 161
3 181 161 199
3 176 140 181
3 123 111 153
3 29 54 49
3 49 54 79
3 29 31 54
3 54 31 45
3 26 29 52
3 26 52 46
3 46 72 58
3 72 46 52
3 72 97 58
3 72 107 97
3 70 58 109
3 70 109 120
3 139 99 145
3 119 104 138
3 193 158 119
3 144 146 188
3 187 144 188
3 125 80 90
3 80 125 113
3 113 125 146
3 90 64 65
3 80 64 90
3 39 64 48
3 24 39 48
3 44 24 48
3 44 48 67
3 80 67 48
3 80 48 64
3 64 39 65
3 24 44 42
3 71 42 44
3 63 71 44
3 63 44 67
3 63 67 91
3 71 63 95
3 95 63 83
3 112 141 110
3 117 115 81
3 29 14 31
3 23 12 26
3 23 26 36
3 36 58 70
3 108 60 75
3 148 108 149
3 90 133 155
3 90 155 136
3 136 155 167
3 125 90 136
3 146 125 136
3 146 136 167
3 65 93 98
3 65 98 90
3 19 24 9
3 9 24 16
3 9 16 4
3 0 10 6
3 0 6 9
3 0 9 4
3 19 9 6
3 6 10 19
3 18 19 10
3 1 0 3
3 12 3 14
3 11 23 20
3 20 23 36
3 34 11 20
3 34 20 36
3 34 36 70
3 147 114 96
3 147 96 122
3 147 122 180
3 148 163 122
3 155 133 160
3 195 155 160
3 128 168 143
3 13 30 10
3 10 30 22
3 10 22 18
3 2 13 10
3 61 89 85
3 89 61 69
3 155 195 191
3 172 170 134
3 147 134 89
3 128 89 134
3 128 134 170
3 180 172 134
3 180 134 147
3 11 34 7
3 11 7 1
3 42 71 76
3 76 71 95
3 157 185 129
3 126 196 154
3 124 126 154
3 126 124 92
3 129 118 79
3 73 79 118
3 162 161 116
3 152 135 186
3 152 186 198
3 112 110 74
3 54 45 62
3 82 107 72
3 120 109 151
3 140 151 109
3 120 151 145
3 179 193 138
3 179 138 182
3 138 139 182
3 91 100 132
3 132 100 80
3 80 100 67
3 67 100 91
3 123 159 81
3 192 141 173
3 32 50 25
3 32 28 51
3 42 51 28
3 42 81 51
3 51 50 32
3 45 25 62
3 14 8 25
3 14 25 45
3 70 99 78
3 104 78 99
3 94 119 131
3 103 94 131
3 94 103 75
3 78 119 94
3 103 131 149
3 174 173 112
3 156 174 150
3 150 174 112
3 4 16 15
3 15 8 4
3 8 14 3
3 34 78 55
3 47 60 27
3 38 27 60
3 47 27 34
3 96 108 122
3 108 96 60
3 98 93 121
3 98 121 133
3 121 142 133
3 142 160 133
3 160 142 143
3 143 142 106
3 101 142 105
3 105 121 93
3 105 93 77
3 105 142 121
3 53 41 35
3 35 68 53
3 41 18 35
3 17 5 7
3 5 17 2
3 2 0 5
3 0 7 5
3 12 11 3
3 21 43 17
3 17 43 33
3 33 43 56
3 87 66 60
3 87 114 84
3 87 84 66
3 66 43 60
3 84 114 89
3 85 106 68
3 85 128 106
3 85 68 37
3 57 30 33
3 57 33 56
3 57 69 37
3 57 37 30
3 114 147 89
3 42 76 81
3 123 81 76
3 123 76 95
3 177 183 153
3 177 153 132
