ply
format ascii 1.0
comment Generated by MaSIF
element vertex 200
property float x
property float y
property float z
property float nx
property float ny
property float nz
property float charge
element face 346
property list uchar int vertex_indices
end_header
42.87 134.56 14.57 0.53 -0.57 -0.63 -0.56
42.27 133.70 15.13 0.47 -0.88 -0.04 -0.72
42.93 133.91 15.73 0.06 -0.99 -0.13 -0.19
42.96 135.84 14.01 0.60 -0.41 -0.69 -0.03
41.89 133.52 14.02 0.84 -0.52 -0.12 0.13
44.10 133.78 15.22 0.03 -0.85 -0.53 0.01
44.10 136.08 14.52 0.39 -0.11 -0.92 -0.02
42.34 133.99 16.67 0.22 -0.98 -0.02 0.42
41.46 134.50 12.81 0.82 -0.01 -0.58 0.83
43.30 133.92 16.88 -0.16 -0.99 -0.05 0.29
41.01 133.28 15.52 0.57 -0.79 0.20 -0.33
43.68 136.92 13.86 0.81 0.06 -0.58 0.10
41.85 135.90 12.88 0.57 -0.30 -0.77 0.22
42.47 136.69 12.72 0.50 -0.27 -0.82 0.19
41.80 132.47 13.23 0.85 -0.52 0.05 0.11
44.47 133.60 16.73 0.02 -1.00 -0.04 0.03
45.45 134.92 14.81 0.28 -0.27 -0.92 -0.53
41.98 133.69 17.46 0.48 -0.81 -0.33 0.67
45.85 134.05 15.84 0.37 -0.88 -0.30 -0.49
41.37 133.51 16.43 0.59 -0.78 -0.19 -0.34
40.67 135.29 12.21 0.56 0.10 -0.82 1.04
45.58 136.79 15.02 0.37 0.51 -0.78 -0.61
40.35 132.72 16.05 0.73 -0.68 -0.10 -0.26
43.19 137.77 13.15 0.76 0.25 -0.60 0.18
44.14 137.89 15.30 0.58 0.36 -0.73 -0.02
43.41 133.70 18.28 0.07 -0.98 -0.16 0.02
40.22 132.26 14.85 0.39 -0.86 0.31 0.13
41.02 136.17 12.28 0.43 -0.14 -0.89 0.67
41.46 132.96 12.07 0.79 -0.14 -0.59 0.19
40.50 133.88 11.22 0.42 -0.08 -0.90 0.28
40.81 131.89 12.26 0.46 -0.72 -0.53 0.17
45.46 133.88 17.57 0.39 -0.92 0.09 0.14
42.20 133.27 18.50 0.52 -0.85 -0.09 0.32
42.27 138.42 12.68 0.51 0.32 -0.80 0.36
43.28 138.67 14.88 0.70 0.31 -0.64 -0.72
40.27 132.26 17.11 0.68 -0.69 -0.25 -1.20
39.34 131.90 15.48 0.11 -0.94 -0.32 -0.53
40.08 131.47 13.49 0.25 -0.96 0.15 0.15
42.66 139.14 14.19 0.80 0.36 -0.47 0.28
40.56 137.24 12.12 0.43 0.05 -0.90 1.10
47.20 135.01 15.59 0.70 -0.48 -0.53 -0.52
45.53 137.77 16.20 0.63 0.53 -0.57 0.23
43.82 139.16 15.40 0.48 -0.01 -0.88 -0.45
45.01 138.61 16.07 0.64 -0.01 -0.77 0.24
47.19 136.31 15.41 0.66 0.32 -0.67 -0.52
47.24 134.69 17.03 0.71 -0.69 0.14 0.36
39.63 136.50 11.62 0.63 -0.02 -0.78 0.89
38.73 132.00 14.49 -0.35 -0.91 0.23 0.11
41.17 132.12 18.48 0.60 -0.78 -0.17 -0.07
39.66 131.59 12.19 0.04 -0.79 -0.61 0.19
42.91 133.48 19.93 -0.06 -0.99 0.09 -0.41
39.01 133.47 11.27 -0.16 -0.37 -0.92 0.41
44.80 133.47 19.42 0.24 -0.92 -0.30 0.05
41.87 133.23 19.90 0.36 -0.80 0.48 0.14
46.53 134.75 18.09 0.66 -0.66 0.35 0.77
39.84 131.27 17.59 0.69 -0.73 0.01 -1.70
38.27 132.05 15.57 -0.16 -0.67 -0.73 -1.36
43.01 139.86 14.95 0.59 -0.04 -0.81 -0.39
38.71 131.54 13.54 -0.28 -0.93 0.24 0.19
38.69 134.61 10.84 0.22 -0.39 -0.90 0.30
38.95 130.77 16.53 0.26 -0.85 -0.45 -1.95
46.99 137.13 17.23 0.79 0.60 -0.16 0.87
45.93 134.55 19.04 0.74 -0.67 -0.01 0.11
47.71 135.77 16.55 0.99 0.04 -0.12 0.20
41.64 139.76 13.27 0.68 0.20 -0.71 0.40
41.00 132.40 19.82 0.44 -0.74 0.50 0.00
45.59 138.56 17.22 0.88 0.10 -0.47 0.51
37.86 132.48 13.89 -0.61 -0.74 0.27 0.38
40.60 139.11 12.29 0.51 0.08 -0.85 0.41
40.20 131.75 18.92 0.43 -0.87 0.23 -0.30
37.93 132.77 14.97 -0.46 -0.86 -0.23 -0.10
38.79 132.33 11.64 -0.33 -0.42 -0.84 0.30
47.60 135.96 17.68 0.93 -0.08 0.37 1.01
44.04 140.47 14.98 0.37 -0.28 -0.88 0.06
45.30 139.93 15.75 0.68 -0.23 -0.70 0.14
43.33 133.17 20.83 -0.50 -0.84 -0.22 -0.06
46.94 135.60 18.63 0.93 -0.29 0.21 0.49
38.90 136.32 10.38 0.91 -0.15 -0.39 0.29
38.05 131.87 12.55 -0.62 -0.73 -0.30 0.28
45.93 134.15 19.91 0.63 -0.54 -0.55 0.11
42.57 141.00 14.42 0.59 -0.23 -0.77 0.08
45.03 132.79 20.50 0.06 -0.80 -0.60 0.12
42.71 133.94 21.43 -0.48 -0.87 0.02 -0.66
37.63 133.84 12.14 -0.59 -0.45 -0.67 1.45
38.08 134.87 10.11 0.47 -0.88 -0.06 0.09
39.56 139.07 11.76 0.72 -0.07 -0.69 0.53
39.23 131.45 19.11 0.36 -0.80 0.48 -0.96
39.05 138.34 11.03 0.84 -0.00 -0.54 0.87
38.35 130.56 18.26 0.08 -0.98 0.18 -1.14
46.57 135.11 20.02 0.76 -0.48 -0.44 -0.15
40.90 140.42 12.64 0.68 -0.01 -0.74 0.41
37.20 134.91 11.41 -0.33 -0.90 -0.27 0.80
40.29 133.17 20.51 0.36 -0.76 0.54 -0.03
37.38 131.14 16.56 -0.25 -0.75 -0.61 -1.65
41.44 134.20 21.23 0.15 -0.94 0.31 -0.48
46.32 138.10 18.10 0.81 0.47 -0.35 0.27
41.83 140.94 13.70 0.65 -0.33 -0.68 0.17
36.84 133.20 13.63 -0.31 -0.91 -0.28 0.66
44.04 132.55 21.44 -0.50 -0.86 -0.12 0.12
36.70 133.35 15.05 -0.10 -0.91 -0.41 0.91
47.17 137.23 19.15 0.97 0.24 -0.05 -0.83
46.35 139.81 18.00 0.99 0.05 -0.12 0.26
39.15 132.30 20.17 0.24 -0.75 0.61 -0.45
47.24 136.20 19.71 0.98 -0.12 -0.14 -0.68
46.17 132.83 20.90 0.53 -0.63 -0.57 0.16
38.35 135.20 9.10 0.93 -0.35 -0.11 -1.02
46.36 140.62 16.85 0.92 -0.09 -0.38 0.19
45.25 132.07 21.62 -0.05 -0.97 -0.23 0.11
36.78 134.68 9.94 -0.21 -0.93 0.30 -0.65
45.40 141.82 15.63 0.78 0.26 -0.57 0.16
43.04 142.16 13.71 0.68 -0.11 -0.73 0.22
40.81 141.63 12.48 0.60 -0.03 -0.80 0.50
46.71 138.66 19.03 0.96 0.14 -0.23 0.16
40.22 133.60 21.33 0.34 -0.93 0.15 0.01
44.23 142.36 14.45 0.58 0.30 -0.76 0.16
39.15 139.48 10.66 0.85 -0.08 -0.52 1.30
39.61 140.53 11.32 0.75 -0.04 -0.66 0.53
36.56 134.50 12.36 -0.33 -0.72 -0.61 0.85
38.06 131.65 19.92 0.18 -0.71 0.68 -0.95
47.13 134.06 21.13 0.60 -0.46 -0.65 0.27
38.39 137.50 8.87 0.94 0.12 -0.32 -0.10
41.52 134.15 22.52 0.20 -0.97 -0.12 0.16
35.76 135.23 11.68 -0.41 -0.79 -0.45 1.01
42.82 133.51 23.19 -0.43 -0.89 -0.15 0.40
47.67 136.12 20.74 0.59 0.18 -0.79 0.23
36.07 132.84 15.67 0.31 -0.82 -0.48 0.71
46.99 137.26 20.25 0.94 0.35 0.03 -0.58
44.29 132.49 22.71 -0.49 -0.86 0.16 0.23
42.03 142.14 12.78 0.48 -0.15 -0.86 0.28
38.36 139.03 9.56 0.89 0.08 -0.45 0.79
37.02 130.89 19.40 0.04 -0.92 0.40 -1.54
39.09 133.12 21.68 0.35 -0.93 0.05 -0.03
38.40 135.80 8.22 0.93 -0.17 -0.31 -1.81
37.40 134.10 8.22 0.40 -0.91 -0.10 -1.68
35.83 131.93 16.31 0.21 -0.89 -0.41 0.70
46.23 140.79 19.04 0.99 0.12 -0.07 0.30
46.09 141.98 17.09 0.89 0.45 -0.10 0.20
35.64 134.43 12.68 -0.26 -0.66 -0.70 1.05
40.41 133.51 22.29 0.44 -0.86 -0.24 0.12
46.42 132.21 22.35 0.44 -0.89 -0.06 0.07
37.80 132.60 20.79 0.16 -0.89 0.43 -0.45
35.46 135.54 10.10 -0.70 -0.69 0.15 0.12
45.39 132.20 23.14 0.04 -0.91 0.40 0.10
35.05 132.88 13.97 -0.01 -0.65 -0.76 0.65
38.41 140.09 9.83 0.81 -0.01 -0.59 0.94
39.84 142.26 11.86 0.83 -0.01 -0.56 0.57
46.46 138.24 20.64 0.98 0.22 -0.01 0.19
43.22 143.35 14.94 0.69 0.62 -0.38 0.44
46.60 139.78 20.06 0.99 0.14 -0.03 0.15
46.05 141.81 18.49 0.92 0.36 -0.18 0.26
44.50 143.32 16.02 0.57 0.78 -0.27 0.19
42.11 143.53 13.16 0.62 0.41 -0.67 0.71
47.25 136.91 21.56 0.68 0.60 -0.43 0.48
34.95 136.20 11.40 -0.83 -0.45 -0.33 1.45
35.51 134.64 8.62 -0.56 -0.80 0.21 -0.89
48.40 136.39 21.48 0.01 0.74 -0.67 0.38
48.27 134.39 21.52 -0.12 -0.53 -0.84 0.11
36.63 132.21 20.40 0.25 -0.71 0.66 -1.35
35.83 130.69 19.25 0.35 -0.93 0.11 0.09
38.74 141.33 9.92 0.82 -0.25 -0.52 0.43
34.52 135.24 12.53 -0.66 -0.38 -0.65 1.56
36.34 134.32 7.52 -0.18 -0.89 -0.41 -1.04
44.18 133.05 24.11 -0.18 -0.97 0.17 0.51
40.44 143.71 12.64 0.57 0.15 -0.81 0.41
37.87 132.72 22.05 0.22 -0.94 -0.25 -0.02
47.46 133.17 22.91 0.26 -0.95 -0.16 -0.02
39.21 132.76 22.89 0.41 -0.82 -0.41 0.33
40.72 133.20 23.58 0.46 -0.81 -0.35 0.27
37.79 136.90 7.22 0.78 0.15 -0.60 -0.62
37.58 135.27 7.00 0.57 -0.39 -0.72 -1.23
37.42 138.28 7.44 0.80 0.16 -0.57 -0.15
45.84 132.89 23.85 0.21 -0.80 0.56 0.29
41.59 133.59 24.23 0.11 -0.85 -0.52 1.20
44.37 143.45 17.39 0.51 0.85 -0.11 0.23
37.75 139.63 8.05 0.92 -0.05 -0.38 0.24
42.89 132.95 24.89 0.04 -0.87 -0.50 4.27
43.02 143.86 16.38 0.37 0.93 0.05 0.26
39.77 143.42 11.68 0.98 -0.01 -0.20 -0.21
37.78 140.81 8.85 0.94 -0.04 -0.34 0.49
34.13 131.13 16.23 -0.03 -0.94 -0.33 0.90
35.03 135.06 7.69 -0.65 -0.76 -0.04 -1.23
34.46 137.11 11.85 -0.87 -0.29 -0.40 1.43
42.42 144.39 14.87 0.68 0.72 -0.15 0.64
46.65 139.15 21.56 0.99 0.04 -0.15 -1.01
34.73 137.19 10.77 -0.92 -0.39 -0.05 1.03
33.45 133.57 14.27 -0.56 -0.31 -0.77 1.45
34.11 131.72 14.69 0.03 -0.80 -0.60 0.64
39.46 142.44 10.50 0.94 -0.29 -0.19 -0.32
34.48 136.68 9.19 -0.89 -0.39 0.24 0.04
48.98 133.54 22.22 -0.25 -0.81 -0.52 -0.44
46.13 141.55 20.85 0.95 -0.06 -0.30 0.23
35.92 132.34 21.24 0.39 -0.90 0.21 -0.45
41.34 144.72 13.49 0.72 0.47 -0.51 0.41
36.91 132.52 22.47 0.20 -0.93 -0.32 -0.19
33.77 136.05 13.17 -0.73 -0.11 -0.68 1.22
45.38 143.36 18.95 0.52 0.80 -0.28 0.26
48.02 137.76 22.43 0.08 0.68 -0.73 0.63
50.19 136.21 20.77 0.12 0.45 -0.89 1.46
49.78 137.22 21.61 0.19 0.77 -0.61 0.81
46.94 133.32 24.13 0.03 -0.97 0.25 0.01
3 122 160 153
3 122 153 141
3 160 181 153
3 67 97 78
3 97 143 137
3 137 117 97
3 117 91 83
3 164 140 131
3 130 134 88
3 88 134 93
3 88 55 86
3 69 55 35
3 35 48 69
3 55 60 22
3 22 60 36
3 22 36 26
3 36 60 56
3 26 36 47
3 26 47 58
3 60 93 56
3 36 56 70
3 36 70 47
3 67 58 47
3 70 97 67
3 47 70 67
3 83 78 97
3 12 20 27
3 105 132 120
3 77 105 120
3 132 169 168
3 120 168 170
3 131 102 92
3 92 102 65
3 118 102 140
3 102 118 86
3 102 86 69
3 65 102 69
3 94 53 50
3 53 65 32
3 50 53 32
3 19 48 35
3 7 19 10
3 29 8 28
3 12 27 13
3 27 39 13
3 39 27 46
3 87 46 77
3 170 174 129
3 175 123 162
3 162 127 142
3 127 162 98
3 162 123 98
3 94 50 82
3 82 50 75
3 75 98 123
3 81 75 52
3 50 32 25
3 1 2 7
3 9 2 5
3 2 1 0
3 0 5 2
3 5 0 6
3 8 0 4
3 0 1 4
3 1 10 4
3 4 10 14
3 14 10 26
3 14 8 4
3 8 12 3
3 3 12 13
3 13 11 3
3 3 11 6
3 6 11 24
3 11 23 38
3 38 23 33
3 23 13 33
3 38 33 64
3 90 64 68
3 68 116 90
3 115 85 87
3 144 116 115
3 144 159 116
3 145 111 116
3 145 159 187
3 199 162 171
3 171 162 142
3 142 139 165
3 139 104 165
3 107 127 98
3 79 81 52
3 79 52 62
3 62 31 54
3 21 24 41
3 41 24 43
3 21 41 61
3 74 73 109
3 182 147 151
3 147 114 110
3 147 110 151
3 114 80 110
3 110 80 96
3 151 128 163
3 128 96 111
3 103 89 62
3 197 156 124
3 198 197 155
3 126 100 146
3 103 76 100
3 61 100 76
3 61 76 72
3 62 76 103
3 72 76 54
3 45 54 31
3 66 106 101
3 101 135 148
3 101 136 149
3 149 136 173
3 136 109 173
3 173 109 150
3 176 114 147
3 176 147 182
3 161 154 180
3 158 130 157
3 137 160 122
3 184 141 153
3 184 153 181
3 140 164 191
3 140 191 157
3 193 191 164
3 97 125 143
3 97 99 125
3 99 97 70
3 91 117 122
3 91 122 141
3 122 117 137
3 83 91 59
3 83 59 51
3 59 91 84
3 91 108 84
3 188 141 184
3 131 166 164
3 130 118 157
3 157 118 140
3 69 86 55
3 22 35 55
3 125 99 93
3 56 93 70
3 70 93 99
3 134 125 93
3 125 134 143
3 20 8 29
3 46 27 20
3 46 59 77
3 29 59 20
3 20 59 46
3 84 105 77
3 84 77 59
3 168 120 132
3 175 172 123
3 121 123 172
3 121 172 167
3 121 167 138
3 94 82 121
3 123 121 82
3 92 94 121
3 53 94 92
3 53 92 65
3 113 92 121
3 113 121 138
3 131 92 113
3 131 113 138
3 17 25 32
3 17 32 48
3 17 48 19
3 7 25 17
3 7 17 19
3 10 19 22
3 10 22 26
3 22 19 35
3 12 8 20
3 68 39 85
3 85 39 87
3 46 87 39
3 120 129 87
3 144 129 178
3 178 129 174
3 159 144 178
3 123 82 75
3 50 25 52
3 50 52 75
3 25 9 15
3 2 9 7
3 7 9 25
3 6 0 3
3 8 3 0
3 43 24 42
3 43 42 73
3 42 24 34
3 34 24 11
3 38 34 11
3 57 73 42
3 38 57 34
3 34 57 42
3 96 80 64
3 64 80 38
3 38 80 57
3 73 57 80
3 111 64 90
3 64 111 96
3 116 85 115
3 116 68 85
3 145 187 177
3 165 199 171
3 165 171 142
3 156 189 165
3 156 165 119
3 119 165 104
3 89 119 79
3 62 89 79
3 76 62 54
3 25 15 31
3 61 41 66
3 43 66 41
3 111 163 128
3 163 111 145
3 163 145 177
3 103 124 89
3 89 124 119
3 119 124 156
3 155 197 124
3 198 155 196
3 196 155 152
3 152 124 103
3 152 103 126
3 124 152 155
3 126 146 152
3 148 183 146
3 148 146 112
3 112 146 100
3 95 112 100
3 61 95 100
3 101 112 66
3 66 112 95
3 66 95 61
3 149 135 101
3 135 190 148
3 183 148 190
3 141 108 91
3 130 158 134
3 60 55 88
3 60 88 93
3 186 143 134
3 179 186 134
3 49 58 78
3 71 78 83
3 78 71 49
3 49 37 58
3 67 78 58
3 117 83 97
3 59 29 51
3 132 105 133
3 132 133 169
3 133 154 161
3 161 169 133
3 105 84 133
3 84 108 133
3 133 108 154
3 154 108 141
3 188 154 141
3 180 154 188
3 138 167 131
3 140 102 131
3 130 88 118
3 118 88 86
3 69 48 65
3 65 48 32
3 71 83 51
3 71 51 49
3 49 30 37
3 58 37 26
3 29 30 49
3 29 28 30
3 29 49 51
3 77 120 87
3 120 170 129
3 75 81 98
3 7 10 1
3 14 30 28
3 28 8 14
3 14 26 37
3 14 37 30
3 11 13 23
3 39 33 13
3 39 68 33
3 64 33 68
3 115 129 144
3 129 115 87
3 145 116 159
3 139 142 107
3 142 127 107
3 107 104 139
3 81 104 107
3 81 107 98
3 119 104 79
3 79 104 81
3 31 52 25
3 52 31 62
3 5 6 16
3 5 15 9
3 18 15 5
3 5 16 18
3 6 21 16
3 24 21 6
3 73 74 43
3 43 74 66
3 109 114 150
3 109 73 114
3 114 73 80
3 110 96 128
3 110 128 151
3 116 111 90
3 192 151 163
3 192 182 151
3 103 100 126
3 61 72 63
3 63 72 45
3 54 45 72
3 44 61 63
3 44 63 40
3 40 63 45
3 40 45 18
3 31 18 45
3 40 18 16
3 44 40 16
3 44 16 21
3 61 44 21
3 15 18 31
3 74 109 106
3 74 106 66
3 106 136 101
3 106 109 136
3 114 176 150
3 148 112 101
3 173 150 176
3 167 166 131
3 149 173 195
