ply
format ascii 1.0
comment Generated by MaSIF
element vertex 200
property float x
property float y
property float z
property float nx
property float ny
property float nz
property float charge
element face 348
property list uchar int vertex_indices
end_header
43.17 133.22 15.97 -0.09 -0.93 -0.36 0.01
42.05 133.57 16.51 -0.04 -1.00 0.06 -0.19
43.62 133.29 17.46 -0.08 -0.98 0.15 0.03
41.98 133.99 15.25 0.43 -0.73 -0.54 -0.56
44.58 134.11 15.27 0.18 -0.47 -0.86 -0.53
42.51 133.76 17.61 -0.25 -0.96 0.15 0.29
44.98 133.41 16.44 0.27 -0.95 -0.15 -0.49
43.33 135.34 14.84 0.31 -0.32 -0.90 -0.02
41.33 133.32 15.99 0.38 -0.92 0.11 -0.72
41.54 133.89 17.44 0.13 -0.98 0.16 0.42
44.69 133.61 18.18 0.31 -0.92 0.24 0.14
42.15 135.13 14.45 0.51 -0.59 -0.63 -0.03
42.70 133.79 19.02 -0.04 -1.00 0.03 0.02
40.86 132.98 14.96 0.78 -0.62 -0.06 0.13
46.39 134.16 15.93 0.61 -0.64 -0.46 -0.52
44.90 135.97 15.12 0.36 0.31 -0.88 -0.61
41.22 133.78 18.29 0.38 -0.91 -0.19 0.67
42.95 136.08 14.05 0.77 -0.14 -0.62 0.10
46.51 134.11 17.40 0.65 -0.72 0.23 0.36
40.52 133.48 17.35 0.50 -0.86 -0.07 -0.34
40.08 133.11 16.52 0.51 -0.80 0.32 -0.33
46.49 135.40 15.50 0.64 0.12 -0.76 -0.52
40.44 133.75 13.61 0.77 -0.20 -0.61 0.83
43.60 137.25 15.25 0.55 0.15 -0.82 -0.02
45.88 134.45 18.46 0.62 -0.65 0.44 0.77
45.34 134.49 19.47 0.67 -0.74 0.09 0.11
47.03 135.03 16.70 0.98 -0.08 -0.18 0.20
41.47 133.53 19.39 0.43 -0.90 0.05 0.32
40.97 135.09 13.39 0.48 -0.49 -0.72 0.22
41.64 135.77 13.05 0.42 -0.47 -0.78 0.19
42.49 136.83 13.22 0.73 0.05 -0.68 0.18
40.62 131.81 14.39 0.80 -0.58 0.11 0.11
44.14 133.63 20.11 0.13 -0.98 -0.13 0.05
39.40 132.74 17.19 0.65 -0.76 -0.00 -0.26
45.04 137.15 16.08 0.63 0.34 -0.70 0.23
42.29 133.93 20.70 -0.14 -0.95 0.28 -0.41
47.02 135.44 17.77 0.94 -0.11 0.33 1.01
46.41 135.33 18.81 0.92 -0.34 0.21 0.49
39.15 132.07 16.10 0.33 -0.83 0.45 0.13
39.69 134.49 12.91 0.51 -0.11 -0.86 1.04
42.79 138.02 14.74 0.68 0.11 -0.72 -0.72
39.36 132.49 18.32 0.59 -0.79 -0.15 -1.20
45.36 134.26 20.40 0.53 -0.70 -0.47 0.11
43.41 138.53 15.12 0.41 -0.23 -0.88 -0.45
40.34 132.51 19.64 0.51 -0.86 -0.05 -0.07
44.59 138.00 15.82 0.58 -0.22 -0.78 0.24
40.12 135.33 12.79 0.35 -0.34 -0.87 0.67
46.49 136.56 17.14 0.83 0.47 -0.31 0.87
40.24 132.11 13.18 0.73 -0.33 -0.60 0.19
46.10 135.15 20.29 0.67 -0.63 -0.38 -0.15
41.60 137.48 12.69 0.47 0.11 -0.87 0.36
41.24 133.79 20.78 0.32 -0.73 0.61 0.14
42.17 138.42 14.01 0.80 0.18 -0.57 0.28
39.32 132.95 12.22 0.35 -0.29 -0.89 0.28
39.51 131.17 13.61 0.35 -0.85 -0.40 0.17
42.75 133.75 21.62 -0.59 -0.80 -0.03 -0.06
38.28 131.93 16.84 0.00 -0.99 -0.14 -0.53
44.38 133.14 21.29 -0.06 -0.90 -0.44 0.12
45.24 138.10 16.93 0.85 -0.08 -0.52 0.51
40.29 133.06 20.91 0.41 -0.68 0.61 0.00
46.84 136.09 19.74 0.95 -0.25 -0.17 -0.68
42.25 134.68 22.10 -0.56 -0.80 0.21 -0.66
38.83 131.07 14.93 0.17 -0.93 0.32 0.15
37.61 131.91 15.88 -0.41 -0.81 0.42 0.11
39.37 132.34 20.19 0.37 -0.85 0.37 -0.30
38.87 131.66 19.00 0.61 -0.78 0.11 -1.70
39.75 136.40 12.45 0.37 -0.17 -0.92 1.10
42.64 139.23 14.59 0.53 -0.25 -0.81 -0.39
46.83 137.00 19.00 0.98 0.12 -0.15 -0.83
38.73 135.68 12.16 0.57 -0.23 -0.79 0.89
43.72 139.71 14.45 0.28 -0.48 -0.83 0.06
44.97 139.20 15.24 0.60 -0.43 -0.67 0.14
41.00 135.03 21.92 0.08 -0.87 0.48 -0.48
38.34 130.99 13.66 -0.08 -0.89 -0.44 0.19
37.24 132.21 16.95 -0.28 -0.77 -0.57 -1.36
45.54 133.14 21.61 0.42 -0.78 -0.46 0.16
37.49 131.29 15.05 -0.35 -0.83 0.43 0.19
43.44 133.19 22.31 -0.58 -0.81 0.08 0.12
37.86 131.08 18.11 0.15 -0.94 -0.29 -1.95
45.98 137.74 17.84 0.83 0.31 -0.47 0.27
46.63 134.28 21.54 0.51 -0.64 -0.58 0.27
37.80 132.72 12.43 -0.26 -0.51 -0.82 0.41
41.14 138.96 13.03 0.64 -0.01 -0.77 0.40
47.34 136.16 20.74 0.54 -0.04 -0.84 0.23
44.61 132.62 22.51 -0.16 -0.99 -0.04 0.11
39.71 134.02 21.47 0.33 -0.68 0.66 -0.03
46.73 137.25 20.08 0.96 0.25 -0.09 -0.58
38.40 132.19 20.49 0.32 -0.73 0.61 -0.96
37.56 133.79 11.81 0.12 -0.57 -0.81 0.30
36.75 132.36 15.25 -0.66 -0.61 0.44 0.38
39.98 138.25 12.26 0.46 -0.13 -0.88 0.41
36.93 132.84 16.25 -0.55 -0.83 -0.04 -0.10
46.17 139.39 17.41 0.98 -0.08 -0.18 0.26
42.27 140.28 13.88 0.51 -0.43 -0.75 0.08
38.47 133.22 21.36 0.21 -0.65 0.73 -0.45
36.78 131.50 14.05 -0.70 -0.70 -0.12 0.28
37.38 131.25 19.88 0.00 -0.93 0.36 -1.14
37.50 131.70 13.02 -0.43 -0.54 -0.73 0.30
41.17 135.21 23.18 0.09 -0.99 0.06 0.16
46.50 138.42 18.63 0.95 -0.01 -0.30 0.16
42.45 134.57 23.90 -0.52 -0.85 0.05 0.40
43.77 133.34 23.55 -0.55 -0.76 0.34 0.23
47.04 137.12 21.42 0.70 0.43 -0.57 0.48
46.17 139.97 16.13 0.88 -0.25 -0.40 0.19
37.89 135.35 11.01 0.86 -0.31 -0.40 0.29
48.14 136.48 21.37 0.03 0.60 -0.80 0.38
40.42 139.57 12.33 0.62 -0.22 -0.75 0.41
39.74 134.60 22.20 0.26 -0.91 0.31 0.01
45.84 132.77 23.13 0.35 -0.93 0.09 0.07
47.83 134.54 21.81 -0.23 -0.66 -0.71 0.11
46.32 138.34 20.29 0.99 0.11 -0.11 0.19
36.34 131.60 18.15 -0.36 -0.82 -0.44 -1.65
45.24 141.01 14.75 0.76 0.06 -0.65 0.16
41.48 140.17 13.22 0.57 -0.52 -0.64 0.17
44.05 141.45 13.56 0.55 0.09 -0.83 0.16
36.53 133.39 13.29 -0.67 -0.50 -0.54 1.45
36.93 133.97 11.07 0.38 -0.92 0.09 0.09
44.87 133.02 23.97 -0.02 -0.82 0.57 0.10
38.91 138.22 11.80 0.65 -0.27 -0.71 0.53
37.31 132.66 21.31 0.16 -0.58 0.80 -0.95
38.28 137.43 11.26 0.80 -0.19 -0.57 0.87
35.79 133.12 14.91 -0.42 -0.90 -0.08 0.66
36.15 134.35 12.38 -0.43 -0.90 -0.07 0.80
47.00 133.70 23.44 0.15 -0.99 0.02 -0.02
35.77 133.55 16.27 -0.21 -0.95 -0.22 0.91
46.21 140.55 18.25 0.99 0.00 -0.14 0.30
38.60 134.31 22.69 0.27 -0.94 0.21 -0.03
42.79 141.23 12.93 0.61 -0.31 -0.73 0.22
40.44 140.73 11.95 0.53 -0.24 -0.81 0.50
39.99 134.67 23.14 0.34 -0.94 -0.09 0.12
37.20 133.77 21.99 0.11 -0.81 0.58 -0.45
39.06 139.56 11.08 0.69 -0.24 -0.68 0.53
46.57 139.72 19.42 0.99 0.02 -0.11 0.15
46.05 141.37 16.12 0.92 0.33 -0.24 0.20
43.82 134.15 24.81 -0.26 -0.90 0.36 0.51
46.09 141.46 17.53 0.93 0.22 -0.29 0.26
37.15 134.08 10.00 0.88 -0.46 -0.09 -1.02
45.43 133.77 24.51 0.18 -0.70 0.69 0.29
48.49 133.78 22.61 -0.36 -0.87 -0.34 -0.44
36.17 131.92 21.00 -0.02 -0.83 0.56 -1.54
40.36 134.57 24.45 0.36 -0.91 -0.21 0.27
47.95 138.04 22.06 0.09 0.52 -0.85 0.63
35.60 133.89 11.01 -0.27 -0.83 0.48 -0.65
49.85 135.98 20.62 0.09 0.26 -0.96 1.46
46.66 139.38 21.01 0.97 -0.09 -0.20 -1.01
49.59 137.17 21.27 0.21 0.62 -0.76 0.81
41.31 134.98 24.96 -0.00 -0.94 -0.35 1.20
38.45 138.46 10.66 0.80 -0.27 -0.54 1.30
46.89 138.69 21.99 0.80 0.21 -0.56 0.73
35.54 134.19 13.43 -0.44 -0.78 -0.44 0.85
41.72 141.16 12.08 0.40 -0.35 -0.84 0.28
42.59 134.34 25.67 -0.07 -0.94 -0.32 4.27
43.17 142.61 13.90 0.71 0.46 -0.53 0.44
35.14 133.23 17.02 0.19 -0.92 -0.33 0.71
46.59 134.13 24.64 -0.04 -0.90 0.43 0.01
44.52 142.65 14.89 0.62 0.65 -0.45 0.19
49.34 134.63 20.80 -0.12 -0.32 -0.94 0.26
37.39 136.28 9.34 0.92 -0.04 -0.39 -0.10
35.98 133.44 21.74 0.23 -0.60 0.77 -1.35
49.32 133.39 21.62 -0.30 -0.86 -0.42 0.40
34.86 132.50 17.84 0.09 -0.96 -0.25 0.70
48.18 133.19 23.92 -0.21 -0.97 -0.08 -1.15
34.76 134.86 12.66 -0.51 -0.81 -0.27 1.01
37.38 134.12 23.20 0.11 -0.99 -0.07 -0.02
38.77 134.17 23.94 0.30 -0.92 -0.26 0.33
37.56 137.90 9.71 0.86 -0.10 -0.50 0.79
37.19 134.49 9.02 0.89 -0.32 -0.32 -1.81
34.64 134.27 13.80 -0.37 -0.75 -0.55 1.05
47.95 133.59 25.01 -0.25 -0.83 0.50 -1.35
49.56 133.32 22.83 0.22 -0.98 -0.01 0.15
34.00 133.06 15.40 -0.13 -0.77 -0.62 0.65
39.49 141.33 11.27 0.78 -0.20 -0.59 0.57
41.96 142.57 12.18 0.61 0.21 -0.77 0.71
36.04 132.94 9.40 0.31 -0.95 0.06 -1.68
49.04 138.45 22.25 0.25 0.77 -0.59 0.43
50.73 135.13 21.01 0.68 -0.07 -0.73 0.34
44.51 143.05 16.22 0.58 0.76 -0.30 0.23
34.96 131.83 20.95 0.27 -0.92 0.27 0.09
43.13 143.40 15.22 0.46 0.87 -0.15 0.26
46.32 141.65 19.88 0.92 -0.22 -0.34 0.23
50.21 137.58 22.39 0.65 0.68 -0.35 0.62
34.38 134.90 11.07 -0.75 -0.58 0.32 0.12
46.86 140.31 21.89 0.93 -0.22 -0.29 -0.09
44.23 134.26 26.27 0.26 -0.96 0.01 0.93
37.72 138.99 9.77 0.76 -0.21 -0.62 0.94
39.22 134.04 25.07 0.40 -0.85 -0.35 0.45
50.94 136.85 21.97 0.81 0.47 -0.36 0.57
45.61 143.13 17.71 0.57 0.68 -0.46 0.26
42.48 143.70 13.67 0.73 0.61 -0.32 0.64
50.54 133.61 21.52 0.49 -0.72 -0.50 0.42
38.17 140.17 9.61 0.75 -0.43 -0.50 0.43
47.98 139.27 23.16 0.46 0.56 -0.69 0.73
43.31 133.77 26.78 0.33 -0.86 -0.39 3.53
40.28 142.83 11.72 0.52 -0.07 -0.85 0.41
40.78 134.21 26.07 0.25 -0.78 -0.57 0.71
36.43 134.10 23.70 0.09 -0.99 -0.15 -0.19
35.34 133.80 22.58 0.32 -0.88 0.36 -0.45
45.61 134.13 25.71 0.16 -0.93 0.34 -1.03
49.39 133.28 24.52 0.38 -0.85 0.37 -1.27
34.03 135.84 12.24 -0.89 -0.41 -0.20 1.45
3 162 199 181
3 89 121 95
3 121 170 167
3 167 149 121
3 149 122 115
3 163 130 126
3 139 160 96
3 96 160 111
3 96 65 87
3 64 65 41
3 41 44 64
3 65 78 33
3 33 78 56
3 33 56 38
3 56 78 74
3 38 56 63
3 38 63 76
3 78 111 74
3 56 74 91
3 56 91 63
3 89 76 63
3 91 121 89
3 63 91 89
3 115 95 121
3 28 39 46
3 136 166 157
3 104 136 157
3 126 94 85
3 85 94 59
3 119 94 130
3 94 119 87
3 94 87 64
3 59 94 64
3 72 51 35
3 51 59 27
3 35 51 27
3 19 44 41
3 9 19 20
3 53 22 48
3 28 46 29
3 46 66 29
3 66 46 69
3 120 69 104
3 151 100 134
3 134 101 117
3 101 134 77
3 134 100 77
3 72 35 61
3 61 35 55
3 55 77 100
3 57 55 32
3 35 27 12
3 8 1 9
3 5 1 0
3 1 8 3
3 3 0 1
3 0 3 7
3 22 3 13
3 3 8 13
3 8 20 13
3 13 20 31
3 31 20 38
3 31 22 13
3 22 28 11
3 11 28 29
3 29 17 11
3 11 17 7
3 7 17 23
3 17 30 52
3 52 30 50
3 30 29 50
3 52 50 82
3 106 82 90
3 90 131 106
3 147 118 120
3 184 131 147
3 184 190 131
3 171 128 131
3 154 197 134
3 154 134 137
3 197 183 134
3 137 134 117
3 117 108 123
3 168 123 161
3 108 75 123
3 161 123 138
3 84 101 77
3 42 57 32
3 42 32 25
3 25 10 24
3 15 23 34
3 34 23 45
3 15 34 47
3 71 70 112
3 188 152 172
3 152 114 127
3 152 127 172
3 114 93 127
3 127 93 113
3 172 150 193
3 150 113 128
3 198 161 169
3 161 138 169
3 169 138 159
3 156 159 109
3 60 49 25
3 143 109 83
3 145 143 105
3 86 68 110
3 60 37 68
3 47 68 37
3 47 37 36
3 25 37 60
3 36 37 24
3 18 24 10
3 58 103 92
3 92 125 132
3 92 133 135
3 135 133 176
3 133 112 176
3 176 112 155
3 178 114 152
3 178 152 188
3 175 156 143
3 180 186 145
3 174 145 141
3 177 139 158
3 130 163 196
3 130 196 158
3 195 196 163
3 121 153 170
3 121 124 153
3 124 121 91
3 122 149 162
3 122 162 181
3 162 149 167
3 115 122 88
3 115 88 81
3 88 122 116
3 122 142 116
3 126 164 163
3 139 119 158
3 158 119 130
3 64 87 65
3 33 41 65
3 153 124 111
3 74 111 91
3 91 111 124
3 160 153 111
3 153 160 170
3 39 22 53
3 69 46 39
3 69 88 104
3 53 88 39
3 39 88 69
3 116 136 104
3 116 104 88
3 194 185 140
3 151 146 100
3 98 100 146
3 98 146 140
3 140 146 194
3 98 140 129
3 72 61 98
3 100 98 61
3 85 72 98
3 51 72 85
3 51 85 59
3 107 85 98
3 107 98 129
3 126 85 107
3 126 107 129
3 16 12 27
3 16 27 44
3 16 44 19
3 9 12 16
3 9 16 19
3 20 19 33
3 20 33 38
3 33 19 41
3 28 22 39
3 90 66 118
3 118 66 120
3 69 120 66
3 157 165 120
3 183 151 134
3 100 61 55
3 35 12 32
3 35 32 55
3 12 5 2
3 1 5 9
3 9 5 12
3 7 3 11
3 22 11 3
3 45 23 43
3 45 43 70
3 43 23 40
3 40 23 17
3 52 40 17
3 67 70 43
3 52 67 40
3 40 67 43
3 113 93 82
3 82 93 52
3 52 93 67
3 70 67 93
3 128 82 106
3 82 128 113
3 131 118 147
3 131 90 118
3 151 183 192
3 154 123 168
3 123 154 137
3 123 137 117
3 138 109 159
3 109 138 123
3 109 123 80
3 80 123 75
3 49 80 42
3 25 49 42
3 37 25 24
3 12 2 10
3 47 34 58
3 45 58 34
3 128 193 150
3 193 128 171
3 60 83 49
3 49 83 80
3 80 83 109
3 105 143 83
3 145 105 141
3 141 105 102
3 102 83 60
3 102 60 86
3 83 102 105
3 148 141 102
3 148 102 110
3 144 148 110
3 86 110 102
3 132 144 110
3 132 110 99
3 99 110 68
3 79 99 68
3 47 79 68
3 92 99 58
3 58 99 79
3 58 79 47
3 135 125 92
3 144 182 148
3 148 191 141
3 141 191 174
3 125 179 132
3 144 132 179
3 181 142 122
3 139 177 160
3 78 65 96
3 78 96 111
3 73 76 95
3 97 95 115
3 95 97 73
3 73 62 76
3 89 95 76
3 149 115 121
3 88 53 81
3 166 136 173
3 136 116 173
3 116 142 173
3 129 140 126
3 130 94 126
3 139 96 119
3 119 96 87
3 64 44 59
3 59 44 27
3 97 115 81
3 97 81 73
3 73 54 62
3 76 62 38
3 53 54 73
3 53 48 54
3 53 73 81
3 104 157 120
3 55 57 77
3 9 20 8
3 31 54 48
3 48 22 31
3 31 38 62
3 31 62 54
3 17 29 30
3 66 50 29
3 66 90 50
3 82 50 90
3 147 165 184
3 165 147 120
3 171 131 190
3 108 117 84
3 117 101 84
3 84 75 108
3 57 75 84
3 57 84 77
3 80 75 42
3 42 75 57
3 10 32 12
3 32 10 25
3 0 7 4
3 0 2 5
3 6 2 0
3 0 4 6
3 7 15 4
3 23 15 7
3 70 71 45
3 45 71 58
3 112 114 155
3 112 70 114
3 114 70 93
3 127 113 150
3 127 150 172
3 131 128 106
3 198 168 161
3 189 159 156
3 189 156 175
3 189 169 159
3 60 68 86
3 47 36 26
3 26 36 18
3 24 18 36
3 21 47 26
3 21 26 14
3 14 26 18
3 14 18 6
3 10 6 18
3 14 6 4
3 21 14 4
3 21 4 15
3 47 21 15
3 2 6 10
3 71 112 103
3 71 103 58
3 103 133 92
3 103 112 133
3 114 178 155
3 156 109 143
3 186 143 145
3 186 175 143
3 132 99 92
3 176 155 178
3 140 185 164
3 140 164 126
3 135 176 187
