ply
format ascii 1.0
comment Generated by MaSIF
element vertex 192
property float x
property float y
property float z
property float nx
property float ny
property float nz
property float charge
element face 330
property list uchar int vertex_indices
end_header
44.07 135.25 13.50 0.63 -0.36 -0.69 -0.59
45.14 135.92 13.83 0.67 -0.05 -0.74 -1.47
43.04 135.28 12.61 0.63 -0.29 -0.72 0.06
44.05 134.22 14.68 0.64 -0.72 -0.28 -0.08
43.93 136.84 13.37 0.64 0.35 -0.69 -0.38
43.03 133.88 13.18 0.53 -0.58 -0.62 -0.05
45.32 134.84 14.91 0.69 -0.67 -0.26 -1.01
43.32 136.87 12.25 0.67 0.21 -0.71 0.00
45.80 135.93 14.83 0.98 -0.01 -0.18 -0.92
42.38 135.99 11.74 0.36 -0.18 -0.92 0.04
43.28 133.37 15.07 0.76 -0.60 -0.27 -0.39
43.69 133.87 16.01 0.74 -0.65 0.16 0.06
45.02 137.37 14.56 0.73 0.28 -0.62 -0.66
42.97 138.22 13.87 0.26 0.75 -0.61 0.13
42.26 133.00 13.94 0.31 -0.65 -0.70 -0.32
45.44 135.50 16.10 0.85 -0.51 0.12 -0.82
42.03 137.63 12.17 0.09 0.66 -0.74 0.07
41.31 134.35 12.67 -0.08 -0.71 -0.70 0.03
45.60 136.65 15.74 0.99 0.11 -0.12 -0.61
41.38 135.41 11.64 0.05 -0.36 -0.93 0.02
43.96 134.48 16.78 0.54 -0.84 -0.03 0.09
43.22 132.44 15.88 0.88 -0.46 -0.05 -0.98
40.81 136.70 11.69 -0.19 0.29 -0.94 0.05
42.92 133.80 17.36 0.44 -0.86 0.25 -0.18
45.01 134.91 17.09 0.62 -0.68 -0.40 0.07
45.58 137.55 16.21 1.00 -0.04 -0.09 -0.12
41.03 133.74 13.53 -0.20 -0.63 -0.75 -0.09
42.47 131.89 14.79 0.34 -0.65 -0.68 -0.95
41.46 138.47 14.08 0.01 0.92 -0.38 0.11
44.94 139.04 14.89 0.54 0.19 -0.82 0.34
45.83 136.68 17.01 0.99 -0.10 -0.13 -0.04
45.87 138.47 15.78 0.93 -0.00 -0.36 0.04
40.10 134.66 12.90 -0.28 -0.71 -0.65 0.01
41.79 138.85 14.84 -0.19 0.67 -0.72 0.07
43.13 139.55 14.40 -0.06 0.23 -0.97 0.45
40.54 132.96 14.02 -0.01 -0.43 -0.90 0.34
40.18 135.52 11.81 -0.42 -0.28 -0.86 0.00
41.09 138.22 13.16 -0.06 0.89 -0.46 0.09
40.36 137.45 12.52 -0.36 0.59 -0.72 0.04
42.24 131.55 16.38 0.45 -0.80 0.39 -2.14
44.30 134.30 18.01 0.14 -0.88 -0.46 0.20
41.53 131.31 15.15 0.08 -0.90 -0.43 -0.90
40.78 138.79 14.78 0.26 0.68 -0.69 -0.24
45.88 135.85 17.80 0.91 -0.04 -0.42 0.88
41.66 139.63 15.33 -0.09 0.22 -0.97 0.38
40.03 132.10 14.22 0.28 -0.41 -0.87 0.25
40.08 138.09 13.31 -0.06 0.74 -0.67 -0.01
45.61 134.09 18.10 0.27 -0.55 -0.79 0.32
45.09 140.40 15.31 0.68 0.21 -0.70 0.98
41.44 133.27 18.07 0.51 -0.71 0.49 -0.53
45.84 139.54 16.67 0.98 -0.01 -0.20 0.41
39.48 133.92 13.77 0.00 -0.39 -0.92 0.48
38.79 135.12 13.02 -0.11 -0.51 -0.85 -1.26
42.13 140.60 15.08 -0.32 0.18 -0.93 1.04
43.46 141.16 14.42 -0.06 0.30 -0.95 0.60
42.28 134.11 19.22 0.14 -0.99 -0.05 -0.67
45.73 137.68 18.62 0.97 -0.00 -0.25 0.10
38.99 136.52 12.62 -0.10 0.20 -0.97 -0.71
40.53 131.32 15.63 0.26 -0.95 -0.14 -0.19
44.67 133.56 18.90 -0.39 -0.70 -0.60 0.01
45.77 138.85 17.94 0.92 -0.22 -0.33 0.07
43.10 133.80 19.76 -0.35 -0.92 -0.19 -0.30
41.06 132.03 17.50 0.41 -0.73 0.55 -0.30
40.18 139.66 14.91 0.56 0.23 -0.80 0.02
46.50 134.81 18.59 0.76 0.06 -0.65 0.59
39.73 139.15 14.01 0.51 0.37 -0.78 0.04
44.02 133.32 19.74 -0.32 -0.85 -0.42 -0.20
39.39 130.75 14.55 0.32 -0.87 -0.37 -0.06
38.71 137.85 13.35 0.23 0.39 -0.89 -0.24
45.19 141.62 15.97 0.79 0.26 -0.55 0.54
38.57 132.56 13.61 0.08 -0.19 -0.98 0.10
40.55 140.70 15.14 0.33 0.10 -0.94 0.08
46.05 136.73 19.25 0.84 0.19 -0.51 0.62
37.68 135.40 12.58 0.47 -0.46 -0.75 -0.15
42.29 141.79 15.40 -0.31 0.27 -0.91 1.28
38.07 134.09 13.50 0.12 -0.40 -0.91 -0.12
45.74 132.71 18.84 0.05 -0.59 -0.81 -0.20
38.39 131.26 14.04 -0.11 -0.57 -0.82 0.02
40.11 132.90 18.99 0.19 -0.84 0.52 -0.53
43.98 142.30 15.27 0.39 0.37 -0.85 0.54
37.94 136.67 12.26 0.70 0.05 -0.72 0.16
46.21 140.00 18.36 0.89 -0.05 -0.46 -0.21
39.43 131.01 16.44 0.13 -0.95 0.29 -0.01
40.99 141.63 15.66 0.24 0.42 -0.88 0.24
47.28 134.76 19.38 0.61 0.13 -0.78 -0.05
40.75 133.45 20.15 0.27 -0.94 -0.21 -0.69
42.53 133.32 21.01 -0.05 -0.86 -0.50 -0.22
39.59 131.35 17.72 0.08 -0.85 0.53 -0.15
46.76 138.08 20.03 0.82 -0.20 -0.54 -0.10
38.54 139.41 13.48 0.43 -0.13 -0.90 0.04
44.56 132.44 20.43 -0.53 -0.71 -0.46 -0.31
46.79 135.88 19.68 0.76 0.39 -0.52 0.27
37.34 132.70 13.86 -0.45 -0.28 -0.84 0.05
39.58 141.00 14.31 0.75 0.12 -0.65 -0.02
37.26 131.57 14.32 -0.60 -0.60 -0.53 0.01
41.76 142.77 15.81 -0.24 0.11 -0.96 0.78
45.03 142.90 16.51 0.71 0.37 -0.60 0.18
47.06 139.47 19.35 0.82 -0.12 -0.56 -1.05
38.20 130.63 15.80 -0.22 -0.97 0.05 -0.04
45.97 142.11 17.76 0.89 0.14 -0.43 0.18
46.82 132.36 19.43 0.14 -0.42 -0.90 -0.70
37.55 138.85 13.33 0.34 0.17 -0.92 0.17
38.70 133.21 18.92 -0.33 -0.84 0.43 -0.07
37.42 137.80 12.56 0.61 0.56 -0.56 0.58
36.66 133.30 14.02 -0.39 -0.77 -0.51 -0.04
46.44 141.46 18.88 0.91 0.08 -0.40 -0.01
36.45 134.56 11.97 0.65 -0.59 -0.47 0.26
37.40 137.51 11.41 0.70 0.51 -0.50 0.17
47.88 135.18 20.38 0.81 0.51 -0.28 -0.16
36.36 133.83 12.77 0.29 -0.84 -0.45 0.09
36.45 135.19 11.16 0.72 -0.48 -0.50 0.43
40.07 142.70 15.98 0.33 0.18 -0.92 -0.05
37.74 139.98 13.05 0.21 -0.30 -0.93 -0.08
41.40 133.13 21.03 0.27 -0.76 -0.59 -0.18
38.69 133.40 20.09 -0.19 -0.89 -0.42 -0.53
38.95 140.39 13.13 0.55 -0.20 -0.81 -0.00
43.17 143.80 15.30 0.40 -0.06 -0.92 0.24
40.36 132.55 20.99 0.22 -0.64 -0.73 -0.15
40.87 143.02 16.24 -0.08 -0.12 -0.99 0.14
45.87 131.28 20.79 -0.37 -0.78 -0.51 -0.75
39.46 142.50 15.38 0.76 0.14 -0.63 -0.34
43.21 132.41 22.28 -0.20 -0.98 0.01 -0.29
47.27 137.06 21.18 0.90 -0.41 -0.14 0.29
37.76 131.93 17.45 -0.39 -0.68 0.62 -0.06
36.75 136.53 10.66 0.84 0.01 -0.55 0.36
36.98 131.14 15.72 -0.56 -0.82 0.11 -0.04
45.85 143.30 17.77 0.83 0.31 -0.47 -0.28
47.96 133.14 19.53 0.44 0.10 -0.89 -1.70
36.66 138.54 12.62 0.51 0.56 -0.65 0.51
47.13 136.05 21.31 0.98 0.20 0.06 0.32
36.62 139.35 13.00 0.40 -0.01 -0.92 -0.04
38.77 142.29 14.14 0.79 0.19 -0.58 -0.52
42.27 132.26 22.29 0.50 -0.82 -0.27 -0.22
38.69 141.48 13.10 0.69 0.28 -0.66 -0.10
47.77 140.07 20.45 0.91 0.05 -0.42 -0.59
47.28 141.41 20.02 0.89 0.27 -0.37 -2.00
37.42 133.92 18.76 -0.45 -0.83 0.32 0.51
44.52 144.36 17.35 0.67 0.62 -0.41 0.22
46.54 142.91 19.09 0.92 0.36 -0.17 0.17
41.60 144.33 15.86 -0.05 -0.59 -0.81 0.19
44.58 131.48 22.36 -0.56 -0.79 0.25 -0.38
35.98 133.03 15.37 -0.47 -0.71 -0.52 -0.72
36.36 131.87 16.09 -0.75 -0.62 -0.23 -0.11
48.34 138.45 21.66 0.94 -0.26 -0.21 -0.16
40.57 143.97 15.63 0.47 -0.48 -0.74 -0.13
48.58 134.02 20.49 0.70 0.64 -0.32 -1.00
47.75 134.56 21.80 0.74 0.58 0.33 -0.55
35.90 137.98 10.97 0.54 0.72 -0.43 0.84
48.09 131.06 20.19 0.22 -0.64 -0.73 -1.70
35.09 133.93 14.30 -0.26 -0.90 -0.35 0.05
46.90 142.52 20.34 0.84 0.54 -0.08 -1.06
35.10 133.73 11.16 0.31 -0.91 -0.29 0.23
35.72 135.24 9.94 0.64 -0.56 -0.53 0.76
39.27 131.92 21.45 -0.08 -0.77 -0.63 0.08
43.44 144.48 14.46 0.37 -0.93 -0.02 0.22
37.26 141.38 12.52 0.52 -0.18 -0.83 -0.35
43.34 133.37 23.09 -0.18 -0.85 0.49 -0.41
41.55 131.60 22.94 0.47 -0.87 0.16 -0.18
34.56 134.26 13.21 -0.19 -0.98 -0.05 0.34
36.38 140.70 12.50 0.45 -0.50 -0.74 -0.36
48.18 139.86 21.52 0.95 0.31 -0.03 -0.39
47.68 140.84 21.40 0.90 0.43 -0.01 -1.23
38.24 143.08 13.46 0.76 -0.11 -0.64 -1.06
38.91 143.37 14.24 0.68 -0.35 -0.64 -1.42
40.56 131.22 21.96 0.19 -0.87 -0.46 -0.16
49.33 132.89 20.05 0.85 0.03 -0.52 -1.17
47.12 130.47 21.13 -0.23 -0.89 -0.39 -1.21
43.06 145.58 16.18 0.92 0.39 0.03 0.23
45.88 144.15 19.10 0.80 0.60 -0.02 0.23
45.83 130.70 22.35 -0.56 -0.82 0.05 -1.17
46.81 136.73 22.71 0.94 -0.27 0.20 -0.32
35.80 137.80 9.95 0.66 0.66 -0.37 0.86
36.70 133.94 20.80 -0.72 -0.69 -0.06 -0.94
35.26 138.92 12.05 0.66 0.53 -0.53 0.37
35.97 136.60 9.06 0.68 0.01 -0.73 0.51
38.10 131.97 21.46 -0.24 -0.74 -0.63 -0.27
46.55 135.62 22.82 0.96 0.24 0.15 -0.01
47.62 137.83 22.93 0.80 -0.43 0.42 -0.19
42.18 133.14 23.91 0.51 -0.78 0.35 0.20
42.11 145.12 14.12 -0.28 -0.92 -0.27 0.31
36.19 134.07 18.16 -0.23 -0.88 0.42 -0.35
34.21 133.85 14.76 -0.01 -0.87 -0.50 0.74
45.92 143.33 20.40 0.74 0.65 0.20 0.10
43.74 145.84 14.81 0.85 -0.15 0.51 0.54
44.59 145.04 18.66 0.69 0.61 -0.40 -0.31
34.96 132.89 16.24 -0.10 -1.00 -0.01 -0.17
48.15 139.07 22.97 0.88 -0.06 0.47 -0.21
49.47 133.33 21.24 0.86 0.50 0.09 -1.20
35.10 139.83 12.13 0.70 -0.13 -0.71 -0.03
34.98 138.41 10.30 0.62 0.71 -0.32 1.43
36.37 133.45 17.43 -0.33 -0.68 0.66 -0.94
36.23 134.33 19.79 -0.53 -0.83 0.18 -0.20
3 191 180 136
3 185 123 190
3 185 142 123
3 181 149 185
3 149 181 158
3 191 136 172
3 102 136 123
3 62 49 78
3 49 62 39
3 62 87 58
3 62 58 39
3 82 87 123
3 70 45 77
3 45 51 35
3 92 142 104
3 109 104 158
3 104 109 75
3 92 104 75
3 73 109 106
3 109 158 151
3 174 124 152
3 171 124 174
3 171 147 124
3 114 153 175
3 164 153 117
3 117 113 132
3 85 49 55
3 40 66 23
3 11 23 21
3 11 21 10
3 10 3 11
3 27 14 21
3 10 21 14
3 14 5 10
3 41 58 27
3 45 27 58
3 58 67 45
3 39 58 41
3 67 58 82
3 14 35 26
3 14 26 17
3 57 36 52
3 32 52 36
3 52 73 57
3 80 57 73
3 73 110 80
3 107 103 80
3 68 80 103
3 189 147 171
3 159 155 112
3 169 140 119
3 90 121 66
3 66 121 86
3 66 40 59
3 40 47 59
3 59 47 76
3 47 64 76
3 76 64 84
3 72 91 64
3 84 64 91
3 56 43 30
3 43 47 24
3 47 40 24
3 24 40 20
3 11 3 6
3 3 5 0
3 3 0 6
3 2 5 9
3 5 17 9
3 19 22 9
3 22 36 38
3 112 115 89
3 68 89 65
3 115 93 89
3 89 93 65
3 71 93 83
3 166 119 148
3 148 119 100
3 119 76 100
3 76 119 90
3 100 84 127
3 127 84 108
3 127 108 145
3 145 108 146
3 146 108 129
3 177 122 143
3 129 108 91
3 122 129 88
3 91 88 129
3 143 122 88
3 97 88 60
3 50 25 31
3 18 30 15
3 18 12 25
3 25 12 31
3 31 12 29
3 1 4 12
3 4 1 0
3 0 7 4
3 0 2 7
3 16 13 7
3 12 13 34
3 13 37 28
3 37 38 46
3 65 46 68
3 46 65 42
3 42 28 46
3 37 46 28
3 71 63 93
3 33 44 34
3 53 71 83
3 74 53 83
3 143 134 160
3 88 134 143
3 88 97 134
3 134 161 160
3 134 135 161
3 135 97 81
3 105 81 50
3 34 54 48
3 34 53 54
3 53 74 54
3 74 95 116
3 74 116 79
3 182 150 138
3 138 150 105
3 135 105 150
3 138 105 126
3 105 50 99
3 99 69 96
3 69 50 48
3 69 79 96
3 137 96 116
3 33 34 13
3 33 13 28
3 90 66 59
3 141 142 185
3 136 180 190
3 123 136 190
3 104 142 141
3 158 104 149
3 149 104 141
3 149 141 185
3 114 172 102
3 102 172 136
3 117 114 85
3 85 114 78
3 102 78 114
3 114 117 153
3 82 58 87
3 75 73 52
3 73 75 109
3 110 73 106
3 110 152 124
3 147 189 173
3 132 86 121
3 113 86 132
3 85 113 117
3 86 113 85
3 61 86 55
3 55 86 85
3 49 23 55
3 40 23 20
3 11 20 23
3 5 3 10
3 35 14 27
3 45 35 27
3 51 26 35
3 75 52 51
3 75 51 70
3 51 52 32
3 68 57 80
3 103 128 101
3 130 112 101
3 130 101 128
3 159 130 188
3 173 128 147
3 128 173 188
3 128 188 130
3 112 130 159
3 121 156 178
3 140 156 121
3 132 121 178
3 91 72 88
3 56 72 43
3 15 30 24
3 24 30 43
3 11 15 20
3 20 15 24
3 2 0 5
3 26 32 17
3 32 26 51
3 57 38 36
3 46 38 57
3 46 57 68
3 89 68 101
3 89 101 112
3 101 68 103
3 63 65 93
3 120 131 144
3 144 131 163
3 93 131 83
3 120 83 131
3 162 163 131
3 155 162 133
3 133 162 131
3 176 129 170
3 129 176 146
3 170 122 177
3 122 170 129
3 72 56 88
3 88 56 60
3 60 25 50
3 25 60 56
3 18 25 30
3 13 4 7
3 4 13 12
3 28 42 33
3 44 33 42
3 44 42 63
3 44 63 71
3 65 63 42
3 34 44 53
3 53 44 71
3 95 74 83
3 144 118 111
3 95 118 144
3 120 144 111
3 83 120 111
3 83 111 95
3 95 111 118
3 179 116 139
3 154 116 179
3 144 139 95
3 116 95 139
3 81 105 135
3 60 50 81
3 167 137 116
3 154 183 116
3 116 183 167
3 99 126 105
3 116 96 79
3 125 123 142
3 125 98 123
3 87 62 78
3 87 78 102
3 87 102 123
3 125 142 94
3 92 94 142
3 94 98 125
3 82 123 98
3 98 94 77
3 77 94 92
3 77 92 70
3 45 70 51
3 151 152 110
3 117 132 164
3 132 157 164
3 49 85 78
3 27 21 39
3 27 39 41
3 49 39 23
3 21 23 39
3 67 98 77
3 67 77 45
3 67 82 98
3 92 75 70
3 124 80 110
3 80 124 107
3 103 107 128
3 128 107 147
3 147 107 124
3 121 90 140
3 119 140 90
3 66 86 61
3 47 43 64
3 64 43 72
3 5 14 17
3 19 17 36
3 36 17 32
3 36 22 19
3 93 115 133
3 133 115 155
3 133 131 93
3 115 112 155
3 169 119 166
3 100 76 84
3 59 76 90
3 91 108 84
3 8 1 12
3 1 8 6
3 1 6 0
3 8 12 18
3 8 18 15
3 8 15 6
3 6 15 11
3 7 9 16
3 9 7 2
3 22 38 16
3 22 16 9
3 17 19 9
3 16 37 13
3 38 37 16
3 165 148 127
3 145 165 127
3 165 145 187
3 187 145 146
3 148 100 127
3 143 160 186
3 143 186 177
3 97 135 134
3 97 60 81
3 31 29 48
3 31 48 50
3 12 34 29
3 48 29 34
3 50 69 99
3 54 79 48
3 79 54 74
3 48 79 69
3 138 126 168
3 138 168 182
3 168 126 137
3 126 99 96
3 96 137 126
3 151 110 106
3 151 106 109
3 30 25 56
3 23 66 61
3 23 61 55
