ply
format ascii 1.0
comment Generated by MaSIF
element vertex 200
property float x
property float y
property float z
property float nx
property float ny
property float nz
property float charge
element face 341
property list uchar int vertex_indices
end_header
-14.63 131.47 28.36 -0.47 0.32 -0.82 -0.01
-15.20 130.63 28.19 -0.26 0.22 -0.94 0.09
-15.54 131.60 28.88 -0.40 0.62 -0.68 0.04
-13.72 131.42 27.41 -0.87 -0.12 -0.48 0.04
-14.01 132.68 28.63 -0.84 0.18 -0.51 -0.24
-14.52 129.88 28.05 -0.22 0.13 -0.97 0.11
-13.56 130.15 27.84 -0.64 0.04 -0.77 -0.24
-14.95 132.82 29.84 -0.79 0.51 -0.33 -0.71
-16.57 131.61 29.50 -0.71 0.58 -0.41 0.05
-16.57 130.26 28.63 -0.61 0.22 -0.76 0.07
-13.96 129.23 27.78 -0.47 0.46 -0.75 0.07
-13.06 130.60 27.02 -0.93 -0.15 -0.34 0.02
-13.63 132.72 27.10 -1.00 0.03 0.00 0.04
-16.33 132.16 30.70 -0.61 0.78 0.17 0.00
-15.42 128.64 28.24 -0.56 0.01 -0.83 0.13
-13.38 133.69 27.66 -0.95 0.10 -0.30 0.17
-14.14 134.20 28.60 -0.70 -0.32 -0.64 0.58
-14.69 132.88 31.29 -0.77 0.50 0.40 -1.26
-14.78 133.91 29.66 -0.94 -0.30 -0.16 0.16
-13.37 129.09 27.07 -0.79 0.51 -0.35 0.38
-17.03 131.17 30.77 -0.89 0.39 0.23 0.02
-13.16 131.34 25.62 -0.90 -0.39 -0.22 -0.02
-14.54 134.06 30.98 -0.93 -0.06 0.35 -0.15
-17.33 130.21 30.18 -0.99 0.10 0.05 0.04
-17.19 129.10 29.36 -0.90 -0.29 -0.32 0.00
-12.89 130.12 26.00 -0.97 0.12 -0.23 0.08
-13.57 133.59 26.50 -0.96 0.24 0.17 -0.08
-13.99 132.46 26.08 -0.99 -0.11 0.08 -0.00
-13.64 134.81 27.89 -0.73 -0.18 -0.65 0.51
-14.86 128.20 26.99 -0.80 0.48 -0.36 0.45
-15.44 131.78 31.70 -0.54 0.57 0.62 0.01
-13.18 134.64 27.14 -0.99 0.05 -0.12 -0.04
-15.18 134.74 28.73 -0.69 -0.42 -0.59 0.17
-13.68 128.74 26.06 -0.66 0.70 -0.30 1.04
-16.23 130.82 31.95 -0.68 0.41 0.61 0.03
-14.08 133.35 32.39 -0.91 0.32 0.27 -0.12
-16.48 128.06 29.52 -0.85 -0.28 -0.45 -0.38
-14.49 131.97 32.56 -0.86 0.43 0.26 0.48
-12.51 129.45 25.14 -0.83 0.16 -0.53 0.24
-12.77 132.09 24.33 -0.84 -0.45 -0.28 -0.52
-16.94 129.26 30.99 -0.96 -0.23 0.18 0.06
-13.75 132.66 25.00 -0.86 -0.34 -0.38 -0.10
-15.84 126.53 29.14 -0.85 -0.39 -0.37 -0.66
-15.67 135.70 29.62 -0.86 -0.50 -0.10 0.36
-14.63 135.46 31.75 -0.79 -0.34 0.51 0.26
-13.64 134.21 25.05 -0.99 -0.08 0.06 -0.35
-15.27 135.79 31.02 -0.83 -0.40 0.40 0.43
-13.35 135.03 25.74 -0.92 -0.05 0.39 -0.36
-13.98 135.22 32.58 -0.64 -0.02 0.77 0.09
-13.31 128.41 24.92 -0.63 0.67 -0.39 1.28
-15.42 130.71 32.67 -0.65 0.54 0.53 -0.09
-13.47 136.30 27.47 -0.70 -0.37 -0.61 0.37
-14.78 127.82 25.39 -0.78 0.46 -0.42 0.60
-16.62 127.94 31.12 -0.94 -0.24 0.25 -0.59
-14.83 136.25 28.24 -0.53 -0.32 -0.79 0.84
-15.31 126.38 27.52 -0.94 -0.12 -0.31 0.34
-13.21 136.37 26.57 -0.95 -0.30 0.02 -0.03
-13.08 134.40 33.26 -0.37 0.61 0.70 -0.04
-16.73 126.82 30.47 -0.96 -0.26 -0.06 -1.47
-13.04 132.84 23.47 -0.92 -0.39 0.01 -1.06
-12.61 131.87 23.28 -0.92 -0.30 0.25 -1.42
-13.60 133.89 33.83 -0.58 0.80 0.18 0.05
-16.61 129.08 32.45 -0.86 -0.17 0.48 -0.05
-14.87 130.96 33.53 -0.85 0.43 0.31 0.34
-14.40 132.92 33.91 -0.92 0.38 0.06 0.10
-14.83 126.01 26.23 -0.90 -0.30 -0.31 0.98
-11.97 130.91 24.28 -0.89 -0.40 -0.24 -0.34
-11.68 130.08 24.15 -0.94 0.11 -0.31 -0.05
-12.59 128.65 24.01 -0.73 0.64 -0.23 0.78
-15.16 125.51 30.00 -0.54 -0.83 -0.14 -0.61
-15.71 129.45 33.44 -0.84 0.06 0.54 -0.32
-16.14 125.77 30.59 -0.60 -0.80 -0.04 -0.92
-14.57 131.36 34.42 -0.95 0.15 0.28 0.25
-14.31 135.13 24.56 -0.83 -0.36 0.42 0.19
-14.62 125.28 29.17 -0.53 -0.85 0.01 -0.12
-15.71 136.81 28.29 -0.54 -0.45 -0.71 0.86
-16.01 136.99 30.82 -0.83 -0.31 0.47 0.76
-15.01 125.18 28.20 -0.74 -0.67 -0.07 0.04
-14.85 137.07 32.49 -0.51 -0.11 0.86 0.23
-16.73 137.11 29.35 -0.95 -0.28 -0.12 0.51
-14.96 137.36 27.75 -0.48 -0.44 -0.76 1.43
-13.99 136.44 25.59 -0.84 -0.31 0.44 0.20
-14.12 126.93 24.37 -0.87 0.02 -0.49 0.54
-15.71 127.47 32.30 -0.63 -0.41 0.66 -0.08
-13.31 133.81 35.01 -0.27 0.80 0.53 0.01
-13.71 134.26 23.06 -0.90 -0.42 -0.13 -1.11
-12.72 136.60 32.25 -0.08 0.23 0.97 0.34
-11.77 129.24 23.85 -0.85 0.52 -0.01 0.14
-16.00 126.21 31.68 -0.62 -0.48 0.62 -1.01
-14.09 132.94 35.25 -0.74 0.49 0.45 0.02
-14.92 125.55 31.19 -0.35 -0.79 0.50 -0.82
-11.61 134.42 33.73 -0.34 0.68 0.65 -0.72
-14.13 125.57 25.11 -0.81 -0.47 -0.35 0.54
-14.42 137.93 26.74 -0.84 -0.41 -0.35 0.55
-14.13 124.74 30.13 -0.57 -0.82 0.06 -0.04
-13.54 127.58 22.90 -1.00 0.06 -0.07 0.24
-12.04 135.66 32.71 -0.30 0.43 0.85 0.05
-14.07 124.76 27.25 -0.62 -0.78 -0.04 0.41
-12.05 129.75 22.83 -0.93 -0.06 0.37 -0.13
-13.85 133.88 22.09 -1.00 -0.01 -0.05 -1.16
-15.00 135.46 23.43 -0.95 -0.28 -0.12 0.08
-15.20 128.93 34.65 -0.84 0.03 0.54 -0.95
-15.13 128.02 33.21 -0.65 -0.53 0.54 -0.39
-14.16 131.84 35.81 -0.58 -0.08 0.81 -0.06
-12.27 128.70 22.48 -0.76 0.43 0.48 0.19
-13.54 132.57 21.50 -1.00 -0.03 0.03 -2.62
-13.65 130.32 35.36 -0.37 -0.13 0.92 -0.19
-14.74 136.68 24.10 -0.98 0.19 0.08 0.36
-16.02 138.25 28.06 -0.79 -0.27 -0.54 1.11
-16.37 138.44 30.69 -0.89 -0.04 0.46 1.05
-14.46 137.63 25.05 -0.99 0.14 -0.02 0.72
-15.43 138.27 31.85 -0.50 0.03 0.86 0.76
-16.65 138.67 29.19 -0.99 0.04 -0.12 0.67
-11.30 133.80 34.96 0.06 0.80 0.60 -0.11
-14.41 127.21 32.82 -0.27 -0.71 0.65 0.06
-12.00 133.45 35.63 0.25 0.49 0.84 -0.04
-13.09 137.88 32.30 0.08 0.34 0.94 0.34
-14.50 127.75 34.24 -0.50 -0.75 0.44 -0.98
-13.40 130.36 21.54 -0.65 0.02 0.76 -1.05
-13.36 135.14 21.85 -0.90 0.10 -0.43 -1.19
-13.42 125.41 23.92 -0.80 -0.38 -0.46 0.18
-13.92 125.51 31.91 -0.71 -0.35 0.61 0.07
-11.25 136.24 32.87 -0.55 0.27 0.79 0.74
-10.40 134.95 34.00 -0.09 0.14 0.99 -0.17
-13.56 124.37 31.05 -0.79 -0.62 -0.03 0.88
-13.01 124.28 28.11 -0.73 -0.66 0.16 0.07
-12.54 132.34 36.12 0.02 0.21 0.98 -0.04
-14.53 129.64 35.29 -0.53 0.16 0.83 -0.90
-11.35 137.68 32.23 -0.41 0.49 0.77 0.26
-13.36 134.33 20.99 -0.88 0.24 -0.40 -1.73
-14.17 138.63 25.40 -0.71 0.58 -0.39 0.69
-12.54 124.06 29.35 -0.65 -0.75 -0.05 0.10
-14.32 127.69 22.11 -0.31 -0.28 0.91 0.22
-14.28 136.12 22.43 -0.79 0.07 -0.60 0.15
-14.23 139.59 26.12 -0.19 0.23 -0.95 0.59
-13.77 126.60 32.32 -0.38 -0.43 0.82 0.09
-13.73 128.44 35.20 0.04 -0.55 0.84 -2.14
-12.48 130.94 35.80 0.08 -0.20 0.98 -0.01
-15.57 139.24 26.81 -0.57 -0.27 -0.78 1.16
-12.48 127.20 21.25 -0.34 -0.85 -0.40 0.23
-12.84 124.05 24.85 -0.76 -0.61 -0.21 0.18
-14.15 138.82 32.01 0.14 0.30 0.94 1.03
-13.10 132.55 20.04 -0.89 0.46 -0.08 -0.80
-13.98 131.65 20.66 -0.63 0.68 0.39 -0.34
-12.69 123.65 27.01 -0.81 -0.59 -0.03 -0.21
-15.14 139.64 32.11 -0.29 0.09 0.95 1.69
-13.71 138.25 23.70 -0.77 0.56 -0.30 0.05
-13.93 129.00 21.45 -0.23 0.41 0.88 0.31
-12.15 128.97 34.90 0.21 -0.58 0.79 -0.30
-12.88 127.29 33.09 -0.09 -0.47 0.88 -0.18
-13.96 127.21 20.81 0.04 -0.98 0.20 0.54
-12.87 125.75 32.65 -0.59 0.11 0.80 0.20
-12.27 125.43 22.59 -0.59 -0.43 -0.68 0.22
-12.51 135.62 20.82 -0.93 0.03 -0.37 -1.12
-13.36 139.26 25.85 -0.20 0.76 -0.62 0.49
-16.39 140.05 27.40 -0.93 -0.11 -0.36 0.03
-11.84 138.48 31.52 -0.05 0.54 0.84 -0.03
-10.72 131.94 35.06 0.64 0.09 0.77 -0.06
-11.38 130.21 35.63 0.32 -0.27 0.91 -0.15
-9.25 134.25 33.41 0.33 -0.32 0.89 -0.53
-14.75 130.02 21.21 -0.04 0.39 0.92 0.89
-12.62 124.10 23.67 -0.75 -0.54 -0.39 -0.28
-13.40 124.56 32.85 -0.89 0.14 0.43 0.32
-12.88 134.11 19.90 -0.96 0.25 -0.11 -0.67
-12.25 123.53 30.37 -0.80 -0.53 -0.27 0.62
-13.27 123.51 32.18 -0.91 -0.39 -0.16 0.59
-8.83 135.23 33.94 0.13 -0.51 0.85 -0.33
-10.50 138.76 31.80 -0.53 0.39 0.75 -0.26
-13.17 140.22 26.68 0.10 0.52 -0.85 0.50
-14.76 140.67 26.19 -0.15 0.03 -0.99 0.80
-16.38 140.69 30.72 -0.93 0.01 0.37 0.52
-10.41 137.53 33.65 -0.67 0.40 0.62 -0.14
-14.84 131.29 20.52 -0.19 0.77 0.61 0.16
-9.91 133.12 33.58 0.64 0.03 0.77 -0.94
-13.14 132.70 19.00 -0.88 0.26 0.41 -0.06
-13.25 137.06 21.75 -0.95 0.01 -0.30 -0.71
-12.15 123.15 25.63 -0.76 -0.63 -0.15 -0.01
-12.23 139.53 31.03 0.03 0.27 0.96 0.13
-9.62 136.65 34.75 -0.28 -0.00 0.96 -0.18
-12.26 122.47 27.65 -0.88 -0.47 0.03 -1.05
-13.75 131.91 19.10 -0.70 0.68 0.20 -0.11
-11.41 127.36 20.27 -0.22 -0.96 -0.16 0.55
-11.71 122.49 29.13 -0.87 -0.48 0.11 -0.10
-14.64 131.62 19.36 -0.33 0.94 -0.07 0.08
-15.64 129.00 21.80 0.15 0.21 0.97 1.87
-16.09 127.42 21.61 -0.10 -0.74 0.66 0.99
-11.25 126.39 21.44 -0.53 -0.53 -0.66 0.33
-13.32 139.78 31.12 0.34 0.23 0.91 0.55
-15.96 140.97 26.75 -0.72 0.06 -0.70 0.57
-12.34 125.06 33.50 -0.44 0.65 0.62 0.01
-13.60 141.61 26.83 0.45 0.56 -0.70 0.55
-12.32 139.00 24.03 -0.53 0.82 -0.20 -0.24
-11.65 128.32 33.74 0.12 -0.65 0.75 -0.53
-15.31 141.24 31.83 -0.08 0.11 0.99 0.64
-15.26 126.59 20.43 0.07 -0.96 0.27 1.18
-12.31 135.06 19.57 -0.95 0.20 0.22 -0.22
-11.05 124.75 22.09 -0.58 -0.46 -0.67 -0.31
-12.19 139.81 26.04 -0.58 0.58 -0.57 0.44
-12.78 136.65 20.01 -0.94 -0.34 -0.03 -0.42
-12.94 122.46 32.32 -0.95 -0.19 -0.25 -0.05
3 173 159 123
3 171 122 123
3 128 156 116
3 116 156 177
3 187 193 145
3 170 145 193
3 123 157 173
3 123 113 157
3 122 96 123
3 96 122 86
3 116 177 141
3 141 177 187
3 141 187 145
3 141 145 111
3 116 141 111
3 116 111 78
3 109 111 145
3 111 76 78
3 138 169 134
3 169 190 134
3 192 148 136
3 148 158 106
3 148 106 136
3 137 158 157
3 64 72 89
3 72 37 63
3 61 113 57
3 48 57 86
3 57 48 35
3 61 57 35
3 22 48 44
3 48 86 78
3 78 86 116
3 79 43 76
3 75 43 79
3 75 54 43
3 138 93 108
3 138 134 93
3 93 134 130
3 130 134 154
3 110 81 93
3 110 107 81
3 107 110 146
3 114 149 117
3 114 117 102
3 102 83 114
3 101 70 117
3 102 117 70
3 70 62 102
3 127 106 101
3 72 101 106
3 106 103 72
3 136 106 127
3 103 106 137
3 70 63 50
3 70 50 34
3 7 13 17
3 30 17 13
3 17 22 7
3 18 7 22
3 22 46 18
3 32 16 18
3 4 18 16
3 80 54 75
3 81 73 47
3 47 73 45
3 47 45 26
3 133 146 175
3 151 162 189
3 131 124 94
3 124 162 121
3 162 151 121
3 121 151 135
3 114 83 88
3 83 62 53
3 83 53 88
3 40 62 23
3 62 34 23
3 20 8 23
3 8 13 2
3 26 27 12
3 4 12 3
3 27 21 12
3 12 21 3
3 25 21 38
3 59 85 99
3 85 133 119
3 85 119 99
3 119 129 99
3 59 105 60
3 183 172 143
3 105 129 163
3 179 182 125
3 97 74 77
3 69 94 90
3 69 42 74
3 74 42 77
3 77 42 55
3 58 36 42
3 36 58 53
3 53 24 36
3 53 40 24
3 9 14 24
3 42 14 29
3 14 1 5
3 1 2 0
3 3 0 4
3 0 3 6
3 6 5 0
3 1 0 5
3 25 11 21
3 10 19 29
3 33 25 38
3 49 33 38
3 118 143 160
3 160 143 172
3 176 144 97
3 29 52 65
3 29 33 52
3 33 49 52
3 49 68 95
3 49 95 82
3 150 132 185
3 150 181 139
3 152 139 186
3 176 97 140
3 140 92 120
3 92 97 65
3 92 82 120
3 152 120 95
3 10 29 14
3 10 14 5
3 159 166 123
3 91 113 123
3 86 122 128
3 86 128 116
3 128 122 171
3 128 167 156
3 57 113 91
3 86 57 96
3 96 57 91
3 96 91 123
3 109 76 111
3 197 154 168
3 190 168 134
3 134 168 154
3 137 106 158
3 35 22 17
3 22 35 48
3 46 22 44
3 46 76 43
3 93 130 110
3 108 93 80
3 54 80 51
3 56 51 93
3 56 93 81
3 93 51 80
3 151 149 135
3 114 135 149
3 62 83 102
3 63 70 101
3 72 63 101
3 37 50 63
3 35 17 37
3 35 37 64
3 37 17 30
3 4 7 18
3 16 28 15
3 31 26 15
3 31 15 28
3 47 31 56
3 81 47 56
3 51 28 54
3 28 51 56
3 28 56 31
3 26 31 47
3 153 129 119
3 153 175 198
3 175 153 133
3 133 153 119
3 131 164 124
3 90 94 121
3 121 94 124
3 114 90 135
3 135 90 121
3 40 53 62
3 50 30 34
3 30 50 37
3 7 2 13
3 0 2 7
3 0 7 4
3 12 4 15
3 12 15 26
3 15 4 16
3 11 3 21
3 66 39 98
3 98 39 60
3 21 39 38
3 66 38 39
3 59 60 39
3 100 85 73
3 73 85 45
3 45 85 59
3 45 59 41
3 41 59 39
3 118 105 143
3 174 180 142
3 180 143 142
3 174 142 163
3 163 142 105
3 105 142 143
3 183 143 180
3 195 163 153
3 153 163 129
3 164 131 182
3 182 131 125
3 125 74 97
3 74 125 131
3 69 74 94
3 14 36 24
3 36 14 42
3 5 6 10
3 19 10 6
3 19 6 11
3 19 11 25
3 3 11 6
3 29 19 33
3 33 19 25
3 68 49 38
3 98 87 67
3 68 87 98
3 66 98 67
3 38 66 67
3 38 67 68
3 68 67 87
3 147 95 104
3 132 95 147
3 118 147 104
3 118 104 98
3 98 104 68
3 95 68 104
3 160 147 118
3 125 97 144
3 139 152 95
3 132 150 95
3 95 150 139
3 139 181 186
3 140 161 176
3 95 120 82
3 178 171 123
3 178 123 166
3 115 157 113
3 115 126 157
3 109 145 170
3 188 169 138
3 188 138 155
3 108 155 138
3 115 113 84
3 61 84 113
3 84 126 115
3 137 157 126
3 126 84 89
3 89 84 61
3 89 61 64
3 72 64 37
3 78 76 46
3 112 109 170
3 79 112 108
3 79 108 75
3 79 76 109
3 79 109 112
3 130 191 146
3 130 146 110
3 101 117 136
3 101 136 127
3 192 136 149
3 117 149 136
3 103 126 89
3 103 89 72
3 103 137 126
3 61 35 64
3 43 18 46
3 18 43 32
3 16 32 28
3 28 32 54
3 54 32 43
3 108 80 75
3 107 73 81
3 107 146 133
3 162 124 165
3 165 124 164
3 62 70 34
3 20 34 13
3 13 34 30
3 13 8 20
3 21 27 41
3 41 27 45
3 41 39 21
3 27 26 45
3 100 107 133
3 133 85 100
3 100 73 107
3 99 129 105
3 59 99 105
3 71 58 42
3 58 71 88
3 58 88 53
3 71 42 69
3 71 69 90
3 71 90 88
3 88 90 114
3 24 23 9
3 23 24 40
3 8 2 9
3 8 9 23
3 34 20 23
3 9 1 14
3 2 1 9
3 60 105 118
3 60 118 98
3 179 125 144
3 77 55 65
3 77 65 97
3 42 29 55
3 65 55 29
3 160 184 147
3 132 147 184
3 132 184 185
3 194 150 185
3 97 92 140
3 52 82 65
3 82 52 49
3 65 82 92
3 186 196 152
3 161 140 120
3 120 152 161
3 78 46 44
3 78 44 48
3 191 130 154
3 191 154 197
3 94 74 131
