ply
format ascii 1.0
comment Generated by MaSIF
element vertex 200
property float x
property float y
property float z
property float nx
property float ny
property float nz
property float charge
element face 341
property list uchar int vertex_indices
end_header
-14.01 132.46 26.98 -0.99 -0.11 -0.08 0.04
-14.03 133.40 26.48 -0.99 0.09 0.11 -0.08
-14.26 132.29 25.91 -0.97 -0.25 -0.02 -0.00
-13.95 133.39 27.66 -0.93 0.01 -0.37 0.17
-13.94 131.14 27.14 -0.80 -0.18 -0.57 0.04
-14.50 132.20 28.46 -0.82 0.12 -0.56 -0.24
-13.25 131.35 25.41 -0.81 -0.48 -0.33 -0.02
-13.98 132.64 24.88 -0.77 -0.40 -0.49 -0.10
-13.85 134.42 27.26 -0.98 -0.07 -0.20 -0.04
-14.38 134.43 27.98 -0.65 -0.20 -0.73 0.51
-13.15 130.47 26.72 -0.87 -0.23 -0.44 0.02
-14.83 133.68 28.58 -0.60 -0.33 -0.73 0.58
-14.09 134.17 25.10 -0.97 -0.22 -0.04 -0.35
-13.63 129.86 27.45 -0.58 0.05 -0.81 -0.24
-13.97 134.94 25.90 -0.93 -0.22 0.30 -0.36
-14.92 130.95 28.01 -0.45 0.35 -0.82 -0.01
-15.54 132.07 29.59 -0.83 0.44 -0.34 -0.71
-12.84 130.13 25.69 -0.96 0.02 -0.30 0.08
-12.88 132.28 24.25 -0.75 -0.53 -0.40 -0.52
-15.51 133.19 29.55 -0.87 -0.41 -0.27 0.16
-15.35 130.07 27.70 -0.22 0.29 -0.93 0.09
-15.95 134.06 28.67 -0.58 -0.44 -0.69 0.17
-15.87 130.90 28.46 -0.43 0.63 -0.64 0.04
-13.89 128.91 27.25 -0.47 0.48 -0.74 0.07
-14.56 129.44 27.54 -0.17 0.21 -0.96 0.11
-13.18 133.08 23.45 -0.85 -0.51 -0.12 -1.06
-14.84 135.05 24.66 -0.80 -0.51 0.30 0.19
-14.39 135.97 27.74 -0.59 -0.39 -0.71 0.37
-12.30 129.63 24.80 -0.80 0.11 -0.58 0.24
-13.24 128.93 26.59 -0.82 0.44 -0.36 0.38
-14.09 136.18 26.88 -0.90 -0.42 -0.09 -0.03
-14.79 136.26 25.85 -0.82 -0.47 0.33 0.20
-15.79 135.65 28.38 -0.42 -0.29 -0.86 0.84
-15.39 131.99 31.05 -0.86 0.35 0.38 -1.26
-14.02 134.45 23.13 -0.82 -0.52 -0.25 -1.11
-12.61 132.22 23.20 -0.88 -0.45 0.14 -1.42
-15.39 133.21 30.88 -0.94 -0.23 0.26 -0.15
-11.91 131.23 24.14 -0.80 -0.49 -0.35 -0.34
-16.93 130.70 28.99 -0.75 0.52 -0.41 0.05
-16.86 131.14 30.25 -0.72 0.66 0.20 0.00
-16.63 134.83 29.61 -0.77 -0.59 -0.23 0.36
-13.42 128.66 25.53 -0.72 0.63 -0.28 1.04
-16.68 129.48 27.97 -0.58 0.23 -0.78 0.07
-15.49 135.41 23.51 -0.89 -0.39 -0.23 0.08
-15.28 128.08 27.53 -0.49 0.03 -0.87 0.13
-14.58 127.86 26.29 -0.83 0.41 -0.37 0.45
-16.74 136.07 28.41 -0.41 -0.43 -0.80 0.86
-15.46 136.56 24.33 -1.00 0.04 0.01 0.36
-12.93 128.52 24.40 -0.69 0.62 -0.37 1.28
-11.50 130.48 23.95 -0.92 0.02 -0.38 -0.05
-15.38 137.43 25.39 -1.00 0.01 -0.10 0.72
-12.18 128.96 23.59 -0.79 0.56 -0.23 0.78
-16.03 136.78 28.00 -0.35 -0.41 -0.84 1.43
-14.03 134.16 22.12 -0.98 -0.14 -0.14 -1.16
-16.35 134.82 31.05 -0.79 -0.55 0.28 0.43
-14.93 132.40 32.25 -0.96 0.16 0.22 -0.12
-16.00 130.76 31.28 -0.66 0.41 0.63 0.01
-13.71 135.50 22.06 -0.87 0.03 -0.50 -1.19
-13.50 132.98 21.43 -0.98 -0.17 -0.06 -2.62
-17.42 130.06 30.15 -0.95 0.23 0.19 0.02
-15.51 137.53 27.11 -0.75 -0.47 -0.46 0.55
-15.15 130.98 32.23 -0.93 0.27 0.23 0.48
-15.73 134.49 31.79 -0.77 -0.50 0.40 0.26
-14.80 136.27 22.65 -0.75 0.03 -0.66 0.15
-17.53 129.15 29.44 -1.00 -0.04 -0.03 0.04
-11.72 130.25 22.58 -0.93 -0.23 0.28 -0.13
-17.18 128.17 28.53 -0.83 -0.37 -0.43 0.00
-11.45 129.67 23.56 -0.92 0.40 -0.03 0.14
-15.26 138.41 25.88 -0.76 0.52 -0.39 0.69
-14.33 127.69 24.67 -0.80 0.40 -0.44 0.60
-16.66 129.68 31.35 -0.77 0.24 0.59 0.03
-15.11 134.24 32.64 -0.68 -0.20 0.70 0.09
-17.87 136.11 29.40 -0.89 -0.39 -0.23 0.51
-17.24 135.92 30.91 -0.81 -0.47 0.36 0.76
-13.53 134.80 21.12 -0.88 0.17 -0.45 -1.73
-17.23 137.48 28.31 -0.71 -0.31 -0.64 1.11
-16.34 127.22 28.64 -0.77 -0.33 -0.55 -0.38
-14.64 138.29 24.19 -0.82 0.49 -0.31 0.05
-13.48 127.02 23.62 -0.83 -0.04 -0.56 0.54
-14.80 125.96 26.58 -0.89 -0.21 -0.40 0.34
-13.05 130.82 21.24 -0.70 -0.16 0.70 -1.05
-12.88 127.91 22.29 -0.99 -0.07 -0.15 0.24
-11.77 129.23 22.10 -0.85 0.27 0.45 0.19
-15.90 129.60 32.13 -0.76 0.39 0.52 -0.09
-12.87 136.20 21.17 -0.90 -0.05 -0.44 -1.12
-14.16 133.48 33.31 -0.50 0.47 0.73 -0.04
-14.64 132.84 33.77 -0.70 0.69 0.21 0.05
-12.95 133.19 20.01 -0.93 0.34 -0.10 -0.80
-15.46 125.85 28.15 -0.75 -0.45 -0.48 -0.66
-13.73 132.11 20.46 -0.74 0.54 0.40 -0.34
-15.45 129.81 33.06 -0.92 0.28 0.27 0.34
-15.30 131.77 33.68 -0.97 0.24 0.01 0.10
-14.18 125.80 25.31 -0.82 -0.38 -0.42 0.98
-15.51 139.26 26.68 -0.15 0.31 -0.94 0.59
-14.59 139.08 26.46 -0.26 0.79 -0.55 0.49
-16.23 135.95 32.67 -0.55 -0.27 0.79 0.23
-17.07 128.16 30.18 -0.92 -0.38 0.07 0.06
-16.84 138.66 27.21 -0.46 -0.25 -0.85 1.16
-15.28 130.15 34.00 -0.98 -0.01 0.21 0.25
-13.87 137.41 22.18 -0.92 -0.08 -0.38 -0.71
-17.99 137.67 29.41 -0.98 -0.08 -0.21 0.67
-12.94 134.77 20.06 -0.98 0.13 -0.17 -0.67
-17.80 137.31 30.90 -0.90 -0.21 0.38 1.05
-16.83 127.86 31.63 -0.86 -0.34 0.39 -0.05
-16.92 137.13 32.11 -0.56 -0.13 0.82 0.76
-16.58 126.89 30.19 -0.91 -0.39 0.14 -0.59
-14.04 135.81 32.57 -0.18 0.10 0.98 0.34
-16.48 125.85 29.42 -0.91 -0.38 -0.17 -1.47
-14.39 124.73 27.15 -0.63 -0.75 -0.20 0.04
-14.53 131.67 20.21 -0.34 0.66 0.67 0.16
-14.43 132.66 34.96 -0.42 0.69 0.59 0.01
-13.34 125.59 24.21 -0.71 -0.53 -0.47 0.54
-12.93 133.46 19.00 -0.93 0.09 0.35 -0.06
-13.39 139.18 24.72 -0.63 0.76 -0.15 -0.24
-16.06 128.23 32.74 -0.88 -0.11 0.47 -0.32
-13.61 128.01 21.45 -0.33 -0.43 0.84 0.22
-17.81 139.27 27.81 -0.87 -0.19 -0.45 0.03
-12.53 125.67 23.07 -0.70 -0.43 -0.57 0.18
-15.10 131.67 35.04 -0.84 0.33 0.44 0.02
-13.22 137.27 20.45 -0.88 -0.46 -0.15 -0.42
-13.37 129.42 20.97 -0.35 0.27 0.90 0.31
-14.70 124.83 28.96 -0.40 -0.87 -0.28 -0.61
-14.31 130.34 20.76 -0.16 0.27 0.95 0.89
-13.43 132.59 18.96 -0.80 0.56 0.21 -0.11
-14.59 139.96 27.39 0.09 0.62 -0.78 0.50
-16.19 140.24 26.82 -0.08 0.12 -0.99 0.80
-14.29 132.15 19.11 -0.46 0.89 0.00 0.08
-12.50 135.82 19.88 -0.99 0.04 0.16 -0.22
-12.74 133.64 33.91 -0.48 0.55 0.68 -0.72
-15.75 124.89 29.48 -0.48 -0.86 -0.17 -0.92
-13.53 139.76 26.81 -0.61 0.56 -0.55 0.44
-14.08 124.77 28.15 -0.41 -0.90 -0.13 -0.12
-11.67 127.87 20.71 -0.19 -0.84 -0.52 0.23
-13.27 134.92 32.99 -0.42 0.28 0.86 0.05
-13.33 124.56 26.25 -0.50 -0.85 -0.18 0.41
-13.91 139.01 22.53 -0.92 0.34 0.20 -0.06
-12.96 136.57 19.41 -0.89 -0.25 0.38 -0.04
-13.27 134.80 19.01 -0.83 -0.06 0.55 0.16
-15.05 130.51 35.47 -0.62 -0.25 0.74 -0.06
-14.06 138.20 21.23 -0.94 -0.33 -0.05 -0.18
-14.59 137.01 32.73 -0.04 0.23 0.97 0.34
-14.30 129.13 34.91 -0.41 -0.28 0.87 -0.19
-17.47 140.32 27.30 -0.66 0.04 -0.75 0.57
-15.76 137.82 32.45 0.03 0.20 0.98 1.03
-13.10 127.73 20.14 0.17 -0.98 0.10 0.54
-11.30 126.00 21.86 -0.47 -0.43 -0.77 0.22
-15.23 141.25 27.65 0.41 0.69 -0.59 0.55
-15.57 127.65 33.92 -0.87 -0.14 0.47 -0.95
-16.85 138.49 32.54 -0.37 -0.06 0.93 1.69
-15.69 126.42 31.39 -0.61 -0.57 0.55 -0.08
-15.76 125.21 30.63 -0.59 -0.63 0.51 -1.01
-12.44 132.92 35.09 -0.10 0.72 0.69 -0.11
-13.65 133.80 18.11 -0.89 -0.19 0.42 0.00
-14.56 124.76 30.16 -0.27 -0.88 0.39 -0.82
-13.13 132.41 35.65 0.12 0.41 0.90 -0.04
-16.87 141.29 27.08 -0.30 0.57 -0.76 0.70
-15.26 126.93 32.40 -0.61 -0.67 0.42 -0.39
-13.59 124.19 29.10 -0.45 -0.89 -0.08 -0.04
-16.05 131.31 20.27 -0.27 0.81 0.52 1.23
-12.59 135.58 33.28 -0.64 0.10 0.76 0.74
-12.84 137.05 32.79 -0.53 0.34 0.78 0.26
-14.23 140.98 28.26 0.04 0.77 -0.64 0.37
-12.90 139.73 23.45 -0.76 0.61 0.22 -0.02
-11.64 134.28 34.34 -0.18 0.01 0.98 -0.17
-12.78 140.56 26.48 -0.77 0.06 -0.64 0.36
-11.54 124.51 22.77 -0.63 -0.59 -0.51 -0.28
-15.08 129.15 21.16 0.05 0.12 0.99 1.87
-13.54 131.18 35.97 -0.08 0.10 0.99 -0.04
-13.46 137.95 18.98 -0.95 0.14 -0.30 -0.11
-18.03 141.03 29.00 -0.92 0.23 -0.32 0.28
-18.12 139.52 31.16 -0.94 -0.16 0.29 0.52
-14.33 138.97 20.52 -0.99 -0.15 -0.04 -0.07
-11.84 124.30 23.91 -0.65 -0.68 -0.34 0.18
-14.00 140.01 21.71 -0.83 0.48 0.30 -0.01
-14.15 132.01 17.41 -0.74 0.66 -0.16 0.08
-15.06 128.36 34.69 -0.61 -0.01 0.79 -0.90
-12.16 140.54 24.62 -0.87 0.44 -0.22 0.17
-10.57 128.28 19.85 -0.07 -0.96 -0.28 0.55
-12.27 124.12 27.14 -0.64 -0.77 0.02 0.07
-15.29 127.57 20.76 -0.04 -0.82 0.57 0.99
-12.54 140.61 25.52 -0.88 0.33 -0.33 0.27
-15.91 131.38 18.93 -0.38 0.86 -0.35 1.21
-10.35 127.22 20.91 -0.40 -0.51 -0.76 0.33
-14.69 126.63 33.45 -0.42 -0.85 0.31 -0.98
-13.93 136.53 18.51 -0.86 0.14 0.48 0.01
-13.26 129.85 35.52 0.03 -0.30 0.95 -0.01
-14.18 135.17 17.94 -0.86 -0.15 0.49 0.16
-13.82 132.92 17.03 -0.98 -0.03 0.20 -0.75
-16.30 129.79 21.11 -0.25 0.26 0.93 3.14
-13.95 133.97 17.08 -0.87 -0.34 0.36 -0.07
-13.39 137.86 32.12 -0.19 0.43 0.88 -0.03
-11.79 123.68 26.02 -0.71 -0.68 -0.16 -0.21
-13.45 141.20 28.21 -0.74 0.44 -0.51 0.39
-14.26 127.00 19.59 0.19 -0.97 0.17 1.18
-15.01 138.99 31.74 0.24 0.17 0.96 0.55
-14.09 127.30 34.54 0.06 -0.63 0.77 -2.14
-14.42 126.27 32.00 -0.21 -0.81 0.55 0.06
-12.79 140.69 22.53 -0.65 0.67 0.37 0.00
-16.41 142.06 28.23 -0.02 0.89 -0.46 0.66
-9.97 125.56 21.40 -0.46 -0.45 -0.76 -0.31
3 160 190 140
3 159 133 163
3 133 159 106
3 143 194 148
3 143 148 104
3 140 143 104
3 140 104 95
3 102 104 148
3 104 73 95
3 100 169 75
3 75 169 116
3 97 125 93
3 125 146 93
3 180 130 164
3 91 98 118
3 98 61 90
3 86 151 85
3 71 85 106
3 85 71 55
3 86 85 55
3 36 71 62
3 71 106 95
3 95 106 140
3 72 40 73
3 46 40 72
3 46 32 40
3 97 60 75
3 97 93 60
3 60 93 68
3 68 93 94
3 50 31 60
3 50 47 31
3 47 50 77
3 113 180 176
3 135 162 197
3 162 135 113
3 113 135 77
3 77 135 99
3 196 183 156
3 156 149 196
3 147 114 183
3 156 183 114
3 114 103 156
3 175 141 147
3 98 147 141
3 141 138 98
3 195 141 175
3 138 141 185
3 114 90 83
3 114 83 70
3 16 39 33
3 56 33 39
3 33 36 16
3 19 16 36
3 36 54 19
3 21 11 19
3 5 19 11
3 52 32 46
3 31 26 14
3 14 26 12
3 14 12 1
3 119 99 139
3 63 77 99
3 99 135 139
3 136 168 184
3 196 149 150
3 149 103 105
3 149 105 150
3 96 103 64
3 103 70 64
3 59 38 64
3 38 39 22
3 1 2 0
3 5 0 4
3 2 6 0
3 0 6 4
3 17 6 28
3 25 34 53
3 34 63 57
3 34 57 53
3 57 74 53
3 25 58 35
3 126 109 89
3 58 74 101
3 134 131 108
3 121 157 153
3 121 88 131
3 131 88 108
3 108 88 79
3 107 76 88
3 76 107 105
3 105 66 76
3 105 96 66
3 42 44 66
3 88 44 45
3 44 20 24
3 20 22 15
3 4 15 5
3 15 4 13
3 13 24 15
3 20 15 24
3 17 10 6
3 23 29 45
3 41 17 28
3 48 41 28
3 80 89 122
3 122 89 109
3 122 109 158
3 109 126 158
3 158 126 181
3 126 123 174
3 45 69 92
3 45 41 69
3 41 48 69
3 48 51 81
3 48 81 78
3 144 115 179
3 166 122 188
3 144 177 132
3 145 132 182
3 172 111 117
3 111 134 92
3 111 78 117
3 145 117 81
3 23 45 44
3 23 44 24
3 128 151 163
3 106 159 160
3 106 160 140
3 85 151 128
3 106 85 133
3 133 85 128
3 133 128 163
3 102 73 104
3 130 94 124
3 146 124 93
3 93 124 94
3 130 124 161
3 130 161 192
3 146 161 124
3 55 36 33
3 36 55 71
3 54 36 62
3 54 73 40
3 60 68 50
3 75 60 52
3 32 52 27
3 30 27 60
3 30 60 31
3 60 27 52
3 162 113 176
3 103 149 156
3 90 114 147
3 98 90 147
3 61 83 90
3 55 33 61
3 55 61 91
3 61 33 56
3 5 16 19
3 11 9 3
3 8 1 3
3 8 3 9
3 14 8 30
3 31 14 30
3 27 9 32
3 9 27 30
3 9 30 8
3 1 8 14
3 84 74 57
3 84 99 119
3 99 84 63
3 63 84 57
3 136 119 168
3 96 105 103
3 83 56 70
3 56 83 61
3 16 22 39
3 15 22 16
3 15 16 5
3 0 5 3
3 0 3 1
3 3 5 11
3 10 4 6
3 37 18 65
3 65 18 35
3 6 18 28
3 37 28 18
3 25 35 18
3 43 34 26
3 26 34 12
3 12 34 25
3 12 25 7
3 7 25 18
3 80 58 89
3 112 123 87
3 123 89 87
3 112 87 101
3 123 112 152
3 152 112 137
3 137 112 101
3 101 87 58
3 58 87 89
3 126 89 123
3 127 101 84
3 136 127 84
3 136 84 119
3 84 101 74
3 101 127 137
3 137 127 136
3 178 131 134
3 121 131 157
3 44 76 66
3 76 44 88
3 24 13 23
3 29 23 13
3 29 13 10
3 29 10 17
3 4 10 13
3 45 29 41
3 41 29 17
3 51 48 28
3 65 67 49
3 51 67 65
3 37 65 49
3 28 37 49
3 28 49 51
3 51 49 67
3 120 81 82
3 115 81 120
3 80 120 82
3 80 82 65
3 65 82 51
3 81 51 82
3 122 120 80
3 174 123 187
3 189 187 152
3 152 187 123
3 178 134 191
3 132 145 81
3 115 144 81
3 81 144 132
3 132 177 182
3 81 117 78
3 102 148 170
3 170 169 100
3 142 125 97
3 142 97 116
3 142 116 169
3 75 116 97
3 155 125 142
3 155 142 169
3 155 169 198
3 198 146 155
3 155 146 125
3 154 151 110
3 86 110 151
3 110 167 154
3 167 110 118
3 118 110 86
3 118 86 91
3 98 91 61
3 95 73 54
3 100 102 170
3 72 100 75
3 72 75 46
3 72 73 102
3 72 102 100
3 68 113 77
3 68 77 50
3 180 113 130
3 197 173 135
3 147 183 195
3 147 195 175
3 138 167 118
3 138 118 98
3 138 185 167
3 86 55 91
3 40 19 54
3 19 40 21
3 11 21 9
3 9 21 32
3 32 21 40
3 75 52 46
3 47 26 31
3 47 77 63
3 173 171 135
3 171 139 135
3 171 119 139
3 119 171 168
3 103 114 70
3 59 70 39
3 39 70 56
3 39 38 59
3 6 2 7
3 7 2 12
3 7 18 6
3 2 1 12
3 43 47 63
3 63 34 43
3 43 26 47
3 53 74 58
3 25 53 58
3 129 107 88
3 107 129 150
3 107 150 105
3 129 88 121
3 129 121 153
3 129 153 150
3 150 153 196
3 66 64 42
3 64 66 96
3 38 22 42
3 38 42 64
3 70 59 64
3 42 20 44
3 22 20 42
3 35 58 80
3 35 80 65
3 186 152 137
3 184 186 137
3 184 137 136
3 108 79 92
3 108 92 134
3 88 45 79
3 92 79 45
3 122 166 120
3 115 120 166
3 115 166 179
3 193 144 179
3 158 188 122
3 134 111 172
3 69 78 92
3 78 69 48
3 92 78 111
3 182 199 145
3 165 172 117
3 117 145 165
3 95 54 62
3 95 62 71
3 113 68 94
3 113 94 130
