ply
format ascii 1.0
comment Generated by MaSIF
element vertex 200
property float x
property float y
property float z
property float nx
property float ny
property float nz
property float charge
element face 339
property list uchar int vertex_indices
end_header
-15.46 130.01 28.05 -0.25 0.27 -0.93 0.09
-14.70 129.33 27.88 -0.20 0.18 -0.96 0.11
-14.97 130.88 28.30 -0.46 0.34 -0.82 -0.01
-15.90 130.88 28.79 -0.43 0.63 -0.65 0.04
-16.80 129.49 28.40 -0.60 0.23 -0.76 0.07
-15.49 128.00 27.95 -0.53 0.02 -0.85 0.13
-14.07 128.76 27.59 -0.48 0.48 -0.74 0.07
-13.76 129.71 27.74 -0.61 0.04 -0.79 -0.24
-16.95 130.75 29.37 -0.74 0.54 -0.40 0.05
-14.03 130.99 27.39 -0.83 -0.16 -0.53 0.04
-14.48 132.12 28.69 -0.83 0.14 -0.53 -0.24
-17.33 128.22 29.02 -0.86 -0.34 -0.38 0.00
-15.47 132.08 29.87 -0.82 0.47 -0.32 -0.71
-17.60 129.25 29.91 -1.00 0.01 0.01 0.04
-16.81 131.24 30.61 -0.68 0.70 0.20 0.00
-13.45 128.73 26.90 -0.82 0.46 -0.34 0.38
-13.28 130.26 26.97 -0.90 -0.21 -0.39 0.02
-17.42 130.18 30.58 -0.93 0.28 0.22 0.02
-14.85 127.71 26.69 -0.83 0.44 -0.36 0.45
-16.54 127.24 29.13 -0.80 -0.32 -0.50 -0.38
-14.04 132.30 27.18 -1.00 -0.06 -0.04 0.04
-15.27 132.04 31.32 -0.82 0.40 0.40 -1.26
-13.91 133.25 27.82 -0.94 0.04 -0.33 0.17
-15.39 133.19 29.78 -0.90 -0.37 -0.22 0.16
-17.16 128.28 30.66 -0.94 -0.33 0.12 0.06
-15.75 125.81 28.66 -0.79 -0.43 -0.43 -0.66
-14.74 133.61 28.76 -0.64 -0.33 -0.69 0.58
-13.69 128.43 25.86 -0.71 0.65 -0.27 1.04
-15.93 130.86 31.62 -0.61 0.47 0.64 0.01
-13.39 131.10 25.63 -0.85 -0.45 -0.28 -0.02
-15.22 133.25 31.11 -0.94 -0.17 0.30 -0.15
-13.03 129.87 25.93 -0.96 0.05 -0.26 0.08
-16.63 129.81 31.76 -0.73 0.30 0.61 0.03
-16.73 126.98 30.70 -0.92 -0.34 0.19 -0.59
-14.04 133.23 26.65 -0.98 0.14 0.15 -0.08
-14.34 132.10 26.13 -0.98 -0.21 0.03 -0.00
-16.71 125.91 29.97 -0.93 -0.34 -0.12 -1.47
-14.28 134.32 28.12 -0.69 -0.20 -0.70 0.51
-14.68 127.47 25.07 -0.80 0.42 -0.42 0.60
-13.78 134.25 27.38 -0.99 -0.03 -0.16 -0.04
-15.83 134.05 28.89 -0.63 -0.44 -0.65 0.17
-15.14 125.83 27.07 -0.92 -0.18 -0.36 0.34
-16.87 128.01 32.12 -0.86 -0.28 0.43 -0.05
-13.25 128.22 24.71 -0.68 0.64 -0.36 1.28
-14.74 132.48 32.48 -0.94 0.22 0.25 -0.12
-15.00 124.79 29.48 -0.45 -0.86 -0.23 -0.61
-12.56 129.31 25.04 -0.82 0.13 -0.56 0.24
-15.03 131.07 32.53 -0.91 0.33 0.26 0.48
-16.02 124.92 30.04 -0.52 -0.84 -0.12 -0.92
-14.58 125.60 25.78 -0.86 -0.36 -0.38 0.98
-15.84 129.72 32.51 -0.72 0.44 0.54 -0.09
-14.42 124.67 28.65 -0.45 -0.89 -0.08 -0.12
-14.77 124.61 27.66 -0.67 -0.73 -0.15 0.04
-13.03 131.97 24.42 -0.79 -0.50 -0.35 -0.52
-14.08 132.40 25.08 -0.81 -0.38 -0.44 -0.10
-16.44 134.89 29.82 -0.81 -0.56 -0.17 0.36
-15.46 134.58 31.98 -0.77 -0.45 0.45 0.26
-15.82 126.51 31.89 -0.61 -0.52 0.60 -0.08
-16.10 134.91 31.25 -0.80 -0.50 0.33 0.43
-15.97 125.28 31.17 -0.60 -0.58 0.55 -1.01
-14.11 133.94 25.25 -0.98 -0.18 0.01 -0.35
-14.82 134.33 32.81 -0.66 -0.14 0.74 0.09
-14.81 124.75 30.68 -0.29 -0.86 0.43 -0.82
-13.93 134.73 26.01 -0.93 -0.16 0.34 -0.36
-13.90 126.73 24.02 -0.85 -0.02 -0.52 0.54
-12.52 128.60 23.86 -0.78 0.59 -0.22 0.78
-16.04 128.39 33.17 -0.86 -0.05 0.51 -0.32
-13.92 124.11 29.60 -0.50 -0.87 -0.02 -0.04
-14.23 135.85 27.82 -0.64 -0.39 -0.67 0.37
-15.35 129.95 33.41 -0.89 0.33 0.30 0.34
-15.61 135.62 28.53 -0.47 -0.30 -0.83 0.84
-13.88 133.55 33.47 -0.45 0.52 0.73 -0.04
-13.81 125.31 24.66 -0.75 -0.51 -0.42 0.54
-14.37 132.96 33.97 -0.66 0.73 0.21 0.05
-13.95 136.01 26.94 -0.92 -0.38 -0.04 -0.03
-11.75 130.09 24.13 -0.94 0.05 -0.34 -0.05
-15.07 131.91 33.95 -0.96 0.29 0.04 0.10
-13.33 132.75 23.60 -0.88 -0.47 -0.06 -1.06
-12.81 131.85 23.36 -0.90 -0.40 0.19 -1.42
-15.32 127.03 32.86 -0.62 -0.63 0.47 -0.39
-13.76 124.36 26.73 -0.54 -0.83 -0.12 0.41
-12.12 130.87 24.31 -0.84 -0.46 -0.30 -0.34
-14.52 126.33 32.45 -0.23 -0.78 0.59 0.06
-15.12 130.31 34.34 -0.97 0.05 0.25 0.25
-13.32 127.53 22.62 -0.99 -0.03 -0.11 0.24
-11.75 129.27 23.77 -0.90 0.44 -0.01 0.14
-16.54 136.09 28.58 -0.47 -0.44 -0.77 0.86
-14.85 134.84 24.81 -0.81 -0.46 0.35 0.19
-16.94 136.05 31.10 -0.81 -0.41 0.41 0.76
-13.84 124.75 31.43 -0.70 -0.45 0.55 0.07
-15.85 136.10 32.82 -0.53 -0.22 0.82 0.23
-17.62 136.22 29.62 -0.92 -0.36 -0.18 0.51
-13.35 123.72 30.51 -0.72 -0.68 -0.11 0.88
-12.68 123.90 27.59 -0.67 -0.74 0.08 0.07
-15.53 127.82 34.36 -0.86 -0.09 0.51 -0.95
-15.82 136.75 28.11 -0.40 -0.42 -0.81 1.43
-14.11 132.81 35.16 -0.37 0.73 0.58 0.01
-12.24 123.63 28.84 -0.58 -0.80 -0.14 0.10
-14.69 136.09 25.94 -0.83 -0.42 0.38 0.20
-13.68 135.85 32.64 -0.14 0.14 0.98 0.34
-13.04 125.31 23.48 -0.75 -0.42 -0.52 0.18
-13.81 125.82 31.93 -0.37 -0.53 0.77 0.09
-14.12 134.14 23.27 -0.85 -0.49 -0.20 -1.11
-14.82 131.86 35.30 -0.80 0.39 0.46 0.02
-12.15 128.80 22.35 -0.82 0.33 0.47 0.19
-14.71 126.75 33.89 -0.44 -0.82 0.36 -0.98
-12.43 133.67 34.00 -0.43 0.60 0.68 -0.72
-12.04 129.83 22.78 -0.93 -0.17 0.32 -0.13
-12.94 134.93 33.06 -0.37 0.33 0.87 0.05
-15.30 137.44 27.18 -0.79 -0.45 -0.41 0.55
-14.81 130.71 35.77 -0.60 -0.19 0.77 -0.06
-14.18 133.82 22.27 -0.99 -0.10 -0.09 -1.16
-12.38 123.94 24.34 -0.69 -0.66 -0.29 0.18
-15.52 135.19 23.66 -0.92 -0.35 -0.18 0.08
-13.01 126.52 32.79 -0.08 -0.54 0.84 -0.18
-14.15 129.28 35.24 -0.39 -0.23 0.89 -0.19
-12.85 125.03 32.24 -0.62 -0.00 0.78 0.20
-14.08 127.64 21.81 -0.31 -0.38 0.87 0.22
-12.27 123.39 26.47 -0.75 -0.65 -0.11 -0.21
-14.95 128.53 35.08 -0.57 0.04 0.82 -0.90
-13.74 132.59 21.60 -0.99 -0.12 -0.02 -2.62
-16.97 137.52 28.45 -0.75 -0.30 -0.60 1.11
-17.43 137.46 31.06 -0.89 -0.15 0.42 1.05
-15.40 136.37 24.43 -0.99 0.09 0.05 0.36
-16.52 137.29 32.25 -0.53 -0.08 0.84 0.76
-17.67 137.78 29.57 -0.99 -0.04 -0.16 0.67
-13.28 123.78 32.32 -0.92 0.02 0.40 0.32
-12.11 132.98 35.20 -0.04 0.75 0.66 -0.11
-15.24 137.26 25.46 -1.00 0.05 -0.06 0.72
-12.18 127.38 21.00 -0.25 -0.84 -0.48 0.23
-11.94 123.06 29.83 -0.74 -0.58 -0.34 0.62
-12.80 132.52 35.80 0.17 0.44 0.88 -0.04
-14.05 127.43 34.94 0.06 -0.61 0.79 -2.14
-13.02 122.80 31.58 -0.86 -0.46 -0.23 0.59
-14.17 137.08 32.77 0.01 0.27 0.96 0.34
-13.40 130.41 21.48 -0.68 -0.10 0.73 -1.05
-12.12 124.10 23.18 -0.68 -0.57 -0.46 -0.28
-13.80 135.14 22.14 -0.88 0.05 -0.46 -1.19
-12.21 135.57 33.30 -0.60 0.16 0.78 0.74
-11.29 134.27 34.37 -0.14 0.05 0.99 -0.17
-13.79 129.02 21.27 -0.30 0.31 0.90 0.31
-13.64 127.29 20.49 0.13 -0.98 0.13 0.54
-11.85 125.54 22.21 -0.52 -0.43 -0.74 0.22
-13.25 131.33 36.19 -0.04 0.14 0.99 -0.04
-12.42 137.04 32.76 -0.48 0.39 0.79 0.26
-11.75 122.21 27.04 -0.83 -0.55 -0.04 -1.05
-11.26 122.16 28.54 -0.83 -0.56 0.03 -0.10
-13.70 134.40 21.22 -0.89 0.19 -0.42 -1.73
-15.06 138.25 25.90 -0.75 0.54 -0.38 0.69
-14.84 135.98 22.75 -0.77 0.04 -0.63 0.15
-11.63 123.05 25.08 -0.69 -0.69 -0.23 -0.01
-13.05 129.97 35.78 0.06 -0.27 0.96 -0.01
-12.29 124.32 33.05 -0.52 0.56 0.65 0.01
-15.24 139.15 26.69 -0.18 0.28 -0.94 0.59
-15.30 137.93 32.50 0.08 0.24 0.97 1.03
-16.57 138.63 27.29 -0.51 -0.26 -0.82 1.16
-12.60 121.78 31.66 -0.92 -0.26 -0.30 -0.05
-11.96 122.17 30.65 -0.69 -0.49 -0.53 0.27
-13.24 132.73 20.15 -0.92 0.38 -0.08 -0.80
-16.36 138.66 32.62 -0.33 -0.01 0.94 1.69
-14.05 131.70 20.67 -0.70 0.59 0.41 -0.34
-11.91 127.61 33.56 0.15 -0.69 0.71 -0.53
-11.09 127.70 20.08 -0.13 -0.96 -0.24 0.55
-12.51 128.11 34.75 0.23 -0.62 0.75 -0.30
-12.88 123.32 33.76 -0.86 0.23 0.46 -0.20
-15.50 128.84 21.54 0.09 0.15 0.98 1.87
-15.81 127.25 21.21 -0.06 -0.80 0.60 0.99
-14.51 138.05 24.20 -0.81 0.51 -0.29 0.05
-10.88 126.67 21.18 -0.46 -0.52 -0.72 0.33
-11.32 124.59 33.47 -0.41 0.42 0.81 -0.20
-11.03 126.44 32.81 -0.26 -0.16 0.95 -0.67
-17.48 139.31 27.90 -0.90 -0.17 -0.41 0.03
-12.96 137.85 32.09 -0.13 0.47 0.87 -0.03
-11.37 131.18 35.18 0.60 0.09 0.80 -0.06
-11.88 129.36 35.60 0.31 -0.31 0.90 -0.15
-10.05 133.74 33.78 0.33 -0.36 0.87 -0.53
-10.78 123.61 22.52 -0.21 -0.71 -0.67 0.23
-12.97 135.77 21.19 -0.91 -0.02 -0.40 -1.12
-11.23 122.95 23.67 -0.43 -0.77 -0.47 0.17
-14.70 129.98 21.07 -0.11 0.31 0.94 0.89
-14.34 138.92 26.43 -0.24 0.78 -0.57 0.49
-14.85 126.59 20.02 0.15 -0.97 0.20 1.18
-10.91 121.17 26.53 -0.70 -0.68 -0.21 -0.59
-10.56 125.01 21.72 -0.51 -0.46 -0.72 -0.31
-9.75 134.71 34.39 0.15 -0.56 0.82 -0.33
-13.16 134.30 20.14 -0.98 0.17 -0.13 -0.67
-11.66 138.22 32.44 -0.59 0.28 0.76 -0.26
-17.64 139.69 31.25 -0.94 -0.10 0.33 0.52
-13.72 127.08 18.83 0.22 -0.96 -0.19 0.84
-10.90 121.84 25.20 -0.62 -0.67 -0.41 -2.00
-11.52 136.87 34.20 -0.73 0.29 0.62 -0.14
-10.88 125.46 33.10 -0.20 0.35 0.91 -0.30
-10.56 121.21 29.65 -0.53 -0.80 0.29 0.29
-14.26 139.83 27.33 0.09 0.59 -0.80 0.50
-15.86 140.17 26.81 -0.11 0.09 -0.99 0.80
-10.62 132.54 33.83 0.61 0.02 0.79 -0.94
-11.83 120.87 31.32 -0.46 -0.62 -0.63 -0.16
-14.88 131.29 20.47 -0.28 0.70 0.65 0.16
-13.42 138.89 31.66 -0.03 0.20 0.98 0.13
-13.25 132.96 19.13 -0.91 0.15 0.39 -0.06
3 195 175 139
3 190 138 139
3 144 172 134
3 134 172 198
3 139 173 195
3 139 127 173
3 138 108 139
3 108 138 99
3 134 198 154
3 154 159 124
3 134 154 124
3 134 124 90
3 122 124 159
3 124 88 90
3 155 194 153
3 161 163 132
3 163 174 115
3 163 115 132
3 151 174 173
3 76 83 103
3 83 47 69
3 73 127 71
3 61 71 99
3 71 61 44
3 73 71 44
3 30 61 56
3 61 99 90
3 90 99 134
3 91 55 88
3 86 55 91
3 86 70 55
3 155 109 121
3 155 153 109
3 109 153 148
3 148 153 180
3 128 98 109
3 128 123 98
3 123 128 167
3 116 169 114
3 82 114 105
3 82 105 79
3 79 57 82
3 94 66 105
3 79 105 66
3 66 42 79
3 119 115 94
3 83 94 115
3 115 110 83
3 132 115 119
3 110 115 151
3 66 69 50
3 66 50 32
3 12 14 21
3 28 21 14
3 21 30 12
3 23 12 30
3 30 58 23
3 40 26 23
3 10 23 26
3 95 70 86
3 98 87 63
3 63 87 60
3 63 60 34
3 169 116 152
3 116 126 152
3 152 126 164
3 126 133 164
3 164 133 156
3 130 157 133
3 156 133 157
3 97 92 67
3 92 126 89
3 126 116 89
3 89 116 101
3 82 57 59
3 57 42 33
3 57 33 59
3 24 42 13
3 42 32 13
3 17 8 13
3 8 14 3
3 34 35 20
3 10 20 9
3 35 29 20
3 20 29 9
3 31 29 46
3 77 102 111
3 102 149 137
3 102 137 111
3 137 147 111
3 77 120 78
3 120 147 185
3 145 146 93
3 80 51 52
3 45 67 62
3 45 25 51
3 51 25 52
3 52 25 41
3 36 19 25
3 19 36 33
3 33 11 19
3 33 24 11
3 4 5 11
3 25 5 18
3 5 0 1
3 0 3 2
3 9 2 10
3 2 9 7
3 7 1 2
3 0 2 1
3 31 16 29
3 6 15 18
3 27 31 46
3 43 27 46
3 135 160 179
3 179 160 197
3 146 145 182
3 189 145 118
3 150 118 80
3 18 38 49
3 18 27 38
3 27 43 38
3 43 65 84
3 43 84 64
3 141 117 166
3 141 162 129
3 142 129 168
3 178 150 136
3 150 80 112
3 112 72 100
3 72 80 49
3 72 64 100
3 142 100 84
3 6 18 5
3 6 5 1
3 175 184 139
3 106 127 139
3 99 138 144
3 99 144 134
3 144 138 190
3 144 186 172
3 71 127 106
3 99 71 108
3 108 71 106
3 108 106 139
3 122 88 124
3 153 193 180
3 151 115 174
3 44 30 21
3 30 44 61
3 58 30 56
3 58 88 55
3 109 148 128
3 121 109 95
3 70 95 68
3 74 68 109
3 74 109 98
3 109 68 95
3 161 114 170
3 116 114 101
3 82 101 114
3 42 57 79
3 69 66 94
3 83 69 94
3 47 50 69
3 44 21 47
3 44 47 76
3 47 21 28
3 10 12 23
3 26 37 22
3 39 34 22
3 39 22 37
3 63 39 74
3 98 63 74
3 68 37 70
3 37 68 74
3 37 74 39
3 34 39 63
3 177 147 137
3 149 177 137
3 157 130 146
3 97 130 92
3 62 67 89
3 89 67 92
3 82 62 101
3 101 62 89
3 24 33 42
3 50 28 32
3 28 50 47
3 12 3 14
3 2 3 12
3 2 12 10
3 20 10 22
3 20 22 34
3 22 10 26
3 16 9 29
3 81 53 107
3 107 53 78
3 29 53 46
3 81 46 53
3 77 78 53
3 113 102 87
3 87 102 60
3 60 102 77
3 60 77 54
3 54 77 53
3 135 120 160
3 199 158 185
3 185 158 120
3 120 158 160
3 177 185 147
3 130 97 146
3 146 97 93
3 93 51 80
3 51 93 97
3 45 51 67
3 5 19 11
3 19 5 25
3 1 7 6
3 15 6 7
3 15 7 16
3 15 16 31
3 9 16 7
3 18 15 27
3 27 15 31
3 65 43 46
3 107 85 75
3 65 85 107
3 81 107 75
3 46 81 75
3 46 75 65
3 65 75 85
3 140 84 104
3 117 84 140
3 135 140 104
3 135 104 107
3 107 104 65
3 84 65 104
3 179 140 135
3 118 150 189
3 93 80 118
3 129 142 84
3 117 141 84
3 84 141 129
3 188 141 181
3 129 162 168
3 112 136 150
3 84 100 64
3 131 173 127
3 131 143 173
3 122 159 187
3 121 171 155
3 131 127 96
3 73 96 127
3 96 143 131
3 151 173 143
3 143 96 103
3 103 96 73
3 103 73 76
3 83 76 47
3 90 88 58
3 125 122 187
3 91 125 121
3 91 121 86
3 91 88 122
3 91 122 125
3 148 167 128
3 94 105 132
3 94 132 119
3 161 132 114
3 105 114 132
3 110 143 103
3 110 103 83
3 110 151 143
3 73 44 76
3 55 23 58
3 23 55 40
3 26 40 37
3 37 40 70
3 70 40 55
3 121 95 86
3 123 87 98
3 123 167 149
3 126 92 133
3 133 92 130
3 42 66 32
3 17 32 14
3 14 32 28
3 14 8 17
3 29 35 54
3 54 35 60
3 54 53 29
3 35 34 60
3 113 123 149
3 149 102 113
3 113 87 123
3 111 147 120
3 77 111 120
3 157 196 156
3 48 36 25
3 36 48 59
3 36 59 33
3 48 25 45
3 48 45 62
3 48 62 59
3 59 62 82
3 11 13 4
3 13 11 24
3 8 3 4
3 8 4 13
3 32 17 13
3 4 0 5
3 3 0 4
3 78 120 135
3 78 135 107
3 145 189 182
3 145 93 118
3 52 41 49
3 52 49 80
3 25 18 41
3 49 41 18
3 179 165 140
3 117 140 165
3 117 165 166
3 181 141 166
3 80 72 112
3 38 64 49
3 64 38 43
3 49 64 72
3 168 183 142
3 178 136 176
3 176 136 142
3 136 112 100
3 100 142 136
3 90 58 56
3 90 56 61
3 67 51 97
3 114 169 191
3 114 191 170
