ply
format ascii 1.0
comment Generated by MaSIF
element vertex 200
property float x
property float y
property float z
property float nx
property float ny
property float nz
property float charge
element face 338
property list uchar int vertex_indices
end_header
-13.91 133.22 26.55 -0.98 0.17 0.14 -0.08
-13.94 132.31 27.10 -1.00 -0.03 -0.04 0.04
-14.25 132.09 26.05 -0.98 -0.18 0.03 -0.00
-13.79 133.27 27.72 -0.94 0.06 -0.34 0.17
-13.62 134.26 27.25 -0.99 0.00 -0.16 -0.04
-13.96 133.90 25.12 -0.99 -0.14 0.01 -0.35
-13.75 134.70 25.87 -0.93 -0.12 0.34 -0.36
-13.98 132.36 25.00 -0.82 -0.37 -0.44 -0.10
-13.98 131.00 27.34 -0.84 -0.15 -0.53 0.04
-14.12 134.36 27.99 -0.69 -0.19 -0.70 0.51
-13.33 131.04 25.58 -0.86 -0.43 -0.28 -0.02
-14.61 133.68 28.65 -0.65 -0.33 -0.68 0.58
-14.40 132.18 28.61 -0.83 0.15 -0.54 -0.24
-14.66 134.81 24.66 -0.83 -0.43 0.36 0.19
-13.73 136.01 26.77 -0.93 -0.35 -0.04 -0.03
-14.46 136.08 25.76 -0.84 -0.38 0.39 0.20
-13.25 130.24 26.95 -0.90 -0.19 -0.39 0.02
-12.94 131.87 24.35 -0.80 -0.49 -0.34 -0.52
-13.95 134.05 23.14 -0.86 -0.46 -0.19 -1.11
-13.21 132.65 23.52 -0.90 -0.44 -0.06 -1.06
-13.76 129.72 27.73 -0.61 0.04 -0.79 -0.24
-14.93 130.94 28.25 -0.45 0.33 -0.83 -0.01
-15.28 133.31 29.67 -0.91 -0.35 -0.22 0.16
-15.69 134.16 28.75 -0.64 -0.43 -0.64 0.17
-13.01 129.82 25.92 -0.96 0.08 -0.26 0.08
-14.02 135.88 27.65 -0.65 -0.38 -0.66 0.37
-15.32 135.15 23.50 -0.93 -0.33 -0.18 0.08
-15.40 132.21 29.79 -0.81 0.48 -0.34 -0.71
-15.41 135.71 28.35 -0.48 -0.31 -0.82 0.84
-15.17 136.35 24.24 -0.99 0.12 0.04 0.36
-14.98 137.26 25.25 -0.99 0.08 -0.06 0.72
-14.02 133.71 22.15 -0.99 -0.07 -0.09 -1.16
-12.56 129.22 25.05 -0.82 0.14 -0.56 0.24
-12.72 131.72 23.30 -0.91 -0.37 0.20 -1.42
-15.44 130.09 28.02 -0.23 0.25 -0.94 0.09
-15.86 131.00 28.74 -0.41 0.63 -0.66 0.04
-14.10 128.78 27.60 -0.46 0.47 -0.75 0.07
-14.71 129.38 27.88 -0.19 0.16 -0.97 0.11
-13.60 135.01 21.99 -0.88 0.07 -0.47 -1.19
-12.06 130.74 24.28 -0.85 -0.44 -0.29 -0.34
-15.11 133.40 30.99 -0.94 -0.14 0.30 -0.15
-13.47 128.71 26.92 -0.80 0.48 -0.36 0.38
-16.27 135.04 29.66 -0.82 -0.54 -0.16 0.36
-15.03 137.48 26.96 -0.80 -0.44 -0.40 0.55
-14.60 135.90 22.57 -0.77 0.05 -0.64 0.15
-16.32 136.21 28.39 -0.48 -0.44 -0.76 0.86
-15.20 132.20 31.24 -0.81 0.44 0.39 -1.26
-14.77 138.26 25.66 -0.73 0.56 -0.40 0.69
-15.58 136.84 27.91 -0.41 -0.43 -0.80 1.43
-13.71 128.40 25.88 -0.68 0.67 -0.29 1.04
-13.61 132.45 21.51 -1.00 -0.09 -0.02 -2.62
-13.51 134.24 21.09 -0.88 0.21 -0.43 -1.73
-11.72 129.95 24.12 -0.93 0.07 -0.35 -0.05
-16.91 130.91 29.32 -0.72 0.56 -0.42 0.05
-16.76 131.43 30.54 -0.66 0.73 0.18 0.00
-14.22 137.99 23.97 -0.79 0.53 -0.31 0.05
-13.28 128.14 24.74 -0.66 0.65 -0.38 1.28
-15.94 135.09 31.09 -0.82 -0.46 0.34 0.43
-16.80 129.62 28.38 -0.59 0.22 -0.77 0.07
-12.53 128.47 23.88 -0.75 0.61 -0.24 0.78
-12.74 135.59 21.03 -0.91 -0.00 -0.41 -1.12
-15.54 128.08 27.97 -0.52 0.02 -0.85 0.13
-14.90 127.74 26.73 -0.81 0.45 -0.37 0.45
-12.01 129.66 22.77 -0.94 -0.13 0.32 -0.13
-14.02 138.91 26.18 -0.22 0.78 -0.59 0.49
-15.31 134.76 31.83 -0.79 -0.41 0.46 0.26
-17.40 136.41 29.42 -0.93 -0.33 -0.18 0.51
-14.66 132.65 32.39 -0.94 0.26 0.24 -0.12
-14.92 139.17 26.42 -0.16 0.26 -0.95 0.59
-16.71 137.65 28.21 -0.75 -0.29 -0.59 1.11
-16.74 136.25 30.91 -0.83 -0.38 0.42 0.76
-15.90 131.04 31.57 -0.60 0.50 0.62 0.01
-11.75 129.12 23.78 -0.88 0.47 -0.02 0.14
-13.60 136.93 21.99 -0.94 -0.03 -0.34 -0.71
-14.68 134.51 32.67 -0.67 -0.10 0.74 0.09
-16.27 138.72 27.03 -0.51 -0.27 -0.81 1.16
-12.97 134.10 20.02 -0.97 0.20 -0.14 -0.67
-17.41 130.39 30.53 -0.92 0.32 0.21 0.02
-15.00 131.25 32.48 -0.90 0.36 0.24 0.48
-13.10 132.52 20.07 -0.91 0.41 -0.09 -0.80
-14.73 127.45 25.12 -0.78 0.44 -0.44 0.60
-13.95 131.54 20.61 -0.68 0.62 0.39 -0.34
-13.34 130.25 21.45 -0.68 -0.06 0.73 -1.05
-17.62 129.45 29.89 -1.00 0.04 0.01 0.04
-17.38 128.39 29.03 -0.87 -0.33 -0.37 0.00
-12.89 138.80 24.40 -0.57 0.80 -0.18 -0.24
-16.64 130.03 31.73 -0.72 0.34 0.60 0.03
-13.98 126.65 24.08 -0.85 -0.01 -0.52 0.54
-12.16 128.62 22.37 -0.81 0.37 0.46 0.19
-13.03 136.63 20.26 -0.91 -0.39 -0.09 -0.42
-12.45 135.10 19.76 -0.97 0.13 0.19 -0.22
-13.37 127.40 22.67 -0.99 0.00 -0.11 0.24
-13.92 139.84 27.06 0.11 0.56 -0.82 0.50
-16.62 127.38 29.17 -0.81 -0.30 -0.50 -0.38
-12.89 139.52 26.45 -0.59 0.58 -0.57 0.44
-15.66 136.31 32.63 -0.54 -0.18 0.83 0.23
-17.40 137.97 29.33 -0.99 -0.01 -0.17 0.67
-15.51 140.22 26.52 -0.11 0.07 -0.99 0.80
-13.50 138.54 22.25 -0.88 0.43 0.20 -0.06
-17.16 139.44 27.62 -0.90 -0.15 -0.41 0.03
-15.26 125.88 27.15 -0.92 -0.16 -0.36 0.34
-13.77 133.72 33.36 -0.44 0.55 0.71 -0.04
-14.79 131.15 20.42 -0.26 0.73 0.63 0.16
-17.18 137.68 30.83 -0.90 -0.11 0.42 1.05
-14.28 133.15 33.87 -0.63 0.75 0.19 0.05
-12.87 135.85 19.25 -0.89 -0.16 0.42 -0.04
-13.33 134.09 18.98 -0.81 0.04 0.58 0.16
-13.77 137.67 21.00 -0.97 -0.26 0.00 -0.18
-15.86 129.93 32.49 -0.71 0.48 0.52 -0.09
-13.11 132.73 19.04 -0.91 0.18 0.38 -0.06
-15.02 132.13 33.87 -0.95 0.32 0.03 0.10
-16.28 137.50 32.02 -0.54 -0.04 0.84 0.76
-15.87 125.92 28.74 -0.80 -0.41 -0.43 -0.66
-15.36 130.17 33.38 -0.88 0.37 0.29 0.34
-14.70 125.60 25.87 -0.87 -0.34 -0.37 0.98
-13.67 131.90 19.08 -0.75 0.63 0.20 -0.11
-14.56 131.54 19.29 -0.38 0.92 -0.04 0.08
-17.21 128.48 30.67 -0.95 -0.29 0.13 0.06
-16.76 140.42 27.03 -0.69 0.05 -0.72 0.57
-13.50 135.98 32.47 -0.14 0.17 0.98 0.34
-13.78 128.87 21.28 -0.29 0.35 0.89 0.31
-14.65 129.85 21.05 -0.10 0.34 0.94 0.89
-14.44 141.19 27.25 0.44 0.62 -0.65 0.55
-15.12 130.54 34.30 -0.97 0.08 0.24 0.25
-13.93 125.25 24.76 -0.76 -0.50 -0.41 0.54
-12.40 139.24 23.08 -0.70 0.68 0.21 -0.02
-16.10 141.33 26.73 -0.28 0.54 -0.79 0.70
-12.10 140.23 26.05 -0.78 0.09 -0.61 0.36
-13.44 140.88 27.84 0.07 0.72 -0.69 0.37
-13.28 137.24 18.76 -0.94 0.19 -0.27 -0.11
-14.12 127.51 21.85 -0.33 -0.35 0.88 0.22
-16.93 128.24 32.13 -0.87 -0.24 0.44 -0.05
-14.01 138.41 20.25 -1.00 -0.07 0.01 -0.07
-16.82 127.17 30.75 -0.93 -0.31 0.19 -0.59
-13.16 125.20 23.59 -0.76 -0.40 -0.51 0.18
-13.54 139.49 21.36 -0.78 0.56 0.29 -0.01
-14.03 133.02 35.07 -0.34 0.76 0.56 0.01
-16.84 126.08 30.05 -0.94 -0.31 -0.12 -1.47
-14.93 124.66 27.78 -0.69 -0.71 -0.13 0.04
-11.56 140.05 24.17 -0.84 0.49 -0.21 0.17
-11.89 140.21 25.08 -0.86 0.38 -0.32 0.27
-13.83 133.07 18.16 -0.88 -0.09 0.46 0.00
-13.87 135.84 18.39 -0.83 0.24 0.50 0.01
-15.05 138.12 32.27 0.08 0.26 0.96 1.03
-14.78 132.10 35.23 -0.79 0.42 0.44 0.02
-16.10 128.62 33.18 -0.86 -0.01 0.51 -0.32
-12.22 127.17 21.06 -0.27 -0.85 -0.46 0.23
-13.95 137.24 32.56 0.02 0.29 0.96 0.34
-14.25 134.46 17.92 -0.85 -0.05 0.53 0.16
-12.32 133.80 33.89 -0.41 0.63 0.66 -0.72
-16.08 138.88 32.36 -0.34 0.03 0.94 1.69
-15.17 124.89 29.59 -0.48 -0.85 -0.21 -0.61
-16.33 130.92 20.55 -0.18 0.86 0.48 1.23
-12.65 141.03 27.75 -0.72 0.47 -0.51 0.39
-12.78 135.06 32.92 -0.37 0.37 0.86 0.05
-12.25 140.12 22.10 -0.58 0.74 0.35 0.00
-16.18 125.07 30.14 -0.55 -0.83 -0.10 -0.92
-14.58 124.74 28.77 -0.48 -0.87 -0.06 -0.12
-13.68 127.11 20.55 0.09 -0.98 0.16 0.54
-13.92 124.35 26.86 -0.57 -0.82 -0.10 0.41
-17.19 141.29 28.71 -0.91 0.28 -0.31 0.28
-12.04 141.19 25.60 -0.86 -0.15 -0.48 0.30
-11.96 125.35 22.32 -0.53 -0.43 -0.73 0.22
-14.49 131.29 17.59 -0.69 0.70 -0.18 0.08
-15.53 142.13 27.81 0.03 0.86 -0.52 0.66
-12.37 141.54 27.08 -0.89 -0.24 -0.39 0.37
-15.50 128.75 21.55 0.09 0.17 0.98 1.87
-14.03 141.30 28.71 0.28 0.86 -0.43 0.23
-14.80 130.97 35.73 -0.61 -0.15 0.78 -0.06
-16.24 130.89 19.20 -0.32 0.86 -0.39 1.21
-12.75 140.21 20.92 -0.49 0.86 0.11 -0.04
-13.12 141.40 28.92 -0.20 0.84 -0.51 0.43
-13.77 138.85 19.06 -0.75 0.21 -0.63 -0.05
-14.19 129.51 35.24 -0.40 -0.20 0.90 -0.19
-17.32 139.92 30.96 -0.94 -0.06 0.33 0.52
-12.04 135.68 33.14 -0.60 0.20 0.78 0.74
-12.19 137.14 32.56 -0.47 0.43 0.77 0.26
-12.08 137.99 18.35 -0.31 0.29 -0.91 -0.30
-14.11 132.14 17.14 -0.97 0.06 0.24 -0.75
-13.51 139.83 20.02 -0.71 0.69 -0.14 -0.03
-14.15 133.20 17.13 -0.88 -0.25 0.41 -0.07
-12.03 133.14 35.11 -0.02 0.77 0.64 -0.11
-14.39 135.65 17.49 -0.81 0.40 0.42 0.10
-15.61 128.07 34.39 -0.86 -0.04 0.51 -0.95
-12.73 132.72 35.72 0.18 0.46 0.87 -0.04
-15.93 126.70 31.95 -0.63 -0.48 0.61 -0.08
-16.12 125.46 31.26 -0.62 -0.54 0.57 -1.01
-12.28 123.95 23.32 -0.69 -0.56 -0.45 -0.28
-14.98 124.89 30.79 -0.32 -0.83 0.45 -0.82
-11.45 140.60 22.46 -0.68 0.71 0.16 0.02
-16.67 129.48 21.50 -0.19 0.34 0.92 3.14
-16.34 130.19 18.31 -0.48 0.73 -0.49 1.71
-13.09 136.92 17.18 -0.43 0.90 -0.07 0.03
-12.55 123.82 24.49 -0.71 -0.64 -0.28 0.18
-15.42 127.24 32.91 -0.64 -0.60 0.48 -0.39
-11.16 134.38 34.25 -0.14 0.08 0.99 -0.17
-17.60 130.32 20.74 -0.70 0.58 0.41 2.43
-14.10 124.18 29.73 -0.53 -0.85 -0.00 -0.04
-11.42 141.55 24.53 -0.80 -0.12 -0.59 0.26
-11.12 127.43 20.14 -0.16 -0.96 -0.22 0.55
3 175 154 195
3 154 175 119
3 143 150 111
3 147 143 111
3 147 111 95
3 103 111 150
3 111 70 95
3 96 160 69
3 69 160 99
3 75 97 68
3 97 122 68
3 127 161 140
3 140 94 127
3 110 123 144
3 123 78 113
3 104 181 101
3 74 101 119
3 101 74 67
3 104 101 67
3 40 74 65
3 74 119 95
3 95 119 147
3 66 42 70
3 45 42 66
3 45 28 42
3 75 43 69
3 75 68 43
3 43 68 47
3 47 68 64
3 30 15 43
3 30 29 15
3 29 30 55
3 85 140 139
3 189 155 125
3 98 125 155
3 125 98 85
3 85 98 55
3 55 98 73
3 135 155 170
3 145 131 194
3 123 183 173
3 173 168 123
3 145 113 108
3 145 108 86
3 27 54 46
3 71 46 54
3 46 40 27
3 22 27 40
3 40 57 22
3 23 11 22
3 12 22 11
3 48 28 45
3 15 13 6
3 6 13 5
3 6 5 0
3 89 73 107
3 44 55 73
3 73 98 107
3 105 129 142
3 132 135 179
3 129 192 142
3 129 172 177
3 185 131 133
3 185 133 186
3 117 131 83
3 131 86 83
3 77 53 83
3 53 54 35
3 0 2 1
3 12 1 8
3 2 10 1
3 1 10 8
3 24 10 32
3 19 18 31
3 18 44 38
3 18 38 31
3 38 51 31
3 19 50 33
3 116 102 81
3 50 51 76
3 159 157 138
3 151 197 188
3 151 112 157
3 157 112 138
3 138 112 100
3 137 93 112
3 93 137 133
3 133 84 93
3 133 117 84
3 58 61 84
3 112 61 62
3 61 34 37
3 34 35 21
3 8 21 12
3 21 8 20
3 20 37 21
3 34 21 37
3 24 16 10
3 36 41 62
3 49 24 32
3 56 49 32
3 82 81 121
3 121 81 102
3 121 102 152
3 102 116 152
3 152 116 169
3 116 115 163
3 62 80 114
3 62 49 80
3 49 56 80
3 56 59 91
3 56 91 87
3 166 121 190
3 191 169 116
3 158 199 146
3 193 124 134
3 124 159 114
3 124 87 134
3 162 134 91
3 36 62 61
3 36 61 37
3 149 181 195
3 119 175 176
3 119 176 147
3 167 171 122
3 128 122 171
3 171 153 128
3 101 181 149
3 119 101 154
3 154 101 149
3 154 149 195
3 103 70 111
3 94 64 92
3 122 92 68
3 68 92 64
3 94 92 128
3 94 128 153
3 127 94 161
3 161 94 165
3 94 153 165
3 122 128 92
3 139 140 198
3 198 140 161
3 67 40 46
3 40 67 74
3 57 40 65
3 57 70 42
3 43 47 30
3 69 43 48
3 28 48 25
3 14 25 43
3 14 43 15
3 43 25 48
3 125 85 139
3 131 185 194
3 113 145 183
3 123 113 183
3 78 108 113
3 67 46 78
3 67 78 110
3 78 46 71
3 12 27 22
3 11 9 3
3 4 0 3
3 4 3 9
3 6 4 14
3 15 6 14
3 25 9 28
3 9 25 14
3 9 14 4
3 0 4 6
3 60 51 38
3 60 73 89
3 73 60 44
3 44 60 38
3 105 89 129
3 117 133 131
3 108 71 86
3 71 108 78
3 27 35 54
3 21 35 27
3 21 27 12
3 1 12 3
3 1 3 0
3 3 12 11
3 16 8 10
3 39 17 63
3 63 17 33
3 10 17 32
3 39 32 17
3 19 33 17
3 26 18 13
3 13 18 5
3 5 18 19
3 5 19 7
3 7 19 17
3 82 50 81
3 109 115 79
3 115 81 79
3 109 79 76
3 115 109 141
3 141 109 106
3 106 109 76
3 76 79 50
3 50 79 81
3 116 81 115
3 90 76 60
3 105 90 60
3 105 60 89
3 60 76 51
3 76 90 106
3 106 90 105
3 151 157 197
3 61 93 84
3 93 61 112
3 37 20 36
3 41 36 20
3 41 20 16
3 41 16 24
3 8 16 20
3 62 41 49
3 49 41 24
3 59 56 32
3 63 72 52
3 59 72 63
3 39 63 52
3 32 39 52
3 32 52 59
3 59 52 72
3 120 91 88
3 130 91 120
3 82 120 88
3 82 88 63
3 63 88 59
3 91 59 88
3 121 120 82
3 163 115 178
3 180 178 141
3 141 178 115
3 146 162 91
3 130 158 91
3 91 158 146
3 91 134 87
3 103 150 174
3 174 160 96
3 118 97 75
3 118 75 99
3 118 99 160
3 69 99 75
3 126 97 118
3 126 118 160
3 126 160 164
3 164 122 126
3 126 122 97
3 184 181 136
3 104 136 181
3 144 136 104
3 144 104 110
3 123 110 78
3 95 70 57
3 96 103 174
3 66 96 69
3 66 69 45
3 66 70 103
3 66 103 96
3 47 85 55
3 47 55 30
3 140 85 94
3 155 135 98
3 168 144 123
3 104 67 110
3 42 22 57
3 22 42 23
3 11 23 9
3 9 23 28
3 28 23 42
3 69 48 45
3 29 13 15
3 29 55 44
3 170 179 135
3 135 132 98
3 132 107 98
3 132 89 107
3 89 132 129
3 172 129 132
3 172 132 179
3 131 145 86
3 77 86 54
3 54 86 71
3 54 53 77
3 10 2 7
3 7 2 5
3 7 17 10
3 2 0 5
3 26 29 44
3 44 18 26
3 26 13 29
3 31 51 50
3 19 31 50
3 182 142 192
3 156 137 112
3 137 156 186
3 137 186 133
3 156 112 151
3 156 151 188
3 156 188 186
3 84 83 58
3 83 84 117
3 53 35 58
3 53 58 83
3 86 77 83
3 58 34 61
3 35 34 58
3 33 50 82
3 33 82 63
3 148 141 106
3 142 182 148
3 142 148 106
3 142 106 105
3 138 100 114
3 138 114 159
3 112 62 100
3 114 100 62
3 121 166 120
3 130 120 166
3 196 190 152
3 152 190 121
3 116 163 191
3 159 124 193
3 80 87 114
3 87 80 56
3 114 87 124
3 187 193 134
3 134 162 187
3 95 57 65
3 95 65 74
3 85 47 64
3 85 64 94
