ply
format ascii 1.0
comment Generated by MaSIF
element vertex 200
property float x
property float y
property float z
property float nx
property float ny
property float nz
property float charge
element face 340
property list uchar int vertex_indices
end_header
-13.95 132.61 27.34 -0.89 -0.11 -0.44 0.04
-13.29 131.86 26.83 -0.94 -0.16 -0.30 0.02
-13.92 133.93 27.16 -1.00 -0.02 0.07 0.04
-13.71 131.31 27.64 -0.69 0.09 -0.72 -0.24
-14.80 132.52 28.35 -0.53 0.38 -0.76 -0.01
-14.21 133.73 28.70 -0.88 0.19 -0.44 -0.24
-13.51 132.73 25.52 -0.89 -0.40 -0.20 -0.02
-13.17 131.49 25.76 -0.98 0.10 -0.15 0.08
-13.94 134.87 26.65 -0.95 0.18 0.25 -0.08
-14.35 133.77 26.15 -0.98 -0.16 0.13 -0.00
-15.35 131.68 28.14 -0.33 0.30 -0.89 0.09
-15.67 132.56 28.94 -0.47 0.66 -0.58 0.04
-13.68 134.85 27.81 -0.97 0.09 -0.23 0.17
-14.08 130.38 27.50 -0.53 0.51 -0.67 0.07
-14.65 130.97 27.88 -0.29 0.21 -0.93 0.11
-13.54 130.34 26.75 -0.83 0.51 -0.24 0.38
-15.07 133.71 29.98 -0.83 0.51 -0.22 -0.71
-14.39 135.23 28.84 -0.73 -0.28 -0.62 0.58
-12.83 130.93 24.82 -0.87 0.18 -0.46 0.24
-13.24 133.62 24.30 -0.84 -0.46 -0.28 -0.52
-14.19 134.08 25.08 -0.87 -0.33 -0.36 -0.10
-14.95 134.81 29.91 -0.94 -0.33 -0.13 0.16
-16.65 132.46 29.62 -0.75 0.58 -0.31 0.05
-13.55 135.86 27.37 -1.00 0.02 -0.05 -0.04
-13.96 135.93 28.16 -0.77 -0.15 -0.62 0.51
-16.67 131.21 28.62 -0.67 0.27 -0.69 0.07
-14.13 135.62 25.28 -0.99 -0.13 0.11 -0.35
-13.90 130.08 25.73 -0.70 0.69 -0.18 1.04
-15.49 129.69 28.00 -0.61 0.07 -0.79 0.13
-13.82 136.38 26.04 -0.89 -0.13 0.44 -0.36
-15.00 129.40 26.68 -0.84 0.48 -0.26 0.45
-16.36 132.91 30.85 -0.62 0.73 0.29 0.00
-14.71 133.63 31.41 -0.76 0.43 0.49 -1.26
-15.44 135.72 29.09 -0.71 -0.39 -0.58 0.17
-13.59 134.44 23.54 -0.90 -0.43 0.02 -1.06
-13.14 133.52 23.22 -0.89 -0.36 0.28 -1.42
-14.63 134.84 31.21 -0.91 -0.14 0.40 -0.15
-17.02 131.88 30.86 -0.89 0.32 0.33 0.02
-13.60 129.88 24.55 -0.68 0.68 -0.27 1.28
-12.39 132.49 24.07 -0.88 -0.41 -0.22 -0.34
-12.09 131.69 23.84 -0.97 0.10 -0.24 -0.05
-12.95 130.24 23.62 -0.77 0.63 -0.12 0.78
-17.32 130.98 30.20 -0.99 0.05 0.12 0.04
-17.19 129.96 29.27 -0.91 -0.30 -0.29 0.00
-14.86 136.56 24.94 -0.79 -0.44 0.43 0.19
-13.87 137.47 27.89 -0.72 -0.34 -0.60 0.37
-15.01 129.19 25.04 -0.82 0.47 -0.32 0.60
-13.68 137.64 26.99 -0.94 -0.34 0.05 -0.03
-15.90 136.56 30.10 -0.85 -0.52 -0.09 0.36
-15.39 132.46 31.75 -0.52 0.48 0.71 0.01
-16.44 128.94 29.27 -0.87 -0.27 -0.42 -0.38
-14.52 137.77 26.07 -0.80 -0.39 0.46 0.20
-15.18 137.28 28.74 -0.57 -0.26 -0.78 0.84
-15.41 136.53 31.48 -0.78 -0.47 0.41 0.43
-15.34 127.52 27.04 -0.96 -0.13 -0.26 0.34
-14.34 135.87 23.31 -0.89 -0.44 -0.12 -1.11
-14.04 134.01 32.51 -0.90 0.25 0.36 -0.12
-12.17 130.88 23.47 -0.87 0.48 0.10 0.14
-16.13 131.45 31.95 -0.65 0.32 0.69 0.03
-14.39 132.61 32.56 -0.86 0.36 0.36 0.48
-15.77 127.49 28.69 -0.85 -0.38 -0.35 -0.66
-14.93 127.30 25.70 -0.91 -0.31 -0.29 0.98
-16.84 129.96 30.88 -0.93 -0.29 0.22 0.06
-14.71 136.15 32.13 -0.74 -0.43 0.52 0.26
-12.53 131.48 22.52 -0.90 -0.14 0.42 -0.13
-14.39 128.43 23.89 -0.90 0.03 -0.42 0.54
-14.53 135.58 22.32 -1.00 -0.05 0.01 -1.16
-15.64 136.97 23.88 -0.95 -0.31 -0.09 0.08
-13.93 129.24 22.46 -1.00 0.02 0.00 0.24
-12.74 130.46 22.09 -0.75 0.35 0.57 0.19
-14.00 135.86 32.88 -0.59 -0.13 0.80 0.09
-14.21 134.34 21.59 -0.99 -0.08 0.09 -2.62
-16.07 137.79 28.89 -0.57 -0.40 -0.72 0.86
-15.38 138.12 24.66 -0.98 0.13 0.16 0.36
-15.07 138.98 25.68 -0.99 0.10 0.05 0.72
-15.38 138.43 28.37 -0.51 -0.38 -0.77 1.43
-16.47 128.65 30.85 -0.91 -0.31 0.28 -0.59
-15.27 131.30 32.61 -0.64 0.46 0.62 -0.09
-16.58 127.60 30.10 -0.96 -0.29 -0.02 -1.47
-14.96 126.27 27.57 -0.71 -0.69 -0.09 0.04
-16.21 137.71 31.45 -0.78 -0.39 0.49 0.76
-13.99 132.15 21.39 -0.60 -0.09 0.80 -1.05
-14.10 136.88 22.18 -0.93 0.10 -0.36 -1.19
-17.03 137.94 30.05 -0.95 -0.31 -0.09 0.51
-14.93 139.12 27.39 -0.85 -0.41 -0.33 0.55
-13.03 135.02 33.42 -0.35 0.52 0.78 -0.04
-13.49 134.43 33.96 -0.59 0.75 0.29 0.05
-14.99 126.41 29.40 -0.51 -0.84 -0.19 -0.61
-14.67 131.49 33.45 -0.84 0.36 0.40 0.34
-14.24 133.42 33.99 -0.93 0.33 0.15 0.10
-14.30 127.00 24.49 -0.81 -0.47 -0.34 0.54
-16.41 129.65 32.29 -0.82 -0.25 0.52 -0.05
-14.13 136.15 21.24 -0.92 0.24 -0.32 -1.73
-14.94 137.66 33.04 -0.44 -0.21 0.87 0.23
-15.94 126.58 30.07 -0.57 -0.82 -0.08 -0.92
-15.02 137.75 22.92 -0.83 0.09 -0.54 0.15
-14.50 126.29 28.52 -0.50 -0.86 -0.04 -0.12
-14.07 125.99 26.53 -0.59 -0.80 -0.08 0.41
-14.79 139.95 26.12 -0.76 0.59 -0.29 0.69
-14.33 131.82 34.35 -0.93 0.08 0.35 0.25
-14.77 129.40 21.74 -0.23 -0.39 0.89 0.22
-15.45 129.97 33.26 -0.80 -0.03 0.60 -0.32
-13.67 126.99 23.24 -0.82 -0.37 -0.44 0.18
-13.87 134.49 20.10 -0.90 0.43 0.03 -0.80
-16.45 139.24 28.84 -0.82 -0.25 -0.52 1.11
-14.67 133.49 20.68 -0.62 0.61 0.49 -0.34
-12.98 129.08 20.73 -0.34 -0.82 -0.46 0.23
-12.82 137.32 32.62 -0.03 0.13 0.99 0.34
-15.46 128.11 31.92 -0.57 -0.50 0.65 -0.08
-14.44 139.76 24.36 -0.81 0.56 -0.19 0.05
-15.75 126.91 31.20 -0.56 -0.56 0.60 -1.01
-14.67 126.34 30.57 -0.28 -0.85 0.44 -0.82
-13.11 134.24 35.11 -0.27 0.73 0.63 0.01
-16.63 139.14 31.49 -0.85 -0.12 0.51 1.05
-13.34 137.49 21.16 -0.95 0.03 -0.30 -1.12
-17.01 139.51 30.04 -1.00 0.01 -0.06 0.67
-14.47 130.78 21.20 -0.18 0.31 0.93 0.31
-13.94 125.68 29.39 -0.54 -0.84 0.01 -0.04
-15.60 138.90 32.56 -0.44 -0.07 0.89 0.76
-13.85 133.32 35.31 -0.73 0.41 0.55 0.02
-15.35 131.79 21.11 0.01 0.29 0.96 0.89
-14.48 129.07 20.38 0.09 -0.99 0.10 0.54
-14.84 140.83 26.93 -0.26 0.31 -0.91 0.59
-13.71 136.06 20.11 -0.98 0.21 -0.02 -0.67
-11.53 135.05 33.79 -0.32 0.60 0.73 -0.72
-13.99 140.57 26.57 -0.27 0.81 -0.53 0.49
-12.61 127.19 21.86 -0.62 -0.39 -0.69 0.22
-16.12 140.36 27.67 -0.61 -0.22 -0.76 1.16
-12.07 136.37 32.94 -0.26 0.33 0.91 0.05
-15.53 133.12 20.57 -0.18 0.70 0.69 0.16
-12.93 125.47 27.26 -0.69 -0.71 0.14 0.07
-13.98 134.75 19.09 -0.86 0.18 0.49 -0.06
-14.06 138.80 22.28 -0.97 0.00 -0.24 -0.71
-13.84 132.17 35.75 -0.53 -0.18 0.83 -0.06
-13.23 138.57 32.83 0.13 0.24 0.96 0.34
-14.85 129.35 34.38 -0.80 -0.06 0.60 -0.95
-14.84 128.59 32.84 -0.59 -0.61 0.52 -0.39
-13.31 130.72 35.13 -0.30 -0.24 0.93 -0.19
-12.98 125.57 24.00 -0.75 -0.62 -0.23 0.18
-14.56 133.93 19.15 -0.71 0.63 0.31 -0.11
-12.84 125.75 22.82 -0.75 -0.53 -0.39 -0.28
-15.42 133.57 19.44 -0.37 0.93 0.05 0.08
-12.66 124.97 26.09 -0.79 -0.62 -0.04 -0.21
-14.12 127.86 32.34 -0.20 -0.78 0.59 0.06
-11.11 134.33 34.93 0.07 0.73 0.68 -0.11
-13.63 126.27 31.22 -0.66 -0.44 0.61 0.07
-11.98 129.38 19.70 -0.20 -0.95 -0.24 0.55
-11.76 133.88 35.60 0.29 0.41 0.86 -0.04
-16.15 130.67 21.65 0.21 0.12 0.97 1.87
-16.56 129.11 21.33 -0.03 -0.81 0.59 0.99
-13.06 140.54 24.68 -0.58 0.81 -0.08 -0.24
-11.70 128.31 20.74 -0.55 -0.48 -0.68 0.33
-13.29 125.25 30.23 -0.76 -0.64 -0.05 0.88
-14.34 139.48 32.70 0.19 0.21 0.96 1.03
-14.14 128.25 33.80 -0.44 -0.81 0.39 -0.98
-16.93 141.07 28.38 -0.94 -0.12 -0.31 0.03
-13.21 137.07 19.84 -0.94 0.14 0.30 -0.22
-13.70 138.58 20.48 -0.93 -0.38 -0.01 -0.42
-11.30 136.96 33.11 -0.50 0.16 0.85 0.74
-13.77 141.45 27.48 0.03 0.60 -0.80 0.50
-15.40 141.88 27.14 -0.21 0.12 -0.97 0.80
-11.49 138.45 32.62 -0.37 0.39 0.84 0.26
-15.35 140.25 32.94 -0.23 -0.01 0.97 1.69
-14.19 136.11 19.12 -0.74 0.02 0.67 0.16
-12.37 125.14 28.45 -0.63 -0.77 -0.09 0.10
-10.32 135.60 34.04 -0.03 0.03 1.00 -0.17
-12.82 141.15 26.75 -0.64 0.61 -0.47 0.44
-15.77 128.44 20.02 0.12 -0.98 0.16 1.18
-12.22 132.71 36.01 0.08 0.11 0.99 -0.04
-13.50 127.33 31.73 -0.31 -0.53 0.79 0.09
-11.40 126.62 21.21 -0.61 -0.42 -0.67 -0.31
-14.76 128.90 18.73 0.16 -0.96 -0.24 0.84
-14.16 130.02 35.04 -0.48 0.05 0.88 -0.90
-13.92 140.39 22.60 -0.84 0.43 0.32 -0.06
-14.79 135.13 18.31 -0.83 -0.10 0.55 0.00
-13.67 137.84 19.43 -0.84 -0.17 0.51 -0.04
-14.33 139.59 21.35 -0.96 -0.25 0.10 -0.18
-17.05 132.90 20.86 -0.11 0.84 0.54 1.23
-12.13 131.35 35.55 0.15 -0.29 0.94 -0.01
-16.58 142.07 27.81 -0.76 0.10 -0.64 0.57
-13.33 128.87 34.78 0.12 -0.63 0.77 -2.14
-12.20 124.63 24.64 -0.74 -0.65 -0.17 -0.01
-16.72 141.37 31.75 -0.90 -0.07 0.43 0.52
-13.18 129.10 18.81 0.18 -0.98 -0.05 0.26
-17.31 131.42 21.77 -0.08 0.29 0.95 3.14
-12.06 139.30 32.03 -0.01 0.46 0.89 -0.03
-14.24 142.80 27.80 0.38 0.64 -0.66 0.55
-11.60 125.21 22.01 -0.32 -0.68 -0.66 0.23
-11.96 124.55 23.19 -0.51 -0.74 -0.44 0.17
-12.54 126.49 31.92 -0.53 0.01 0.85 0.20
-12.15 123.75 26.58 -0.86 -0.51 0.04 -1.05
-10.99 127.60 20.24 -0.64 -0.35 -0.68 -0.90
-17.42 129.95 22.06 0.03 -0.17 0.99 1.16
-11.94 129.47 18.38 0.07 -1.00 -0.05 0.06
-12.58 127.98 32.51 -0.01 -0.56 0.83 -0.18
-15.54 133.40 17.74 -0.69 0.72 -0.06 0.08
-16.92 128.62 19.94 -0.33 -0.94 0.11 1.69
-15.94 142.98 27.48 -0.36 0.59 -0.72 0.70
-11.79 129.49 34.43 0.28 -0.64 0.71 -0.30
-13.02 125.26 32.02 -0.86 0.06 0.50 0.32
3 161 185 134
3 158 128 165
3 128 158 107
3 153 162 118
3 134 153 118
3 134 118 93
3 113 118 162
3 118 80 93
3 127 160 122
3 160 186 122
3 198 137 180
3 89 99 119
3 99 59 88
3 86 144 85
3 70 85 107
3 85 70 56
3 86 85 56
3 36 70 63
3 70 107 93
3 93 107 134
3 83 48 80
3 72 48 83
3 72 52 48
3 127 84 104
3 127 122 84
3 84 122 98
3 98 122 125
3 74 51 84
3 74 73 51
3 73 74 109
3 150 173 109
3 109 173 132
3 143 194 154
3 143 154 136
3 136 108 143
3 135 101 154
3 136 154 101
3 101 91 136
3 172 137 135
3 99 135 137
3 137 133 99
3 180 137 172
3 133 137 178
3 101 88 77
3 101 77 58
3 16 31 32
3 49 32 31
3 32 36 16
3 21 16 36
3 36 53 21
3 33 17 21
3 5 21 17
3 75 52 72
3 51 44 29
3 29 44 26
3 29 26 8
3 157 132 176
3 95 109 132
3 132 173 176
3 164 152 117
3 152 199 145
3 199 189 145
3 145 189 169
3 143 108 110
3 108 91 76
3 108 76 110
3 62 91 42
3 91 58 42
3 37 22 42
3 22 31 11
3 8 9 2
3 5 2 0
3 9 6 2
3 2 6 0
3 7 6 18
3 34 55 66
3 55 95 82
3 55 82 66
3 82 92 66
3 34 71 35
3 141 129 105
3 71 92 123
3 97 96 79
3 87 117 111
3 87 60 96
3 96 60 79
3 79 60 54
3 78 50 60
3 50 78 76
3 76 43 50
3 76 62 43
3 25 28 43
3 60 28 30
3 28 10 14
3 10 11 4
3 0 4 5
3 4 0 3
3 3 14 4
3 10 4 14
3 7 1 6
3 13 15 30
3 27 7 18
3 38 27 18
3 81 105 120
3 120 105 129
3 120 129 177
3 129 141 177
3 141 139 195
3 181 142 97
3 30 46 61
3 30 27 46
3 27 38 46
3 38 41 68
3 38 68 65
3 121 100 149
3 149 148 192
3 192 148 184
3 148 120 184
3 121 146 106
3 126 106 151
3 151 191 170
3 188 181 140
3 181 97 138
3 138 90 102
3 90 97 61
3 90 65 102
3 126 102 68
3 13 30 28
3 13 28 14
3 124 144 165
3 107 158 161
3 107 161 134
3 85 144 124
3 107 85 128
3 128 85 124
3 128 124 165
3 113 80 118
3 166 125 159
3 186 159 122
3 122 159 125
3 56 36 32
3 36 56 70
3 53 36 63
3 53 80 48
3 84 98 74
3 104 84 75
3 52 75 45
3 47 45 84
3 47 84 51
3 84 45 75
3 189 194 169
3 143 169 194
3 91 108 136
3 88 101 135
3 99 88 135
3 59 77 88
3 56 32 59
3 56 59 89
3 59 32 49
3 5 16 21
3 17 24 12
3 23 8 12
3 23 12 24
3 29 23 47
3 51 29 47
3 45 24 52
3 24 45 47
3 24 47 23
3 8 23 29
3 114 92 82
3 114 132 157
3 132 114 95
3 95 114 82
3 111 117 145
3 145 117 152
3 143 111 169
3 169 111 145
3 62 76 91
3 77 49 58
3 49 77 59
3 16 11 31
3 4 11 16
3 4 16 5
3 2 5 12
3 2 12 8
3 12 5 17
3 1 0 6
3 39 19 64
3 64 19 35
3 6 19 18
3 39 18 19
3 34 35 19
3 67 55 44
3 44 55 26
3 26 55 34
3 26 34 20
3 20 34 19
3 81 71 105
3 131 139 103
3 139 105 103
3 131 103 123
3 139 131 174
3 174 131 163
3 163 131 123
3 123 103 71
3 71 103 105
3 141 105 139
3 156 123 114
3 175 156 114
3 175 114 157
3 114 123 92
3 123 156 163
3 163 156 175
3 130 96 97
3 96 130 164
3 87 96 117
3 28 50 43
3 50 28 60
3 14 3 13
3 15 13 3
3 15 3 1
3 15 1 7
3 0 1 3
3 30 15 27
3 27 15 7
3 41 38 18
3 64 57 40
3 41 57 64
3 39 64 40
3 18 39 40
3 18 40 41
3 41 40 57
3 116 68 69
3 100 68 116
3 81 116 69
3 81 69 64
3 64 69 41
3 68 41 69
3 120 116 81
3 183 193 146
3 130 97 142
3 106 126 68
3 100 121 68
3 68 121 106
3 171 183 121
3 171 121 167
3 106 146 151
3 138 140 181
3 68 102 65
3 113 162 182
3 179 160 127
3 179 127 155
3 104 155 127
3 197 160 179
3 197 186 160
3 147 144 112
3 86 112 144
3 112 168 147
3 168 112 119
3 119 112 86
3 119 86 89
3 99 89 59
3 93 80 53
3 115 113 182
3 83 115 104
3 83 104 72
3 83 80 113
3 83 113 115
3 98 150 109
3 98 109 74
3 135 154 180
3 135 180 172
3 154 194 180
3 133 168 119
3 133 119 99
3 133 178 168
3 86 56 89
3 48 21 53
3 21 48 33
3 17 33 24
3 24 33 52
3 52 33 48
3 104 75 72
3 73 44 51
3 73 109 95
3 91 101 58
3 37 58 31
3 31 58 49
3 31 22 37
3 6 9 20
3 20 9 26
3 20 19 6
3 9 8 26
3 67 73 95
3 95 55 67
3 67 44 73
3 66 92 71
3 34 66 71
3 94 78 60
3 78 94 110
3 78 110 76
3 94 60 87
3 94 87 111
3 94 111 110
3 110 111 143
3 43 42 25
3 42 43 62
3 22 11 25
3 22 25 42
3 58 37 42
3 25 10 28
3 11 10 25
3 35 71 81
3 35 81 64
3 190 130 142
3 79 54 61
3 79 61 97
3 60 30 54
3 61 54 30
3 120 148 116
3 100 116 148
3 100 148 149
3 167 121 149
3 177 184 120
3 196 167 149
3 183 146 121
3 97 90 138
3 46 65 61
3 65 46 38
3 61 65 90
3 151 170 126
3 188 140 187
3 187 140 126
3 140 138 102
3 102 126 140
3 93 53 63
3 93 63 70
3 150 98 125
3 150 125 166
3 117 96 164
