ply
format ascii 1.0
comment Generated by MaSIF
element vertex 200
property float x
property float y
property float z
property float nx
property float ny
property float nz
property float charge
element face 341
property list uchar int vertex_indices
end_header
-13.25 130.26 26.85 -0.90 -0.20 -0.39 0.02
-13.98 131.02 27.25 -0.84 -0.16 -0.53 0.04
-13.01 129.83 25.83 -0.96 0.07 -0.26 0.08
-13.75 129.75 27.64 -0.61 0.03 -0.79 -0.24
-13.34 131.05 25.48 -0.86 -0.44 -0.27 -0.02
-13.45 128.73 26.84 -0.80 0.47 -0.36 0.38
-12.55 129.23 24.97 -0.82 0.13 -0.56 0.24
-14.08 128.80 27.52 -0.46 0.46 -0.76 0.07
-14.70 129.40 27.79 -0.19 0.15 -0.97 0.11
-13.95 132.33 27.00 -1.00 -0.04 -0.04 0.04
-14.93 130.96 28.16 -0.45 0.32 -0.83 -0.01
-13.70 128.40 25.80 -0.69 0.66 -0.30 1.04
-14.40 132.21 28.50 -0.83 0.14 -0.54 -0.24
-14.26 132.09 25.95 -0.98 -0.18 0.03 -0.00
-12.95 131.87 24.25 -0.80 -0.50 -0.34 -0.52
-13.99 132.36 24.89 -0.82 -0.37 -0.43 -0.10
-15.43 130.10 27.93 -0.24 0.25 -0.94 0.09
-14.88 127.75 26.66 -0.81 0.44 -0.37 0.45
-13.93 133.23 26.43 -0.98 0.17 0.14 -0.08
-15.86 131.01 28.64 -0.41 0.62 -0.67 0.04
-13.80 133.29 27.60 -0.94 0.05 -0.34 0.17
-13.26 128.14 24.67 -0.66 0.64 -0.39 1.28
-11.72 129.96 24.03 -0.94 0.06 -0.35 -0.05
-15.52 128.10 27.90 -0.52 0.01 -0.85 0.13
-12.52 128.47 23.80 -0.76 0.60 -0.24 0.78
-12.06 130.75 24.18 -0.85 -0.45 -0.29 -0.34
-14.71 127.44 25.05 -0.79 0.43 -0.44 0.60
-13.23 132.64 23.40 -0.89 -0.45 -0.05 -1.06
-15.40 132.23 29.68 -0.81 0.47 -0.34 -0.71
-12.73 131.72 23.19 -0.91 -0.37 0.20 -1.42
-14.63 133.71 28.53 -0.65 -0.34 -0.68 0.58
-15.30 133.33 29.55 -0.91 -0.36 -0.21 0.16
-13.98 133.90 25.00 -0.99 -0.15 0.01 -0.35
-16.79 129.62 28.29 -0.60 0.21 -0.77 0.07
-16.91 130.93 29.22 -0.72 0.55 -0.42 0.05
-13.65 134.28 27.13 -0.99 -0.01 -0.16 -0.04
-11.74 129.12 23.70 -0.89 0.46 -0.03 0.14
-14.15 134.38 27.86 -0.69 -0.20 -0.69 0.51
-15.22 125.88 27.09 -0.92 -0.17 -0.36 0.34
-13.78 134.71 25.74 -0.93 -0.13 0.34 -0.36
-12.01 129.65 22.69 -0.93 -0.14 0.33 -0.13
-13.95 126.64 24.02 -0.85 -0.02 -0.52 0.54
-16.59 127.40 29.10 -0.81 -0.31 -0.50 -0.38
-16.76 131.45 30.45 -0.66 0.73 0.17 0.00
-13.35 127.38 22.60 -0.99 -0.00 -0.11 0.24
-12.14 128.61 22.29 -0.81 0.36 0.46 0.19
-14.67 125.60 25.81 -0.86 -0.35 -0.37 0.98
-15.20 132.24 31.14 -0.82 0.43 0.38 -1.26
-15.71 134.18 28.63 -0.64 -0.44 -0.63 0.17
-17.36 128.40 28.95 -0.87 -0.34 -0.37 0.00
-15.12 133.44 30.88 -0.94 -0.14 0.30 -0.15
-17.40 130.41 30.44 -0.93 0.32 0.21 0.02
-15.83 125.93 28.69 -0.80 -0.42 -0.42 -0.66
-13.97 134.03 23.02 -0.86 -0.47 -0.19 -1.11
-14.69 134.80 24.53 -0.83 -0.43 0.36 0.19
-14.05 133.68 22.03 -0.99 -0.08 -0.09 -1.16
-17.61 129.46 29.81 -1.00 0.03 0.01 0.04
-13.63 132.42 21.41 -1.00 -0.10 -0.02 -2.62
-14.88 124.68 27.73 -0.69 -0.72 -0.12 0.04
-14.05 135.90 27.51 -0.64 -0.39 -0.66 0.37
-13.77 136.02 26.63 -0.93 -0.36 -0.03 -0.03
-16.30 135.06 29.54 -0.82 -0.55 -0.16 0.36
-15.89 131.08 31.47 -0.60 0.50 0.62 0.01
-13.90 125.25 24.71 -0.76 -0.51 -0.40 0.54
-16.79 127.20 30.68 -0.93 -0.31 0.20 -0.59
-14.50 136.08 25.62 -0.84 -0.38 0.39 0.20
-15.45 135.73 28.22 -0.47 -0.32 -0.82 0.84
-16.80 126.10 29.99 -0.94 -0.32 -0.11 -1.47
-14.10 127.48 21.79 -0.32 -0.34 0.88 0.22
-13.34 130.23 21.36 -0.68 -0.06 0.73 -1.05
-13.13 125.19 23.54 -0.75 -0.41 -0.51 0.18
-15.96 135.12 30.96 -0.82 -0.46 0.34 0.43
-14.67 132.70 32.28 -0.94 0.25 0.24 -0.12
-16.63 130.06 31.65 -0.73 0.34 0.60 0.03
-13.87 124.36 26.81 -0.56 -0.82 -0.10 0.41
-15.00 131.30 32.38 -0.90 0.36 0.24 0.48
-15.36 135.13 23.38 -0.93 -0.34 -0.18 0.08
-12.20 127.15 21.00 -0.27 -0.85 -0.45 0.23
-15.12 124.92 29.54 -0.47 -0.86 -0.20 -0.61
-17.19 128.50 30.60 -0.94 -0.30 0.13 0.06
-13.55 134.21 20.97 -0.88 0.20 -0.43 -1.73
-13.63 134.99 21.86 -0.88 0.06 -0.47 -1.19
-14.53 124.76 28.72 -0.48 -0.88 -0.05 -0.12
-16.14 125.10 30.09 -0.55 -0.83 -0.09 -0.92
-15.21 136.33 24.10 -0.99 0.12 0.04 0.36
-15.34 134.80 31.70 -0.78 -0.42 0.46 0.26
-13.77 128.84 21.20 -0.29 0.35 0.89 0.31
-13.66 127.08 20.48 0.10 -0.98 0.17 0.54
-14.71 134.57 32.55 -0.67 -0.10 0.74 0.09
-11.92 125.34 22.27 -0.53 -0.44 -0.73 0.22
-14.64 135.87 22.44 -0.77 0.04 -0.64 0.15
-16.36 136.22 28.25 -0.48 -0.45 -0.75 0.86
-13.12 132.49 19.96 -0.91 0.40 -0.10 -0.80
-13.96 131.51 20.51 -0.69 0.62 0.38 -0.34
-15.03 137.26 25.10 -1.00 0.07 -0.06 0.72
-15.62 136.85 27.77 -0.41 -0.44 -0.80 1.43
-15.85 129.97 32.40 -0.71 0.48 0.52 -0.09
-15.90 126.74 31.89 -0.63 -0.48 0.61 -0.08
-16.08 125.50 31.21 -0.62 -0.54 0.57 -1.01
-14.93 124.92 30.74 -0.31 -0.83 0.46 -0.82
-16.78 136.28 30.77 -0.82 -0.38 0.42 0.76
-17.44 136.41 29.28 -0.92 -0.34 -0.17 0.51
-12.24 123.94 23.28 -0.69 -0.57 -0.44 -0.28
-16.91 128.28 32.06 -0.86 -0.25 0.44 -0.05
-15.08 137.49 26.81 -0.80 -0.45 -0.40 0.55
-13.78 133.79 33.24 -0.44 0.55 0.71 -0.04
-14.65 129.81 20.96 -0.10 0.34 0.93 0.89
-14.05 124.22 29.69 -0.52 -0.85 0.00 -0.04
-14.29 133.22 33.76 -0.64 0.75 0.18 0.05
-12.81 123.91 27.70 -0.69 -0.72 0.10 0.07
-12.50 123.83 24.44 -0.71 -0.65 -0.27 0.18
-13.00 134.07 19.89 -0.97 0.19 -0.14 -0.67
-15.34 130.22 33.29 -0.89 0.36 0.29 0.34
-15.02 132.19 33.77 -0.95 0.32 0.03 0.10
-11.11 127.42 20.07 -0.15 -0.97 -0.21 0.55
-15.49 128.71 21.47 0.09 0.18 0.98 1.87
-15.83 127.12 21.19 -0.08 -0.78 0.63 0.99
-15.69 136.36 32.50 -0.53 -0.18 0.83 0.23
-12.78 135.56 20.90 -0.91 -0.01 -0.41 -1.12
-10.92 126.42 21.20 -0.47 -0.53 -0.71 0.33
-14.80 131.10 20.32 -0.27 0.73 0.63 0.16
-12.41 123.36 26.60 -0.77 -0.64 -0.09 -0.21
-13.13 132.69 18.93 -0.91 0.18 0.38 -0.06
-14.82 138.26 25.51 -0.73 0.55 -0.40 0.69
-15.11 130.61 34.21 -0.97 0.08 0.24 0.25
-16.08 128.67 33.11 -0.86 -0.01 0.51 -0.32
-14.89 126.40 20.03 0.12 -0.97 0.23 1.18
-14.27 137.98 23.82 -0.79 0.52 -0.31 0.05
-10.65 124.77 21.80 -0.52 -0.47 -0.71 -0.31
-13.69 131.86 18.97 -0.75 0.63 0.20 -0.11
-14.57 131.49 19.19 -0.39 0.92 -0.05 0.08
-16.76 137.65 28.07 -0.75 -0.30 -0.59 1.11
-13.75 126.81 18.83 0.20 -0.97 -0.16 0.84
-15.39 127.29 32.84 -0.64 -0.60 0.49 -0.39
-13.65 136.91 21.84 -0.94 -0.04 -0.34 -0.71
-14.61 126.55 32.46 -0.25 -0.75 0.61 0.06
-13.53 136.05 32.33 -0.14 0.18 0.97 0.34
-13.97 124.92 31.50 -0.71 -0.42 0.56 0.07
-14.04 133.10 34.95 -0.35 0.76 0.55 0.01
-12.19 127.05 19.07 0.20 -0.98 0.02 0.26
-17.23 137.70 30.68 -0.90 -0.12 0.42 1.05
-13.49 123.85 30.62 -0.74 -0.66 -0.09 0.88
-12.49 135.07 19.63 -0.97 0.13 0.19 -0.22
-17.45 137.97 29.18 -0.99 -0.02 -0.17 0.67
-10.90 123.40 22.65 -0.23 -0.72 -0.65 0.23
-13.36 134.05 18.86 -0.81 0.04 0.58 0.16
-12.38 123.67 28.95 -0.60 -0.79 -0.11 0.10
-11.37 122.79 23.81 -0.44 -0.78 -0.45 0.17
-16.32 137.54 31.88 -0.54 -0.04 0.84 0.76
-14.78 132.18 35.12 -0.79 0.42 0.44 0.02
-11.78 122.95 25.22 -0.71 -0.68 -0.21 -0.01
-10.15 125.70 20.82 -0.56 -0.41 -0.73 -0.90
-16.78 127.98 21.78 -0.08 -0.11 0.99 1.16
-14.98 139.18 26.26 -0.17 0.26 -0.95 0.59
-16.67 129.43 21.41 -0.19 0.35 0.92 3.14
-12.34 133.88 33.77 -0.41 0.63 0.66 -0.72
-14.08 138.92 26.02 -0.22 0.77 -0.60 0.49
-10.92 127.43 18.76 0.10 -1.00 0.01 0.06
-16.02 126.54 19.80 -0.32 -0.94 0.13 1.69
-13.91 126.00 31.96 -0.38 -0.49 0.78 0.09
-13.08 136.60 20.12 -0.91 -0.40 -0.09 -0.42
-16.32 138.72 26.87 -0.51 -0.28 -0.81 1.16
-13.86 133.01 18.04 -0.88 -0.09 0.46 0.00
-12.81 135.13 32.78 -0.37 0.37 0.85 0.05
-9.86 123.77 22.07 -0.35 -0.69 -0.63 0.18
-11.93 122.18 27.21 -0.85 -0.53 -0.03 -1.05
-16.34 130.86 20.46 -0.19 0.86 0.47 1.23
-9.71 126.49 20.12 -0.53 -0.64 -0.56 0.17
-14.80 131.05 35.63 -0.61 -0.15 0.78 -0.06
-17.71 127.48 21.21 -0.60 -0.45 0.66 1.11
-13.99 137.29 32.42 0.01 0.30 0.95 0.34
-15.58 128.13 34.32 -0.86 -0.05 0.51 -0.95
-14.17 129.58 35.15 -0.39 -0.19 0.90 -0.19
-14.79 127.02 33.89 -0.47 -0.80 0.38 -0.98
-12.92 135.81 19.12 -0.89 -0.16 0.42 -0.04
-12.95 138.81 24.24 -0.58 0.79 -0.19 -0.24
-13.83 137.64 20.85 -0.96 -0.27 0.01 -0.18
-13.14 127.05 17.35 -0.11 -0.76 -0.65 0.15
-12.97 125.20 32.30 -0.62 0.04 0.78 0.20
-17.64 127.28 19.65 -0.62 -0.78 0.01 3.20
-12.04 133.23 34.99 -0.02 0.77 0.63 -0.11
-13.57 138.52 22.09 -0.88 0.43 0.20 -0.06
-14.50 131.23 17.49 -0.69 0.70 -0.18 0.08
-15.31 126.46 18.11 -0.08 -0.90 -0.43 0.42
-12.74 132.81 35.61 0.18 0.47 0.87 -0.04
-13.10 126.72 32.80 -0.09 -0.51 0.85 -0.18
-11.44 122.17 28.70 -0.84 -0.54 0.05 -0.10
-14.77 127.77 17.41 -0.20 -0.53 -0.82 0.81
-16.24 130.83 19.11 -0.33 0.86 -0.40 1.21
-10.27 127.33 17.84 -0.18 -0.96 -0.23 -0.06
-15.10 138.17 32.12 0.08 0.27 0.96 1.03
-12.10 123.12 29.96 -0.75 -0.57 -0.33 0.62
-13.43 123.96 32.42 -0.92 0.06 0.40 0.32
-17.22 139.44 27.46 -0.90 -0.16 -0.41 0.03
-10.45 121.96 24.36 -0.30 -0.73 -0.61 -1.06
-11.89 127.26 17.50 0.04 -0.96 -0.29 0.09
-16.64 126.94 18.76 -0.39 -0.77 -0.51 1.95
-8.98 124.62 20.72 -0.57 -0.48 -0.66 0.05
-13.20 122.96 31.72 -0.87 -0.44 -0.22 0.59
-14.13 132.08 17.04 -0.97 0.05 0.24 -0.75
3 170 190 148
3 170 148 117
3 148 100 117
3 113 124 149
3 124 75 112
3 108 180 105
3 88 105 136
3 105 88 72
3 108 105 72
3 50 88 85
3 88 136 117
3 117 136 170
3 101 61 100
3 91 61 101
3 91 66 61
3 161 104 131
3 161 153 104
3 104 153 123
3 123 153 156
3 94 65 104
3 94 84 65
3 84 94 127
3 175 181 127
3 127 181 134
3 135 185 173
3 135 173 133
3 133 97 135
3 171 125 173
3 133 173 125
3 125 103 133
3 124 171 172
3 172 168 124
3 125 112 96
3 125 96 73
3 28 43 47
3 62 47 43
3 47 50 28
3 31 28 50
3 50 71 31
3 48 30 31
3 12 31 30
3 95 66 91
3 65 54 39
3 39 54 32
3 39 32 18
3 160 134 176
3 90 127 134
3 134 181 176
3 146 141 107
3 141 192 137
3 192 178 137
3 137 178 159
3 135 97 98
3 97 103 64
3 97 64 98
3 79 103 56
3 103 73 56
3 51 34 56
3 34 43 19
3 18 13 9
3 12 9 1
3 13 4 9
3 9 4 1
3 2 4 6
3 27 53 55
3 53 90 81
3 53 81 55
3 81 80 55
3 27 57 29
3 130 120 93
3 57 80 111
3 165 186 109
3 74 82 58
3 78 107 99
3 78 52 82
3 82 52 58
3 58 52 38
3 67 42 52
3 42 67 64
3 64 49 42
3 64 79 49
3 33 23 49
3 52 23 17
3 23 16 8
3 16 19 10
3 1 10 12
3 10 1 3
3 3 8 10
3 16 10 8
3 2 0 4
3 7 5 17
3 11 2 6
3 21 11 6
3 69 93 106
3 106 93 120
3 106 120 166
3 120 130 166
3 166 130 188
3 130 129 182
3 187 177 132
3 187 132 183
3 177 139 132
3 183 132 126
3 157 195 189
3 189 114 157
3 150 121 74
3 17 26 46
3 17 11 26
3 11 21 26
3 21 24 44
3 21 44 41
3 87 68 116
3 116 115 152
3 152 115 154
3 115 106 154
3 179 196 158
3 179 158 116
3 87 114 77
3 89 77 119
3 119 151 128
3 197 164 128
3 89 128 164
3 147 194 150
3 147 150 102
3 150 74 110
3 110 63 70
3 63 74 46
3 63 41 70
3 89 70 44
3 7 17 23
3 7 23 8
3 105 180 155
3 136 105 163
3 163 105 155
3 140 100 148
3 72 50 47
3 50 72 88
3 71 50 85
3 71 100 61
3 104 123 94
3 131 104 95
3 66 95 59
3 60 59 104
3 60 104 65
3 104 59 95
3 178 185 159
3 135 159 185
3 103 97 133
3 112 125 171
3 124 112 171
3 75 96 112
3 72 47 75
3 72 75 113
3 75 47 62
3 12 28 31
3 30 37 20
3 35 18 20
3 35 20 37
3 39 35 60
3 65 39 60
3 59 37 66
3 37 59 60
3 37 60 35
3 18 35 39
3 118 80 81
3 118 134 160
3 134 118 90
3 90 118 81
3 146 191 141
3 99 107 137
3 137 107 141
3 135 99 159
3 159 99 137
3 79 64 103
3 96 62 73
3 62 96 75
3 28 19 43
3 10 19 28
3 10 28 12
3 9 12 20
3 9 20 18
3 20 12 30
3 0 1 4
3 25 14 40
3 40 14 29
3 4 14 6
3 25 6 14
3 27 29 14
3 76 53 54
3 54 53 32
3 32 53 27
3 32 27 15
3 15 27 14
3 69 57 93
3 122 129 92
3 129 93 92
3 122 92 111
3 129 122 162
3 162 122 145
3 145 122 111
3 111 92 57
3 57 92 93
3 130 93 129
3 142 111 118
3 174 142 118
3 174 118 160
3 118 111 80
3 111 142 145
3 145 142 174
3 191 146 186
3 186 146 109
3 109 82 74
3 82 109 146
3 78 82 107
3 23 42 49
3 42 23 52
3 8 3 7
3 5 7 3
3 5 3 0
3 5 0 2
3 1 0 3
3 17 5 11
3 11 5 2
3 24 21 6
3 40 36 22
3 24 36 40
3 25 40 22
3 6 25 22
3 6 22 24
3 24 22 36
3 86 44 45
3 68 44 86
3 69 86 45
3 69 45 40
3 40 45 24
3 44 24 45
3 106 86 69
3 182 129 199
3 162 199 129
3 157 139 195
3 139 157 114
3 114 167 119
3 119 167 151
3 109 74 121
3 77 89 44
3 68 87 44
3 44 87 77
3 132 139 87
3 132 87 126
3 77 114 119
3 110 102 150
3 44 70 41
3 131 193 161
3 184 180 138
3 108 138 180
3 149 138 108
3 149 108 113
3 124 113 75
3 117 100 71
3 101 143 131
3 101 131 91
3 101 100 140
3 101 140 143
3 123 175 127
3 123 127 94
3 168 149 124
3 108 72 113
3 61 31 71
3 31 61 48
3 30 48 37
3 37 48 66
3 66 48 61
3 131 95 91
3 84 54 65
3 84 127 90
3 192 141 198
3 198 141 191
3 103 125 73
3 51 73 43
3 43 73 62
3 43 34 51
3 4 13 15
3 15 13 32
3 15 14 4
3 13 18 32
3 76 84 90
3 90 53 76
3 76 54 84
3 55 80 57
3 27 55 57
3 83 67 52
3 67 83 98
3 67 98 64
3 83 52 78
3 83 78 99
3 83 99 98
3 98 99 135
3 49 56 33
3 56 49 79
3 34 19 33
3 34 33 56
3 73 51 56
3 33 16 23
3 19 16 33
3 29 57 69
3 29 69 40
3 139 177 195
3 189 167 114
3 165 109 121
3 58 38 46
3 58 46 74
3 52 17 38
3 46 38 17
3 106 115 86
3 68 86 115
3 68 115 116
3 126 87 116
3 166 154 106
3 183 158 196
3 183 126 158
3 187 183 196
3 158 126 116
3 139 114 87
3 197 128 151
3 74 63 110
3 26 41 46
3 41 26 21
3 46 41 63
3 169 152 154
3 179 116 169
3 169 116 152
3 119 128 89
3 164 144 89
3 147 102 144
3 144 102 89
3 102 110 70
3 70 89 102
3 117 71 85
3 117 85 88
3 175 123 156
3 107 82 146
