ply
format ascii 1.0
comment Generated by MaSIF
element vertex 197
property float x
property float y
property float z
property float nx
property float ny
property float nz
property float charge
element face 338
property list uchar int vertex_indices
end_header
-15.86 131.04 28.80 -0.41 0.65 -0.64 0.04
-14.92 131.02 28.33 -0.45 0.36 -0.82 -0.01
-16.92 130.91 29.36 -0.73 0.56 -0.40 0.05
-15.42 130.17 28.05 -0.23 0.29 -0.93 0.09
-16.78 129.66 28.37 -0.59 0.25 -0.77 0.07
-15.42 132.20 29.91 -0.81 0.48 -0.33 -0.71
-16.78 131.37 30.62 -0.67 0.71 0.20 0.00
-14.67 129.48 27.88 -0.18 0.20 -0.96 0.11
-17.41 130.33 30.55 -0.93 0.30 0.22 0.02
-13.96 131.14 27.43 -0.83 -0.14 -0.54 0.04
-14.41 132.25 28.74 -0.82 0.16 -0.54 -0.24
-17.60 129.41 29.87 -1.00 0.02 -0.00 0.04
-13.72 129.85 27.75 -0.60 0.07 -0.80 -0.24
-17.34 128.40 28.96 -0.86 -0.32 -0.40 0.00
-15.24 132.14 31.36 -0.82 0.40 0.40 -1.26
-15.33 133.31 29.84 -0.90 -0.35 -0.24 0.16
-15.48 128.17 27.91 -0.51 0.05 -0.86 0.13
-14.05 128.91 27.58 -0.46 0.50 -0.73 0.07
-15.92 130.95 31.63 -0.61 0.47 0.64 0.01
-15.17 133.35 31.17 -0.94 -0.17 0.29 -0.15
-16.65 129.92 31.74 -0.74 0.30 0.61 0.03
-13.22 130.41 27.00 -0.89 -0.18 -0.41 0.02
-13.95 132.46 27.25 -1.00 -0.05 -0.05 0.04
-17.19 128.41 30.60 -0.94 -0.32 0.10 0.06
-13.81 133.39 27.91 -0.94 0.06 -0.34 0.17
-14.65 133.75 28.85 -0.64 -0.31 -0.70 0.58
-13.41 128.88 26.90 -0.80 0.48 -0.35 0.38
-16.56 127.40 29.06 -0.80 -0.29 -0.52 -0.38
-15.74 134.20 28.96 -0.62 -0.41 -0.66 0.17
-14.72 132.54 32.54 -0.94 0.23 0.25 -0.12
-13.31 131.27 25.68 -0.85 -0.43 -0.30 -0.02
-15.04 131.13 32.56 -0.91 0.34 0.25 0.48
-15.87 129.80 32.50 -0.72 0.44 0.54 -0.09
-14.83 127.89 26.66 -0.81 0.46 -0.36 0.45
-12.97 130.04 25.96 -0.96 0.07 -0.27 0.08
-13.93 133.39 26.74 -0.98 0.15 0.13 -0.08
-14.25 132.28 26.19 -0.98 -0.19 0.01 -0.00
-16.77 127.11 30.63 -0.93 -0.33 0.17 -0.59
-16.35 135.03 29.91 -0.81 -0.55 -0.19 0.36
-15.41 134.67 32.07 -0.78 -0.45 0.43 0.26
-16.92 128.11 32.06 -0.87 -0.28 0.42 -0.05
-14.17 134.46 28.22 -0.68 -0.17 -0.71 0.51
-13.66 134.40 27.49 -0.99 -0.01 -0.17 -0.04
-15.78 125.96 28.57 -0.79 -0.41 -0.45 -0.66
-16.03 135.02 31.33 -0.81 -0.49 0.31 0.43
-13.64 128.61 25.85 -0.69 0.67 -0.27 1.04
-14.78 134.39 32.90 -0.68 -0.14 0.72 0.09
-16.10 128.46 33.13 -0.87 -0.05 0.50 -0.32
-16.76 126.05 29.88 -0.94 -0.32 -0.14 -1.47
-15.38 130.00 33.41 -0.89 0.34 0.30 0.34
-15.49 135.77 28.64 -0.46 -0.28 -0.84 0.84
-13.86 133.58 33.56 -0.45 0.51 0.73 -0.04
-12.49 129.48 25.07 -0.81 0.15 -0.56 0.24
-14.36 132.98 34.05 -0.65 0.73 0.22 0.05
-12.91 132.16 24.49 -0.79 -0.48 -0.37 -0.52
-13.97 132.60 25.14 -0.81 -0.36 -0.46 -0.10
-15.09 131.95 33.99 -0.95 0.30 0.04 0.10
-14.64 127.68 25.03 -0.79 0.45 -0.42 0.60
-15.89 126.60 31.81 -0.63 -0.52 0.58 -0.08
-15.16 126.01 26.99 -0.91 -0.16 -0.37 0.34
-13.98 134.13 25.34 -0.99 -0.16 -0.01 -0.35
-15.16 130.34 34.34 -0.97 0.06 0.24 0.25
-13.19 128.41 24.71 -0.66 0.66 -0.36 1.28
-15.07 124.91 29.38 -0.46 -0.85 -0.25 -0.61
-13.78 134.90 26.13 -0.93 -0.16 0.33 -0.36
-16.41 136.25 28.68 -0.46 -0.42 -0.78 0.86
-16.85 136.17 31.20 -0.82 -0.41 0.39 0.76
-16.09 125.05 29.93 -0.54 -0.83 -0.14 -0.92
-15.78 136.17 32.94 -0.54 -0.22 0.81 0.23
-17.50 136.38 29.71 -0.92 -0.34 -0.20 0.51
-14.09 135.99 27.95 -0.63 -0.36 -0.68 0.37
-14.58 125.79 25.70 -0.86 -0.34 -0.39 0.98
-16.05 125.39 31.07 -0.62 -0.58 0.53 -1.01
-14.47 124.81 28.56 -0.47 -0.88 -0.10 -0.12
-15.61 127.86 34.32 -0.87 -0.08 0.49 -0.95
-15.40 127.10 32.80 -0.64 -0.63 0.45 -0.39
-14.81 124.77 27.56 -0.68 -0.72 -0.17 0.04
-14.13 132.80 35.23 -0.36 0.72 0.59 0.01
-15.67 136.91 28.24 -0.40 -0.40 -0.82 1.43
-13.62 135.89 32.78 -0.15 0.13 0.98 0.34
-13.80 136.17 27.08 -0.93 -0.37 -0.06 -0.03
-13.19 132.97 23.69 -0.89 -0.45 -0.08 -1.06
-12.68 132.06 23.43 -0.91 -0.39 0.17 -1.42
-14.85 131.86 35.35 -0.80 0.39 0.45 0.02
-12.02 131.05 24.37 -0.84 -0.44 -0.32 -0.34
-11.66 130.27 24.19 -0.93 0.07 -0.35 -0.05
-12.42 133.66 34.11 -0.43 0.59 0.68 -0.72
-12.45 128.79 23.87 -0.76 0.61 -0.22 0.78
-14.89 124.85 30.58 -0.31 -0.86 0.41 -0.82
-12.89 134.95 33.19 -0.38 0.32 0.87 0.05
-14.81 126.78 33.84 -0.46 -0.82 0.34 -0.98
-13.86 126.94 23.97 -0.85 0.00 -0.53 0.54
-14.60 126.39 32.39 -0.25 -0.79 0.57 0.06
-14.69 135.05 24.91 -0.82 -0.46 0.33 0.19
-14.00 124.21 29.50 -0.51 -0.86 -0.05 -0.04
-14.87 130.71 35.79 -0.62 -0.20 0.76 -0.06
-14.22 129.28 35.24 -0.40 -0.24 0.88 -0.19
-15.03 128.55 35.06 -0.58 0.04 0.81 -0.90
-16.82 137.69 28.57 -0.74 -0.27 -0.61 1.11
-17.32 137.59 31.18 -0.90 -0.15 0.40 1.05
-13.80 125.52 24.59 -0.75 -0.49 -0.44 0.54
-16.42 137.38 32.37 -0.55 -0.09 0.83 0.76
-14.52 136.27 26.07 -0.84 -0.41 0.36 0.20
-17.53 137.95 29.70 -0.98 -0.02 -0.18 0.67
-12.12 132.95 35.30 -0.03 0.74 0.67 -0.11
-12.83 132.49 35.89 0.17 0.42 0.89 -0.04
-14.14 127.43 34.90 0.04 -0.62 0.78 -2.14
-13.95 134.38 23.37 -0.85 -0.47 -0.22 -1.11
-13.79 124.52 26.64 -0.55 -0.82 -0.15 0.41
-11.67 129.46 23.81 -0.89 0.46 -0.01 0.14
-14.09 137.13 32.93 0.00 0.25 0.97 0.34
-15.13 137.61 27.33 -0.79 -0.43 -0.43 0.55
-12.16 135.58 33.45 -0.61 0.15 0.78 0.74
-13.25 127.76 22.61 -0.99 -0.01 -0.12 0.24
-11.27 134.24 34.51 -0.15 0.03 0.99 -0.17
-13.89 125.87 31.86 -0.39 -0.54 0.75 0.09
-13.30 131.30 36.24 -0.05 0.12 0.99 -0.04
-12.33 137.06 32.94 -0.48 0.38 0.79 0.26
-13.93 124.82 31.35 -0.72 -0.45 0.53 0.07
-11.94 130.04 22.82 -0.94 -0.16 0.31 -0.13
-14.01 134.08 22.36 -0.99 -0.08 -0.11 -1.16
-15.34 135.44 23.77 -0.92 -0.33 -0.20 0.08
-13.44 123.80 30.42 -0.73 -0.67 -0.14 0.88
-12.73 124.03 27.51 -0.68 -0.73 0.05 0.07
-12.06 129.02 22.37 -0.82 0.33 0.47 0.19
-13.57 132.85 21.68 -0.99 -0.10 -0.03 -2.62
-13.10 126.55 32.75 -0.10 -0.56 0.83 -0.18
-13.12 129.94 35.81 0.04 -0.29 0.96 -0.01
-12.31 123.72 28.75 -0.59 -0.79 -0.16 0.10
-15.22 136.60 24.56 -0.99 0.11 0.04 0.36
-13.02 125.52 23.42 -0.75 -0.39 -0.54 0.18
-15.20 138.00 32.66 0.07 0.22 0.97 1.03
-15.05 137.47 25.61 -1.00 0.07 -0.07 0.72
-16.25 138.74 32.78 -0.35 -0.02 0.94 1.69
-16.38 138.82 27.44 -0.50 -0.24 -0.83 1.16
-13.26 130.67 21.52 -0.69 -0.10 0.72 -1.05
-13.60 135.39 22.27 -0.88 0.07 -0.47 -1.19
-12.59 128.10 34.75 0.21 -0.64 0.74 -0.30
-14.86 138.45 26.07 -0.73 0.56 -0.38 0.69
-17.29 139.51 28.06 -0.89 -0.15 -0.42 0.03
-12.85 137.89 32.28 -0.14 0.46 0.88 -0.03
-11.41 131.13 35.26 0.59 0.07 0.81 -0.06
-15.03 139.33 26.87 -0.16 0.31 -0.94 0.59
-11.96 129.32 35.63 0.29 -0.33 0.90 -0.15
-10.04 133.70 33.92 0.31 -0.38 0.87 -0.53
-12.39 124.12 24.26 -0.70 -0.64 -0.31 0.18
-12.95 125.06 32.17 -0.63 -0.01 0.77 0.20
-13.99 127.90 21.78 -0.33 -0.39 0.86 0.22
-13.50 134.66 21.33 -0.88 0.21 -0.43 -1.73
-12.31 123.54 26.39 -0.76 -0.64 -0.13 -0.21
-14.63 136.24 22.88 -0.76 0.07 -0.64 0.15
-9.73 134.65 34.56 0.13 -0.58 0.81 -0.33
-11.55 138.23 32.66 -0.60 0.28 0.75 -0.26
-17.50 139.82 31.42 -0.94 -0.09 0.32 0.52
-11.46 136.84 34.39 -0.73 0.29 0.62 -0.14
-13.40 123.82 32.22 -0.92 0.03 0.39 0.32
-12.09 127.63 21.00 -0.25 -0.83 -0.50 0.23
-12.04 123.13 29.74 -0.74 -0.56 -0.36 0.62
-13.15 122.86 31.47 -0.86 -0.44 -0.25 0.59
-10.62 132.51 33.95 0.60 -0.00 0.80 -0.94
-13.29 138.95 31.86 -0.04 0.18 0.98 0.13
-13.05 133.00 20.24 -0.91 0.40 -0.08 -0.80
-13.89 131.99 20.73 -0.70 0.59 0.41 -0.34
-10.66 135.92 35.45 -0.33 -0.11 0.94 -0.18
-12.11 124.30 23.11 -0.68 -0.55 -0.48 -0.28
-11.99 127.60 33.56 0.13 -0.71 0.70 -0.53
-14.13 139.09 26.62 -0.22 0.80 -0.56 0.49
-14.40 139.11 31.91 0.27 0.17 0.95 0.55
-13.68 129.29 21.28 -0.31 0.30 0.90 0.31
-14.29 138.27 24.37 -0.79 0.53 -0.29 0.05
-13.54 127.57 20.47 0.11 -0.99 0.11 0.54
-11.80 125.75 22.17 -0.52 -0.41 -0.75 0.22
-16.90 140.52 27.52 -0.68 0.07 -0.73 0.57
-11.83 122.33 26.94 -0.84 -0.54 -0.07 -1.05
-11.36 122.25 28.44 -0.84 -0.55 0.01 -0.10
-12.75 136.03 21.34 -0.91 0.00 -0.42 -1.12
-16.53 140.35 32.64 -0.13 0.00 0.99 0.64
-11.12 126.43 32.80 -0.28 -0.17 0.94 -0.67
-14.05 139.98 27.54 0.11 0.60 -0.79 0.50
-15.65 140.36 27.01 -0.10 0.11 -0.99 0.80
-14.56 130.26 21.08 -0.11 0.29 0.95 0.89
-11.67 123.21 25.00 -0.70 -0.67 -0.25 -0.01
-12.94 134.58 20.26 -0.97 0.19 -0.14 -0.67
-12.41 124.34 32.98 -0.52 0.55 0.65 0.01
-9.78 132.42 33.47 0.31 -0.01 0.95 -0.35
-17.37 141.30 29.23 -0.91 0.28 -0.30 0.28
-10.57 138.94 33.45 -0.68 0.31 0.67 -0.36
-12.15 139.09 31.98 -0.40 -0.05 0.91 -0.05
-12.74 121.83 31.53 -0.92 -0.24 -0.32 -0.05
-10.99 125.44 33.07 -0.21 0.34 0.92 -0.30
-10.72 128.44 34.23 0.25 -0.43 0.87 -0.53
-12.08 122.23 30.54 -0.69 -0.46 -0.55 0.27
-14.71 131.59 20.51 -0.28 0.69 0.66 0.16
-8.33 134.09 33.69 0.42 -0.62 0.66 -0.56
-10.30 137.14 35.22 -0.55 0.31 0.77 -0.72
-13.05 133.26 19.23 -0.91 0.15 0.38 -0.06
-13.64 137.31 22.35 -0.93 -0.03 -0.35 -0.71
3 159 144 114
3 154 112 114
3 117 140 110
3 110 140 160
3 154 186 117
3 152 117 186
3 167 176 133
3 153 133 176
3 114 141 159
3 114 104 141
3 112 89 114
3 89 112 79
3 110 160 131
3 131 160 167
3 131 167 133
3 131 133 101
3 110 131 101
3 110 101 68
3 99 101 133
3 101 66 68
3 103 185 98
3 98 185 139
3 134 179 142
3 137 165 190
3 165 137 106
3 137 143 96
3 137 96 106
3 127 143 141
3 56 61 83
3 61 31 49
3 53 104 51
3 46 51 79
3 51 46 29
3 53 51 29
3 19 46 39
3 46 79 68
3 68 79 110
3 69 38 66
3 65 38 69
3 65 50 38
3 134 111 98
3 134 142 111
3 111 142 138
3 138 142 166
3 132 102 111
3 132 129 102
3 129 132 169
3 92 126 90
3 92 90 75
3 75 58 92
3 74 47 90
3 75 90 47
3 47 40 75
3 97 96 74
3 61 74 96
3 96 95 61
3 106 96 97
3 95 96 127
3 47 49 32
3 47 32 20
3 5 6 14
3 18 14 6
3 14 19 5
3 15 5 19
3 19 44 15
3 28 25 15
3 10 15 25
3 78 50 65
3 102 93 64
3 64 93 60
3 64 60 35
3 150 169 196
3 146 155 183
3 157 191 158
3 188 158 191
3 128 122 94
3 122 155 118
3 155 146 118
3 118 146 115
3 92 58 72
3 58 40 37
3 58 37 72
3 23 40 11
3 40 20 11
3 8 2 11
3 2 6 0
3 35 36 22
3 10 22 9
3 36 30 22
3 22 30 9
3 34 30 52
3 81 107 120
3 107 150 136
3 107 136 120
3 136 148 120
3 81 125 82
3 125 148 182
3 173 174 123
3 108 73 76
3 63 94 88
3 63 43 73
3 73 43 76
3 76 43 59
3 48 27 43
3 27 48 37
3 37 13 27
3 37 23 13
3 4 16 13
3 43 16 33
3 16 3 7
3 3 0 1
3 9 1 10
3 1 9 12
3 12 7 1
3 3 1 7
3 34 21 30
3 17 26 33
3 45 34 52
3 62 45 52
3 135 162 180
3 180 162 192
3 181 149 108
3 33 57 71
3 33 45 57
3 45 62 57
3 62 87 113
3 62 113 91
3 181 108 145
3 145 100 130
3 100 108 71
3 100 91 130
3 171 130 113
3 17 33 16
3 17 16 7
3 144 151 114
3 86 104 114
3 79 112 117
3 79 117 110
3 117 112 154
3 117 152 140
3 187 140 152
3 184 144 159
3 151 144 193
3 51 104 86
3 79 51 89
3 89 51 86
3 89 86 114
3 140 187 160
3 99 66 101
3 142 178 166
3 127 96 143
3 29 19 14
3 19 29 46
3 44 19 39
3 44 66 38
3 111 138 132
3 98 111 78
3 50 78 70
3 80 70 111
3 80 111 102
3 111 70 78
3 165 126 177
3 146 126 115
3 92 115 126
3 40 58 75
3 49 47 74
3 61 49 74
3 31 32 49
3 29 14 31
3 29 31 56
3 31 14 18
3 10 5 15
3 25 41 24
3 42 35 24
3 42 24 41
3 64 42 80
3 102 64 80
3 70 41 50
3 41 70 80
3 41 80 42
3 35 42 64
3 175 148 136
3 196 175 150
3 150 175 136
3 191 157 174
3 128 157 122
3 88 94 118
3 118 94 122
3 92 88 115
3 115 88 118
3 23 37 40
3 32 18 20
3 18 32 31
3 5 0 6
3 1 0 5
3 1 5 10
3 22 10 24
3 22 24 35
3 24 10 25
3 21 9 30
3 84 54 119
3 119 54 82
3 30 54 52
3 84 52 54
3 81 82 54
3 121 107 93
3 93 107 60
3 60 107 81
3 60 81 55
3 55 81 54
3 135 125 162
3 195 161 182
3 182 161 125
3 125 161 162
3 175 182 148
3 157 128 174
3 174 128 123
3 123 73 108
3 73 123 128
3 63 73 94
3 16 27 13
3 27 16 43
3 7 12 17
3 26 17 12
3 26 12 21
3 26 21 34
3 9 21 12
3 33 26 45
3 45 26 34
3 87 62 52
3 119 109 85
3 87 109 119
3 84 119 85
3 52 84 85
3 52 85 87
3 87 85 109
3 168 113 124
3 147 113 168
3 135 168 124
3 135 124 119
3 119 124 87
3 113 87 124
3 180 168 135
3 123 108 149
3 156 171 113
3 147 170 113
3 113 170 156
3 145 164 181
3 113 130 91
3 163 154 114
3 163 194 154
3 163 114 151
3 105 141 104
3 105 116 141
3 99 133 153
3 153 185 103
3 172 179 134
3 172 134 139
3 172 139 185
3 98 139 134
3 143 137 190
3 105 104 77
3 53 77 104
3 77 116 105
3 127 141 116
3 116 77 83
3 83 77 53
3 83 53 56
3 61 56 31
3 68 66 44
3 103 99 153
3 69 103 98
3 69 98 65
3 69 66 99
3 69 99 103
3 138 169 132
3 74 90 106
3 74 106 97
3 165 106 126
3 90 126 106
3 95 116 83
3 95 83 61
3 95 127 116
3 53 29 56
3 38 15 44
3 15 38 28
3 25 28 41
3 41 28 50
3 50 28 38
3 98 78 65
3 129 93 102
3 129 169 150
3 155 122 158
3 158 122 157
3 40 47 20
3 8 20 6
3 6 20 18
3 6 2 8
3 30 36 55
3 55 36 60
3 55 54 30
3 36 35 60
3 121 129 150
3 150 107 121
3 121 93 129
3 120 148 125
3 81 120 125
3 67 48 43
3 48 67 72
3 48 72 37
3 67 43 63
3 67 63 88
3 67 88 72
3 72 88 92
3 13 11 4
3 11 13 23
3 2 0 4
3 2 4 11
3 20 8 11
3 4 3 16
3 0 3 4
3 82 125 135
3 82 135 119
3 173 123 149
3 76 59 71
3 76 71 108
3 43 33 59
3 71 59 33
3 108 100 145
3 57 91 71
3 91 57 62
3 71 91 100
3 164 145 130
3 130 171 164
3 68 44 39
3 68 39 46
3 94 73 128
3 126 189 177
