ply
format ascii 1.0
comment Generated by MaSIF
element vertex 200
property float x
property float y
property float z
property float nx
property float ny
property float nz
property float charge
element face 349
property list uchar int vertex_indices
end_header
-15.61 132.07 29.77 -0.83 0.44 -0.35 -0.71
-15.45 132.04 31.23 -0.85 0.38 0.38 -1.26
-15.56 133.18 29.68 -0.88 -0.40 -0.25 0.16
-14.59 132.13 28.62 -0.82 0.12 -0.56 -0.24
-15.98 130.86 28.69 -0.43 0.62 -0.66 0.04
-15.42 133.25 31.01 -0.94 -0.20 0.28 -0.15
-16.95 131.20 30.48 -0.71 0.69 0.18 0.00
-15.04 130.88 28.23 -0.45 0.33 -0.83 -0.01
-14.89 133.62 28.69 -0.62 -0.35 -0.71 0.58
-16.00 134.03 28.78 -0.60 -0.45 -0.66 0.17
-14.96 132.50 32.40 -0.95 0.19 0.23 -0.12
-16.08 130.84 31.51 -0.64 0.45 0.62 0.01
-17.04 130.70 29.24 -0.74 0.52 -0.42 0.05
-15.49 130.00 27.96 -0.23 0.26 -0.94 0.09
-17.53 130.12 30.43 -0.95 0.26 0.20 0.02
-15.22 131.07 32.45 -0.92 0.30 0.23 0.48
-14.02 133.28 27.77 -0.93 0.01 -0.36 0.17
-14.11 132.33 27.13 -0.99 -0.09 -0.07 0.04
-14.07 131.01 27.34 -0.81 -0.18 -0.55 0.04
-16.83 129.44 28.27 -0.59 0.21 -0.78 0.07
-16.65 134.85 29.69 -0.79 -0.59 -0.19 0.36
-15.73 134.58 31.87 -0.77 -0.47 0.43 0.26
-16.76 129.78 31.64 -0.76 0.28 0.59 0.03
-14.72 129.34 27.82 -0.18 0.17 -0.97 0.11
-14.43 134.34 28.06 -0.66 -0.22 -0.72 0.51
-16.35 134.89 31.13 -0.80 -0.52 0.31 0.43
-13.78 129.74 27.70 -0.59 0.03 -0.81 -0.24
-15.10 134.35 32.72 -0.68 -0.15 0.72 0.09
-17.67 129.19 29.76 -1.00 -0.02 -0.02 0.04
-16.00 129.71 32.41 -0.74 0.42 0.52 -0.09
-15.80 135.60 28.42 -0.44 -0.32 -0.84 0.84
-14.16 133.59 33.42 -0.48 0.51 0.71 -0.04
-13.91 134.28 27.33 -0.98 -0.05 -0.18 -0.04
-14.65 132.99 33.91 -0.68 0.71 0.19 0.05
-14.12 133.25 26.60 -0.99 0.11 0.12 -0.08
-15.53 129.95 33.32 -0.91 0.31 0.27 0.34
-14.38 132.11 26.07 -0.97 -0.23 0.00 -0.00
-15.32 131.92 33.86 -0.96 0.27 0.02 0.10
-13.29 130.30 26.94 -0.88 -0.23 -0.42 0.02
-14.06 128.78 27.54 -0.47 0.46 -0.75 0.07
-17.35 128.16 28.88 -0.84 -0.37 -0.40 0.00
-15.47 127.99 27.86 -0.50 0.01 -0.86 0.13
-15.34 130.32 34.25 -0.97 0.02 0.22 0.25
-16.74 136.05 28.44 -0.43 -0.45 -0.78 0.86
-17.22 136.00 30.95 -0.81 -0.43 0.39 0.76
-16.18 136.08 32.71 -0.54 -0.23 0.81 0.23
-17.86 136.15 29.45 -0.90 -0.38 -0.21 0.51
-14.41 135.87 27.75 -0.61 -0.41 -0.68 0.37
-13.42 128.76 26.87 -0.82 0.44 -0.37 0.38
-17.22 128.22 30.53 -0.93 -0.35 0.10 0.06
-16.96 127.97 31.99 -0.86 -0.30 0.41 -0.05
-13.39 131.13 25.59 -0.83 -0.47 -0.31 -0.02
-14.10 132.42 25.02 -0.79 -0.40 -0.46 -0.10
-14.42 132.84 35.10 -0.40 0.72 0.57 0.01
-16.03 136.73 27.99 -0.37 -0.43 -0.82 1.43
-14.00 135.89 32.58 -0.17 0.14 0.98 0.34
-16.18 128.37 33.07 -0.87 -0.07 0.48 -0.32
-13.00 129.92 25.91 -0.96 0.03 -0.28 0.08
-15.11 131.88 35.23 -0.82 0.37 0.43 0.02
-14.11 136.04 26.88 -0.91 -0.41 -0.07 -0.03
-12.73 133.75 33.99 -0.46 0.59 0.66 -0.72
-14.03 134.75 25.95 -0.93 -0.19 0.32 -0.36
-14.18 133.96 25.19 -0.98 -0.20 -0.02 -0.35
-16.53 127.20 29.02 -0.78 -0.34 -0.52 -0.38
-13.24 135.00 33.03 -0.41 0.32 0.85 0.05
-14.78 127.72 26.63 -0.83 0.41 -0.38 0.45
-15.08 130.74 35.70 -0.62 -0.21 0.76 -0.06
-14.36 129.32 35.19 -0.40 -0.24 0.88 -0.19
-13.62 128.46 25.82 -0.71 0.64 -0.29 1.04
-17.21 137.46 28.29 -0.72 -0.32 -0.62 1.11
-17.75 137.40 30.90 -0.90 -0.18 0.40 1.05
-16.76 126.94 30.59 -0.92 -0.37 0.16 -0.59
-16.86 137.25 32.11 -0.55 -0.09 0.83 0.76
-15.68 127.82 34.28 -0.87 -0.11 0.48 -0.95
-17.95 137.71 29.40 -0.98 -0.07 -0.19 0.67
-12.42 133.07 35.19 -0.08 0.75 0.66 -0.11
-12.49 129.37 25.04 -0.81 0.10 -0.58 0.24
-13.02 132.01 24.39 -0.76 -0.52 -0.37 -0.52
-13.12 132.60 35.78 0.14 0.45 0.88 -0.04
-14.53 137.11 32.70 -0.02 0.27 0.96 0.34
-15.50 137.43 27.07 -0.77 -0.48 -0.43 0.55
-15.69 125.79 28.58 -0.77 -0.45 -0.45 -0.66
-15.41 127.04 32.78 -0.62 -0.64 0.46 -0.39
-15.87 126.50 31.80 -0.62 -0.53 0.58 -0.08
-12.54 135.66 33.28 -0.63 0.14 0.77 0.74
-11.61 134.38 34.38 -0.17 0.05 0.98 -0.17
-14.82 136.09 25.86 -0.83 -0.44 0.36 0.20
-13.32 132.79 23.57 -0.87 -0.49 -0.09 -1.06
-13.55 131.40 36.15 -0.07 0.14 0.99 -0.04
-14.92 134.83 24.72 -0.81 -0.48 0.33 0.19
-12.77 137.11 32.73 -0.51 0.38 0.77 0.26
-16.69 125.87 29.86 -0.92 -0.36 -0.15 -1.47
-15.14 128.55 35.01 -0.60 0.03 0.80 -0.90
-13.15 128.26 24.69 -0.68 0.62 -0.38 1.28
-14.83 126.77 33.83 -0.43 -0.83 0.35 -0.98
-13.30 130.04 35.75 0.04 -0.27 0.96 -0.01
-14.56 127.47 25.02 -0.80 0.40 -0.45 0.60
-15.67 137.93 32.40 0.04 0.24 0.97 1.03
-14.13 134.15 23.21 -0.83 -0.51 -0.22 -1.11
-15.04 125.83 27.00 -0.90 -0.20 -0.38 0.34
-12.77 131.90 23.34 -0.89 -0.42 0.17 -1.42
-14.21 127.47 34.89 0.05 -0.60 0.80 -2.14
-16.75 138.63 32.48 -0.36 -0.01 0.93 1.69
-14.59 126.35 32.40 -0.22 -0.78 0.58 0.06
-16.81 138.59 27.14 -0.48 -0.28 -0.83 1.16
-12.07 130.94 24.32 -0.81 -0.48 -0.32 -0.34
-11.68 130.17 24.15 -0.93 0.02 -0.37 -0.05
-12.68 128.20 34.74 0.23 -0.61 0.76 -0.30
-12.40 128.65 23.86 -0.78 0.57 -0.24 0.78
-14.44 125.61 25.73 -0.84 -0.38 -0.40 0.98
-15.25 138.25 25.80 -0.75 0.52 -0.40 0.69
-14.94 124.79 29.42 -0.42 -0.87 -0.24 -0.61
-15.97 125.27 31.08 -0.60 -0.59 0.54 -1.01
-15.40 137.25 25.36 -1.00 0.02 -0.09 0.72
-17.75 139.24 27.73 -0.88 -0.19 -0.43 0.03
-13.31 137.91 32.04 -0.17 0.47 0.87 -0.03
-11.64 131.29 35.20 0.57 0.11 0.81 -0.06
-15.47 139.13 26.58 -0.16 0.28 -0.95 0.59
-12.11 129.46 35.61 0.30 -0.30 0.91 -0.15
-10.35 133.88 33.83 0.31 -0.35 0.88 -0.53
-15.98 124.90 29.95 -0.50 -0.86 -0.13 -0.92
-15.57 135.17 23.56 -0.90 -0.38 -0.21 0.08
-14.33 124.69 28.61 -0.43 -0.90 -0.09 -0.12
-10.09 134.86 34.44 0.14 -0.55 0.82 -0.33
-15.51 136.35 24.33 -1.00 0.06 0.02 0.36
-12.04 138.31 32.44 -0.62 0.27 0.74 -0.26
-18.02 139.63 31.08 -0.94 -0.12 0.31 0.52
-14.65 124.62 27.61 -0.64 -0.75 -0.16 0.04
-11.91 136.97 34.20 -0.75 0.27 0.60 -0.14
-14.16 133.83 22.21 -0.99 -0.12 -0.12 -1.16
-10.89 132.67 33.87 0.58 0.04 0.81 -0.94
-13.79 138.94 31.60 -0.06 0.20 0.98 0.13
-13.85 125.86 31.90 -0.37 -0.54 0.76 0.09
-13.74 126.75 23.98 -0.84 -0.05 -0.54 0.54
-11.09 136.10 35.29 -0.34 -0.11 0.93 -0.18
-11.65 129.35 23.79 -0.91 0.42 -0.04 0.14
-13.81 135.16 22.09 -0.87 0.03 -0.49 -1.19
-13.66 132.61 21.55 -0.99 -0.15 -0.05 -2.62
-14.56 138.93 26.35 -0.25 0.78 -0.58 0.49
-14.91 139.05 31.63 0.25 0.20 0.95 0.55
-14.78 124.77 30.62 -0.28 -0.86 0.42 -0.82
-17.40 140.26 27.17 -0.67 0.03 -0.74 0.57
-13.09 126.59 32.78 -0.08 -0.54 0.84 -0.18
-13.84 124.14 29.57 -0.47 -0.88 -0.04 -0.04
-13.63 125.34 24.63 -0.72 -0.53 -0.44 0.54
-12.04 127.70 33.58 0.15 -0.68 0.71 -0.53
-17.10 140.22 32.30 -0.15 0.02 0.99 0.64
-14.53 139.84 27.25 0.09 0.59 -0.80 0.50
-16.13 140.14 26.68 -0.09 0.08 -0.99 0.80
-14.88 135.97 22.66 -0.76 0.02 -0.65 0.15
-13.14 127.56 22.61 -0.99 -0.05 -0.13 0.24
-11.93 129.89 22.79 -0.93 -0.20 0.30 -0.13
-13.61 124.39 26.70 -0.52 -0.85 -0.14 0.41
-14.65 138.05 24.12 -0.81 0.49 -0.32 0.05
-10.03 132.61 33.40 0.30 0.02 0.96 -0.35
-17.92 141.05 28.85 -0.92 0.24 -0.32 0.28
-11.10 139.08 33.23 -0.70 0.29 0.65 -0.36
-12.00 128.86 22.36 -0.84 0.31 0.45 0.19
-12.66 139.13 31.73 -0.41 -0.05 0.91 -0.05
-13.66 134.41 21.17 -0.88 0.17 -0.45 -1.73
-10.82 128.60 34.24 0.25 -0.40 0.88 -0.53
-8.66 134.34 33.61 0.44 -0.59 0.68 -0.56
-10.78 137.34 35.04 -0.58 0.31 0.76 -0.72
-13.84 124.79 31.40 -0.70 -0.47 0.53 0.07
-8.89 135.81 35.07 0.09 -0.57 0.81 -1.11
-18.28 141.33 31.09 -0.93 0.19 0.32 0.51
-8.64 133.17 33.02 0.52 0.04 0.85 -0.28
-10.91 138.39 34.05 -0.73 0.48 0.49 -1.50
-16.79 141.21 26.91 -0.30 0.55 -0.78 0.70
-15.14 141.15 27.46 0.42 0.66 -0.62 0.55
-12.87 125.09 32.24 -0.64 -0.01 0.77 0.20
-13.26 130.44 21.45 -0.69 -0.12 0.71 -1.05
-11.83 139.96 32.80 -0.56 -0.30 0.77 0.05
-13.38 138.93 24.60 -0.62 0.77 -0.18 -0.24
-15.75 139.91 31.82 0.31 0.04 0.95 0.63
-10.35 129.96 34.08 0.35 0.12 0.93 -0.07
-9.77 136.71 35.48 -0.22 -0.25 0.94 -0.68
-12.97 135.81 21.16 -0.90 -0.04 -0.43 -1.12
-13.48 139.60 26.66 -0.61 0.55 -0.57 0.44
-13.13 132.75 20.12 -0.93 0.36 -0.11 -0.80
-14.44 140.40 31.48 -0.18 -0.24 0.95 0.30
-13.93 131.71 20.62 -0.73 0.57 0.39 -0.34
-12.83 125.35 23.48 -0.72 -0.44 -0.54 0.18
-13.29 123.77 30.50 -0.70 -0.70 -0.13 0.88
-12.55 123.96 27.60 -0.65 -0.75 0.06 0.07
-9.93 131.24 33.51 0.29 0.26 0.92 0.51
-17.17 141.63 32.25 -0.24 0.35 0.90 0.92
-12.13 123.70 28.86 -0.55 -0.82 -0.15 0.10
-14.14 140.89 28.07 0.04 0.74 -0.67 0.37
-13.88 127.65 21.77 -0.33 -0.39 0.86 0.22
-10.53 140.25 33.57 0.24 0.10 0.97 -0.13
-15.56 140.88 31.80 0.16 -0.04 0.99 0.41
-13.92 137.08 22.13 -0.93 -0.08 -0.37 -0.71
-13.09 134.33 20.11 -0.98 0.14 -0.16 -0.67
-17.52 142.30 31.17 -0.45 0.79 0.41 0.53
-11.11 126.55 32.85 -0.28 -0.16 0.94 -0.67
-13.19 140.85 32.51 -0.46 -0.44 0.77 0.33
-7.80 135.42 34.63 0.44 -0.72 0.53 -1.67
-7.67 134.90 32.79 0.63 -0.66 0.40 -1.08
-17.80 142.37 29.98 -0.66 0.74 -0.11 0.95
3 162 167 128
3 123 164 176
3 123 176 134
3 134 176 162
3 130 119 85
3 128 84 85
3 90 115 79
3 79 115 131
3 128 156 90
3 125 90 156
3 156 172 125
3 172 196 158
3 174 191 146
3 139 174 146
3 139 146 102
3 126 102 146
3 85 116 130
3 85 75 116
3 84 64 85
3 64 84 55
3 79 131 97
3 97 131 139
3 97 139 102
3 131 196 180
3 97 102 72
3 79 97 72
3 79 72 45
3 70 72 102
3 72 44 45
3 74 155 69
3 69 155 114
3 104 148 117
3 148 169 117
3 175 185 116
3 107 145 160
3 145 107 101
3 107 118 67
3 107 67 101
3 95 118 116
3 37 42 58
3 42 15 35
3 33 75 31
3 27 31 55
3 31 27 10
3 33 31 10
3 5 27 21
3 27 55 45
3 45 55 79
3 46 20 44
3 43 20 46
3 43 30 20
3 104 80 69
3 104 117 80
3 80 117 110
3 110 117 138
3 113 86 80
3 113 124 86
3 124 113 153
3 103 142 94
3 103 94 82
3 82 83 103
3 73 56 94
3 82 94 56
3 56 50 82
3 92 67 73
3 42 73 67
3 67 66 42
3 101 67 92
3 66 67 95
3 56 35 29
3 56 29 22
3 0 6 1
3 11 1 6
3 1 5 0
3 2 0 5
3 5 25 2
3 9 8 2
3 3 2 8
3 54 30 43
3 86 89 61
3 61 89 62
3 61 62 34
3 149 153 192
3 187 183 143
3 163 170 132
3 103 83 112
3 83 50 71
3 83 71 112
3 49 50 28
3 50 22 28
3 14 12 28
3 12 6 4
3 34 36 17
3 3 17 18
3 36 51 17
3 17 51 18
3 57 51 76
3 87 98 129
3 98 149 136
3 98 136 129
3 136 159 129
3 87 137 100
3 137 159 193
3 152 122 127
3 111 143 140
3 111 81 122
3 122 81 127
3 127 81 99
3 91 63 81
3 63 91 71
3 71 40 63
3 71 49 40
3 19 41 40
3 81 41 65
3 41 13 23
3 13 4 7
3 18 7 3
3 7 18 26
3 26 23 7
3 13 7 23
3 57 38 51
3 39 48 65
3 68 57 76
3 93 68 76
3 65 96 109
3 65 68 96
3 68 93 96
3 93 108 150
3 93 150 133
3 144 152 109
3 144 133 182
3 39 65 41
3 39 41 23
3 167 156 128
3 156 190 172
3 161 197 164
3 123 161 164
3 119 123 85
3 60 75 85
3 55 84 90
3 55 90 79
3 90 84 128
3 90 125 115
3 158 115 125
3 158 125 172
3 180 191 139
3 139 191 174
3 154 166 119
3 154 119 130
3 119 166 161
3 123 119 161
3 185 154 130
3 116 185 130
3 31 75 60
3 55 31 64
3 64 31 60
3 64 60 85
3 131 180 139
3 158 196 131
3 115 158 131
3 70 44 72
3 178 138 147
3 169 147 117
3 117 147 138
3 178 147 188
3 169 188 147
3 95 67 118
3 10 5 1
3 5 10 27
3 25 5 21
3 25 44 20
3 80 110 113
3 69 80 54
3 30 54 47
3 59 47 80
3 59 80 86
3 80 47 54
3 145 142 195
3 170 142 132
3 103 132 142
3 50 83 82
3 35 56 73
3 42 35 73
3 15 29 35
3 10 1 15
3 10 15 37
3 15 1 11
3 3 0 2
3 8 24 16
3 32 34 16
3 32 16 24
3 61 32 59
3 86 61 59
3 47 24 30
3 24 47 59
3 24 59 32
3 34 32 61
3 177 159 136
3 192 177 149
3 149 177 136
3 140 143 163
3 163 143 183
3 103 140 132
3 132 140 163
3 49 71 50
3 29 11 22
3 11 29 15
3 0 4 6
3 7 4 0
3 7 0 3
3 17 3 16
3 17 16 34
3 16 3 8
3 38 18 51
3 105 77 151
3 151 77 100
3 51 77 76
3 105 76 77
3 87 100 77
3 121 98 89
3 89 98 62
3 62 98 87
3 62 87 52
3 52 87 77
3 171 137 181
3 193 179 137
3 137 179 181
3 177 193 159
3 184 122 152
3 122 184 187
3 111 122 143
3 41 63 40
3 63 41 81
3 23 26 39
3 48 39 26
3 48 26 38
3 48 38 57
3 18 38 26
3 65 48 68
3 68 48 57
3 108 93 76
3 151 135 106
3 108 135 151
3 105 151 106
3 76 105 106
3 76 106 108
3 108 106 135
3 171 157 151
3 151 157 108
3 150 108 157
3 150 182 133
3 134 128 85
3 134 162 128
3 134 85 123
3 186 194 165
3 186 165 146
3 146 165 126
3 191 186 146
3 155 165 199
3 199 165 194
3 165 155 126
3 78 116 75
3 78 88 116
3 70 102 126
3 126 155 74
3 141 148 104
3 141 104 114
3 141 114 155
3 69 114 104
3 168 148 141
3 168 141 155
3 168 169 148
3 118 107 160
3 118 160 175
3 118 175 116
3 78 75 53
3 33 53 75
3 53 88 78
3 95 116 88
3 88 53 58
3 58 53 33
3 58 33 37
3 42 37 15
3 45 44 25
3 74 70 126
3 46 74 69
3 46 69 43
3 46 44 70
3 46 70 74
3 110 173 153
3 110 153 113
3 73 94 101
3 73 101 92
3 145 101 142
3 94 142 101
3 66 88 58
3 66 58 42
3 66 95 88
3 33 10 37
3 20 2 25
3 2 20 9
3 8 9 24
3 24 9 30
3 30 9 20
3 69 54 43
3 124 89 86
3 124 153 149
3 50 56 22
3 14 22 6
3 6 22 11
3 6 12 14
3 51 36 52
3 52 36 62
3 52 77 51
3 36 34 62
3 121 124 149
3 149 98 121
3 121 89 124
3 129 159 137
3 87 129 137
3 120 91 81
3 91 120 112
3 91 112 71
3 120 81 111
3 120 111 140
3 120 140 112
3 112 140 103
3 40 28 19
3 28 40 49
3 12 4 19
3 12 19 28
3 22 14 28
3 19 13 41
3 4 13 19
3 100 137 171
3 100 171 151
3 127 99 109
3 127 109 152
3 81 65 99
3 109 99 65
3 96 133 109
3 133 96 93
3 109 133 144
3 45 25 21
3 45 21 27
3 197 161 198
3 173 110 138
3 173 138 178
3 143 122 187
