ply
format ascii 1.0
comment Generated by MaSIF
element vertex 200
property float x
property float y
property float z
property float nx
property float ny
property float nz
property float charge
element face 345
property list uchar int vertex_indices
end_header
-14.95 133.63 28.49 -0.62 -0.39 -0.68 0.58
-14.52 134.33 27.82 -0.67 -0.26 -0.70 0.51
-15.61 133.22 29.51 -0.88 -0.42 -0.22 0.16
-16.07 134.02 28.58 -0.60 -0.49 -0.64 0.17
-14.09 133.27 27.58 -0.94 -0.02 -0.35 0.17
-14.62 132.15 28.48 -0.83 0.08 -0.55 -0.24
-14.00 134.26 27.10 -0.98 -0.08 -0.17 -0.04
-15.45 133.34 30.84 -0.93 -0.21 0.30 -0.15
-15.63 132.11 29.64 -0.84 0.41 -0.35 -0.71
-16.73 134.87 29.47 -0.78 -0.61 -0.16 0.36
-14.17 132.29 26.97 -0.99 -0.11 -0.05 0.04
-14.53 135.85 27.46 -0.61 -0.44 -0.66 0.37
-14.20 133.19 26.40 -0.99 0.10 0.13 -0.08
-15.91 135.58 28.16 -0.44 -0.36 -0.82 0.84
-15.05 130.87 28.14 -0.47 0.28 -0.84 -0.01
-14.25 135.99 26.58 -0.90 -0.43 -0.04 -0.03
-14.10 130.99 27.24 -0.82 -0.22 -0.53 0.04
-16.42 134.96 30.89 -0.78 -0.52 0.34 0.43
-14.15 134.67 25.70 -0.92 -0.19 0.34 -0.36
-15.45 132.14 31.10 -0.85 0.38 0.37 -1.26
-14.45 132.03 25.92 -0.97 -0.25 0.02 -0.00
-16.86 136.01 28.17 -0.43 -0.49 -0.75 0.86
-15.78 134.69 31.65 -0.76 -0.47 0.46 0.26
-16.17 136.68 27.69 -0.37 -0.47 -0.80 1.43
-14.96 132.65 32.25 -0.96 0.18 0.23 -0.12
-15.49 129.97 27.91 -0.24 0.22 -0.94 0.09
-15.99 130.85 28.61 -0.45 0.58 -0.68 0.04
-17.31 136.05 30.69 -0.80 -0.43 0.42 0.76
-16.94 131.24 30.40 -0.72 0.68 0.16 0.00
-17.97 136.13 29.19 -0.90 -0.41 -0.18 0.51
-15.14 134.51 32.50 -0.67 -0.14 0.73 0.09
-14.29 133.84 24.97 -0.98 -0.22 0.00 -0.35
-13.32 130.28 26.86 -0.88 -0.26 -0.40 0.02
-13.44 131.05 25.48 -0.82 -0.50 -0.28 -0.02
-14.97 135.99 25.56 -0.81 -0.44 0.38 0.20
-14.71 129.32 27.79 -0.19 0.13 -0.97 0.11
-15.66 137.36 26.73 -0.76 -0.51 -0.40 0.55
-14.19 132.30 24.87 -0.79 -0.44 -0.44 -0.10
-13.78 129.74 27.64 -0.60 -0.02 -0.80 -0.24
-16.06 130.94 31.44 -0.64 0.46 0.61 0.01
-15.06 134.69 24.48 -0.80 -0.49 0.36 0.19
-17.04 130.70 29.18 -0.76 0.49 -0.43 0.05
-17.36 137.41 27.98 -0.72 -0.35 -0.59 1.11
-16.25 136.22 32.42 -0.53 -0.21 0.82 0.23
-15.19 131.23 32.35 -0.93 0.29 0.23 0.48
-17.50 130.15 30.40 -0.95 0.25 0.20 0.02
-16.82 129.40 28.26 -0.60 0.17 -0.78 0.07
-14.17 133.80 33.21 -0.49 0.52 0.70 -0.04
-17.86 137.44 30.58 -0.89 -0.18 0.41 1.05
-14.64 133.21 33.73 -0.69 0.70 0.17 0.05
-14.04 128.77 27.52 -0.49 0.42 -0.76 0.07
-13.03 129.86 25.84 -0.96 -0.00 -0.27 0.08
-15.30 132.13 33.73 -0.97 0.25 0.02 0.10
-18.09 137.69 29.08 -0.98 -0.09 -0.18 0.67
-16.96 137.35 31.79 -0.54 -0.07 0.84 0.76
-15.58 137.12 25.03 -1.00 0.00 -0.07 0.72
-16.72 129.87 31.62 -0.76 0.29 0.59 0.03
-15.43 127.96 27.89 -0.51 -0.04 -0.86 0.13
-13.10 131.89 24.24 -0.76 -0.55 -0.34 -0.52
-14.07 136.07 32.28 -0.16 0.18 0.97 0.34
-15.45 138.13 25.43 -0.77 0.49 -0.41 0.69
-15.68 136.17 24.04 -1.00 0.05 0.03 0.36
-13.41 128.74 26.85 -0.83 0.41 -0.37 0.38
-15.68 139.04 26.17 -0.17 0.24 -0.96 0.59
-14.27 133.96 22.98 -0.82 -0.53 -0.19 -1.11
-17.63 129.19 29.77 -1.00 -0.04 -0.00 0.04
-13.43 132.63 23.39 -0.86 -0.51 -0.06 -1.06
-16.99 138.49 26.78 -0.48 -0.32 -0.81 1.16
-15.73 134.96 23.32 -0.90 -0.40 -0.18 0.08
-15.94 129.84 32.38 -0.75 0.43 0.51 -0.09
-12.52 129.29 24.98 -0.82 0.07 -0.57 0.24
-14.40 133.12 34.92 -0.41 0.73 0.54 0.01
-15.47 130.13 33.27 -0.91 0.30 0.27 0.34
-17.30 128.14 28.93 -0.84 -0.40 -0.38 0.00
-15.78 138.07 32.04 0.05 0.28 0.96 1.03
-15.06 132.14 35.09 -0.83 0.37 0.43 0.02
-14.62 137.28 32.36 -0.02 0.31 0.95 0.34
-12.74 134.01 33.75 -0.46 0.61 0.65 -0.72
-14.76 138.85 25.94 -0.27 0.75 -0.61 0.49
-16.87 138.74 32.11 -0.35 0.02 0.94 1.69
-17.94 139.15 27.35 -0.88 -0.23 -0.41 0.03
-15.28 130.54 34.19 -0.97 0.01 0.23 0.25
-14.76 127.65 26.66 -0.84 0.38 -0.39 0.45
-12.86 131.74 23.19 -0.88 -0.43 0.19 -1.42
-13.29 135.21 32.75 -0.40 0.35 0.85 0.05
-13.62 128.39 25.82 -0.73 0.61 -0.31 1.04
-14.31 133.60 22.00 -0.98 -0.15 -0.10 -1.16
-14.86 137.88 23.75 -0.83 0.46 -0.32 0.05
-14.74 139.80 26.81 0.07 0.56 -0.83 0.50
-16.35 140.04 26.25 -0.10 0.04 -0.99 0.80
-12.14 130.84 24.19 -0.81 -0.51 -0.29 -0.34
-17.16 128.27 30.57 -0.92 -0.37 0.12 0.06
-16.88 128.07 32.04 -0.85 -0.30 0.43 -0.05
-13.99 134.93 21.82 -0.88 -0.01 -0.48 -1.19
-16.46 127.20 29.09 -0.78 -0.37 -0.50 -0.38
-15.06 135.74 22.38 -0.76 -0.02 -0.64 0.15
-12.60 135.89 32.97 -0.62 0.16 0.77 0.74
-18.18 139.66 30.68 -0.94 -0.13 0.32 0.52
-12.86 137.32 32.37 -0.51 0.40 0.76 0.26
-16.08 128.53 33.09 -0.86 -0.07 0.50 -0.32
-12.40 133.39 34.98 -0.08 0.77 0.63 -0.11
-15.01 131.02 35.61 -0.61 -0.19 0.77 -0.06
-13.08 132.92 35.59 0.14 0.48 0.86 -0.04
-17.61 140.15 26.75 -0.68 -0.01 -0.73 0.57
-13.15 128.15 24.69 -0.70 0.59 -0.40 1.28
-11.73 130.07 24.05 -0.93 -0.01 -0.36 -0.05
-15.60 125.79 28.70 -0.76 -0.48 -0.43 -0.66
-12.43 128.53 23.83 -0.80 0.55 -0.25 0.78
-15.37 141.10 26.98 0.40 0.64 -0.66 0.55
-13.60 138.80 24.18 -0.63 0.75 -0.20 -0.24
-11.63 134.68 34.11 -0.16 0.08 0.98 -0.17
-13.79 132.37 21.39 -0.99 -0.17 -0.03 -2.62
-15.05 139.17 31.22 0.26 0.24 0.94 0.55
-13.69 139.55 26.21 -0.63 0.52 -0.58 0.44
-13.48 131.73 36.02 -0.06 0.17 0.98 -0.04
-13.83 134.15 20.93 -0.89 0.13 -0.44 -1.73
-17.03 141.10 26.44 -0.32 0.51 -0.80 0.70
-13.43 138.08 31.66 -0.17 0.50 0.85 -0.03
-14.27 129.60 35.15 -0.39 -0.21 0.90 -0.19
-17.26 140.32 31.87 -0.14 0.06 0.99 0.64
-18.13 141.00 28.40 -0.93 0.20 -0.32 0.28
-14.36 140.88 27.58 0.02 0.71 -0.70 0.37
-14.55 127.35 25.06 -0.81 0.37 -0.45 0.60
-16.67 127.00 30.67 -0.91 -0.38 0.19 -0.59
-15.57 128.04 34.31 -0.86 -0.10 0.50 -0.95
-14.97 125.77 27.11 -0.90 -0.23 -0.36 0.34
-13.17 135.56 20.86 -0.91 -0.08 -0.42 -1.12
-11.99 129.73 22.71 -0.93 -0.20 0.32 -0.13
-16.59 125.90 29.99 -0.91 -0.39 -0.12 -1.47
-11.69 129.23 23.72 -0.92 0.40 -0.04 0.14
-13.93 139.08 31.18 -0.05 0.23 0.97 0.13
-12.16 138.52 32.02 -0.62 0.28 0.74 -0.26
-14.14 136.85 21.79 -0.93 -0.11 -0.35 -0.71
-15.30 127.20 32.84 -0.60 -0.64 0.49 -0.39
-14.38 125.52 25.84 -0.83 -0.41 -0.37 0.98
-15.75 126.62 31.89 -0.60 -0.52 0.61 -0.08
-14.18 138.46 22.02 -0.91 0.36 0.19 -0.06
-18.47 141.36 30.64 -0.93 0.19 0.32 0.51
-11.98 137.25 33.83 -0.75 0.28 0.60 -0.14
-14.82 124.84 29.57 -0.41 -0.89 -0.20 -0.61
-11.58 131.62 35.05 0.58 0.15 0.80 -0.06
-16.54 141.96 27.51 -0.03 0.85 -0.53 0.66
-12.95 140.32 25.81 -0.78 0.01 -0.62 0.36
-10.36 134.18 33.56 0.33 -0.31 0.89 -0.53
-15.91 140.02 31.38 0.32 0.09 0.94 0.63
-13.72 126.60 24.04 -0.84 -0.08 -0.53 0.54
-15.86 124.94 30.10 -0.48 -0.87 -0.09 -0.92
-14.99 141.27 28.44 0.21 0.87 -0.44 0.23
-13.21 130.36 35.67 0.06 -0.23 0.97 -0.01
-13.27 134.04 19.87 -0.98 0.12 -0.15 -0.67
-15.03 128.81 35.01 -0.59 0.05 0.81 -0.90
-14.22 124.72 28.75 -0.41 -0.91 -0.05 -0.12
-13.57 141.10 27.50 -0.75 0.40 -0.52 0.39
-13.35 130.20 21.36 -0.68 -0.10 0.72 -1.05
-13.16 127.37 22.63 -0.99 -0.08 -0.12 0.24
-13.14 139.26 22.85 -0.76 0.63 0.19 -0.02
-12.05 128.68 22.31 -0.84 0.31 0.45 0.19
-13.28 132.46 19.95 -0.94 0.34 -0.11 -0.80
-14.70 126.99 33.90 -0.41 -0.83 0.39 -0.98
-14.05 131.43 20.49 -0.73 0.57 0.37 -0.34
-10.12 135.18 34.13 0.16 -0.52 0.84 -0.33
-14.08 141.45 28.65 -0.26 0.81 -0.52 0.43
-14.55 124.60 27.76 -0.63 -0.77 -0.13 0.04
-14.61 140.52 31.01 -0.16 -0.21 0.97 0.30
-17.35 141.72 31.77 -0.24 0.38 0.89 0.92
-12.80 139.30 31.29 -0.40 -0.02 0.92 -0.05
-10.87 132.96 33.66 0.59 0.08 0.80 -0.94
-12.38 140.15 23.94 -0.88 0.42 -0.23 0.17
-14.08 127.74 34.92 0.08 -0.57 0.82 -2.14
-12.73 140.29 24.84 -0.89 0.31 -0.34 0.27
-18.03 142.36 29.48 -0.68 0.72 -0.13 0.95
-14.46 126.52 32.48 -0.20 -0.76 0.61 0.06
-15.74 140.99 31.32 0.17 0.00 0.99 0.41
-11.13 136.45 34.95 -0.33 -0.08 0.94 -0.18
-11.22 139.34 32.76 -0.70 0.30 0.65 -0.36
-17.73 142.35 30.66 -0.46 0.80 0.38 0.53
-15.84 125.36 31.22 -0.58 -0.58 0.57 -1.01
-13.53 136.57 20.07 -0.88 -0.47 -0.09 -0.42
-16.94 142.61 28.54 -0.16 0.86 -0.48 1.50
-12.57 128.49 34.72 0.25 -0.57 0.78 -0.30
-12.83 135.07 19.60 -0.98 0.06 0.18 -0.22
-14.65 124.86 30.77 -0.26 -0.85 0.46 -0.82
-14.36 137.55 20.79 -0.94 -0.33 -0.00 -0.18
-14.28 139.39 21.12 -0.82 0.50 0.28 -0.01
-13.57 125.22 24.74 -0.72 -0.56 -0.41 0.54
-12.96 141.26 25.35 -0.85 -0.22 -0.49 0.30
-15.48 142.20 29.24 0.42 0.79 -0.45 0.33
-12.02 129.80 35.53 0.31 -0.26 0.91 -0.15
-13.33 141.61 26.82 -0.86 -0.32 -0.40 0.37
-13.71 124.21 29.73 -0.46 -0.89 0.00 -0.04
-10.85 137.68 34.64 -0.57 0.33 0.75 -0.72
-13.51 124.35 26.85 -0.50 -0.86 -0.10 0.41
-14.85 130.96 20.30 -0.32 0.72 0.62 0.16
-14.57 141.97 29.33 -0.25 0.60 -0.76 0.39
-13.30 135.78 19.08 -0.88 -0.22 0.42 -0.04
-13.62 133.99 18.83 -0.82 -0.02 0.57 0.16
-11.98 140.18 32.32 -0.55 -0.28 0.79 0.05
-13.29 132.65 18.92 -0.92 0.12 0.37 -0.06
-10.02 132.90 33.18 0.31 0.06 0.95 -0.35
-11.01 138.69 33.61 -0.73 0.49 0.48 -1.50
3 190 199 138
3 166 143 110
3 138 96 110
3 98 117 76
3 76 117 130
3 138 174 98
3 131 98 174
3 174 196 131
3 144 172 119
3 112 144 119
3 112 119 79
3 97 79 119
3 120 178 141
3 141 178 186
3 141 186 108
3 110 140 166
3 110 100 140
3 96 84 110
3 84 96 59
3 76 130 74
3 74 130 112
3 74 112 79
3 74 79 54
3 76 74 54
3 76 54 43
3 48 54 79
3 54 27 43
3 53 120 42
3 42 120 80
3 67 89 63
3 89 108 63
3 142 185 169
3 169 113 142
3 179 187 118
3 179 118 168
3 148 187 140
3 52 81 75
3 81 44 72
3 49 100 47
3 30 47 59
3 47 30 24
3 49 47 24
3 7 30 22
3 30 59 43
3 43 59 76
3 29 9 27
3 21 9 29
3 21 13 9
3 67 36 42
3 67 63 36
3 36 63 60
3 60 63 78
3 55 34 36
3 55 61 34
3 61 55 87
3 109 169 167
3 155 136 109
3 109 136 87
3 87 136 132
3 171 158 133
3 133 135 171
3 124 99 158
3 133 158 99
3 99 92 133
3 150 118 124
3 81 124 118
3 118 101 81
3 168 118 150
3 101 118 148
3 99 72 69
3 99 69 56
3 8 28 19
3 39 19 28
3 19 7 8
3 2 8 7
3 7 17 2
3 3 0 2
3 5 2 0
3 23 13 21
3 34 40 18
3 18 40 31
3 18 31 12
3 177 132 182
3 95 87 132
3 132 136 182
3 171 135 176
3 135 92 123
3 135 123 176
3 91 92 65
3 92 56 65
3 45 41 65
3 41 28 26
3 12 20 10
3 5 10 16
3 20 33 10
3 10 33 16
3 51 33 70
3 66 64 86
3 64 95 93
3 64 93 86
3 93 115 86
3 66 111 83
3 111 115 149
3 191 151 162
3 139 189 181
3 139 106 151
3 151 106 162
3 162 106 125
3 128 94 106
3 94 128 123
3 123 73 94
3 123 91 73
3 46 57 73
3 106 57 82
3 57 25 35
3 25 26 14
3 16 14 5
3 14 16 38
3 38 35 14
3 25 14 35
3 51 32 33
3 50 62 82
3 85 51 70
3 104 85 70
3 82 122 134
3 82 85 122
3 85 104 122
3 104 107 154
3 104 154 145
3 184 191 134
3 50 82 57
3 50 57 35
3 199 174 138
3 143 160 110
3 77 100 110
3 59 96 98
3 59 98 76
3 98 96 138
3 98 131 117
3 165 117 131
3 165 131 196
3 163 172 112
3 112 172 144
3 147 108 186
3 147 193 161
3 193 147 186
3 147 161 108
3 121 108 161
3 161 152 121
3 198 143 166
3 47 100 77
3 59 47 84
3 84 47 77
3 84 77 110
3 130 163 112
3 117 165 130
3 48 27 54
3 113 78 88
3 108 88 63
3 63 88 78
3 113 88 121
3 113 121 152
3 142 113 185
3 185 113 188
3 113 152 188
3 108 121 88
3 148 118 187
3 24 7 19
3 7 24 30
3 17 7 22
3 17 27 9
3 36 60 55
3 42 36 23
3 13 23 11
3 15 11 36
3 15 36 34
3 36 11 23
3 155 109 167
3 92 135 133
3 72 99 124
3 81 72 124
3 44 69 72
3 24 19 44
3 24 44 52
3 44 19 39
3 5 8 2
3 0 1 4
3 6 12 4
3 6 4 1
3 18 6 15
3 34 18 15
3 11 1 13
3 1 11 15
3 1 15 6
3 12 6 18
3 126 115 93
3 126 132 177
3 132 126 95
3 95 126 93
3 91 123 92
3 69 39 56
3 39 69 44
3 8 26 28
3 14 26 8
3 14 8 5
3 10 5 4
3 10 4 12
3 4 5 0
3 32 16 33
3 90 58 127
3 127 58 83
3 33 58 70
3 90 70 58
3 66 83 58
3 68 64 40
3 40 64 31
3 31 64 66
3 31 66 37
3 37 66 58
3 153 111 159
3 197 157 149
3 195 197 149
3 149 157 111
3 111 157 159
3 180 149 126
3 194 180 126
3 194 126 177
3 126 149 115
3 149 180 195
3 195 180 194
3 139 151 189
3 57 94 73
3 94 57 106
3 35 38 50
3 62 50 38
3 62 38 32
3 62 32 51
3 16 32 38
3 82 62 85
3 85 62 51
3 107 104 70
3 127 129 105
3 107 129 127
3 90 127 105
3 70 90 105
3 70 105 107
3 107 105 129
3 153 156 127
3 127 156 107
3 154 107 156
3 173 138 110
3 173 190 138
3 173 110 160
3 164 175 137
3 164 137 119
3 119 137 97
3 172 164 119
3 120 137 170
3 170 137 175
3 137 120 97
3 170 178 120
3 102 140 100
3 102 114 140
3 48 79 97
3 97 120 53
3 103 89 67
3 103 67 80
3 103 80 120
3 42 80 67
3 116 89 103
3 116 103 120
3 116 120 141
3 141 108 116
3 116 108 89
3 102 100 71
3 49 71 100
3 71 114 102
3 148 140 114
3 114 71 75
3 75 71 49
3 75 49 52
3 81 52 44
3 43 27 17
3 53 48 97
3 29 53 42
3 29 42 21
3 29 27 48
3 29 48 53
3 60 109 87
3 60 87 55
3 169 109 113
3 124 158 168
3 124 168 150
3 101 114 75
3 101 75 81
3 101 148 114
3 49 24 52
3 9 2 17
3 2 9 3
3 0 3 1
3 1 3 13
3 13 3 9
3 42 23 21
3 61 40 34
3 61 87 95
3 92 99 56
3 45 56 28
3 28 56 39
3 28 41 45
3 33 20 37
3 37 20 31
3 37 58 33
3 20 12 31
3 68 61 95
3 95 64 68
3 68 40 61
3 86 115 111
3 66 86 111
3 146 128 106
3 128 146 176
3 128 176 123
3 146 106 139
3 146 139 181
3 146 181 176
3 176 181 171
3 73 65 46
3 65 73 91
3 41 26 46
3 41 46 65
3 56 45 65
3 46 25 57
3 26 25 46
3 83 111 153
3 83 153 127
3 162 125 134
3 162 134 191
3 106 82 125
3 134 125 82
3 122 145 134
3 145 122 104
3 134 145 184
3 43 17 22
3 43 22 30
3 109 60 78
3 109 78 113
