ply
format ascii 1.0
comment Generated by MaSIF
element vertex 200
property float x
property float y
property float z
property float nx
property float ny
property float nz
property float charge
element face 347
property list uchar int vertex_indices
end_header
-13.36 133.51 27.71 -0.95 0.11 -0.31 0.17
-13.15 134.47 27.21 -0.99 0.06 -0.13 -0.04
-13.60 132.54 27.13 -1.00 0.03 -0.01 0.04
-13.62 134.63 27.96 -0.73 -0.17 -0.66 0.51
-13.53 133.43 26.55 -0.96 0.24 0.16 -0.08
-14.12 134.00 28.65 -0.70 -0.31 -0.65 0.58
-14.00 132.49 28.66 -0.84 0.19 -0.52 -0.24
-13.96 132.31 26.10 -0.99 -0.11 0.07 -0.00
-13.70 131.25 27.42 -0.86 -0.11 -0.49 0.04
-14.78 133.70 29.71 -0.94 -0.30 -0.17 0.16
-15.16 134.55 28.78 -0.69 -0.41 -0.60 0.17
-13.30 134.88 25.82 -0.92 -0.06 0.38 -0.36
-13.43 136.12 27.56 -0.69 -0.36 -0.62 0.37
-13.59 134.07 25.11 -1.00 -0.08 0.05 -0.35
-14.62 131.28 28.36 -0.46 0.33 -0.82 -0.01
-13.17 136.21 26.67 -0.96 -0.30 0.01 -0.03
-14.95 132.61 29.87 -0.79 0.52 -0.33 -0.71
-13.12 131.20 25.63 -0.89 -0.38 -0.23 -0.02
-14.81 136.07 28.32 -0.52 -0.30 -0.80 0.84
-13.71 132.53 25.03 -0.86 -0.33 -0.40 -0.10
-13.04 130.43 27.02 -0.92 -0.14 -0.35 0.02
-14.55 133.82 31.02 -0.94 -0.07 0.34 -0.15
-13.55 129.97 27.83 -0.63 0.06 -0.77 -0.24
-15.66 135.49 29.68 -0.86 -0.49 -0.12 0.36
-15.20 130.45 28.18 -0.25 0.24 -0.94 0.09
-15.53 131.40 28.88 -0.39 0.63 -0.67 0.04
-14.25 135.01 24.63 -0.84 -0.36 0.40 0.19
-15.69 136.62 28.37 -0.53 -0.44 -0.73 0.86
-13.94 136.30 25.68 -0.85 -0.31 0.43 0.20
-14.71 132.64 31.31 -0.77 0.50 0.40 -1.26
-14.92 137.19 27.85 -0.47 -0.43 -0.77 1.43
-12.87 129.96 26.00 -0.96 0.13 -0.23 0.08
-14.52 129.69 28.03 -0.21 0.14 -0.97 0.11
-12.72 131.96 24.36 -0.84 -0.45 -0.30 -0.52
-13.64 134.16 23.12 -0.90 -0.41 -0.15 -1.11
-16.34 131.94 30.70 -0.61 0.78 0.18 0.00
-15.27 135.56 31.09 -0.83 -0.40 0.38 0.43
-14.37 137.77 26.86 -0.84 -0.40 -0.36 0.55
-12.98 132.72 23.51 -0.92 -0.39 -0.01 -1.06
-13.95 129.05 27.75 -0.46 0.48 -0.75 0.07
-16.57 131.41 29.49 -0.70 0.59 -0.41 0.05
-12.48 129.31 25.14 -0.83 0.17 -0.54 0.24
-13.35 128.92 27.05 -0.78 0.52 -0.35 0.38
-14.64 135.22 31.82 -0.79 -0.35 0.50 0.26
-16.57 130.08 28.59 -0.61 0.24 -0.76 0.07
-14.93 135.36 23.49 -0.95 -0.27 -0.14 0.08
-14.10 133.09 32.43 -0.91 0.32 0.27 -0.12
-14.40 137.49 25.15 -0.99 0.14 -0.03 0.72
-16.71 136.92 29.43 -0.95 -0.28 -0.14 0.51
-16.01 136.77 30.90 -0.83 -0.31 0.46 0.76
-15.99 138.08 28.17 -0.79 -0.26 -0.56 1.11
-14.68 136.56 24.19 -0.98 0.19 0.07 0.36
-14.00 134.96 32.65 -0.65 -0.03 0.76 0.09
-15.46 131.54 31.70 -0.54 0.56 0.62 0.01
-12.55 131.76 23.31 -0.92 -0.30 0.24 -1.42
-13.77 133.79 22.14 -1.00 -0.01 -0.06 -1.16
-17.05 130.95 30.74 -0.89 0.38 0.23 0.02
-14.52 131.71 32.57 -0.87 0.42 0.26 0.48
-15.42 128.45 28.19 -0.55 0.02 -0.83 0.13
-11.92 130.78 24.30 -0.88 -0.39 -0.25 -0.34
-13.28 135.06 21.93 -0.89 0.11 -0.44 -1.19
-13.66 128.59 26.03 -0.65 0.70 -0.29 1.04
-14.11 138.48 25.53 -0.71 0.59 -0.39 0.69
-14.17 139.43 26.26 -0.18 0.25 -0.95 0.59
-16.26 130.57 31.93 -0.68 0.40 0.61 0.03
-14.85 128.03 26.94 -0.79 0.49 -0.36 0.45
-15.52 139.08 26.93 -0.56 -0.26 -0.79 1.16
-14.20 136.03 22.51 -0.79 0.08 -0.61 0.15
-17.34 130.00 30.14 -0.99 0.10 0.04 0.04
-14.86 136.81 32.59 -0.52 -0.12 0.85 0.23
-13.28 128.27 24.89 -0.63 0.68 -0.38 1.28
-17.20 128.91 29.30 -0.90 -0.28 -0.33 0.00
-11.64 129.96 24.16 -0.94 0.12 -0.32 -0.05
-12.55 128.53 23.99 -0.72 0.65 -0.23 0.78
-16.62 138.47 29.29 -0.99 0.04 -0.13 0.67
-13.11 134.13 33.33 -0.38 0.60 0.71 -0.04
-13.47 132.49 21.54 -1.00 -0.03 0.02 -2.62
-16.36 138.22 30.79 -0.89 -0.04 0.45 1.05
-13.63 133.61 33.88 -0.58 0.80 0.19 0.05
-13.27 134.25 21.05 -0.88 0.25 -0.41 -1.73
-13.64 138.13 23.83 -0.77 0.57 -0.30 0.05
-14.44 132.64 33.94 -0.92 0.38 0.05 0.10
-15.43 138.02 31.96 -0.51 0.02 0.86 0.76
-15.46 130.45 32.66 -0.66 0.54 0.53 -0.09
-13.31 139.10 25.99 -0.19 0.77 -0.61 0.49
-14.91 130.68 33.52 -0.85 0.43 0.31 0.34
-12.73 136.34 32.36 -0.09 0.21 0.97 0.34
-16.49 127.86 29.45 -0.85 -0.27 -0.46 -0.38
-16.35 139.88 27.53 -0.92 -0.11 -0.37 0.03
-12.42 135.55 20.92 -0.93 0.04 -0.38 -1.12
-12.00 129.64 22.83 -0.93 -0.07 0.36 -0.13
-13.11 140.05 26.84 0.11 0.53 -0.84 0.50
-14.70 140.51 26.34 -0.14 0.04 -0.99 0.80
-11.73 129.12 23.84 -0.85 0.52 -0.01 0.14
-14.76 127.68 25.33 -0.77 0.47 -0.42 0.60
-14.62 131.08 34.42 -0.95 0.15 0.27 0.25
-16.96 129.04 30.94 -0.96 -0.23 0.17 0.06
-15.85 126.34 29.05 -0.84 -0.38 -0.38 -0.66
-13.35 133.51 35.07 -0.28 0.79 0.54 0.01
-16.65 128.83 32.39 -0.86 -0.17 0.47 -0.05
-13.16 136.98 21.86 -0.95 0.02 -0.31 -0.71
-14.09 126.81 24.30 -0.87 0.03 -0.49 0.54
-15.91 140.81 26.90 -0.71 0.07 -0.70 0.57
-12.78 134.05 19.96 -0.96 0.25 -0.11 -0.67
-15.31 126.21 27.44 -0.94 -0.11 -0.32 0.34
-14.15 138.56 32.14 0.13 0.28 0.95 1.03
-14.14 132.64 35.29 -0.75 0.49 0.45 0.02
-13.33 130.28 21.54 -0.66 0.01 0.75 -1.05
-13.10 137.62 32.43 0.07 0.32 0.94 0.34
-13.49 127.47 22.85 -1.00 0.06 -0.08 0.24
-12.22 128.61 22.46 -0.77 0.43 0.48 0.19
-13.01 132.49 20.07 -0.88 0.46 -0.08 -0.80
-11.64 134.14 33.81 -0.35 0.67 0.65 -0.72
-13.54 141.44 27.01 0.46 0.57 -0.68 0.55
-13.89 131.58 20.67 -0.63 0.67 0.39 -0.34
-15.75 129.19 33.40 -0.84 0.06 0.54 -0.32
-15.14 139.39 32.24 -0.30 0.08 0.95 1.69
-12.25 138.87 24.19 -0.53 0.83 -0.19 -0.24
-14.81 125.86 26.15 -0.90 -0.29 -0.33 0.98
-12.13 139.65 26.21 -0.57 0.59 -0.57 0.44
-12.06 135.39 32.81 -0.31 0.41 0.86 0.05
-16.65 127.71 31.04 -0.94 -0.24 0.24 -0.59
-15.21 141.67 26.54 -0.28 0.54 -0.80 0.70
-12.55 141.08 27.57 0.09 0.69 -0.71 0.37
-12.67 136.59 20.12 -0.94 -0.34 -0.05 -0.42
-16.76 126.60 30.38 -0.96 -0.25 -0.07 -1.47
-12.96 138.59 22.06 -0.84 0.49 0.22 -0.06
-12.21 135.01 19.65 -0.96 0.20 0.22 -0.22
-11.27 135.97 32.99 -0.56 0.26 0.79 0.74
-16.23 141.75 28.55 -0.90 0.33 -0.28 0.28
-16.36 140.46 30.86 -0.93 0.01 0.36 0.52
-11.35 137.41 32.37 -0.41 0.48 0.78 0.26
-14.22 131.53 35.82 -0.59 -0.09 0.80 -0.06
-13.71 130.01 35.36 -0.37 -0.14 0.92 -0.19
-11.34 133.49 35.03 0.06 0.79 0.62 -0.11
-12.05 133.14 35.69 0.24 0.47 0.85 -0.04
-15.18 125.30 29.90 -0.54 -0.83 -0.16 -0.61
-15.25 128.64 34.61 -0.84 0.03 0.54 -0.95
-14.76 131.23 20.52 -0.19 0.76 0.62 0.16
-15.02 125.00 28.09 -0.74 -0.67 -0.08 0.04
-12.60 135.76 19.14 -0.89 -0.09 0.46 -0.04
-13.18 134.04 18.94 -0.79 0.11 0.61 0.16
-13.32 137.69 20.85 -0.98 -0.20 0.04 -0.18
-13.03 132.67 19.04 -0.88 0.25 0.40 -0.06
-16.17 125.56 30.48 -0.60 -0.79 -0.06 -0.92
-14.11 125.43 25.02 -0.81 -0.46 -0.36 0.54
-14.64 125.08 29.07 -0.54 -0.84 -0.01 -0.12
-10.43 134.65 34.10 -0.10 0.12 0.99 -0.17
-14.26 127.61 22.05 -0.32 -0.30 0.90 0.22
-13.65 131.88 19.12 -0.70 0.68 0.21 -0.11
-13.31 139.54 31.28 0.33 0.21 0.92 0.55
-14.55 131.58 19.37 -0.33 0.94 -0.06 0.08
-12.60 132.02 36.15 0.01 0.19 0.98 -0.04
-14.55 142.46 27.58 0.06 0.84 -0.54 0.66
-13.39 125.29 23.83 -0.80 -0.37 -0.47 0.18
-11.32 140.30 25.76 -0.80 0.12 -0.59 0.36
-15.17 127.75 33.15 -0.66 -0.54 0.53 -0.39
-15.75 127.22 32.23 -0.64 -0.42 0.65 -0.08
-13.86 128.92 21.43 -0.24 0.39 0.89 0.31
-13.08 141.57 28.45 0.31 0.83 -0.47 0.23
-14.68 129.95 21.19 -0.04 0.37 0.93 0.89
-11.75 141.18 27.45 -0.71 0.50 -0.50 0.39
-11.84 138.23 31.66 -0.06 0.53 0.85 -0.03
-11.78 139.24 22.83 -0.65 0.73 0.21 -0.02
-15.30 141.00 31.99 -0.08 0.09 0.99 0.64
-12.15 141.62 28.62 -0.17 0.83 -0.53 0.43
-12.42 127.13 21.21 -0.34 -0.84 -0.42 0.23
-14.07 124.59 27.15 -0.62 -0.78 -0.06 0.41
-12.97 139.51 21.15 -0.73 0.62 0.30 -0.01
-14.59 129.33 35.27 -0.54 0.14 0.83 -0.90
-16.04 125.98 31.59 -0.63 -0.49 0.60 -1.01
-10.85 140.03 23.87 -0.82 0.54 -0.20 0.17
-14.95 125.31 31.09 -0.35 -0.80 0.49 -0.82
-11.15 140.23 24.78 -0.85 0.43 -0.31 0.27
-14.56 127.47 34.18 -0.51 -0.75 0.42 -0.98
-12.94 137.17 18.61 -0.94 0.24 -0.25 -0.11
-12.54 130.62 35.82 0.07 -0.22 0.97 -0.01
-13.54 138.43 20.09 -1.00 -0.01 0.04 -0.07
-12.22 139.29 31.19 0.02 0.25 0.97 0.13
-10.50 138.50 31.96 -0.54 0.38 0.75 -0.26
-13.90 127.14 20.75 0.04 -0.98 0.19 0.54
-14.16 124.52 30.03 -0.58 -0.82 0.04 -0.04
-12.22 125.33 22.52 -0.58 -0.42 -0.70 0.22
-15.88 143.10 29.60 -0.58 0.81 -0.11 0.95
-16.42 142.18 30.79 -0.88 0.32 0.36 0.51
-13.77 133.02 18.17 -0.87 -0.02 0.49 0.00
-11.21 141.23 25.28 -0.89 -0.11 -0.44 0.30
-10.43 137.24 33.79 -0.68 0.39 0.62 -0.14
-13.63 135.79 18.31 -0.80 0.30 0.52 0.01
-13.80 128.14 35.16 0.03 -0.56 0.83 -2.14
-13.39 142.57 29.26 0.51 0.71 -0.48 0.33
-14.81 143.17 28.61 -0.06 0.87 -0.49 1.50
-14.46 126.95 32.76 -0.28 -0.72 0.64 0.06
-11.62 140.08 21.82 -0.52 0.78 0.34 0.00
-14.12 134.43 17.90 -0.83 0.02 0.56 0.16
-11.47 141.65 26.75 -0.91 -0.20 -0.36 0.37
-10.77 131.63 35.11 0.63 0.08 0.77 -0.06
-9.28 133.97 33.51 0.32 -0.34 0.88 -0.53
-14.03 140.51 31.45 0.38 0.05 0.93 0.63
-16.31 131.10 20.72 -0.11 0.88 0.45 1.23
3 187 128 147
3 131 162 108
3 108 162 178
3 150 198 164
3 150 164 116
3 130 116 164
3 129 191 153
3 153 191 190
3 153 190 113
3 147 134 196
3 128 120 147
3 120 128 86
3 108 178 105
3 105 178 150
3 105 150 116
3 105 116 82
3 108 105 82
3 108 82 69
3 77 82 116
3 82 49 69
3 74 129 50
3 50 129 88
3 66 92 63
3 92 113 63
3 155 186 173
3 173 119 155
3 81 95 106
3 95 57 85
3 78 134 75
3 52 75 86
3 75 52 46
3 78 75 46
3 21 52 43
3 52 86 69
3 69 86 108
3 48 23 49
3 27 23 48
3 27 18 23
3 66 37 50
3 66 63 37
3 37 63 62
3 62 63 84
3 47 28 37
3 47 51 28
3 51 47 80
3 117 173 171
3 126 163 193
3 163 126 117
3 117 126 80
3 80 126 100
3 192 174 156
3 156 157 192
3 137 115 174
3 156 174 115
3 115 99 156
3 169 133 137
3 95 137 133
3 133 132 95
3 189 133 169
3 132 133 176
3 115 85 83
3 115 83 64
3 16 35 29
3 53 29 35
3 29 21 16
3 9 16 21
3 21 36 9
3 10 5 9
3 6 9 5
3 30 18 27
3 28 26 11
3 11 26 13
3 11 13 4
3 124 100 142
3 67 80 100
3 100 126 142
3 140 175 188
3 192 157 170
3 157 99 121
3 157 121 170
3 96 99 68
3 99 64 68
3 56 40 68
3 40 35 25
3 4 7 2
3 6 2 8
3 7 17 2
3 2 17 8
3 31 17 41
3 38 34 55
3 34 67 60
3 34 60 55
3 60 79 55
3 38 76 54
3 151 138 114
3 76 79 103
3 167 146 139
3 136 181 172
3 136 97 146
3 146 97 139
3 139 97 104
3 125 87 97
3 87 125 121
3 121 71 87
3 121 96 71
3 44 58 71
3 97 58 65
3 58 24 32
3 24 25 14
3 8 14 6
3 14 8 22
3 22 32 14
3 24 14 32
3 31 20 17
3 39 42 65
3 61 31 41
3 70 61 41
3 107 114 160
3 160 114 138
3 160 138 199
3 138 151 199
3 65 94 118
3 65 61 94
3 61 70 94
3 70 73 109
3 70 109 101
3 145 167 118
3 145 101 154
3 182 154 109
3 39 65 58
3 39 58 32
3 112 134 147
3 86 128 131
3 86 131 108
3 131 128 187
3 131 179 162
3 159 113 190
3 159 165 113
3 123 113 165
3 165 161 123
3 75 134 112
3 86 75 120
3 120 75 112
3 120 112 147
3 77 49 82
3 119 84 91
3 113 91 63
3 63 91 84
3 119 91 123
3 119 123 161
3 155 119 186
3 186 119 195
3 119 161 195
3 113 123 91
3 46 21 29
3 21 46 52
3 36 21 43
3 36 49 23
3 37 62 47
3 50 37 30
3 18 30 12
3 15 12 37
3 15 37 28
3 37 12 30
3 163 117 171
3 99 157 156
3 85 115 137
3 95 85 137
3 57 83 85
3 46 29 57
3 46 57 81
3 57 29 53
3 6 16 9
3 5 3 0
3 1 4 0
3 1 0 3
3 11 1 15
3 28 11 15
3 12 3 18
3 3 12 15
3 3 15 1
3 4 1 11
3 89 79 60
3 89 100 124
3 100 89 67
3 67 89 60
3 140 124 175
3 96 121 99
3 83 53 64
3 53 83 57
3 16 25 35
3 14 25 16
3 14 16 6
3 2 6 0
3 2 0 4
3 0 6 5
3 20 8 17
3 59 33 90
3 90 33 54
3 17 33 41
3 59 41 33
3 38 54 33
3 45 34 26
3 26 34 13
3 13 34 38
3 13 38 19
3 19 38 33
3 107 76 114
3 143 149 111
3 149 114 111
3 143 111 103
3 149 143 185
3 185 143 141
3 141 143 103
3 103 111 76
3 76 111 114
3 151 114 149
3 127 103 89
3 140 127 89
3 140 89 124
3 89 103 79
3 103 127 141
3 141 127 140
3 136 146 181
3 58 87 71
3 87 58 97
3 32 22 39
3 42 39 22
3 42 22 20
3 42 20 31
3 8 20 22
3 65 42 61
3 61 42 31
3 73 70 41
3 90 93 72
3 73 93 90
3 59 90 72
3 41 59 72
3 41 72 73
3 73 72 93
3 158 109 110
3 148 109 158
3 107 158 110
3 107 110 90
3 90 110 73
3 109 73 110
3 160 158 107
3 166 182 109
3 148 180 109
3 109 180 166
3 109 154 101
3 164 184 130
3 129 184 183
3 184 129 130
3 183 191 129
3 135 196 134
3 135 152 196
3 77 116 130
3 130 129 74
3 102 92 66
3 102 66 88
3 102 88 129
3 50 88 66
3 122 92 102
3 122 102 129
3 122 129 153
3 153 113 122
3 122 113 92
3 135 134 98
3 78 98 134
3 98 152 135
3 176 196 152
3 152 98 106
3 106 98 78
3 106 78 81
3 95 81 57
3 69 49 36
3 74 77 130
3 48 74 50
3 48 50 27
3 48 49 77
3 48 77 74
3 62 117 80
3 62 80 47
3 173 117 119
3 193 168 126
3 137 174 189
3 137 189 169
3 132 152 106
3 132 106 95
3 132 176 152
3 78 46 81
3 23 9 36
3 9 23 10
3 5 10 3
3 3 10 18
3 18 10 23
3 50 30 27
3 51 26 28
3 51 80 67
3 168 177 126
3 177 142 126
3 177 124 142
3 124 177 175
3 99 115 64
3 56 64 35
3 35 64 53
3 35 40 56
3 17 7 19
3 19 7 13
3 19 33 17
3 7 4 13
3 45 51 67
3 67 34 45
3 45 26 51
3 55 79 76
3 38 55 76
3 144 125 97
3 125 144 170
3 125 170 121
3 144 97 136
3 144 136 172
3 144 172 170
3 170 172 192
3 71 68 44
3 68 71 96
3 40 25 44
3 40 44 68
3 64 56 68
3 44 24 58
3 25 24 44
3 54 76 107
3 54 107 90
3 194 185 141
3 188 194 141
3 188 141 140
3 139 104 118
3 139 118 167
3 97 65 104
3 118 104 65
3 94 101 118
3 101 94 70
3 118 101 145
3 69 36 43
3 69 43 52
3 117 62 84
3 117 84 119
