ply
format ascii 1.0
comment Generated by MaSIF
element vertex 200
property float x
property float y
property float z
property float nx
property float ny
property float nz
property float charge
element face 346
property list uchar int vertex_indices
end_header
-14.53 132.10 28.65 -0.83 0.12 -0.55 -0.24
-14.99 130.85 28.28 -0.46 0.32 -0.83 -0.01
-15.54 132.06 29.82 -0.83 0.45 -0.34 -0.71
-13.96 133.23 27.78 -0.94 0.02 -0.35 0.17
-14.81 133.59 28.70 -0.63 -0.35 -0.69 0.58
-14.07 132.27 27.15 -1.00 -0.08 -0.05 0.04
-14.04 130.96 27.38 -0.82 -0.18 -0.54 0.04
-15.48 133.17 29.71 -0.89 -0.39 -0.23 0.16
-15.46 129.97 28.03 -0.24 0.25 -0.94 0.09
-15.93 130.85 28.75 -0.43 0.61 -0.66 0.04
-14.36 134.30 28.06 -0.67 -0.22 -0.70 0.51
-13.85 134.23 27.33 -0.98 -0.05 -0.17 -0.04
-14.08 133.19 26.61 -0.98 0.12 0.13 -0.08
-15.36 132.05 31.27 -0.84 0.39 0.38 -1.26
-14.35 132.05 26.10 -0.97 -0.23 0.02 -0.00
-15.92 134.02 28.80 -0.61 -0.46 -0.65 0.17
-13.27 130.24 26.98 -0.89 -0.23 -0.40 0.02
-15.32 133.26 31.04 -0.94 -0.19 0.29 -0.15
-14.69 129.30 27.89 -0.19 0.16 -0.97 0.11
-13.75 129.69 27.75 -0.60 0.02 -0.80 -0.24
-16.87 131.21 30.55 -0.70 0.69 0.18 0.00
-16.98 130.70 29.32 -0.74 0.52 -0.42 0.05
-13.38 131.06 25.62 -0.84 -0.47 -0.29 -0.02
-16.55 134.85 29.72 -0.79 -0.58 -0.18 0.36
-14.08 132.34 25.04 -0.80 -0.40 -0.45 -0.10
-16.80 129.43 28.36 -0.60 0.20 -0.78 0.07
-14.04 128.74 27.61 -0.48 0.46 -0.75 0.07
-13.00 129.85 25.95 -0.96 0.03 -0.27 0.08
-16.24 134.90 31.14 -0.80 -0.51 0.33 0.43
-14.85 132.52 32.43 -0.95 0.21 0.24 -0.12
-16.00 130.86 31.58 -0.63 0.47 0.62 0.01
-14.33 135.83 27.73 -0.62 -0.41 -0.67 0.37
-13.98 134.69 25.95 -0.93 -0.18 0.33 -0.36
-14.14 133.88 25.19 -0.98 -0.19 -0.00 -0.35
-17.46 130.14 30.52 -0.94 0.27 0.20 0.02
-15.12 131.10 32.50 -0.92 0.31 0.24 0.48
-15.72 135.58 28.42 -0.45 -0.32 -0.83 0.84
-15.46 127.96 27.96 -0.51 -0.00 -0.86 0.13
-13.41 128.70 26.93 -0.82 0.44 -0.36 0.38
-14.04 135.98 26.86 -0.92 -0.40 -0.05 -0.03
-15.60 134.60 31.89 -0.77 -0.46 0.45 0.26
-16.69 129.80 31.73 -0.75 0.30 0.60 0.03
-14.97 134.37 32.73 -0.67 -0.14 0.73 0.09
-17.62 129.20 29.87 -1.00 -0.01 -0.00 0.04
-12.50 129.28 25.08 -0.82 0.10 -0.57 0.24
-13.01 131.92 24.41 -0.77 -0.52 -0.36 -0.52
-17.32 128.16 29.00 -0.85 -0.37 -0.39 0.00
-16.65 136.04 28.45 -0.45 -0.46 -0.77 0.86
-17.10 136.02 30.97 -0.81 -0.42 0.41 0.76
-17.75 136.16 29.47 -0.91 -0.38 -0.19 0.51
-14.79 127.66 26.72 -0.83 0.42 -0.38 0.45
-13.32 132.69 23.58 -0.87 -0.49 -0.07 -1.06
-15.94 136.70 27.99 -0.38 -0.44 -0.81 1.43
-15.91 129.74 32.49 -0.73 0.43 0.52 -0.09
-14.89 134.76 24.72 -0.81 -0.47 0.35 0.19
-14.02 133.62 33.42 -0.47 0.52 0.71 -0.04
-13.63 128.39 25.89 -0.71 0.64 -0.29 1.04
-14.51 133.02 33.93 -0.67 0.72 0.19 0.05
-15.43 129.99 33.39 -0.90 0.32 0.28 0.34
-15.20 131.96 33.90 -0.96 0.27 0.02 0.10
-14.76 136.03 25.84 -0.82 -0.43 0.37 0.20
-16.04 136.12 32.71 -0.53 -0.21 0.82 0.23
-16.51 127.19 29.14 -0.79 -0.34 -0.51 -0.38
-14.12 134.06 23.21 -0.84 -0.50 -0.21 -1.11
-15.23 130.37 34.32 -0.97 0.03 0.23 0.25
-15.42 137.39 27.05 -0.78 -0.47 -0.42 0.55
-17.17 128.24 30.64 -0.93 -0.34 0.11 0.06
-12.78 131.79 23.35 -0.89 -0.41 0.18 -1.42
-15.68 125.77 28.70 -0.78 -0.45 -0.44 -0.66
-12.08 130.84 24.33 -0.82 -0.48 -0.31 -0.34
-13.17 128.17 24.75 -0.68 0.62 -0.38 1.28
-11.70 130.06 24.17 -0.93 0.03 -0.36 -0.05
-12.43 128.55 23.90 -0.78 0.58 -0.24 0.78
-16.90 128.00 32.10 -0.86 -0.29 0.42 -0.05
-13.86 135.90 32.56 -0.16 0.16 0.98 0.34
-14.27 132.89 35.12 -0.39 0.73 0.56 0.01
-17.11 137.45 28.29 -0.73 -0.32 -0.60 1.11
-15.55 135.08 23.57 -0.91 -0.37 -0.19 0.08
-17.61 137.43 30.90 -0.90 -0.16 0.41 1.05
-16.09 128.41 33.17 -0.87 -0.06 0.50 -0.32
-17.83 137.72 29.41 -0.98 -0.06 -0.18 0.67
-16.71 137.29 32.10 -0.54 -0.07 0.84 0.76
-14.97 131.93 35.27 -0.82 0.38 0.44 0.02
-15.33 137.19 25.34 -1.00 0.03 -0.07 0.72
-15.46 136.28 24.32 -1.00 0.07 0.03 0.36
-14.59 127.40 25.10 -0.80 0.40 -0.44 0.60
-12.59 133.76 33.97 -0.45 0.60 0.66 -0.72
-16.72 126.96 30.71 -0.92 -0.36 0.18 -0.59
-14.17 133.72 22.21 -0.99 -0.12 -0.10 -1.16
-15.06 125.78 27.11 -0.91 -0.20 -0.37 0.34
-13.10 135.01 33.01 -0.39 0.34 0.86 0.05
-16.67 125.88 30.00 -0.93 -0.36 -0.13 -1.47
-11.68 129.23 23.82 -0.90 0.43 -0.03 0.14
-13.81 135.05 22.07 -0.88 0.03 -0.48 -1.19
-13.69 132.49 21.57 -0.99 -0.14 -0.03 -2.62
-14.94 130.80 35.75 -0.61 -0.19 0.77 -0.06
-14.37 137.13 32.67 -0.01 0.28 0.96 0.34
-15.17 138.19 25.77 -0.75 0.52 -0.40 0.69
-14.47 125.54 25.84 -0.84 -0.38 -0.38 0.98
-14.25 129.37 35.25 -0.39 -0.23 0.89 -0.19
-15.38 139.09 26.54 -0.17 0.27 -0.95 0.59
-14.94 124.78 29.54 -0.43 -0.87 -0.22 -0.61
-15.59 127.87 34.37 -0.86 -0.09 0.50 -0.95
-16.71 138.56 27.12 -0.49 -0.28 -0.82 1.16
-12.27 133.10 35.18 -0.06 0.76 0.65 -0.11
-15.97 124.90 30.08 -0.51 -0.85 -0.12 -0.92
-14.86 135.88 22.65 -0.76 0.02 -0.64 0.15
-11.96 129.77 22.81 -0.93 -0.18 0.31 -0.13
-12.96 132.64 35.79 0.15 0.46 0.88 -0.04
-13.78 126.66 24.07 -0.85 -0.04 -0.53 0.54
-14.33 124.66 28.73 -0.44 -0.90 -0.07 -0.12
-15.51 137.96 32.37 0.06 0.25 0.97 1.03
-13.20 127.45 22.67 -0.99 -0.04 -0.12 0.24
-12.05 128.73 22.40 -0.83 0.32 0.46 0.19
-14.67 124.58 27.73 -0.65 -0.74 -0.15 0.04
-15.34 127.07 32.88 -0.62 -0.63 0.47 -0.39
-15.82 126.52 31.91 -0.61 -0.52 0.60 -0.08
-12.39 135.66 33.24 -0.62 0.16 0.77 0.74
-12.61 137.12 32.68 -0.50 0.39 0.77 0.26
-16.59 138.66 32.46 -0.35 0.00 0.94 1.69
-13.68 134.29 21.16 -0.88 0.17 -0.44 -1.73
-11.46 134.40 34.35 -0.16 0.06 0.99 -0.17
-13.40 131.45 36.18 -0.05 0.15 0.99 -0.04
-14.60 137.97 24.08 -0.81 0.49 -0.31 0.05
-14.47 138.87 26.30 -0.25 0.77 -0.59 0.49
-17.64 139.23 27.71 -0.89 -0.19 -0.42 0.03
-15.03 128.60 35.09 -0.59 0.04 0.81 -0.90
-15.93 125.28 31.21 -0.60 -0.58 0.55 -1.01
-13.31 130.31 21.49 -0.69 -0.10 0.72 -1.05
-14.76 124.76 30.74 -0.28 -0.85 0.44 -0.82
-14.75 126.80 33.93 -0.44 -0.82 0.36 -0.98
-13.17 130.09 35.79 0.05 -0.25 0.97 -0.01
-13.68 125.26 24.73 -0.73 -0.53 -0.42 0.54
-12.97 135.67 21.13 -0.91 -0.04 -0.42 -1.12
-14.42 139.80 27.19 0.09 0.58 -0.81 0.50
-16.03 140.10 26.64 -0.10 0.07 -0.99 0.80
-17.86 139.66 31.06 -0.94 -0.11 0.32 0.52
-13.17 132.61 20.13 -0.93 0.37 -0.10 -0.80
-13.97 131.58 20.65 -0.72 0.58 0.39 -0.34
-13.84 124.12 29.69 -0.48 -0.88 -0.02 -0.04
-13.16 137.91 31.99 -0.15 0.48 0.86 -0.03
-13.64 124.33 26.82 -0.53 -0.84 -0.12 0.41
-14.11 127.51 34.97 0.06 -0.59 0.80 -2.14
-14.53 126.37 32.50 -0.22 -0.77 0.59 0.06
-12.58 128.22 34.80 0.23 -0.60 0.76 -0.30
-17.28 140.24 27.14 -0.68 0.03 -0.73 0.57
-13.90 136.97 22.09 -0.93 -0.07 -0.35 -0.71
-13.95 127.53 21.85 -0.32 -0.37 0.87 0.22
-13.12 134.19 20.09 -0.98 0.15 -0.15 -0.67
-12.89 125.25 23.57 -0.73 -0.44 -0.53 0.18
-14.75 139.06 31.58 0.26 0.21 0.94 0.55
-11.50 131.31 35.21 0.58 0.11 0.81 -0.06
-11.99 129.49 35.64 0.30 -0.29 0.91 -0.15
-10.21 133.87 33.78 0.32 -0.34 0.88 -0.53
-11.88 138.30 32.36 -0.61 0.28 0.74 -0.26
-15.01 141.12 27.39 0.42 0.65 -0.64 0.55
-13.63 138.94 31.54 -0.05 0.21 0.98 0.13
-13.31 138.84 24.53 -0.61 0.77 -0.18 -0.24
-16.92 140.26 32.26 -0.14 0.03 0.99 0.64
-9.93 134.86 34.38 0.14 -0.54 0.83 -0.33
-13.38 139.54 26.59 -0.61 0.55 -0.57 0.44
-12.03 127.30 21.07 -0.22 -0.85 -0.47 0.23
-11.74 136.99 34.14 -0.74 0.29 0.61 -0.14
-16.67 141.18 26.86 -0.30 0.54 -0.79 0.70
-14.79 131.15 20.45 -0.30 0.71 0.64 0.16
-13.80 124.79 31.51 -0.70 -0.46 0.55 0.07
-17.78 141.06 28.82 -0.92 0.24 -0.31 0.28
-13.17 132.83 19.11 -0.92 0.13 0.37 -0.06
-10.76 132.67 33.85 0.59 0.05 0.80 -0.94
-13.28 123.75 30.62 -0.71 -0.69 -0.11 0.88
-12.57 123.91 27.71 -0.66 -0.75 0.08 0.07
-14.01 140.85 27.99 0.04 0.73 -0.68 0.37
-13.68 128.91 21.29 -0.32 0.32 0.89 0.31
-13.30 136.72 20.36 -0.89 -0.44 -0.10 -0.42
-13.80 125.86 31.99 -0.37 -0.52 0.77 0.09
-14.59 129.85 21.06 -0.13 0.32 0.94 0.89
-13.70 131.97 19.13 -0.78 0.59 0.20 -0.11
-14.57 131.57 19.32 -0.43 0.90 -0.03 0.08
-10.91 136.12 35.23 -0.33 -0.09 0.94 -0.18
-13.48 127.17 20.54 0.14 -0.98 0.15 0.54
-12.65 135.22 19.85 -0.98 0.08 0.18 -0.22
-12.14 123.66 28.96 -0.56 -0.82 -0.13 0.10
-11.68 125.48 22.31 -0.50 -0.45 -0.74 0.22
-13.90 138.58 22.37 -0.90 0.38 0.20 -0.06
-18.11 141.36 31.06 -0.92 0.21 0.33 0.51
-12.50 139.12 31.65 -0.40 -0.03 0.92 -0.05
-13.03 126.60 32.86 -0.08 -0.53 0.84 -0.18
-11.96 127.71 33.63 0.15 -0.68 0.72 -0.53
-12.22 123.90 24.46 -0.68 -0.68 -0.29 0.18
-15.58 139.93 31.77 0.33 0.05 0.94 0.63
-13.10 135.95 19.35 -0.89 -0.21 0.41 -0.04
-13.47 134.18 19.05 -0.82 -0.01 0.57 0.16
-14.11 137.71 21.11 -0.95 -0.31 -0.01 -0.18
-10.92 139.08 33.13 -0.69 0.31 0.66 -0.36
-12.13 123.39 26.60 -0.74 -0.67 -0.11 -0.21
-11.95 124.05 23.30 -0.66 -0.59 -0.46 -0.28
-9.91 132.60 33.37 0.31 0.03 0.95 -0.35
-16.15 142.00 27.95 -0.01 0.86 -0.51 0.66
-12.62 140.29 26.20 -0.78 0.05 -0.62 0.36
-14.27 140.40 31.41 -0.17 -0.23 0.96 0.30
3 168 153 121
3 162 117 121
3 118 140 96
3 96 140 156
3 162 193 118
3 154 118 193
3 150 189 158
3 150 158 119
3 136 119 158
3 121 151 168
3 121 104 151
3 117 90 121
3 90 117 74
3 96 156 111
3 111 156 150
3 111 150 119
3 111 119 81
3 96 111 81
3 96 81 61
3 78 81 119
3 81 48 61
3 80 166 76
3 76 166 125
3 103 135 100
3 135 155 100
3 187 144 142
3 144 152 99
3 144 99 142
3 131 152 151
3 59 64 82
3 64 35 58
3 57 104 55
3 42 55 74
3 55 42 29
3 57 55 29
3 17 42 40
3 42 74 61
3 61 74 96
3 49 23 48
3 47 23 49
3 47 36 23
3 103 65 76
3 103 100 65
3 65 100 97
3 97 100 124
3 83 60 65
3 83 84 60
3 84 83 123
3 157 183 123
3 123 183 146
3 143 186 130
3 143 130 115
3 115 116 143
3 102 79 130
3 115 130 79
3 79 73 115
3 126 99 102
3 64 102 99
3 99 95 64
3 142 99 126
3 95 99 131
3 79 58 53
3 79 53 41
3 2 20 13
3 30 13 20
3 13 17 2
3 7 2 17
3 17 28 7
3 15 4 7
3 0 7 4
3 52 36 47
3 60 54 32
3 32 54 33
3 32 33 12
3 173 146 192
3 106 123 146
3 146 183 192
3 181 169 139
3 143 116 127
3 116 73 87
3 116 87 127
3 66 73 43
3 73 41 43
3 34 21 43
3 21 20 9
3 12 14 5
3 0 5 6
3 14 22 5
3 5 22 6
3 27 22 44
3 51 63 88
3 63 106 93
3 63 93 88
3 93 120 88
3 51 94 67
3 177 164 138
3 94 120 148
3 141 110 114
3 101 139 129
3 101 68 110
3 110 68 114
3 114 68 89
3 91 62 68
3 62 91 87
3 87 46 62
3 87 66 46
3 25 37 46
3 68 37 50
3 37 8 18
3 8 9 1
3 6 1 0
3 1 6 19
3 19 18 1
3 8 1 18
3 27 16 22
3 26 38 50
3 56 27 44
3 70 56 44
3 128 138 175
3 175 138 164
3 50 85 98
3 50 56 85
3 56 70 85
3 70 72 112
3 70 112 109
3 188 132 149
3 132 141 98
3 132 109 149
3 182 149 112
3 26 50 37
3 26 37 18
3 153 159 121
3 86 104 121
3 74 117 118
3 74 118 96
3 118 117 162
3 118 154 140
3 185 140 154
3 196 153 168
3 55 104 86
3 74 55 90
3 90 55 86
3 90 86 121
3 156 199 150
3 140 185 156
3 78 48 81
3 160 124 134
3 155 134 100
3 100 134 124
3 160 134 171
3 155 171 134
3 131 99 152
3 29 17 13
3 17 29 42
3 28 17 40
3 28 48 23
3 65 97 83
3 76 65 52
3 36 52 31
3 39 31 65
3 39 65 60
3 65 31 52
3 143 174 186
3 73 116 115
3 58 79 102
3 64 58 102
3 35 53 58
3 29 13 35
3 29 35 59
3 35 13 30
3 0 2 7
3 4 10 3
3 11 12 3
3 11 3 10
3 32 11 39
3 60 32 39
3 31 10 36
3 10 31 39
3 10 39 11
3 12 11 32
3 133 120 93
3 133 146 173
3 146 133 106
3 106 133 93
3 129 139 165
3 165 139 169
3 143 129 174
3 174 129 165
3 66 87 73
3 53 30 41
3 30 53 35
3 2 9 20
3 1 9 2
3 1 2 0
3 5 0 3
3 5 3 12
3 3 0 4
3 16 6 22
3 69 45 107
3 107 45 67
3 22 45 44
3 69 44 45
3 51 67 45
3 77 63 54
3 54 63 33
3 33 63 51
3 33 51 24
3 24 51 45
3 128 94 138
3 167 176 137
3 176 138 137
3 167 137 148
3 191 167 148
3 148 137 94
3 94 137 138
3 177 138 176
3 180 148 133
3 190 180 133
3 190 133 173
3 133 148 120
3 148 180 191
3 191 180 190
3 170 110 141
3 110 170 181
3 101 110 139
3 37 62 46
3 62 37 68
3 18 19 26
3 38 26 19
3 38 19 16
3 38 16 27
3 6 16 19
3 50 38 56
3 56 38 27
3 72 70 44
3 107 92 71
3 72 92 107
3 69 107 71
3 44 69 71
3 44 71 72
3 72 71 92
3 172 112 113
3 147 112 172
3 128 172 113
3 128 113 107
3 107 113 72
3 112 72 113
3 175 172 128
3 170 141 194
3 161 182 112
3 147 179 112
3 112 179 161
3 112 149 109
3 178 162 121
3 178 121 159
3 158 184 136
3 184 166 136
3 108 151 104
3 108 122 151
3 78 119 136
3 136 166 80
3 145 135 103
3 145 103 125
3 145 125 166
3 76 125 103
3 163 135 145
3 163 145 166
3 163 166 197
3 197 155 163
3 163 155 135
3 108 104 75
3 57 75 104
3 75 122 108
3 131 151 122
3 122 75 82
3 82 75 57
3 82 57 59
3 64 59 35
3 61 48 28
3 80 78 136
3 49 80 76
3 49 76 47
3 49 48 78
3 49 78 80
3 97 157 123
3 97 123 83
3 102 130 142
3 102 142 126
3 187 142 186
3 130 186 142
3 95 122 82
3 95 82 64
3 95 131 122
3 57 29 59
3 23 7 28
3 7 23 15
3 4 15 10
3 10 15 36
3 36 15 23
3 76 52 47
3 84 54 60
3 84 123 106
3 73 79 41
3 34 41 20
3 20 41 30
3 20 21 34
3 22 14 24
3 24 14 33
3 24 45 22
3 14 12 33
3 77 84 106
3 106 63 77
3 77 54 84
3 88 120 94
3 51 88 94
3 105 91 68
3 91 105 127
3 91 127 87
3 105 68 101
3 105 101 129
3 105 129 127
3 127 129 143
3 46 43 25
3 43 46 66
3 21 9 25
3 21 25 43
3 41 34 43
3 25 8 37
3 9 8 25
3 67 94 128
3 67 128 107
3 114 89 98
3 114 98 141
3 68 50 89
3 98 89 50
3 141 132 188
3 85 109 98
3 109 85 70
3 98 109 132
3 195 188 149
3 149 182 195
3 61 28 40
3 61 40 42
3 157 97 124
3 157 124 160
3 139 110 181
