ply
format ascii 1.0
comment Generated by MaSIF
element vertex 186
property float x
property float y
property float z
property float nx
property float ny
property float nz
property float charge
element face 329
property list uchar int vertex_indices
end_header
46.44 134.45 15.22 0.43 -0.20 -0.88 0.27
45.80 133.53 15.84 0.28 -0.72 -0.63 0.30
45.48 134.73 14.73 0.46 -0.32 -0.82 -0.12
47.49 134.95 15.67 0.62 0.01 -0.78 0.45
46.41 135.71 15.72 0.54 0.50 -0.68 0.23
45.07 135.84 14.50 0.82 0.20 -0.54 -0.68
47.67 135.65 16.83 0.77 0.61 -0.19 0.10
45.52 136.40 15.69 0.67 0.31 -0.67 -0.00
48.13 134.27 16.67 0.97 -0.09 -0.24 0.41
44.90 132.76 16.63 0.09 -0.97 -0.24 0.26
44.43 133.32 15.32 0.11 -0.77 -0.62 0.02
44.43 134.97 13.77 0.52 -0.61 -0.60 -0.74
47.29 133.32 16.31 0.43 -0.70 -0.57 0.11
46.21 137.09 16.33 0.76 0.23 -0.61 -1.30
46.08 132.68 17.40 0.17 -0.97 -0.14 -0.30
46.89 136.45 17.37 0.85 0.52 -0.05 -0.49
43.62 134.34 14.56 0.11 -0.80 -0.59 -0.22
48.43 134.60 17.86 0.96 0.23 0.16 0.19
44.88 137.02 14.95 0.94 0.11 -0.34 -0.33
44.65 135.98 13.25 0.82 -0.04 -0.58 -1.34
44.12 132.80 17.76 -0.32 -0.92 0.21 0.10
47.58 133.06 17.65 0.56 -0.83 0.04 0.07
43.43 132.68 16.88 -0.17 -0.98 0.04 -0.05
47.34 135.55 18.48 0.69 0.62 0.37 -0.00
46.76 137.38 17.65 0.97 0.13 0.19 -1.31
43.57 135.51 12.65 0.32 -0.41 -0.86 -0.82
46.18 133.03 18.82 0.36 -0.84 0.41 -0.43
46.23 136.33 18.60 0.71 0.38 0.59 -0.53
42.74 133.11 15.91 -0.20 -0.84 -0.51 -0.09
46.30 138.65 16.96 0.98 0.13 -0.14 -0.66
47.78 133.74 18.87 0.78 -0.40 0.48 0.98
45.33 138.43 15.65 0.84 -0.10 -0.53 -0.20
42.63 134.86 13.15 0.34 -0.75 -0.56 -0.24
44.95 132.68 18.81 -0.04 -0.98 0.21 -0.84
42.21 134.21 14.13 0.44 -0.82 -0.37 0.21
42.16 133.76 15.34 0.20 -0.91 -0.36 0.05
44.70 137.07 13.70 0.85 0.16 -0.50 -1.09
42.58 135.82 12.44 0.37 -0.25 -0.90 -0.37
46.30 137.93 18.62 0.97 -0.08 0.22 -0.71
42.89 133.70 17.92 -0.32 -0.84 0.43 0.02
45.96 135.67 19.28 0.68 0.62 0.40 -0.79
44.57 138.11 13.79 0.85 -0.14 -0.52 -0.29
42.06 133.08 16.86 0.02 -1.00 0.04 -0.13
43.14 136.83 12.51 0.50 0.01 -0.86 -0.78
45.42 136.85 19.38 0.94 0.15 0.29 -0.23
45.53 133.31 20.14 0.32 -0.94 0.11 -0.77
45.16 138.95 14.71 0.89 -0.40 -0.22 -0.16
46.68 134.91 20.12 0.97 0.18 0.18 -0.11
41.86 135.23 12.01 0.44 -0.34 -0.83 -0.22
41.38 134.42 12.55 0.44 -0.52 -0.73 -0.40
43.96 133.50 19.95 -0.44 -0.89 0.10 -1.36
45.97 139.19 18.42 0.99 0.08 -0.14 -0.11
45.90 139.97 17.86 0.99 -0.10 0.04 0.37
45.75 139.99 15.44 0.96 0.06 -0.26 -0.09
41.13 133.14 14.27 0.72 -0.69 -0.05 -0.78
44.89 138.97 13.41 0.68 -0.51 -0.53 -0.38
40.75 133.16 15.46 0.57 -0.79 -0.21 0.04
41.73 136.72 11.96 0.41 -0.09 -0.91 -0.14
43.12 138.02 12.73 0.70 -0.16 -0.69 -0.27
45.32 136.85 20.39 0.95 0.05 -0.32 0.51
46.20 140.90 17.19 0.96 0.13 -0.23 0.20
41.58 133.84 17.98 0.49 -0.80 0.34 0.10
43.04 134.17 19.29 -0.35 -0.92 0.19 -0.41
46.45 138.75 19.85 0.77 -0.36 -0.53 0.05
41.90 134.20 19.06 0.35 -0.90 0.28 -0.18
45.54 137.80 20.28 0.83 -0.46 -0.33 0.46
45.48 133.20 21.37 0.19 -0.93 -0.33 0.16
40.77 135.95 11.59 0.17 -0.35 -0.92 -0.23
45.80 135.97 20.75 0.77 0.31 -0.56 0.16
40.65 132.27 13.41 0.51 -0.85 -0.11 -1.22
46.67 135.65 21.31 0.78 0.04 -0.63 0.07
45.89 140.43 13.95 0.98 0.03 -0.18 -0.24
46.36 140.76 18.78 0.93 -0.12 -0.35 0.39
40.36 132.11 16.20 0.52 -0.81 -0.26 -1.47
39.81 134.90 12.13 -0.08 -0.18 -0.98 -0.47
46.60 133.93 21.53 0.79 -0.50 -0.34 -0.18
40.61 132.99 12.33 0.39 -0.60 -0.70 -1.28
44.11 133.32 21.57 -0.32 -0.94 -0.11 0.23
39.78 132.23 14.61 0.38 -0.92 -0.02 -0.60
40.89 137.55 11.42 0.37 0.02 -0.93 -0.24
42.81 139.11 12.04 0.49 -0.39 -0.78 -0.48
45.34 141.56 16.60 0.76 0.48 -0.43 0.48
41.81 138.78 11.76 0.17 -0.12 -0.98 -0.33
45.04 141.66 14.99 0.80 0.60 -0.04 -0.22
39.58 133.52 11.97 -0.10 -0.19 -0.98 -1.43
45.11 140.55 12.50 0.88 -0.20 -0.42 -1.70
43.88 139.57 11.96 0.35 -0.66 -0.67 -1.45
40.62 132.87 18.64 0.71 -0.63 0.31 -0.37
47.38 139.82 20.13 0.63 -0.13 -0.77 0.00
42.05 134.52 20.41 0.03 -1.00 0.02 0.26
45.85 142.59 17.54 0.74 0.20 -0.64 0.22
44.94 132.64 22.73 -0.21 -0.98 -0.01 0.44
39.35 135.74 11.95 -0.35 -0.43 -0.83 -0.26
46.23 132.73 22.63 0.40 -0.90 -0.20 0.59
40.99 134.07 20.32 0.59 -0.79 0.16 -0.12
46.90 140.89 19.61 0.77 -0.11 -0.63 0.02
47.26 136.47 21.90 0.76 0.01 -0.65 -0.35
39.19 132.21 13.12 -0.13 -0.89 -0.43 -1.31
47.88 138.65 21.05 0.71 -0.47 -0.53 0.08
43.42 133.58 22.43 -0.37 -0.93 -0.05 0.44
40.73 131.89 17.55 0.70 -0.70 0.16 -1.71
39.54 136.86 10.75 -0.02 -0.32 -0.95 -0.22
47.82 135.55 22.38 0.79 -0.11 -0.60 0.08
38.52 132.19 13.90 -0.12 -0.90 -0.41 -0.37
46.93 137.40 21.52 0.66 -0.33 -0.68 0.64
44.47 142.51 15.72 0.50 0.82 -0.27 -0.14
40.81 139.65 11.93 -0.03 0.19 -0.98 -0.45
42.28 134.12 22.39 -0.17 -0.95 -0.27 0.10
38.57 131.60 15.99 -0.22 -0.97 -0.06 -0.40
46.54 142.55 18.90 0.91 0.10 -0.41 -0.05
44.74 142.01 13.48 0.78 0.62 -0.01 -0.97
39.10 131.13 17.35 -0.08 -1.00 -0.06 -1.17
38.33 133.23 12.73 -0.31 -0.54 -0.78 -0.64
47.73 134.47 22.95 0.87 -0.43 -0.24 0.20
42.46 140.54 11.19 -0.17 -0.27 -0.95 -1.53
43.83 142.58 14.17 0.40 0.92 0.02 -0.63
40.07 132.81 20.16 0.74 -0.65 0.20 -0.13
39.08 138.28 10.87 -0.13 0.21 -0.97 -0.21
44.10 133.35 23.66 -0.38 -0.83 0.41 0.28
44.88 141.82 11.37 0.78 0.44 -0.44 -1.43
44.15 140.67 10.73 0.35 -0.35 -0.87 -1.65
37.74 134.34 12.73 -0.25 -0.07 -0.97 -0.28
37.71 131.72 15.04 -0.12 -0.97 -0.21 -0.23
41.49 134.41 21.71 0.27 -0.93 -0.24 -0.06
46.91 133.03 23.91 0.56 -0.72 0.41 0.63
44.48 143.35 17.18 0.27 0.57 -0.78 -0.33
48.64 140.47 21.12 0.93 0.14 -0.34 -0.08
48.12 138.39 22.28 0.91 -0.42 -0.00 0.23
47.65 141.77 20.60 0.88 0.35 -0.31 -0.10
48.00 137.46 22.72 0.95 0.00 -0.32 0.72
39.35 131.54 18.65 0.37 -0.90 0.25 -0.87
45.50 133.25 24.28 -0.12 -0.61 0.79 0.28
43.05 133.66 23.72 0.11 -0.95 0.30 -0.20
48.65 139.30 22.14 0.96 -0.28 0.06 0.01
44.91 144.11 17.38 0.18 0.16 -0.97 -1.70
37.98 135.37 12.81 -0.16 -0.14 -0.98 -0.57
46.35 144.09 18.46 0.91 0.09 -0.41 -1.58
37.77 136.28 12.45 -0.35 -0.37 -0.86 -0.59
43.45 142.98 16.29 0.17 0.88 -0.45 -0.17
38.13 137.01 11.50 -0.58 -0.33 -0.75 -0.27
41.72 133.63 23.11 0.41 -0.76 -0.51 -1.29
40.71 133.85 22.03 0.61 -0.74 -0.27 -0.36
46.48 143.52 19.82 0.89 0.45 0.02 -0.30
37.57 132.30 16.52 -0.58 -0.81 0.06 -0.30
48.45 136.48 23.57 0.98 0.14 -0.10 0.54
44.12 142.70 12.50 0.38 0.92 -0.12 -1.53
39.79 140.68 12.20 0.31 -0.09 -0.95 -0.35
37.17 132.99 13.06 -0.12 -0.62 -0.78 -0.26
47.01 134.16 24.42 0.40 -0.48 0.78 0.33
42.78 142.73 15.12 0.17 0.97 -0.16 -0.43
43.80 134.59 24.21 -0.16 -0.15 0.98 0.06
47.85 134.75 24.60 0.46 -0.53 0.71 0.54
47.21 142.73 20.67 0.84 0.52 -0.15 -0.11
36.84 135.19 12.61 -0.06 -0.03 -1.00 -0.88
39.25 132.03 21.09 0.52 -0.85 0.10 -0.24
43.84 144.14 17.59 0.00 0.17 -0.99 -0.72
43.25 142.08 10.94 -0.11 0.57 -0.81 -2.25
48.52 140.37 22.58 0.89 0.29 0.34 -0.04
38.84 139.53 11.50 0.09 -0.00 -1.00 -0.20
40.94 141.65 11.98 -0.09 0.20 -0.97 -1.61
37.71 132.01 18.10 -0.36 -0.91 -0.22 -0.29
36.74 132.56 15.81 -0.48 -0.85 0.24 -0.22
48.09 139.36 23.35 0.79 -0.13 0.60 0.09
42.63 133.34 24.51 0.86 -0.50 0.04 -1.64
48.04 141.28 22.20 0.79 0.60 0.13 -0.09
36.59 132.41 14.27 -0.38 -0.91 -0.14 -0.24
42.68 134.82 24.45 0.68 0.29 0.68 -0.82
47.44 138.34 23.90 0.72 0.23 0.66 0.71
42.52 143.23 16.43 0.52 0.67 -0.52 -0.16
42.24 142.90 12.83 0.06 0.97 -0.24 -1.61
38.68 131.22 19.95 0.13 -0.99 0.08 -0.24
36.89 132.91 17.09 -0.57 -0.82 -0.06 0.09
48.30 135.94 24.68 0.85 -0.03 0.52 0.55
44.18 145.15 17.62 0.07 -0.20 -0.98 -0.74
44.90 134.74 24.57 -0.28 -0.11 0.96 -0.15
37.42 138.33 12.03 -0.45 -0.15 -0.88 -0.28
41.76 132.62 23.83 0.66 -0.58 -0.48 -1.42
46.38 145.26 18.23 0.88 -0.46 -0.10 -0.47
36.79 137.12 12.90 -0.32 -0.22 -0.92 -0.57
45.76 144.40 20.37 0.83 0.52 0.19 -0.39
42.72 143.85 17.45 0.40 0.50 -0.77 -0.07
45.30 145.48 17.54 0.19 -0.41 -0.89 -0.53
46.52 143.54 21.13 0.77 0.63 -0.07 -0.09
47.09 142.90 22.20 0.89 0.44 0.12 -0.16
47.46 137.22 24.73 0.51 0.43 0.75 0.36
45.69 145.28 19.75 0.89 0.08 0.45 -1.28
3 185 136 177
3 134 181 136
3 177 136 181
3 134 155 173
3 155 134 125
3 138 125 105
3 134 136 90
3 90 136 109
3 109 136 142
3 142 152 109
3 185 142 136
3 152 182 183
3 149 168 138
3 169 149 115
3 149 105 115
3 81 90 60
3 72 52 60
3 52 29 60
3 63 72 95
3 90 109 72
3 95 72 109
3 88 95 128
3 128 126 88
3 128 164 126
3 95 88 63
3 98 63 88
3 63 98 104
3 98 127 104
3 162 167 127
3 129 127 167
3 114 159 156
3 159 169 156
3 169 145 156
3 83 71 110
3 110 71 85
3 46 71 53
3 71 83 53
3 31 53 29
3 51 63 38
3 127 129 104
3 129 96 104
3 129 167 144
3 167 184 144
3 114 80 82
3 114 86 80
3 85 55 86
3 55 46 41
3 4 13 15
3 24 15 13
3 15 6 4
3 6 15 23
3 44 27 24
3 15 24 27
3 27 23 15
3 70 68 104
3 30 23 47
3 70 113 75
3 113 70 102
3 144 184 172
3 139 175 117
3 178 139 137
3 137 153 178
3 82 79 106
3 79 43 57
3 80 58 43
3 43 41 36
3 43 25 37
3 57 37 48
3 25 32 37
3 37 32 48
3 48 32 49
3 16 32 11
3 16 11 2
3 19 5 11
3 11 5 2
3 18 5 19
3 2 5 4
3 1 2 0
3 2 4 0
3 0 4 3
3 1 14 9
3 26 21 30
3 8 23 17
3 26 30 47
3 45 26 47
3 75 66 45
3 66 93 91
3 174 150 131
3 150 118 131
3 118 150 132
3 163 132 166
3 140 132 163
3 118 132 99
3 92 101 67
3 92 67 74
3 74 49 84
3 84 49 76
3 76 49 54
3 49 34 54
3 35 34 16
3 35 16 28
3 9 20 22
3 33 26 45
3 20 50 39
3 20 39 22
3 45 77 50
3 45 66 77
3 77 99 107
3 161 165 122
3 147 122 165
3 147 103 122
3 147 153 121
3 147 121 112
3 84 121 74
3 97 78 103
3 103 78 122
3 78 54 56
3 73 78 56
3 28 22 42
3 22 39 42
3 116 87 64
3 100 87 130
3 116 94 141
3 89 50 107
3 171 143 160
3 122 108 161
3 143 161 108
3 108 111 143
3 108 122 73
3 111 108 73
3 160 111 130
3 130 170 160
3 170 130 116
3 131 91 93
3 124 113 148
3 148 113 151
3 134 173 181
3 138 168 180
3 125 180 155
3 125 138 180
3 81 105 125
3 125 90 81
3 90 125 134
3 182 152 142
3 182 142 179
3 179 142 185
3 128 152 183
3 83 110 115
3 105 83 115
3 81 83 105
3 52 72 51
3 51 72 63
3 158 146 106
3 106 146 159
3 106 159 114
3 53 31 46
3 81 53 83
3 52 51 29
3 29 51 38
3 44 38 65
3 59 44 65
3 59 65 68
3 38 63 65
3 104 68 65
3 104 65 63
3 175 158 117
3 82 106 114
3 18 36 41
3 18 41 31
3 31 41 46
3 5 18 7
3 5 7 4
3 7 18 31
3 7 31 13
3 4 7 13
3 40 23 27
3 47 40 44
3 47 44 68
3 27 44 40
3 59 68 44
3 23 40 47
3 70 47 68
3 47 70 75
3 132 150 166
3 139 178 175
3 67 101 79
3 67 79 57
3 37 57 43
3 41 43 58
3 41 58 55
3 55 80 86
3 80 55 58
3 16 34 32
3 45 47 75
3 99 132 107
3 107 132 140
3 121 153 135
3 92 121 135
3 92 135 137
3 92 137 139
3 137 135 153
3 74 121 92
3 32 34 49
3 54 34 35
3 10 28 16
3 61 39 64
3 62 64 39
3 62 39 50
3 89 62 50
3 94 64 89
3 62 89 64
3 107 50 77
3 123 89 107
3 176 141 140
3 140 141 107
3 107 141 123
3 103 147 112
3 103 112 97
3 121 84 112
3 73 122 78
3 56 54 35
3 73 56 42
3 42 56 35
3 42 35 28
3 87 100 61
3 87 61 64
3 39 61 42
3 42 61 73
3 73 61 100
3 130 87 116
3 141 94 89
3 141 89 123
3 143 171 161
3 105 149 138
3 90 72 60
3 95 109 128
3 152 128 109
3 126 157 133
3 126 133 98
3 126 98 88
3 126 164 157
3 157 162 133
3 133 162 127
3 133 127 98
3 110 145 115
3 145 169 115
3 71 46 55
3 71 55 85
3 60 29 53
3 60 53 81
3 106 117 158
3 120 156 119
3 110 119 145
3 110 85 119
3 119 85 120
3 120 85 86
3 114 120 86
3 120 114 156
3 119 156 145
3 38 44 24
3 38 24 29
3 24 13 29
3 31 29 13
3 129 144 96
3 144 102 96
3 117 106 79
3 80 43 82
3 79 82 43
3 11 25 19
3 19 43 36
3 11 32 25
3 25 43 19
3 19 36 18
3 2 10 16
3 10 2 1
3 12 3 8
3 3 12 1
3 3 1 0
3 3 4 6
3 3 6 8
3 6 23 8
3 8 21 12
3 12 14 1
3 14 12 21
3 14 21 26
3 30 17 23
3 30 21 8
3 30 8 17
3 131 118 91
3 93 66 75
3 93 113 124
3 124 131 93
3 93 75 113
3 124 148 131
3 113 144 172
3 151 113 172
3 113 102 144
3 140 163 176
3 101 92 139
3 101 139 117
3 79 101 117
3 57 48 67
3 67 48 49
3 67 49 74
3 10 1 9
3 26 33 14
3 14 33 9
3 9 33 20
3 33 50 20
3 50 33 45
3 91 118 77
3 99 77 118
3 66 91 77
3 97 76 69
3 69 78 97
3 97 112 76
3 76 112 84
3 76 54 69
3 78 69 54
3 10 22 28
3 9 22 10
3 116 64 94
3 116 141 154
3 111 100 130
3 111 73 100
3 143 111 160
3 170 116 154
3 70 104 96
3 70 96 102
