ply
format ascii 1.0
comment Generated by MaSIF
element vertex 200
property float x
property float y
property float z
property float nx
property float ny
property float nz
property float charge
element face 356
property list uchar int vertex_indices
end_header
45.12 135.86 14.56 0.82 0.20 -0.54 -0.68
44.47 134.99 13.82 0.52 -0.61 -0.60 -0.74
45.53 134.74 14.78 0.46 -0.32 -0.82 -0.12
44.93 137.04 15.01 0.94 0.11 -0.33 -0.33
44.70 136.00 13.30 0.82 -0.04 -0.57 -1.34
45.57 136.42 15.75 0.67 0.31 -0.67 -0.00
46.46 135.72 15.77 0.54 0.50 -0.68 0.23
46.49 134.46 15.27 0.43 -0.20 -0.88 0.27
43.67 134.36 14.61 0.11 -0.80 -0.60 -0.22
44.76 137.09 13.75 0.85 0.16 -0.50 -1.09
43.62 135.54 12.70 0.32 -0.41 -0.86 -0.82
46.26 137.10 16.39 0.77 0.22 -0.60 -1.30
45.84 133.54 15.88 0.28 -0.72 -0.64 0.30
44.47 133.33 15.36 0.11 -0.77 -0.63 0.02
44.62 138.13 13.85 0.85 -0.14 -0.52 -0.29
42.68 134.89 13.19 0.34 -0.75 -0.57 -0.24
45.39 138.44 15.71 0.84 -0.10 -0.53 -0.20
43.20 136.86 12.56 0.50 0.01 -0.86 -0.78
47.54 134.95 15.72 0.62 0.01 -0.78 0.45
47.72 135.65 16.89 0.77 0.61 -0.19 0.10
42.63 135.86 12.49 0.37 -0.24 -0.90 -0.37
46.93 136.46 17.42 0.86 0.52 -0.04 -0.49
46.81 137.38 17.71 0.97 0.13 0.19 -1.31
42.25 134.24 14.18 0.44 -0.82 -0.37 0.21
44.95 139.00 13.47 0.68 -0.51 -0.53 -0.38
44.94 132.78 16.68 0.08 -0.97 -0.24 0.26
42.21 133.79 15.38 0.19 -0.91 -0.36 0.05
45.22 138.97 14.77 0.89 -0.40 -0.22 -0.16
46.35 138.66 17.02 0.98 0.12 -0.14 -0.66
47.33 133.32 16.36 0.43 -0.70 -0.58 0.11
42.78 133.14 15.95 -0.21 -0.83 -0.51 -0.09
48.17 134.27 16.72 0.97 -0.10 -0.24 0.41
41.91 135.27 12.05 0.44 -0.34 -0.83 -0.22
43.18 138.05 12.79 0.70 -0.16 -0.69 -0.27
46.11 132.68 17.44 0.17 -0.97 -0.15 -0.30
41.43 134.46 12.59 0.44 -0.52 -0.73 -0.40
45.82 140.00 15.51 0.96 0.05 -0.26 -0.09
41.78 136.75 12.02 0.42 -0.09 -0.91 -0.14
43.46 132.70 16.92 -0.18 -0.98 0.03 -0.05
46.27 136.33 18.65 0.71 0.37 0.59 -0.53
47.39 135.55 18.54 0.69 0.62 0.38 -0.00
46.35 137.93 18.68 0.97 -0.08 0.22 -0.71
44.15 132.81 17.80 -0.32 -0.92 0.21 0.10
42.09 133.10 16.90 0.02 -1.00 0.04 -0.13
47.62 133.06 17.70 0.56 -0.83 0.04 0.07
41.17 133.17 14.30 0.72 -0.70 -0.05 -0.78
48.48 134.60 17.91 0.96 0.23 0.16 0.19
42.88 139.14 12.10 0.49 -0.39 -0.78 -0.48
41.87 138.82 11.82 0.17 -0.12 -0.98 -0.33
40.82 136.00 11.64 0.17 -0.35 -0.92 -0.23
40.95 137.60 11.47 0.37 0.02 -0.93 -0.24
45.95 140.45 14.02 0.98 0.02 -0.18 -0.24
46.21 133.04 18.86 0.35 -0.84 0.40 -0.43
40.79 133.19 15.49 0.57 -0.80 -0.21 0.04
45.18 140.58 12.57 0.88 -0.20 -0.42 -1.70
43.95 139.60 12.02 0.35 -0.66 -0.67 -1.45
46.02 139.19 18.49 0.99 0.08 -0.14 -0.11
46.00 135.68 19.33 0.68 0.61 0.40 -0.79
45.96 139.98 17.92 0.99 -0.10 0.04 0.37
39.86 134.95 12.17 -0.08 -0.18 -0.98 -0.47
42.93 133.71 17.96 -0.32 -0.84 0.43 0.02
45.46 136.85 19.44 0.95 0.15 0.29 -0.23
44.98 132.68 18.85 -0.04 -0.98 0.20 -0.84
40.65 133.03 12.37 0.38 -0.60 -0.70 -1.28
45.11 141.68 15.06 0.80 0.60 -0.04 -0.22
47.81 133.73 18.92 0.78 -0.40 0.48 0.98
39.63 133.57 12.01 -0.10 -0.19 -0.98 -1.43
46.26 140.91 17.26 0.97 0.13 -0.22 0.20
45.41 141.57 16.67 0.77 0.48 -0.43 0.48
46.50 138.74 19.91 0.77 -0.36 -0.53 0.05
40.69 132.31 13.45 0.51 -0.85 -0.11 -1.22
41.62 133.86 18.02 0.49 -0.80 0.34 0.10
40.88 139.69 11.99 -0.03 0.19 -0.98 -0.45
46.72 134.91 20.17 0.97 0.18 0.18 -0.11
45.59 137.79 20.34 0.82 -0.46 -0.33 0.46
39.40 135.79 12.00 -0.35 -0.43 -0.83 -0.26
40.40 132.14 16.23 0.52 -0.81 -0.26 -1.47
39.82 132.27 14.64 0.38 -0.93 -0.02 -0.60
42.53 140.58 11.25 -0.17 -0.27 -0.95 -1.53
39.60 136.91 10.80 -0.02 -0.32 -0.95 -0.22
45.36 136.85 20.45 0.95 0.04 -0.32 0.51
45.57 133.31 20.19 0.31 -0.94 0.11 -0.77
46.42 140.76 18.85 0.93 -0.13 -0.35 0.39
44.82 142.03 13.55 0.79 0.62 -0.01 -0.97
44.96 141.85 11.44 0.78 0.44 -0.44 -1.43
44.22 140.71 10.79 0.35 -0.35 -0.87 -1.65
44.54 142.53 15.79 0.51 0.82 -0.27 -0.14
44.00 133.51 20.00 -0.44 -0.89 0.10 -1.36
39.14 138.33 10.93 -0.13 0.21 -0.97 -0.21
43.08 134.19 19.34 -0.35 -0.92 0.19 -0.41
39.23 132.26 13.15 -0.13 -0.89 -0.44 -1.31
41.94 134.21 19.10 0.34 -0.90 0.27 -0.18
38.38 133.27 12.77 -0.31 -0.54 -0.79 -0.64
45.84 135.97 20.80 0.77 0.31 -0.56 0.16
43.90 142.60 14.24 0.40 0.91 0.02 -0.63
45.92 142.60 17.61 0.74 0.20 -0.64 0.22
47.43 139.81 20.20 0.63 -0.13 -0.77 0.00
37.79 134.39 12.77 -0.25 -0.06 -0.97 -0.28
46.96 140.89 19.68 0.77 -0.11 -0.63 0.02
40.76 131.92 17.58 0.70 -0.70 0.16 -1.71
38.55 132.23 13.94 -0.12 -0.90 -0.41 -0.37
40.65 132.89 18.68 0.71 -0.64 0.31 -0.37
39.86 140.72 12.27 0.31 -0.09 -0.95 -0.35
46.71 135.64 21.36 0.78 0.04 -0.63 0.07
44.55 143.36 17.25 0.27 0.57 -0.77 -0.33
44.20 142.73 12.57 0.39 0.91 -0.12 -1.53
45.51 133.19 21.42 0.18 -0.93 -0.33 0.16
47.93 138.64 21.11 0.71 -0.47 -0.53 0.08
46.63 133.92 21.58 0.79 -0.50 -0.34 -0.18
38.19 137.06 11.55 -0.58 -0.33 -0.75 -0.27
38.60 131.64 16.02 -0.22 -0.97 -0.06 -0.40
38.03 135.42 12.85 -0.16 -0.14 -0.98 -0.57
37.83 136.34 12.49 -0.35 -0.37 -0.86 -0.59
43.33 142.12 11.01 -0.10 0.58 -0.81 -2.25
43.52 143.00 16.36 0.18 0.88 -0.45 -0.17
41.01 141.70 12.04 -0.09 0.21 -0.97 -1.61
39.13 131.17 17.38 -0.08 -0.99 -0.06 -1.17
38.91 139.59 11.55 0.09 0.00 -1.00 -0.20
46.98 137.39 21.58 0.66 -0.33 -0.68 0.64
46.61 142.55 18.98 0.91 0.10 -0.41 -0.05
37.75 131.76 15.07 -0.12 -0.97 -0.21 -0.23
37.22 133.04 13.09 -0.12 -0.61 -0.78 -0.26
44.14 133.32 21.61 -0.33 -0.94 -0.11 0.23
42.09 134.53 20.46 0.02 -1.00 0.01 0.26
42.86 142.76 15.20 0.17 0.97 -0.16 -0.43
41.03 134.09 20.37 0.59 -0.79 0.16 -0.12
36.89 135.24 12.65 -0.06 -0.03 -1.00 -0.88
37.48 138.39 12.09 -0.45 -0.14 -0.88 -0.28
44.98 144.12 17.46 0.18 0.16 -0.97 -1.70
47.30 136.46 21.95 0.76 0.01 -0.65 -0.35
43.91 144.15 17.66 0.00 0.17 -0.99 -0.72
47.71 141.76 20.67 0.89 0.35 -0.30 -0.10
48.70 140.45 21.19 0.93 0.14 -0.34 -0.08
48.17 138.37 22.34 0.91 -0.42 -0.00 0.23
38.85 140.91 11.33 0.41 -0.39 -0.82 -0.18
42.59 143.25 16.50 0.52 0.67 -0.52 -0.16
46.42 144.09 18.54 0.91 0.09 -0.41 -1.58
48.70 139.28 22.21 0.96 -0.28 0.06 0.01
42.31 142.93 12.90 0.06 0.97 -0.23 -1.61
37.60 132.34 16.55 -0.59 -0.81 0.06 -0.30
40.02 142.17 11.64 0.63 -0.18 -0.76 -0.25
40.10 132.83 20.20 0.73 -0.65 0.19 -0.13
44.97 132.63 22.77 -0.21 -0.98 -0.01 0.44
39.38 131.57 18.69 0.37 -0.90 0.24 -0.87
47.85 135.53 22.44 0.79 -0.11 -0.60 0.08
46.26 132.72 22.68 0.39 -0.90 -0.20 0.59
36.85 137.17 12.95 -0.32 -0.22 -0.92 -0.57
46.55 143.52 19.89 0.89 0.45 0.02 -0.30
43.45 133.58 22.47 -0.37 -0.93 -0.05 0.44
36.62 132.46 14.30 -0.38 -0.91 -0.14 -0.24
42.79 143.87 17.52 0.40 0.50 -0.77 -0.07
48.04 137.45 22.78 0.95 -0.00 -0.32 0.72
36.77 132.60 15.84 -0.48 -0.85 0.24 -0.22
42.05 142.77 14.37 0.38 0.92 -0.06 -1.28
47.77 134.45 23.00 0.87 -0.44 -0.24 0.20
35.97 133.84 12.68 -0.41 -0.25 -0.88 -0.32
35.77 135.31 13.01 -0.36 0.03 -0.93 -0.27
40.64 143.36 12.62 0.78 0.38 -0.50 -0.29
37.74 132.05 18.13 -0.36 -0.91 -0.23 -0.29
36.74 138.89 11.94 0.17 -0.61 -0.78 -0.23
35.71 132.93 13.81 -0.55 -0.76 -0.35 -0.29
42.32 134.12 22.43 -0.17 -0.95 -0.27 0.10
41.52 134.42 21.76 0.26 -0.93 -0.24 -0.06
47.28 142.72 20.75 0.84 0.51 -0.15 -0.11
41.60 143.19 15.59 0.63 0.68 -0.37 -0.14
44.26 145.17 17.70 0.07 -0.19 -0.98 -0.74
48.57 140.35 22.65 0.89 0.28 0.35 -0.04
38.79 141.66 10.53 0.64 -0.64 -0.43 0.17
48.14 139.34 23.41 0.79 -0.13 0.60 0.09
36.93 132.95 17.13 -0.57 -0.82 -0.06 0.09
48.10 141.26 22.28 0.79 0.60 0.13 -0.09
45.38 145.48 17.62 0.19 -0.41 -0.89 -0.53
36.81 140.05 11.22 0.38 -0.40 -0.83 -0.04
44.13 133.34 23.70 -0.38 -0.83 0.41 0.28
39.67 143.12 11.15 0.90 -0.19 -0.38 0.68
42.07 144.32 16.60 0.85 0.00 -0.52 -0.20
46.46 145.27 18.31 0.88 -0.46 -0.10 -0.47
40.74 133.86 22.07 0.61 -0.74 -0.28 -0.36
47.48 138.32 23.97 0.72 0.22 0.66 0.71
42.55 144.81 17.39 0.52 -0.26 -0.82 -0.21
46.93 133.02 23.96 0.55 -0.72 0.41 0.63
37.29 141.03 11.02 0.37 -0.68 -0.63 0.07
39.28 132.05 21.12 0.52 -0.85 0.10 -0.24
45.83 144.40 20.45 0.84 0.51 0.20 -0.39
48.49 136.45 23.63 0.99 0.14 -0.10 0.54
46.59 143.54 21.21 0.77 0.63 -0.07 -0.09
38.70 131.25 19.98 0.13 -0.99 0.07 -0.24
35.21 134.13 13.47 -0.78 -0.31 -0.55 -0.38
45.53 133.24 24.33 -0.12 -0.61 0.78 0.28
43.08 133.66 23.77 0.11 -0.95 0.29 -0.20
45.77 145.28 19.83 0.89 0.08 0.45 -1.28
35.75 132.98 15.46 -0.53 -0.82 0.21 -0.23
35.35 136.90 13.03 -0.07 -0.21 -0.98 -0.98
47.16 142.88 22.28 0.89 0.44 0.12 -0.16
35.08 133.43 14.60 -0.81 -0.58 -0.10 -0.30
47.43 141.88 22.89 0.82 0.44 0.36 -0.13
41.43 144.37 15.65 0.88 0.05 -0.48 0.05
43.44 145.34 17.40 0.38 -0.58 -0.72 -0.35
41.75 133.64 23.15 0.40 -0.76 -0.51 -1.29
37.53 131.55 19.32 -0.28 -0.96 -0.08 -0.59
3 190 136 176
3 128 171 136
3 176 136 171
3 128 130 165
3 130 128 104
3 114 104 86
3 128 136 95
3 95 136 119
3 119 136 147
3 147 163 119
3 190 147 136
3 163 185 193
3 124 135 114
3 138 124 94
3 124 86 94
3 68 95 67
3 82 58 67
3 58 28 67
3 69 82 98
3 95 119 82
3 98 82 119
3 96 98 131
3 131 132 96
3 131 170 132
3 98 96 69
3 107 69 96
3 69 107 118
3 107 133 118
3 168 178 133
3 151 133 178
3 157 153 138
3 138 115 157
3 140 167 174
3 78 115 113
3 115 138 113
3 138 105 113
3 64 51 83
3 83 51 54
3 27 51 36
3 51 64 36
3 16 36 28
3 56 69 41
3 133 151 118
3 151 129 118
3 151 178 184
3 78 47 48
3 78 55 47
3 54 24 55
3 24 27 14
3 6 11 21
3 22 21 11
3 21 19 6
3 19 21 40
3 61 39 22
3 21 22 39
3 39 40 21
3 103 93 118
3 65 40 73
3 103 154 108
3 154 103 144
3 109 127 88
3 146 109 112
3 112 126 146
3 48 50 72
3 50 17 37
3 47 33 17
3 17 14 9
3 17 10 20
3 37 20 32
3 10 15 20
3 20 15 32
3 32 15 35
3 8 15 1
3 8 1 2
3 4 0 1
3 1 0 2
3 3 0 4
3 2 0 6
3 12 2 7
3 2 6 7
3 7 6 18
3 12 34 25
3 52 44 65
3 31 40 46
3 52 65 73
3 81 52 73
3 108 106 81
3 106 145 142
3 173 189 148
3 156 192 146
3 155 156 126
3 75 79 49
3 75 49 59
3 59 35 66
3 66 35 63
3 63 35 45
3 35 23 45
3 26 23 8
3 26 8 30
3 25 42 38
3 62 52 81
3 42 87 60
3 42 60 38
3 81 122 87
3 81 106 122
3 122 148 161
3 152 149 120
3 194 187 160
3 187 156 155
3 121 120 149
3 121 100 120
3 121 126 97
3 121 97 92
3 66 97 59
3 90 77 100
3 100 77 120
3 77 45 53
3 76 77 53
3 30 38 43
3 38 60 43
3 141 101 91
3 99 101 143
3 141 125 177
3 123 87 161
3 169 139 158
3 120 110 152
3 139 152 110
3 110 116 139
3 110 120 76
3 116 110 76
3 158 116 143
3 199 158 186
3 143 186 158
3 186 143 141
3 188 142 145
3 128 165 171
3 130 179 165
3 165 179 197
3 114 135 150
3 104 150 130
3 104 114 150
3 179 130 150
3 179 150 175
3 175 150 135
3 68 86 104
3 104 95 68
3 95 104 128
3 185 163 147
3 185 147 183
3 183 147 190
3 131 163 193
3 131 193 195
3 131 195 170
3 135 124 164
3 135 164 196
3 135 196 175
3 164 124 153
3 138 153 124
3 64 83 94
3 86 64 94
3 68 64 86
3 58 82 56
3 56 82 69
3 140 157 115
3 174 157 140
3 115 102 140
3 102 134 140
3 134 167 140
3 134 102 117
3 117 102 72
3 72 102 115
3 72 115 78
3 36 16 27
3 68 36 64
3 58 56 28
3 28 56 41
3 61 41 74
3 80 61 74
3 80 74 93
3 41 69 74
3 118 93 74
3 118 74 69
3 117 172 134
3 134 172 181
3 159 172 117
3 134 181 167
3 159 117 127
3 127 117 88
3 48 72 78
3 3 9 14
3 3 14 16
3 16 14 27
3 0 3 5
3 0 5 6
3 5 3 16
3 5 16 11
3 6 5 11
3 57 40 39
3 73 57 61
3 73 61 93
3 39 61 57
3 80 93 61
3 40 57 73
3 103 73 93
3 73 103 108
3 127 146 159
3 109 146 127
3 49 79 50
3 49 50 37
3 20 37 17
3 14 17 33
3 14 33 24
3 24 47 55
3 47 24 33
3 8 23 15
3 81 73 108
3 148 189 161
3 161 189 198
3 97 126 111
3 75 97 111
3 75 111 112
3 75 112 109
3 112 111 126
3 59 97 75
3 15 23 35
3 45 23 26
3 13 30 8
3 71 60 91
3 89 91 60
3 89 60 87
3 123 89 87
3 125 91 123
3 89 123 91
3 161 87 122
3 162 123 161
3 198 177 161
3 161 177 162
3 100 121 92
3 100 92 90
3 97 66 92
3 76 120 77
3 53 45 26
3 76 53 43
3 43 53 26
3 43 26 30
3 101 99 71
3 101 71 91
3 60 71 43
3 43 71 76
3 76 71 99
3 143 101 141
3 177 125 123
3 177 123 162
3 191 152 169
3 139 169 152
3 86 124 114
3 95 82 67
3 98 119 131
3 163 131 119
3 132 166 137
3 132 137 107
3 132 107 96
3 132 170 166
3 195 166 170
3 166 168 137
3 137 168 133
3 137 133 107
3 83 105 94
3 105 138 94
3 51 27 24
3 51 24 54
3 67 28 36
3 67 36 68
3 72 88 117
3 85 113 84
3 83 84 105
3 83 54 84
3 84 54 85
3 85 54 55
3 78 85 55
3 85 78 113
3 84 113 105
3 41 61 22
3 41 22 28
3 22 11 28
3 16 28 11
3 151 184 129
3 184 144 129
3 88 72 50
3 47 17 48
3 50 48 17
3 1 10 4
3 4 17 9
3 1 15 10
3 10 17 4
3 4 9 3
3 2 13 8
3 13 2 12
3 29 18 31
3 18 29 12
3 18 12 7
3 18 6 19
3 18 19 31
3 19 40 31
3 31 44 29
3 29 34 12
3 34 29 44
3 34 44 52
3 65 46 40
3 65 44 31
3 65 31 46
3 188 173 142
3 145 106 108
3 145 154 180
3 180 188 145
3 145 108 154
3 154 144 184
3 126 156 146
3 79 75 109
3 79 109 88
3 50 79 88
3 37 32 49
3 49 32 35
3 49 35 59
3 13 12 25
3 52 62 34
3 34 62 25
3 25 62 42
3 62 87 42
3 87 62 81
3 142 173 122
3 148 122 173
3 106 142 122
3 160 149 191
3 160 191 194
3 152 191 149
3 160 155 121
3 121 149 160
3 155 160 187
3 155 126 121
3 90 63 70
3 70 77 90
3 90 92 63
3 63 92 66
3 63 45 70
3 77 70 45
3 13 38 30
3 25 38 13
3 141 91 125
3 141 177 182
3 116 99 143
3 116 76 99
3 139 116 158
3 186 141 182
3 103 118 129
3 103 129 144
