ply
format ascii 1.0
comment Generated by MaSIF
element vertex 193
property float x
property float y
property float z
property float nx
property float ny
property float nz
property float charge
element face 342
property list uchar int vertex_indices
end_header
43.69 135.64 12.73 0.33 -0.39 -0.86 -0.82
42.70 135.94 12.52 0.39 -0.22 -0.89 -0.37
44.76 136.11 13.36 0.83 -0.02 -0.56 -1.34
42.76 134.96 13.21 0.36 -0.73 -0.57 -0.24
43.25 136.95 12.62 0.52 0.04 -0.86 -0.78
44.54 135.08 13.86 0.54 -0.59 -0.60 -0.74
42.00 135.35 12.06 0.46 -0.32 -0.83 -0.22
44.80 137.18 13.83 0.85 0.18 -0.49 -1.09
41.85 136.83 12.05 0.43 -0.07 -0.90 -0.14
42.33 134.29 14.17 0.46 -0.81 -0.38 0.21
45.16 135.94 14.62 0.82 0.22 -0.53 -0.68
43.22 138.14 12.86 0.72 -0.14 -0.68 -0.27
43.74 134.42 14.63 0.13 -0.78 -0.61 -0.22
41.52 134.52 12.58 0.46 -0.50 -0.74 -0.40
45.58 134.83 14.83 0.48 -0.30 -0.82 -0.12
44.95 137.12 15.09 0.94 0.13 -0.32 -0.33
40.91 136.07 11.65 0.19 -0.33 -0.93 -0.23
44.64 138.22 13.94 0.85 -0.11 -0.51 -0.29
41.01 137.67 11.51 0.38 0.04 -0.92 -0.24
42.27 133.82 15.37 0.21 -0.90 -0.37 0.05
42.91 139.23 12.19 0.50 -0.37 -0.78 -0.48
41.91 138.91 11.88 0.19 -0.10 -0.98 -0.33
45.59 136.49 15.83 0.67 0.33 -0.66 -0.00
41.26 133.20 14.27 0.73 -0.69 -0.05 -0.78
46.54 134.56 15.33 0.45 -0.17 -0.88 0.27
44.54 133.40 15.37 0.13 -0.76 -0.64 0.02
39.95 134.99 12.15 -0.06 -0.17 -0.98 -0.47
40.77 133.09 12.32 0.40 -0.58 -0.71 -1.28
46.49 135.81 15.85 0.54 0.52 -0.66 0.23
45.91 133.62 15.92 0.30 -0.70 -0.64 0.30
44.96 139.10 13.58 0.69 -0.49 -0.53 -0.38
42.85 133.16 15.93 -0.19 -0.83 -0.53 -0.09
39.74 133.61 11.96 -0.08 -0.17 -0.98 -1.43
39.49 135.83 11.98 -0.33 -0.42 -0.85 -0.26
45.21 139.05 14.89 0.90 -0.39 -0.21 -0.16
45.38 138.51 15.82 0.85 -0.08 -0.52 -0.20
43.97 139.71 12.13 0.37 -0.64 -0.67 -1.45
40.90 139.76 12.06 -0.02 0.21 -0.98 -0.45
46.26 137.18 16.48 0.77 0.25 -0.59 -1.30
39.68 136.97 10.81 -0.01 -0.31 -0.95 -0.22
42.15 133.11 16.87 0.03 -1.00 0.02 -0.13
47.58 135.06 15.80 0.63 0.03 -0.77 0.45
40.80 132.35 13.39 0.52 -0.84 -0.12 -1.22
40.86 133.19 15.45 0.58 -0.78 -0.21 0.04
42.55 140.68 11.36 -0.15 -0.25 -0.96 -1.53
39.20 138.39 10.95 -0.12 0.23 -0.97 -0.21
45.00 132.83 16.68 0.10 -0.96 -0.25 0.26
39.92 132.27 14.57 0.39 -0.92 -0.03 -0.60
43.52 132.72 16.91 -0.16 -0.99 0.02 -0.05
39.35 132.28 13.08 -0.11 -0.88 -0.45 -1.31
47.73 135.74 16.98 0.77 0.62 -0.17 0.10
47.39 133.41 16.41 0.45 -0.68 -0.58 0.11
38.49 133.29 12.70 -0.29 -0.53 -0.80 -0.64
46.93 136.52 17.52 0.85 0.53 -0.02 -0.49
45.78 140.08 15.65 0.97 0.07 -0.25 -0.09
46.17 132.74 17.47 0.19 -0.97 -0.16 -0.30
45.93 140.56 14.17 0.99 0.04 -0.16 -0.24
45.18 140.70 12.71 0.89 -0.18 -0.41 -1.70
46.79 137.44 17.82 0.97 0.14 0.20 -1.31
46.32 138.72 17.15 0.98 0.14 -0.12 -0.66
37.88 134.40 12.71 -0.24 -0.05 -0.97 -0.28
48.21 134.36 16.80 0.97 -0.08 -0.23 0.41
38.11 135.43 12.81 -0.14 -0.13 -0.98 -0.57
37.89 136.35 12.46 -0.33 -0.36 -0.87 -0.59
38.26 137.10 11.53 -0.56 -0.32 -0.76 -0.27
44.24 140.84 10.93 0.37 -0.33 -0.87 -1.65
39.86 140.77 12.34 0.32 -0.07 -0.94 -0.35
40.48 132.12 16.17 0.54 -0.80 -0.26 -1.47
41.65 133.84 18.00 0.50 -0.80 0.33 0.10
42.96 133.71 17.96 -0.31 -0.86 0.41 0.02
44.20 132.83 17.80 -0.31 -0.93 0.19 0.10
38.66 132.23 13.85 -0.10 -0.90 -0.43 -0.37
43.33 142.24 11.16 -0.10 0.59 -0.80 -2.25
38.93 139.63 11.59 0.10 0.02 -0.99 -0.20
41.00 141.76 12.14 -0.08 0.22 -0.97 -1.61
47.66 133.13 17.75 0.57 -0.82 0.03 0.07
37.33 133.03 13.00 -0.10 -0.60 -0.79 -0.26
46.26 136.37 18.74 0.70 0.37 0.61 -0.53
37.52 138.40 12.09 -0.44 -0.14 -0.89 -0.28
46.24 133.07 18.89 0.36 -0.85 0.40 -0.43
47.38 135.61 18.63 0.67 0.62 0.40 -0.00
46.31 137.96 18.79 0.97 -0.07 0.23 -0.71
37.85 131.73 14.96 -0.10 -0.97 -0.23 -0.23
45.02 132.70 18.86 -0.03 -0.98 0.19 -0.84
48.49 134.68 18.00 0.95 0.24 0.18 0.19
36.97 135.23 12.59 -0.04 -0.01 -1.00 -0.88
44.95 141.98 11.60 0.78 0.46 -0.42 -1.43
41.95 134.17 19.09 0.35 -0.90 0.26 -0.18
44.78 142.13 13.71 0.78 0.63 0.01 -0.97
36.89 137.16 12.92 -0.31 -0.21 -0.93 -0.57
45.05 141.75 15.22 0.79 0.61 -0.02 -0.22
40.82 131.89 17.52 0.70 -0.69 0.16 -1.71
45.96 139.23 18.62 0.99 0.10 -0.13 -0.11
45.90 140.02 18.07 0.99 -0.09 0.06 0.37
38.86 140.95 11.40 0.43 -0.37 -0.82 -0.18
45.33 141.62 16.83 0.76 0.50 -0.41 0.48
46.19 140.97 17.42 0.97 0.15 -0.21 0.20
40.01 142.23 11.74 0.64 -0.15 -0.75 -0.25
43.08 134.16 19.34 -0.34 -0.92 0.17 -0.41
40.69 132.84 18.63 0.71 -0.63 0.31 -0.37
38.69 131.60 15.93 -0.21 -0.98 -0.08 -0.40
45.98 135.70 19.40 0.67 0.62 0.42 -0.79
39.21 131.12 17.28 -0.07 -0.99 -0.08 -1.17
47.83 133.79 18.98 0.78 -0.40 0.48 0.98
45.43 136.86 19.52 0.94 0.16 0.31 -0.23
36.77 138.89 11.94 0.19 -0.59 -0.78 -0.23
44.16 142.83 12.73 0.37 0.92 -0.10 -1.53
36.73 132.42 14.19 -0.37 -0.92 -0.16 -0.24
36.08 133.82 12.58 -0.39 -0.24 -0.89 -0.32
35.84 135.28 12.93 -0.35 0.04 -0.94 -0.27
42.27 143.00 13.04 0.05 0.98 -0.21 -1.61
40.60 143.41 12.75 0.78 0.40 -0.48 -0.29
35.81 132.89 13.69 -0.54 -0.76 -0.37 -0.29
36.85 132.54 15.74 -0.47 -0.86 0.22 -0.22
43.85 142.67 14.40 0.39 0.92 0.04 -0.63
45.58 133.31 20.22 0.33 -0.94 0.10 -0.77
44.47 142.58 15.96 0.50 0.83 -0.25 -0.14
44.01 133.49 20.00 -0.43 -0.90 0.08 -1.36
46.43 138.76 20.04 0.78 -0.34 -0.52 0.05
38.80 141.72 10.60 0.65 -0.62 -0.43 0.17
36.84 140.07 11.24 0.40 -0.38 -0.83 -0.04
42.08 134.48 20.45 0.04 -1.00 -0.00 0.26
46.33 140.79 19.01 0.94 -0.11 -0.34 0.39
39.65 143.18 11.25 0.91 -0.17 -0.37 0.68
46.70 134.92 20.24 0.96 0.19 0.20 -0.11
35.40 136.86 12.98 -0.05 -0.19 -0.98 -0.98
41.02 134.01 20.34 0.60 -0.79 0.15 -0.12
45.52 137.79 20.44 0.84 -0.44 -0.33 0.46
37.68 132.28 16.45 -0.57 -0.82 0.04 -0.30
45.82 142.64 17.80 0.75 0.22 -0.63 0.22
39.44 131.50 18.60 0.38 -0.90 0.23 -0.87
37.30 141.06 11.06 0.39 -0.67 -0.64 0.07
35.41 137.97 12.66 0.09 -0.62 -0.78 -0.64
45.32 136.84 20.53 0.95 0.06 -0.31 0.51
35.30 134.08 13.37 -0.76 -0.32 -0.56 -0.38
40.11 132.75 20.14 0.74 -0.64 0.19 -0.13
35.17 133.36 14.49 -0.80 -0.59 -0.13 -0.30
44.44 143.39 17.43 0.27 0.59 -0.76 -0.33
35.83 132.90 15.35 -0.52 -0.83 0.19 -0.23
34.59 135.49 13.39 -0.44 -0.43 -0.79 -0.92
37.80 131.96 18.03 -0.34 -0.91 -0.25 -0.29
41.99 142.81 14.50 0.37 0.93 -0.04 -1.28
38.86 142.02 9.68 0.55 -0.77 -0.32 0.23
35.23 138.29 11.69 0.24 -0.86 -0.45 -0.04
43.43 143.03 16.52 0.17 0.89 -0.43 -0.17
40.99 143.63 14.29 0.89 0.36 -0.29 -0.04
36.99 132.87 17.03 -0.56 -0.83 -0.09 0.09
45.51 133.17 21.44 0.20 -0.92 -0.34 0.16
42.79 142.80 15.34 0.16 0.98 -0.14 -0.43
45.80 135.96 20.87 0.77 0.33 -0.54 0.16
46.85 140.92 19.85 0.78 -0.08 -0.62 0.02
39.92 144.35 11.70 0.95 0.09 -0.30 0.25
39.60 142.94 10.17 0.95 -0.31 -0.06 0.54
47.34 139.83 20.36 0.64 -0.11 -0.76 0.00
44.13 133.27 21.62 -0.31 -0.94 -0.13 0.23
35.90 139.82 10.11 0.47 -0.47 -0.75 0.44
41.49 134.33 21.74 0.28 -0.93 -0.25 -0.06
34.04 137.31 12.77 -0.12 -0.47 -0.87 -1.25
46.61 133.91 21.63 0.80 -0.49 -0.34 -0.18
40.35 145.17 13.85 0.92 0.08 -0.38 0.43
46.67 135.64 21.44 0.78 0.06 -0.62 0.07
44.86 144.15 17.66 0.19 0.18 -0.97 -1.70
46.49 142.58 19.17 0.91 0.12 -0.39 -0.05
47.85 138.66 21.26 0.72 -0.45 -0.52 0.08
38.75 131.15 19.88 0.14 -0.99 0.06 -0.24
34.97 133.73 15.77 -0.70 -0.70 0.12 -0.20
43.79 144.17 17.85 0.01 0.19 -0.98 -0.72
39.29 131.94 21.04 0.53 -0.84 0.10 -0.24
40.72 133.75 22.04 0.63 -0.73 -0.28 -0.36
38.80 142.43 8.73 0.56 -0.82 -0.14 0.32
34.53 134.70 14.62 -0.76 -0.59 -0.27 -0.41
42.50 143.26 16.65 0.52 0.69 -0.50 -0.16
39.98 145.73 12.11 0.85 -0.08 -0.51 0.01
46.28 144.13 18.75 0.91 0.11 -0.40 -1.58
42.28 134.03 22.43 -0.15 -0.95 -0.29 0.10
37.58 131.44 19.20 -0.26 -0.96 -0.10 -0.59
46.91 137.39 21.69 0.68 -0.30 -0.67 0.64
36.19 133.16 17.66 -0.53 -0.71 -0.45 0.02
34.77 138.79 10.55 0.06 -0.81 -0.59 -0.41
36.93 141.76 9.41 0.19 -0.94 -0.29 0.32
35.77 141.13 9.77 0.32 -0.58 -0.75 0.33
33.59 138.18 12.04 -0.01 -0.86 -0.52 -0.26
36.48 131.92 18.66 -0.42 -0.83 -0.37 -0.96
41.52 143.20 15.73 0.63 0.69 -0.35 -0.14
35.76 133.75 16.81 -0.53 -0.85 0.01 0.05
39.70 143.59 9.16 0.95 -0.32 -0.05 0.66
33.22 135.61 14.46 -0.42 -0.69 -0.58 -1.17
47.58 141.79 20.86 0.88 0.37 -0.29 -0.10
44.95 132.58 22.77 -0.20 -0.98 -0.03 0.44
43.42 133.50 22.47 -0.36 -0.93 -0.07 0.44
46.25 132.69 22.70 0.41 -0.89 -0.21 0.59
33.11 136.49 13.57 -0.55 -0.52 -0.65 -1.83
42.67 143.87 17.69 0.41 0.52 -0.75 -0.07
3 166 161 137
3 144 137 116
3 161 173 129
3 129 173 162
3 148 171 144
3 110 148 114
3 148 116 114
3 95 129 96
3 122 93 96
3 93 59 96
3 118 122 150
3 129 162 122
3 150 122 162
3 153 150 187
3 150 153 118
3 163 118 153
3 118 163 176
3 111 145 141
3 111 141 110
3 172 111 151
3 110 74 111
3 97 119 123
3 44 74 72
3 74 110 72
3 110 106 72
3 90 56 88
3 88 56 57
3 34 56 54
3 56 90 54
3 35 54 59
3 92 118 81
3 151 123 152
3 185 152 142
3 185 142 169
3 169 142 179
3 142 119 131
3 155 131 120
3 44 20 21
3 44 36 20
3 57 30 36
3 30 34 17
3 28 38 53
3 58 53 38
3 53 50 28
3 50 53 80
3 104 77 58
3 53 58 77
3 77 80 53
3 160 149 176
3 103 80 124
3 64 78 45
3 89 64 63
3 63 85 89
3 21 18 37
3 18 4 8
3 20 11 4
3 4 17 7
3 4 0 1
3 8 1 6
3 0 3 1
3 1 3 6
3 6 3 13
3 12 3 5
3 12 5 14
3 2 10 5
3 5 10 14
3 15 10 2
3 14 10 28
3 29 14 24
3 14 28 24
3 24 28 41
3 29 55 46
3 79 75 103
3 61 80 84
3 79 103 124
3 115 79 124
3 158 147 115
3 147 190 188
3 178 155 143
3 181 143 132
3 132 125 157
3 109 125 89
3 108 109 85
3 33 39 16
3 33 16 26
3 26 13 32
3 32 13 27
3 27 13 23
3 13 9 23
3 19 9 12
3 19 12 31
3 46 70 48
3 83 79 115
3 70 117 69
3 70 69 48
3 115 154 117
3 115 147 154
3 154 189 174
3 186 139 170
3 170 139 134
3 134 139 109
3 109 139 125
3 113 107 82
3 136 134 112
3 134 109 108
3 76 82 107
3 76 71 82
3 76 85 60
3 76 60 52
3 32 60 26
3 49 47 71
3 71 47 82
3 47 23 43
3 67 47 43
3 31 48 40
3 48 69 40
3 135 99 87
3 91 99 130
3 135 126 168
3 121 117 174
3 146 128 140
3 82 100 113
3 128 113 100
3 100 102 128
3 100 82 67
3 102 100 67
3 140 102 130
3 175 140 164
3 130 164 140
3 164 130 135
3 140 182 146
3 144 171 192
3 137 192 166
3 137 144 192
3 95 116 137
3 137 129 95
3 129 137 161
3 171 148 183
3 183 148 141
3 183 141 145
3 110 141 148
3 90 88 114
3 116 90 114
3 95 90 116
3 93 122 92
3 92 122 118
3 111 172 159
3 111 159 145
3 97 111 74
3 123 111 97
3 123 151 111
3 74 66 97
3 66 94 97
3 94 119 97
3 94 66 73
3 73 66 37
3 37 66 74
3 37 74 44
3 54 35 34
3 95 54 90
3 93 92 59
3 59 92 81
3 104 81 127
3 133 104 127
3 133 127 149
3 81 118 127
3 176 149 127
3 176 127 118
3 179 131 180
3 180 131 155
3 131 179 142
3 73 120 94
3 94 120 131
3 105 120 73
3 94 131 119
3 105 73 78
3 78 73 45
3 21 37 44
3 15 7 17
3 15 17 35
3 35 17 34
3 10 15 22
3 10 22 28
3 22 15 35
3 22 35 38
3 28 22 38
3 101 80 77
3 124 101 104
3 124 104 149
3 77 104 101
3 133 149 104
3 80 101 124
3 160 124 149
3 124 160 158
3 105 155 120
3 143 155 105
3 78 89 105
3 89 132 105
3 125 132 89
3 64 89 78
3 143 105 132
3 16 39 18
3 16 18 8
3 1 8 4
3 17 4 11
3 17 11 30
3 30 20 36
3 20 30 11
3 12 9 3
3 115 124 158
3 157 181 132
3 60 85 62
3 33 60 62
3 33 62 63
3 33 63 64
3 63 62 85
3 26 60 33
3 3 9 13
3 23 9 19
3 25 31 12
3 68 69 87
3 98 87 69
3 98 69 117
3 121 98 117
3 126 87 121
3 98 121 87
3 174 117 154
3 156 121 174
3 174 168 156
3 71 76 52
3 71 52 49
3 60 32 52
3 67 82 47
3 43 23 19
3 67 43 40
3 40 43 19
3 40 19 31
3 99 91 68
3 99 68 87
3 69 68 40
3 40 68 67
3 67 68 91
3 130 99 135
3 168 126 121
3 168 121 156
3 184 165 138
3 146 182 177
3 138 113 146
3 138 146 184
3 184 146 177
3 175 182 140
3 128 146 113
3 116 148 144
3 129 122 96
3 150 162 187
3 88 106 114
3 106 110 114
3 56 34 30
3 56 30 57
3 96 59 54
3 96 54 95
3 152 119 142
3 152 123 119
3 37 45 73
3 65 72 86
3 88 86 106
3 88 57 86
3 86 57 65
3 65 57 36
3 44 65 36
3 65 44 72
3 86 72 106
3 81 104 58
3 81 58 59
3 58 38 59
3 35 59 38
3 45 37 18
3 20 4 21
3 18 21 4
3 5 0 2
3 2 4 7
3 5 3 0
3 0 4 2
3 2 7 15
3 14 25 12
3 25 14 29
3 51 41 61
3 41 51 29
3 41 29 24
3 41 28 50
3 41 50 61
3 50 80 61
3 61 75 51
3 51 55 29
3 55 51 75
3 55 75 79
3 103 84 80
3 103 75 61
3 103 61 84
3 190 147 158
3 143 181 178
3 85 109 89
3 39 33 64
3 39 64 45
3 18 39 45
3 8 6 16
3 16 6 13
3 16 13 26
3 25 29 46
3 79 83 55
3 55 83 46
3 46 83 70
3 83 117 70
3 117 83 115
3 147 188 154
3 157 139 191
3 139 186 191
3 157 125 139
3 112 107 138
3 112 138 136
3 136 170 134
3 113 138 107
3 112 108 76
3 76 107 112
3 108 112 134
3 108 85 76
3 49 27 42
3 42 47 49
3 49 52 27
3 27 52 32
3 27 23 42
3 47 42 23
3 25 48 31
3 46 48 25
3 135 87 126
3 135 168 167
3 138 165 136
3 136 165 170
3 102 91 130
3 102 67 91
3 128 102 140
3 164 135 167
