ply
format ascii 1.0
comment Generated by MaSIF
element vertex 192
property float x
property float y
property float z
property float nx
property float ny
property float nz
property float charge
element face 339
property list uchar int vertex_indices
end_header
41.42 133.29 14.33 0.75 -0.66 -0.01 -0.78
41.06 132.44 13.40 0.56 -0.82 -0.10 -1.22
40.94 133.24 15.48 0.63 -0.76 -0.18 0.04
40.09 132.30 14.51 0.43 -0.90 -0.02 -0.60
42.45 134.41 14.33 0.51 -0.78 -0.36 0.21
42.32 133.92 15.51 0.27 -0.89 -0.37 0.05
41.08 133.19 12.35 0.48 -0.55 -0.69 -1.28
41.76 134.65 12.69 0.53 -0.47 -0.71 -0.40
39.64 132.32 12.98 -0.05 -0.88 -0.48 -1.31
40.54 132.14 16.14 0.58 -0.78 -0.24 -1.47
42.93 135.12 13.41 0.43 -0.71 -0.56 -0.24
38.90 132.23 13.69 -0.04 -0.89 -0.45 -0.37
40.07 133.69 11.92 -0.00 -0.15 -0.99 -1.43
42.88 133.27 16.10 -0.12 -0.82 -0.55 -0.09
42.24 135.50 12.22 0.53 -0.29 -0.80 -0.22
43.82 134.59 14.89 0.20 -0.77 -0.61 -0.22
42.11 133.17 16.99 0.07 -1.00 0.01 -0.13
40.21 135.07 12.14 0.02 -0.15 -0.99 -0.47
38.02 131.67 14.74 -0.05 -0.97 -0.26 -0.23
38.77 133.31 12.55 -0.21 -0.52 -0.83 -0.64
41.16 136.19 11.74 0.27 -0.31 -0.91 -0.23
42.89 136.11 12.74 0.46 -0.19 -0.87 -0.37
40.79 131.89 17.51 0.72 -0.67 0.20 -1.71
43.87 135.84 13.02 0.41 -0.36 -0.84 -0.82
43.50 132.83 17.12 -0.13 -0.99 -0.01 -0.05
38.80 131.56 15.76 -0.16 -0.98 -0.11 -0.40
44.65 135.29 14.20 0.60 -0.56 -0.57 -0.74
39.23 131.07 17.14 -0.03 -0.99 -0.10 -1.17
42.04 136.98 12.22 0.50 -0.03 -0.87 -0.14
39.73 135.90 11.96 -0.25 -0.41 -0.88 -0.26
37.60 133.00 12.76 -0.02 -0.59 -0.81 -0.26
44.60 133.57 15.68 0.21 -0.74 -0.64 0.02
41.51 133.86 18.09 0.50 -0.79 0.36 0.10
42.82 133.78 18.14 -0.31 -0.87 0.37 0.02
43.39 137.14 12.90 0.58 0.07 -0.81 -0.78
45.63 135.06 15.24 0.55 -0.27 -0.79 -0.12
38.12 134.39 12.54 -0.16 -0.04 -0.99 -0.28
36.94 132.44 15.45 -0.45 -0.88 0.16 -0.22
36.93 132.35 13.90 -0.32 -0.92 -0.21 -0.24
44.87 136.33 13.74 0.87 0.02 -0.50 -1.34
44.10 132.95 18.06 -0.29 -0.95 0.15 0.10
41.21 137.80 11.63 0.45 0.08 -0.89 -0.24
40.53 132.82 18.63 0.71 -0.61 0.35 -0.37
44.98 132.99 17.01 0.16 -0.95 -0.26 0.26
45.18 136.15 15.02 0.85 0.26 -0.46 -0.68
39.97 137.07 10.82 0.08 -0.29 -0.96 -0.22
37.72 132.19 16.22 -0.54 -0.84 -0.02 -0.30
39.34 131.43 18.47 0.39 -0.89 0.25 -0.87
41.71 134.18 19.20 0.37 -0.89 0.27 -0.18
36.36 133.75 12.26 -0.32 -0.24 -0.92 -0.32
38.30 135.43 12.68 -0.07 -0.11 -0.99 -0.57
45.91 133.83 16.33 0.37 -0.68 -0.63 0.30
36.04 132.79 13.34 -0.48 -0.77 -0.42 -0.29
46.56 134.80 15.81 0.52 -0.14 -0.84 0.27
35.94 132.77 14.99 -0.50 -0.85 0.14 -0.23
43.29 138.32 13.16 0.77 -0.10 -0.63 -0.27
37.74 131.85 17.79 -0.29 -0.91 -0.29 -0.29
42.82 134.20 19.54 -0.32 -0.94 0.12 -0.41
37.20 135.20 12.37 0.03 0.01 -1.00 -0.88
44.83 137.40 14.23 0.88 0.22 -0.42 -1.09
38.08 136.34 12.33 -0.25 -0.35 -0.90 -0.59
38.49 137.13 11.44 -0.49 -0.33 -0.81 -0.27
36.97 132.74 16.75 -0.52 -0.84 -0.14 0.09
44.84 132.82 19.18 -0.01 -0.99 0.17 -0.84
46.42 136.04 16.34 0.57 0.55 -0.61 0.23
44.89 137.31 15.49 0.95 0.17 -0.25 -0.33
46.09 132.93 17.87 0.23 -0.96 -0.16 -0.30
39.42 138.46 10.95 -0.06 0.24 -0.97 -0.21
45.50 136.69 16.26 0.71 0.37 -0.60 -0.00
42.03 139.06 12.10 0.27 -0.07 -0.96 -0.33
35.51 133.97 13.00 -0.71 -0.33 -0.62 -0.38
39.86 132.67 20.09 0.75 -0.62 0.24 -0.13
43.72 133.55 20.25 -0.40 -0.91 0.03 -1.36
35.32 133.23 14.09 -0.77 -0.61 -0.20 -0.30
38.57 131.03 19.69 0.18 -0.98 0.05 -0.24
44.63 138.43 14.34 0.89 -0.07 -0.44 -0.29
47.53 135.33 16.36 0.69 0.07 -0.72 0.45
41.72 134.46 20.58 0.08 -1.00 -0.02 0.26
35.02 133.56 15.36 -0.68 -0.73 0.05 -0.20
36.04 135.19 12.63 -0.28 0.04 -0.96 -0.27
42.99 139.41 12.48 0.57 -0.34 -0.75 -0.48
37.45 131.30 18.94 -0.22 -0.97 -0.14 -0.59
40.98 139.87 12.21 0.05 0.23 -0.97 -0.45
40.70 133.96 20.38 0.61 -0.77 0.18 -0.12
36.12 133.00 17.32 -0.47 -0.72 -0.50 0.02
47.36 133.67 16.92 0.51 -0.65 -0.56 0.11
46.05 133.23 19.31 0.36 -0.84 0.41 -0.43
37.02 137.11 12.72 -0.23 -0.20 -0.95 -0.57
36.37 131.74 18.32 -0.36 -0.83 -0.42 -0.96
35.73 133.59 16.46 -0.50 -0.86 -0.04 0.05
37.67 138.39 11.96 -0.36 -0.13 -0.92 -0.28
45.27 133.43 20.58 0.35 -0.93 0.11 -0.77
47.58 135.99 17.57 0.75 0.65 -0.10 0.10
46.09 137.39 16.98 0.80 0.29 -0.53 -1.30
46.71 136.74 18.05 0.83 0.56 0.05 -0.49
44.94 139.32 14.02 0.75 -0.46 -0.48 -0.38
47.54 133.37 18.28 0.60 -0.80 0.06 0.07
39.06 139.68 11.60 0.18 0.04 -0.98 -0.20
39.00 131.81 20.91 0.55 -0.82 0.12 -0.24
45.21 138.70 16.28 0.89 -0.04 -0.45 -0.20
48.11 134.64 17.39 0.99 -0.04 -0.16 0.41
34.32 134.42 15.19 -0.41 -0.88 -0.25 -0.37
45.10 139.26 15.34 0.92 -0.35 -0.15 -0.16
34.63 134.53 14.20 -0.71 -0.62 -0.34 -0.41
44.04 139.93 12.52 0.44 -0.61 -0.65 -1.45
34.75 135.35 12.99 -0.37 -0.43 -0.82 -0.92
37.65 131.45 20.90 -0.03 -0.97 0.25 -0.27
43.73 133.30 21.87 -0.26 -0.95 -0.17 0.23
41.05 134.26 21.82 0.33 -0.91 -0.24 -0.06
34.63 134.16 16.61 -0.31 -0.92 -0.25 0.10
35.25 132.03 18.94 -0.32 -0.89 -0.31 -0.32
36.91 138.86 11.76 0.27 -0.57 -0.78 -0.23
42.64 140.86 11.66 -0.07 -0.24 -0.97 -1.53
36.72 131.69 20.34 -0.33 -0.94 0.07 -0.65
39.89 140.83 12.43 0.39 -0.04 -0.92 -0.35
35.55 136.76 12.66 0.03 -0.17 -0.98 -0.98
34.65 133.27 18.05 -0.26 -0.75 -0.60 0.33
47.59 134.01 19.53 0.75 -0.38 0.53 0.98
46.51 137.64 18.35 0.94 0.17 0.28 -1.31
40.28 133.65 22.04 0.67 -0.70 -0.24 -0.36
45.12 133.26 21.79 0.26 -0.90 -0.34 0.16
41.80 133.98 22.55 -0.09 -0.94 -0.32 0.10
45.95 136.53 19.22 0.64 0.38 0.67 -0.53
41.01 141.87 12.34 -0.02 0.24 -0.97 -1.61
35.53 137.87 12.36 0.17 -0.60 -0.78 -0.64
47.11 135.81 19.18 0.62 0.64 0.46 -0.00
48.30 134.94 18.62 0.93 0.27 0.25 0.19
46.33 135.07 20.72 0.94 0.22 0.27 -0.11
46.04 138.92 17.67 0.98 0.18 -0.05 -0.66
38.96 141.00 11.42 0.51 -0.33 -0.80 -0.18
35.20 132.17 20.17 -0.08 -1.00 0.01 -0.04
45.57 140.29 16.16 0.98 0.11 -0.17 -0.09
36.79 131.63 21.71 -0.18 -0.98 -0.04 -0.13
42.95 133.50 22.67 -0.32 -0.94 -0.12 0.44
46.18 134.03 22.08 0.84 -0.45 -0.29 -0.18
33.47 134.39 16.15 0.00 -0.94 -0.35 -0.08
45.81 140.80 14.71 0.99 0.08 -0.09 -0.24
45.16 140.95 13.20 0.93 -0.14 -0.35 -1.70
39.47 132.23 22.25 0.65 -0.60 -0.46 -0.99
34.32 132.35 18.94 0.19 -0.82 -0.55 0.05
44.36 141.09 11.35 0.44 -0.30 -0.85 -1.65
33.30 135.40 13.96 -0.35 -0.70 -0.63 -1.17
44.49 132.62 23.07 -0.16 -0.99 -0.06 0.44
36.99 140.05 11.09 0.47 -0.35 -0.81 -0.04
33.23 136.29 13.07 -0.48 -0.53 -0.70 -1.83
32.58 134.61 15.08 0.25 -0.80 -0.55 -0.60
45.94 138.13 19.30 0.95 -0.04 0.30 -0.71
45.65 135.84 19.85 0.61 0.63 0.48 -0.79
34.18 137.16 12.37 -0.04 -0.46 -0.89 -1.25
38.38 131.28 22.77 0.10 -0.90 -0.42 -0.65
43.38 142.45 11.54 -0.06 0.60 -0.80 -2.25
41.20 133.45 23.20 0.49 -0.72 -0.50 -1.29
35.42 138.21 11.40 0.31 -0.84 -0.44 -0.04
35.68 132.21 21.33 -0.13 -0.98 -0.11 0.04
40.03 142.31 11.87 0.70 -0.12 -0.71 -0.25
43.53 133.25 23.95 -0.37 -0.86 0.35 0.28
45.04 136.98 19.94 0.91 0.18 0.38 -0.23
33.14 133.54 17.41 0.19 -0.73 -0.66 0.03
45.78 132.78 23.10 0.46 -0.87 -0.19 0.59
42.47 133.51 23.93 0.13 -0.95 0.27 -0.20
32.67 134.01 16.71 0.35 -0.86 -0.37 -0.22
38.93 141.78 10.63 0.71 -0.59 -0.39 0.17
39.73 131.48 22.99 0.46 -0.64 -0.61 -1.59
36.52 131.51 22.86 -0.15 -0.90 -0.41 -0.07
45.35 136.07 21.30 0.80 0.37 -0.47 0.16
42.16 143.14 13.35 0.03 0.98 -0.19 -1.61
36.14 139.80 9.90 0.54 -0.44 -0.72 0.44
40.50 143.50 12.94 0.80 0.44 -0.41 -0.29
46.18 135.76 21.93 0.83 0.10 -0.56 0.07
34.15 131.84 21.03 0.29 -0.95 -0.09 0.02
45.56 139.38 19.12 0.99 0.13 -0.05 -0.11
33.64 131.72 19.88 0.42 -0.89 -0.17 -0.05
45.51 140.18 18.58 0.99 -0.06 0.13 0.37
33.76 138.03 11.62 0.06 -0.85 -0.53 -0.26
37.43 141.06 10.97 0.46 -0.64 -0.62 0.07
44.97 142.25 12.10 0.79 0.50 -0.35 -1.43
44.64 142.34 14.20 0.75 0.66 0.08 -0.97
44.81 141.94 15.71 0.77 0.64 0.05 -0.22
32.38 136.85 13.67 -0.20 -0.65 -0.74 -1.08
47.16 134.57 23.61 0.91 -0.38 -0.17 0.20
44.98 141.79 17.33 0.77 0.53 -0.34 0.48
41.23 132.40 23.89 0.73 -0.52 -0.44 -1.42
37.32 131.13 23.41 -0.02 -0.78 -0.63 -0.33
45.81 141.15 17.98 0.97 0.19 -0.13 0.20
44.88 133.19 24.69 -0.16 -0.64 0.75 0.28
39.67 143.26 11.38 0.94 -0.13 -0.31 0.68
35.03 138.71 10.23 0.14 -0.79 -0.59 -0.41
32.76 137.52 12.54 -0.22 -0.78 -0.59 -0.60
43.13 134.45 24.52 -0.23 -0.20 0.95 0.06
32.69 131.55 18.62 0.35 -0.80 -0.48 -0.19
44.86 136.93 20.94 0.97 0.10 -0.23 0.51
31.74 135.76 13.98 0.27 -0.36 -0.90 -0.37
3 172 128 183
3 165 123 167
3 154 161 185
3 112 123 150
3 123 165 150
3 177 136 176
3 176 136 137
3 102 136 131
3 136 177 131
3 99 131 128
3 166 174 143
3 112 80 69
3 112 104 80
3 137 95 104
3 95 102 75
3 64 93 94
3 118 94 93
3 94 92 64
3 92 94 125
3 156 122 118
3 94 118 122
3 122 125 94
3 117 125 127
3 168 179 134
3 61 90 67
3 87 61 60
3 60 58 87
3 69 41 82
3 41 34 28
3 80 55 34
3 34 75 59
3 34 23 21
3 28 21 14
3 23 10 21
3 21 10 14
3 14 10 7
3 15 10 26
3 15 26 35
3 39 44 26
3 26 44 35
3 65 44 39
3 35 44 64
3 51 35 53
3 35 64 53
3 53 64 76
3 51 66 43
3 86 96 117
3 100 125 126
3 86 117 127
3 91 86 127
3 134 120 91
3 120 158 142
3 188 155 184
3 155 188 159
3 155 159 133
3 186 166 152
3 173 152 124
3 124 115 148
3 79 115 87
3 49 79 58
3 29 45 20
3 29 20 17
3 17 7 12
3 12 7 6
3 6 7 0
3 7 4 0
3 5 4 15
3 5 15 13
3 43 40 24
3 63 86 91
3 40 72 33
3 40 33 24
3 91 107 72
3 91 120 107
3 107 133 121
3 181 138 119
3 138 181 162
3 119 138 98
3 162 149 138
3 149 98 138
3 173 148 187
3 144 187 148
3 178 144 141
3 141 191 178
3 141 105 103
3 103 105 70
3 70 105 79
3 79 105 115
3 37 38 18
3 73 70 52
3 70 79 49
3 30 18 38
3 30 11 18
3 30 58 36
3 30 36 19
3 12 36 17
3 8 3 11
3 11 3 18
3 3 0 2
3 9 3 2
3 13 24 16
3 24 33 16
3 71 42 48
3 22 42 47
3 71 83 119
3 77 72 121
3 98 106 74
3 106 98 132
3 113 106 132
3 113 132 153
3 145 101 135
3 78 101 103
3 116 84 88
3 62 46 56
3 18 25 37
3 46 37 25
3 25 27 46
3 25 18 9
3 27 25 9
3 56 27 47
3 81 56 74
3 47 74 56
3 74 47 71
3 113 81 74
3 113 130 81
3 88 81 130
3 56 88 62
3 110 139 116
3 139 110 130
3 116 139 157
3 139 171 189
3 139 130 171
3 184 142 158
3 154 167 123
3 185 167 154
3 123 114 154
3 114 129 154
3 129 161 154
3 129 114 97
3 97 114 82
3 82 114 123
3 82 123 112
3 131 99 102
3 180 131 177
3 172 170 128
3 128 170 146
3 97 143 129
3 129 143 174
3 111 143 97
3 129 174 161
3 111 97 90
3 90 97 67
3 69 82 112
3 65 59 75
3 65 75 99
3 99 75 102
3 44 65 68
3 44 68 64
3 68 65 99
3 68 99 93
3 64 68 93
3 147 125 122
3 127 147 156
3 127 156 164
3 122 156 147
3 190 164 156
3 125 147 127
3 168 127 164
3 127 168 134
3 111 166 143
3 152 166 111
3 90 87 111
3 87 124 111
3 115 124 87
3 61 87 90
3 152 111 124
3 20 45 41
3 20 41 28
3 21 28 34
3 75 34 55
3 75 55 95
3 95 80 104
3 80 95 55
3 15 4 10
3 91 127 134
3 133 159 121
3 121 159 151
3 148 173 124
3 36 58 50
3 29 36 50
3 29 50 60
3 29 60 61
3 60 50 58
3 17 36 29
3 10 4 7
3 0 4 5
3 31 13 15
3 32 33 48
3 57 48 33
3 57 33 72
3 77 57 72
3 83 48 77
3 57 77 48
3 121 72 107
3 108 77 121
3 181 119 151
3 151 119 121
3 121 119 108
3 132 98 149
3 163 132 149
3 163 149 182
3 178 187 144
3 145 191 141
3 101 145 141
3 103 101 141
3 11 30 19
3 11 19 8
3 36 12 19
3 9 18 3
3 2 0 5
3 9 2 16
3 16 2 5
3 16 5 13
3 42 22 32
3 42 32 48
3 33 32 16
3 16 32 9
3 9 32 22
3 47 42 71
3 119 83 77
3 119 77 108
3 113 74 106
3 130 113 153
3 130 153 169
3 132 163 153
3 160 145 135
3 160 135 157
3 109 157 135
3 78 109 101
3 101 109 135
3 89 116 109
3 116 157 109
3 84 116 89
3 89 78 54
3 78 89 109
3 62 88 84
3 54 37 62
3 54 62 89
3 89 62 84
3 81 88 56
3 46 62 37
3 171 130 169
3 136 102 95
3 136 95 137
3 183 128 131
3 183 131 180
3 82 67 97
3 140 150 175
3 176 137 175
3 175 137 140
3 140 137 104
3 112 140 104
3 140 112 150
3 146 156 118
3 146 118 128
3 118 93 128
3 99 128 93
3 67 82 41
3 80 34 69
3 41 69 34
3 26 23 39
3 39 34 59
3 26 10 23
3 23 34 39
3 39 59 65
3 35 31 15
3 31 35 51
3 85 76 100
3 76 85 51
3 76 51 53
3 76 64 92
3 76 92 100
3 92 125 100
3 100 96 85
3 85 66 51
3 66 85 96
3 66 96 86
3 117 126 125
3 117 96 100
3 117 100 126
3 184 155 142
3 158 120 134
3 158 134 179
3 152 173 186
3 58 79 87
3 45 29 61
3 45 61 67
3 41 45 67
3 28 14 20
3 20 14 7
3 20 7 17
3 31 51 43
3 86 63 66
3 66 63 43
3 43 63 40
3 63 72 40
3 72 63 91
3 142 155 107
3 133 107 155
3 120 142 107
3 148 105 144
3 105 141 144
3 148 115 105
3 52 38 54
3 52 54 73
3 73 103 70
3 37 54 38
3 52 49 30
3 30 38 52
3 49 52 70
3 49 58 30
3 8 6 1
3 1 3 8
3 8 19 6
3 6 19 12
3 6 0 1
3 3 1 0
3 31 24 13
3 43 24 31
3 71 48 83
3 71 119 98
3 54 78 73
3 73 78 103
3 27 22 47
3 27 9 22
3 46 27 56
3 74 71 98
3 130 110 88
3 116 88 110
