ply
format ascii 1.0
comment Generated by MaSIF
element vertex 200
property float x
property float y
property float z
property float nx
property float ny
property float nz
property float charge
element face 353
property list uchar int vertex_indices
end_header
44.73 132.89 16.39 0.11 -0.96 -0.25 0.26
43.98 132.89 17.54 -0.29 -0.93 0.21 0.10
45.59 133.68 15.58 0.28 -0.71 -0.65 0.30
45.93 132.82 17.12 0.19 -0.97 -0.16 -0.30
44.20 133.44 15.09 0.12 -0.76 -0.64 0.02
43.27 132.76 16.67 -0.15 -0.99 0.03 -0.05
44.84 132.77 18.56 -0.01 -0.98 0.20 -0.84
46.19 134.63 14.96 0.42 -0.17 -0.89 0.27
42.54 133.18 15.72 -0.20 -0.84 -0.51 -0.09
46.06 133.16 18.54 0.39 -0.84 0.39 -0.43
42.73 133.75 17.74 -0.28 -0.86 0.43 0.02
47.43 133.24 17.34 0.58 -0.81 0.01 0.07
47.09 133.51 16.01 0.43 -0.68 -0.59 0.11
45.20 134.88 14.49 0.45 -0.30 -0.84 -0.12
41.88 133.12 16.69 0.05 -1.00 0.03 -0.13
43.36 134.45 14.37 0.11 -0.79 -0.61 -0.22
47.23 135.15 15.38 0.60 0.03 -0.80 0.45
43.86 133.56 19.74 -0.41 -0.90 0.10 -1.36
46.13 135.88 15.47 0.51 0.52 -0.69 0.23
45.44 133.41 19.89 0.35 -0.93 0.09 -0.77
41.93 133.82 15.18 0.21 -0.90 -0.37 0.05
47.91 134.47 16.35 0.96 -0.06 -0.27 0.41
44.75 135.99 14.29 0.79 0.23 -0.56 -0.68
47.64 133.91 18.56 0.80 -0.38 0.45 0.98
44.12 135.11 13.57 0.52 -0.59 -0.62 -0.74
41.42 133.85 17.83 0.52 -0.79 0.32 0.10
42.90 134.21 19.11 -0.32 -0.93 0.19 -0.41
41.76 134.20 18.91 0.38 -0.89 0.25 -0.18
41.93 134.28 13.98 0.45 -0.80 -0.39 0.21
47.43 135.84 16.55 0.75 0.63 -0.20 0.10
42.31 134.95 12.99 0.35 -0.73 -0.58 -0.24
45.22 136.55 15.48 0.64 0.34 -0.69 -0.00
46.54 135.04 19.85 0.97 0.20 0.16 -0.11
40.54 133.18 15.33 0.59 -0.78 -0.23 0.04
45.43 133.28 21.11 0.20 -0.92 -0.34 0.16
40.20 132.11 16.07 0.54 -0.79 -0.28 -1.47
48.24 134.81 17.54 0.96 0.26 0.14 0.19
44.30 136.13 13.05 0.80 -0.01 -0.60 -1.34
45.91 137.25 16.10 0.74 0.25 -0.62 -1.30
44.06 133.36 21.35 -0.30 -0.95 -0.11 0.23
44.55 137.16 14.76 0.92 0.14 -0.36 -0.33
46.63 136.62 17.11 0.84 0.54 -0.06 -0.49
40.88 133.18 14.13 0.73 -0.67 -0.08 -0.78
46.53 134.04 21.26 0.80 -0.48 -0.37 -0.18
43.21 135.64 12.47 0.30 -0.39 -0.87 -0.82
47.15 135.72 18.21 0.68 0.64 0.36 -0.00
42.21 135.93 12.30 0.35 -0.23 -0.91 -0.37
40.50 132.85 18.51 0.73 -0.62 0.28 -0.37
41.94 134.52 20.26 0.06 -1.00 0.00 0.26
40.89 134.04 20.20 0.62 -0.78 0.13 -0.12
41.50 135.32 11.88 0.43 -0.32 -0.85 -0.22
45.78 135.79 19.04 0.67 0.63 0.39 -0.79
41.06 134.49 12.42 0.43 -0.50 -0.75 -0.40
44.33 137.21 13.51 0.83 0.19 -0.52 -1.09
43.38 133.59 22.23 -0.34 -0.94 -0.05 0.44
40.61 131.89 17.40 0.72 -0.68 0.13 -1.71
46.49 137.53 17.41 0.97 0.16 0.16 -1.31
45.65 136.07 20.52 0.74 0.34 -0.57 0.16
46.54 135.76 21.05 0.76 0.07 -0.65 0.07
39.57 132.23 14.50 0.40 -0.91 -0.04 -0.60
44.94 132.69 22.48 -0.18 -0.98 -0.02 0.44
46.23 132.82 22.35 0.42 -0.88 -0.22 0.59
46.01 136.46 18.36 0.72 0.39 0.58 -0.53
42.24 134.09 22.23 -0.15 -0.95 -0.28 0.10
40.40 132.31 13.28 0.53 -0.84 -0.14 -1.22
38.42 131.55 15.90 -0.19 -0.98 -0.07 -0.40
42.75 136.95 12.37 0.48 0.04 -0.88 -0.78
45.97 138.81 16.75 0.97 0.16 -0.16 -0.66
39.00 131.09 17.24 -0.06 -1.00 -0.07 -1.17
44.17 138.25 13.62 0.83 -0.11 -0.54 -0.29
44.98 138.57 15.47 0.83 -0.07 -0.55 -0.20
41.32 136.80 11.86 0.39 -0.07 -0.92 -0.14
39.99 132.76 20.05 0.76 -0.63 0.17 -0.13
44.11 133.36 23.44 -0.34 -0.84 0.41 0.28
45.21 136.95 19.17 0.95 0.18 0.27 -0.23
40.31 133.04 12.21 0.38 -0.58 -0.72 -1.28
47.69 134.59 22.65 0.87 -0.41 -0.26 0.20
41.41 134.37 21.58 0.29 -0.92 -0.25 -0.06
40.38 136.02 11.50 0.15 -0.34 -0.93 -0.23
45.14 136.93 20.18 0.93 0.08 -0.35 0.51
39.27 131.49 18.54 0.40 -0.89 0.22 -0.87
47.13 136.59 21.63 0.74 0.04 -0.67 -0.35
46.04 138.06 18.40 0.98 -0.05 0.19 -0.71
43.05 133.64 23.54 0.15 -0.95 0.28 -0.20
38.29 132.16 13.82 -0.11 -0.90 -0.42 -0.37
39.46 134.93 12.05 -0.10 -0.18 -0.98 -0.47
46.93 133.12 23.61 0.59 -0.71 0.39 0.63
37.53 131.66 14.98 -0.10 -0.97 -0.22 -0.23
41.71 133.59 22.96 0.41 -0.74 -0.53 -1.29
38.94 132.22 13.02 -0.12 -0.89 -0.44 -1.31
40.66 133.79 21.91 0.63 -0.72 -0.30 -0.36
37.41 132.22 16.47 -0.56 -0.83 0.07 -0.30
45.53 133.30 24.02 -0.08 -0.62 0.78 0.28
47.72 135.68 22.09 0.78 -0.08 -0.63 0.08
44.46 139.13 13.24 0.68 -0.48 -0.55 -0.38
42.70 138.14 12.60 0.69 -0.14 -0.71 -0.27
44.76 139.10 14.53 0.89 -0.37 -0.25 -0.16
39.27 133.55 11.88 -0.12 -0.18 -0.98 -1.43
46.77 137.52 21.27 0.65 -0.30 -0.70 0.64
40.45 137.62 11.35 0.35 0.04 -0.94 -0.24
43.79 134.59 24.01 -0.12 -0.17 0.98 0.06
45.67 139.32 18.23 0.98 0.11 -0.17 -0.11
45.33 137.89 20.08 0.83 -0.43 -0.36 0.46
45.57 140.10 17.68 1.00 -0.07 0.01 0.37
45.35 140.15 15.26 0.95 0.09 -0.29 -0.09
39.22 131.94 20.99 0.55 -0.83 0.08 -0.24
37.61 131.92 18.04 -0.34 -0.91 -0.23 -0.29
47.01 134.25 24.13 0.43 -0.48 0.76 0.33
38.98 135.76 11.90 -0.36 -0.43 -0.83 -0.26
36.56 132.46 15.78 -0.45 -0.86 0.24 -0.22
42.66 133.31 24.33 0.88 -0.48 0.02 -1.64
47.84 134.86 24.30 0.50 -0.53 0.69 0.54
42.67 134.79 24.29 0.69 0.30 0.66 -0.82
47.86 137.60 22.45 0.94 0.03 -0.35 0.72
38.64 131.13 19.85 0.16 -0.98 0.06 -0.24
36.74 132.80 17.07 -0.55 -0.84 -0.06 0.09
39.10 136.90 10.71 -0.04 -0.31 -0.95 -0.22
45.82 141.05 17.01 0.95 0.16 -0.25 0.20
41.79 132.56 23.67 0.67 -0.55 -0.50 -1.42
38.05 133.21 12.67 -0.31 -0.54 -0.78 -0.64
46.20 138.87 19.64 0.77 -0.33 -0.55 0.05
42.35 139.22 11.93 0.47 -0.37 -0.80 -0.48
41.34 138.87 11.68 0.15 -0.11 -0.98 -0.33
36.37 132.33 14.25 -0.36 -0.92 -0.14 -0.24
48.37 136.61 23.28 0.98 0.17 -0.13 0.54
36.91 132.94 13.03 -0.12 -0.61 -0.78 -0.26
44.89 134.76 24.35 -0.25 -0.13 0.96 -0.15
48.26 136.06 24.38 0.87 -0.01 0.50 0.55
43.17 135.63 23.68 0.06 0.22 0.97 0.74
39.86 132.39 22.26 0.58 -0.63 -0.52 -0.99
45.43 140.61 13.78 0.98 0.06 -0.20 -0.24
44.09 135.98 24.06 -0.34 -0.00 0.94 0.29
37.88 131.60 21.14 -0.02 -0.96 0.28 -0.27
44.61 140.73 12.35 0.88 -0.17 -0.45 -1.70
43.40 139.71 11.83 0.35 -0.64 -0.68 -1.45
35.51 132.80 15.44 -0.50 -0.84 0.22 -0.23
46.03 140.89 18.60 0.92 -0.09 -0.37 0.39
37.44 131.41 19.22 -0.25 -0.96 -0.09 -0.59
47.95 138.53 22.02 0.92 -0.39 -0.03 0.23
37.42 134.31 12.70 -0.28 -0.06 -0.96 -0.28
42.02 132.64 25.23 0.70 -0.61 0.38 -1.88
47.67 138.80 20.80 0.71 -0.44 -0.55 0.08
41.87 135.35 24.88 0.84 0.52 0.14 -1.63
45.73 135.43 24.63 -0.14 -0.19 0.97 -0.22
36.31 131.85 18.73 -0.42 -0.84 -0.35 -0.96
35.96 133.09 17.73 -0.54 -0.73 -0.42 0.02
44.92 141.69 16.45 0.74 0.51 -0.45 0.48
38.60 138.31 10.86 -0.16 0.22 -0.96 -0.21
44.58 141.80 14.86 0.78 0.63 -0.06 -0.22
46.93 136.12 24.96 0.07 0.00 1.00 0.17
47.31 138.44 23.66 0.73 0.24 0.64 0.71
35.42 132.77 13.78 -0.54 -0.77 -0.34 -0.29
37.64 135.34 12.79 -0.18 -0.14 -0.97 -0.57
37.40 136.25 12.44 -0.36 -0.37 -0.86 -0.59
40.33 139.71 11.88 -0.06 0.20 -0.98 -0.45
40.92 131.48 23.93 0.63 -0.75 -0.20 -1.82
37.71 137.00 11.49 -0.59 -0.34 -0.74 -0.27
35.49 133.66 16.89 -0.52 -0.85 0.04 0.05
41.76 136.30 24.07 0.66 0.16 0.73 -0.03
38.82 131.47 22.93 0.03 -0.92 -0.40 -0.65
42.86 136.60 23.63 0.06 -0.18 0.98 1.02
40.19 131.65 22.98 0.38 -0.66 -0.65 -1.59
47.11 139.96 19.91 0.61 -0.11 -0.78 0.00
37.12 131.83 22.05 -0.21 -0.98 0.01 -0.13
42.45 134.75 26.03 0.94 -0.32 -0.10 -0.22
36.89 131.85 20.69 -0.33 -0.93 0.13 -0.65
35.63 133.70 12.65 -0.43 -0.26 -0.87 -0.32
47.39 137.31 24.47 0.52 0.44 0.74 0.36
45.43 142.72 17.39 0.72 0.23 -0.66 0.22
41.93 140.65 11.11 -0.19 -0.26 -0.95 -1.53
48.45 139.45 21.87 0.97 -0.25 0.03 0.01
34.81 133.25 14.60 -0.79 -0.60 -0.09 -0.30
46.58 141.03 19.41 0.75 -0.08 -0.65 0.02
45.09 136.69 24.44 -0.30 0.04 0.95 0.23
41.01 132.19 25.71 0.47 -0.53 0.71 -1.07
34.65 133.62 15.89 -0.68 -0.71 0.16 -0.20
36.50 135.13 12.62 -0.08 -0.02 -1.00 -0.88
47.92 139.48 23.09 0.81 -0.11 0.57 0.09
41.60 135.99 25.71 0.88 0.25 -0.40 -0.41
44.23 142.16 13.36 0.77 0.64 -0.03 -0.97
44.32 142.00 11.24 0.75 0.47 -0.46 -1.43
43.60 140.84 10.61 0.34 -0.33 -0.88 -1.65
35.27 132.18 19.47 -0.37 -0.90 -0.24 -0.32
44.01 142.63 15.61 0.47 0.84 -0.28 -0.14
34.88 133.96 13.47 -0.78 -0.33 -0.53 -0.38
46.83 139.57 23.86 0.51 0.04 0.86 0.17
46.16 142.69 18.74 0.89 0.13 -0.43 -0.05
41.17 133.72 26.42 0.60 -0.47 0.65 -0.82
41.43 136.79 24.78 0.90 -0.24 0.35 -0.16
38.35 139.54 11.50 0.06 0.01 -1.00 -0.20
48.38 140.64 20.87 0.92 0.17 -0.36 -0.08
46.08 137.87 24.52 0.05 0.16 0.99 0.51
39.73 130.73 23.98 0.21 -0.93 -0.31 -1.59
36.40 137.06 12.93 -0.34 -0.22 -0.91 -0.57
40.32 131.20 25.27 0.52 -0.78 0.35 -1.70
43.32 142.69 14.07 0.38 0.93 0.02 -0.63
34.59 133.41 18.61 -0.34 -0.76 -0.55 0.33
37.83 131.36 23.68 -0.11 -0.79 -0.60 -0.33
34.42 134.26 17.15 -0.35 -0.92 -0.19 0.10
48.30 140.51 22.33 0.90 0.31 0.32 -0.04
3 146 168 117
3 136 103 117
3 103 67 117
3 120 136 172
3 168 186 136
3 172 136 186
3 172 162 120
3 141 120 162
3 120 141 98
3 141 138 98
3 177 150 138
3 113 138 150
3 185 150 177
3 148 130 179
3 179 130 133
3 96 130 104
3 130 148 104
3 70 104 67
3 101 120 82
3 138 113 98
3 113 81 98
3 113 150 124
3 150 167 124
3 169 121 122
3 169 134 121
3 133 94 134
3 94 96 69
3 18 38 41
3 56 41 38
3 41 29 18
3 29 41 45
3 74 62 56
3 41 56 62
3 62 45 41
3 58 57 98
3 23 45 32
3 58 76 43
3 76 58 93
3 124 167 127
3 167 149 127
3 126 131 100
3 164 112 142
3 193 156 153
3 153 176 193
3 122 99 154
3 99 66 71
3 121 95 66
3 66 69 53
3 66 44 46
3 71 46 50
3 44 30 46
3 46 30 50
3 50 30 52
3 15 30 24
3 15 24 13
3 37 22 24
3 24 22 13
3 40 22 37
3 13 22 18
3 2 13 7
3 13 18 7
3 7 18 16
3 2 3 0
3 9 11 23
3 21 45 36
3 9 23 32
3 19 9 32
3 43 34 19
3 34 61 60
3 126 100 92
3 100 73 92
3 73 100 83
3 110 83 112
3 164 110 112
3 88 83 110
3 73 83 54
3 140 155 118
3 140 187 174
3 108 116 78
3 108 78 85
3 85 52 97
3 97 52 75
3 75 52 42
3 52 28 42
3 20 28 15
3 20 15 8
3 0 1 5
3 6 9 19
3 1 17 10
3 1 10 5
3 19 39 17
3 19 34 39
3 39 54 63
3 118 129 90
3 129 118 161
3 161 118 155
3 90 129 105
3 161 159 129
3 159 105 129
3 192 197 159
3 174 194 140
3 155 140 194
3 109 123 87
3 171 184 151
3 125 87 123
3 125 84 87
3 125 176 139
3 125 139 119
3 97 139 85
3 89 59 84
3 84 59 87
3 59 42 33
3 35 59 33
3 8 5 14
3 5 10 14
3 72 47 27
3 55 47 80
3 72 49 90
3 48 17 63
3 105 132 114
3 132 105 163
3 165 132 163
3 196 145 144
3 115 91 106
3 87 65 109
3 91 109 65
3 65 68 91
3 65 87 35
3 68 65 35
3 106 68 80
3 137 106 114
3 80 114 106
3 114 80 72
3 165 137 114
3 106 144 115
3 143 92 107
3 92 60 61
3 143 107 111
3 86 76 107
3 107 76 111
3 148 179 195
3 183 148 195
3 146 148 183
3 103 136 101
3 101 136 120
3 104 70 96
3 146 104 148
3 103 101 67
3 67 101 82
3 74 82 102
3 79 74 102
3 79 102 57
3 82 120 102
3 98 57 102
3 98 102 120
3 122 154 169
3 40 53 69
3 40 69 70
3 70 69 96
3 22 40 31
3 22 31 18
3 31 40 70
3 31 70 38
3 18 31 38
3 51 45 62
3 32 51 74
3 32 74 57
3 62 74 51
3 79 57 74
3 45 51 32
3 58 32 57
3 32 58 43
3 83 100 112
3 128 112 100
3 131 128 100
3 128 160 158
3 128 158 112
3 112 158 142
3 142 158 188
3 188 158 160
3 142 188 178
3 164 142 178
3 78 116 99
3 78 99 71
3 46 71 66
3 69 66 95
3 69 95 94
3 94 121 134
3 121 94 95
3 15 28 30
3 19 32 43
3 54 83 63
3 63 83 88
3 139 176 152
3 108 139 152
3 108 152 153
3 108 153 156
3 153 152 176
3 85 139 108
3 30 28 52
3 42 28 20
3 4 8 15
3 25 10 27
3 26 27 10
3 26 10 17
3 48 26 17
3 49 27 48
3 26 48 27
3 63 17 39
3 77 48 63
3 118 90 88
3 88 90 63
3 63 90 77
3 163 105 159
3 84 125 119
3 84 119 89
3 139 97 119
3 35 87 59
3 33 42 20
3 35 33 14
3 14 33 20
3 14 20 8
3 47 55 25
3 47 25 27
3 10 25 14
3 14 25 35
3 35 25 55
3 80 47 72
3 90 49 48
3 90 48 77
3 165 114 132
3 157 196 198
3 145 196 157
3 157 175 135
3 175 157 198
3 115 144 145
3 135 109 115
3 135 115 157
3 157 115 145
3 137 144 106
3 91 115 109
3 168 136 117
3 190 199 170
3 190 170 141
3 190 141 162
3 199 177 170
3 170 177 138
3 170 138 141
3 130 96 94
3 130 94 133
3 117 67 104
3 117 104 146
3 167 150 191
3 154 147 189
3 179 133 180
3 180 133 181
3 181 133 134
3 169 181 134
3 82 74 56
3 82 56 67
3 56 38 67
3 70 67 38
3 167 191 149
3 113 124 81
3 124 93 81
3 143 149 173
3 173 149 191
3 173 131 143
3 126 143 131
3 147 154 99
3 121 66 122
3 99 122 66
3 24 44 37
3 37 66 53
3 24 30 44
3 44 66 37
3 37 53 40
3 13 4 15
3 4 13 2
3 12 16 21
3 16 12 2
3 16 2 7
3 16 18 29
3 16 29 21
3 29 45 21
3 21 11 12
3 12 3 2
3 3 12 11
3 3 11 9
3 23 36 45
3 23 11 21
3 23 21 36
3 92 143 126
3 92 73 60
3 61 34 43
3 61 76 86
3 86 92 61
3 61 43 76
3 86 107 92
3 76 124 127
3 111 76 127
3 111 127 149
3 76 93 124
3 111 149 143
3 118 110 140
3 164 140 110
3 187 140 164
3 88 110 118
3 116 108 156
3 116 156 147
3 99 116 147
3 71 50 78
3 78 50 52
3 78 52 85
3 4 2 0
3 9 6 3
3 3 6 0
3 0 6 1
3 6 17 1
3 17 6 19
3 60 73 39
3 54 39 73
3 34 60 39
3 192 155 194
3 192 159 161
3 192 161 155
3 151 123 135
3 151 135 171
3 109 135 123
3 151 166 125
3 125 123 151
3 166 151 184
3 166 176 125
3 89 75 64
3 64 59 89
3 89 119 75
3 75 119 97
3 75 42 64
3 59 64 42
3 4 5 8
3 0 5 4
3 72 27 49
3 72 90 105
3 135 175 171
3 68 55 80
3 68 35 55
3 91 68 106
3 114 72 105
3 196 144 182
3 58 98 81
3 58 81 93
3 160 128 131
3 160 131 173
