ply
format ascii 1.0
comment Generated by MaSIF
element vertex 199
property float x
property float y
property float z
property float nx
property float ny
property float nz
property float charge
element face 352
property list uchar int vertex_indices
end_header
46.37 134.24 17.77 0.55 -0.45 -0.70 -0.18
45.39 133.42 18.20 0.08 -0.92 -0.38 0.16
46.72 133.07 18.90 0.32 -0.87 -0.38 0.59
46.16 135.96 17.55 0.34 0.07 -0.94 0.07
45.63 135.17 16.53 0.90 0.26 -0.34 -0.11
44.80 133.49 17.12 0.41 -0.91 -0.07 -0.77
48.01 134.93 18.41 0.66 -0.37 -0.65 0.20
44.31 133.44 19.07 -0.25 -0.97 0.07 0.23
45.67 132.87 19.64 -0.10 -0.99 0.09 0.44
45.10 136.18 17.52 0.35 0.35 -0.87 0.16
46.90 136.84 17.76 0.31 0.04 -0.95 -0.35
47.92 133.47 19.65 0.75 -0.66 0.07 0.63
47.70 135.99 17.89 0.38 -0.07 -0.92 0.08
44.52 135.84 16.17 0.73 0.68 -0.00 -0.79
46.89 133.59 20.69 0.35 -0.58 0.73 0.28
48.17 134.62 20.05 0.78 -0.42 0.46 0.33
43.34 133.55 17.76 -0.25 -0.92 0.31 -1.36
48.93 135.28 19.78 0.80 -0.47 0.37 0.54
44.71 133.21 15.64 0.59 -0.79 0.16 -0.43
43.68 132.76 16.27 0.16 -0.97 0.19 -0.84
46.34 137.73 17.61 0.25 -0.30 -0.92 0.64
44.13 133.68 20.17 -0.26 -0.96 0.14 0.44
45.31 135.80 14.78 0.72 0.69 -0.03 -0.00
46.04 134.04 14.88 0.95 -0.32 0.01 0.98
44.43 137.00 17.46 0.64 0.11 -0.76 0.51
48.77 137.01 18.60 0.78 0.21 -0.59 0.54
45.36 133.55 20.87 -0.04 -0.84 0.54 0.28
49.25 136.51 19.62 1.00 0.06 0.01 0.55
44.35 136.49 15.45 0.88 0.45 0.15 -0.53
44.00 136.98 16.55 0.94 0.24 -0.23 -0.23
47.86 137.92 18.10 0.64 0.06 -0.76 0.72
42.16 134.12 17.67 -0.12 -0.93 0.34 -0.41
43.09 134.12 20.71 -0.19 -0.97 -0.15 0.10
46.39 135.03 21.26 0.26 -0.09 0.96 -0.15
42.42 132.77 15.79 -0.09 -0.94 0.34 0.10
43.93 132.79 14.48 0.16 -0.96 -0.22 -0.30
44.48 137.96 17.26 0.58 -0.40 -0.71 0.46
48.37 136.53 20.77 0.54 0.06 0.84 0.17
44.47 133.78 21.46 0.33 -0.92 0.19 -0.20
47.21 135.76 21.08 0.37 -0.15 0.92 -0.22
45.31 133.30 13.93 0.57 -0.78 -0.26 0.07
46.01 134.91 13.68 0.88 0.31 -0.35 0.19
47.66 138.83 17.66 0.81 -0.35 -0.47 0.23
44.27 136.61 14.06 0.66 0.58 -0.47 -0.49
46.81 139.03 16.73 0.38 -0.43 -0.82 0.08
45.28 134.78 21.51 0.38 -0.13 0.92 0.06
44.74 135.85 13.20 0.51 0.66 -0.55 0.10
48.45 137.71 20.10 0.78 0.50 0.38 0.36
42.52 132.76 14.42 0.04 -0.97 -0.25 0.26
47.90 138.80 19.41 0.93 0.31 0.20 0.71
44.22 137.54 14.37 0.92 0.22 -0.33 -1.31
41.85 134.43 19.13 0.12 -0.99 -0.01 0.26
41.37 133.58 16.56 0.02 -0.85 0.53 0.02
44.95 138.96 16.43 0.42 -0.32 -0.85 0.05
45.17 134.51 12.81 0.71 -0.03 -0.70 0.41
42.04 134.32 20.54 0.19 -0.92 -0.34 -0.06
44.28 138.09 15.45 0.95 0.01 -0.31 -0.71
43.02 133.63 21.62 0.15 -0.74 -0.65 -1.29
41.39 132.57 15.38 -0.04 -0.99 0.12 -0.05
41.06 134.04 18.04 0.52 -0.85 0.05 -0.18
44.53 133.46 22.35 0.81 -0.43 -0.41 -1.64
44.42 134.94 22.29 0.90 0.36 0.24 -0.82
45.46 136.19 21.37 0.16 0.03 0.99 0.29
47.96 139.78 17.28 0.87 -0.20 -0.44 0.01
46.48 136.98 21.20 0.20 0.07 0.98 0.23
44.35 133.48 12.93 0.14 -0.68 -0.72 0.11
44.50 135.78 21.49 0.51 0.27 0.82 0.74
44.06 135.10 12.28 0.13 0.02 -0.99 0.45
48.09 139.84 18.60 0.99 -0.04 0.11 0.09
42.82 133.56 13.28 -0.02 -0.72 -0.69 0.30
43.10 137.16 13.52 0.33 0.26 -0.91 -1.30
41.59 133.72 21.21 0.45 -0.70 -0.55 -0.36
45.80 140.11 16.21 0.16 -0.11 -0.98 0.00
47.29 138.21 20.77 0.51 0.21 0.83 0.51
43.09 135.77 12.88 0.07 0.51 -0.86 0.23
47.51 139.91 19.80 0.86 0.11 0.50 0.17
40.94 133.89 19.60 0.66 -0.73 -0.17 -0.12
41.40 133.22 13.54 -0.15 -0.79 -0.60 0.02
47.33 140.90 16.41 0.61 0.20 -0.76 -0.08
40.27 132.90 14.90 -0.36 -0.87 -0.34 -0.09
43.36 138.74 14.02 0.76 0.20 -0.62 -0.66
43.78 139.31 15.45 0.77 0.15 -0.63 -0.11
43.52 132.65 22.21 0.38 -0.54 -0.75 -1.42
40.17 132.86 16.07 0.13 -0.99 0.02 -0.13
47.98 140.85 17.73 0.92 0.37 -0.16 -0.04
40.27 133.62 17.28 0.67 -0.75 0.04 0.10
44.47 132.82 23.47 0.84 -0.55 0.00 -1.88
43.97 135.49 23.18 0.76 0.57 -0.30 -1.63
47.91 140.93 18.89 0.91 0.31 0.28 -0.06
44.14 136.72 21.58 0.54 -0.12 0.83 1.02
42.98 134.50 12.43 -0.06 -0.20 -0.98 0.27
42.25 136.39 13.32 0.20 0.34 -0.92 -0.00
45.36 137.69 21.33 0.33 -0.28 0.90 1.52
43.42 136.39 22.51 0.92 0.23 0.32 -0.03
45.03 141.13 16.01 0.34 -0.07 -0.94 0.02
39.87 132.60 18.34 0.82 -0.56 -0.10 -0.37
44.16 140.92 15.57 0.63 -0.06 -0.77 0.39
45.08 134.98 23.92 0.80 -0.28 -0.54 -0.22
41.88 134.68 12.50 0.01 -0.32 -0.95 -0.12
43.37 140.06 15.00 0.88 -0.02 -0.47 0.37
39.43 133.48 14.71 0.07 -0.91 -0.41 0.05
41.16 132.30 21.92 0.30 -0.62 -0.73 -0.99
47.29 141.71 17.66 0.69 0.66 -0.29 -0.09
46.88 140.53 20.74 0.98 0.13 0.17 -0.02
46.29 138.66 21.66 0.76 -0.56 0.34 0.34
41.89 138.39 13.39 0.46 -0.06 -0.88 -0.20
43.84 132.33 24.38 0.79 -0.46 0.40 -1.07
40.24 134.14 13.30 -0.14 -0.81 -0.57 -0.22
47.06 141.51 20.00 0.88 0.24 0.41 -0.15
42.96 131.53 22.89 0.50 -0.73 -0.46 -1.82
44.09 136.15 24.03 0.56 0.28 -0.78 -0.41
46.10 142.10 16.48 0.57 0.41 -0.71 -0.10
40.18 132.56 19.92 0.79 -0.58 -0.21 -0.13
41.31 135.74 12.53 0.40 0.25 -0.88 -0.68
41.27 136.93 13.01 0.62 0.17 -0.77 -0.33
44.22 133.91 24.90 0.87 -0.40 0.28 -0.82
43.44 136.90 23.28 0.98 -0.18 -0.13 -0.16
40.02 131.76 21.13 0.58 -0.80 -0.18 -0.24
41.84 131.61 22.41 0.06 -0.67 -0.74 -1.59
44.01 137.94 22.18 0.66 -0.58 0.48 0.66
46.98 142.29 18.53 0.84 0.53 -0.11 -0.13
38.34 132.77 15.53 0.45 -0.75 -0.47 0.04
42.01 139.97 13.00 0.68 0.12 -0.72 -0.09
43.20 140.99 14.29 0.70 0.20 -0.69 0.20
38.47 131.72 16.36 0.39 -0.78 -0.49 -1.47
43.10 131.29 24.35 0.68 -0.73 0.06 -1.70
39.49 131.59 17.33 0.74 -0.63 -0.22 -1.71
38.82 133.88 13.65 0.26 -0.79 -0.55 0.21
41.22 138.86 12.67 0.69 -0.34 -0.64 -0.16
40.47 134.80 12.22 0.19 -0.59 -0.78 -0.74
45.68 143.02 16.77 0.60 0.58 -0.56 -0.11
44.86 136.61 24.15 0.02 0.06 -1.00 -0.13
40.64 131.36 23.04 -0.10 -0.93 -0.35 -0.65
46.38 141.83 20.83 0.95 0.18 0.24 -0.29
46.84 141.22 21.86 0.89 0.35 -0.29 -0.29
47.01 142.61 19.76 0.96 0.25 0.15 -0.24
44.54 134.67 25.53 0.72 -0.69 -0.08 -0.09
38.91 131.18 18.98 0.52 -0.85 0.02 -0.87
44.22 142.72 15.60 0.56 0.16 -0.81 -0.05
42.00 130.73 23.53 0.10 -0.93 -0.36 -1.59
45.54 135.03 25.61 0.22 -0.91 -0.36 -0.00
47.19 140.07 22.16 0.95 -0.10 -0.30 -0.10
43.89 137.36 23.98 0.57 -0.30 -0.76 -0.42
38.05 132.74 14.32 0.65 -0.64 -0.41 -0.78
46.02 138.43 23.09 0.23 -0.83 -0.51 -0.02
43.83 133.31 25.65 0.81 -0.57 0.17 -0.04
40.30 135.80 11.66 0.41 0.00 -0.91 -1.34
40.48 136.91 12.02 0.46 0.21 -0.87 -1.09
42.93 142.66 14.78 0.29 0.23 -0.93 0.22
44.52 138.41 22.94 0.46 -0.87 -0.19 0.04
46.34 143.24 18.15 0.78 0.51 -0.35 -0.16
38.94 131.35 21.93 0.19 -0.94 0.27 -0.27
38.62 134.52 12.60 0.07 -0.74 -0.67 -0.24
47.29 139.23 23.24 0.90 -0.39 -0.21 -0.07
40.31 137.94 12.18 0.47 -0.09 -0.88 -0.29
42.10 141.55 14.22 0.39 0.52 -0.76 0.48
39.02 130.86 20.44 0.24 -0.97 -0.01 -0.24
45.95 137.21 24.03 0.09 -0.24 -0.97 -0.08
42.59 132.49 26.03 0.81 -0.57 0.10 -0.13
47.12 136.19 24.62 0.54 -0.44 -0.72 -0.03
45.25 143.80 17.53 0.57 0.69 -0.45 -0.09
46.65 134.92 25.98 0.39 -0.81 -0.44 0.06
37.16 131.74 15.29 0.40 -0.89 -0.22 -0.60
40.32 138.81 11.69 0.36 -0.48 -0.80 -0.38
41.32 140.37 11.66 0.75 0.10 -0.66 -0.24
46.37 142.19 22.11 0.92 0.09 -0.38 -1.45
42.23 130.91 25.50 0.80 -0.59 -0.08 0.15
40.15 131.24 24.18 -0.33 -0.83 -0.46 -0.33
44.73 137.80 24.11 0.06 -0.52 -0.85 -0.34
44.55 143.72 16.41 0.73 0.52 -0.44 -0.30
41.02 141.56 13.00 0.61 0.66 -0.44 -0.22
39.11 135.23 11.69 -0.13 -0.42 -0.90 -0.82
38.07 130.70 17.98 -0.01 -1.00 -0.01 -1.17
36.88 131.07 17.10 -0.13 -0.99 0.05 -0.40
47.46 141.56 23.03 0.89 0.07 -0.45 -0.43
45.67 134.32 26.52 0.31 -0.60 -0.74 0.56
43.93 133.44 26.59 0.48 -0.71 -0.52 0.13
37.29 133.97 12.72 0.05 -0.51 -0.86 -0.40
46.56 143.50 20.81 0.97 -0.17 -0.20 -0.87
37.28 131.80 13.82 0.46 -0.81 -0.36 -1.22
38.70 131.58 23.09 -0.11 -0.99 0.12 -0.13
37.85 131.53 22.01 -0.16 -0.94 0.30 -0.65
37.18 131.50 19.35 -0.34 -0.94 -0.02 -0.29
43.69 144.23 15.32 0.56 0.15 -0.82 -1.58
38.13 135.45 12.02 -0.12 -0.25 -0.96 -0.37
39.16 131.55 24.18 -0.30 -0.93 -0.20 -0.07
47.04 138.04 24.16 0.73 -0.18 -0.66 -0.08
41.50 143.29 15.17 -0.21 0.56 -0.80 -0.33
37.35 134.79 12.01 -0.02 -0.34 -0.94 -0.22
47.62 140.37 23.96 0.97 -0.23 -0.01 -0.18
45.60 144.47 18.66 0.52 0.67 -0.53 -0.31
37.65 131.04 20.47 -0.19 -0.98 0.07 -0.59
36.63 132.47 12.92 0.03 -0.59 -0.80 -1.28
38.56 136.50 11.80 -0.01 0.02 -1.00 -0.78
40.83 142.39 13.91 0.22 0.85 -0.49 -0.14
41.91 144.08 15.13 -0.36 0.13 -0.92 -1.70
47.00 142.86 22.67 0.82 -0.28 -0.51 -1.65
35.72 131.57 15.33 -0.23 -0.93 -0.30 -0.37
48.17 137.29 24.93 0.87 0.00 -0.49 -0.04
3 150 178 135
3 195 183 148
3 148 183 138
3 138 183 169
3 169 130 138
3 130 160 150
3 120 135 108
3 135 133 108
3 133 135 178
3 155 148 123
3 96 99 123
3 99 80 123
3 53 96 94
3 148 138 96
3 94 96 138
3 72 94 111
3 111 78 72
3 111 102 78
3 94 72 53
3 44 53 72
3 53 44 20
3 44 42 20
3 68 49 42
3 30 42 49
3 75 49 68
3 75 68 88
3 108 103 75
3 141 103 134
3 141 134 174
3 128 164 122
3 164 170 122
3 105 122 80
3 81 53 56
3 42 30 20
3 30 10 20
3 30 49 25
3 49 47 25
3 153 144 104
3 144 153 186
3 163 128 154
3 74 70 43
3 50 43 70
3 43 46 74
3 46 43 22
3 29 28 50
3 43 50 28
3 28 22 43
3 3 9 20
3 23 22 4
3 3 6 0
3 6 3 12
3 25 47 27
3 47 37 27
3 33 62 45
3 97 61 87
3 193 154 147
3 193 171 184
3 171 152 184
3 184 152 188
3 188 152 177
3 107 152 129
3 107 129 98
3 146 113 129
3 129 113 98
3 114 113 146
3 98 113 74
3 69 98 90
3 98 74 90
3 90 74 67
3 69 35 48
3 18 40 23
3 54 22 41
3 18 23 4
3 5 18 4
3 0 1 5
3 1 2 8
3 33 45 14
3 45 26 14
3 26 45 38
3 60 38 61
3 97 60 61
3 57 38 60
3 26 38 21
3 86 109 82
3 86 115 106
3 106 115 145
3 192 177 143
3 177 127 143
3 100 127 107
3 100 107 79
3 48 34 58
3 19 18 5
3 34 16 52
3 34 52 58
3 5 7 16
3 5 1 7
3 7 21 32
3 82 101 71
3 101 82 118
3 118 82 109
3 71 101 117
3 118 132 101
3 132 117 101
3 139 167 132
3 139 125 166
3 125 106 166
3 106 125 86
3 109 86 125
3 162 143 121
3 124 162 121
3 79 58 83
3 58 52 83
3 112 95 59
3 126 95 137
3 112 76 71
3 51 16 32
3 117 151 156
3 151 117 180
3 181 151 180
3 172 173 124
3 182 172 137
3 191 182 156
3 137 156 182
3 156 137 112
3 181 191 156
3 39 14 15
3 14 8 2
3 39 15 17
3 11 6 15
3 15 6 17
3 155 194 187
3 187 148 155
3 148 187 195
3 160 130 169
3 111 130 150
3 111 150 120
3 111 120 102
3 103 108 133
3 103 133 134
3 165 178 196
3 133 178 165
3 133 165 134
3 134 165 174
3 174 165 196
3 155 170 194
3 99 96 81
3 81 96 53
3 103 104 75
3 73 49 104
3 104 103 141
3 75 104 49
3 104 141 153
3 122 105 128
3 155 122 170
3 99 81 80
3 80 81 56
3 29 56 36
3 24 29 36
3 24 36 9
3 56 53 36
3 20 9 36
3 20 36 53
3 73 92 64
3 92 73 104
3 89 64 92
3 119 92 104
3 119 104 149
3 149 104 144
3 131 142 168
3 168 142 149
3 142 116 149
3 131 168 157
3 157 168 144
3 144 168 149
3 149 116 119
3 119 116 89
3 186 157 144
3 114 147 154
3 114 154 105
3 105 154 128
3 113 114 91
3 113 91 74
3 91 114 105
3 91 105 70
3 74 91 70
3 13 22 28
3 4 13 29
3 4 29 9
3 28 29 13
3 24 9 29
3 22 13 4
3 3 4 9
3 4 3 0
3 38 45 61
3 66 61 45
3 62 66 45
3 66 89 93
3 66 93 61
3 61 93 87
3 87 93 116
3 110 116 142
3 110 142 131
3 116 93 89
3 87 116 110
3 97 87 110
3 97 110 131
3 136 115 97
3 175 176 140
3 176 136 140
3 140 136 97
3 145 115 136
3 145 136 176
3 161 175 140
3 107 127 152
3 5 4 0
3 21 38 32
3 32 38 57
3 145 176 158
3 145 158 106
3 152 127 177
3 143 127 100
3 77 79 107
3 85 52 59
3 31 59 52
3 31 52 16
3 51 31 16
3 76 59 51
3 31 51 59
3 32 16 7
3 55 51 32
3 82 71 57
3 57 71 32
3 32 71 55
3 180 117 132
3 185 180 132
3 185 132 167
3 158 166 106
3 121 143 100
3 124 121 83
3 83 121 100
3 83 100 79
3 95 126 85
3 95 85 59
3 52 85 83
3 83 85 124
3 124 85 126
3 137 95 112
3 71 76 51
3 71 51 55
3 181 156 151
3 160 190 150
3 120 150 135
3 148 96 123
3 94 138 111
3 130 111 138
3 78 84 63
3 78 63 44
3 78 44 72
3 78 102 84
3 68 84 88
3 88 84 120
3 120 84 102
3 84 68 63
3 63 68 42
3 63 42 44
3 108 75 88
3 108 88 120
3 164 128 163
3 123 80 122
3 123 122 155
3 47 49 73
3 189 153 174
3 153 141 174
3 56 29 50
3 56 50 80
3 50 70 80
3 105 80 70
3 47 73 37
3 30 25 10
3 25 12 10
3 39 37 64
3 64 37 73
3 64 62 39
3 33 39 62
3 157 159 97
3 157 97 131
3 97 159 161
3 97 161 140
3 186 159 157
3 198 159 186
3 129 171 146
3 146 193 147
3 129 152 171
3 171 193 146
3 146 147 114
3 98 77 107
3 77 98 69
3 65 67 54
3 67 65 69
3 67 69 90
3 67 74 46
3 67 46 54
3 46 22 54
3 54 40 65
3 65 35 69
3 35 65 40
3 35 40 18
3 23 41 22
3 23 40 54
3 23 54 41
3 14 39 33
3 14 26 8
3 2 1 0
3 2 6 11
3 11 14 2
3 2 0 6
3 11 15 14
3 6 25 27
3 17 6 27
3 17 27 37
3 6 12 25
3 17 37 39
3 82 60 86
3 97 86 60
3 115 86 97
3 57 60 82
3 77 69 48
3 18 19 35
3 35 19 48
3 48 19 34
3 19 16 34
3 16 19 5
3 8 26 7
3 21 7 26
3 1 8 7
3 139 109 125
3 139 132 118
3 139 118 109
3 192 143 179
3 162 179 143
3 77 58 79
3 48 58 77
3 112 59 76
3 112 71 117
3 172 126 137
3 172 124 126
3 156 112 117
3 119 89 92
3 3 20 10
3 3 10 12
3 89 66 62
3 89 62 64
