ply
format ascii 1.0
comment Generated by MaSIF
element vertex 194
property float x
property float y
property float z
property float nx
property float ny
property float nz
property float charge
element face 342
property list uchar int vertex_indices
end_header
42.71 135.95 12.53 0.39 -0.22 -0.89 -0.37
42.01 135.36 12.07 0.46 -0.32 -0.83 -0.22
42.77 134.97 13.21 0.36 -0.73 -0.57 -0.24
43.71 135.65 12.74 0.33 -0.39 -0.86 -0.82
43.26 136.96 12.63 0.52 0.04 -0.86 -0.78
41.86 136.84 12.06 0.43 -0.07 -0.90 -0.14
41.54 134.53 12.58 0.46 -0.50 -0.74 -0.40
44.77 136.11 13.37 0.83 -0.02 -0.56 -1.34
42.34 134.30 14.18 0.46 -0.80 -0.38 0.21
43.23 138.15 12.87 0.72 -0.14 -0.68 -0.27
40.92 136.08 11.65 0.19 -0.33 -0.93 -0.23
44.55 135.09 13.87 0.54 -0.59 -0.60 -0.74
41.02 137.68 11.52 0.39 0.05 -0.92 -0.24
43.75 134.43 14.63 0.13 -0.78 -0.61 -0.22
44.80 137.19 13.84 0.85 0.18 -0.49 -1.09
44.65 138.23 13.95 0.85 -0.11 -0.51 -0.29
42.92 139.25 12.20 0.50 -0.37 -0.78 -0.48
42.28 133.82 15.37 0.21 -0.90 -0.37 0.05
41.92 138.92 11.90 0.19 -0.10 -0.98 -0.33
45.17 135.95 14.63 0.82 0.23 -0.52 -0.68
39.97 135.00 12.15 -0.06 -0.16 -0.98 -0.47
39.50 135.84 11.99 -0.33 -0.42 -0.85 -0.26
40.78 133.10 12.32 0.40 -0.58 -0.71 -1.28
41.27 133.21 14.27 0.73 -0.68 -0.05 -0.78
45.59 134.84 14.83 0.48 -0.30 -0.82 -0.12
39.70 136.99 10.81 -0.00 -0.30 -0.95 -0.22
39.76 133.62 11.95 -0.08 -0.17 -0.98 -1.43
44.96 137.12 15.10 0.94 0.13 -0.32 -0.33
44.97 139.11 13.60 0.69 -0.49 -0.53 -0.38
44.55 133.40 15.38 0.13 -0.76 -0.64 0.02
39.21 138.40 10.96 -0.12 0.23 -0.97 -0.21
42.86 133.17 15.93 -0.19 -0.83 -0.53 -0.09
45.22 139.06 14.90 0.90 -0.39 -0.21 -0.16
40.91 139.77 12.07 -0.02 0.21 -0.98 -0.45
43.98 139.72 12.15 0.37 -0.64 -0.67 -1.45
40.81 132.36 13.39 0.52 -0.84 -0.12 -1.22
45.60 136.49 15.84 0.68 0.34 -0.66 -0.00
42.16 133.11 16.87 0.03 -1.00 0.02 -0.13
46.55 134.56 15.34 0.45 -0.17 -0.88 0.27
40.87 133.20 15.45 0.58 -0.78 -0.21 0.04
42.56 140.69 11.38 -0.15 -0.25 -0.96 -1.53
39.36 132.29 13.07 -0.11 -0.88 -0.46 -1.31
45.38 138.51 15.84 0.85 -0.08 -0.51 -0.20
39.93 132.28 14.57 0.39 -0.92 -0.04 -0.60
38.12 135.44 12.81 -0.14 -0.12 -0.98 -0.57
37.90 136.36 12.46 -0.33 -0.36 -0.87 -0.59
46.50 135.81 15.86 0.54 0.52 -0.66 0.23
38.27 137.11 11.54 -0.56 -0.32 -0.76 -0.27
38.50 133.30 12.69 -0.29 -0.53 -0.80 -0.64
45.91 133.62 15.92 0.30 -0.70 -0.65 0.30
45.01 132.83 16.69 0.10 -0.96 -0.26 0.26
37.89 134.40 12.71 -0.23 -0.05 -0.97 -0.28
43.53 132.72 16.91 -0.16 -0.99 0.01 -0.05
38.95 139.64 11.61 0.11 0.02 -0.99 -0.20
45.79 140.09 15.67 0.97 0.07 -0.25 -0.09
45.94 140.57 14.19 0.99 0.04 -0.16 -0.24
46.26 137.18 16.50 0.77 0.25 -0.59 -1.30
45.19 140.71 12.73 0.89 -0.18 -0.41 -1.70
39.87 140.78 12.35 0.32 -0.07 -0.94 -0.35
47.59 135.06 15.81 0.63 0.03 -0.77 0.45
44.25 140.86 10.95 0.37 -0.33 -0.87 -1.65
38.67 132.24 13.84 -0.10 -0.90 -0.43 -0.37
37.53 138.41 12.09 -0.44 -0.13 -0.89 -0.28
40.49 132.12 16.16 0.54 -0.80 -0.27 -1.47
41.65 133.83 18.00 0.50 -0.80 0.33 0.10
42.96 133.71 17.96 -0.31 -0.86 0.41 0.02
36.99 135.24 12.59 -0.04 -0.01 -1.00 -0.88
41.01 141.77 12.16 -0.08 0.22 -0.97 -1.61
43.34 142.25 11.18 -0.10 0.59 -0.80 -2.25
37.34 133.04 12.99 -0.10 -0.60 -0.79 -0.26
36.90 137.17 12.92 -0.31 -0.20 -0.93 -0.57
46.33 138.72 17.16 0.98 0.14 -0.12 -0.66
44.21 132.83 17.80 -0.31 -0.93 0.18 0.10
47.74 135.74 17.00 0.77 0.62 -0.16 0.10
47.39 133.42 16.41 0.45 -0.68 -0.58 0.11
46.94 136.52 17.53 0.85 0.53 -0.02 -0.49
46.17 132.74 17.47 0.19 -0.97 -0.16 -0.30
46.79 137.44 17.83 0.97 0.14 0.21 -1.31
38.87 140.97 11.41 0.43 -0.36 -0.82 -0.18
37.86 131.73 14.95 -0.10 -0.97 -0.23 -0.23
48.22 134.37 16.81 0.97 -0.08 -0.23 0.41
36.78 138.90 11.94 0.19 -0.59 -0.78 -0.23
44.96 142.00 11.63 0.78 0.46 -0.42 -1.43
41.95 134.17 19.09 0.35 -0.90 0.26 -0.18
35.85 135.28 12.93 -0.35 0.04 -0.94 -0.27
44.79 142.14 13.74 0.78 0.63 0.01 -0.97
45.06 141.76 15.25 0.79 0.61 -0.02 -0.22
40.83 131.88 17.51 0.70 -0.69 0.16 -1.71
45.02 132.69 18.86 -0.03 -0.98 0.18 -0.84
40.02 142.24 11.76 0.64 -0.15 -0.75 -0.25
45.34 141.63 16.85 0.76 0.50 -0.41 0.48
46.20 140.97 17.44 0.97 0.15 -0.21 0.20
36.74 132.43 14.18 -0.37 -0.92 -0.17 -0.24
43.09 134.15 19.35 -0.34 -0.92 0.16 -0.41
40.69 132.84 18.63 0.71 -0.63 0.31 -0.37
38.70 131.60 15.92 -0.21 -0.97 -0.08 -0.40
36.09 133.82 12.57 -0.39 -0.24 -0.89 -0.32
36.85 140.08 11.24 0.40 -0.38 -0.84 -0.04
35.82 132.89 13.68 -0.54 -0.76 -0.37 -0.29
39.22 131.11 17.27 -0.07 -0.99 -0.08 -1.17
47.67 133.13 17.75 0.57 -0.82 0.03 0.07
35.41 136.87 12.98 -0.05 -0.19 -0.98 -0.98
44.17 142.84 12.76 0.37 0.92 -0.10 -1.53
46.26 136.36 18.75 0.70 0.37 0.61 -0.53
42.28 143.01 13.07 0.05 0.98 -0.21 -1.61
45.97 139.22 18.63 0.99 0.10 -0.12 -0.11
46.25 133.06 18.89 0.36 -0.85 0.39 -0.43
40.61 143.42 12.77 0.78 0.40 -0.48 -0.29
45.90 140.02 18.09 0.99 -0.09 0.06 0.37
47.39 135.60 18.64 0.67 0.62 0.40 -0.00
46.31 137.96 18.81 0.97 -0.07 0.23 -0.71
38.81 141.73 10.61 0.66 -0.62 -0.43 0.17
35.42 137.97 12.66 0.09 -0.62 -0.78 -0.64
48.50 134.68 18.01 0.95 0.24 0.18 0.19
36.86 132.54 15.73 -0.47 -0.86 0.21 -0.22
43.85 142.68 14.42 0.39 0.92 0.05 -0.63
44.01 133.48 20.00 -0.43 -0.90 0.07 -1.36
44.47 142.59 15.98 0.50 0.83 -0.25 -0.14
35.31 134.09 13.36 -0.76 -0.32 -0.56 -0.38
37.31 141.07 11.07 0.39 -0.66 -0.64 0.07
34.60 135.49 13.38 -0.44 -0.43 -0.79 -0.92
39.66 143.19 11.27 0.91 -0.17 -0.37 0.68
42.08 134.47 20.46 0.04 -1.00 -0.01 0.26
35.24 138.30 11.70 0.25 -0.86 -0.45 -0.04
35.18 133.37 14.48 -0.80 -0.59 -0.13 -0.30
41.03 134.00 20.34 0.60 -0.79 0.15 -0.12
37.69 132.28 16.44 -0.57 -0.82 0.03 -0.30
45.58 133.31 20.22 0.33 -0.94 0.10 -0.77
45.98 135.69 19.41 0.67 0.61 0.42 -0.79
35.84 132.91 15.34 -0.52 -0.83 0.19 -0.23
45.82 142.64 17.83 0.75 0.22 -0.63 0.22
39.44 131.49 18.59 0.38 -0.90 0.23 -0.87
47.83 133.79 18.99 0.78 -0.40 0.48 0.98
45.43 136.86 19.53 0.94 0.16 0.31 -0.23
46.34 140.79 19.04 0.94 -0.10 -0.33 0.39
38.87 142.03 9.69 0.55 -0.77 -0.32 0.23
35.91 139.84 10.12 0.47 -0.47 -0.75 0.44
40.12 132.74 20.14 0.74 -0.64 0.19 -0.13
34.05 137.31 12.77 -0.12 -0.47 -0.87 -1.25
44.45 143.39 17.46 0.27 0.59 -0.76 -0.33
42.00 142.81 14.52 0.37 0.93 -0.04 -1.28
41.00 143.64 14.32 0.89 0.36 -0.29 -0.04
37.80 131.96 18.02 -0.34 -0.91 -0.25 -0.29
39.61 142.95 10.19 0.95 -0.31 -0.06 0.54
46.43 138.75 20.06 0.78 -0.34 -0.52 0.05
39.93 144.36 11.72 0.95 0.09 -0.29 0.25
43.44 143.03 16.55 0.17 0.89 -0.43 -0.17
36.99 132.86 17.02 -0.56 -0.83 -0.09 0.09
42.79 142.80 15.36 0.16 0.98 -0.14 -0.43
34.54 134.70 14.62 -0.76 -0.59 -0.28 -0.41
46.70 134.91 20.25 0.96 0.19 0.20 -0.11
34.79 138.80 10.55 0.06 -0.81 -0.59 -0.41
45.52 137.78 20.45 0.84 -0.44 -0.33 0.46
33.60 138.19 12.04 -0.01 -0.86 -0.52 -0.26
34.98 133.73 15.77 -0.70 -0.70 0.12 -0.20
44.13 133.26 21.62 -0.31 -0.94 -0.13 0.23
40.36 145.17 13.87 0.92 0.08 -0.38 0.43
41.50 134.31 21.74 0.28 -0.93 -0.25 -0.06
46.85 140.91 19.87 0.78 -0.08 -0.62 0.02
38.81 142.45 8.75 0.56 -0.82 -0.14 0.32
45.32 136.83 20.54 0.95 0.06 -0.31 0.51
45.51 133.16 21.44 0.20 -0.92 -0.34 0.16
33.22 135.61 14.46 -0.42 -0.69 -0.59 -1.17
33.12 136.49 13.57 -0.54 -0.52 -0.66 -1.83
36.94 141.78 9.42 0.19 -0.94 -0.29 0.32
44.86 144.15 17.69 0.19 0.18 -0.97 -1.70
46.49 142.58 19.20 0.91 0.12 -0.39 -0.05
35.78 141.15 9.78 0.32 -0.57 -0.76 0.33
38.75 131.14 19.87 0.14 -0.99 0.06 -0.24
39.99 145.74 12.13 0.85 -0.08 -0.51 0.01
43.79 144.16 17.87 0.01 0.19 -0.98 -0.72
39.29 131.93 21.03 0.53 -0.84 0.09 -0.24
40.72 133.74 22.04 0.63 -0.73 -0.28 -0.36
35.77 133.75 16.80 -0.53 -0.85 0.01 0.05
42.50 143.26 16.67 0.52 0.69 -0.50 -0.16
32.66 137.73 13.05 -0.29 -0.78 -0.56 -0.60
46.61 133.90 21.64 0.80 -0.48 -0.34 -0.18
39.71 143.61 9.18 0.95 -0.32 -0.05 0.66
42.28 134.02 22.43 -0.15 -0.94 -0.29 0.10
46.28 144.13 18.78 0.91 0.11 -0.39 -1.58
37.58 131.44 19.19 -0.26 -0.96 -0.11 -0.59
36.20 133.16 17.65 -0.53 -0.71 -0.45 0.02
41.52 143.20 15.75 0.63 0.69 -0.35 -0.14
34.30 134.61 15.63 -0.45 -0.87 -0.20 -0.37
45.80 135.95 20.88 0.77 0.34 -0.54 0.16
36.48 131.91 18.65 -0.42 -0.83 -0.38 -0.96
47.34 139.83 20.38 0.64 -0.11 -0.76 0.00
34.21 140.74 9.42 0.12 -0.36 -0.92 -0.70
43.42 133.49 22.47 -0.36 -0.93 -0.08 0.44
33.48 138.85 10.86 -0.03 -0.81 -0.59 0.01
42.68 143.87 17.71 0.41 0.52 -0.75 -0.07
41.34 144.38 15.83 0.88 0.08 -0.46 0.05
39.09 145.55 10.52 0.52 0.68 -0.52 0.27
33.63 139.59 9.84 -0.01 -0.57 -0.82 -0.05
3 170 165 139
3 146 139 117
3 165 179 130
3 130 179 166
3 148 174 146
3 104 148 115
3 148 117 115
3 90 130 91
3 134 108 91
3 108 71 91
3 144 134 158
3 130 166 134
3 158 134 166
3 158 186 144
3 107 141 140
3 107 140 104
3 169 107 145
3 104 67 107
3 89 111 121
3 40 67 68
3 67 104 68
3 104 102 68
3 86 55 85
3 85 55 57
3 32 55 54
3 55 86 54
3 42 54 71
3 105 144 110
3 145 192 169
3 145 121 143
3 177 143 135
3 177 135 159
3 159 135 164
3 135 111 119
3 136 119 97
3 40 16 18
3 40 34 16
3 57 28 34
3 28 32 15
3 46 56 75
3 77 75 56
3 75 73 46
3 73 75 109
3 133 103 77
3 75 77 103
3 103 109 75
3 132 109 150
3 187 167 136
3 47 62 30
3 70 47 45
3 45 66 70
3 18 12 33
3 12 4 5
3 16 9 4
3 4 15 14
3 4 3 0
3 5 0 1
3 3 2 0
3 0 2 1
3 1 2 6
3 13 2 11
3 13 11 24
3 7 19 11
3 11 19 24
3 27 19 7
3 24 19 46
3 49 24 38
3 24 46 38
3 38 46 59
3 49 76 50
3 106 100 132
3 80 109 113
3 106 132 150
3 127 106 150
3 176 161 127
3 189 193 151
3 151 193 136
3 193 187 136
3 151 136 123
3 153 123 112
3 112 101 138
3 84 101 70
3 96 84 66
3 21 25 10
3 21 10 20
3 20 6 26
3 26 6 22
3 22 6 23
3 6 8 23
3 17 8 13
3 17 13 31
3 50 72 52
3 88 106 127
3 72 116 65
3 72 65 52
3 127 155 116
3 127 161 155
3 155 188 178
3 153 138 175
3 163 175 138
3 162 120 149
3 149 120 118
3 118 120 84
3 84 120 101
3 114 92 79
3 124 118 98
3 118 84 96
3 69 79 92
3 69 61 79
3 69 66 51
3 69 51 48
3 26 51 20
3 41 43 61
3 61 43 79
3 43 23 39
3 63 43 39
3 31 52 37
3 52 65 37
3 137 94 83
3 87 94 131
3 137 125 172
3 122 116 178
3 154 183 149
3 147 126 142
3 79 95 114
3 126 114 95
3 95 99 126
3 95 79 63
3 99 95 63
3 142 99 131
3 180 142 168
3 131 168 142
3 168 131 137
3 142 185 147
3 146 174 190
3 139 190 170
3 139 146 190
3 90 117 139
3 139 130 90
3 130 139 165
3 141 191 182
3 174 148 182
3 174 182 191
3 182 148 140
3 182 140 141
3 104 140 148
3 86 85 115
3 117 86 115
3 90 86 117
3 108 134 105
3 105 134 144
3 107 169 156
3 107 156 141
3 89 107 67
3 121 107 89
3 121 145 107
3 67 58 89
3 58 78 89
3 78 111 89
3 78 58 53
3 53 58 33
3 33 58 67
3 33 67 40
3 54 42 32
3 90 54 86
3 108 105 71
3 71 105 110
3 133 110 152
3 160 133 152
3 160 152 184
3 110 144 152
3 164 119 167
3 167 119 136
3 119 164 135
3 53 97 78
3 78 97 119
3 81 97 53
3 78 119 111
3 81 53 62
3 62 53 30
3 18 33 40
3 27 14 15
3 27 15 42
3 42 15 32
3 19 27 36
3 19 36 46
3 36 27 42
3 36 42 56
3 46 36 56
3 128 109 103
3 150 128 133
3 150 133 184
3 103 133 128
3 160 184 133
3 109 128 150
3 81 136 97
3 123 136 81
3 62 70 81
3 70 112 81
3 101 112 70
3 47 70 62
3 123 81 112
3 10 25 12
3 10 12 5
3 0 5 4
3 15 4 9
3 15 9 28
3 28 16 34
3 16 28 9
3 13 8 2
3 127 150 176
3 153 189 151
3 138 153 112
3 51 66 44
3 21 51 44
3 21 44 45
3 21 45 47
3 45 44 66
3 20 51 21
3 2 8 6
3 23 8 17
3 29 31 13
3 64 65 83
3 93 83 65
3 93 65 116
3 122 93 116
3 125 83 122
3 93 122 83
3 178 116 155
3 157 122 178
3 178 172 157
3 149 183 162
3 61 69 48
3 61 48 41
3 51 26 48
3 63 79 43
3 39 23 17
3 63 39 37
3 37 39 17
3 37 17 31
3 94 87 64
3 94 64 83
3 65 64 37
3 37 64 63
3 63 64 87
3 131 94 137
3 172 125 122
3 172 122 157
3 173 154 129
3 147 185 181
3 129 114 147
3 129 147 173
3 173 147 181
3 180 185 142
3 126 147 114
3 117 148 146
3 130 134 91
3 85 102 115
3 102 104 115
3 55 32 28
3 55 28 57
3 91 71 54
3 91 54 90
3 143 111 135
3 143 121 111
3 33 30 53
3 60 68 82
3 85 82 102
3 85 57 82
3 82 57 60
3 60 57 34
3 40 60 34
3 60 40 68
3 82 68 102
3 110 133 77
3 110 77 71
3 77 56 71
3 42 71 56
3 30 33 12
3 16 4 18
3 12 18 4
3 11 3 7
3 7 4 14
3 11 2 3
3 3 4 7
3 7 14 27
3 24 29 13
3 29 24 49
3 74 59 80
3 59 74 49
3 59 49 38
3 59 46 73
3 59 73 80
3 73 109 80
3 80 100 74
3 74 76 49
3 76 74 100
3 76 100 106
3 132 113 109
3 132 100 80
3 132 80 113
3 123 153 151
3 66 84 70
3 25 21 47
3 25 47 30
3 12 25 30
3 5 1 10
3 10 1 6
3 10 6 20
3 29 49 50
3 106 88 76
3 76 88 50
3 50 88 72
3 88 116 72
3 116 88 127
3 138 120 163
3 120 162 163
3 138 101 120
3 98 92 129
3 98 129 124
3 124 149 118
3 114 129 92
3 98 96 69
3 69 92 98
3 96 98 118
3 96 66 69
3 41 22 35
3 35 43 41
3 41 48 22
3 22 48 26
3 22 23 35
3 43 35 23
3 29 52 31
3 50 52 29
3 137 83 125
3 137 172 171
3 129 154 124
3 124 154 149
3 99 87 131
3 99 63 87
3 126 99 142
3 168 137 171
